<svg width="385" height="147" viewBox="0 0 385 147" fill="none" xmlns="http://www.w3.org/2000/svg">
<line x1="252.5" y1="1" x2="252.5" y2="26" stroke="#B0B1B5"/>
<line x1="265" y1="13.5" x2="240" y2="13.5" stroke="#B0B1B5"/>
<line x1="312.5" y1="1" x2="312.5" y2="26" stroke="#B0B1B5"/>
<line x1="325" y1="13.5" x2="300" y2="13.5" stroke="#B0B1B5"/>
<line x1="192.5" y1="1" x2="192.5" y2="26" stroke="#B0B1B5"/>
<line x1="205" y1="13.5" x2="180" y2="13.5" stroke="#B0B1B5"/>
<line x1="72.5" y1="1" x2="72.5" y2="26" stroke="#B0B1B5"/>
<line x1="85" y1="13.5" x2="60" y2="13.5" stroke="#B0B1B5"/>
<line x1="372.5" y1="1" x2="372.5" y2="26" stroke="#B0B1B5"/>
<line x1="385" y1="13.5" x2="360" y2="13.5" stroke="#B0B1B5"/>
<line x1="132.5" y1="1" x2="132.5" y2="26" stroke="#B0B1B5"/>
<line x1="145" y1="13.5" x2="120" y2="13.5" stroke="#B0B1B5"/>
<line x1="12.5" y1="1" x2="12.5" y2="26" stroke="#B0B1B5"/>
<line x1="25" y1="13.5" x2="-1.82131e-08" y2="13.5" stroke="#B0B1B5"/>
<line x1="252.5" y1="61" x2="252.5" y2="86" stroke="#B0B1B5"/>
<line x1="265" y1="73.5" x2="240" y2="73.5" stroke="#B0B1B5"/>
<line x1="312.5" y1="61" x2="312.5" y2="86" stroke="#B0B1B5"/>
<line x1="325" y1="73.5" x2="300" y2="73.5" stroke="#B0B1B5"/>
<line x1="192.5" y1="61" x2="192.5" y2="86" stroke="#B0B1B5"/>
<line x1="205" y1="73.5" x2="180" y2="73.5" stroke="#B0B1B5"/>
<line x1="72.5" y1="61" x2="72.5" y2="86" stroke="#B0B1B5"/>
<line x1="85" y1="73.5" x2="60" y2="73.5" stroke="#B0B1B5"/>
<line x1="372.5" y1="61" x2="372.5" y2="86" stroke="#B0B1B5"/>
<line x1="385" y1="73.5" x2="360" y2="73.5" stroke="#B0B1B5"/>
<line x1="132.5" y1="61" x2="132.5" y2="86" stroke="#B0B1B5"/>
<line x1="145" y1="73.5" x2="120" y2="73.5" stroke="#B0B1B5"/>
<line x1="12.5" y1="61" x2="12.5" y2="86" stroke="#B0B1B5"/>
<line x1="25" y1="73.5" x2="-1.82131e-08" y2="73.5" stroke="#B0B1B5"/>
<line x1="252.5" y1="121" x2="252.5" y2="146" stroke="#B0B1B5"/>
<line x1="265" y1="133.5" x2="240" y2="133.5" stroke="#B0B1B5"/>
<line x1="312.5" y1="121" x2="312.5" y2="146" stroke="#B0B1B5"/>
<line x1="325" y1="133.5" x2="300" y2="133.5" stroke="#B0B1B5"/>
<line x1="192.5" y1="121" x2="192.5" y2="146" stroke="#B0B1B5"/>
<line x1="205" y1="133.5" x2="180" y2="133.5" stroke="#B0B1B5"/>
<line x1="72.5" y1="121" x2="72.5" y2="146" stroke="#B0B1B5"/>
<line x1="85" y1="133.5" x2="60" y2="133.5" stroke="#B0B1B5"/>
<line x1="372.5" y1="121" x2="372.5" y2="146" stroke="#B0B1B5"/>
<line x1="385" y1="133.5" x2="360" y2="133.5" stroke="#B0B1B5"/>
<line x1="132.5" y1="121" x2="132.5" y2="146" stroke="#B0B1B5"/>
<line x1="145" y1="133.5" x2="120" y2="133.5" stroke="#B0B1B5"/>
<line x1="12.5" y1="121" x2="12.5" y2="146" stroke="#B0B1B5"/>
<line x1="25" y1="133.5" x2="-1.82131e-08" y2="133.5" stroke="#B0B1B5"/>
<path d="M192.747 61.17L195.546 63.2993L199.035 62.855L200.395 66.0986L203.638 67.4583L203.194 70.9472L205.323 73.7466L203.194 76.5459L203.638 80.0348L200.395 81.3945L199.035 84.6382L195.546 84.1939L192.747 86.3231L189.947 84.1939L186.458 84.6382L185.099 81.3945L181.855 80.0348L182.299 76.5459L180.17 73.7466L182.299 70.9472L181.855 67.4583L185.099 66.0986L186.458 62.855L189.947 63.2993L192.747 61.17Z" fill="#D6FFF8" stroke="#1A1B1F" stroke-width="2"/>
<path d="M227.764 61.17L230.563 63.2993L234.052 62.855L235.412 66.0986L238.655 67.4583L238.211 70.9472L240.34 73.7466L238.211 76.5459L238.655 80.0348L235.412 81.3945L234.052 84.6382L230.563 84.1939L227.764 86.3231L224.964 84.1939L221.475 84.6382L220.116 81.3945L216.872 80.0348L217.316 76.5459L215.187 73.7466L217.316 70.9472L216.872 67.4583L220.116 66.0986L221.475 62.855L224.964 63.2993L227.764 61.17Z" fill="white" stroke="#1A1B1F" stroke-width="2"/>
<path d="M227.764 96.187L230.563 98.3163L234.052 97.8719L235.412 101.116L238.655 102.475L238.211 105.964L240.34 108.764L238.211 111.563L238.655 115.052L235.412 116.411L234.052 119.655L230.563 119.211L227.764 121.34L224.964 119.211L221.475 119.655L220.116 116.411L216.872 115.052L217.316 111.563L215.187 108.764L217.316 105.964L216.872 102.475L220.116 101.116L221.475 97.8719L224.964 98.3163L227.764 96.187Z" fill="white" stroke="#1A1B1F" stroke-width="2"/>
<path d="M192.747 96.187L195.546 98.3163L199.035 97.8719L200.395 101.116L203.638 102.475L203.194 105.964L205.323 108.764L203.194 111.563L203.638 115.052L200.395 116.411L199.035 119.655L195.546 119.211L192.747 121.34L189.947 119.211L186.458 119.655L185.099 116.411L181.855 115.052L182.299 111.563L180.17 108.764L182.299 105.964L181.855 102.475L185.099 101.116L186.458 97.8719L189.947 98.3163L192.747 96.187Z" fill="white" stroke="#1A1B1F" stroke-width="2"/>
<path d="M157.73 96.187L160.529 98.3163L164.018 97.8719L165.378 101.116L168.621 102.475L168.177 105.964L170.306 108.764L168.177 111.563L168.621 115.052L165.378 116.411L164.018 119.655L160.529 119.211L157.73 121.34L154.93 119.211L151.441 119.655L150.082 116.411L146.838 115.052L147.282 111.563L145.153 108.764L147.282 105.964L146.838 102.475L150.082 101.116L151.441 97.8719L154.93 98.3163L157.73 96.187Z" fill="white" stroke="#1A1B1F" stroke-width="2"/>
<path d="M157.73 61.17L160.529 63.2993L164.018 62.855L165.378 66.0986L168.621 67.4583L168.177 70.9472L170.306 73.7466L168.177 76.5459L168.621 80.0348L165.378 81.3945L164.018 84.6382L160.529 84.1939L157.73 86.3231L154.93 84.1939L151.441 84.6382L150.082 81.3945L146.838 80.0348L147.282 76.5459L145.153 73.7466L147.282 70.9472L146.838 67.4583L150.082 66.0986L151.441 62.855L154.93 63.2993L157.73 61.17Z" fill="white" stroke="#1A1B1F" stroke-width="2"/>
<path d="M157.73 25.6599L160.529 27.7892L164.018 27.3448L165.378 30.5885L168.621 31.9482L168.177 35.4371L170.306 38.2364L168.177 41.0358L168.621 44.5247L165.378 45.8844L164.018 49.128L160.529 48.6837L157.73 50.813L154.93 48.6837L151.441 49.128L150.082 45.8844L146.838 44.5247L147.282 41.0358L145.153 38.2364L147.282 35.4371L146.838 31.9482L150.082 30.5885L151.441 27.3448L154.93 27.7892L157.73 25.6599Z" fill="white" stroke="#1A1B1F" stroke-width="2"/>
<path d="M192.747 25.6599L195.546 27.7892L199.035 27.3448L200.395 30.5885L203.638 31.9482L203.194 35.4371L205.323 38.2364L203.194 41.0358L203.638 44.5247L200.395 45.8844L199.035 49.128L195.546 48.6837L192.747 50.813L189.947 48.6837L186.458 49.128L185.099 45.8844L181.855 44.5247L182.299 41.0358L180.17 38.2364L182.299 35.4371L181.855 31.9482L185.099 30.5885L186.458 27.3448L189.947 27.7892L192.747 25.6599Z" fill="white" stroke="#1A1B1F" stroke-width="2"/>
<path d="M227.764 25.6599L230.563 27.7892L234.052 27.3448L235.412 30.5885L238.655 31.9482L238.211 35.4371L240.34 38.2364L238.211 41.0358L238.655 44.5247L235.412 45.8844L234.052 49.128L230.563 48.6837L227.764 50.813L224.964 48.6837L221.475 49.128L220.116 45.8844L216.872 44.5247L217.316 41.0358L215.187 38.2364L217.316 35.4371L216.872 31.9482L220.116 30.5885L221.475 27.3448L224.964 27.7892L227.764 25.6599Z" fill="white" stroke="#1A1B1F" stroke-width="2"/>
<circle class='anim rev' cx="192.5" cy="73.5" r="72.5" stroke="#1A1B1F" stroke-width="2" stroke-dasharray="6 3"/>
</svg>
