<svg xmlns="http://www.w3.org/2000/svg" viewBox="0 0 775 179">
  <defs>
    <style>.a,.c,.g,.h,.i,.j,.k,.l,.m,.n,.o,.p{fill:none;}.a{stroke:#1a1b1e;}.a,.c,.e,.g,.h,.i,.j,.k,.l,.m,.n,.o,.p{stroke-miterlimit:10;}.b{fill:#1a1b1e;}.c,.e,.g,.h,.i,.j,.k,.l,.m,.n,.o,.p{stroke:#1a1b1f;}.d{fill:#1a1b1f;}.e{fill:#fff;}.f{fill:#d6fff8;}.g{stroke-dasharray:10.11 4.05;}.h{stroke-dasharray:9.19 3.68;}.i{stroke-dasharray:9.78 3.91;}.j{stroke-dasharray:9.06 3.63;}.k{stroke-dasharray:9.61 3.84;}.l{stroke-dasharray:9.28 3.71;}.m{stroke-dasharray:9.05 3.62;}.n{stroke-dasharray:12.85 5.14;}.o{stroke-dasharray:9.35 3.74;}.p{stroke-width:2px;}</style>
  </defs>
  <title>01</title>
  <line class="a anim rev" x1="209.69" y1="89.08" x2="536.11" y2="89.08"/>
  <polygon class="b" points="529.66 96.08 528.98 95.35 535.72 89.08 528.98 82.82 529.66 82.08 537.19 89.08 532.79 93.17 529.66 96.08"/>
  <rect class="c" x="48.66" y="25" width="155" height="122.99"/>
  <path class="d" d="M97.16,44.43,89.61,66.52H87.09L80.25,47.61,73.67,66.52H71.16L63.61,44.43h2.78L72.48,63.6,79.1,44.43h2.56L88.33,63.6l6-19.17Z"/>
  <path class="d" d="M133.7,44.43l-7.55,22.09h-2.52l-6.84-18.91-6.57,18.91H107.7l-7.55-22.09h2.78L109,63.6l6.62-19.17h2.56l6.67,19.17,6-19.17Z"/>
  <path class="d" d="M170.24,44.43l-7.55,22.09h-2.52l-6.84-18.91-6.57,18.91h-2.52l-7.55-22.09h2.78l6.1,19.17,6.62-19.17h2.56l6.66,19.17,6.05-19.17Z"/>
  <path class="d" d="M175.88,64.71a2.19,2.19,0,1,1-2.2-2.21A2.07,2.07,0,0,1,175.88,64.71Z"/>
  <path class="d" d="M69.39,96.87a2.19,2.19,0,1,1-2.2-2.21A2.07,2.07,0,0,1,69.39,96.87Z"/>
  <path class="d" d="M93.4,82.07,91,83.22a6.4,6.4,0,0,0-6.67-4.86c-4.94,0-7.9,3.49-7.9,9.28s2.92,9.27,7.86,9.27c3.71,0,6.36-1.9,7-5.08l2.34.8c-1.23,4-4.63,6.49-9.22,6.49-6.58,0-10.46-4.33-10.46-11.48s3.93-11.49,10.5-11.49C88.9,76.15,92,78.36,93.4,82.07Z"/>
  <path class="d" d="M119.31,87.64c0,7.15-4,11.48-10.55,11.48S98.21,94.79,98.21,87.64s4-11.49,10.55-11.49S119.31,80.48,119.31,87.64Zm-18.58,0c0,5.78,3,9.32,8,9.32s8-3.54,8-9.32-3-9.32-8-9.32S100.73,81.85,100.73,87.64Z"/>
  <path class="d" d="M160.44,84.37V98.64h-2.52v-14c0-4.28-2.56-6.31-6.09-6.31a7.46,7.46,0,0,0-7.46,7.82V98.68h-2.51v-14c0-4.29-2.52-6.32-6.05-6.32-3.75,0-7.46,2.83-7.46,8V98.68h-2.51V76.59h2.25l.13,4.16a8.51,8.51,0,0,1,7.81-4.6c3.53,0,6.62,1.64,7.81,4.95,1.29-3.22,4.86-5,8.21-5C156.6,76.11,160.44,78.8,160.44,84.37Z"/>
  <ellipse class="e" cx="203.72" cy="70.32" rx="19.29" ry="19.32"/>
  <path class="e" d="M197.91,89.64h11.63a21.19,21.19,0,0,1,21.19,21.19V148a0,0,0,0,1,0,0h-54a0,0,0,0,1,0,0V110.82A21.19,21.19,0,0,1,197.91,89.64Z"/>
  <polygon class="f" points="438.19 128.5 339.19 128.5 339.19 50.5 411.49 50.5 438.19 76.81 438.19 128.5"/>
  <polyline class="c" points="438.19 123.5 438.19 128.5 433.19 128.5"/>
  <line class="g" x1="429.14" y1="128.5" x2="346.21" y2="128.5"/>
  <polyline class="c" points="344.19 128.5 339.19 128.5 339.19 123.5"/>
  <line class="h" x1="339.19" y1="119.82" x2="339.19" y2="57.34"/>
  <polyline class="c" points="339.19 55.5 339.19 50.5 344.19 50.5"/>
  <polyline class="i" points="348.1 50.5 411.49 50.5 433.24 71.93"/>
  <polyline class="c" points="434.63 73.3 438.19 76.81 438.19 81.81"/>
  <line class="j" x1="438.19" y1="85.44" x2="438.19" y2="121.69"/>
  <path class="c" d="M361.32,78.14a14,14,0,0,0,2.86-4.08"/>
  <path class="k" d="M365.61,70.5c.72-2.47.79-4.89-.64-6.22-2.5-2.33-6.24.43-8,2.3a21.25,21.25,0,0,0-5.49,12.14c-.46,4.07.28,9.91,4.95,11.39a5.42,5.42,0,0,0,4.76-.79,12.78,12.78,0,0,0,2.54-3,6.75,6.75,0,0,1,2.9-2.58c1.91-.72,3.19.44,4,2,.75,1.34,1.12,3.24,2.5,4.14,1.65,1.07,3.8-.45,5.11-1.5s3-2.4,4.85-2.16c1.46.19,2.58,1.33,3.92,1.93a10.3,10.3,0,0,0,3.74.69,71.69,71.69,0,0,0,7.33,0"/>
  <path class="c" d="M400,88.71c1.66-.11,3.32-.27,5-.47"/>
  <polyline class="c" points="417.32 94.98 418.1 94.36 418.88 94.98"/>
  <polyline class="c" points="420.53 96.3 421.31 96.92 422.3 96.76"/>
  <polyline class="c" points="424.4 96.44 425.39 96.28 425.76 97.21"/>
  <polyline class="c" points="426.51 99.15 426.87 100.08 427.81 100.43"/>
  <polyline class="c" points="429.79 101.18 430.73 101.54 430.57 102.53"/>
  <polyline class="c" points="430.24 104.57 430.08 105.56 430.72 106.33"/>
  <polyline class="c" points="432.05 107.94 432.68 108.72 432.05 109.49"/>
  <polyline class="c" points="430.72 111.11 430.08 111.88 430.24 112.87"/>
  <polyline class="c" points="430.57 114.91 430.73 115.9 429.79 116.25"/>
  <polyline class="c" points="427.81 117 426.87 117.35 426.51 118.29"/>
  <polyline class="c" points="425.76 120.22 425.39 121.15 424.4 121"/>
  <polyline class="c" points="422.3 120.67 421.31 120.52 420.53 121.14"/>
  <polyline class="c" points="418.88 122.45 418.1 123.08 417.32 122.45"/>
  <polyline class="c" points="415.67 121.14 414.89 120.52 413.9 120.67"/>
  <polyline class="c" points="411.8 121 410.81 121.15 410.45 120.22"/>
  <polyline class="c" points="409.7 118.29 409.33 117.35 408.4 117"/>
  <polyline class="c" points="406.41 116.25 405.48 115.9 405.63 114.91"/>
  <polyline class="c" points="405.96 112.87 406.12 111.88 405.49 111.11"/>
  <polyline class="c" points="404.16 109.49 403.52 108.72 404.16 107.94"/>
  <polyline class="c" points="405.49 106.33 406.12 105.56 405.96 104.57"/>
  <polyline class="c" points="405.63 102.53 405.48 101.54 406.41 101.18"/>
  <polyline class="c" points="408.4 100.43 409.33 100.08 409.7 99.15"/>
  <polyline class="c" points="410.45 97.21 410.81 96.28 411.8 96.44"/>
  <polyline class="c" points="413.9 96.76 414.89 96.92 415.67 96.3"/>
  <line class="c" x1="438.19" y1="76.79" x2="433.19" y2="76.79"/>
  <line class="l" x1="429.48" y1="76.79" x2="418.35" y2="76.79"/>
  <polyline class="c" points="416.49 76.8 411.49 76.8 411.49 71.8"/>
  <line class="m" x1="411.49" y1="68.17" x2="411.49" y2="57.31"/>
  <line class="c" x1="411.49" y1="55.5" x2="411.49" y2="50.5"/>
  <line class="c" x1="353.5" y1="106.2" x2="358.5" y2="106.2"/>
  <line class="n" x1="363.64" y1="106.2" x2="379.07" y2="106.2"/>
  <line class="c" x1="381.64" y1="106.2" x2="386.64" y2="106.2"/>
  <line class="c" x1="353.5" y1="111.23" x2="358.5" y2="111.23"/>
  <line class="o" x1="362.24" y1="111.23" x2="373.46" y2="111.23"/>
  <line class="c" x1="375.33" y1="111.23" x2="380.33" y2="111.23"/>
  <polygon class="c" points="637.69 1 657.17 16.78 681.94 12.86 690.92 36.27 714.33 45.25 710.41 70.02 726.19 89.5 710.41 108.98 714.33 133.75 690.92 142.73 681.94 166.14 657.17 162.22 637.69 178 618.21 162.22 593.44 166.14 584.46 142.73 561.05 133.75 564.97 108.98 549.19 89.5 564.97 70.02 561.05 45.25 584.46 36.27 593.44 12.86 618.21 16.78 637.69 1"/>
  <path class="p" d="M631,108.3a16.46,16.46,0,0,1-16.46,16.46h0a16.46,16.46,0,0,1-16.47-16.46V70.7a16.46,16.46,0,0,1,16.47-16.46h0A16.46,16.46,0,0,1,631,70.7"/>
  <path class="p" d="M642.91,124.76V70.7a16.47,16.47,0,0,1,16.47-16.46h0A16.46,16.46,0,0,1,675.84,70.7v54.06"/>
  <line class="p" x1="642.91" y1="96.78" x2="675.84" y2="96.78"/>
</svg>