<svg xmlns="http://www.w3.org/2000/svg" viewBox="0 0 775 179">
  <defs>
    <style>.a,.b,.c{fill:none;}.a,.b,.d{stroke:#1a1b1f;}.a,.b,.c,.d{stroke-miterlimit:10;}.b{stroke-width:2px;}.c{stroke:#1a1b1e;}.d{fill:#d6fff8;}</style>
  </defs>
  <title>02</title>
  <polygon class="a" points="282.5 1 301.99 16.78 326.75 12.86 335.73 36.27 359.14 45.25 355.22 70.02 371 89.5 355.22 108.98 359.14 133.75 335.73 142.73 326.75 166.14 301.99 162.22 282.5 178 263.01 162.22 238.25 166.14 229.27 142.73 205.86 133.75 209.78 108.98 194 89.5 209.78 70.02 205.86 45.25 229.27 36.27 238.25 12.86 263.01 16.78 282.5 1"/>
  <path class="b" d="M275.82,108.3a16.46,16.46,0,0,1-16.46,16.46h0a16.46,16.46,0,0,1-16.47-16.46V70.7a16.46,16.46,0,0,1,16.47-16.46h0A16.46,16.46,0,0,1,275.82,70.7"/>
  <path class="b" d="M287.72,124.76V70.7a16.47,16.47,0,0,1,16.47-16.46h0A16.46,16.46,0,0,1,320.65,70.7v54.06"/>
  <line class="b" x1="287.72" y1="96.78" x2="320.65" y2="96.78"/>
  <line class="anim rev c" x1="371.5" y1="89.3" x2="482" y2="89.3"/>
  <polygon class="d" points="581 128.5 482 128.5 482 50.5 554.3 50.5 581 76.81 581 128.5"/>
  <path class="a" d="M504.13,78.14c2.2-1.77,7-10.78,3.65-13.86-2.5-2.33-6.24.43-8,2.3a21.25,21.25,0,0,0-5.49,12.14c-.46,4.07.28,9.91,4.95,11.39a5.42,5.42,0,0,0,4.76-.79,12.78,12.78,0,0,0,2.54-3,6.75,6.75,0,0,1,2.9-2.58c1.91-.72,3.19.44,4,2,.75,1.34,1.12,3.24,2.5,4.14,1.65,1.07,3.8-.45,5.11-1.5s3-2.4,4.85-2.16c1.46.19,2.58,1.33,3.92,1.93a10.3,10.3,0,0,0,3.74.69,85.68,85.68,0,0,0,14.23-.6"/>
  <polyline class="a" points="581 76.8 554.3 76.8 554.3 50.5"/>
  <line class="a" x1="496.31" y1="106.2" x2="529.45" y2="106.2"/>
  <line class="a" x1="496.31" y1="111.23" x2="523.14" y2="111.23"/>
</svg>