<svg xmlns="http://www.w3.org/2000/svg" viewBox="0 0 775 253">
  <defs>
    <style>.a{fill:#d4f7da;}.a,.c,.e,.f,.g,.j,.k{stroke:#1a1b1f;}.a,.c,.e,.f,.g,.h,.j,.k{stroke-miterlimit:10;}.b,.k{fill:#1a1b1f;}.c,.e,.f,.g,.h{fill:none;}.d,.j{fill:#fff;}.e{stroke-dasharray:11 4.4;}.f{stroke-dasharray:7.78 3.11;}.g{stroke-width:2px;}.h{stroke:#1a1b1e;}.i{fill:#1a1b1e;}</style>
  </defs>
  <title>05</title>
  <polyline class="a" points="201.57 156 225.57 156 225.57 1 102.57 1 102.57 49"/>
  <polyline class="a" points="177.57 204 201.57 204 201.57 49 78.57 49 78.57 97"/>
  <rect class="a" x="54.57" y="97" width="123" height="155"/>
  <path class="b" d="M166.94,231.91h-4.78L161,235.77h-1.69l4.17-13.53h2.16l4.18,13.53h-1.74ZM164.46,224l-1.91,6.53h4L164.64,224Z"/>
  <line class="c" x1="115.57" y1="241" x2="115.57" y2="252"/>
  <line class="c" x1="115.57" y1="205" x2="115.57" y2="217"/>
  <line class="c" x1="115.57" y1="169.01" x2="115.57" y2="181.01"/>
  <line class="c" x1="115.57" y1="133" x2="115.57" y2="145"/>
  <rect class="c" x="67.57" y="217" width="76" height="24" transform="translate(211.14 458) rotate(-180)"/>
  <rect class="c" x="80.57" y="181" width="76" height="24" transform="translate(237.14 386) rotate(-180)"/>
  <rect class="c" x="75.57" y="145" width="76" height="24" transform="translate(227.14 314) rotate(-180)"/>
  <rect class="d" x="88.57" y="109" width="76" height="24"/>
  <polyline class="c" points="88.57 128 88.57 133 93.57 133"/>
  <line class="e" x1="97.97" y1="133" x2="157.37" y2="133"/>
  <polyline class="c" points="159.57 133 164.57 133 164.57 128"/>
  <line class="f" x1="164.57" y1="124.89" x2="164.57" y2="115.56"/>
  <polyline class="c" points="164.57 114 164.57 109 159.57 109"/>
  <line class="e" x1="155.17" y1="109" x2="95.77" y2="109"/>
  <polyline class="c" points="93.57 109 88.57 109 88.57 114"/>
  <line class="f" x1="88.57" y1="117.11" x2="88.57" y2="126.44"/>
  <line class="c" x1="149.57" y1="37" x2="149.57" y2="49"/>
  <rect class="d" x="122.57" y="13" width="76" height="24"/>
  <polyline class="c" points="122.57 32 122.57 37 127.57 37"/>
  <line class="e" x1="131.97" y1="37" x2="191.37" y2="37"/>
  <polyline class="c" points="193.57 37 198.57 37 198.57 32"/>
  <line class="f" x1="198.57" y1="28.89" x2="198.57" y2="19.56"/>
  <polyline class="c" points="198.57 18 198.57 13 193.57 13"/>
  <line class="e" x1="189.17" y1="13" x2="129.77" y2="13"/>
  <polyline class="c" points="127.57 13 122.57 13 122.57 18"/>
  <line class="f" x1="122.57" y1="21.11" x2="122.57" y2="30.44"/>
  <line class="c" x1="136.57" y1="85" x2="136.57" y2="97"/>
  <rect class="d" x="88.57" y="61" width="76" height="24"/>
  <polyline class="c" points="88.57 80 88.57 85 93.57 85"/>
  <line class="e" x1="97.97" y1="85" x2="157.37" y2="85"/>
  <polyline class="c" points="159.57 85 164.57 85 164.57 80"/>
  <line class="f" x1="164.57" y1="76.89" x2="164.57" y2="67.56"/>
  <polyline class="c" points="164.57 66 164.57 61 159.57 61"/>
  <line class="e" x1="155.17" y1="61" x2="95.77" y2="61"/>
  <polyline class="c" points="93.57 61 88.57 61 88.57 66"/>
  <line class="f" x1="88.57" y1="69.11" x2="88.57" y2="78.44"/>
  <path class="b" d="M189.76,174.24c2.32,0,3.74,1.37,3.74,3.48a2.83,2.83,0,0,1-2.12,2.91v.06a3,3,0,0,1,2.63,3.18,3.72,3.72,0,0,1-3.67,3.9h-5.21V174.24Zm2,4v-.76c0-1.24-.84-1.86-2.21-1.86h-2.81v4.46h2.81C191,180.11,191.79,179.51,191.79,178.27Zm.48,6v-.8c0-1.35-.91-2.05-2.42-2.05h-3.08v4.9h3.08C191.36,186.35,192.27,185.67,192.27,184.3Z"/>
  <path class="b" d="M209,133c0-4.5,1.62-7,4.93-7a4.29,4.29,0,0,1,4.2,3l-1.41.64c-.49-1.2-1.13-2.19-2.79-2.19-2.16,0-3.2,1.76-3.2,4.47v2.22c0,2.71,1,4.47,3.2,4.47,1.66,0,2.3-1,2.79-2.19l1.41.64a4.29,4.29,0,0,1-4.2,3C210.63,140,209,137.5,209,133Z"/>
  <polygon class="c" points="638.07 42.52 657.56 58.3 682.32 54.38 691.3 77.79 714.72 86.77 710.79 111.54 726.57 131.02 710.79 150.5 714.72 175.27 691.3 184.25 682.32 207.66 657.56 203.74 638.07 219.52 618.59 203.74 593.82 207.66 584.84 184.25 561.43 175.27 565.35 150.5 549.57 131.02 565.35 111.54 561.43 86.77 584.84 77.79 593.82 54.38 618.59 58.3 638.07 42.52"/>
  <path class="g" d="M631.39,149.82a16.46,16.46,0,0,1-16.46,16.46h0a16.46,16.46,0,0,1-16.46-16.46V112.23a16.46,16.46,0,0,1,16.46-16.47h0a16.46,16.46,0,0,1,16.46,16.47"/>
  <path class="g" d="M643.3,166.28v-54a16.46,16.46,0,0,1,16.46-16.47h0a16.47,16.47,0,0,1,16.47,16.47v54.05"/>
  <line class="g" x1="643.3" y1="138.3" x2="676.23" y2="138.3"/>
  <line class="h anim" x1="536.49" y1="131.02" x2="225.57" y2="131.02"/>
  <polygon class="i" points="530.04 124.02 529.36 124.75 536.1 131.02 529.36 137.29 530.04 138.02 537.57 131.02 533.17 126.93 530.04 124.02"/>
  <path class="h anim rev" d="M201.07,180h71.5a24.5,24.5,0,0,0,24.5-24.5h0a24.5,24.5,0,0,1,24.5-24.5"/>
  <path class="h anim rev" d="M177.57,229h46a24.5,24.5,0,0,0,24.5-24.5h0a24.5,24.5,0,0,1,24.5-24.5"/>
  <circle class="j" cx="363.07" cy="131.02" r="13"/>
  <circle class="k" cx="363.07" cy="131.02" r="1"/>
  <line class="c" x1="363.07" y1="131.02" x2="375.06" y2="125.97"/>
  <line class="c" x1="356.46" y1="126.6" x2="363.07" y2="131.02"/>
  <circle class="j" cx="389.07" cy="131.02" r="13"/>
  <circle class="k" cx="389.07" cy="131.02" r="1"/>
  <line class="c" x1="389.07" y1="131.02" x2="401.95" y2="129.23"/>
  <line class="c" x1="382.44" y1="126.6" x2="389.07" y2="131.02"/>
  <circle class="j" cx="415.07" cy="131.02" r="13"/>
  <circle class="k" cx="415.07" cy="131.02" r="1"/>
  <line class="c" x1="415.07" y1="131.02" x2="427.99" y2="132.46"/>
  <line class="c" x1="408.34" y1="126.6" x2="415.07" y2="131.02"/>
  <circle class="j" cx="249.06" cy="131.02" r="13"/>
  <circle class="k" cx="249.06" cy="131.02" r="1"/>
  <line class="c" x1="249.06" y1="131.02" x2="261.06" y2="125.97"/>
  <line class="c" x1="242.45" y1="126.6" x2="249.06" y2="131.02"/>
  <circle class="j" cx="225.06" cy="180.11" r="13"/>
  <circle class="k" cx="225.06" cy="180.11" r="1"/>
  <line class="c" x1="225.06" y1="180.11" x2="237.94" y2="178.32"/>
  <line class="c" x1="218.43" y1="175.69" x2="225.06" y2="180.11"/>
  <circle class="j" cx="201.06" cy="229.02" r="13"/>
  <circle class="k" cx="201.06" cy="229.02" r="1"/>
  <line class="c" x1="201.06" y1="229.02" x2="213.99" y2="230.46"/>
  <line class="c" x1="194.33" y1="224.6" x2="201.06" y2="229.02"/>
</svg>