<svg xmlns="http://www.w3.org/2000/svg" viewBox="0 0 775 163">
  <defs>
    <style>.a,.c,.f,.g,.k{fill:none;}.a{stroke:#1a1b1e;}.a,.c,.e,.f,.g,.h,.i,.j{stroke-miterlimit:10;}.b{fill:#1a1b1e;}.c,.e,.f,.g,.h,.i,.j,.k,.l{stroke:#1a1b1f;}.d,.i{fill:#1a1b1f;}.e,.l{fill:#fff;}.f{stroke-width:4px;}.g{stroke-width:6px;}.h{fill:#d6fff8;}.j{fill:#e5e5ff;}.k,.l{stroke-linejoin:round;}</style>
  </defs>
  <title>07</title>
  <line class="a anim rev" x1="221.07" y1="70.2" x2="547.49" y2="70.2"/>
  <polygon class="b" points="541.04 77.2 540.36 76.47 547.1 70.2 540.36 63.94 541.04 63.2 548.57 70.2 544.17 74.29 541.04 77.2"/>
  <rect class="c" x="62.57" y="0.75" width="155" height="122.99"/>
  <path class="d" d="M111.07,20.18l-7.55,22.08H101l-6.84-18.9-6.57,18.9H85.07L77.52,20.18H80.3l6.09,19.17L93,20.18h2.56l6.66,19.17,6.05-19.17Z"/>
  <path class="d" d="M147.61,20.18l-7.55,22.08h-2.51l-6.85-18.9-6.57,18.9h-2.52l-7.55-22.08h2.78l6.1,19.17,6.62-19.17h2.56l6.66,19.17,6.05-19.17Z"/>
  <path class="d" d="M184.15,20.18,176.6,42.26h-2.51l-6.85-18.9-6.57,18.9h-2.52l-7.54-22.08h2.78l6.09,19.17,6.62-19.17h2.56l6.66,19.17,6.05-19.17Z"/>
  <path class="d" d="M189.79,40.45a2.18,2.18,0,1,1-2.2-2.2A2.08,2.08,0,0,1,189.79,40.45Z"/>
  <path class="d" d="M83.31,72.62a2.19,2.19,0,1,1-2.21-2.21A2.08,2.08,0,0,1,83.31,72.62Z"/>
  <path class="d" d="M107.31,57.82,104.93,59a6.39,6.39,0,0,0-6.66-4.86c-5,0-7.9,3.49-7.9,9.27s2.91,9.28,7.85,9.28c3.71,0,6.36-1.9,7-5.08l2.34.8c-1.24,4-4.64,6.49-9.23,6.49-6.58,0-10.46-4.33-10.46-11.49S91.78,51.9,98.35,51.9C102.81,51.9,105.9,54.11,107.31,57.82Z"/>
  <path class="d" d="M133.22,63.38c0,7.16-4,11.49-10.55,11.49s-10.55-4.33-10.55-11.49,4-11.48,10.55-11.48S133.22,56.23,133.22,63.38Zm-18.58,0c0,5.79,3,9.32,8,9.32s8-3.53,8-9.32-3-9.32-8-9.32S114.64,57.6,114.64,63.38Z"/>
  <path class="d" d="M174.35,60.11V74.38h-2.51v-14c0-4.28-2.56-6.32-6.09-6.32a7.46,7.46,0,0,0-7.46,7.82V74.43h-2.52v-14c0-4.28-2.52-6.31-6.05-6.31-3.75,0-7.46,2.82-7.46,8V74.43h-2.51V52.34H142l.13,4.15a8.52,8.52,0,0,1,7.81-4.59c3.53,0,6.62,1.63,7.82,5,1.28-3.23,4.85-5,8.21-5C170.51,51.86,174.35,54.55,174.35,60.11Z"/>
  <ellipse class="e" cx="217.63" cy="46.07" rx="19.29" ry="19.32"/>
  <path class="e" d="M211.82,65.38h11.63a21.19,21.19,0,0,1,21.19,21.19v37.17a0,0,0,0,1,0,0h-54a0,0,0,0,1,0,0V86.57A21.19,21.19,0,0,1,211.82,65.38Z"/>
  <polyline class="e" points="420.83 123.75 311.57 123.75 311.57 0.75 466.57 0.75 466.57 84.27"/>
  <line class="f" x1="321.93" y1="11.95" x2="345.66" y2="11.95"/>
  <line class="f" x1="443.97" y1="11.95" x2="456.87" y2="11.95"/>
  <line class="f" x1="422.86" y1="11.95" x2="435.77" y2="11.95"/>
  <line class="g" x1="342.41" y1="49.22" x2="435.73" y2="49.22"/>
  <line class="g" x1="354.24" y1="59.95" x2="423.9" y2="59.95"/>
  <path class="c" d="M311.57,105.52c5.12-4.78,20.39-24.6,44.63-24.6,28.54,0,30.4,24.64,62.92,29.55l2.24.28"/>
  <polygon class="h" points="520.57 162.25 421.57 162.25 421.57 84.25 493.87 84.25 520.57 110.56 520.57 162.25"/>
  <path class="c" d="M443.7,111.89c2.2-1.77,7-10.78,3.65-13.86-2.5-2.33-6.24.43-8,2.3a21.25,21.25,0,0,0-5.49,12.14c-.46,4.07.29,9.91,4.95,11.39a5.41,5.41,0,0,0,4.76-.79,12.78,12.78,0,0,0,2.54-3,6.75,6.75,0,0,1,2.9-2.58c1.91-.72,3.19.44,4,2,.74,1.34,1.12,3.24,2.49,4.14,1.66,1.07,3.81-.45,5.12-1.5s3-2.4,4.84-2.16c1.46.19,2.58,1.33,3.92,1.93a10.33,10.33,0,0,0,3.74.69,85.68,85.68,0,0,0,14.23-.6"/>
  <polygon class="e" points="500.48 128.11 503.69 130.67 507.77 130.03 509.25 133.83 513.11 135.29 512.47 139.31 515.07 142.47 512.47 145.63 513.11 149.65 509.25 151.1 507.77 154.9 503.69 154.27 500.48 156.83 497.27 154.27 493.19 154.9 491.71 151.1 487.86 149.65 488.5 145.63 485.9 142.47 488.5 139.31 487.86 135.29 491.71 133.83 493.19 130.03 497.27 130.67 500.48 128.11"/>
  <polyline class="c" points="520.57 110.55 493.87 110.55 493.87 84.25"/>
  <line class="c" x1="435.88" y1="139.95" x2="469.02" y2="139.95"/>
  <line class="c" x1="435.88" y1="144.98" x2="462.71" y2="144.98"/>
  <circle class="e" cx="408.57" cy="97.25" r="13"/>
  <circle class="i" cx="408.57" cy="97.25" r="1"/>
  <circle class="e" cx="408.57" cy="123.25" r="13"/>
  <circle class="i" cx="408.57" cy="123.25" r="1"/>
  <circle class="e" cx="408.57" cy="149.25" r="13"/>
  <circle class="i" cx="408.57" cy="149.25" r="1"/>
  <line class="c" x1="408.57" y1="97.25" x2="420.56" y2="92.2"/>
  <line class="c" x1="401.96" y1="92.83" x2="408.57" y2="97.25"/>
  <line class="c" x1="408.57" y1="123.25" x2="421.45" y2="121.46"/>
  <line class="c" x1="401.94" y1="118.83" x2="408.57" y2="123.25"/>
  <line class="c" x1="408.57" y1="149.25" x2="421.49" y2="150.69"/>
  <line class="c" x1="401.84" y1="144.83" x2="408.57" y2="149.25"/>
  <rect class="j" x="560.57" y="1.23" width="155" height="123"/>
  <rect class="e" x="573.84" y="27.53" width="141.73" height="48.49"/>
  <rect class="e" x="584.36" y="49.26" width="17.72" height="13.4" rx="3.7"/>
  <path class="c" d="M593.2,40h0a6.07,6.07,0,0,1,6.07,6.07v3.14a0,0,0,0,1,0,0H587.13a0,0,0,0,1,0,0V46.12A6.07,6.07,0,0,1,593.2,40Z"/>
  <ellipse class="c" cx="593.22" cy="55.96" rx="3.11" ry="3.09"/>
  <path class="d" d="M624.65,52.86v9.93h-1.76V53.45c0-3.37-1.82-4.75-4.36-4.75a5.22,5.22,0,0,0-5.34,5.58v8.51h-1.76V40.42h1.76v9.9a5.8,5.8,0,0,1,5.53-3.16C622.12,47.16,624.65,49.06,624.65,52.86Z"/>
  <path class="d" d="M638.46,61.81a5.23,5.23,0,0,1-3.61,1.29c-2.38,0-4.08-1.26-4.08-4.14V49h-3.09v-1.5h3.09v-3.8l1.76-.46v4.26h5.81V49h-5.81v9.72c0,1.84,1,2.79,2.63,2.79a3.47,3.47,0,0,0,2.65-1.14Z"/>
  <path class="d" d="M649.15,61.81a5.23,5.23,0,0,1-3.61,1.29c-2.38,0-4.08-1.26-4.08-4.14V49h-3.09v-1.5h3.09v-3.8l1.76-.46v4.26H649V49h-5.81v9.72c0,1.84,1,2.79,2.63,2.79a3.5,3.5,0,0,0,2.66-1.14Z"/>
  <path class="d" d="M666.74,55.13c0,5-2.69,8-7,8a5.82,5.82,0,0,1-5.56-3.34v9.47h-1.76V47.47h1.57l.1,3.25a5.79,5.79,0,0,1,5.65-3.56C664.05,47.16,666.74,50.14,666.74,55.13Zm-1.77,0c0-4-2-6.43-5.49-6.43-3.13,0-5.26,2.27-5.35,6v.86c.09,3.74,2.19,6,5.35,6C662.94,61.57,665,59.12,665,55.13Z"/>
  <path class="d" d="M669.92,59.55l1.45-.95c.68,2,2.72,3,5.25,3,2.82,0,4.33-1.17,4.33-2.76,0-1.41-1.08-2.21-4.48-2.79-4.39-.8-5.93-2-5.93-4.41s2.35-4.45,6-4.45c3.24,0,5.19,1.17,6,3.74l-1.48.86c-.65-2.17-2.19-3.06-4.48-3.06s-4.2,1.25-4.2,2.72,1.14,2.39,4.63,3c4.27.7,5.78,1.93,5.78,4.32,0,2.63-2.44,4.38-6.27,4.38C673.44,63.1,670.88,61.94,669.92,59.55Z"/>
  <path class="d" d="M689.85,48.79a1.53,1.53,0,1,1-3.06,0,1.53,1.53,0,0,1,3.06,0Zm0,12.75A1.53,1.53,0,1,1,688.3,60,1.45,1.45,0,0,1,689.85,61.54Z"/>
  <path class="d" d="M695,64.94h-1.67l8.93-24.52h1.7Z"/>
  <path class="d" d="M702.86,64.94h-1.67l8.93-24.52h1.7Z"/>
  <rect class="k" x="573.84" y="89.11" width="64.26" height="35.11"/>
  <rect class="k" x="651.31" y="89.11" width="64.26" height="35.11"/>
  <line class="k" x1="694.99" y1="7.11" x2="709.64" y2="21.65"/>
  <line class="k" x1="694.99" y1="21.65" x2="709.64" y2="7.11"/>
  <line class="k" x1="671.71" y1="21.65" x2="685.82" y2="21.65"/>
  <polygon class="l" points="705.89 105.64 693.96 93.8 682.02 81.96 682.02 98.7 682.02 115.45 689.17 107.76 693.95 119.2 700.13 116.66 695.36 105.22 705.89 105.64"/>
</svg>