<svg width="1270" height="416" viewBox="0 0 1270 416" fill="none" xmlns="http://www.w3.org/2000/svg">
<g id="Group 191">
<g id="Illustration/Grid/Main">
<g id="Crosshair">
<line id="Line 1" x1="147.5" y1="2.18557e-08" x2="147.5" y2="50" stroke="#B0B1B5"/>
<line id="Line 2" x1="172" y1="25.5" x2="122" y2="25.5" stroke="#B0B1B5"/>
</g>
<g id="Crosshair_2">
<line id="Line 1_2" x1="25.5" y1="2.18557e-08" x2="25.5" y2="50" stroke="#B0B1B5"/>
<line id="Line 2_2" x1="50" y1="25.5" x2="-3.64262e-08" y2="25.5" stroke="#B0B1B5"/>
</g>
<g id="Crosshair_3">
<line id="Line 1_3" x1="1123.5" y1="2.18557e-08" x2="1123.5" y2="50" stroke="#B0B1B5"/>
<line id="Line 2_3" x1="1148" y1="25.5" x2="1098" y2="25.5" stroke="#B0B1B5"/>
</g>
<g id="Crosshair_4">
<line id="Line 1_4" x1="1245.5" y1="2.18557e-08" x2="1245.5" y2="50" stroke="#B0B1B5"/>
<line id="Line 2_4" x1="1270" y1="25.5" x2="1220" y2="25.5" stroke="#B0B1B5"/>
</g>
<g id="Crosshair_5">
<line id="Line 1_5" x1="1001.5" y1="2.18557e-08" x2="1001.5" y2="50" stroke="#B0B1B5"/>
<line id="Line 2_5" x1="1026" y1="25.5" x2="976" y2="25.5" stroke="#B0B1B5"/>
</g>
<g id="Crosshair_6">
<line id="Line 1_6" x1="879.5" y1="2.18557e-08" x2="879.5" y2="50" stroke="#B0B1B5"/>
<line id="Line 2_6" x1="904" y1="25.5" x2="854" y2="25.5" stroke="#B0B1B5"/>
</g>
<g id="Crosshair_7">
<line id="Line 1_7" x1="757.5" y1="2.18557e-08" x2="757.5" y2="50" stroke="#B0B1B5"/>
<line id="Line 2_7" x1="782" y1="25.5" x2="732" y2="25.5" stroke="#B0B1B5"/>
</g>
<g id="Crosshair_8">
<line id="Line 1_8" x1="635.5" y1="2.18557e-08" x2="635.5" y2="50" stroke="#B0B1B5"/>
<line id="Line 2_8" x1="660" y1="25.5" x2="610" y2="25.5" stroke="#B0B1B5"/>
</g>
<g id="Crosshair_9">
<line id="Line 1_9" x1="513.5" y1="2.18557e-08" x2="513.5" y2="50" stroke="#B0B1B5"/>
<line id="Line 2_9" x1="538" y1="25.5" x2="488" y2="25.5" stroke="#B0B1B5"/>
</g>
<g id="Crosshair_10">
<line id="Line 1_10" x1="391.5" y1="2.18557e-08" x2="391.5" y2="50" stroke="#B0B1B5"/>
<line id="Line 2_10" x1="416" y1="25.5" x2="366" y2="25.5" stroke="#B0B1B5"/>
</g>
<g id="Crosshair_11">
<line id="Line 1_11" x1="269.5" y1="2.18557e-08" x2="269.5" y2="50" stroke="#B0B1B5"/>
<line id="Line 2_11" x1="294" y1="25.5" x2="244" y2="25.5" stroke="#B0B1B5"/>
</g>
<g id="Crosshair_12">
<line id="Line 1_12" x1="147.5" y1="122" x2="147.5" y2="172" stroke="#B0B1B5"/>
<line id="Line 2_12" x1="172" y1="147.5" x2="122" y2="147.5" stroke="#B0B1B5"/>
</g>
<g id="Crosshair_13">
<line id="Line 1_13" x1="25.5" y1="122" x2="25.5" y2="172" stroke="#B0B1B5"/>
<line id="Line 2_13" x1="50" y1="147.5" x2="-3.64262e-08" y2="147.5" stroke="#B0B1B5"/>
</g>
<g id="Crosshair_14">
<line id="Line 1_14" x1="1123.5" y1="122" x2="1123.5" y2="172" stroke="#B0B1B5"/>
<line id="Line 2_14" x1="1148" y1="147.5" x2="1098" y2="147.5" stroke="#B0B1B5"/>
</g>
<g id="Crosshair_15">
<line id="Line 1_15" x1="1245.5" y1="122" x2="1245.5" y2="172" stroke="#B0B1B5"/>
<line id="Line 2_15" x1="1270" y1="147.5" x2="1220" y2="147.5" stroke="#B0B1B5"/>
</g>
<g id="Crosshair_16">
<line id="Line 1_16" x1="1001.5" y1="122" x2="1001.5" y2="172" stroke="#B0B1B5"/>
<line id="Line 2_16" x1="1026" y1="147.5" x2="976" y2="147.5" stroke="#B0B1B5"/>
</g>
<g id="Crosshair_17">
<line id="Line 1_17" x1="879.5" y1="122" x2="879.5" y2="172" stroke="#B0B1B5"/>
<line id="Line 2_17" x1="904" y1="147.5" x2="854" y2="147.5" stroke="#B0B1B5"/>
</g>
<g id="Crosshair_18">
<line id="Line 1_18" x1="757.5" y1="122" x2="757.5" y2="172" stroke="#B0B1B5"/>
<line id="Line 2_18" x1="782" y1="147.5" x2="732" y2="147.5" stroke="#B0B1B5"/>
</g>
<g id="Crosshair_19">
<line id="Line 1_19" x1="635.5" y1="122" x2="635.5" y2="172" stroke="#B0B1B5"/>
<line id="Line 2_19" x1="660" y1="147.5" x2="610" y2="147.5" stroke="#B0B1B5"/>
</g>
<g id="Crosshair_20">
<line id="Line 1_20" x1="513.5" y1="122" x2="513.5" y2="172" stroke="#B0B1B5"/>
<line id="Line 2_20" x1="538" y1="147.5" x2="488" y2="147.5" stroke="#B0B1B5"/>
</g>
<g id="Crosshair_21">
<line id="Line 1_21" x1="391.5" y1="122" x2="391.5" y2="172" stroke="#B0B1B5"/>
<line id="Line 2_21" x1="416" y1="147.5" x2="366" y2="147.5" stroke="#B0B1B5"/>
</g>
<g id="Crosshair_22">
<line id="Line 1_22" x1="269.5" y1="122" x2="269.5" y2="172" stroke="#B0B1B5"/>
<line id="Line 2_22" x1="294" y1="147.5" x2="244" y2="147.5" stroke="#B0B1B5"/>
</g>
<g id="Crosshair_23">
<line id="Line 1_23" x1="147.5" y1="244" x2="147.5" y2="294" stroke="#B0B1B5"/>
<line id="Line 2_23" x1="172" y1="269.5" x2="122" y2="269.5" stroke="#B0B1B5"/>
</g>
<g id="Crosshair_24">
<line id="Line 1_24" x1="25.5" y1="244" x2="25.5" y2="294" stroke="#B0B1B5"/>
<line id="Line 2_24" x1="50" y1="269.5" x2="-3.64262e-08" y2="269.5" stroke="#B0B1B5"/>
</g>
<g id="Crosshair_25">
<line id="Line 1_25" x1="1123.5" y1="244" x2="1123.5" y2="294" stroke="#B0B1B5"/>
<line id="Line 2_25" x1="1148" y1="269.5" x2="1098" y2="269.5" stroke="#B0B1B5"/>
</g>
<g id="Crosshair_26">
<line id="Line 1_26" x1="1245.5" y1="244" x2="1245.5" y2="294" stroke="#B0B1B5"/>
<line id="Line 2_26" x1="1270" y1="269.5" x2="1220" y2="269.5" stroke="#B0B1B5"/>
</g>
<g id="Crosshair_27">
<line id="Line 1_27" x1="1001.5" y1="244" x2="1001.5" y2="294" stroke="#B0B1B5"/>
<line id="Line 2_27" x1="1026" y1="269.5" x2="976" y2="269.5" stroke="#B0B1B5"/>
</g>
<g id="Crosshair_28">
<line id="Line 1_28" x1="879.5" y1="244" x2="879.5" y2="294" stroke="#B0B1B5"/>
<line id="Line 2_28" x1="904" y1="269.5" x2="854" y2="269.5" stroke="#B0B1B5"/>
</g>
<g id="Crosshair_29">
<line id="Line 1_29" x1="757.5" y1="244" x2="757.5" y2="294" stroke="#B0B1B5"/>
<line id="Line 2_29" x1="782" y1="269.5" x2="732" y2="269.5" stroke="#B0B1B5"/>
</g>
<g id="Crosshair_30">
<line id="Line 1_30" x1="635.5" y1="244" x2="635.5" y2="294" stroke="#B0B1B5"/>
<line id="Line 2_30" x1="660" y1="269.5" x2="610" y2="269.5" stroke="#B0B1B5"/>
</g>
<g id="Crosshair_31">
<line id="Line 1_31" x1="513.5" y1="244" x2="513.5" y2="294" stroke="#B0B1B5"/>
<line id="Line 2_31" x1="538" y1="269.5" x2="488" y2="269.5" stroke="#B0B1B5"/>
</g>
<g id="Crosshair_32">
<line id="Line 1_32" x1="391.5" y1="244" x2="391.5" y2="294" stroke="#B0B1B5"/>
<line id="Line 2_32" x1="416" y1="269.5" x2="366" y2="269.5" stroke="#B0B1B5"/>
</g>
<g id="Crosshair_33">
<line id="Line 1_33" x1="269.5" y1="244" x2="269.5" y2="294" stroke="#B0B1B5"/>
<line id="Line 2_33" x1="294" y1="269.5" x2="244" y2="269.5" stroke="#B0B1B5"/>
</g>
<g id="Crosshair_34">
<line id="Line 1_34" x1="147.5" y1="366" x2="147.5" y2="416" stroke="#B0B1B5"/>
<line id="Line 2_34" x1="172" y1="391.5" x2="122" y2="391.5" stroke="#B0B1B5"/>
</g>
<g id="Crosshair_35">
<line id="Line 1_35" x1="25.5" y1="366" x2="25.5" y2="416" stroke="#B0B1B5"/>
<line id="Line 2_35" x1="50" y1="391.5" x2="-3.64262e-08" y2="391.5" stroke="#B0B1B5"/>
</g>
<g id="Crosshair_36">
<line id="Line 1_36" x1="1123.5" y1="366" x2="1123.5" y2="416" stroke="#B0B1B5"/>
<line id="Line 2_36" x1="1148" y1="391.5" x2="1098" y2="391.5" stroke="#B0B1B5"/>
</g>
<g id="Crosshair_37">
<line id="Line 1_37" x1="1245.5" y1="366" x2="1245.5" y2="416" stroke="#B0B1B5"/>
<line id="Line 2_37" x1="1270" y1="391.5" x2="1220" y2="391.5" stroke="#B0B1B5"/>
</g>
<g id="Crosshair_38">
<line id="Line 1_38" x1="1001.5" y1="366" x2="1001.5" y2="416" stroke="#B0B1B5"/>
<line id="Line 2_38" x1="1026" y1="391.5" x2="976" y2="391.5" stroke="#B0B1B5"/>
</g>
<g id="Crosshair_39">
<line id="Line 1_39" x1="879.5" y1="366" x2="879.5" y2="416" stroke="#B0B1B5"/>
<line id="Line 2_39" x1="904" y1="391.5" x2="854" y2="391.5" stroke="#B0B1B5"/>
</g>
<g id="Crosshair_40">
<line id="Line 1_40" x1="757.5" y1="366" x2="757.5" y2="416" stroke="#B0B1B5"/>
<line id="Line 2_40" x1="782" y1="391.5" x2="732" y2="391.5" stroke="#B0B1B5"/>
</g>
<g id="Crosshair_41">
<line id="Line 1_41" x1="635.5" y1="366" x2="635.5" y2="416" stroke="#B0B1B5"/>
<line id="Line 2_41" x1="660" y1="391.5" x2="610" y2="391.5" stroke="#B0B1B5"/>
</g>
<g id="Crosshair_42">
<line id="Line 1_42" x1="513.5" y1="366" x2="513.5" y2="416" stroke="#B0B1B5"/>
<line id="Line 2_42" x1="538" y1="391.5" x2="488" y2="391.5" stroke="#B0B1B5"/>
</g>
<g id="Crosshair_43">
<line id="Line 1_43" x1="391.5" y1="366" x2="391.5" y2="416" stroke="#B0B1B5"/>
<line id="Line 2_43" x1="416" y1="391.5" x2="366" y2="391.5" stroke="#B0B1B5"/>
</g>
<g id="Crosshair_44">
<line id="Line 1_44" x1="269.5" y1="366" x2="269.5" y2="416" stroke="#B0B1B5"/>
<line id="Line 2_44" x1="294" y1="391.5" x2="244" y2="391.5" stroke="#B0B1B5"/>
</g>
</g>
</g>
</svg>
