<?xml version="1.0" encoding="utf-8"?>
<svg version="1.1" id="Layer_1" xmlns="http://www.w3.org/2000/svg" xmlns:xlink="http://www.w3.org/1999/xlink" x="0px" y="0px"
	 viewBox="0 0 538 294" style="enable-background:new 0 0 538 294;" xml:space="preserve">
<style type="text/css">
	.st0{fill:none;stroke:#B0B1B5;}
	.st1{fill:none;stroke:#1A1B1F;stroke-width:2;stroke-dasharray:6,3;}
	.st2{fill:#D6FFF8;}
	.st3{fill:none;stroke:#1A1B1F;stroke-width:2;}
	.st4{fill:#D6FFF8;stroke:#1A1B1F;stroke-width:2;}
	.st5{fill:none;stroke:#000000;stroke-width:2;}
	.st6{fill:#FFFFFF;}
</style>
<line class="st0" x1="25.5" y1="0" x2="25.5" y2="50"/>
<line class="st0" x1="50" y1="25.5" x2="0" y2="25.5"/>
<line class="st0" x1="25.5" y1="122" x2="25.5" y2="172"/>
<line class="st0" x1="50" y1="147.5" x2="0" y2="147.5"/>
<line class="st0" x1="25.5" y1="244" x2="25.5" y2="294"/>
<line class="st0" x1="50" y1="269.5" x2="0" y2="269.5"/>
<line class="st0" x1="513.5" y1="0" x2="513.5" y2="50"/>
<line class="st0" x1="538" y1="25.5" x2="488" y2="25.5"/>
<line class="st0" x1="513.5" y1="122" x2="513.5" y2="172"/>
<line class="st0" x1="538" y1="147.5" x2="488" y2="147.5"/>
<line class="st0" x1="513.5" y1="244" x2="513.5" y2="294"/>
<line class="st0" x1="538" y1="269.5" x2="488" y2="269.5"/>
<line class="st0" x1="391.5" y1="0" x2="391.5" y2="50"/>
<line class="st0" x1="416" y1="25.5" x2="366" y2="25.5"/>
<line class="st0" x1="269.5" y1="0" x2="269.5" y2="50"/>
<line class="st0" x1="294" y1="25.5" x2="244" y2="25.5"/>
<line class="st0" x1="147.5" y1="0" x2="147.5" y2="50"/>
<line class="st0" x1="172" y1="25.5" x2="122" y2="25.5"/>
<line class="st0" x1="391.5" y1="122" x2="391.5" y2="172"/>
<line class="st0" x1="416" y1="147.5" x2="366" y2="147.5"/>
<line class="st0" x1="269.5" y1="122" x2="269.5" y2="172"/>
<line class="st0" x1="294" y1="147.5" x2="244" y2="147.5"/>
<line class="st0" x1="147.5" y1="122" x2="147.5" y2="172"/>
<line class="st0" x1="172" y1="147.5" x2="122" y2="147.5"/>
<line class="st0" x1="391.5" y1="244" x2="391.5" y2="294"/>
<line class="st0" x1="416" y1="269.5" x2="366" y2="269.5"/>
<line class="st0" x1="269.5" y1="244" x2="269.5" y2="294"/>
<line class="st0" x1="294" y1="269.5" x2="244" y2="269.5"/>
<line class="st0" x1="147.5" y1="244" x2="147.5" y2="294"/>
<line class="st0" x1="172" y1="269.5" x2="122" y2="269.5"/>
<path class="anim st1" d="M270,26v243h243V26H270z"/>
<path class="st2" d="M435,83.8l17,13.7L470,51l17,15.5V121h-17h-18h-17h-18v-9L435,83.8z"/>
<path class="st3" d="M435,83.8V121 M435,121c-5.5,0-11.4,0-18,0v-9l18-28.2l17,13.7 M452,97.5V121 M452,97.5L470,51l17,15.5V121
	c-6.2,0-11.8,0-17,0 M470,51v70 M470,121c-6.3,0-12.2,0-18,0 M452,121c-5.5,0-11.1,0-17,0"/>
<circle class="st4" cx="477" cy="203" r="31"/>
<path class="st4" d="M476.5,234c-33.4,0-60.5,26.4-60.5,59h121C537,260.4,509.9,234,476.5,234z"/>
<rect x="295" y="173" class="st4" width="70" height="70"/>
<line class="st5" x1="328" y1="173" x2="328" y2="243"/>
<line class="st5" x1="310" y1="173" x2="310" y2="243"/>
<line class="st5" x1="301" y1="173" x2="301" y2="243"/>
<rect x="245" y="1" class="st6" width="121" height="121"/>
<rect x="281" y="50" class="st4" width="72" height="23"/>
<rect x="270" y="86" class="st4" width="72" height="23"/>
<rect x="258" y="14" class="st4" width="72" height="23"/>
<line class="st3" x1="306" y1="37" x2="306" y2="50"/>
<line class="st3" x1="306" y1="110" x2="306" y2="121.5"/>
<line class="st3" x1="306" y1="73" x2="306" y2="86"/>
<rect x="245" y="1" class="st3" width="121" height="121"/>
</svg>
