<svg xmlns="http://www.w3.org/2000/svg" viewBox="0 0 466.27 528.61"><defs><style>.a{fill:#1a1b1f;}.b{fill:none;}.b,.c,.d{stroke:#1a1b1f;stroke-miterlimit:10;}.c{fill:#effffd;}.d{fill:#fff;}</style></defs><title>CT_cert-anatomy_v2</title><path class="a" d="M185.34,26.57h1.44v1.52h.08a3,3,0,0,1,2.86-1.73,3.16,3.16,0,0,1,2.67,1.28,5.88,5.88,0,0,1,1,3.58,5.87,5.87,0,0,1-1,3.57,3.14,3.14,0,0,1-2.67,1.29,3,3,0,0,1-2.86-1.73h-.08v5.11h-1.44ZM191.1,34a2.85,2.85,0,0,0,.71-2V30.43a2.88,2.88,0,0,0-.71-2,2.51,2.51,0,0,0-1.94-.75,2.75,2.75,0,0,0-1.69.5,1.64,1.64,0,0,0-.69,1.4v3.35a1.66,1.66,0,0,0,.69,1.41,2.82,2.82,0,0,0,1.69.5A2.48,2.48,0,0,0,191.1,34Z"/><path class="a" d="M201.13,34.35h-.07a2.66,2.66,0,0,1-2.65,1.73,3.06,3.06,0,0,1-2.35-.94,3.67,3.67,0,0,1-.87-2.61v-6h1.44v5.71a2.79,2.79,0,0,0,.56,1.89,2.07,2.07,0,0,0,1.64.63,2.81,2.81,0,0,0,1.63-.46,1.5,1.5,0,0,0,.67-1.32V26.57h1.44v9.29h-1.44Z"/><path class="a" d="M205.14,22.54h1.45v5.55h.07a3,3,0,0,1,2.86-1.73,3.16,3.16,0,0,1,2.67,1.28,5.88,5.88,0,0,1,1,3.58,5.87,5.87,0,0,1-1,3.57,3.14,3.14,0,0,1-2.67,1.29,3,3,0,0,1-2.86-1.73h-.07v1.51h-1.45ZM210.91,34a2.89,2.89,0,0,0,.7-2V30.43a2.92,2.92,0,0,0-.7-2,2.55,2.55,0,0,0-1.95-.75,2.73,2.73,0,0,0-1.69.5,1.63,1.63,0,0,0-.68,1.4v3.35a1.65,1.65,0,0,0,.68,1.41,2.8,2.8,0,0,0,1.69.5A2.52,2.52,0,0,0,210.91,34Z"/><path class="a" d="M214.77,34.64H218V23.77h-3.24V22.54h4.68v12.1h3.24v1.22h-7.92Z"/><path class="a" d="M224.85,34.6h3.41V27.85h-3.41V26.57h4.85v8h3.11v1.26h-8Zm5-12.06v1.91h-1.9V22.54Z"/><path class="a" d="M235.76,34.76a5.29,5.29,0,0,1-1.11-3.54,5.33,5.33,0,0,1,1.11-3.55,4.31,4.31,0,0,1,5.24-.74,3.47,3.47,0,0,1,1.28,1.57l-1.15.61a2.12,2.12,0,0,0-.85-1.11,2.51,2.51,0,0,0-1.44-.4,2.46,2.46,0,0,0-1.94.78,3,3,0,0,0-.71,2.05V32a2.93,2.93,0,0,0,.71,2,2.51,2.51,0,0,0,2,.79,2.6,2.6,0,0,0,2.52-1.62l1,.7a3.51,3.51,0,0,1-1.33,1.57,4,4,0,0,1-2.23.59A3.85,3.85,0,0,1,235.76,34.76Z"/><path class="a" d="M254.82,22.54h1.44V31h.08L258,29.42l3.09-2.85h1.77L259,30.21l4.31,5.65h-1.79L257.87,31l-1.61,1.46v3.36h-1.44Z"/><path class="a" d="M266.09,35.48a3.91,3.91,0,0,1-1.52-1.69,6.39,6.39,0,0,1,0-5.12,4,4,0,0,1,1.5-1.71,4.14,4.14,0,0,1,2.23-.6,3.88,3.88,0,0,1,3.61,2.19,5.22,5.22,0,0,1,.51,2.34v.69h-6.88V32a2.71,2.71,0,0,0,2.85,2.83,3,3,0,0,0,1.6-.43,2.86,2.86,0,0,0,1.06-1.19l1.06.72a3.45,3.45,0,0,1-1.41,1.55,4.46,4.46,0,0,1-2.31.59A4.37,4.37,0,0,1,266.09,35.48Zm.81-7.57a2.69,2.69,0,0,0-1,1,2.9,2.9,0,0,0-.36,1.44v.13h5.33v-.2a2.82,2.82,0,0,0-.71-2,2.44,2.44,0,0,0-1.86-.76A2.79,2.79,0,0,0,266.9,27.91Z"/><path class="a" d="M281.14,26.57h1.44L278,37.9a2.65,2.65,0,0,1-.85,1.2,2.68,2.68,0,0,1-1.53.36h-1.36V38.24H276a.52.52,0,0,0,.52-.36l.9-2.2-3.74-9.11h1.47l1.57,3.89L278.12,34h.07l1.38-3.53Z"/><path class="a" d="M12,13.39A5.3,5.3,0,0,1,10.9,9.85,5.33,5.33,0,0,1,12,6.3,3.83,3.83,0,0,1,15.09,5a3.82,3.82,0,0,1,2.16.57,3.41,3.41,0,0,1,1.28,1.57l-1.15.61a2.18,2.18,0,0,0-.85-1.12,2.54,2.54,0,0,0-1.44-.39A2.47,2.47,0,0,0,13.15,7a2.92,2.92,0,0,0-.7,2v1.59a2.92,2.92,0,0,0,.7,2,2.53,2.53,0,0,0,2,.78,2.6,2.6,0,0,0,2.52-1.62l1,.71a3.53,3.53,0,0,1-1.34,1.57,4,4,0,0,1-2.23.59A3.85,3.85,0,0,1,12,13.39Z"/><path class="a" d="M22.45,14.11A3.84,3.84,0,0,1,21,12.42a6,6,0,0,1-.52-2.57A6.06,6.06,0,0,1,21,7.27a3.9,3.9,0,0,1,1.46-1.69,4.55,4.55,0,0,1,4.48,0,4,4,0,0,1,1.46,1.69,6.06,6.06,0,0,1,.51,2.58,6,6,0,0,1-.51,2.57,3.91,3.91,0,0,1-1.46,1.69,4.48,4.48,0,0,1-4.48,0Zm4.2-1.39a3.08,3.08,0,0,0,.72-2.21V9.18A3.08,3.08,0,0,0,26.65,7a2.63,2.63,0,0,0-2-.74,2.65,2.65,0,0,0-2,.74A3.12,3.12,0,0,0,22,9.18v1.33a3.12,3.12,0,0,0,.71,2.21,2.65,2.65,0,0,0,2,.74A2.63,2.63,0,0,0,26.65,12.72Z"/><path class="a" d="M30.92,5.2h1.43V6.71h.08a3.36,3.36,0,0,1,.93-1.27A2.5,2.5,0,0,1,34.93,5a3.24,3.24,0,0,1,1.73.46,2.79,2.79,0,0,1,1.11,1.43h0a2.72,2.72,0,0,1,1-1.36A2.91,2.91,0,0,1,40.63,5a2.8,2.8,0,0,1,2.23.93,3.93,3.93,0,0,1,.8,2.61v6H42.22V8.78a3,3,0,0,0-.5-1.87,1.83,1.83,0,0,0-1.54-.63,2.51,2.51,0,0,0-1.54.46A1.53,1.53,0,0,0,38,8.05v6.44H36.57V8.78a3.06,3.06,0,0,0-.49-1.88,1.81,1.81,0,0,0-1.51-.62A2.62,2.62,0,0,0,33,6.74a1.52,1.52,0,0,0-.65,1.31v6.44H30.92Z"/><path class="a" d="M46.22,5.2h1.43V6.71h.08a3.36,3.36,0,0,1,.93-1.27A2.5,2.5,0,0,1,50.23,5,3.24,3.24,0,0,1,52,5.45a2.79,2.79,0,0,1,1.11,1.43h0a2.72,2.72,0,0,1,1-1.36A2.91,2.91,0,0,1,55.93,5a2.8,2.8,0,0,1,2.23.93A3.93,3.93,0,0,1,59,8.53v6H57.52V8.78A3,3,0,0,0,57,6.91a1.83,1.83,0,0,0-1.54-.63,2.51,2.51,0,0,0-1.54.46,1.53,1.53,0,0,0-.63,1.31v6.44H51.87V8.78a3.06,3.06,0,0,0-.49-1.88,1.81,1.81,0,0,0-1.51-.62,2.62,2.62,0,0,0-1.57.46,1.52,1.52,0,0,0-.65,1.31v6.44H46.22Z"/><path class="a" d="M63,14.11a3.84,3.84,0,0,1-1.46-1.69A6,6,0,0,1,61,9.85a6.06,6.06,0,0,1,.52-2.58A3.9,3.9,0,0,1,63,5.58a4.55,4.55,0,0,1,4.48,0,4,4,0,0,1,1.46,1.69,6.06,6.06,0,0,1,.51,2.58,6,6,0,0,1-.51,2.57,3.91,3.91,0,0,1-1.46,1.69,4.48,4.48,0,0,1-4.48,0Zm4.2-1.39a3.08,3.08,0,0,0,.72-2.21V9.18A3.08,3.08,0,0,0,67.15,7a3,3,0,0,0-3.93,0,3.08,3.08,0,0,0-.72,2.21v1.33a3.08,3.08,0,0,0,.72,2.21,3,3,0,0,0,3.93,0Z"/><path class="a" d="M71.45,14.49V5.2h1.44V6.71H73A2.66,2.66,0,0,1,75.61,5,3.07,3.07,0,0,1,78,5.92a3.71,3.71,0,0,1,.87,2.61v6H77.39V8.78a2.79,2.79,0,0,0-.56-1.89,2.07,2.07,0,0,0-1.64-.63,2.86,2.86,0,0,0-1.62.46,1.52,1.52,0,0,0-.68,1.33v6.44Z"/><path class="a" d="M91.25,14.49V5.2h1.44V6.71h.07A2.66,2.66,0,0,1,95.41,5a3.07,3.07,0,0,1,2.35.93,3.71,3.71,0,0,1,.87,2.61v6H97.19V8.78a2.79,2.79,0,0,0-.56-1.89A2.07,2.07,0,0,0,95,6.26a2.86,2.86,0,0,0-1.62.46,1.52,1.52,0,0,0-.68,1.33v6.44Z"/><path class="a" d="M108.3,14.49A1.52,1.52,0,0,1,106.64,13h-.09a2.66,2.66,0,0,1-2.79,1.73,3.41,3.41,0,0,1-2.32-.76,2.59,2.59,0,0,1-.87-2.07c0-1.8,1.34-2.7,4-2.7h2V8.26A2,2,0,0,0,106,6.73a2.33,2.33,0,0,0-1.63-.52,2.68,2.68,0,0,0-2.49,1.37l-1-.72a3.07,3.07,0,0,1,1.3-1.33A4.36,4.36,0,0,1,104.43,5a3.83,3.83,0,0,1,2.6.83,2.9,2.9,0,0,1,1,2.3v4.46a.62.62,0,0,0,.19.46.6.6,0,0,0,.46.19h.65v1.26ZM105.83,13a1.43,1.43,0,0,0,.72-1.21V10.26h-2c-1.66,0-2.48.47-2.48,1.4V12a1.26,1.26,0,0,0,.51,1.08,2.34,2.34,0,0,0,1.41.38A3.15,3.15,0,0,0,105.83,13Z"/><path class="a" d="M111,5.2h1.44V6.71h.08a3.36,3.36,0,0,1,.93-1.27A2.5,2.5,0,0,1,115,5a3.24,3.24,0,0,1,1.73.46,2.79,2.79,0,0,1,1.11,1.43h0a2.72,2.72,0,0,1,1-1.36A2.91,2.91,0,0,1,120.73,5a2.8,2.8,0,0,1,2.23.93,3.93,3.93,0,0,1,.8,2.61v6h-1.44V8.78a3,3,0,0,0-.5-1.87,1.83,1.83,0,0,0-1.54-.63,2.51,2.51,0,0,0-1.54.46,1.53,1.53,0,0,0-.63,1.31v6.44h-1.44V8.78a3.06,3.06,0,0,0-.49-1.88,1.81,1.81,0,0,0-1.51-.62,2.62,2.62,0,0,0-1.57.46,1.52,1.52,0,0,0-.65,1.31v6.44H111Z"/><path class="a" d="M127.84,14.11a3.91,3.91,0,0,1-1.52-1.69,5.85,5.85,0,0,1-.53-2.56,5.77,5.77,0,0,1,.54-2.56,4,4,0,0,1,1.51-1.71,4.1,4.1,0,0,1,2.22-.6,3.88,3.88,0,0,1,3.61,2.19,5.22,5.22,0,0,1,.51,2.34v.69H127.3v.43a2.77,2.77,0,0,0,.78,2,2.74,2.74,0,0,0,2.07.79,3,3,0,0,0,1.6-.42,2.76,2.76,0,0,0,1.06-1.2l1.06.72a3.37,3.37,0,0,1-1.41,1.56,4.78,4.78,0,0,1-4.62,0Zm.81-7.57a2.69,2.69,0,0,0-1,1A2.9,2.9,0,0,0,127.3,9v.13h5.33v-.2a2.82,2.82,0,0,0-.71-2,2.41,2.41,0,0,0-1.86-.77A2.8,2.8,0,0,0,128.65,6.54Z"/><path class="a" d="M4.7,35.62a3.14,3.14,0,0,1-1.2-1.25,3.72,3.72,0,0,1-.41-1.77,4.16,4.16,0,0,1,.54-2.05A4,4,0,0,1,5.41,29a7,7,0,0,1-.86-1.4,3.38,3.38,0,0,1-.31-1.43,2.9,2.9,0,0,1,.44-1.57,3,3,0,0,1,1.19-1.08,3.47,3.47,0,0,1,1.63-.39,3.2,3.2,0,0,1,1.91.57A3,3,0,0,1,10.49,25L9.3,25.6a2.22,2.22,0,0,0-.73-.94,1.84,1.84,0,0,0-1.14-.35,1.68,1.68,0,0,0-1.77,1.76v.14a2.31,2.31,0,0,0,.28,1.1,9.89,9.89,0,0,0,1,1.44l2.93,3.62H10a22.56,22.56,0,0,0,.2-2.65l0-.72h2.54v1.21H11.38l-.05.4c-.07.56-.15,1-.22,1.41a8.89,8.89,0,0,1-.37,1.25l2.19,2.59H11.22L9.66,34H9.57a2.68,2.68,0,0,1-1.06,1.51,3.3,3.3,0,0,1-2,.56A3.54,3.54,0,0,1,4.7,35.62Zm3.59-1.14a2.44,2.44,0,0,0,.93-.9L6.09,29.8a2.92,2.92,0,0,0-1.51,2.61v.27a2,2,0,0,0,.65,1.54,2.41,2.41,0,0,0,1.69.58A2.89,2.89,0,0,0,8.29,34.48Z"/><path class="a" d="M25.6,35.48a3.84,3.84,0,0,1-1.46-1.69,6.76,6.76,0,0,1,0-5.15A3.9,3.9,0,0,1,25.6,27a4.55,4.55,0,0,1,4.48,0,4,4,0,0,1,1.46,1.69,6.76,6.76,0,0,1,0,5.15,3.91,3.91,0,0,1-1.46,1.69,4.48,4.48,0,0,1-4.48,0Zm4.2-1.39a3.06,3.06,0,0,0,.72-2.21V30.55a3.05,3.05,0,0,0-.72-2.2,2.94,2.94,0,0,0-3.92,0,3,3,0,0,0-.73,2.2v1.33a3,3,0,0,0,.73,2.21,2.94,2.94,0,0,0,3.92,0Z"/><path class="a" d="M33.72,34.64h2.72V27.8H33.72V26.57h4.16v2.34H38a3,3,0,0,1,3.13-2.34h1.3V28H40.65a2.76,2.76,0,0,0-2,.74,2.54,2.54,0,0,0-.73,1.87v4h3.6v1.22H33.72Z"/><path class="a" d="M51.33,35.56a4.12,4.12,0,0,1-1.08,3,4,4,0,0,1-3,1.1,4.44,4.44,0,0,1-3.33-1.28l.85-1a3.31,3.31,0,0,0,2.5,1c1.75,0,2.63-.93,2.63-2.77V34.1h-.08A3,3,0,0,1,47,35.83a3.18,3.18,0,0,1-2.66-1.27,5.57,5.57,0,0,1-1-3.47,5.54,5.54,0,0,1,1-3.46A3.16,3.16,0,0,1,47,26.36a3,3,0,0,1,2.86,1.73h.08V26.57h1.44ZM49.2,34a1.63,1.63,0,0,0,.69-1.4v-3.1a1.64,1.64,0,0,0-.69-1.4,2.73,2.73,0,0,0-1.69-.5,2.51,2.51,0,0,0-1.94.75,2.88,2.88,0,0,0-.71,2v1.33a2.85,2.85,0,0,0,.71,2,2.48,2.48,0,0,0,1.94.76A2.74,2.74,0,0,0,49.2,34Z"/><path class="a" d="M61.05,35.86a1.52,1.52,0,0,1-1.66-1.51H59.3a2.66,2.66,0,0,1-2.79,1.73,3.36,3.36,0,0,1-2.32-.76,2.59,2.59,0,0,1-.87-2.07c0-1.8,1.34-2.7,4-2.7h2v-.92a2,2,0,0,0-.58-1.53,2.38,2.38,0,0,0-1.63-.52A2.68,2.68,0,0,0,54.6,29l-1-.72a3.07,3.07,0,0,1,1.3-1.33,4.36,4.36,0,0,1,2.25-.54,3.88,3.88,0,0,1,2.6.83,2.9,2.9,0,0,1,1,2.3V34a.65.65,0,0,0,.65.65H62v1.26Zm-2.47-1.48a1.45,1.45,0,0,0,.72-1.22V31.63h-2c-1.66,0-2.48.47-2.48,1.41v.37a1.26,1.26,0,0,0,.51,1.08,2.27,2.27,0,0,0,1.41.38A3.15,3.15,0,0,0,58.58,34.38Z"/><path class="a" d="M63.8,35.86V26.57h1.44v1.52h.07A2.65,2.65,0,0,1,68,26.36a3.09,3.09,0,0,1,2.35.93,3.71,3.71,0,0,1,.87,2.61v6H69.74v-5.7a2.79,2.79,0,0,0-.56-1.89,2.07,2.07,0,0,0-1.64-.63,2.78,2.78,0,0,0-1.62.46,1.49,1.49,0,0,0-.68,1.32v6.44Z"/><path class="a" d="M73.56,34.6H77V27.85h-3.4V26.57H78.4v8h3.11v1.26h-8Zm5-12.06v1.91H76.6V22.54Z"/><path class="a" d="M83,34.26l1-.85a4.29,4.29,0,0,0,3.37,1.46,3.43,3.43,0,0,0,1.8-.4,1.33,1.33,0,0,0,.67-1.2,1.06,1.06,0,0,0-.44-1,2.73,2.73,0,0,0-1.2-.4l-1.46-.22a8.48,8.48,0,0,1-1.55-.35,2.74,2.74,0,0,1-1.15-.75,2.14,2.14,0,0,1-.49-1.47,2.36,2.36,0,0,1,1-2.06,4.71,4.71,0,0,1,2.72-.71,5,5,0,0,1,3.78,1.49l-.94.88a3.55,3.55,0,0,0-2.9-1.17,3.12,3.12,0,0,0-1.68.38A1.22,1.22,0,0,0,85,29a1,1,0,0,0,.44.95,2.77,2.77,0,0,0,1.19.4l1.46.22a8.53,8.53,0,0,1,1.57.35,2.71,2.71,0,0,1,1.14.75,2.13,2.13,0,0,1,.48,1.47,2.49,2.49,0,0,1-1.06,2.13,4.83,4.83,0,0,1-2.87.77A5.45,5.45,0,0,1,83,34.26Z"/><path class="a" d="M100.65,35.86A1.52,1.52,0,0,1,99,34.35H98.9a2.66,2.66,0,0,1-2.79,1.73,3.36,3.36,0,0,1-2.32-.76,2.59,2.59,0,0,1-.87-2.07c0-1.8,1.34-2.7,4-2.7h2v-.92a2,2,0,0,0-.58-1.53,2.38,2.38,0,0,0-1.63-.52A2.68,2.68,0,0,0,94.2,29l-1-.72a3.07,3.07,0,0,1,1.3-1.33,4.36,4.36,0,0,1,2.25-.54,3.88,3.88,0,0,1,2.6.83,2.9,2.9,0,0,1,1,2.3V34a.65.65,0,0,0,.65.65h.65v1.26Zm-2.47-1.48a1.45,1.45,0,0,0,.72-1.22V31.63h-2c-1.66,0-2.48.47-2.48,1.41v.37A1.26,1.26,0,0,0,95,34.49a2.27,2.27,0,0,0,1.41.38A3.15,3.15,0,0,0,98.18,34.38Z"/><path class="a" d="M106.87,32.77a2.31,2.31,0,0,0,.27,1.26,1.17,1.17,0,0,0,.79.51,9.36,9.36,0,0,0,1.54.1h1.13v1.22h-1.12a8.69,8.69,0,0,1-2.27-.24,2.27,2.27,0,0,1-1.32-.93,3.5,3.5,0,0,1-.46-1.94V27.8h-3.09V26.57h3.09V23.3h1.44v3.27h4.23V27.8h-4.23Z"/><path class="a" d="M113.16,34.6h3.4V27.85h-3.4V26.57H118v8h3.11v1.26h-8Zm5-12.06v1.91H116.2V22.54Z"/><path class="a" d="M124.59,35.48a3.82,3.82,0,0,1-1.45-1.69,6.64,6.64,0,0,1,0-5.15A3.88,3.88,0,0,1,124.59,27a4.57,4.57,0,0,1,4.49,0,3.88,3.88,0,0,1,1.45,1.69,6.64,6.64,0,0,1,0,5.15,3.82,3.82,0,0,1-1.45,1.69,4.5,4.5,0,0,1-4.49,0Zm4.21-1.39a3.06,3.06,0,0,0,.72-2.21V30.55a3.05,3.05,0,0,0-.72-2.2,2.95,2.95,0,0,0-3.93,0,3.05,3.05,0,0,0-.72,2.2v1.33a3.06,3.06,0,0,0,.72,2.21,2.95,2.95,0,0,0,3.93,0Z"/><path class="a" d="M133.1,35.86V26.57h1.44v1.52h.07a2.64,2.64,0,0,1,2.65-1.73,3.09,3.09,0,0,1,2.35.93,3.71,3.71,0,0,1,.87,2.61v6H139v-5.7a2.79,2.79,0,0,0-.56-1.89,2.07,2.07,0,0,0-1.64-.63,2.81,2.81,0,0,0-1.63.46,1.48,1.48,0,0,0-.67,1.32v6.44Z"/><path class="a" d="M353.55,23.3h3.5a4,4,0,0,1,3.43,1.58,8,8,0,0,1,1.15,4.7,8,8,0,0,1-1.15,4.7,4,4,0,0,1-3.43,1.58h-3.5ZM357,34.55a2.64,2.64,0,0,0,2.26-1,4.84,4.84,0,0,0,.78-2.95V28.61a4.84,4.84,0,0,0-.78-2.95A2.64,2.64,0,0,0,357,24.61h-1.92v9.94Z"/><path class="a" d="M364.67,25.22h-.13V35.86h-1.36V23.3h2.14l4.28,10.53h.13V23.3h1.36V35.86H369Z"/><path class="a" d="M374.3,35.49a5.46,5.46,0,0,1-1.86-1.63l1.1-.9a5,5,0,0,0,1.57,1.38,4,4,0,0,0,1.94.44,3.08,3.08,0,0,0,2.08-.63,2.19,2.19,0,0,0,.73-1.76,1.86,1.86,0,0,0-.54-1.44,3.44,3.44,0,0,0-1.8-.72l-1.4-.24a4,4,0,0,1-2.49-1.19,3.4,3.4,0,0,1-.75-2.23A3.15,3.15,0,0,1,374,24a5.62,5.62,0,0,1,7.29,1l-1.06.92a3.59,3.59,0,0,0-3.17-1.55,3,3,0,0,0-2,.55,1.92,1.92,0,0,0-.68,1.61,1.85,1.85,0,0,0,.53,1.4,3.33,3.33,0,0,0,1.82.74l1.35.23c2.19.39,3.28,1.53,3.28,3.44a3.41,3.41,0,0,1-1.15,2.74,4.83,4.83,0,0,1-3.24,1A5.67,5.67,0,0,1,374.3,35.49Z"/><path class="a" d="M393.2,35.86V26.57h1.44v1.52h.07a2.64,2.64,0,0,1,2.65-1.73,3.09,3.09,0,0,1,2.35.93,3.71,3.71,0,0,1,.87,2.61v6h-1.44v-5.7a2.79,2.79,0,0,0-.56-1.89,2.07,2.07,0,0,0-1.64-.63,2.81,2.81,0,0,0-1.63.46,1.48,1.48,0,0,0-.67,1.32v6.44Z"/><path class="a" d="M410.24,35.86a1.52,1.52,0,0,1-1.65-1.51h-.09a2.66,2.66,0,0,1-2.79,1.73,3.36,3.36,0,0,1-2.32-.76,2.59,2.59,0,0,1-.87-2.07q0-2.7,4-2.7h2v-.92a2,2,0,0,0-.58-1.53,2.39,2.39,0,0,0-1.64-.52A2.68,2.68,0,0,0,403.8,29l-1-.72a3.1,3.1,0,0,1,1.29-1.33,4.41,4.41,0,0,1,2.25-.54,3.85,3.85,0,0,1,2.6.83,2.88,2.88,0,0,1,1,2.3V34a.65.65,0,0,0,.65.65h.64v1.26Zm-2.46-1.48a1.45,1.45,0,0,0,.72-1.22V31.63h-2Q404,31.63,404,33v.37a1.27,1.27,0,0,0,.52,1.08,2.27,2.27,0,0,0,1.41.38A3.15,3.15,0,0,0,407.78,34.38Z"/><path class="a" d="M413,26.57h1.44v1.52h.07a3.3,3.3,0,0,1,.94-1.27,2.43,2.43,0,0,1,1.57-.46,3.13,3.13,0,0,1,1.72.47,2.69,2.69,0,0,1,1.12,1.42h0a2.81,2.81,0,0,1,1-1.36,3,3,0,0,1,1.83-.53,2.76,2.76,0,0,1,2.22.93,3.88,3.88,0,0,1,.81,2.61v6h-1.44v-5.7a3,3,0,0,0-.5-1.88,1.83,1.83,0,0,0-1.54-.63,2.61,2.61,0,0,0-1.55.46,1.53,1.53,0,0,0-.63,1.31v6.44h-1.44v-5.7a3.1,3.1,0,0,0-.48-1.89,1.82,1.82,0,0,0-1.51-.62,2.67,2.67,0,0,0-1.57.46,1.52,1.52,0,0,0-.65,1.31v6.44H413Z"/><path class="a" d="M429.79,35.48a3.85,3.85,0,0,1-1.52-1.69,6.39,6.39,0,0,1,0-5.12,4,4,0,0,1,1.5-1.71,4.14,4.14,0,0,1,2.23-.6,4,4,0,0,1,2.16.58,3.94,3.94,0,0,1,1.44,1.61,5.1,5.1,0,0,1,.52,2.34v.69h-6.88V32a2.71,2.71,0,0,0,2.85,2.83,3,3,0,0,0,1.6-.43,2.86,2.86,0,0,0,1.06-1.19l1.06.72a3.45,3.45,0,0,1-1.41,1.55,4.46,4.46,0,0,1-2.31.59A4.37,4.37,0,0,1,429.79,35.48Zm.81-7.57a2.69,2.69,0,0,0-1,1,2.9,2.9,0,0,0-.36,1.44v.13h5.33v-.2a2.82,2.82,0,0,0-.71-2,2.44,2.44,0,0,0-1.86-.76A2.79,2.79,0,0,0,430.6,27.91Z"/><path class="a" d="M177.6,498H181v-6.75H177.6V490h4.85v8h3.11v1.26h-8Zm5-12.06v1.91h-1.9v-1.91Z"/><path class="a" d="M187.09,497.66l1-.85a4.29,4.29,0,0,0,3.37,1.46,3.48,3.48,0,0,0,1.8-.4,1.32,1.32,0,0,0,.66-1.2,1,1,0,0,0-.43-.95,2.73,2.73,0,0,0-1.2-.4l-1.46-.22a8.29,8.29,0,0,1-1.55-.35,2.74,2.74,0,0,1-1.15-.75,2.09,2.09,0,0,1-.49-1.47,2.33,2.33,0,0,1,1-2.06,4.63,4.63,0,0,1,2.72-.71,5,5,0,0,1,3.78,1.49l-.94.88a3.55,3.55,0,0,0-2.9-1.17,3.12,3.12,0,0,0-1.68.38,1.23,1.23,0,0,0-.59,1.1,1,1,0,0,0,.45.95,2.77,2.77,0,0,0,1.19.4l1.46.22a8.53,8.53,0,0,1,1.57.35,2.71,2.71,0,0,1,1.14.75,2.13,2.13,0,0,1,.48,1.47,2.49,2.49,0,0,1-1.06,2.13,4.83,4.83,0,0,1-2.87.77A5.45,5.45,0,0,1,187.09,497.66Z"/><path class="a" d="M197,497.66l1-.85a4.29,4.29,0,0,0,3.37,1.46,3.48,3.48,0,0,0,1.8-.4,1.32,1.32,0,0,0,.66-1.2,1,1,0,0,0-.43-.95,2.77,2.77,0,0,0-1.2-.4l-1.46-.22a8.29,8.29,0,0,1-1.55-.35A2.74,2.74,0,0,1,198,494a2.14,2.14,0,0,1-.49-1.47,2.33,2.33,0,0,1,1-2.06,4.63,4.63,0,0,1,2.72-.71,5,5,0,0,1,3.78,1.49l-.94.88a3.55,3.55,0,0,0-2.9-1.17,3.12,3.12,0,0,0-1.68.38,1.23,1.23,0,0,0-.59,1.1,1,1,0,0,0,.45.95,2.77,2.77,0,0,0,1.19.4L202,494a8.53,8.53,0,0,1,1.57.35,2.71,2.71,0,0,1,1.14.75,2.13,2.13,0,0,1,.48,1.47,2.48,2.48,0,0,1-1.07,2.13,4.78,4.78,0,0,1-2.86.77A5.45,5.45,0,0,1,197,497.66Z"/><path class="a" d="M213.28,497.75h-.07a2.66,2.66,0,0,1-2.65,1.73,3.06,3.06,0,0,1-2.35-.94,3.67,3.67,0,0,1-.87-2.61v-6h1.44v5.71a2.79,2.79,0,0,0,.56,1.89,2.07,2.07,0,0,0,1.64.63,2.76,2.76,0,0,0,1.62-.46,1.49,1.49,0,0,0,.68-1.32V490h1.44v9.29h-1.44Z"/><path class="a" d="M218.84,498.88a3.91,3.91,0,0,1-1.52-1.69,6.39,6.39,0,0,1,0-5.12,4,4,0,0,1,1.5-1.71,4.14,4.14,0,0,1,2.23-.6,3.88,3.88,0,0,1,3.61,2.19,5.22,5.22,0,0,1,.51,2.34V495H218.3v.43a2.69,2.69,0,0,0,2.85,2.82,3,3,0,0,0,1.6-.42,2.82,2.82,0,0,0,1.06-1.2l1.06.73a3.45,3.45,0,0,1-1.41,1.55,4.46,4.46,0,0,1-2.31.59A4.37,4.37,0,0,1,218.84,498.88Zm.81-7.57a2.69,2.69,0,0,0-1,1,2.9,2.9,0,0,0-.36,1.44v.13h5.33v-.2a2.82,2.82,0,0,0-.71-2,2.44,2.44,0,0,0-1.86-.77A2.8,2.8,0,0,0,219.65,491.31Z"/><path class="a" d="M226.87,498h2.72V491.2h-2.72V490H231v2.34h.09a3,3,0,0,1,3.13-2.34h1.3v1.44H233.8a2.73,2.73,0,0,0-2,.74A2.54,2.54,0,0,0,231,494v4h3.6v1.22h-7.76Z"/><path class="a" d="M247.05,499.26V490h1.44v1.51h.07a2.65,2.65,0,0,1,2.65-1.72,3.05,3.05,0,0,1,2.34.93,3.67,3.67,0,0,1,.88,2.61v6H253v-5.7a2.79,2.79,0,0,0-.56-1.89,2.07,2.07,0,0,0-1.64-.63,2.89,2.89,0,0,0-1.63.45,1.51,1.51,0,0,0-.67,1.33v6.44Z"/><path class="a" d="M264.09,499.26a1.52,1.52,0,0,1-1.65-1.51h-.09a2.66,2.66,0,0,1-2.79,1.73,3.41,3.41,0,0,1-2.32-.76,2.59,2.59,0,0,1-.87-2.07q0-2.7,4-2.7h2V493a2,2,0,0,0-.58-1.53,2.39,2.39,0,0,0-1.64-.52,2.68,2.68,0,0,0-2.48,1.37l-1-.72A3.1,3.1,0,0,1,258,490.3a4.41,4.41,0,0,1,2.25-.54,3.85,3.85,0,0,1,2.6.83,2.88,2.88,0,0,1,1,2.3v4.46a.6.6,0,0,0,.19.46.6.6,0,0,0,.45.19h.65v1.26Zm-2.46-1.48a1.45,1.45,0,0,0,.72-1.22V495h-2c-1.66,0-2.49.47-2.49,1.4v.38a1.24,1.24,0,0,0,.52,1.08,2.34,2.34,0,0,0,1.41.38A3.15,3.15,0,0,0,261.63,497.78Z"/><path class="a" d="M266.81,490h1.44v1.51h.07a3.26,3.26,0,0,1,.94-1.26,2.43,2.43,0,0,1,1.57-.46,3.21,3.21,0,0,1,1.72.46,2.76,2.76,0,0,1,1.12,1.43h0a2.81,2.81,0,0,1,1-1.36,3,3,0,0,1,1.83-.53,2.76,2.76,0,0,1,2.22.93,3.88,3.88,0,0,1,.81,2.61v6h-1.44v-5.7a3,3,0,0,0-.5-1.88,1.83,1.83,0,0,0-1.54-.63,2.61,2.61,0,0,0-1.55.46,1.53,1.53,0,0,0-.63,1.31v6.44h-1.44v-5.7a3.1,3.1,0,0,0-.48-1.89,1.82,1.82,0,0,0-1.51-.62,2.67,2.67,0,0,0-1.57.46,1.52,1.52,0,0,0-.65,1.31v6.44h-1.44Z"/><path class="a" d="M283.64,498.88a3.85,3.85,0,0,1-1.52-1.69,6.39,6.39,0,0,1,0-5.12,4,4,0,0,1,1.5-1.71,4.1,4.1,0,0,1,2.22-.6,4,4,0,0,1,2.16.58,3.9,3.9,0,0,1,1.45,1.61,5.1,5.1,0,0,1,.52,2.34V495H283.1v.43a2.69,2.69,0,0,0,2.84,2.82,3,3,0,0,0,1.61-.42,2.82,2.82,0,0,0,1.06-1.2l1.06.73a3.45,3.45,0,0,1-1.41,1.55,4.47,4.47,0,0,1-2.32.59A4.36,4.36,0,0,1,283.64,498.88Zm.81-7.57a2.69,2.69,0,0,0-1,1,2.9,2.9,0,0,0-.36,1.44v.13h5.33v-.2a2.82,2.82,0,0,0-.71-2,2.45,2.45,0,0,0-1.87-.77A2.79,2.79,0,0,0,284.45,491.31Z"/><path class="a" d="M165.9,520.39a3,3,0,0,1-1.2-1.25,3.72,3.72,0,0,1-.42-1.76,4.11,4.11,0,0,1,.55-2.06,4,4,0,0,1,1.78-1.6,7,7,0,0,1-.87-1.4,3.53,3.53,0,0,1-.3-1.43,2.82,2.82,0,0,1,.44-1.57,3,3,0,0,1,1.19-1.08,3.43,3.43,0,0,1,1.62-.39,3.18,3.18,0,0,1,1.91.57,2.91,2.91,0,0,1,1.08,1.34l-1.18.61a2.3,2.3,0,0,0-.73-.94,1.85,1.85,0,0,0-1.15-.35,1.72,1.72,0,0,0-1.28.49,1.76,1.76,0,0,0-.48,1.27V511a2.31,2.31,0,0,0,.28,1.1,9.14,9.14,0,0,0,1,1.44l2.93,3.62h.09a25.05,25.05,0,0,0,.2-2.64l0-.73h2.54V515h-1.35l-.05.4c-.07.56-.15,1-.23,1.41a7.44,7.44,0,0,1-.37,1.25l2.2,2.59h-1.71l-1.57-1.85h-.09a2.64,2.64,0,0,1-1,1.51,3.32,3.32,0,0,1-2,.56A3.52,3.52,0,0,1,165.9,520.39Zm3.59-1.14a2.51,2.51,0,0,0,.93-.9l-3.13-3.78a2.91,2.91,0,0,0-1.51,2.61v.27a2,2,0,0,0,.65,1.55,2.45,2.45,0,0,0,1.69.57A2.91,2.91,0,0,0,169.49,519.25Z"/><path class="a" d="M186.79,520.26a3.85,3.85,0,0,1-1.45-1.7,6.61,6.61,0,0,1,0-5.14,3.85,3.85,0,0,1,1.45-1.7,4.57,4.57,0,0,1,4.49,0,3.85,3.85,0,0,1,1.45,1.7,6.61,6.61,0,0,1,0,5.14,3.85,3.85,0,0,1-1.45,1.7,4.57,4.57,0,0,1-4.49,0Zm4.21-1.4a3.05,3.05,0,0,0,.72-2.2v-1.34a3.05,3.05,0,0,0-.72-2.2,2.95,2.95,0,0,0-3.93,0,3.05,3.05,0,0,0-.72,2.2v1.34a3.05,3.05,0,0,0,.72,2.2,2.95,2.95,0,0,0,3.93,0Z"/><path class="a" d="M194.92,519.41h2.72v-6.84h-2.72v-1.22h4.16v2.33h.09a3,3,0,0,1,3.13-2.33h1.3v1.44h-1.75a2.72,2.72,0,0,0-2,.73,2.54,2.54,0,0,0-.73,1.87v4h3.6v1.22h-7.76Z"/><path class="a" d="M212.52,520.33a4.12,4.12,0,0,1-1.08,3,4,4,0,0,1-3,1.1,4.44,4.44,0,0,1-3.33-1.28l.84-1a3.35,3.35,0,0,0,2.51,1c1.75,0,2.62-.93,2.62-2.77v-1.55H211a3,3,0,0,1-2.86,1.73,3.17,3.17,0,0,1-2.66-1.27,6.62,6.62,0,0,1,0-6.93,3.14,3.14,0,0,1,2.66-1.27,3,3,0,0,1,2.86,1.73h.07v-1.51h1.44Zm-2.12-1.52a1.62,1.62,0,0,0,.68-1.4v-3.1a1.64,1.64,0,0,0-.68-1.4,2.82,2.82,0,0,0-1.69-.5,2.55,2.55,0,0,0-2,.75,2.94,2.94,0,0,0-.7,2v1.33a2.89,2.89,0,0,0,.7,2,2.52,2.52,0,0,0,2,.76A2.76,2.76,0,0,0,210.4,518.81Z"/><path class="a" d="M222.24,520.63a1.52,1.52,0,0,1-1.65-1.51h-.09a2.66,2.66,0,0,1-2.79,1.73,3.36,3.36,0,0,1-2.32-.76,2.59,2.59,0,0,1-.87-2.07q0-2.7,4-2.7h2v-.91a1.92,1.92,0,0,0-.58-1.53,2.34,2.34,0,0,0-1.64-.53,2.68,2.68,0,0,0-2.48,1.37l-1-.72a3.1,3.1,0,0,1,1.29-1.33,4.41,4.41,0,0,1,2.25-.54,3.8,3.8,0,0,1,2.6.84,2.84,2.84,0,0,1,1,2.29v4.46a.59.59,0,0,0,.19.46.6.6,0,0,0,.46.19h.64v1.26Zm-2.46-1.48a1.45,1.45,0,0,0,.72-1.22V516.4h-2q-2.49,0-2.49,1.41v.37a1.24,1.24,0,0,0,.52,1.08,2.27,2.27,0,0,0,1.41.38A3.15,3.15,0,0,0,219.78,519.15Z"/><path class="a" d="M225,520.63v-9.28h1.44v1.51h.07a2.65,2.65,0,0,1,2.65-1.73,3.09,3.09,0,0,1,2.35.93,3.72,3.72,0,0,1,.87,2.62v6h-1.44v-5.7a2.79,2.79,0,0,0-.56-1.89,2.07,2.07,0,0,0-1.64-.63,2.79,2.79,0,0,0-1.63.46,1.48,1.48,0,0,0-.67,1.32v6.44Z"/><path class="a" d="M234.75,519.37h3.41v-6.75h-3.41v-1.27h4.84v8h3.12v1.26h-8Zm4.95-12.06v1.91h-1.9v-1.91Z"/><path class="a" d="M244.24,519l1-.85a4.29,4.29,0,0,0,3.37,1.46,3.48,3.48,0,0,0,1.8-.4A1.32,1.32,0,0,0,251,518a1.05,1.05,0,0,0-.43-.95,2.77,2.77,0,0,0-1.2-.4l-1.46-.22a8.29,8.29,0,0,1-1.55-.35,2.74,2.74,0,0,1-1.15-.75,2.07,2.07,0,0,1-.49-1.47,2.33,2.33,0,0,1,1-2.06,4.71,4.71,0,0,1,2.72-.71,5,5,0,0,1,3.78,1.49l-.94.89a3.52,3.52,0,0,0-2.9-1.17,3.12,3.12,0,0,0-1.68.37,1.24,1.24,0,0,0-.59,1.1,1,1,0,0,0,.44,1,2.87,2.87,0,0,0,1.2.4l1.46.22a8.23,8.23,0,0,1,1.56.35,2.68,2.68,0,0,1,1.15.75,2.13,2.13,0,0,1,.48,1.47,2.48,2.48,0,0,1-1.07,2.13,4.8,4.8,0,0,1-2.86.77A5.45,5.45,0,0,1,244.24,519Z"/><path class="a" d="M261.84,520.63a1.52,1.52,0,0,1-1.65-1.51h-.09a2.66,2.66,0,0,1-2.79,1.73,3.36,3.36,0,0,1-2.32-.76,2.59,2.59,0,0,1-.87-2.07q0-2.7,4-2.7h2v-.91a1.92,1.92,0,0,0-.58-1.53,2.34,2.34,0,0,0-1.64-.53,2.68,2.68,0,0,0-2.48,1.37l-1-.72a3.1,3.1,0,0,1,1.29-1.33,4.41,4.41,0,0,1,2.25-.54,3.8,3.8,0,0,1,2.6.84,2.84,2.84,0,0,1,1,2.29v4.46a.59.59,0,0,0,.19.46.6.6,0,0,0,.45.19h.65v1.26Zm-2.46-1.48a1.45,1.45,0,0,0,.72-1.22V516.4h-2q-2.49,0-2.49,1.41v.37a1.24,1.24,0,0,0,.52,1.08,2.27,2.27,0,0,0,1.41.38A3.15,3.15,0,0,0,259.38,519.15Z"/><path class="a" d="M268.07,517.54a2.35,2.35,0,0,0,.27,1.27,1.17,1.17,0,0,0,.78.5,8.5,8.5,0,0,0,1.54.1h1.14v1.22h-1.12a8.72,8.72,0,0,1-2.28-.24,2.25,2.25,0,0,1-1.31-.93,3.41,3.41,0,0,1-.46-1.94v-4.95h-3.09v-1.22h3.09v-3.28h1.44v3.28h4.23v1.22h-4.23Z"/><path class="a" d="M274.35,519.37h3.41v-6.75h-3.41v-1.27h4.84v8h3.12v1.26h-8Zm4.95-12.06v1.91h-1.9v-1.91Z"/><path class="a" d="M285.79,520.26a3.94,3.94,0,0,1-1.46-1.7,6.73,6.73,0,0,1,0-5.14,3.94,3.94,0,0,1,1.46-1.7,4.55,4.55,0,0,1,4.48,0,3.87,3.87,0,0,1,1.46,1.7,6.73,6.73,0,0,1,0,5.14,3.87,3.87,0,0,1-1.46,1.7,4.55,4.55,0,0,1-4.48,0Zm4.2-1.4a3.05,3.05,0,0,0,.72-2.2v-1.34a3.05,3.05,0,0,0-.72-2.2,2.94,2.94,0,0,0-3.92,0,3.05,3.05,0,0,0-.72,2.2v1.34a3.05,3.05,0,0,0,.72,2.2,2.94,2.94,0,0,0,3.92,0Z"/><path class="a" d="M294.3,520.63v-9.28h1.44v1.51h.07a2.65,2.65,0,0,1,2.64-1.73,3.06,3.06,0,0,1,2.35.93,3.68,3.68,0,0,1,.88,2.62v6h-1.44v-5.7a2.79,2.79,0,0,0-.56-1.89,2.07,2.07,0,0,0-1.64-.63,2.79,2.79,0,0,0-1.63.46,1.48,1.48,0,0,0-.67,1.32v6.44Z"/><path class="a" d="M360.6,498H364v-6.75H360.6V490h4.85v8h3.11v1.26h-8Zm4.95-12.06v1.91h-1.9v-1.91Z"/><path class="a" d="M370.09,497.66l1-.85a4.29,4.29,0,0,0,3.37,1.46,3.48,3.48,0,0,0,1.8-.4,1.32,1.32,0,0,0,.66-1.2,1,1,0,0,0-.43-.95,2.77,2.77,0,0,0-1.2-.4l-1.46-.22a8.29,8.29,0,0,1-1.55-.35,2.74,2.74,0,0,1-1.15-.75,2.09,2.09,0,0,1-.49-1.47,2.33,2.33,0,0,1,1-2.06,4.63,4.63,0,0,1,2.72-.71,5,5,0,0,1,3.78,1.49l-.94.88a3.55,3.55,0,0,0-2.9-1.17,3.12,3.12,0,0,0-1.68.38,1.23,1.23,0,0,0-.59,1.1,1.06,1.06,0,0,0,.44.95,2.87,2.87,0,0,0,1.2.4l1.46.22a8.53,8.53,0,0,1,1.57.35,2.71,2.71,0,0,1,1.14.75,2.13,2.13,0,0,1,.48,1.47,2.48,2.48,0,0,1-1.07,2.13,4.78,4.78,0,0,1-2.86.77A5.45,5.45,0,0,1,370.09,497.66Z"/><path class="a" d="M380,497.66l1-.85a4.29,4.29,0,0,0,3.37,1.46,3.48,3.48,0,0,0,1.8-.4,1.32,1.32,0,0,0,.66-1.2,1,1,0,0,0-.43-.95,2.77,2.77,0,0,0-1.2-.4l-1.46-.22a8.29,8.29,0,0,1-1.55-.35A2.74,2.74,0,0,1,381,494a2.09,2.09,0,0,1-.49-1.47,2.33,2.33,0,0,1,1-2.06,4.63,4.63,0,0,1,2.72-.71,5,5,0,0,1,3.78,1.49l-.94.88a3.55,3.55,0,0,0-2.9-1.17,3.12,3.12,0,0,0-1.68.38,1.23,1.23,0,0,0-.59,1.1,1,1,0,0,0,.45.95,2.77,2.77,0,0,0,1.19.4L385,494a8.53,8.53,0,0,1,1.57.35,2.71,2.71,0,0,1,1.14.75,2.13,2.13,0,0,1,.48,1.47,2.48,2.48,0,0,1-1.07,2.13,4.78,4.78,0,0,1-2.86.77A5.45,5.45,0,0,1,380,497.66Z"/><path class="a" d="M396.28,497.75h-.07a2.66,2.66,0,0,1-2.65,1.73,3.06,3.06,0,0,1-2.35-.94,3.67,3.67,0,0,1-.87-2.61v-6h1.44v5.71a2.79,2.79,0,0,0,.56,1.89,2.07,2.07,0,0,0,1.64.63,2.76,2.76,0,0,0,1.62-.46,1.51,1.51,0,0,0,.68-1.32V490h1.44v9.29h-1.44Z"/><path class="a" d="M401.84,498.88a3.85,3.85,0,0,1-1.52-1.69,6.39,6.39,0,0,1,0-5.12,4,4,0,0,1,1.5-1.71,4.14,4.14,0,0,1,2.23-.6,4,4,0,0,1,2.16.58,3.94,3.94,0,0,1,1.44,1.61,5.1,5.1,0,0,1,.52,2.34V495H401.3v.43a2.69,2.69,0,0,0,2.85,2.82,3,3,0,0,0,1.6-.42,2.82,2.82,0,0,0,1.06-1.2l1.06.73a3.45,3.45,0,0,1-1.41,1.55,4.46,4.46,0,0,1-2.31.59A4.37,4.37,0,0,1,401.84,498.88Zm.81-7.57a2.69,2.69,0,0,0-1,1,2.9,2.9,0,0,0-.36,1.44v.13h5.33v-.2a2.82,2.82,0,0,0-.71-2,2.44,2.44,0,0,0-1.86-.77A2.8,2.8,0,0,0,402.65,491.31Z"/><path class="a" d="M409.87,498h2.72V491.2h-2.72V490H414v2.34h.09a3,3,0,0,1,3.13-2.34h1.3v1.44H416.8a2.73,2.73,0,0,0-2,.74A2.54,2.54,0,0,0,414,494v4h3.6v1.22h-7.76Z"/><path class="a" d="M345.34,519l1-.85a4.29,4.29,0,0,0,3.37,1.46,3.48,3.48,0,0,0,1.8-.4,1.32,1.32,0,0,0,.66-1.2,1.05,1.05,0,0,0-.43-.95,2.73,2.73,0,0,0-1.2-.4l-1.46-.22a8.29,8.29,0,0,1-1.55-.35,2.74,2.74,0,0,1-1.15-.75,2.07,2.07,0,0,1-.49-1.47,2.33,2.33,0,0,1,1-2.06,4.71,4.71,0,0,1,2.72-.71,5,5,0,0,1,3.78,1.49l-.94.89a3.52,3.52,0,0,0-2.9-1.17,3.12,3.12,0,0,0-1.68.37,1.24,1.24,0,0,0-.59,1.1,1,1,0,0,0,.45,1,2.77,2.77,0,0,0,1.19.4l1.46.22a8.53,8.53,0,0,1,1.57.35,2.71,2.71,0,0,1,1.14.75,2.13,2.13,0,0,1,.48,1.47,2.49,2.49,0,0,1-1.06,2.13,4.83,4.83,0,0,1-2.87.77A5.45,5.45,0,0,1,345.34,519Z"/><path class="a" d="M355.65,519.37h3.41v-6.75h-3.41v-1.27h4.85v8h3.11v1.26h-8Zm5-12.06v1.91h-1.9v-1.91Z"/><path class="a" d="M373,520.33a4.12,4.12,0,0,1-1.08,3,4,4,0,0,1-3,1.1,4.44,4.44,0,0,1-3.33-1.28l.84-1a3.35,3.35,0,0,0,2.51,1c1.75,0,2.62-.93,2.62-2.77v-1.55h-.07a3,3,0,0,1-2.86,1.73,3.17,3.17,0,0,1-2.66-1.27,6.62,6.62,0,0,1,0-6.93,3.14,3.14,0,0,1,2.66-1.27,3,3,0,0,1,2.86,1.73h.07v-1.51H373Zm-2.12-1.52a1.62,1.62,0,0,0,.68-1.4v-3.1a1.64,1.64,0,0,0-.68-1.4,2.82,2.82,0,0,0-1.69-.5,2.55,2.55,0,0,0-1.95.75,2.94,2.94,0,0,0-.7,2v1.33a2.89,2.89,0,0,0,.7,2,2.52,2.52,0,0,0,1.95.76A2.76,2.76,0,0,0,370.9,518.81Z"/><path class="a" d="M375.6,520.63v-9.28H377v1.51h.07a2.65,2.65,0,0,1,2.65-1.73,3.09,3.09,0,0,1,2.35.93,3.72,3.72,0,0,1,.87,2.62v6h-1.44v-5.7A2.79,2.79,0,0,0,381,513a2.07,2.07,0,0,0-1.64-.63,2.81,2.81,0,0,0-1.63.46,1.48,1.48,0,0,0-.67,1.32v6.44Z"/><path class="a" d="M392.64,520.63a1.52,1.52,0,0,1-1.65-1.51h-.09a2.66,2.66,0,0,1-2.79,1.73,3.36,3.36,0,0,1-2.32-.76,2.59,2.59,0,0,1-.87-2.07q0-2.7,4-2.7h2v-.91a1.92,1.92,0,0,0-.58-1.53,2.34,2.34,0,0,0-1.64-.53,2.68,2.68,0,0,0-2.48,1.37l-1-.72a3.1,3.1,0,0,1,1.29-1.33,4.41,4.41,0,0,1,2.25-.54,3.84,3.84,0,0,1,2.61.84,2.87,2.87,0,0,1,1,2.29v4.46a.59.59,0,0,0,.19.46.6.6,0,0,0,.46.19h.64v1.26Zm-2.46-1.48a1.45,1.45,0,0,0,.72-1.22V516.4h-2q-2.49,0-2.49,1.41v.37a1.24,1.24,0,0,0,.52,1.08,2.27,2.27,0,0,0,1.41.38A3.15,3.15,0,0,0,390.18,519.15Z"/><path class="a" d="M398.87,517.54a2.35,2.35,0,0,0,.27,1.27,1.17,1.17,0,0,0,.79.5,8.31,8.31,0,0,0,1.53.1h1.14v1.22h-1.12a8.72,8.72,0,0,1-2.28-.24,2.25,2.25,0,0,1-1.31-.93,3.5,3.5,0,0,1-.46-1.94v-4.95h-3.09v-1.22h3.09v-3.28h1.44v3.28h4.23v1.22h-4.23Z"/><path class="a" d="M411.13,519.12h-.07a2.66,2.66,0,0,1-2.65,1.73,3,3,0,0,1-2.35-.94,3.67,3.67,0,0,1-.87-2.61v-5.95h1.44v5.7a2.79,2.79,0,0,0,.56,1.89,2.07,2.07,0,0,0,1.64.63,2.76,2.76,0,0,0,1.62-.46,1.49,1.49,0,0,0,.68-1.32v-6.44h1.44v9.28h-1.44Z"/><path class="a" d="M414.82,519.41h2.72v-6.84h-2.72v-1.22H419v2.33h.09a3,3,0,0,1,3.13-2.33h1.3v1.44h-1.75a2.72,2.72,0,0,0-2,.73,2.54,2.54,0,0,0-.73,1.87v4h3.6v1.22h-7.76Z"/><path class="a" d="M426.59,520.26a3.87,3.87,0,0,1-1.52-1.7,6.39,6.39,0,0,1,0-5.12,4,4,0,0,1,1.5-1.71,4.14,4.14,0,0,1,2.23-.6,4,4,0,0,1,2.16.58,3.91,3.91,0,0,1,1.44,1.62,5,5,0,0,1,.52,2.34v.68h-6.88v.43a2.71,2.71,0,0,0,2.85,2.83,2.93,2.93,0,0,0,1.6-.43,2.86,2.86,0,0,0,1.06-1.19l1.06.72a3.45,3.45,0,0,1-1.41,1.55,4.82,4.82,0,0,1-4.62,0Zm.81-7.57a2.6,2.6,0,0,0-1,1,3,3,0,0,0-.36,1.44v.13h5.33v-.2a2.83,2.83,0,0,0-.71-2,2.44,2.44,0,0,0-1.86-.76A2.7,2.7,0,0,0,427.4,512.69Z"/><path class="a" d="M24.88,497.75h-.07A3,3,0,0,1,22,499.48a3.14,3.14,0,0,1-2.67-1.29,7.07,7.07,0,0,1,0-7.15A3.16,3.16,0,0,1,22,489.76a3,3,0,0,1,2.86,1.72h.07v-5.54h1.44v13.32H24.88Zm-.68-.06a1.62,1.62,0,0,0,.68-1.4v-3.35a1.63,1.63,0,0,0-.68-1.4,2.75,2.75,0,0,0-1.69-.5,2.55,2.55,0,0,0-2,.75,2.92,2.92,0,0,0-.7,2v1.58a2.89,2.89,0,0,0,.7,2,2.52,2.52,0,0,0,2,.76A2.76,2.76,0,0,0,24.2,497.69Z"/><path class="a" d="M36.05,499.26a1.52,1.52,0,0,1-1.66-1.51H34.3a2.66,2.66,0,0,1-2.79,1.73,3.41,3.41,0,0,1-2.32-.76,2.59,2.59,0,0,1-.87-2.07q0-2.7,4-2.7h2V493a2,2,0,0,0-.58-1.53,2.38,2.38,0,0,0-1.63-.52,2.68,2.68,0,0,0-2.49,1.37l-1-.72a3.07,3.07,0,0,1,1.3-1.33,4.36,4.36,0,0,1,2.25-.54,3.88,3.88,0,0,1,2.6.83,2.9,2.9,0,0,1,1,2.3v4.46a.65.65,0,0,0,.65.65H37v1.26Zm-2.47-1.48a1.45,1.45,0,0,0,.72-1.22V495h-2c-1.66,0-2.48.47-2.48,1.4v.38a1.26,1.26,0,0,0,.51,1.08,2.34,2.34,0,0,0,1.41.38A3.15,3.15,0,0,0,33.58,497.78Z"/><path class="a" d="M42.27,496.17a2.31,2.31,0,0,0,.27,1.26,1.18,1.18,0,0,0,.79.51,9.31,9.31,0,0,0,1.53.1H46v1.22H44.88a8.64,8.64,0,0,1-2.27-.24,2.27,2.27,0,0,1-1.32-.93,3.5,3.5,0,0,1-.46-1.94V491.2H37.74V490h3.09V486.7h1.44V490H46.5v1.23H42.27Z"/><path class="a" d="M50.19,498.88a3.91,3.91,0,0,1-1.52-1.69,6.39,6.39,0,0,1,0-5.12,4,4,0,0,1,1.5-1.71,4.16,4.16,0,0,1,2.23-.6A3.88,3.88,0,0,1,56,492a5.22,5.22,0,0,1,.51,2.34V495H49.65v.43a2.69,2.69,0,0,0,2.85,2.82,3,3,0,0,0,1.6-.42,2.82,2.82,0,0,0,1.06-1.2l1.06.73a3.45,3.45,0,0,1-1.41,1.55,4.43,4.43,0,0,1-2.31.59A4.37,4.37,0,0,1,50.19,498.88Zm.81-7.57a2.69,2.69,0,0,0-1,1,2.9,2.9,0,0,0-.36,1.44v.13H55v-.2a2.82,2.82,0,0,0-.71-2,2.43,2.43,0,0,0-1.86-.77A2.8,2.8,0,0,0,51,491.31Z"/><path class="a" d="M58,497.66l1-.85a4.29,4.29,0,0,0,3.37,1.46,3.48,3.48,0,0,0,1.8-.4,1.32,1.32,0,0,0,.66-1.2,1,1,0,0,0-.43-.95,2.77,2.77,0,0,0-1.2-.4l-1.46-.22a8.29,8.29,0,0,1-1.55-.35,2.74,2.74,0,0,1-1.15-.75,2.09,2.09,0,0,1-.49-1.47,2.33,2.33,0,0,1,1-2.06,4.63,4.63,0,0,1,2.72-.71,5,5,0,0,1,3.78,1.49l-.94.88a3.55,3.55,0,0,0-2.9-1.17,3.12,3.12,0,0,0-1.68.38,1.23,1.23,0,0,0-.59,1.1,1,1,0,0,0,.45.95,2.77,2.77,0,0,0,1.19.4l1.46.22a8.53,8.53,0,0,1,1.57.35,2.71,2.71,0,0,1,1.14.75,2.13,2.13,0,0,1,.48,1.47,2.48,2.48,0,0,1-1.07,2.13,4.78,4.78,0,0,1-2.86.77A5.45,5.45,0,0,1,58,497.66Z"/><path class="a" d="M81.12,499.26,77.79,490h1.45L82,498.06h.07L84.86,490h1.42L83,499.26Z"/><path class="a" d="M95.44,499.26a1.52,1.52,0,0,1-1.65-1.51H93.7a2.66,2.66,0,0,1-2.79,1.73,3.41,3.41,0,0,1-2.32-.76,2.59,2.59,0,0,1-.87-2.07q0-2.7,4-2.7h2V493a2,2,0,0,0-.58-1.53,2.39,2.39,0,0,0-1.64-.52A2.68,2.68,0,0,0,89,492.35l-1-.72a3.1,3.1,0,0,1,1.29-1.33,4.41,4.41,0,0,1,2.25-.54,3.89,3.89,0,0,1,2.61.83,2.9,2.9,0,0,1,1,2.3v4.46a.65.65,0,0,0,.65.65h.64v1.26ZM93,497.78a1.45,1.45,0,0,0,.72-1.22V495h-2c-1.66,0-2.49.47-2.49,1.4v.38a1.24,1.24,0,0,0,.52,1.08,2.34,2.34,0,0,0,1.41.38A3.15,3.15,0,0,0,93,497.78Z"/><path class="a" d="M97.87,498h3.24V487.17H97.87v-1.23h4.68V498h3.24v1.22H97.87Z"/><path class="a" d="M108,498h3.41v-6.75H108V490h4.85v8h3.11v1.26h-8Zm5-12.06v1.91H111v-1.91Z"/><path class="a" d="M123.88,497.75h-.07a3,3,0,0,1-2.86,1.73,3.14,3.14,0,0,1-2.67-1.29,7.07,7.07,0,0,1,0-7.15,3.16,3.16,0,0,1,2.67-1.28,3,3,0,0,1,2.86,1.72h.07v-5.54h1.44v13.32h-1.44Zm-.68-.06a1.62,1.62,0,0,0,.68-1.4v-3.35a1.63,1.63,0,0,0-.68-1.4,2.75,2.75,0,0,0-1.69-.5,2.55,2.55,0,0,0-2,.75,2.87,2.87,0,0,0-.7,2v1.58a2.85,2.85,0,0,0,.7,2,2.52,2.52,0,0,0,2,.76A2.76,2.76,0,0,0,123.2,497.69Z"/><line class="b" x1="348.63" y1="159.41" x2="272.41" y2="237.15"/><rect class="b" x="187.63" y="68.41" width="91" height="91"/><path class="c" d="M262,85.31a21.86,21.86,0,0,0-36.2,22.32l-27.9,27.89v13.89h13.89l2.18-2.17v-9.83h9.82l.47-.47v-9.82h9.82l5.61-5.6A21.86,21.86,0,0,0,262,85.31Zm-17.53,17.54a8.45,8.45,0,1,1,11.94,0A8.45,8.45,0,0,1,244.45,102.85Z"/><rect class="b" x="187.63" y="366.41" width="91" height="91"/><polygon class="c" points="233.13 372.91 241.72 379.86 252.63 378.13 256.59 388.45 266.91 392.41 265.18 403.32 272.13 411.91 265.18 420.5 266.91 431.41 256.59 435.37 252.63 445.68 241.72 443.95 233.13 450.91 224.55 443.95 213.63 445.68 209.68 435.37 199.36 431.41 201.09 420.5 194.13 411.91 201.09 403.32 199.36 392.41 209.68 388.45 213.63 378.13 224.55 379.86 233.13 372.91"/><path class="b" d="M230.19,420.19a7.26,7.26,0,0,1-7.25,7.26h0a7.26,7.26,0,0,1-7.26-7.26V403.63a7.26,7.26,0,0,1,7.26-7.26h0a7.26,7.26,0,0,1,7.25,7.26"/><path class="b" d="M235.44,427.45V403.63a7.25,7.25,0,0,1,7.25-7.26h0a7.26,7.26,0,0,1,7.26,7.26v23.82"/><line class="b" x1="235.44" y1="415.12" x2="249.95" y2="415.12"/><rect class="b" x="348.63" y="366.41" width="91" height="91"/><rect class="c" x="362.67" y="380.44" width="62.93" height="62.93"/><path class="b" d="M429.63,413.38c-6.94.64-33.75-.13-32-3.14,3.51-6,10.07,14,15.58,19.49s11-29.18,8.3-37.19-15.64,13.87-24.25,24.94c-10.13,13-25.16,19.54-28.19,5.85-3.64-16.4,10.74-33.57,21.67-33.57,8.11,0,4,11.59-3.63,17.52-12.36,9.57-24.06,3.32-25.68,1.65"/><line class="b" x1="367.13" y1="435.2" x2="425.6" y2="435.2"/><rect class="b" x="348.63" y="68.41" width="91" height="91"/><rect class="c" x="358.63" y="132.41" width="17" height="17"/><rect class="c" x="385.63" y="132.41" width="17" height="17"/><rect class="c" x="385.63" y="78.41" width="17" height="17"/><rect class="c" x="412.63" y="132.41" width="17" height="17"/><rect class="c" x="372.13" y="105.41" width="17" height="17"/><rect class="c" x="399.13" y="105.41" width="17" height="17"/><polyline class="b" points="380.63 105.41 380.63 100.41 407.63 100.41 407.63 105.41"/><polyline class="b" points="367.13 132.41 367.13 127.41 394.13 127.41 394.13 132.41"/><line class="b" x1="394.13" y1="95.41" x2="394.13" y2="100.41"/><polyline class="b" points="407.63 122.41 407.63 127.41 421.13 127.41 421.13 132.41"/><line class="b" x1="380.63" y1="122.41" x2="380.63" y2="127.41"/><rect class="b" x="26.63" y="366.41" width="91" height="91"/><circle class="c" cx="72.13" cy="411.91" r="34"/><path class="d" d="M96.17,387.87h0a33.9,33.9,0,0,0-24.05-10v34Z"/><rect class="b" x="26.63" y="68.41" width="91" height="91"/><rect class="c" x="40.67" y="82.44" width="31.47" height="31.47"/><circle class="d" cx="56.4" cy="98.18" r="7.8"/><line class="b" x1="77.89" y1="82.44" x2="103.6" y2="82.44"/><line class="b" x1="77.89" y1="90.31" x2="97.91" y2="90.31"/><line class="b" x1="40.67" y1="121.78" x2="103.6" y2="121.78"/><line class="b" x1="40.67" y1="129.64" x2="103.6" y2="129.64"/><line class="b" x1="40.67" y1="129.64" x2="103.6" y2="129.64"/><line class="b" x1="40.67" y1="137.51" x2="103.6" y2="137.51"/><line class="b" x1="40.67" y1="137.51" x2="103.6" y2="137.51"/><line class="b" x1="40.67" y1="145.38" x2="87.9" y2="145.38"/><polygon class="c" points="287.13 306.41 179.13 306.41 179.13 219.41 258.01 219.41 287.13 248.76 287.13 306.41"/><path class="b" d="M203.28,250.23c2.39-2,7.59-12,4-15.45-2.73-2.6-6.81.47-8.77,2.56a24,24,0,0,0-6,13.54c-.5,4.54.31,11.06,5.4,12.71a5.8,5.8,0,0,0,5.19-.88,14.2,14.2,0,0,0,2.77-3.33,7.34,7.34,0,0,1,3.16-2.87c2.09-.81,3.49.49,4.42,2.21.81,1.49,1.22,3.61,2.72,4.61,1.8,1.19,4.15-.5,5.58-1.67s3.31-2.68,5.29-2.41c1.59.22,2.81,1.48,4.27,2.15a11.08,11.08,0,0,0,4.08.77,91.64,91.64,0,0,0,15.53-.66"/><polygon class="d" points="265.22 268.33 268.72 271.18 273.17 270.47 274.79 274.71 279 276.33 278.29 280.82 281.13 284.34 278.29 287.87 279 292.35 274.79 293.98 273.17 298.21 268.72 297.5 265.22 300.36 261.72 297.5 257.27 298.21 255.65 293.98 251.45 292.35 252.15 287.87 249.31 284.34 252.15 280.82 251.45 276.33 255.65 274.71 257.27 270.47 261.72 271.18 265.22 268.33"/><polyline class="b" points="287.13 248.74 258.01 248.74 258.01 219.41"/><line class="b" x1="194.75" y1="281.54" x2="230.9" y2="281.54"/><line class="b" x1="194.75" y1="287.15" x2="224.01" y2="287.15"/><line class="b" x1="117.63" y1="159.41" x2="179.13" y2="219.41"/><line class="b" x1="117.63" y1="366.41" x2="179.13" y2="306.41"/><line class="b" x1="348.63" y1="366.41" x2="287.13" y2="306.41"/><line class="b" x1="233.13" y1="306.41" x2="233.13" y2="366.41"/><line class="b" x1="233.13" y1="159.41" x2="233.13" y2="219.41"/></svg>