<svg xmlns="http://www.w3.org/2000/svg" viewBox="0 0 464 700.28"><defs><style>.a,.b,.c,.d,.f{fill:none;}.a,.b,.c,.d,.e,.h{stroke:#1a1b1f;}.a,.b,.c,.d,.e,.f,.h{stroke-miterlimit:10;}.b{stroke-width:4px;}.c{stroke-width:6px;}.d{stroke-width:2px;}.e{fill:#fff;}.f{stroke:#1a1b1e;}.g{fill:#1a1b1e;}.h{fill:#effffd;}.i{fill:#1a1b1f;}</style></defs><title>CT_normal-CA_v2</title><rect class="a" x="160.5" y="380.78" width="142.81" height="113.99"/><line class="b" x1="170.05" y1="391.16" x2="191.91" y2="391.16"/><line class="b" x1="282.48" y1="391.16" x2="294.38" y2="391.16"/><line class="b" x1="263.04" y1="391.16" x2="274.93" y2="391.16"/><line class="c" x1="188.92" y1="425.7" x2="274.89" y2="425.7"/><line class="c" x1="199.81" y1="435.65" x2="264" y2="435.65"/><path class="a" d="M160.5,477.87c4.71-4.42,18.79-22.79,41.12-22.79,26.3,0,28.09,22.36,58,27.38,11.06,1.86,23.77.48,43.91-7.33"/><polygon class="a" points="232.07 1.78 250.23 16.49 273.32 12.83 281.69 34.65 303.52 43.03 299.86 66.11 314.57 84.28 299.86 102.44 303.52 125.53 281.69 133.9 273.32 155.72 250.23 152.06 232.07 166.78 213.91 152.06 190.82 155.72 182.45 133.9 160.62 125.53 164.28 102.44 149.57 84.28 164.28 66.11 160.62 43.03 182.45 34.65 190.82 12.83 213.91 16.49 232.07 1.78"/><path class="d" d="M225.85,101.8a15.35,15.35,0,0,1-15.35,15.35h0a15.35,15.35,0,0,1-15.35-15.35v-35A15.35,15.35,0,0,1,210.5,51.41h0a15.35,15.35,0,0,1,15.35,15.35"/><path class="d" d="M236.94,117.15V66.76a15.35,15.35,0,0,1,15.35-15.35h0a15.35,15.35,0,0,1,15.35,15.35v50.39"/><line class="d" x1="236.94" y1="91.07" x2="267.64" y2="91.07"/><ellipse class="e" cx="232.43" cy="584.31" rx="19.46" ry="19.53"/><path class="e" d="M226.58,603.84h11.7a21.4,21.4,0,0,1,21.4,21.4v37.61a0,0,0,0,1,0,0h-54.5a0,0,0,0,1,0,0V625.24A21.4,21.4,0,0,1,226.58,603.84Z"/><ellipse class="e" cx="204.82" cy="621.24" rx="19.46" ry="19.53"/><path class="e" d="M199,640.77h11.7a21.4,21.4,0,0,1,21.4,21.4v37.61a0,0,0,0,1,0,0h-54.5a0,0,0,0,1,0,0V662.17A21.4,21.4,0,0,1,199,640.77Z"/><ellipse class="e" cx="259.32" cy="621.24" rx="19.46" ry="19.53"/><path class="e" d="M253.47,640.77h11.7a21.4,21.4,0,0,1,21.4,21.4v37.61a0,0,0,0,1,0,0h-54.5a0,0,0,0,1,0,0V662.17A21.4,21.4,0,0,1,253.47,640.77Z"/><line class="f" x1="232" y1="166.78" x2="232" y2="368.69"/><polygon class="g" points="225 362.25 225.73 361.56 232 368.31 238.27 361.56 239 362.25 232 369.78 227.91 365.38 225 362.25"/><polygon class="h" points="277.57 300.53 186.57 300.53 186.57 227.53 253.03 227.53 277.57 252.15 277.57 300.53"/><path class="a" d="M206.91,253.39c2-1.65,6.4-10.08,3.36-13-2.3-2.18-5.74.4-7.39,2.15a20.06,20.06,0,0,0-5,11.37c-.42,3.8.26,9.28,4.55,10.66a4.88,4.88,0,0,0,4.37-.74,11.89,11.89,0,0,0,2.34-2.79,6.32,6.32,0,0,1,2.66-2.42c1.76-.67,2.94.42,3.72,1.86.68,1.25,1,3,2.3,3.87,1.52,1,3.49-.42,4.7-1.4s2.79-2.25,4.45-2c1.34.18,2.38,1.24,3.61,1.8a9.25,9.25,0,0,0,3.43.65,76.26,76.26,0,0,0,13.08-.56"/><polygon class="e" points="259.11 268.57 262.06 270.97 265.81 270.37 267.17 273.93 270.71 275.29 270.12 279.05 272.51 282.01 270.12 284.97 270.71 288.73 267.17 290.1 265.81 293.65 262.06 293.06 259.11 295.45 256.15 293.06 252.41 293.65 251.04 290.1 247.5 288.73 248.09 284.97 245.7 282.01 248.09 279.05 247.5 275.29 251.04 273.93 252.41 270.37 256.15 270.97 259.11 268.57"/><polyline class="a" points="277.57 252.14 253.03 252.14 253.03 227.53"/><line class="a" x1="199.73" y1="279.66" x2="230.18" y2="279.66"/><line class="a" x1="199.73" y1="284.36" x2="224.39" y2="284.36"/><path class="a" d="M316.58,437.78A97.26,97.26,0,0,1,412.75,535h0a97.25,97.25,0,0,1-97.25,97.25H298.57"/><polygon class="i" points="322.85 444.96 323.55 444.25 316.97 437.81 323.87 431.72 323.21 430.97 315.5 437.78 319.79 441.98 322.85 444.96"/><path class="a" d="M148.64,437.78A97.25,97.25,0,0,0,51.39,535h0a97.25,97.25,0,0,0,97.25,97.25h15.85"/><polygon class="i" points="158.04 639.28 157.36 638.54 164.1 632.28 157.36 626.01 158.04 625.28 165.57 632.28 161.17 636.37 158.04 639.28"/><path class="i" d="M337.2,79.44a6.17,6.17,0,0,1,0-7.09A3.81,3.81,0,0,1,340.28,71a3.86,3.86,0,0,1,2.16.58,3.42,3.42,0,0,1,1.27,1.56l-1.15.62a2.18,2.18,0,0,0-.84-1.12,2.59,2.59,0,0,0-1.44-.4,2.5,2.5,0,0,0-1.95.79,2.92,2.92,0,0,0-.7,2v1.58a3,3,0,0,0,.7,2,2.53,2.53,0,0,0,2,.78,2.58,2.58,0,0,0,2.52-1.62l1,.7a3.54,3.54,0,0,1-1.33,1.58,4,4,0,0,1-2.24.58A3.84,3.84,0,0,1,337.2,79.44Z"/><path class="i" d="M347.73,80.16a3.9,3.9,0,0,1-1.52-1.69,6.39,6.39,0,0,1,0-5.12A4,4,0,0,1,349.94,71a4,4,0,0,1,2.16.59,3.84,3.84,0,0,1,1.45,1.61,5.16,5.16,0,0,1,.51,2.34v.68h-6.87v.43a2.82,2.82,0,0,0,.77,2,2.77,2.77,0,0,0,2.07.79,3,3,0,0,0,1.6-.42,2.85,2.85,0,0,0,1.07-1.2l1.06.72a3.42,3.42,0,0,1-1.41,1.56,4.85,4.85,0,0,1-4.62,0Zm.81-7.57a2.62,2.62,0,0,0-1,1,2.9,2.9,0,0,0-.36,1.44v.12h5.33V75a2.82,2.82,0,0,0-.71-2,2.45,2.45,0,0,0-1.87-.77A2.69,2.69,0,0,0,348.54,72.59Z"/><path class="i" d="M355.76,79.31h2.71V72.47h-2.71V71.25h4.15v2.34H360a3,3,0,0,1,3.14-2.34h1.29v1.44h-1.74a2.73,2.73,0,0,0-2.05.74,2.56,2.56,0,0,0-.73,1.87v4h3.6v1.23h-7.75Z"/><path class="i" d="M369.51,77.44a2.33,2.33,0,0,0,.27,1.27,1.14,1.14,0,0,0,.78.5,8.43,8.43,0,0,0,1.54.1h1.13v1.23h-1.11a8.26,8.26,0,0,1-2.28-.25,2.25,2.25,0,0,1-1.31-.92,3.47,3.47,0,0,1-.46-2v-5H365V71.25h3.1V68h1.44v3.28h4.23v1.22h-4.23Z"/><path class="i" d="M375.79,79.28h3.4V72.53h-3.4V71.25h4.84v8h3.12v1.26h-8Zm4.95-12.06v1.9h-1.91v-1.9Z"/><path class="i" d="M385.56,79.31h3.14V72.47h-3.32V71.25h3.32v-.92a3.5,3.5,0,0,1,.45-1.94,2.27,2.27,0,0,1,1.32-.93,8.69,8.69,0,0,1,2.27-.24h1.12v1.22h-1.13a8.36,8.36,0,0,0-1.54.1,1.22,1.22,0,0,0-.79.5,2.46,2.46,0,0,0-.26,1.27v.94h3.72v1.22h-3.72v6.84h3.31v1.23h-7.89Z"/><path class="i" d="M395.59,79.28H399V72.53h-3.4V71.25h4.84v8h3.12v1.26h-8Zm5-12.06v1.9h-1.91v-1.9Z"/><path class="i" d="M406.5,79.44a6.17,6.17,0,0,1,0-7.09A3.8,3.8,0,0,1,409.57,71a3.87,3.87,0,0,1,2.17.58A3.42,3.42,0,0,1,413,73.17l-1.15.62a2.18,2.18,0,0,0-.84-1.12,2.6,2.6,0,0,0-1.45-.4,2.49,2.49,0,0,0-1.94.79,2.92,2.92,0,0,0-.7,2v1.58a3,3,0,0,0,.7,2,2.53,2.53,0,0,0,2,.78,2.58,2.58,0,0,0,2.52-1.62l1,.7a3.56,3.56,0,0,1-1.34,1.58,4,4,0,0,1-2.23.58A3.84,3.84,0,0,1,406.5,79.44Z"/><path class="i" d="M422.68,80.54A1.53,1.53,0,0,1,421,79h-.09a2.65,2.65,0,0,1-2.79,1.73,3.42,3.42,0,0,1-2.32-.75,2.61,2.61,0,0,1-.86-2.07q0-2.7,4-2.7h2v-.92a2,2,0,0,0-.57-1.53,2.36,2.36,0,0,0-1.64-.52,2.65,2.65,0,0,0-2.48,1.36l-1-.72a3.24,3.24,0,0,1,1.3-1.33,4.36,4.36,0,0,1,2.25-.54,3.82,3.82,0,0,1,2.6.84,2.88,2.88,0,0,1,1,2.29v4.47a.65.65,0,0,0,.65.65h.65v1.26Zm-2.47-1.49a1.44,1.44,0,0,0,.72-1.21V76.31h-2c-1.65,0-2.48.46-2.48,1.4v.38a1.26,1.26,0,0,0,.51,1.08,2.35,2.35,0,0,0,1.42.38A3.12,3.12,0,0,0,420.21,79.05Z"/><path class="i" d="M428.91,77.44a2.33,2.33,0,0,0,.27,1.27,1.14,1.14,0,0,0,.78.5,8.43,8.43,0,0,0,1.54.1h1.13v1.23h-1.11a8.26,8.26,0,0,1-2.28-.25,2.25,2.25,0,0,1-1.31-.92,3.47,3.47,0,0,1-.46-2v-5h-3.1V71.25h3.1V68h1.44v3.28h4.23v1.22h-4.23Z"/><path class="i" d="M436.83,80.16a3.9,3.9,0,0,1-1.52-1.69,5.77,5.77,0,0,1-.53-2.56,5.61,5.61,0,0,1,.54-2.56,4,4,0,0,1,1.5-1.71A4,4,0,0,1,439,71a4,4,0,0,1,2.16.59,3.9,3.9,0,0,1,1.45,1.61,5.16,5.16,0,0,1,.51,2.34v.68h-6.87v.43a2.68,2.68,0,0,0,2.84,2.83,3,3,0,0,0,1.6-.42,2.76,2.76,0,0,0,1.06-1.2l1.07.72a3.39,3.39,0,0,1-1.42,1.56,4.83,4.83,0,0,1-4.61,0Zm.81-7.57a2.62,2.62,0,0,0-1,1,2.9,2.9,0,0,0-.36,1.44v.12h5.32V75a2.77,2.77,0,0,0-.71-2,2.41,2.41,0,0,0-1.86-.77A2.69,2.69,0,0,0,437.64,72.59Z"/><path class="i" d="M343.48,101.91a1.54,1.54,0,0,1-1.66-1.51h-.09a2.66,2.66,0,0,1-2.79,1.72,3.42,3.42,0,0,1-2.32-.75,2.64,2.64,0,0,1-.86-2.07q0-2.7,4-2.7h2v-.92a2,2,0,0,0-.57-1.53,2.36,2.36,0,0,0-1.64-.52A2.64,2.64,0,0,0,337,95l-1-.72a3.26,3.26,0,0,1,1.3-1.34,4.36,4.36,0,0,1,2.25-.54,3.82,3.82,0,0,1,2.6.84,2.89,2.89,0,0,1,1,2.3V100a.66.66,0,0,0,.19.46.62.62,0,0,0,.46.19h.65v1.26ZM341,100.42a1.44,1.44,0,0,0,.72-1.21V97.68h-2c-1.65,0-2.48.47-2.48,1.4v.38a1.26,1.26,0,0,0,.51,1.08,2.39,2.39,0,0,0,1.42.38A3.12,3.12,0,0,0,341,100.42Z"/><path class="i" d="M352.07,100.4H352a2.64,2.64,0,0,1-2.64,1.72,3.06,3.06,0,0,1-2.35-.93,3.71,3.71,0,0,1-.87-2.61v-6h1.44v5.71a2.79,2.79,0,0,0,.55,1.89,2.09,2.09,0,0,0,1.64.63,2.87,2.87,0,0,0,1.63-.46,1.52,1.52,0,0,0,.68-1.33V92.62h1.44v9.29h-1.44Z"/><path class="i" d="M359.61,98.81a2.33,2.33,0,0,0,.27,1.27,1.18,1.18,0,0,0,.78.51,9.7,9.7,0,0,0,1.54.09h1.13v1.23h-1.11a8.72,8.72,0,0,1-2.28-.24,2.31,2.31,0,0,1-1.31-.93,3.45,3.45,0,0,1-.46-1.95v-5h-3.1V92.62h3.1V89.34h1.44v3.28h4.23v1.22h-4.23Z"/><path class="i" d="M366,88.59h1.44v5.54h.08a2.65,2.65,0,0,1,2.64-1.73,3.06,3.06,0,0,1,2.35.94,3.67,3.67,0,0,1,.87,2.61v6H372V96.2a2.79,2.79,0,0,0-.55-1.89,2.09,2.09,0,0,0-1.64-.63,2.87,2.87,0,0,0-1.63.46,1.51,1.51,0,0,0-.68,1.32v6.45H366Z"/><path class="i" d="M377.33,101.53a3.9,3.9,0,0,1-1.46-1.69,6.76,6.76,0,0,1,0-5.15A3.84,3.84,0,0,1,377.33,93a4.48,4.48,0,0,1,4.48,0,3.84,3.84,0,0,1,1.46,1.69,6.76,6.76,0,0,1,0,5.15,3.9,3.9,0,0,1-1.46,1.69,4.55,4.55,0,0,1-4.48,0Zm4.2-1.39a3.08,3.08,0,0,0,.72-2.21V96.6a3.08,3.08,0,0,0-.72-2.21,3,3,0,0,0-3.92,0,3.08,3.08,0,0,0-.72,2.21v1.33a3.08,3.08,0,0,0,.72,2.21,3,3,0,0,0,3.92,0Z"/><path class="i" d="M385.46,100.68h2.71V93.84h-2.71V92.62h4.15V95h.09a3,3,0,0,1,3.14-2.34h1.29v1.44h-1.74a2.77,2.77,0,0,0-2.05.74,2.56,2.56,0,0,0-.73,1.87v4h3.6v1.23h-7.75Z"/><path class="i" d="M395.59,100.65H399V93.9h-3.4V92.62h4.84v8h3.12v1.26h-8Zm5-12.06V90.5h-1.91V88.59Z"/><path class="i" d="M409.11,98.81a2.33,2.33,0,0,0,.27,1.27,1.18,1.18,0,0,0,.78.51,9.7,9.7,0,0,0,1.54.09h1.13v1.23h-1.11a8.72,8.72,0,0,1-2.28-.24,2.31,2.31,0,0,1-1.31-.93,3.45,3.45,0,0,1-.46-1.95v-5h-3.1V92.62h3.1V89.34h1.44v3.28h4.23v1.22h-4.23Z"/><path class="i" d="M422.17,92.62h1.44L419,103.94a2.16,2.16,0,0,1-2.38,1.57h-1.37v-1.23H417a.53.53,0,0,0,.53-.36l.9-2.19-3.75-9.11h1.48l1.57,3.89,1.38,3.53h.07l1.39-3.53Z"/><path class="i" d="M336,259.06h3.24V248.19H336V247h4.68v12.09h3.24v1.23H336Z"/><path class="i" d="M347.73,259.91a3.9,3.9,0,0,1-1.52-1.69,6.39,6.39,0,0,1,0-5.12,4,4,0,0,1,3.72-2.32,4,4,0,0,1,2.16.59,3.84,3.84,0,0,1,1.45,1.61,5.16,5.16,0,0,1,.51,2.34V256h-6.87v.43a2.82,2.82,0,0,0,.77,2,2.77,2.77,0,0,0,2.07.79,3,3,0,0,0,1.6-.42,2.85,2.85,0,0,0,1.07-1.2l1.06.72a3.42,3.42,0,0,1-1.41,1.56,4.85,4.85,0,0,1-4.62,0Zm.81-7.57a2.62,2.62,0,0,0-1,1,2.9,2.9,0,0,0-.36,1.44v.12h5.33v-.19a2.82,2.82,0,0,0-.71-2,2.45,2.45,0,0,0-1.87-.77A2.69,2.69,0,0,0,348.54,252.34Z"/><path class="i" d="M363.46,260a4.12,4.12,0,0,1-1.08,3,4,4,0,0,1-3,1.1,4.41,4.41,0,0,1-3.33-1.28l.85-1a3.29,3.29,0,0,0,2.5,1c1.75,0,2.63-.92,2.63-2.77v-1.55H362a3,3,0,0,1-2.86,1.73,3.17,3.17,0,0,1-2.67-1.27,6.67,6.67,0,0,1,0-6.93,3.2,3.2,0,0,1,2.67-1.27,3,3,0,0,1,2.86,1.73H362V251h1.44Zm-2.12-1.51a1.67,1.67,0,0,0,.68-1.41V254a1.67,1.67,0,0,0-.68-1.41,2.83,2.83,0,0,0-1.7-.5,2.51,2.51,0,0,0-1.94.76,2.85,2.85,0,0,0-.7,2v1.33a2.89,2.89,0,0,0,.7,2,2.54,2.54,0,0,0,1.94.75A2.76,2.76,0,0,0,361.34,258.47Z"/><path class="i" d="M365.89,259h3.4v-6.75h-3.4V251h4.84v8h3.12v1.26h-8ZM370.84,247v1.9h-1.91V247Z"/><path class="i" d="M379.41,257.19a2.33,2.33,0,0,0,.27,1.27,1.14,1.14,0,0,0,.78.5,8.43,8.43,0,0,0,1.54.1h1.13v1.23H382a8.26,8.26,0,0,1-2.28-.25,2.25,2.25,0,0,1-1.31-.92,3.47,3.47,0,0,1-.46-1.95v-5h-3.1V251H378v-3.28h1.44V251h4.23v1.22h-4.23Z"/><path class="i" d="M385.69,259h3.4v-6.75h-3.4V251h4.84v8h3.12v1.26h-8ZM390.64,247v1.9h-1.91V247Z"/><path class="i" d="M395.7,251h1.44v1.51h.07a3.27,3.27,0,0,1,.94-1.27,2.46,2.46,0,0,1,1.56-.46,3.23,3.23,0,0,1,1.73.47,2.78,2.78,0,0,1,1.12,1.42h0a2.87,2.87,0,0,1,1-1.36,3,3,0,0,1,1.83-.53,2.78,2.78,0,0,1,2.22.94,3.9,3.9,0,0,1,.8,2.61v6H407v-5.71a3,3,0,0,0-.49-1.87,1.85,1.85,0,0,0-1.54-.63,2.54,2.54,0,0,0-1.55.46,1.51,1.51,0,0,0-.63,1.3v6.45h-1.44v-5.71a3,3,0,0,0-.49-1.88,1.81,1.81,0,0,0-1.51-.62,2.65,2.65,0,0,0-1.57.46,1.49,1.49,0,0,0-.64,1.3v6.45H395.7Z"/><path class="i" d="M418.18,260.29a1.53,1.53,0,0,1-1.66-1.52h-.09a2.65,2.65,0,0,1-2.79,1.73,3.42,3.42,0,0,1-2.32-.75,2.61,2.61,0,0,1-.86-2.07q0-2.7,4-2.7h2v-.92a2,2,0,0,0-.57-1.53,2.36,2.36,0,0,0-1.64-.52,2.65,2.65,0,0,0-2.48,1.36l-1-.72a3.24,3.24,0,0,1,1.3-1.33,4.36,4.36,0,0,1,2.25-.54,3.82,3.82,0,0,1,2.6.84,2.88,2.88,0,0,1,1,2.29v4.47a.65.65,0,0,0,.65.65h.65v1.26Zm-2.47-1.49a1.44,1.44,0,0,0,.72-1.21v-1.53h-2c-1.65,0-2.48.46-2.48,1.4v.38a1.26,1.26,0,0,0,.51,1.08,2.35,2.35,0,0,0,1.42.38A3.12,3.12,0,0,0,415.71,258.8Z"/><path class="i" d="M424.41,257.19a2.33,2.33,0,0,0,.27,1.27,1.14,1.14,0,0,0,.78.5,8.43,8.43,0,0,0,1.54.1h1.13v1.23H427a8.26,8.26,0,0,1-2.28-.25,2.25,2.25,0,0,1-1.31-.92,3.47,3.47,0,0,1-.46-1.95v-5h-3.1V251H423v-3.28h1.44V251h4.23v1.22h-4.23Z"/><path class="i" d="M432.33,259.91a3.9,3.9,0,0,1-1.52-1.69,5.77,5.77,0,0,1-.53-2.56,5.61,5.61,0,0,1,.54-2.56,4,4,0,0,1,1.5-1.71,4,4,0,0,1,2.22-.61,4,4,0,0,1,2.16.59,3.9,3.9,0,0,1,1.45,1.61,5.16,5.16,0,0,1,.51,2.34V256h-6.87v.43a2.68,2.68,0,0,0,2.84,2.83,3,3,0,0,0,1.6-.42,2.76,2.76,0,0,0,1.06-1.2l1.07.72a3.39,3.39,0,0,1-1.42,1.56,4.83,4.83,0,0,1-4.61,0Zm.81-7.57a2.62,2.62,0,0,0-1,1,2.9,2.9,0,0,0-.36,1.44v.12h5.32v-.19a2.77,2.77,0,0,0-.71-2,2.41,2.41,0,0,0-1.86-.77A2.69,2.69,0,0,0,433.14,252.34Z"/><path class="i" d="M337.2,280.56a6.17,6.17,0,0,1,0-7.09,3.81,3.81,0,0,1,3.08-1.32,3.86,3.86,0,0,1,2.16.58,3.4,3.4,0,0,1,1.27,1.57l-1.15.61a2.22,2.22,0,0,0-.84-1.12,2.58,2.58,0,0,0-1.44-.39,2.49,2.49,0,0,0-1.95.78,2.92,2.92,0,0,0-.7,2v1.59a2.92,2.92,0,0,0,.7,2,2.53,2.53,0,0,0,2,.78,2.58,2.58,0,0,0,2.52-1.62l1,.7a3.54,3.54,0,0,1-1.33,1.58,4,4,0,0,1-2.24.58A3.81,3.81,0,0,1,337.2,280.56Z"/><path class="i" d="M347.73,281.28a3.9,3.9,0,0,1-1.52-1.69,6.39,6.39,0,0,1,0-5.12,4,4,0,0,1,1.5-1.71,4.11,4.11,0,0,1,2.22-.61,4,4,0,0,1,2.16.59,3.9,3.9,0,0,1,1.45,1.61,5.16,5.16,0,0,1,.51,2.34v.68h-6.87v.44a2.82,2.82,0,0,0,.77,2,2.77,2.77,0,0,0,2.07.79,3,3,0,0,0,1.6-.42,2.85,2.85,0,0,0,1.07-1.2l1.06.72a3.42,3.42,0,0,1-1.41,1.56,4.47,4.47,0,0,1-2.32.58A4.35,4.35,0,0,1,347.73,281.28Zm.81-7.57a2.69,2.69,0,0,0-1,1,2.9,2.9,0,0,0-.36,1.44v.12h5.33v-.19a2.82,2.82,0,0,0-.71-2,2.45,2.45,0,0,0-1.87-.77A2.79,2.79,0,0,0,348.54,273.71Z"/><path class="i" d="M355.76,280.43h2.71v-6.84h-2.71v-1.22h4.15v2.34H360a3,3,0,0,1,3.14-2.34h1.29v1.44h-1.74a2.77,2.77,0,0,0-2.05.74,2.56,2.56,0,0,0-.73,1.87v4h3.6v1.23h-7.75Z"/><path class="i" d="M369.51,278.56a2.33,2.33,0,0,0,.27,1.27,1.18,1.18,0,0,0,.78.51,9.7,9.7,0,0,0,1.54.09h1.13v1.23h-1.11a8.72,8.72,0,0,1-2.28-.24,2.31,2.31,0,0,1-1.31-.93,3.45,3.45,0,0,1-.46-1.95v-5H365v-1.22h3.1v-3.28h1.44v3.28h4.23v1.22h-4.23Z"/><path class="i" d="M375.79,280.4h3.4v-6.75h-3.4v-1.28h4.84v8h3.12v1.26h-8Zm4.95-12.06v1.91h-1.91v-1.91Z"/><path class="i" d="M385.56,280.43h3.14v-6.84h-3.32v-1.22h3.32v-.92a3.52,3.52,0,0,1,.45-1.94,2.27,2.27,0,0,1,1.32-.93,8.69,8.69,0,0,1,2.27-.24h1.12v1.22h-1.13a9.36,9.36,0,0,0-1.54.1,1.23,1.23,0,0,0-.79.51,2.42,2.42,0,0,0-.26,1.26v.94h3.72v1.22h-3.72v6.84h3.31v1.23h-7.89Z"/><path class="i" d="M395.59,280.4H399v-6.75h-3.4v-1.28h4.84v8h3.12v1.26h-8Zm5-12.06v1.91h-1.91v-1.91Z"/><path class="i" d="M406.5,280.56a6.17,6.17,0,0,1,0-7.09,3.8,3.8,0,0,1,3.07-1.32,3.87,3.87,0,0,1,2.17.58A3.4,3.4,0,0,1,413,274.3l-1.15.61a2.22,2.22,0,0,0-.84-1.12,2.6,2.6,0,0,0-1.45-.39,2.49,2.49,0,0,0-1.94.78,2.92,2.92,0,0,0-.7,2v1.59a2.92,2.92,0,0,0,.7,2,2.53,2.53,0,0,0,2,.78,2.58,2.58,0,0,0,2.52-1.62l1,.7a3.56,3.56,0,0,1-1.34,1.58,4,4,0,0,1-2.23.58A3.81,3.81,0,0,1,406.5,280.56Z"/><path class="i" d="M422.68,281.66a1.53,1.53,0,0,1-1.66-1.51h-.09a2.66,2.66,0,0,1-2.79,1.72,3.42,3.42,0,0,1-2.32-.75,2.61,2.61,0,0,1-.86-2.07q0-2.7,4-2.7h2v-.92a2,2,0,0,0-.57-1.53,2.36,2.36,0,0,0-1.64-.52,2.64,2.64,0,0,0-2.48,1.37l-1-.72a3.26,3.26,0,0,1,1.3-1.34,4.36,4.36,0,0,1,2.25-.54,3.82,3.82,0,0,1,2.6.84,2.89,2.89,0,0,1,1,2.3v4.46a.66.66,0,0,0,.19.46.62.62,0,0,0,.46.19h.65v1.26Zm-2.47-1.49a1.44,1.44,0,0,0,.72-1.21v-1.53h-2c-1.65,0-2.48.47-2.48,1.4v.38a1.26,1.26,0,0,0,.51,1.08,2.35,2.35,0,0,0,1.42.38A3.12,3.12,0,0,0,420.21,280.17Z"/><path class="i" d="M428.91,278.56a2.33,2.33,0,0,0,.27,1.27,1.18,1.18,0,0,0,.78.51,9.7,9.7,0,0,0,1.54.09h1.13v1.23h-1.11a8.72,8.72,0,0,1-2.28-.24,2.31,2.31,0,0,1-1.31-.93,3.45,3.45,0,0,1-.46-1.95v-5h-3.1v-1.22h3.1v-3.28h1.44v3.28h4.23v1.22h-4.23Z"/><path class="i" d="M436.83,281.28a3.9,3.9,0,0,1-1.52-1.69,5.74,5.74,0,0,1-.53-2.56,5.64,5.64,0,0,1,.54-2.56,4,4,0,0,1,1.5-1.71,4.11,4.11,0,0,1,2.22-.61,3.91,3.91,0,0,1,3.61,2.2,5.16,5.16,0,0,1,.51,2.34v.68h-6.87v.44a2.68,2.68,0,0,0,2.84,2.82,3,3,0,0,0,1.6-.42,2.76,2.76,0,0,0,1.06-1.2l1.07.72a3.39,3.39,0,0,1-1.42,1.56,4.4,4.4,0,0,1-2.31.58A4.33,4.33,0,0,1,436.83,281.28Zm.81-7.57a2.69,2.69,0,0,0-1,1,2.9,2.9,0,0,0-.36,1.44v.12h5.32v-.19a2.77,2.77,0,0,0-.71-2,2.41,2.41,0,0,0-1.86-.77A2.79,2.79,0,0,0,437.64,273.71Z"/><path class="i" d="M336.05,398.93h3.24V388.06h-3.24v-1.22h4.68v12.09H344v1.23h-7.92Z"/><path class="i" d="M347.77,399.78a3.9,3.9,0,0,1-1.52-1.69,6.39,6.39,0,0,1,0-5.12,4,4,0,0,1,1.5-1.71,4.11,4.11,0,0,1,2.22-.61,4,4,0,0,1,2.16.59,3.9,3.9,0,0,1,1.45,1.61,5.16,5.16,0,0,1,.51,2.34v.68h-6.87v.44a2.82,2.82,0,0,0,.77,2,2.77,2.77,0,0,0,2.07.79,3,3,0,0,0,1.6-.42,2.85,2.85,0,0,0,1.07-1.2l1.06.72a3.42,3.42,0,0,1-1.41,1.56,4.47,4.47,0,0,1-2.32.58A4.35,4.35,0,0,1,347.77,399.78Zm.81-7.57a2.69,2.69,0,0,0-1,1,2.9,2.9,0,0,0-.36,1.44v.12h5.33v-.19a2.82,2.82,0,0,0-.71-2,2.45,2.45,0,0,0-1.87-.77A2.79,2.79,0,0,0,348.58,392.21Z"/><path class="i" d="M363.5,399.85a4.14,4.14,0,0,1-1.08,3,4,4,0,0,1-3,1.09,4.44,4.44,0,0,1-3.33-1.27l.85-1a3.32,3.32,0,0,0,2.5,1c1.75,0,2.63-.92,2.63-2.77v-1.55H362a3,3,0,0,1-2.86,1.73,3.17,3.17,0,0,1-2.67-1.27,6.67,6.67,0,0,1,0-6.93,3.2,3.2,0,0,1,2.67-1.27,3,3,0,0,1,2.86,1.73h.07v-1.51h1.44Zm-2.12-1.51a1.65,1.65,0,0,0,.68-1.4v-3.1a1.64,1.64,0,0,0-.68-1.4,2.77,2.77,0,0,0-1.7-.51,2.51,2.51,0,0,0-1.94.76,2.85,2.85,0,0,0-.7,2v1.33a2.87,2.87,0,0,0,.7,2,2.54,2.54,0,0,0,1.94.75A2.76,2.76,0,0,0,361.38,398.34Z"/><path class="i" d="M365.93,398.9h3.4v-6.75h-3.4v-1.28h4.84v8h3.12v1.26h-8Zm4.95-12.06v1.91H369v-1.91Z"/><path class="i" d="M379.45,397.06a2.33,2.33,0,0,0,.27,1.27,1.14,1.14,0,0,0,.78.5,8.43,8.43,0,0,0,1.54.1h1.13v1.23h-1.11a8.26,8.26,0,0,1-2.28-.25,2.25,2.25,0,0,1-1.31-.92A3.47,3.47,0,0,1,378,397v-5h-3.1v-1.22H378v-3.28h1.44v3.28h4.23v1.22h-4.23Z"/><path class="i" d="M385.73,398.9h3.4v-6.75h-3.4v-1.28h4.84v8h3.12v1.26h-8Zm4.95-12.06v1.91h-1.91v-1.91Z"/><path class="i" d="M395.74,390.87h1.44v1.51h.07a3.27,3.27,0,0,1,.94-1.27,2.46,2.46,0,0,1,1.56-.46,3.23,3.23,0,0,1,1.73.47,2.78,2.78,0,0,1,1.12,1.42h0a2.8,2.8,0,0,1,1-1.35,2.93,2.93,0,0,1,1.83-.54,2.78,2.78,0,0,1,2.22.94,3.9,3.9,0,0,1,.8,2.61v6H407v-5.71a3,3,0,0,0-.49-1.87A1.85,1.85,0,0,0,405,392a2.54,2.54,0,0,0-1.55.46,1.51,1.51,0,0,0-.63,1.3v6.45h-1.44v-5.71a3,3,0,0,0-.49-1.88,1.81,1.81,0,0,0-1.51-.62,2.65,2.65,0,0,0-1.57.46,1.49,1.49,0,0,0-.64,1.3v6.45h-1.44Z"/><path class="i" d="M418.22,400.16a1.54,1.54,0,0,1-1.66-1.51h-.09a2.66,2.66,0,0,1-2.79,1.72,3.42,3.42,0,0,1-2.32-.75,2.61,2.61,0,0,1-.86-2.07q0-2.7,4-2.7h2v-.92a2,2,0,0,0-.57-1.53,2.36,2.36,0,0,0-1.64-.52,2.64,2.64,0,0,0-2.48,1.37l-1-.72a3.21,3.21,0,0,1,1.3-1.34,4.36,4.36,0,0,1,2.25-.54,3.82,3.82,0,0,1,2.6.84,2.89,2.89,0,0,1,1,2.3v4.46a.65.65,0,0,0,.65.65h.65v1.26Zm-2.47-1.49a1.44,1.44,0,0,0,.72-1.21v-1.53h-2c-1.65,0-2.48.47-2.48,1.4v.38a1.26,1.26,0,0,0,.51,1.08,2.35,2.35,0,0,0,1.42.38A3.12,3.12,0,0,0,415.75,398.67Z"/><path class="i" d="M424.45,397.06a2.33,2.33,0,0,0,.27,1.27,1.14,1.14,0,0,0,.78.5,8.43,8.43,0,0,0,1.54.1h1.13v1.23h-1.11a8.26,8.26,0,0,1-2.28-.25,2.25,2.25,0,0,1-1.31-.92A3.47,3.47,0,0,1,423,397v-5h-3.1v-1.22H423v-3.28h1.44v3.28h4.23v1.22h-4.23Z"/><path class="i" d="M432.37,399.78a3.9,3.9,0,0,1-1.52-1.69,5.74,5.74,0,0,1-.53-2.56,5.61,5.61,0,0,1,.54-2.56,4,4,0,0,1,1.5-1.71,4.11,4.11,0,0,1,2.22-.61,3.91,3.91,0,0,1,3.61,2.2,5.16,5.16,0,0,1,.51,2.34v.68h-6.87v.44a2.68,2.68,0,0,0,2.84,2.82,3,3,0,0,0,1.6-.42,2.76,2.76,0,0,0,1.06-1.2l1.07.72a3.39,3.39,0,0,1-1.42,1.56,4.4,4.4,0,0,1-2.31.58A4.33,4.33,0,0,1,432.37,399.78Zm.81-7.57a2.69,2.69,0,0,0-1,1,2.9,2.9,0,0,0-.36,1.44v.12h5.32v-.19a2.77,2.77,0,0,0-.71-2,2.41,2.41,0,0,0-1.86-.77A2.79,2.79,0,0,0,433.18,392.21Z"/><path class="i" d="M337.4,412.24l1,3.58,1.21,4.5h0l1.38-4.53,1.1-3.55h1.28l1.11,3.55,1.43,4.53h0l1.19-4.51.95-3.57h1.35l-2.64,9.29H345l-2.29-7.29h0l-.91,3-1.35,4.32h-1.75L336,412.24Z"/><path class="i" d="M353.17,421.15a3.85,3.85,0,0,1-1.52-1.69,5.71,5.71,0,0,1-.53-2.56,5.77,5.77,0,0,1,.54-2.56,4,4,0,0,1,1.5-1.71,4.1,4.1,0,0,1,2.22-.6,4,4,0,0,1,2.16.58,3.9,3.9,0,0,1,1.45,1.61,5.22,5.22,0,0,1,.51,2.34v.69h-6.87v.43a2.8,2.8,0,0,0,.77,2,2.77,2.77,0,0,0,2.07.79,3,3,0,0,0,1.6-.42,2.85,2.85,0,0,0,1.07-1.2l1.06.72a3.39,3.39,0,0,1-1.42,1.56,4.41,4.41,0,0,1-2.31.59A4.36,4.36,0,0,1,353.17,421.15Zm.81-7.57a2.69,2.69,0,0,0-1,1,2.9,2.9,0,0,0-.36,1.44v.13H358V416a2.78,2.78,0,0,0-.72-2,2.41,2.41,0,0,0-1.86-.77A2.79,2.79,0,0,0,354,413.58Z"/><path class="i" d="M361.52,408.21H363v5.54H363a3,3,0,0,1,2.86-1.72,3.16,3.16,0,0,1,2.68,1.28,7.14,7.14,0,0,1,0,7.15,3.17,3.17,0,0,1-2.68,1.29A3,3,0,0,1,363,420H363v1.51h-1.44Zm5.76,11.5a2.85,2.85,0,0,0,.7-2v-1.59a2.85,2.85,0,0,0-.7-2,2.54,2.54,0,0,0-1.94-.76,2.77,2.77,0,0,0-1.7.51,1.64,1.64,0,0,0-.68,1.4v3.35a1.64,1.64,0,0,0,.68,1.4,2.77,2.77,0,0,0,1.7.51A2.51,2.51,0,0,0,367.28,419.71Z"/><path class="i" d="M370.92,419.93l1-.85a4.53,4.53,0,0,0,1.49,1.1,4.59,4.59,0,0,0,1.87.36,3.43,3.43,0,0,0,1.8-.4,1.31,1.31,0,0,0,.67-1.2,1.07,1.07,0,0,0-.43-1,2.92,2.92,0,0,0-1.21-.39l-1.46-.22a8.36,8.36,0,0,1-1.54-.35,2.77,2.77,0,0,1-1.16-.75,2.13,2.13,0,0,1-.48-1.47,2.35,2.35,0,0,1,1-2.06,4.66,4.66,0,0,1,2.72-.71,4.9,4.9,0,0,1,3.78,1.49l-.93.88a3.56,3.56,0,0,0-2.9-1.17,3.09,3.09,0,0,0-1.68.38,1.21,1.21,0,0,0-.59,1.1,1.06,1.06,0,0,0,.44,1,2.91,2.91,0,0,0,1.2.4l1.46.21a10.13,10.13,0,0,1,1.56.35,2.7,2.7,0,0,1,1.14.76,2.12,2.12,0,0,1,.48,1.47,2.47,2.47,0,0,1-1.06,2.13,4.8,4.8,0,0,1-2.86.77A5.44,5.44,0,0,1,370.92,419.93Z"/><path class="i" d="M381.23,420.27h3.4v-6.75h-3.4v-1.28h4.84v8h3.12v1.26h-8Zm4.95-12.06v1.91h-1.91v-1.91Z"/><path class="i" d="M394.75,418.43a2.33,2.33,0,0,0,.27,1.27,1.18,1.18,0,0,0,.78.51,9.45,9.45,0,0,0,1.54.1h1.13v1.22h-1.11a8.72,8.72,0,0,1-2.28-.24,2.26,2.26,0,0,1-1.31-.93,3.44,3.44,0,0,1-.46-1.94v-4.95h-3.1v-1.23h3.1V409h1.44v3.27H399v1.23h-4.23Z"/><path class="i" d="M402.67,421.15a3.85,3.85,0,0,1-1.52-1.69,5.71,5.71,0,0,1-.54-2.56,5.91,5.91,0,0,1,.54-2.56,4,4,0,0,1,3.73-2.31,3.88,3.88,0,0,1,3.61,2.19,5.22,5.22,0,0,1,.51,2.34v.69h-6.87v.43a2.8,2.8,0,0,0,.77,2,2.77,2.77,0,0,0,2.07.79,3,3,0,0,0,1.6-.42,2.85,2.85,0,0,0,1.07-1.2l1.06.72a3.39,3.39,0,0,1-1.42,1.56,4.41,4.41,0,0,1-2.31.59A4.36,4.36,0,0,1,402.67,421.15Zm.81-7.57a2.69,2.69,0,0,0-1,1,2.9,2.9,0,0,0-.36,1.44v.13h5.32V416a2.77,2.77,0,0,0-.71-2,2.41,2.41,0,0,0-1.86-.77A2.76,2.76,0,0,0,403.48,413.58Z"/><path class="i" d="M339.11,680.76l-3.33-9.29h1.46l2.77,8.09h.07l2.78-8.09h1.42L341,680.76Z"/><path class="i" d="M346.15,679.5h3.4v-6.75h-3.4v-1.28H351v8h3.12v1.26h-8Zm5-12.06v1.91h-1.91v-1.91Z"/><path class="i" d="M355.64,679.16l1-.85a4.4,4.4,0,0,0,1.49,1.1,4.59,4.59,0,0,0,1.87.36,3.43,3.43,0,0,0,1.8-.4,1.31,1.31,0,0,0,.67-1.2,1.05,1.05,0,0,0-.43-.95,2.77,2.77,0,0,0-1.21-.4l-1.46-.22a8.36,8.36,0,0,1-1.54-.35,2.77,2.77,0,0,1-1.16-.75,2.12,2.12,0,0,1-.48-1.47,2.35,2.35,0,0,1,1-2.06,4.73,4.73,0,0,1,2.72-.71,4.94,4.94,0,0,1,3.78,1.49l-.93.88a3.56,3.56,0,0,0-2.9-1.17,3.16,3.16,0,0,0-1.69.38,1.22,1.22,0,0,0-.58,1.1,1.06,1.06,0,0,0,.44.95,2.77,2.77,0,0,0,1.2.4l1.46.22a8.23,8.23,0,0,1,1.56.35,2.59,2.59,0,0,1,1.14.75,2.13,2.13,0,0,1,.48,1.47,2.47,2.47,0,0,1-1.06,2.13,4.8,4.8,0,0,1-2.86.77A5.44,5.44,0,0,1,355.64,679.16Z"/><path class="i" d="M366,679.5h3.4v-6.75H366v-1.28h4.84v8h3.12v1.26h-8Zm4.95-12.06v1.91H369v-1.91Z"/><path class="i" d="M379.47,677.67a2.35,2.35,0,0,0,.27,1.27,1.17,1.17,0,0,0,.78.5,8.36,8.36,0,0,0,1.54.1h1.13v1.22h-1.11a8.72,8.72,0,0,1-2.28-.24,2.22,2.22,0,0,1-1.31-.93,3.41,3.41,0,0,1-.46-1.94V672.7h-3.1v-1.23H378V668.2h1.44v3.27h4.23v1.23h-4.23Z"/><path class="i" d="M387.29,680.38a3.84,3.84,0,0,1-1.46-1.69,6.76,6.76,0,0,1,0-5.15,3.9,3.9,0,0,1,1.46-1.69,4.55,4.55,0,0,1,4.48,0,3.9,3.9,0,0,1,1.46,1.69,6.76,6.76,0,0,1,0,5.15,3.84,3.84,0,0,1-1.46,1.69,4.48,4.48,0,0,1-4.48,0Zm4.2-1.39a3.05,3.05,0,0,0,.72-2.2v-1.34a3.05,3.05,0,0,0-.72-2.2,2.94,2.94,0,0,0-3.92,0,3.05,3.05,0,0,0-.72,2.2v1.34a3.05,3.05,0,0,0,.72,2.2,2.94,2.94,0,0,0,3.92,0Z"/><path class="i" d="M395.41,679.54h2.72V672.7h-2.72v-1.23h4.16v2.34h.09a3,3,0,0,1,3.13-2.34h1.3v1.44h-1.75a2.76,2.76,0,0,0-2,.74,2.58,2.58,0,0,0-.73,1.87v4h3.6v1.22h-7.76Z"/><path class="i" d="M405.13,679.16l1-.85a4.4,4.4,0,0,0,1.49,1.1,4.55,4.55,0,0,0,1.87.36,3.43,3.43,0,0,0,1.8-.4,1.31,1.31,0,0,0,.67-1.2,1.07,1.07,0,0,0-.43-.95,2.77,2.77,0,0,0-1.21-.4l-1.46-.22a8.48,8.48,0,0,1-1.55-.35,2.8,2.8,0,0,1-1.15-.75,2.12,2.12,0,0,1-.48-1.47,2.35,2.35,0,0,1,1-2.06,4.73,4.73,0,0,1,2.72-.71,5,5,0,0,1,3.78,1.49l-.94.88a3.53,3.53,0,0,0-2.89-1.17,3.13,3.13,0,0,0-1.69.38,1.22,1.22,0,0,0-.58,1.1,1.06,1.06,0,0,0,.44.95,2.77,2.77,0,0,0,1.2.4l1.45.22a8.35,8.35,0,0,1,1.57.35,2.65,2.65,0,0,1,1.14.75,2.13,2.13,0,0,1,.48,1.47,2.47,2.47,0,0,1-1.06,2.13,4.8,4.8,0,0,1-2.86.77A5.47,5.47,0,0,1,405.13,679.16Z"/></svg>