<?xml version="1.0" encoding="utf-8"?>
<!-- Generator: Adobe Illustrator 26.1.0, SVG Export Plug-In . SVG Version: 6.00 Build 0)  -->
<svg version="1.1" id="Layer_1" xmlns="http://www.w3.org/2000/svg" xmlns:xlink="http://www.w3.org/1999/xlink" x="0px" y="0px"
	 viewBox="0 0 111 55" style="enable-background:new 0 0 111 55;" xml:space="preserve">
<style type="text/css">
	.st0{fill:#27AAE1;}
	.st1{fill:#58595B;}
</style>
<g>
	<path class="st0" d="M28.1,10.2c-2.2-0.3-4.4-0.7-6.4-1.6c-1.2-0.5-2.2-1.3-3.2-2c-5,3.6-11.5,3.7-17.3,2.5c-0.5,2-0.8,4-1,6.1
		C-0.2,20,0,24.9,1.3,29.5c1.7,6.3,5.1,12.1,9.7,16.7c-2.8-4-5-8.4-6.4-13.1c-2.1-6.8-2.5-14-1.1-21c4.2,0.1,8.4-0.5,12.3-2
		c0.9-0.4,1.7-0.9,2.7-1.2c0.8,0.2,1.6,0.7,2.4,1c2.3,0.8,4.7,1,7,0.8C27.9,10.5,28,10.4,28.1,10.2z"/>
	<path class="st0" d="M17,28.2h-2.1V36h-4.5V16.6h4.5v7.6h1.5l4.3-7.6h5.6l-6,8.8L26.8,36h-5.5L17,28.2z"/>
	<path class="st0" d="M40.3,27.7h-7.7v4.8h9V36H28.1V16.6h13.5v3.5h-9v4h7.7V27.7z"/>
	<path class="st0" d="M51,25.1L51,25.1l4-8.5h4.9l-6.6,12.6V36h-4.5v-7l-6.5-12.4h4.9L51,25.1z"/>
	<path class="st1" d="M75.1,20.1h-5.1V36h-4.5V20.1h-5.1v-3.5h14.8V20.1z"/>
	<path class="st1" d="M92.6,28c0,2.4-0.8,4.4-2.3,5.9c-1.5,1.6-3.5,2.3-6,2.3c-2.5,0-4.5-0.8-6-2.3c-1.5-1.6-2.3-3.5-2.3-5.9v-3.5
		c0-2.4,0.8-4.4,2.3-5.9c1.5-1.6,3.5-2.3,6-2.3c2.4,0,4.4,0.8,6,2.3c1.5,1.6,2.3,3.5,2.3,5.9V28z M88.1,24.5c0-1.4-0.3-2.5-1-3.4
		c-0.7-0.9-1.6-1.3-2.8-1.3c-1.2,0-2.2,0.4-2.8,1.3c-0.6,0.9-1,2-1,3.4V28c0,1.4,0.3,2.6,1,3.5c0.7,0.9,1.6,1.3,2.8,1.3
		c1.2,0,2.1-0.4,2.8-1.3c0.7-0.9,1-2,1-3.5V24.5z"/>
	<path class="st1" d="M105.6,30.8c0-0.7-0.2-1.2-0.7-1.6c-0.5-0.4-1.3-0.8-2.4-1.2c-2.4-0.8-4.2-1.6-5.4-2.5
		c-1.2-0.9-1.8-2.2-1.8-3.8c0-1.6,0.7-2.9,2.1-3.9c1.4-1,3.2-1.5,5.3-1.5c2.1,0,3.9,0.6,5.3,1.7c1.4,1.1,2,2.5,2,4.3l0,0.1h-4.3
		c0-0.7-0.3-1.4-0.8-1.9c-0.5-0.5-1.2-0.7-2.2-0.7c-0.9,0-1.6,0.2-2.1,0.6c-0.5,0.3-0.8,0.9-0.8,1.5c0,0.6,0.3,1.1,0.8,1.4
		c0.5,0.3,1.5,0.8,2.9,1.3c2.2,0.7,3.8,1.5,5,2.4c1.1,1,1.7,2.3,1.7,3.9c0,1.7-0.7,3-2,4s-3.1,1.4-5.3,1.4c-2.2,0-4.1-0.6-5.7-1.7
		c-1.6-1.1-2.4-2.7-2.3-4.8l0-0.1h4.4c0,1.1,0.3,1.9,0.9,2.4c0.6,0.5,1.5,0.7,2.7,0.7c0.9,0,1.6-0.2,2.1-0.6
		C105.4,32,105.6,31.4,105.6,30.8z"/>
</g>
</svg>
