<?xml version="1.0" encoding="UTF-8" standalone="no"?><!DOCTYPE svg PUBLIC "-//W3C//DTD SVG 1.1//EN" "http://www.w3.org/Graphics/SVG/1.1/DTD/svg11.dtd"><svg width="100%" height="100%" viewBox="0 0 2025 584" version="1.1" xmlns="http://www.w3.org/2000/svg" xmlns:xlink="http://www.w3.org/1999/xlink" xml:space="preserve" xmlns:serif="http://www.serif.com/" style="fill-rule:evenodd;clip-rule:evenodd;stroke-linejoin:round;stroke-miterlimit:2;"><g><circle cx="291.667" cy="291.667" r="291.667" style="fill:#e11010;"/><g><path d="M307.525,174.147l-102.884,0l-0,283.463l-50,0l-0,-283.463l-0.474,0l-0,-49.87l183.211,-0l0.099,-0l49.925,-0l0.098,0l-100.177,166.666l-49.945,-0l70.147,-116.796Z" style="fill:#fff;"/><path d="M337.427,457.527l-100.049,-166.584l49.945,-0l100.177,166.665l-0.098,0.001l-49.925,-0l-0.099,-0.001l0.049,-0.081Z" style="fill:#ffb3b3;"/><path d="M387.451,457.527l100.049,-166.584l-49.945,-0l-75.116,124.972l25.012,41.612Z" style="fill:#ff8181;"/><path d="M387.451,124.359l100.049,166.584l-49.945,-0l-75.116,-124.972l25.012,-41.612Z" style="fill:#e24e4e;"/></g></g><g><path d="M1926.85,202.087l-71.042,-0l0,-22.791l71.042,0l0,-0.131l26.951,0l-0,0.131l71.197,0l-13.231,22.917l0,-0.126l-57.966,-0l-0,202.002l-26.951,-0l0,-202.002Z" style="fill:#e11010;"/><path d="M1706.18,179.165l130.246,0.131l-13.23,22.917l-0,-0.126l-90.065,-0l-0,76.877l48.572,0l-13.231,22.917l-0,-0.126l-35.341,-0l-0,102.334l-26.951,-0l0,-224.924Z" style="fill:#e11010;"/><rect x="1614.39" y="179.165" width="26.951" height="224.923" style="fill:#e11010;"/><path d="M1489.28,404.089l-49.938,-0l-33.622,-28.213l-0,-13.883l26.95,-0l0,6.747l14.967,12.558l68.804,0l15.608,-13.097l0,-53.888l-14.967,-12.558l-76.154,-0l-32.101,-26.936l0,-69.54l31.121,-26.114l81.86,0l33.623,28.213l-0,13.883l-26.951,0l-0,-6.747l-14.967,-12.558l-61.833,-0l-15.902,13.344l-0,49.498l16.883,14.166l72.716,0l33.623,28.213l-0,38.41l0.199,-0.167l0,32.635l-31.12,26.113l-38.893,-0l0.094,-0.079Z" style="fill:#e11010;"/><path d="M1241.56,179.165l54.364,45.56l-0,133.804l-54.364,45.56l-118.847,-0l-0,-22.917l0.124,-0l-0,-179.09l-0.124,0l-0,-22.917l118.847,0Zm-91.773,202.007l80.313,-0l38.873,-32.577l0,-113.936l-38.873,-32.577l-80.313,0l0,179.09Z" style="fill:#e11010;"/><path d="M923.108,404.089l0,-224.924l141.916,0l-13.231,22.917l-0,-0.126l-101.734,-0l-0,77.008l96.915,0l-13.231,22.917l-0,-0.126l-83.684,-0l-0,79.543l101.734,0l-0,-0.126l13.231,22.917l-141.916,-0Z" style="fill:#e11010;"/><path d="M847.315,179.165l-0,0.038l19.003,0l-64.93,112.462l64.906,112.424l-28.867,-0l-64.907,-112.424l-0.023,-0.038l0.045,0l51.7,-89.545l-88.826,0l0,202.007l-27.083,-0l0,-224.924l138.982,0Z" style="fill:#e11010;"/></g><path d="M486.096,292.128l-0.042,0l0,0.042l0.042,-0.042Z" style="fill:#fff;fill-rule:nonzero;"/></svg>