<?xml version="1.0" encoding="utf-8"?>
<svg version="1.1" id="Layer_1" xmlns="http://www.w3.org/2000/svg" xmlns:xlink="http://www.w3.org/1999/xlink" x="0px" y="0px"
	 viewBox="0 0 385 145" style="enable-background:new 0 0 385 145;" xml:space="preserve">
<style type="text/css">
	.st0{fill:none;stroke:#B0B1B5;}
	.st1{fill:#D4F7DA;stroke:#1A1B1F;stroke-width:2;}
	.st2{fill:none;stroke:#1A1B1F;stroke-width:2;}
	.st3{fill:none;stroke:#1A1B1F;stroke-width:2;stroke-dasharray:6,3;}
</style>
<line class="st0" x1="252.5" y1="0" x2="252.5" y2="25"/>
<line class="st0" x1="265" y1="12.5" x2="240" y2="12.5"/>
<line class="st0" x1="312.5" y1="0" x2="312.5" y2="25"/>
<line class="st0" x1="325" y1="12.5" x2="300" y2="12.5"/>
<line class="st0" x1="192.5" y1="0" x2="192.5" y2="25"/>
<line class="st0" x1="205" y1="12.5" x2="180" y2="12.5"/>
<line class="st0" x1="72.5" y1="0" x2="72.5" y2="25"/>
<line class="st0" x1="85" y1="12.5" x2="60" y2="12.5"/>
<line class="st0" x1="372.5" y1="0" x2="372.5" y2="25"/>
<line class="st0" x1="385" y1="12.5" x2="360" y2="12.5"/>
<line class="st0" x1="132.5" y1="0" x2="132.5" y2="25"/>
<line class="st0" x1="145" y1="12.5" x2="120" y2="12.5"/>
<line class="st0" x1="12.5" y1="0" x2="12.5" y2="25"/>
<line class="st0" x1="25" y1="12.5" x2="0" y2="12.5"/>
<line class="st0" x1="252.5" y1="60" x2="252.5" y2="85"/>
<line class="st0" x1="265" y1="72.5" x2="240" y2="72.5"/>
<line class="st0" x1="312.5" y1="60" x2="312.5" y2="85"/>
<line class="st0" x1="325" y1="72.5" x2="300" y2="72.5"/>
<line class="st0" x1="192.5" y1="60" x2="192.5" y2="85"/>
<line class="st0" x1="205" y1="72.5" x2="180" y2="72.5"/>
<line class="st0" x1="72.5" y1="60" x2="72.5" y2="85"/>
<line class="st0" x1="85" y1="72.5" x2="60" y2="72.5"/>
<line class="st0" x1="372.5" y1="60" x2="372.5" y2="85"/>
<line class="st0" x1="385" y1="72.5" x2="360" y2="72.5"/>
<line class="st0" x1="132.5" y1="60" x2="132.5" y2="85"/>
<line class="st0" x1="145" y1="72.5" x2="120" y2="72.5"/>
<line class="st0" x1="12.5" y1="60" x2="12.5" y2="85"/>
<line class="st0" x1="25" y1="72.5" x2="0" y2="72.5"/>
<line class="st0" x1="252.5" y1="120" x2="252.5" y2="145"/>
<line class="st0" x1="265" y1="132.5" x2="240" y2="132.5"/>
<line class="st0" x1="312.5" y1="120" x2="312.5" y2="145"/>
<line class="st0" x1="325" y1="132.5" x2="300" y2="132.5"/>
<line class="st0" x1="192.5" y1="120" x2="192.5" y2="145"/>
<line class="st0" x1="205" y1="132.5" x2="180" y2="132.5"/>
<line class="st0" x1="72.5" y1="120" x2="72.5" y2="145"/>
<line class="st0" x1="85" y1="132.5" x2="60" y2="132.5"/>
<line class="st0" x1="372.5" y1="120" x2="372.5" y2="145"/>
<line class="st0" x1="385" y1="132.5" x2="360" y2="132.5"/>
<line class="st0" x1="132.5" y1="120" x2="132.5" y2="145"/>
<line class="st0" x1="145" y1="132.5" x2="120" y2="132.5"/>
<line class="st0" x1="12.5" y1="120" x2="12.5" y2="145"/>
<line class="st0" x1="25" y1="132.5" x2="0" y2="132.5"/>
<rect x="199" y="37" class="st1" width="35" height="11"/>
<rect x="211" y="55" class="st1" width="35" height="11"/>
<rect x="206" y="19" class="st1" width="35" height="11"/>
<line class="st2" x1="223" y1="30.6" x2="223" y2="36.9"/>
<line class="st2" x1="223" y1="66.1" x2="223" y2="71.8"/>
<line class="st2" x1="223" y1="48.1" x2="223" y2="54.4"/>
<rect x="139" y="97" class="st1" width="35" height="11"/>
<rect x="151" y="79" class="st1" width="35" height="11"/>
<rect x="146" y="115" class="st1" width="35" height="11"/>
<line class="st2" x1="163" y1="114.4" x2="163" y2="108.1"/>
<line class="st2" x1="163" y1="131.9" x2="163" y2="126.2"/>
<line class="st2" x1="163" y1="96.9" x2="163" y2="90.6"/>
<rect x="145" y="37" class="st1" width="35" height="11"/>
<rect x="151" y="55" class="st1" width="35" height="11"/>
<rect x="139" y="19" class="st1" width="35" height="11"/>
<line class="st2" x1="163" y1="30.6" x2="163" y2="36.9"/>
<line class="st2" x1="163" y1="66.1" x2="163" y2="71.8"/>
<line class="st2" x1="163" y1="48.1" x2="163" y2="54.4"/>
<rect x="205" y="97" class="st1" width="35" height="11"/>
<rect x="211" y="115" class="st1" width="35" height="11"/>
<rect x="199" y="79" class="st1" width="35" height="11"/>
<line class="st2" x1="223" y1="90.6" x2="223" y2="96.9"/>
<line class="st2" x1="223" y1="126.1" x2="223" y2="131.8"/>
<line class="st2" x1="223" y1="108.1" x2="223" y2="114.4"/>
<rect x="265" y="37" class="st1" width="35" height="11"/>
<rect x="259" y="55" class="st1" width="35" height="11"/>
<rect x="271" y="19" class="st1" width="35" height="11"/>
<line class="st2" x1="282" y1="30.6" x2="282" y2="36.9"/>
<line class="st2" x1="282" y1="66.1" x2="282" y2="71.8"/>
<line class="st2" x1="282" y1="48.1" x2="282" y2="54.4"/>
<rect x="85" y="97" class="st1" width="35" height="11"/>
<rect x="79" y="115" class="st1" width="35" height="11"/>
<rect x="91" y="79" class="st1" width="35" height="11"/>
<line class="st2" x1="102" y1="90.6" x2="102" y2="96.9"/>
<line class="st2" x1="102" y1="126.1" x2="102" y2="131.8"/>
<line class="st2" x1="102" y1="108.1" x2="102" y2="114.4"/>
<rect x="91" y="37" class="st1" width="35" height="11"/>
<rect x="79" y="19" class="st1" width="35" height="11"/>
<rect x="84" y="55" class="st1" width="35" height="11"/>
<line class="st2" x1="102" y1="54.4" x2="102" y2="48.1"/>
<line class="st2" x1="102" y1="71.9" x2="102" y2="66.2"/>
<line class="st2" x1="102" y1="36.9" x2="102" y2="30.6"/>
<rect x="271" y="97" class="st1" width="35" height="11"/>
<rect x="259" y="115" class="st1" width="35" height="11"/>
<rect x="264" y="79" class="st1" width="35" height="11"/>
<line class="st2" x1="282" y1="90.6" x2="282" y2="96.9"/>
<line class="st2" x1="282" y1="126.1" x2="282" y2="131.8"/>
<line class="st2" x1="282" y1="108.1" x2="282" y2="114.4"/>
<path class="anim st3" d="M73,73h59V13H73V73z"/>
<path class="anim st3" d="M73,73v59h59V73"/>
<path class="anim st3" d="M133,132h59V73"/>
<path class="anim st3" d="M193,132h59V73"/>
<path class="anim st3" d="M253,132h59V73"/>
<path class="anim st3" d="M133,73h59V13h-59"/>
<path class="anim st3" d="M193,73h59V13h-59"/>
<path class="anim st3" d="M253,73h59V13h-59"/>
</svg>
