<svg width="488" height="315" viewBox="0 0 488 315" fill="none" xmlns="http://www.w3.org/2000/svg">
<path d="M133.002 164.137H103.569V193.57H133.002V164.137Z" fill="white" stroke="#1A1B1F" stroke-miterlimit="10"/>
<path d="M233.516 164.137H204.083V193.57H233.516V164.137Z" fill="white" stroke="#1A1B1F" stroke-miterlimit="10"/>
<path d="M243.997 39.427L223.184 60.2393L243.997 81.0516L264.809 60.2393L243.997 39.427Z" fill="#1A1B1F" stroke="#1A1B1F" stroke-miterlimit="10"/>
<path d="M183.256 104.976H153.823V134.409H183.256V104.976Z" fill="white" stroke="#1A1B1F" stroke-miterlimit="10"/>
<path d="M334.177 104.976H304.744V134.409H334.177V104.976Z" fill="#EFFFFD" stroke="#1A1B1F" stroke-width="2" stroke-miterlimit="10"/>
<path d="M114.724 184.375V183.268H117.591V173.973H114.724V172.866H121.853V173.973H118.98V183.268H121.853V184.375H114.724Z" fill="#1A1B1F"/>
<path d="M172.048 115.519L171.071 117.45L168.322 122.442L165.584 117.432L164.613 115.519H164.201V125.197H162.847V113.706H164.99L168.286 119.905H168.357L171.671 113.706H173.814V125.214H172.478V115.519H172.048Z" fill="#1A1B1F"/>
<path d="M319.096 119.574L317.447 121.517V125.214H316.064V113.705H317.447V119.704H317.494L319.013 117.796L322.41 113.676H324.076L320.037 118.52L324.187 125.184H322.586L319.096 119.574Z" fill="#1A1B1F"/>
<path d="M221.766 172.866V181.39C221.776 181.979 221.628 182.561 221.337 183.074C221.06 183.549 220.651 183.933 220.159 184.18C219.609 184.446 219.004 184.58 218.393 184.569C217.614 184.599 216.848 184.358 216.227 183.886C215.632 183.402 215.231 182.721 215.097 181.967L216.415 181.684C216.506 182.147 216.734 182.571 217.069 182.903C217.481 183.21 217.986 183.367 218.5 183.348C219.014 183.329 219.506 183.134 219.894 182.797C220.269 182.331 220.452 181.739 220.407 181.143V174.079H216.251V172.902L221.766 172.866Z" fill="#1A1B1F"/>
<path d="M107.984 224.18H78.551V253.613H107.984V224.18Z" fill="white" stroke="#1A1B1F" stroke-miterlimit="10"/>
<path d="M158.02 224.18H128.587V253.613H158.02V224.18Z" fill="white" stroke="#1A1B1F" stroke-miterlimit="10"/>
<path d="M208.351 224.18H178.918V253.613H208.351V224.18Z" fill="white" stroke="#1A1B1F" stroke-miterlimit="10"/>
<path d="M258.681 224.18H229.248V253.613H258.681V224.18Z" fill="white" stroke="#1A1B1F" stroke-miterlimit="10"/>
<path d="M309.012 224.18H279.579V253.613H309.012V224.18Z" fill="#EFFFFD" stroke="#1A1B1F" stroke-width="2" stroke-miterlimit="10"/>
<path d="M359.342 224.18H329.909V253.613H359.342V224.18Z" fill="#EFFFFD" stroke="#1A1B1F" stroke-width="2" stroke-miterlimit="10"/>
<path d="M96.2521 244.418L95.2749 241.134H91.2426L90.2713 244.418H88.8408L92.3728 232.91H94.1859L97.7178 244.418H96.2521ZM93.3088 234.411H93.1616L91.5428 239.962H94.9217L93.3088 234.411Z" fill="#1A1B1F"/>
<path d="M139.807 232.91H143.716C144.136 232.887 144.556 232.947 144.953 233.086C145.35 233.226 145.716 233.442 146.029 233.723C146.315 234.001 146.538 234.338 146.684 234.709C146.83 235.08 146.896 235.478 146.877 235.877C146.904 236.449 146.736 237.014 146.4 237.478C146.06 237.897 145.6 238.201 145.081 238.349V238.408C145.707 238.522 146.279 238.836 146.712 239.303C147.129 239.81 147.339 240.455 147.301 241.11C147.308 241.694 147.17 242.27 146.9 242.788C146.642 243.273 146.257 243.68 145.788 243.965C145.313 244.26 144.763 244.413 144.204 244.407H139.807V232.91ZM143.569 237.908C144.058 237.938 144.543 237.796 144.94 237.508C145.108 237.363 145.24 237.182 145.325 236.977C145.41 236.773 145.445 236.551 145.429 236.33V235.683C145.442 235.462 145.405 235.242 145.32 235.038C145.236 234.834 145.106 234.652 144.94 234.505C144.543 234.217 144.058 234.075 143.569 234.105H141.214V237.896L143.569 237.908ZM143.798 243.206C144.337 243.239 144.87 243.083 145.305 242.764C145.489 242.602 145.633 242.4 145.725 242.173C145.818 241.947 145.858 241.702 145.841 241.458V240.786C145.857 240.542 145.817 240.298 145.724 240.071C145.631 239.845 145.488 239.642 145.305 239.48C144.87 239.161 144.337 239.005 143.798 239.038H141.19V243.206H143.798Z" fill="#1A1B1F"/>
<path d="M190.891 243.117C190.192 242.105 189.843 240.629 189.843 238.69C189.843 236.76 190.19 235.282 190.891 234.27C191.236 233.768 191.704 233.365 192.251 233.097C192.797 232.83 193.404 232.709 194.011 232.745C194.815 232.694 195.61 232.936 196.248 233.428C196.816 233.934 197.263 234.562 197.555 235.264L196.377 235.812C196.188 235.29 195.887 234.816 195.494 234.423C195.08 234.082 194.552 233.912 194.017 233.946C193.621 233.925 193.227 234.007 192.873 234.184C192.519 234.362 192.217 234.629 191.998 234.958C191.499 235.803 191.262 236.776 191.315 237.755V239.585C191.262 240.564 191.499 241.537 191.998 242.381C192.218 242.71 192.52 242.976 192.874 243.153C193.228 243.331 193.621 243.413 194.017 243.394C194.552 243.428 195.08 243.258 195.494 242.917C195.887 242.524 196.188 242.05 196.377 241.528L197.555 242.075C197.263 242.778 196.816 243.406 196.248 243.912C195.61 244.403 194.815 244.646 194.011 244.595C193.408 244.636 192.804 244.522 192.258 244.263C191.712 244.004 191.241 243.61 190.891 243.117Z" fill="#1A1B1F"/>
<path d="M240.586 232.909H243.8C244.403 232.869 245.006 232.981 245.555 233.235C246.103 233.489 246.578 233.877 246.937 234.363C247.638 235.329 247.985 236.765 247.985 238.661C247.985 240.556 247.638 241.998 246.937 242.964C246.578 243.45 246.103 243.838 245.555 244.092C245.006 244.346 244.403 244.458 243.8 244.418H240.586V232.909ZM243.735 243.211C244.131 243.233 244.527 243.158 244.887 242.991C245.247 242.825 245.561 242.573 245.801 242.257C246.326 241.458 246.578 240.51 246.52 239.555V237.789C246.578 236.835 246.326 235.887 245.801 235.087C245.561 234.772 245.247 234.519 244.887 234.353C244.527 234.187 244.131 234.112 243.735 234.134H241.969V243.229L243.735 243.211Z" fill="#1A1B1F"/>
<path d="M290.834 244.418V232.91H297.898V234.087H292.194V237.961H297.698V239.138H292.194V243.159H297.898V244.336L290.834 244.418Z" fill="#1A1B1F"/>
<path d="M341.164 244.418V232.91H348.417V234.087H342.53V237.961H347.899V239.138H342.524V244.365L341.164 244.418Z" fill="#1A1B1F"/>
<path d="M107.984 297.762C107.984 289.635 101.395 283.046 93.2675 283.046C85.1398 283.046 78.551 289.635 78.551 297.762C78.551 305.89 85.1398 312.479 93.2675 312.479C101.395 312.479 107.984 305.89 107.984 297.762Z" fill="white" stroke="#1A1B1F" stroke-miterlimit="10"/>
<path d="M158.02 297.762C158.02 289.635 151.431 283.046 143.304 283.046C135.176 283.046 128.587 289.635 128.587 297.762C128.587 305.89 135.176 312.479 143.304 312.479C151.431 312.479 158.02 305.89 158.02 297.762Z" fill="white" stroke="#1A1B1F" stroke-miterlimit="10"/>
<path d="M208.351 297.762C208.351 289.635 201.762 283.046 193.634 283.046C185.507 283.046 178.918 289.635 178.918 297.762C178.918 305.89 185.507 312.479 193.634 312.479C201.762 312.479 208.351 305.89 208.351 297.762Z" fill="white" stroke="#1A1B1F" stroke-miterlimit="10"/>
<path d="M258.681 297.762C258.681 289.635 252.092 283.046 243.965 283.046C235.837 283.046 229.248 289.635 229.248 297.762C229.248 305.89 235.837 312.479 243.965 312.479C252.092 312.479 258.681 305.89 258.681 297.762Z" fill="white" stroke="#1A1B1F" stroke-miterlimit="10"/>
<path d="M309.012 297.762C309.012 289.635 302.423 283.046 294.295 283.046C286.168 283.046 279.579 289.635 279.579 297.762C279.579 305.89 286.168 312.479 294.295 312.479C302.423 312.479 309.012 305.89 309.012 297.762Z" fill="#EFFFFD" stroke="#1A1B1F" stroke-width="2" stroke-miterlimit="10"/>
<path d="M359.342 297.762C359.342 289.635 352.753 283.046 344.626 283.046C336.498 283.046 329.909 289.635 329.909 297.762C329.909 305.89 336.498 312.479 344.626 312.479C352.753 312.479 359.342 305.89 359.342 297.762Z" fill="#EFFFFD" stroke="#1A1B1F" stroke-width="2" stroke-miterlimit="10"/>
<path d="M85.7856 301.983C85.1228 301.034 84.7675 299.903 84.7675 298.745C84.7675 297.588 85.1228 296.457 85.7856 295.508C86.3928 294.874 87.1953 294.463 88.0643 294.34C88.9332 294.217 89.8183 294.39 90.5773 294.831C91.1045 295.179 91.5147 295.677 91.7546 296.261L90.7009 296.85C90.5648 296.431 90.291 296.07 89.9238 295.826C89.5312 295.574 89.0715 295.447 88.6052 295.461C88.2765 295.446 87.9484 295.502 87.6435 295.626C87.3387 295.75 87.0643 295.939 86.8393 296.179C86.3953 296.699 86.1659 297.368 86.1976 298.051V299.499C86.1659 300.182 86.3953 300.851 86.8393 301.371C87.07 301.617 87.3521 301.809 87.6655 301.933C87.9789 302.057 88.3159 302.11 88.6523 302.089C89.1437 302.114 89.6306 301.984 90.0444 301.718C90.4583 301.452 90.7785 301.063 90.9599 300.606L91.9017 301.247C91.6494 301.841 91.2224 302.344 90.6773 302.69C90.0641 303.065 89.3535 303.252 88.6347 303.225C88.0965 303.249 87.56 303.15 87.0661 302.934C86.5723 302.719 86.1343 302.394 85.7856 301.983Z" fill="#1A1B1F"/>
<path d="M94.1858 297.233C94.1858 293.269 95.526 291.287 98.2063 291.287C100.887 291.287 102.227 293.269 102.227 297.233C102.227 301.2 100.887 303.184 98.2063 303.184C95.526 303.184 94.1858 301.2 94.1858 297.233ZM100.167 300.982C100.63 300.122 100.845 299.15 100.791 298.174V296.297C100.847 295.319 100.631 294.345 100.167 293.483C99.9408 293.175 99.6456 292.925 99.3051 292.752C98.9645 292.58 98.5881 292.49 98.2063 292.49C97.8246 292.49 97.4482 292.58 97.1076 292.752C96.7671 292.925 96.4719 293.175 96.2461 293.483C95.78 294.344 95.562 295.318 95.6162 296.297V298.174C95.5612 299.151 95.7794 300.123 96.2461 300.982C96.4704 301.292 96.765 301.545 97.1058 301.719C97.4465 301.893 97.8237 301.984 98.2063 301.984C98.589 301.984 98.9662 301.893 99.3069 301.719C99.6477 301.545 99.9423 301.292 100.167 300.982ZM97.1821 297.415V297.056C97.1821 296.526 97.5235 296.261 98.2063 296.261C98.8892 296.261 99.2247 296.526 99.2247 297.056V297.415C99.2247 297.945 98.8892 298.21 98.2063 298.21C97.5235 298.21 97.188 297.945 97.188 297.415H97.1821Z" fill="#1A1B1F"/>
<path d="M135.822 302.277C135.159 301.328 134.804 300.197 134.804 299.039C134.804 297.881 135.159 296.751 135.822 295.802C136.429 295.168 137.232 294.757 138.101 294.634C138.969 294.511 139.855 294.684 140.614 295.125C141.141 295.473 141.551 295.971 141.791 296.555L140.737 297.144C140.601 296.725 140.327 296.364 139.96 296.12C139.567 295.868 139.108 295.741 138.641 295.755C138.313 295.74 137.985 295.796 137.68 295.92C137.375 296.044 137.101 296.233 136.876 296.473C136.432 296.993 136.202 297.662 136.234 298.345V299.793C136.202 300.476 136.432 301.145 136.876 301.665C137.106 301.911 137.388 302.102 137.702 302.227C138.015 302.351 138.352 302.404 138.689 302.383C139.18 302.408 139.667 302.278 140.081 302.012C140.495 301.746 140.815 301.357 140.996 300.9L141.938 301.541C141.686 302.135 141.259 302.638 140.714 302.983C140.1 303.359 139.39 303.546 138.671 303.519C138.133 303.543 137.596 303.444 137.102 303.228C136.609 303.013 136.171 302.688 135.822 302.277Z" fill="#1A1B1F"/>
<path d="M144.705 303.284V302.077H148.001V292.8H147.883L144.981 295.507L144.175 294.636L147.224 291.781H149.385V302.083H152.416V303.29L144.705 303.284Z" fill="#1A1B1F"/>
<path d="M186.152 302.277C185.49 301.328 185.134 300.197 185.134 299.039C185.134 297.881 185.49 296.751 186.152 295.802C186.759 295.168 187.562 294.757 188.431 294.634C189.3 294.511 190.185 294.684 190.944 295.125C191.471 295.473 191.881 295.971 192.121 296.555L191.068 297.144C190.931 296.725 190.658 296.364 190.291 296.12C189.898 295.868 189.438 295.741 188.972 295.755C188.643 295.74 188.315 295.796 188.01 295.92C187.705 296.044 187.431 296.233 187.206 296.473C186.762 296.993 186.533 297.662 186.564 298.345V299.793C186.533 300.476 186.762 301.145 187.206 301.665C187.437 301.911 187.719 302.102 188.032 302.227C188.346 302.351 188.683 302.404 189.019 302.383C189.51 302.408 189.997 302.278 190.411 302.012C190.825 301.746 191.145 301.357 191.327 300.9L192.268 301.541C192.016 302.135 191.589 302.638 191.044 302.983C190.431 303.359 189.72 303.546 189.001 303.519C188.463 303.543 187.927 303.444 187.433 303.228C186.939 303.013 186.501 302.688 186.152 302.277Z" fill="#1A1B1F"/>
<path d="M202.499 303.284H194.847V301.865L198.685 298.404C199.235 297.933 199.714 297.386 200.109 296.779C200.431 296.298 200.607 295.733 200.616 295.154V294.96C200.634 294.669 200.594 294.377 200.499 294.102C200.404 293.826 200.256 293.571 200.062 293.353C199.849 293.149 199.597 292.992 199.32 292.891C199.044 292.79 198.749 292.746 198.455 292.764C197.881 292.735 197.315 292.917 196.866 293.277C196.441 293.667 196.135 294.169 195.983 294.725L194.747 294.265C194.989 293.513 195.436 292.843 196.036 292.329C196.733 291.786 197.603 291.514 198.485 291.564C198.962 291.534 199.44 291.6 199.892 291.756C200.343 291.913 200.76 292.157 201.116 292.476C201.433 292.79 201.681 293.167 201.845 293.583C202.008 293.998 202.082 294.443 202.064 294.889C202.069 295.685 201.842 296.464 201.41 297.132C200.877 297.93 200.23 298.645 199.491 299.257L196.277 302.059H202.499V303.284Z" fill="#1A1B1F"/>
<path d="M236.483 302.277C235.82 301.328 235.465 300.197 235.465 299.039C235.465 297.881 235.82 296.751 236.483 295.802C237.09 295.168 237.893 294.757 238.762 294.634C239.631 294.511 240.516 294.684 241.275 295.125C241.802 295.473 242.212 295.971 242.452 296.555L241.398 297.144C241.262 296.725 240.988 296.364 240.621 296.12C240.228 295.868 239.769 295.741 239.303 295.755C238.974 295.74 238.646 295.796 238.341 295.92C238.036 296.044 237.762 296.233 237.537 296.473C237.093 296.993 236.863 297.662 236.895 298.345V299.793C236.863 300.476 237.093 301.145 237.537 301.665C237.767 301.911 238.049 302.102 238.363 302.227C238.676 302.351 239.013 302.404 239.35 302.383C239.841 302.408 240.328 302.278 240.742 302.012C241.156 301.746 241.476 301.357 241.657 300.9L242.599 301.541C242.347 302.135 241.92 302.638 241.375 302.983C240.761 303.359 240.051 303.546 239.332 303.519C238.794 303.543 238.257 303.444 237.763 303.228C237.27 303.013 236.832 302.688 236.483 302.277Z" fill="#1A1B1F"/>
<path d="M248.415 296.685C249.048 296.723 249.673 296.535 250.181 296.156C250.377 295.984 250.532 295.771 250.634 295.531C250.736 295.292 250.782 295.032 250.77 294.772V294.66C250.782 294.402 250.736 294.144 250.634 293.907C250.532 293.669 250.377 293.458 250.181 293.289C249.739 292.953 249.193 292.784 248.639 292.812C248.149 292.796 247.665 292.914 247.238 293.153C246.829 293.428 246.499 293.803 246.278 294.242L245.236 293.454C245.597 292.856 246.112 292.366 246.727 292.035C247.342 291.705 248.035 291.546 248.733 291.576C249.348 291.568 249.958 291.682 250.528 291.911C251.037 292.116 251.478 292.461 251.8 292.906C252.112 293.368 252.272 293.915 252.259 294.472C252.287 295.118 252.066 295.75 251.641 296.238C251.21 296.713 250.642 297.042 250.016 297.18V297.245C250.69 297.363 251.308 297.693 251.782 298.186C252.268 298.72 252.522 299.425 252.489 300.147C252.504 300.771 252.331 301.386 251.994 301.913C251.651 302.428 251.169 302.836 250.605 303.09C249.947 303.38 249.234 303.522 248.515 303.508C247.728 303.542 246.948 303.356 246.26 302.972C245.663 302.605 245.147 302.12 244.742 301.548L245.784 300.759C246.068 301.226 246.45 301.628 246.902 301.936C247.391 302.218 247.951 302.353 248.515 302.325C249.188 302.363 249.852 302.154 250.381 301.736C250.603 301.537 250.777 301.291 250.891 301.016C251.006 300.741 251.056 300.444 251.04 300.147V300.017C251.057 299.722 251.009 299.427 250.898 299.153C250.787 298.879 250.616 298.634 250.399 298.434C249.854 298.022 249.178 297.824 248.497 297.874H247.132V296.697L248.415 296.685Z" fill="#1A1B1F"/>
<path d="M286.813 302.277C286.151 301.328 285.795 300.197 285.795 299.039C285.795 297.881 286.151 296.751 286.813 295.802C287.42 295.168 288.223 294.757 289.092 294.634C289.961 294.511 290.846 294.684 291.605 295.125C292.132 295.473 292.542 295.971 292.782 296.555L291.729 297.144C291.593 296.725 291.319 296.364 290.952 296.12C290.559 295.868 290.099 295.741 289.633 295.755C289.304 295.74 288.976 295.796 288.671 295.92C288.366 296.044 288.092 296.233 287.867 296.473C287.423 296.993 287.194 297.662 287.225 298.345V299.793C287.194 300.476 287.423 301.145 287.867 301.665C288.098 301.911 288.38 302.102 288.693 302.227C289.007 302.351 289.344 302.404 289.68 302.383C290.171 302.408 290.658 302.278 291.072 302.012C291.486 301.746 291.806 301.357 291.988 300.9L292.929 301.541C292.677 302.135 292.25 302.638 291.705 302.983C291.092 303.359 290.381 303.546 289.662 303.519C289.124 303.543 288.588 303.444 288.094 303.228C287.6 303.013 287.162 302.688 286.813 302.277Z" fill="#1A1B1F"/>
<path d="M300.523 303.284V301.023H294.854V299.805L299.834 291.775H301.842V299.887H303.555V301.023H301.842V303.284H300.523ZM296.096 299.887H300.529V292.823H300.464L296.096 299.887Z" fill="#1A1B1F"/>
<path d="M337.144 302.277C336.481 301.328 336.126 300.197 336.126 299.039C336.126 297.881 336.481 296.751 337.144 295.802C337.751 295.168 338.554 294.757 339.423 294.634C340.292 294.511 341.177 294.684 341.936 295.125C342.463 295.473 342.873 295.971 343.113 296.555L342.059 297.144C341.923 296.725 341.649 296.364 341.282 296.12C340.889 295.868 340.43 295.741 339.964 295.755C339.635 295.74 339.307 295.796 339.002 295.92C338.697 296.044 338.423 296.233 338.198 296.473C337.754 296.993 337.524 297.662 337.556 298.345V299.793C337.524 300.476 337.754 301.145 338.198 301.665C338.428 301.911 338.71 302.102 339.024 302.227C339.337 302.351 339.674 302.404 340.011 302.383C340.502 302.408 340.989 302.278 341.403 302.012C341.817 301.746 342.137 301.357 342.318 300.9L343.26 301.541C343.008 302.135 342.581 302.638 342.036 302.983C341.422 303.359 340.712 303.546 339.993 303.519C339.455 303.543 338.918 303.444 338.424 303.228C337.931 303.013 337.493 302.688 337.144 302.277Z" fill="#1A1B1F"/>
<path d="M352.885 292.982H347.74L347.41 297.38H347.528C347.792 297.001 348.133 296.682 348.529 296.444C348.959 296.216 349.443 296.106 349.93 296.126C350.556 296.117 351.175 296.265 351.731 296.555C352.252 296.839 352.681 297.266 352.967 297.786C353.274 298.367 353.426 299.018 353.409 299.675C353.423 300.366 353.261 301.049 352.938 301.659C352.629 302.233 352.155 302.7 351.578 303.001C350.932 303.332 350.214 303.496 349.488 303.478C348.73 303.511 347.978 303.325 347.322 302.942C346.735 302.57 346.227 302.086 345.827 301.518L346.868 300.729C347.158 301.188 347.531 301.587 347.969 301.906C348.435 302.188 348.974 302.323 349.517 302.295C349.847 302.315 350.178 302.269 350.489 302.159C350.801 302.048 351.087 301.877 351.331 301.653C351.551 301.417 351.722 301.139 351.833 300.836C351.945 300.533 351.994 300.21 351.978 299.887V299.758C351.994 299.435 351.945 299.111 351.833 298.808C351.72 298.504 351.548 298.227 351.325 297.992C351.082 297.755 350.795 297.569 350.479 297.446C350.164 297.323 349.827 297.264 349.488 297.274C349.07 297.257 348.654 297.342 348.275 297.521C347.935 297.708 347.631 297.953 347.375 298.245L346.197 298.086L346.609 291.752H352.873L352.885 292.982Z" fill="#1A1B1F"/>
<path d="M93.2676 253.613V283.046" stroke="#1A1B1F" stroke-miterlimit="10" stroke-dasharray="6 3"/>
<path d="M143.304 253.613V283.046" stroke="#1A1B1F" stroke-miterlimit="10" stroke-dasharray="6 3"/>
<path d="M193.634 253.613V283.046" stroke="#1A1B1F" stroke-miterlimit="10" stroke-dasharray="6 3"/>
<path d="M243.965 253.613V283.046" stroke="#1A1B1F" stroke-miterlimit="10" stroke-dasharray="6 3"/>
<path d="M294.295 253.613V283.046" stroke="#1A1B1F" stroke-miterlimit="10"/>
<path d="M344.626 253.613V283.046" stroke="#1A1B1F" stroke-miterlimit="10"/>
<path d="M103.569 193.569L93.2676 224.18" stroke="#1A1B1F" stroke-miterlimit="10" stroke-dasharray="6 3"/>
<path d="M133.002 193.569L143.304 224.18" stroke="#1A1B1F" stroke-miterlimit="10" stroke-dasharray="6 3"/>
<path d="M204.083 193.569L193.781 224.18" stroke="#1A1B1F" stroke-miterlimit="10" stroke-dasharray="6 3"/>
<path d="M233.516 193.569L243.818 224.18" stroke="#1A1B1F" stroke-miterlimit="10" stroke-dasharray="6 3"/>
<path d="M304.744 134.409L294.295 224.18" stroke="#1A1B1F" stroke-miterlimit="10"/>
<path d="M344.626 224.18L334.177 134.409" stroke="#1A1B1F" stroke-miterlimit="10"/>
<path d="M118.286 164.136L119.64 163.006" stroke="#1A1B1F" stroke-miterlimit="10"/>
<path d="M120.952 161.905L151.816 136.092" stroke="#1A1B1F" stroke-miterlimit="10" stroke-dasharray="5.82 2.91"/>
<path d="M152.469 135.545L153.823 134.409" stroke="#1A1B1F" stroke-miterlimit="10"/>
<path d="M218.799 164.136L217.445 163.006" stroke="#1A1B1F" stroke-miterlimit="10"/>
<path d="M216.127 161.905L185.269 136.092" stroke="#1A1B1F" stroke-miterlimit="10" stroke-dasharray="5.82 2.91"/>
<path d="M184.61 135.545L183.256 134.409" stroke="#1A1B1F" stroke-miterlimit="10"/>
<path d="M168.54 104.976L223.185 60.2373" stroke="#1A1B1F" stroke-miterlimit="10"/>
<path d="M319.608 104.976L264.815 60.2373" stroke="#1A1B1F" stroke-miterlimit="10"/>
<path d="M113.647 112.628C113.647 109.795 114.604 108.378 116.52 108.378C118.435 108.378 119.392 109.795 119.392 112.628C119.392 115.465 118.435 116.882 116.52 116.878C114.604 116.874 113.647 115.458 113.647 112.628ZM117.903 115.306C118.231 114.691 118.384 113.996 118.344 113.299V111.957C118.383 111.262 118.231 110.57 117.903 109.956C117.747 109.733 117.54 109.552 117.299 109.427C117.058 109.301 116.791 109.236 116.52 109.236C116.248 109.236 115.981 109.301 115.74 109.427C115.499 109.552 115.292 109.733 115.136 109.956C114.808 110.57 114.656 111.262 114.695 111.957V113.299C114.655 113.996 114.808 114.691 115.136 115.306C115.294 115.526 115.501 115.706 115.742 115.829C115.982 115.953 116.249 116.017 116.52 116.017C116.79 116.017 117.057 115.953 117.297 115.829C117.538 115.706 117.745 115.526 117.903 115.306Z" fill="#4A4B4F"/>
<path d="M120.876 116.737V108.496H121.853V115.854H125.75V116.714L120.876 116.737Z" fill="#4A4B4F"/>
<path d="M127.057 108.52H129.352C129.783 108.493 130.213 108.573 130.605 108.754C130.996 108.935 131.337 109.21 131.595 109.556C132.086 110.506 132.343 111.559 132.343 112.629C132.343 113.698 132.086 114.752 131.595 115.701C131.338 116.048 130.998 116.325 130.606 116.506C130.214 116.687 129.783 116.766 129.352 116.738H127.057V108.52ZM129.305 115.878C129.589 115.895 129.872 115.841 130.13 115.722C130.387 115.603 130.612 115.422 130.783 115.195C131.157 114.626 131.337 113.95 131.295 113.27V111.993C131.336 111.311 131.157 110.634 130.783 110.062C130.609 109.838 130.385 109.659 130.127 109.54C129.87 109.421 129.588 109.366 129.305 109.379H128.045V115.855L129.305 115.878Z" fill="#4A4B4F"/>
<path d="M33.2357 122.766L32.5411 124.143L30.575 127.74L28.6206 124.161L27.926 122.795H27.6317V129.706H26.6663V121.465H28.1968L30.5514 125.897H30.6103L32.9649 121.465H34.4954V129.706H33.5536V122.766H33.2357Z" fill="#4A4B4F"/>
<path d="M37.4152 129.441C36.9779 129.18 36.6308 128.792 36.4204 128.328C36.1894 127.8 36.0702 127.23 36.0702 126.653C36.0702 126.077 36.1894 125.507 36.4204 124.979C36.6361 124.52 36.9769 124.133 37.4035 123.86C37.8412 123.594 38.3453 123.457 38.8575 123.466C39.3465 123.453 39.8288 123.582 40.2464 123.837C40.6641 124.092 40.9994 124.461 41.2121 124.902C41.4415 125.379 41.5564 125.903 41.5476 126.433V126.88H37.0856V127.151C37.0745 127.397 37.1152 127.643 37.205 127.873C37.2948 128.103 37.4318 128.311 37.607 128.484C37.7823 128.658 37.9919 128.793 38.2225 128.881C38.4531 128.968 38.6995 129.007 38.9458 128.993C39.3135 129.002 39.6764 128.909 39.9936 128.722C40.2948 128.533 40.5358 128.261 40.6882 127.939L41.3828 128.405C41.1914 128.834 40.8675 129.191 40.4586 129.423C39.9956 129.676 39.4764 129.808 38.9487 129.808C38.421 129.808 37.9018 129.676 37.4388 129.423L37.4152 129.441ZM37.945 124.49C37.6737 124.65 37.4502 124.88 37.2975 125.155C37.1386 125.443 37.0574 125.768 37.062 126.097V126.179H40.5469V126.05C40.5671 125.572 40.4003 125.106 40.0819 124.749C39.9256 124.584 39.7363 124.454 39.5262 124.368C39.3162 124.282 39.0903 124.241 38.8633 124.249C38.5412 124.246 38.2243 124.329 37.945 124.49Z" fill="#4A4B4F"/>
<path d="M42.6661 128.917H44.4321V124.437H42.6661V123.619H45.3857V125.144H45.4446C45.5442 124.685 45.8066 124.278 46.1832 123.998C46.5598 123.717 47.0251 123.583 47.4932 123.619H48.3408V124.555H47.1988C46.9544 124.539 46.7094 124.575 46.4793 124.659C46.2493 124.743 46.0392 124.874 45.8626 125.044C45.7037 125.204 45.5794 125.396 45.4974 125.606C45.4154 125.817 45.3774 126.042 45.3857 126.268V128.917H47.7404V129.712H42.6661V128.917Z" fill="#4A4B4F"/>
<path d="M49.4475 120.976H50.3894V126.474H50.4365L51.4961 125.473L53.5681 123.619H54.7455L52.226 125.973L55.0398 129.664H53.8625L51.5078 126.515L50.46 127.463V129.664H49.4475V120.976Z" fill="#4A4B4F"/>
<path d="M55.652 128.917H57.7712V121.782H55.652V120.976H58.713V128.917H60.8322V129.711H55.652V128.917Z" fill="#4A4B4F"/>
<path d="M63.3164 129.441C62.8799 129.181 62.5329 128.795 62.3215 128.334C62.0906 127.806 61.9713 127.236 61.9713 126.659C61.9713 126.083 62.0906 125.513 62.3215 124.984C62.5372 124.526 62.878 124.139 63.3046 123.866C63.7423 123.6 64.2464 123.463 64.7586 123.472C65.2476 123.459 65.7299 123.588 66.1475 123.843C66.5652 124.097 66.9005 124.467 67.1132 124.908C67.3426 125.385 67.4575 125.909 67.4488 126.438V126.886H62.9867V127.151C62.9757 127.397 63.0163 127.643 63.1062 127.873C63.196 128.103 63.3329 128.311 63.5082 128.484C63.6834 128.658 63.8931 128.793 64.1236 128.881C64.3542 128.968 64.6006 129.007 64.8469 128.993C65.2146 129.002 65.5775 128.909 65.8947 128.722C66.196 128.533 66.4369 128.261 66.5893 127.939L67.2839 128.405C67.0925 128.834 66.7686 129.191 66.3597 129.423C65.8967 129.676 65.3775 129.808 64.8498 129.808C64.3222 129.808 63.803 129.676 63.3399 129.423L63.3164 129.441ZM63.8462 124.49C63.5749 124.65 63.3513 124.88 63.1986 125.155C63.0397 125.443 62.9586 125.768 62.9632 126.097V126.179H66.448V126.05C66.4682 125.572 66.3014 125.106 65.983 124.749C65.8268 124.584 65.6374 124.454 65.4274 124.368C65.2173 124.282 64.9914 124.241 64.7645 124.249C64.4424 124.246 64.1254 124.329 63.8462 124.49Z" fill="#4A4B4F"/>
<path d="M77.5621 127.669C77.5428 127.957 77.6039 128.244 77.7387 128.499C77.7975 128.585 77.8733 128.658 77.9613 128.714C78.0494 128.77 78.1479 128.807 78.2508 128.823C78.5833 128.879 78.9204 128.902 79.2574 128.894H79.9991V129.688H79.2692C78.7679 129.702 78.267 129.649 77.7799 129.529C77.4316 129.444 77.1263 129.234 76.9204 128.941C76.6971 128.556 76.5926 128.113 76.6202 127.669V124.432H74.5952V123.619H76.6202V121.471H77.5621V123.619H80.3288V124.414H77.5621V127.669Z" fill="#4A4B4F"/>
<path d="M81.5178 128.917H83.2838V124.437H81.5178V123.619H84.2374V125.144H84.2963C84.3959 124.685 84.6583 124.278 85.0348 123.998C85.4114 123.717 85.8768 123.583 86.3448 123.619H87.1925V124.555H86.0505C85.8061 124.539 85.561 124.575 85.331 124.659C85.101 124.743 84.8909 124.874 84.7143 125.044C84.5554 125.204 84.4311 125.396 84.3491 125.606C84.267 125.817 84.2291 126.042 84.2374 126.268V128.917H86.5921V129.712H81.5178V128.917Z" fill="#4A4B4F"/>
<path d="M89.2175 129.441C88.7811 129.182 88.434 128.796 88.2227 128.334C87.9795 127.811 87.8606 127.239 87.8754 126.663C87.8632 126.084 87.9841 125.51 88.2286 124.985C88.4423 124.526 88.7835 124.137 89.2116 123.867C89.6491 123.6 90.1534 123.463 90.6656 123.472C91.1632 123.464 91.6529 123.597 92.0784 123.855C92.4855 124.112 92.8136 124.476 93.0262 124.908C93.2555 125.386 93.3704 125.91 93.3617 126.439V126.886H88.8879V127.151C88.8768 127.398 88.9175 127.644 89.0073 127.873C89.0971 128.103 89.2341 128.311 89.4093 128.485C89.5846 128.659 89.7942 128.794 90.0248 128.881C90.2554 128.969 90.5017 129.007 90.748 128.994C91.1157 129.003 91.4787 128.909 91.7959 128.723C92.0971 128.533 92.3381 128.262 92.4905 127.94L93.1851 128.405C92.9916 128.833 92.6683 129.189 92.2609 129.423C91.7978 129.676 91.2786 129.809 90.751 129.809C90.2233 129.809 89.7041 129.676 89.2411 129.423L89.2175 129.441ZM89.7473 124.49C89.4744 124.648 89.2503 124.879 89.0998 125.156C88.9409 125.444 88.8597 125.768 88.8643 126.098V126.18H92.3492V126.05C92.3694 125.573 92.2026 125.106 91.8842 124.749C91.7279 124.585 91.5385 124.455 91.3285 124.369C91.1185 124.282 90.8926 124.242 90.6656 124.249C90.3434 124.246 90.0262 124.329 89.7473 124.49Z" fill="#4A4B4F"/>
<path d="M95.6929 129.441C95.2564 129.182 94.9094 128.796 94.698 128.334C94.4548 127.811 94.3359 127.239 94.3507 126.663C94.3386 126.084 94.4594 125.51 94.7039 124.985C94.9176 124.526 95.2589 124.137 95.687 123.867C96.1244 123.6 96.6287 123.463 97.141 123.472C97.6385 123.464 98.1282 123.597 98.5538 123.855C98.9609 124.112 99.2889 124.476 99.5015 124.908C99.7309 125.386 99.8458 125.91 99.837 126.439V126.886H95.3632V127.151C95.3522 127.398 95.3928 127.644 95.4827 127.873C95.5725 128.103 95.7094 128.311 95.8846 128.485C96.0599 128.659 96.2696 128.794 96.5001 128.881C96.7307 128.969 96.9771 129.007 97.2234 128.994C97.5911 129.003 97.954 128.909 98.2712 128.723C98.5725 128.533 98.8134 128.262 98.9658 127.94L99.6604 128.405C99.467 128.833 99.1436 129.189 98.7362 129.423C98.2732 129.676 97.754 129.809 97.2263 129.809C96.6987 129.809 96.1795 129.676 95.7164 129.423L95.6929 129.441ZM96.2227 124.49C95.9497 124.648 95.7256 124.879 95.5751 125.156C95.4162 125.444 95.3351 125.768 95.3397 126.098V126.18H98.8245V126.05C98.8448 125.573 98.6779 125.106 98.3595 124.749C98.2033 124.585 98.0139 124.455 97.8038 124.369C97.5938 124.282 97.3679 124.242 97.141 124.249C96.8188 124.246 96.5016 124.329 96.2227 124.49Z" fill="#4A4B4F"/>
<path d="M107.666 120.976H108.608V124.602H108.655C108.788 124.255 109.027 123.96 109.338 123.757C109.648 123.554 110.015 123.454 110.386 123.472C110.669 123.456 110.952 123.5 111.217 123.602C111.482 123.703 111.722 123.859 111.922 124.06C112.332 124.532 112.543 125.144 112.511 125.767V129.664H111.569V125.973C111.602 125.532 111.472 125.095 111.204 124.743C111.067 124.599 110.9 124.487 110.715 124.415C110.53 124.343 110.331 124.312 110.133 124.325C109.755 124.314 109.383 124.418 109.067 124.625C108.925 124.719 108.809 124.848 108.732 125C108.655 125.151 108.618 125.32 108.626 125.491V129.705H107.684L107.666 120.976Z" fill="#4A4B4F"/>
<path d="M118.815 129.687C118.678 129.699 118.54 129.682 118.41 129.637C118.28 129.593 118.16 129.522 118.058 129.429C117.957 129.336 117.875 129.223 117.819 129.098C117.763 128.972 117.733 128.836 117.732 128.698H117.673C117.536 129.061 117.282 129.368 116.952 129.573C116.623 129.777 116.235 129.867 115.849 129.829C115.299 129.857 114.757 129.681 114.33 129.334C114.137 129.168 113.984 128.961 113.882 128.727C113.78 128.494 113.732 128.241 113.741 127.986C113.741 126.809 114.612 126.22 116.355 126.22H117.65V125.631C117.661 125.448 117.633 125.263 117.569 125.091C117.504 124.918 117.403 124.762 117.273 124.631C116.97 124.389 116.589 124.267 116.202 124.289C115.875 124.273 115.549 124.348 115.262 124.506C114.976 124.664 114.738 124.899 114.577 125.184L113.941 124.713C114.13 124.345 114.426 124.041 114.789 123.842C115.24 123.598 115.748 123.476 116.261 123.489C116.876 123.457 117.481 123.652 117.962 124.036C118.172 124.224 118.338 124.456 118.447 124.715C118.556 124.975 118.605 125.256 118.592 125.537V128.481C118.591 128.537 118.601 128.593 118.622 128.645C118.643 128.697 118.674 128.744 118.714 128.784C118.753 128.824 118.8 128.856 118.852 128.878C118.904 128.899 118.959 128.91 119.016 128.91H119.439V129.729L118.815 129.687ZM117.202 128.722C117.342 128.639 117.459 128.522 117.541 128.382C117.624 128.242 117.669 128.084 117.673 127.921V126.921H116.378C115.295 126.921 114.754 127.227 114.754 127.839V128.086C114.747 128.223 114.774 128.358 114.832 128.482C114.891 128.605 114.979 128.712 115.089 128.793C115.363 128.972 115.687 129.059 116.013 129.04C116.433 129.056 116.847 128.946 117.202 128.722Z" fill="#4A4B4F"/>
<path d="M120.252 128.646L120.887 128.086C121.158 128.393 121.491 128.637 121.865 128.805C122.251 128.97 122.669 129.05 123.089 129.04C123.498 129.06 123.905 128.968 124.266 128.775C124.404 128.697 124.517 128.583 124.594 128.445C124.671 128.307 124.708 128.15 124.702 127.992C124.713 127.873 124.693 127.754 124.643 127.646C124.593 127.537 124.516 127.444 124.419 127.374C124.18 127.227 123.91 127.137 123.631 127.109L122.677 126.968C122.333 126.925 121.994 126.848 121.664 126.738C121.373 126.645 121.113 126.474 120.911 126.244C120.686 125.977 120.572 125.633 120.593 125.284C120.58 125.021 120.635 124.759 120.753 124.523C120.87 124.287 121.046 124.085 121.264 123.936C121.792 123.607 122.408 123.444 123.03 123.471C123.488 123.45 123.946 123.527 124.372 123.696C124.799 123.866 125.184 124.124 125.502 124.454L124.914 125.043C124.676 124.781 124.382 124.576 124.053 124.444C123.725 124.311 123.371 124.255 123.018 124.278C122.635 124.254 122.253 124.34 121.918 124.525C121.795 124.599 121.695 124.705 121.627 124.831C121.56 124.958 121.528 125.1 121.535 125.243C121.523 125.363 121.543 125.485 121.594 125.594C121.645 125.704 121.724 125.798 121.823 125.867C122.062 126.011 122.329 126.1 122.606 126.126L123.56 126.267C123.907 126.317 124.249 126.394 124.584 126.497C124.872 126.596 125.13 126.769 125.332 126.997C125.552 127.265 125.663 127.605 125.644 127.951C125.654 128.224 125.595 128.495 125.474 128.739C125.353 128.984 125.172 129.195 124.949 129.352C124.392 129.707 123.737 129.88 123.077 129.847C122.546 129.869 122.017 129.773 121.529 129.566C121.04 129.358 120.603 129.044 120.252 128.646Z" fill="#4A4B4F"/>
<path d="M127.092 120.976H128.034V124.602H128.081C128.209 124.252 128.447 123.953 128.759 123.75C129.071 123.546 129.44 123.449 129.812 123.472C130.095 123.456 130.378 123.5 130.643 123.602C130.907 123.703 131.148 123.859 131.348 124.06C131.755 124.533 131.966 125.144 131.937 125.767V129.664H130.995V125.973C131.028 125.532 130.898 125.095 130.63 124.743C130.493 124.599 130.326 124.487 130.14 124.415C129.955 124.343 129.757 124.312 129.558 124.325C129.181 124.314 128.809 124.418 128.493 124.625C128.351 124.719 128.235 124.848 128.158 125C128.08 125.151 128.044 125.32 128.051 125.491V129.705H127.11L127.092 120.976Z" fill="#4A4B4F"/>
<path d="M234.11 3.03713H234.028V10.0069H233.11V1.76562H234.511L237.313 8.65296H237.395V1.76562H238.29V10.0069H236.889L234.11 3.03713Z" fill="#4A4B4F"/>
<path d="M239.726 10.0069V1.76562H244.789V2.63684H240.715V5.40355H244.648V6.263H240.715V9.13566H244.789V10.0069H239.726Z" fill="#4A4B4F"/>
<path d="M245.436 1.76562H246.484L247.367 5.72143L248.05 8.82956L248.815 5.75675L249.875 1.76562H251.005L252.006 5.72143L252.771 8.78246H252.806L253.513 5.72143L254.443 1.76562H255.479L253.372 10.0069H252.277L251.205 5.88625L250.428 2.88408L249.628 5.88625L248.533 10.0069H247.438L245.436 1.76562Z" fill="#4A4B4F"/>
<path d="M198.061 16.0236L197.366 17.4011L195.4 20.9801L193.446 17.4011L192.751 16.0354H192.457V22.9581H191.491V14.7168H193.022L195.376 19.1435H195.435L197.79 14.7168H199.321V22.9581H198.379V16.0236H198.061Z" fill="#4A4B4F"/>
<path d="M202.24 22.6988C201.805 22.4382 201.459 22.0526 201.246 21.5921C201.002 21.0691 200.884 20.4969 200.898 19.9203C200.886 19.3414 201.007 18.7675 201.252 18.2426C201.42 17.9062 201.656 17.6082 201.945 17.367C202.234 17.1258 202.57 16.9466 202.931 16.8406C203.292 16.7346 203.671 16.704 204.044 16.7508C204.418 16.7975 204.778 16.9206 205.101 17.1124C205.503 17.3705 205.825 17.7353 206.031 18.1661C206.261 18.643 206.376 19.1672 206.367 19.6966V20.144H201.911V20.4266C201.899 20.6735 201.939 20.9201 202.028 21.1505C202.118 21.381 202.255 21.5901 202.43 21.7643C202.605 21.9385 202.815 22.074 203.046 22.162C203.277 22.2499 203.524 22.2884 203.771 22.275C204.139 22.2824 204.502 22.1866 204.819 21.9983C205.115 21.7987 205.347 21.5189 205.49 21.1918L206.184 21.6628C205.991 22.0908 205.668 22.4471 205.26 22.6811C204.8 22.9425 204.277 23.0747 203.747 23.0638C203.221 23.0835 202.7 22.9571 202.24 22.6988ZM202.77 17.7482C202.496 17.9046 202.272 18.1351 202.123 18.4133C201.963 18.7012 201.882 19.026 201.887 19.3552V19.4258H205.372V19.3081C205.39 18.8307 205.224 18.3647 204.907 18.0072C204.752 17.8412 204.563 17.7106 204.352 17.6243C204.142 17.5379 203.916 17.4979 203.689 17.5068C203.366 17.5019 203.049 17.5854 202.77 17.7482Z" fill="#4A4B4F"/>
<path d="M207.491 22.1454H209.257V17.6598H207.491V16.871H210.211V18.4015H210.27C210.368 17.9416 210.63 17.5331 211.007 17.2516C211.383 16.9702 211.849 16.8349 212.318 16.871H213.166V17.8128H212.024C211.78 17.7964 211.535 17.8308 211.305 17.9139C211.075 17.9969 210.865 18.1269 210.688 18.2955C210.53 18.4568 210.406 18.6485 210.324 18.8589C210.242 19.0694 210.203 19.2942 210.211 19.5199V22.1454H212.565V22.9577H207.491V22.1454Z" fill="#4A4B4F"/>
<path d="M214.273 14.2344H215.214V19.7325H215.262L216.321 18.7317L218.393 16.8716H219.571L217.051 19.2262L219.818 22.9583H218.64L216.286 19.8031L215.238 20.7567V22.9583H214.273V14.2344Z" fill="#4A4B4F"/>
<path d="M220.477 22.146H222.596V15.035H220.477V14.2344H223.538V22.146H225.657V22.9583H220.477V22.146Z" fill="#4A4B4F"/>
<path d="M228.142 22.6988C227.706 22.4382 227.36 22.0526 227.147 21.5921C226.904 21.0691 226.785 20.4969 226.799 19.9203C226.787 19.3414 226.908 18.7675 227.153 18.2426C227.321 17.9062 227.558 17.6082 227.846 17.367C228.135 17.1258 228.471 16.9466 228.832 16.8406C229.193 16.7346 229.572 16.704 229.945 16.7508C230.319 16.7975 230.679 16.9206 231.002 17.1124C231.404 17.3705 231.726 17.7353 231.933 18.1661C232.163 18.643 232.277 19.1672 232.268 19.6966V20.144H227.812V20.4266C227.8 20.6735 227.84 20.9201 227.93 21.1505C228.019 21.381 228.156 21.5901 228.331 21.7643C228.506 21.9385 228.716 22.074 228.947 22.162C229.178 22.2499 229.425 22.2884 229.672 22.275C230.04 22.2824 230.403 22.1866 230.72 21.9983C231.016 21.7987 231.248 21.5189 231.391 21.1918L232.086 21.6628C231.892 22.0908 231.569 22.4471 231.161 22.6811C230.701 22.9425 230.178 23.0747 229.649 23.0638C229.122 23.0835 228.601 22.9571 228.142 22.6988ZM228.671 17.7482C228.397 17.9046 228.173 18.1351 228.024 18.4133C227.864 18.7012 227.783 19.026 227.788 19.3552V19.4258H231.273V19.3081C231.292 18.8307 231.125 18.3647 230.808 18.0072C230.653 17.8412 230.464 17.7106 230.253 17.6243C230.043 17.5379 229.817 17.4979 229.59 17.5068C229.267 17.5019 228.95 17.5854 228.671 17.7482Z" fill="#4A4B4F"/>
<path d="M242.387 20.9213C242.366 21.2091 242.428 21.4969 242.564 21.7513C242.621 21.8389 242.697 21.9134 242.785 21.9702C242.873 22.0269 242.972 22.0647 243.076 22.0809C243.409 22.1309 243.746 22.1526 244.083 22.1457H244.824V22.958H244.094C243.593 22.972 243.092 22.9186 242.605 22.7991C242.256 22.7147 241.95 22.5053 241.746 22.2104C241.524 21.8249 241.419 21.383 241.445 20.9389V17.6601H239.42V16.8713H241.445V14.7168H242.387V16.8595H245.154V17.6601H242.387V20.9213Z" fill="#4A4B4F"/>
<path d="M246.343 22.1454H248.109V17.6598H246.343V16.871H249.063V18.4015H249.121C249.22 17.9416 249.482 17.5331 249.858 17.2516C250.235 16.9702 250.701 16.8349 251.17 16.871H252.018V17.8128H250.876C250.632 17.7964 250.387 17.8308 250.157 17.9139C249.927 17.9969 249.716 18.1269 249.539 18.2955C249.381 18.4568 249.258 18.6485 249.176 18.8589C249.094 19.0694 249.055 19.2942 249.063 19.5199V22.1454H251.417V22.9577H246.343V22.1454Z" fill="#4A4B4F"/>
<path d="M254.043 22.6988C253.607 22.4382 253.261 22.0526 253.048 21.5921C252.805 21.0691 252.686 20.4969 252.7 19.9203C252.688 19.3414 252.809 18.7675 253.054 18.2426C253.222 17.9062 253.459 17.6082 253.747 17.367C254.036 17.1258 254.372 16.9466 254.733 16.8406C255.094 16.7346 255.473 16.704 255.846 16.7508C256.22 16.7975 256.58 16.9206 256.903 17.1124C257.305 17.3705 257.627 17.7353 257.834 18.1661C258.064 18.643 258.179 19.1672 258.169 19.6966V20.144H253.713V20.4266C253.704 20.6714 253.745 20.9155 253.833 21.1442C253.921 21.3729 254.054 21.5813 254.225 21.7569C254.402 21.9327 254.614 22.0695 254.847 22.1587C255.081 22.2479 255.33 22.2875 255.579 22.275C255.947 22.2824 256.31 22.1866 256.627 21.9983C256.92 21.7978 257.151 21.5182 257.292 21.1918L257.987 21.6628C257.793 22.0908 257.47 22.4471 257.062 22.6811C256.602 22.9425 256.079 23.0747 255.55 23.0638C255.023 23.0835 254.502 22.9571 254.043 22.6988ZM254.567 17.7482C254.295 17.9064 254.073 18.1367 253.925 18.4133C253.763 18.7008 253.68 19.0255 253.684 19.3552V19.4258H257.174V19.3081C257.193 18.8307 257.026 18.3647 256.709 18.0072C256.554 17.8412 256.365 17.7106 256.154 17.6243C255.944 17.5379 255.718 17.4979 255.491 17.5068C255.167 17.5035 254.848 17.5868 254.567 17.7482Z" fill="#4A4B4F"/>
<path d="M260.518 22.6988C260.083 22.4382 259.736 22.0526 259.523 21.5921C259.28 21.0691 259.161 20.4969 259.176 19.9203C259.164 19.3414 259.284 18.7675 259.529 18.2426C259.698 17.9062 259.934 17.6082 260.223 17.367C260.512 17.1258 260.847 16.9466 261.208 16.8406C261.569 16.7346 261.948 16.704 262.322 16.7508C262.695 16.7975 263.055 16.9206 263.379 17.1124C263.781 17.3705 264.103 17.7353 264.309 18.1661C264.539 18.643 264.654 19.1672 264.644 19.6966V20.144H260.188V20.4266C260.179 20.6714 260.22 20.9155 260.308 21.1442C260.396 21.3729 260.53 21.5813 260.7 21.7569C260.878 21.9327 261.09 22.0695 261.323 22.1587C261.556 22.2479 261.805 22.2875 262.054 22.275C262.423 22.2824 262.786 22.1866 263.102 21.9983C263.396 21.7978 263.626 21.5182 263.767 21.1918L264.462 21.6628C264.269 22.0908 263.945 22.4471 263.538 22.6811C263.077 22.9425 262.554 23.0747 262.025 23.0638C261.499 23.0835 260.977 22.9571 260.518 22.6988ZM261.042 17.7482C260.771 17.9064 260.549 18.1367 260.4 18.4133C260.239 18.7008 260.156 19.0255 260.159 19.3552V19.4258H263.65V19.3081C263.668 18.8307 263.501 18.3647 263.185 18.0072C263.029 17.8412 262.84 17.7106 262.63 17.6243C262.42 17.5379 262.193 17.4979 261.966 17.5068C261.642 17.5035 261.323 17.5868 261.042 17.7482Z" fill="#4A4B4F"/>
<path d="M272.491 14.2344H273.433V17.8605H273.48C273.609 17.511 273.846 17.2123 274.158 17.0087C274.47 16.805 274.839 16.7074 275.211 16.7303C275.494 16.7147 275.777 16.7591 276.042 16.8605C276.307 16.962 276.547 17.1182 276.747 17.319C277.156 17.7907 277.367 18.4024 277.336 19.0261V22.9583H276.394V19.2144C276.426 18.7718 276.296 18.3327 276.029 17.9783C275.892 17.8353 275.724 17.7243 275.539 17.6531C275.354 17.5819 275.156 17.5522 274.958 17.5662C274.58 17.5547 274.208 17.6595 273.892 17.8664C273.75 17.9601 273.635 18.089 273.557 18.2407C273.48 18.3924 273.443 18.5616 273.451 18.7317V22.9583H272.509L272.491 14.2344Z" fill="#4A4B4F"/>
<path d="M283.64 22.9581C283.502 22.9704 283.363 22.9536 283.231 22.9088C283.1 22.864 282.979 22.7921 282.877 22.6979C282.775 22.6036 282.694 22.489 282.639 22.3615C282.584 22.2339 282.556 22.0963 282.557 21.9573H282.498C282.361 22.32 282.107 22.6272 281.777 22.8315C281.448 23.0358 281.06 23.1258 280.673 23.0876C280.124 23.1164 279.582 22.9402 279.155 22.5931C278.962 22.4259 278.808 22.2174 278.707 21.9831C278.605 21.7487 278.557 21.4945 278.566 21.2392C278.566 20.0619 279.437 19.4732 281.18 19.4732H282.475V18.8845C282.487 18.7005 282.459 18.5161 282.395 18.3435C282.33 18.1709 282.228 18.0142 282.098 17.8838C281.797 17.6392 281.414 17.5173 281.027 17.5424C280.7 17.5262 280.374 17.6013 280.087 17.7593C279.801 17.9173 279.563 18.152 279.402 18.4371L278.766 17.9662C278.95 17.5876 279.246 17.275 279.614 17.0715C280.064 16.8235 280.572 16.7015 281.086 16.7183C281.701 16.6862 282.306 16.881 282.787 17.2657C282.997 17.4532 283.163 17.6852 283.272 17.945C283.381 18.2047 283.43 18.4855 283.417 18.7668V21.7101C283.415 21.7662 283.425 21.822 283.446 21.8742C283.466 21.9264 283.497 21.9737 283.537 22.0134C283.577 22.0531 283.624 22.0843 283.676 22.105C283.729 22.1257 283.784 22.1356 283.84 22.1339H284.264V22.9581H283.64ZM282.027 21.9868C282.167 21.9051 282.283 21.7893 282.366 21.6503C282.448 21.5113 282.494 21.3536 282.498 21.1921V20.1914H281.203C280.12 20.1914 279.579 20.4975 279.579 21.1097V21.3569C279.572 21.4932 279.599 21.6291 279.657 21.7524C279.716 21.8757 279.804 21.9826 279.914 22.0633C280.188 22.2427 280.512 22.3294 280.838 22.3105C281.26 22.3237 281.675 22.2066 282.027 21.975V21.9868Z" fill="#4A4B4F"/>
<path d="M285.071 21.8978L285.707 21.3445C285.979 21.6469 286.309 21.8912 286.678 22.0626C287.065 22.2276 287.482 22.3079 287.902 22.2981C288.312 22.3187 288.719 22.2271 289.08 22.0332C289.218 21.9564 289.332 21.8424 289.409 21.704C289.486 21.5656 289.523 21.4084 289.515 21.2503C289.526 21.1307 289.506 21.0104 289.456 20.901C289.407 20.7917 289.33 20.697 289.233 20.6263C288.992 20.4831 288.723 20.3946 288.444 20.3673L287.49 20.226C287.146 20.1816 286.807 20.1048 286.478 19.9964C286.189 19.897 285.93 19.727 285.724 19.5019C285.5 19.2345 285.386 18.8911 285.406 18.5424C285.395 18.278 285.452 18.0151 285.571 17.7791C285.691 17.543 285.869 17.3416 286.089 17.1944C286.617 16.863 287.233 16.7007 287.855 16.7294C288.313 16.7072 288.771 16.7829 289.197 16.9514C289.623 17.1199 290.009 17.3773 290.328 17.7065L289.739 18.2952C289.503 18.031 289.209 17.8245 288.88 17.6919C288.552 17.5592 288.197 17.5038 287.844 17.5299C287.461 17.5077 287.079 17.5933 286.743 17.7772C286.621 17.8522 286.521 17.9583 286.454 18.0845C286.387 18.2106 286.354 18.3525 286.36 18.4953C286.35 18.6154 286.371 18.7361 286.422 18.8455C286.472 18.9549 286.55 19.0493 286.649 19.1193C286.888 19.2599 287.155 19.3481 287.431 19.3783L288.385 19.5196C288.733 19.562 289.076 19.6389 289.409 19.7492C289.697 19.847 289.954 20.0173 290.157 20.2437C290.38 20.5119 290.491 20.8552 290.469 21.2032C290.479 21.4753 290.421 21.7457 290.3 21.9895C290.178 22.2332 289.998 22.4426 289.774 22.5983C289.219 22.9599 288.564 23.1352 287.902 23.0987C287.37 23.1249 286.839 23.0306 286.349 22.8226C285.859 22.6146 285.422 22.2985 285.071 21.8978Z" fill="#4A4B4F"/>
<path d="M291.911 14.2344H292.853V17.8605H292.9C293.033 17.5142 293.272 17.2186 293.583 17.0158C293.893 16.8129 294.26 16.713 294.631 16.7303C294.914 16.7136 295.197 16.7574 295.462 16.8589C295.727 16.9604 295.967 17.1173 296.167 17.319C296.578 17.7894 296.79 18.402 296.756 19.0261V22.9583H295.814V19.2144C295.849 18.7715 295.719 18.3312 295.449 17.9783C295.312 17.835 295.144 17.7237 294.959 17.6525C294.774 17.5813 294.575 17.5518 294.377 17.5662C294 17.5558 293.628 17.6605 293.312 17.8664C293.17 17.9601 293.054 18.089 292.977 18.2407C292.9 18.3924 292.863 18.5616 292.871 18.7317V22.9583H291.929L291.911 14.2344Z" fill="#4A4B4F"/>
<path d="M382.159 287.856H382.076V294.808H381.182V286.566H382.583L385.385 293.454H385.467V286.566H386.362V294.808H384.984L382.159 287.856Z" fill="#4A4B4F"/>
<path d="M387.775 294.808V286.566H392.837V287.426H388.763V290.21H392.696V291.07H388.763V293.942H392.837V294.802L387.775 294.808Z" fill="#4A4B4F"/>
<path d="M393.485 286.59H394.532L395.415 290.546L396.098 293.618L396.864 290.546L397.9 286.59H399.03L400.031 290.546L400.796 293.607H400.878L401.585 290.546L402.515 286.59H403.527L401.42 294.831H400.29L399.218 290.71L398.465 287.697L397.688 290.71L396.593 294.831H395.498L393.485 286.59Z" fill="#4A4B4F"/>
<path d="M381.959 307.04C381.484 306.36 381.229 305.551 381.229 304.721C381.229 303.891 381.484 303.082 381.959 302.402C382.207 302.115 382.517 301.888 382.866 301.739C383.215 301.591 383.593 301.523 383.972 301.542C384.47 301.526 384.961 301.657 385.385 301.919C385.759 302.17 386.05 302.527 386.221 302.943L385.467 303.344C385.367 303.047 385.173 302.79 384.914 302.614C384.632 302.436 384.305 302.346 383.972 302.355C383.735 302.342 383.499 302.381 383.279 302.469C383.06 302.558 382.862 302.694 382.7 302.867C382.384 303.238 382.22 303.716 382.241 304.203V305.245C382.22 305.731 382.384 306.206 382.7 306.575C382.866 306.75 383.067 306.886 383.291 306.975C383.515 307.063 383.755 307.102 383.995 307.087C384.345 307.103 384.691 307.01 384.986 306.821C385.281 306.633 385.511 306.358 385.644 306.034L386.315 306.487C386.134 306.91 385.831 307.269 385.444 307.517C385.005 307.786 384.497 307.919 383.984 307.9C383.603 307.921 383.222 307.854 382.871 307.705C382.52 307.556 382.208 307.329 381.959 307.04Z" fill="#4A4B4F"/>
<path d="M388.846 307.511C388.408 307.253 388.061 306.866 387.851 306.404C387.608 305.881 387.489 305.309 387.504 304.732C387.492 304.153 387.613 303.579 387.857 303.054C388.071 302.595 388.412 302.207 388.84 301.936C389.278 301.669 389.782 301.532 390.294 301.541C390.792 301.533 391.281 301.666 391.707 301.924C392.114 302.181 392.442 302.546 392.655 302.978C392.884 303.455 392.999 303.979 392.99 304.508V304.956H388.516V305.244C388.505 305.491 388.546 305.737 388.636 305.966C388.726 306.196 388.863 306.404 389.038 306.578C389.213 306.752 389.423 306.887 389.653 306.974C389.884 307.062 390.13 307.1 390.377 307.087C390.744 307.096 391.107 307.002 391.424 306.816C391.724 306.625 391.965 306.353 392.119 306.033L392.814 306.498C392.62 306.926 392.297 307.282 391.889 307.516C391.426 307.769 390.907 307.902 390.38 307.902C389.852 307.902 389.333 307.769 388.87 307.516L388.846 307.511ZM389.376 302.56C389.103 302.718 388.879 302.948 388.728 303.225C388.569 303.513 388.488 303.838 388.493 304.167V304.249H391.978V304.12C391.995 303.643 391.829 303.177 391.513 302.819C391.356 302.654 391.167 302.524 390.957 302.438C390.747 302.352 390.521 302.311 390.294 302.318C389.971 302.317 389.653 302.405 389.376 302.572V302.56Z" fill="#4A4B4F"/>
<path d="M394.097 306.963H395.863V302.483H394.097V301.689H396.816V303.213H396.875C396.974 302.754 397.236 302.346 397.613 302.066C397.989 301.785 398.455 301.651 398.924 301.689H399.771V302.625H398.629C398.385 302.609 398.14 302.644 397.91 302.729C397.68 302.813 397.47 302.944 397.293 303.113C397.134 303.274 397.01 303.466 396.928 303.676C396.846 303.887 396.808 304.112 396.816 304.338V306.963H399.171V307.758H394.097V306.963Z" fill="#4A4B4F"/>
<path d="M403.092 305.739C403.072 306.026 403.133 306.314 403.268 306.569C403.327 306.655 403.403 306.728 403.491 306.783C403.579 306.839 403.677 306.876 403.78 306.892C404.113 306.948 404.45 306.972 404.787 306.963H405.529V307.758H404.799C404.297 307.772 403.796 307.718 403.309 307.599C402.961 307.514 402.655 307.305 402.45 307.01C402.227 306.625 402.122 306.183 402.15 305.739V302.501H400.125V301.689H402.15V299.54H403.092V301.689H405.858V302.483H403.092V305.739Z" fill="#4A4B4F"/>
<path d="M407.2 306.94H409.425V302.525H407.2V301.689H410.367V306.94H412.404V307.758H407.2V306.94ZM410.438 299.046V300.294H409.19V299.04L410.438 299.046Z" fill="#4A4B4F"/>
<path d="M413.593 306.963H415.642V302.483H413.476V301.688H415.642V301.1C415.616 300.656 415.72 300.214 415.942 299.828C416.146 299.533 416.452 299.323 416.801 299.24C417.288 299.115 417.789 299.059 418.291 299.075H419.021V299.881H418.279C417.942 299.873 417.606 299.893 417.272 299.94C417.17 299.959 417.071 299.997 416.984 300.054C416.896 300.111 416.82 300.184 416.76 300.27C416.624 300.526 416.562 300.816 416.584 301.106V301.694H419.021V302.489H416.584V306.969H418.75V307.763H413.593V306.963Z" fill="#4A4B4F"/>
<path d="M420.151 306.94H422.376V302.525H420.151V301.689H423.318V306.94H425.355V307.758H420.151V306.94ZM423.389 299.046V300.294H422.141V299.04L423.389 299.046Z" fill="#4A4B4F"/>
<path d="M427.286 307.04C426.81 306.36 426.556 305.551 426.556 304.721C426.556 303.891 426.81 303.082 427.286 302.402C427.534 302.115 427.844 301.888 428.193 301.739C428.542 301.591 428.92 301.523 429.299 301.542C429.797 301.526 430.288 301.657 430.712 301.919C431.086 302.17 431.377 302.527 431.547 302.943L430.794 303.344C430.694 303.047 430.5 302.79 430.241 302.614C429.959 302.436 429.631 302.346 429.299 302.355C429.062 302.342 428.826 302.381 428.606 302.469C428.386 302.558 428.189 302.694 428.027 302.867C427.711 303.238 427.547 303.716 427.568 304.203V305.245C427.547 305.731 427.711 306.206 428.027 306.575C428.193 306.75 428.394 306.886 428.618 306.975C428.842 307.063 429.082 307.102 429.322 307.087C429.672 307.103 430.018 307.01 430.313 306.821C430.608 306.633 430.838 306.358 430.971 306.034L431.642 306.487C431.461 306.91 431.158 307.269 430.77 307.517C430.332 307.786 429.824 307.919 429.311 307.9C428.93 307.921 428.549 307.854 428.198 307.705C427.847 307.556 427.535 307.329 427.286 307.04Z" fill="#4A4B4F"/>
<path d="M437.87 307.758C437.732 307.77 437.594 307.754 437.463 307.709C437.333 307.665 437.212 307.594 437.111 307.501C437.009 307.408 436.927 307.295 436.872 307.169C436.816 307.043 436.787 306.907 436.787 306.769H436.728C436.59 307.131 436.337 307.439 436.007 307.643C435.677 307.847 435.289 307.937 434.903 307.899C434.353 307.928 433.812 307.752 433.384 307.405C433.191 307.238 433.038 307.031 432.936 306.798C432.834 306.564 432.786 306.311 432.795 306.056C432.795 304.879 433.667 304.29 435.409 304.29H436.704V303.702C436.715 303.518 436.688 303.334 436.623 303.161C436.558 302.989 436.457 302.832 436.327 302.701C436.025 302.459 435.643 302.337 435.256 302.36C434.929 302.343 434.604 302.419 434.317 302.577C434.03 302.735 433.792 302.969 433.631 303.254L432.996 302.783C433.185 302.415 433.48 302.111 433.843 301.912C434.295 301.668 434.802 301.547 435.315 301.559C435.93 301.527 436.535 301.722 437.016 302.107C437.226 302.294 437.392 302.526 437.501 302.786C437.61 303.046 437.66 303.326 437.646 303.608V306.551C437.645 306.607 437.656 306.663 437.677 306.715C437.698 306.767 437.729 306.814 437.768 306.854C437.807 306.894 437.854 306.926 437.906 306.948C437.958 306.97 438.014 306.981 438.07 306.981H438.494V307.799L437.87 307.758ZM436.257 306.792C436.397 306.71 436.513 306.593 436.596 306.453C436.678 306.313 436.723 306.154 436.728 305.992V304.991H435.433C434.349 304.991 433.808 305.297 433.808 305.909V306.157C433.801 306.293 433.828 306.429 433.887 306.552C433.945 306.675 434.033 306.782 434.143 306.863C434.417 307.042 434.741 307.129 435.068 307.11C435.487 307.126 435.901 307.015 436.257 306.792Z" fill="#4A4B4F"/>
<path d="M441.943 305.739C441.924 306.026 441.985 306.314 442.12 306.569C442.179 306.655 442.254 306.728 442.342 306.783C442.43 306.839 442.529 306.876 442.632 306.892C442.964 306.948 443.301 306.972 443.639 306.963H444.38V307.758H443.65C443.149 307.772 442.648 307.718 442.161 307.599C441.812 307.514 441.506 307.305 441.302 307.01C441.078 306.625 440.974 306.183 441.001 305.739V302.501H438.976V301.689H441.001V299.54H441.943V301.689H444.704V302.483H441.943V305.739Z" fill="#4A4B4F"/>
<path d="M447.123 307.511C446.686 307.253 446.338 306.866 446.129 306.404C445.885 305.881 445.767 305.309 445.781 304.732C445.769 304.153 445.89 303.579 446.135 303.054C446.348 302.595 446.69 302.207 447.118 301.936C447.555 301.669 448.059 301.532 448.572 301.541C449.069 301.533 449.559 301.666 449.984 301.924C450.391 302.181 450.72 302.546 450.932 302.978C451.162 303.455 451.276 303.979 451.268 304.508V304.956H446.794V305.244C446.783 305.491 446.824 305.738 446.914 305.968C447.004 306.198 447.141 306.407 447.317 306.58C447.493 306.754 447.704 306.889 447.935 306.976C448.166 307.063 448.413 307.101 448.66 307.087C449.028 307.096 449.391 307.002 449.708 306.816C450.008 306.625 450.248 306.353 450.402 306.033L451.097 306.498C450.903 306.926 450.58 307.282 450.173 307.516C449.71 307.769 449.19 307.902 448.663 307.902C448.135 307.902 447.616 307.769 447.153 307.516L447.123 307.511ZM447.647 302.56C447.378 302.721 447.157 302.95 447.006 303.225C446.845 303.513 446.762 303.837 446.764 304.167V304.249H450.255V304.12C450.273 303.643 450.106 303.177 449.79 302.819C449.634 302.654 449.445 302.524 449.234 302.438C449.024 302.352 448.799 302.311 448.572 302.318C448.246 302.319 447.927 302.406 447.647 302.572V302.56Z" fill="#4A4B4F"/>
<path d="M452.257 306.692L452.892 306.133C453.163 306.439 453.496 306.684 453.87 306.851C454.256 307.016 454.674 307.097 455.094 307.087C455.503 307.107 455.91 307.015 456.271 306.822C456.409 306.744 456.522 306.63 456.599 306.492C456.676 306.354 456.713 306.197 456.707 306.039C456.713 305.925 456.69 305.812 456.641 305.709C456.591 305.606 456.517 305.517 456.424 305.45C456.185 305.304 455.915 305.213 455.636 305.186L454.682 305.044C454.338 305.001 453.999 304.924 453.669 304.815C453.378 304.721 453.118 304.55 452.916 304.32C452.691 304.053 452.577 303.709 452.598 303.361C452.58 303.093 452.633 302.824 452.75 302.583C452.868 302.341 453.047 302.134 453.269 301.983C453.797 301.653 454.413 301.491 455.035 301.518C455.493 301.497 455.951 301.573 456.377 301.743C456.804 301.912 457.189 302.171 457.507 302.501L456.919 303.09C456.68 302.827 456.385 302.622 456.056 302.49C455.726 302.357 455.372 302.301 455.017 302.325C454.636 302.302 454.257 302.387 453.922 302.572C453.8 302.646 453.7 302.752 453.632 302.878C453.565 303.005 453.533 303.147 453.54 303.29C453.528 303.41 453.548 303.532 453.599 303.641C453.65 303.751 453.729 303.845 453.828 303.914C454.067 304.058 454.334 304.147 454.611 304.173L455.565 304.314C455.912 304.364 456.254 304.44 456.589 304.544C456.877 304.643 457.135 304.816 457.337 305.044C457.557 305.312 457.668 305.652 457.649 305.998C457.659 306.271 457.6 306.542 457.479 306.786C457.358 307.031 457.177 307.242 456.954 307.399C456.397 307.754 455.742 307.927 455.082 307.893C454.551 307.916 454.022 307.82 453.534 307.612C453.045 307.405 452.608 307.09 452.257 306.692Z" fill="#4A4B4F"/>
</svg>
