<svg width="488" height="274" viewBox="0 0 488 274" fill="none" xmlns="http://www.w3.org/2000/svg">
<g clip-path="url(#clip0)">
<path d="M107.872 125.126H78.4391V154.559H107.872V125.126Z" fill="white" stroke="#1A1B1F" stroke-miterlimit="10"/>
<path d="M208.386 125.126H178.953V154.559H208.386V125.126Z" fill="white" stroke="#1A1B1F" stroke-miterlimit="10"/>
<path d="M243.997 0.416205L223.184 21.2285L243.997 42.0408L264.809 21.2285L243.997 0.416205Z" fill="#1A1B1F" stroke="#1A1B1F" stroke-miterlimit="10"/>
<path d="M158.126 65.9658H128.693V95.3989H158.126V65.9658Z" fill="#EFFFFD" stroke="#1A1B1F" stroke-width="2" stroke-miterlimit="10"/>
<path d="M89.5942 145.358V144.257H92.461V134.962H89.5942V133.855H96.717V134.962H93.8503V144.257H96.717V145.358H89.5942Z" fill="#1A1B1F"/>
<path d="M146.918 76.526L145.947 78.4569L143.192 83.4664L140.455 78.4569L139.513 76.526H139.101V86.1977H137.747V74.6953H139.889L143.186 80.8939H143.257L146.565 74.6953H148.708V86.1977H147.36V76.526H146.918Z" fill="#1A1B1F"/>
<path d="M196.613 133.855V142.379C196.626 142.967 196.477 143.548 196.183 144.057C195.907 144.534 195.498 144.92 195.006 145.17C194.456 145.436 193.851 145.569 193.24 145.558C192.461 145.585 191.696 145.344 191.074 144.875C190.48 144.391 190.079 143.71 189.943 142.956L191.262 142.674C191.355 143.135 191.582 143.559 191.915 143.892C192.328 144.199 192.833 144.356 193.347 144.337C193.861 144.318 194.353 144.123 194.741 143.786C195.116 143.32 195.299 142.728 195.253 142.132V135.068H191.097V133.891L196.613 133.855Z" fill="#1A1B1F"/>
<path d="M82.8541 185.169H53.421V214.602H82.8541V185.169Z" fill="white" stroke="#1A1B1F" stroke-miterlimit="10"/>
<path d="M132.89 185.169H103.457V214.602H132.89V185.169Z" fill="white" stroke="#1A1B1F" stroke-miterlimit="10"/>
<path d="M183.221 185.169H153.788V214.602H183.221V185.169Z" fill="white" stroke="#1A1B1F" stroke-miterlimit="10"/>
<path d="M233.551 185.169H204.118V214.602H233.551V185.169Z" fill="white" stroke="#1A1B1F" stroke-miterlimit="10"/>
<path d="M283.882 185.169H254.449V214.602H283.882V185.169Z" fill="white" stroke="#1A1B1F" stroke-miterlimit="10"/>
<path d="M334.212 185.169H304.779V214.602H334.212V185.169Z" fill="white" stroke="#1A1B1F" stroke-miterlimit="10"/>
<path d="M71.1221 205.402L70.1508 202.123H66.1126L65.1354 205.402H63.705L67.2369 193.899H69.0677L72.5996 205.402H71.1221ZM68.1788 195.365H68.0316L66.4187 200.922H69.7976L68.1788 195.365Z" fill="#1A1B1F"/>
<path d="M114.677 193.899H118.586C119.433 193.853 120.264 194.143 120.899 194.706C121.186 194.985 121.411 195.322 121.558 195.694C121.705 196.067 121.771 196.466 121.753 196.866C121.781 197.439 121.61 198.005 121.27 198.467C120.932 198.888 120.471 199.192 119.951 199.338V199.386C120.579 199.504 121.152 199.819 121.588 200.286C122.002 200.794 122.212 201.439 122.177 202.093C122.185 202.677 122.048 203.254 121.776 203.771C121.518 204.256 121.133 204.663 120.664 204.948C120.188 205.241 119.639 205.392 119.08 205.384H114.677V193.899ZM118.439 198.891C118.93 198.924 119.417 198.784 119.816 198.497C119.983 198.352 120.113 198.17 120.197 197.965C120.281 197.761 120.315 197.54 120.299 197.319V196.678C120.313 196.458 120.277 196.237 120.194 196.033C120.11 195.829 119.981 195.647 119.816 195.5C119.419 195.207 118.931 195.063 118.439 195.094H116.084V198.885L118.439 198.891ZM118.668 204.189C119.208 204.224 119.742 204.066 120.175 203.742C120.359 203.581 120.502 203.38 120.595 203.154C120.688 202.928 120.728 202.684 120.711 202.441V201.764C120.727 201.52 120.687 201.277 120.594 201.051C120.501 200.826 120.358 200.624 120.175 200.463C119.74 200.144 119.207 199.987 118.668 200.021H116.066V204.189H118.668Z" fill="#1A1B1F"/>
<path d="M165.761 204.077C165.061 203.058 164.713 201.587 164.713 199.65C164.713 197.713 165.061 196.242 165.761 195.223C166.106 194.722 166.574 194.318 167.121 194.051C167.667 193.784 168.274 193.663 168.881 193.699C169.685 193.65 170.48 193.894 171.118 194.387C171.686 194.894 172.133 195.521 172.425 196.224L171.247 196.766C171.059 196.245 170.758 195.772 170.364 195.382C169.951 195.04 169.422 194.87 168.887 194.905C168.491 194.884 168.097 194.966 167.743 195.144C167.389 195.321 167.087 195.588 166.868 195.918C166.37 196.762 166.132 197.735 166.185 198.714V200.592C166.132 201.569 166.369 202.54 166.868 203.382C167.087 203.712 167.388 203.98 167.742 204.159C168.096 204.337 168.491 204.421 168.887 204.4C169.423 204.437 169.953 204.264 170.364 203.918C170.759 203.529 171.061 203.056 171.247 202.534L172.425 203.082C172.13 203.783 171.683 204.41 171.118 204.918C170.478 205.407 169.684 205.649 168.881 205.601C168.274 205.637 167.667 205.516 167.121 205.249C166.574 204.982 166.106 204.578 165.761 204.077Z" fill="#1A1B1F"/>
<path d="M215.45 193.898H218.664C219.266 193.859 219.869 193.97 220.417 194.223C220.965 194.476 221.441 194.862 221.802 195.347C222.502 196.318 222.849 197.748 222.849 199.65C222.849 201.551 222.502 202.987 221.802 203.953C221.441 204.437 220.965 204.823 220.417 205.076C219.869 205.329 219.266 205.441 218.664 205.401H215.45V193.898ZM218.599 204.2C218.995 204.222 219.391 204.147 219.751 203.981C220.111 203.814 220.425 203.562 220.665 203.246C221.189 202.444 221.441 201.495 221.384 200.539V198.773C221.442 197.818 221.19 196.87 220.665 196.071C220.426 195.754 220.112 195.501 219.752 195.334C219.392 195.167 218.996 195.09 218.599 195.111H216.833V204.212L218.599 204.2Z" fill="#1A1B1F"/>
<path d="M265.704 205.402V193.899H272.768V195.077H267.064V198.968H272.568V200.175H267.064V204.195H272.768V205.372L265.704 205.402Z" fill="#1A1B1F"/>
<path d="M316.034 205.402V193.899H323.287V195.077H317.4V198.968H322.775V200.175H317.4V205.396L316.034 205.402Z" fill="#1A1B1F"/>
<path d="M68.1375 214.603V244.036" stroke="#1A1B1F" stroke-miterlimit="10" stroke-dasharray="6 3"/>
<path d="M118.174 214.603V244.036" stroke="#1A1B1F" stroke-miterlimit="10" stroke-dasharray="6 3"/>
<path d="M168.504 214.603V244.036" stroke="#1A1B1F" stroke-miterlimit="10" stroke-dasharray="6 3"/>
<path d="M218.835 214.603V244.036" stroke="#1A1B1F" stroke-miterlimit="10" stroke-dasharray="6 3"/>
<path d="M269.165 214.603V244.036" stroke="#1A1B1F" stroke-miterlimit="10" stroke-dasharray="6 3"/>
<path d="M319.496 214.603V244.036" stroke="#1A1B1F" stroke-miterlimit="10" stroke-dasharray="6 3"/>
<path d="M369.532 214.603V244.036" stroke="#1A1B1F" stroke-miterlimit="10" stroke-dasharray="6 3"/>
<path d="M384.249 185.169H354.815V214.602H384.249V185.169Z" fill="white" stroke="#1A1B1F" stroke-miterlimit="10"/>
<path d="M434.579 185.169H405.146V214.602H434.579V185.169Z" fill="white" stroke="#1A1B1F" stroke-miterlimit="10"/>
<path d="M371.904 203.871H371.822C371.631 204.365 371.312 204.8 370.898 205.131C370.408 205.473 369.816 205.638 369.22 205.602C368.663 205.628 368.11 205.502 367.62 205.236C367.13 204.971 366.723 204.576 366.442 204.095C365.818 203.088 365.511 201.634 365.511 199.733C365.511 197.831 365.853 196.254 366.53 195.235C367.151 194.434 368.055 193.902 369.057 193.746C370.058 193.591 371.081 193.825 371.916 194.4C372.485 194.894 372.924 195.52 373.194 196.224L372.016 196.766C371.827 196.248 371.53 195.777 371.145 195.383C370.734 195.04 370.207 194.869 369.673 194.906C369.278 194.882 368.884 194.963 368.529 195.139C368.175 195.316 367.873 195.582 367.654 195.912C367.166 196.762 366.934 197.736 366.989 198.714V200.48C366.928 201.479 367.131 202.476 367.578 203.371C367.77 203.71 368.055 203.989 368.398 204.174C368.742 204.359 369.131 204.444 369.52 204.419C369.839 204.433 370.157 204.382 370.455 204.267C370.753 204.153 371.024 203.978 371.251 203.753C371.47 203.517 371.64 203.239 371.75 202.935C371.86 202.632 371.909 202.31 371.893 201.987V200.81H369.473V199.703H373.211V205.39H371.922L371.904 203.871Z" fill="#1A1B1F"/>
<path d="M422.105 200.18H417.62V205.402H416.236V193.899H417.62V198.968H422.105V193.894H423.489V205.396H422.105V200.18Z" fill="#1A1B1F"/>
<path d="M82.8541 258.752C82.8541 250.624 76.2653 244.035 68.1375 244.035C60.0098 244.035 53.421 250.624 53.421 258.752C53.421 266.879 60.0098 273.468 68.1375 273.468C76.2653 273.468 82.8541 266.879 82.8541 258.752Z" fill="white" stroke="#1A1B1F" stroke-miterlimit="10"/>
<path d="M132.89 258.752C132.89 250.624 126.301 244.035 118.174 244.035C110.046 244.035 103.457 250.624 103.457 258.752C103.457 266.879 110.046 273.468 118.174 273.468C126.301 273.468 132.89 266.879 132.89 258.752Z" fill="white" stroke="#1A1B1F" stroke-miterlimit="10"/>
<path d="M183.221 258.752C183.221 250.624 176.632 244.035 168.504 244.035C160.377 244.035 153.788 250.624 153.788 258.752C153.788 266.879 160.377 273.468 168.504 273.468C176.632 273.468 183.221 266.879 183.221 258.752Z" fill="white" stroke="#1A1B1F" stroke-miterlimit="10"/>
<path d="M233.551 258.752C233.551 250.624 226.962 244.035 218.835 244.035C210.707 244.035 204.118 250.624 204.118 258.752C204.118 266.879 210.707 273.468 218.835 273.468C226.962 273.468 233.551 266.879 233.551 258.752Z" fill="white" stroke="#1A1B1F" stroke-miterlimit="10"/>
<path d="M283.882 258.752C283.882 250.624 277.293 244.035 269.165 244.035C261.038 244.035 254.449 250.624 254.449 258.752C254.449 266.879 261.038 273.468 269.165 273.468C277.293 273.468 283.882 266.879 283.882 258.752Z" fill="white" stroke="#1A1B1F" stroke-miterlimit="10"/>
<path d="M334.212 258.752C334.212 250.624 327.624 244.035 319.496 244.035C311.368 244.035 304.779 250.624 304.779 258.752C304.779 266.879 311.368 273.468 319.496 273.468C327.624 273.468 334.212 266.879 334.212 258.752Z" fill="white" stroke="#1A1B1F" stroke-miterlimit="10"/>
<path d="M60.6321 262.973C59.971 262.022 59.6166 260.893 59.6166 259.735C59.6166 258.577 59.971 257.448 60.6321 256.497C61.2415 255.865 62.0454 255.455 62.9151 255.334C63.7848 255.212 64.6701 255.386 65.4297 255.826C65.9572 256.174 66.3675 256.672 66.607 257.257L65.5533 257.816C65.4156 257.401 65.1445 257.043 64.7822 256.798C64.3884 256.548 63.9295 256.421 63.4636 256.433C63.1348 256.418 62.8067 256.474 62.5018 256.598C62.197 256.722 61.9226 256.911 61.6976 257.151C61.2536 257.671 61.0242 258.34 61.0559 259.023V260.471C61.0242 261.154 61.2536 261.823 61.6976 262.343C61.9295 262.587 62.2119 262.778 62.525 262.902C62.8381 263.026 63.1744 263.08 63.5106 263.061C64.002 263.086 64.4889 262.956 64.9028 262.69C65.3166 262.424 65.6368 262.035 65.8182 261.577L66.7601 262.219C66.5062 262.81 66.082 263.312 65.5415 263.661C64.9261 264.037 64.2136 264.223 63.493 264.197C62.9543 264.225 62.4163 264.129 61.9204 263.917C61.4245 263.705 60.9838 263.382 60.6321 262.973Z" fill="#1A1B1F"/>
<path d="M69.0616 258.222C69.0616 254.254 70.4018 252.271 73.0822 252.271C75.7626 252.271 77.1067 254.254 77.1145 258.222C77.1145 262.189 75.7743 264.173 73.094 264.173C70.4136 264.173 69.0695 262.189 69.0616 258.222ZM75.0424 261.954C75.5074 261.094 75.7254 260.122 75.6723 259.146V257.268C75.7265 256.29 75.5085 255.316 75.0424 254.454C74.8166 254.147 74.5215 253.896 74.1809 253.724C73.8404 253.551 73.464 253.461 73.0822 253.461C72.7004 253.461 72.324 253.551 71.9835 253.724C71.6429 253.896 71.3478 254.147 71.122 254.454C70.6559 255.316 70.4379 256.29 70.4921 257.268V259.146C70.439 260.122 70.657 261.094 71.122 261.954C71.3462 262.264 71.6408 262.516 71.9816 262.69C72.3224 262.865 72.6996 262.955 73.0822 262.955C73.4648 262.955 73.842 262.865 74.1828 262.69C74.5236 262.516 74.8182 262.264 75.0424 261.954ZM72.0579 258.422V258.057C72.0579 257.533 72.3994 257.268 73.0822 257.268C73.765 257.268 74.1065 257.533 74.1065 258.057V258.422C74.1065 258.952 73.765 259.211 73.0822 259.211C72.3994 259.211 72.0579 258.934 72.0579 258.422Z" fill="#1A1B1F"/>
<path d="M110.668 263.267C110.007 262.316 109.653 261.187 109.653 260.029C109.653 258.871 110.007 257.742 110.668 256.791C111.278 256.159 112.081 255.749 112.951 255.628C113.821 255.506 114.706 255.679 115.466 256.12C115.993 256.468 116.404 256.966 116.643 257.551L115.589 258.11C115.452 257.695 115.181 257.337 114.818 257.092C114.425 256.842 113.966 256.715 113.5 256.727C113.171 256.712 112.843 256.768 112.538 256.892C112.233 257.016 111.959 257.205 111.734 257.445C111.29 257.965 111.06 258.634 111.092 259.317V260.765C111.06 261.448 111.29 262.117 111.734 262.637C111.966 262.881 112.248 263.072 112.561 263.196C112.874 263.32 113.211 263.374 113.547 263.355C114.038 263.38 114.525 263.25 114.939 262.984C115.353 262.718 115.673 262.329 115.854 261.871L116.796 262.513C116.542 263.104 116.118 263.606 115.578 263.955C114.962 264.331 114.25 264.517 113.529 264.491C112.99 264.519 112.452 264.423 111.957 264.211C111.461 263.999 111.02 263.676 110.668 263.267Z" fill="#1A1B1F"/>
<path d="M119.575 264.268V263.091H122.871V253.79H122.753L119.857 256.492L119.045 255.615L122.094 252.766H124.255V263.067H127.286V264.245L119.575 264.268Z" fill="#1A1B1F"/>
<path d="M161.022 263.267C160.361 262.316 160.007 261.187 160.007 260.029C160.007 258.871 160.361 257.742 161.022 256.791C161.632 256.159 162.436 255.749 163.305 255.628C164.175 255.506 165.06 255.679 165.82 256.12C166.347 256.468 166.758 256.966 166.997 257.551L165.944 258.11C165.806 257.695 165.535 257.337 165.172 257.092C164.779 256.842 164.32 256.715 163.854 256.727C163.525 256.712 163.197 256.768 162.892 256.892C162.587 257.016 162.313 257.205 162.088 257.445C161.644 257.965 161.414 258.634 161.446 259.317V260.765C161.414 261.448 161.644 262.117 162.088 262.637C162.32 262.881 162.602 263.072 162.915 263.196C163.228 263.32 163.565 263.374 163.901 263.355C164.392 263.38 164.879 263.25 165.293 262.984C165.707 262.718 166.027 262.329 166.208 261.871L167.15 262.513C166.896 263.104 166.472 263.606 165.932 263.955C165.316 264.331 164.604 264.517 163.883 264.491C163.345 264.519 162.807 264.423 162.311 264.211C161.815 263.999 161.374 263.676 161.022 263.267Z" fill="#1A1B1F"/>
<path d="M177.358 264.267H169.676V262.855L173.514 259.393C174.061 258.92 174.54 258.373 174.938 257.769C175.258 257.286 175.434 256.723 175.445 256.144V255.944C175.463 255.653 175.423 255.361 175.328 255.085C175.233 254.809 175.085 254.555 174.891 254.337C174.678 254.134 174.425 253.977 174.149 253.876C173.872 253.775 173.578 253.731 173.284 253.748C172.71 253.719 172.144 253.901 171.695 254.26C171.271 254.651 170.965 255.152 170.812 255.708L169.576 255.249C169.819 254.496 170.267 253.825 170.871 253.312C171.619 252.787 172.518 252.517 173.432 252.544C174.347 252.57 175.228 252.892 175.945 253.46C176.262 253.774 176.511 254.151 176.674 254.566C176.837 254.982 176.912 255.427 176.893 255.873C176.897 256.668 176.673 257.446 176.245 258.116C175.707 258.912 175.059 259.627 174.32 260.241L171.106 263.043H177.358V264.267Z" fill="#1A1B1F"/>
<path d="M211.329 263.267C210.668 262.316 210.314 261.187 210.314 260.029C210.314 258.871 210.668 257.742 211.329 256.791C211.939 256.159 212.743 255.749 213.612 255.628C214.482 255.506 215.367 255.679 216.127 256.12C216.654 256.468 217.065 256.966 217.304 257.551L216.25 258.11C216.113 257.695 215.842 257.337 215.479 257.092C215.086 256.842 214.627 256.715 214.161 256.727C213.832 256.712 213.504 256.768 213.199 256.892C212.894 257.016 212.62 257.205 212.395 257.445C211.951 257.965 211.721 258.634 211.753 259.317V260.765C211.721 261.448 211.951 262.117 212.395 262.637C212.627 262.881 212.909 263.072 213.222 263.196C213.535 263.32 213.872 263.374 214.208 263.355C214.699 263.38 215.186 263.25 215.6 262.984C216.014 262.718 216.334 262.329 216.515 261.871L217.457 262.513C217.203 263.104 216.779 263.606 216.239 263.955C215.623 264.331 214.911 264.517 214.19 264.491C213.651 264.519 213.113 264.423 212.618 264.211C212.122 263.999 211.681 263.676 211.329 263.267Z" fill="#1A1B1F"/>
<path d="M223.285 257.646C223.918 257.683 224.543 257.495 225.051 257.116C225.247 256.945 225.402 256.731 225.504 256.492C225.606 256.252 225.652 255.993 225.64 255.732V255.615C225.653 255.357 225.607 255.1 225.505 254.863C225.403 254.626 225.248 254.416 225.051 254.249C224.611 253.91 224.063 253.741 223.509 253.772C222.998 253.752 222.492 253.883 222.055 254.149C221.645 254.423 221.312 254.798 221.089 255.238L220.047 254.449C220.409 253.851 220.924 253.361 221.539 253.03C222.154 252.699 222.846 252.538 223.544 252.565C224.159 252.559 224.77 252.675 225.34 252.907C225.851 253.109 226.292 253.454 226.611 253.902C226.923 254.363 227.083 254.911 227.07 255.468C227.098 256.114 226.877 256.746 226.452 257.234C226.02 257.707 225.453 258.035 224.827 258.175V258.24C225.502 258.353 226.122 258.681 226.593 259.176C227.08 259.712 227.334 260.419 227.3 261.142C227.317 261.767 227.145 262.383 226.805 262.908C226.463 263.424 225.981 263.832 225.416 264.086C224.76 264.375 224.049 264.517 223.332 264.503C222.544 264.538 221.761 264.353 221.072 263.968C220.476 263.598 219.96 263.114 219.553 262.543L220.595 261.749C220.88 262.216 221.262 262.617 221.713 262.926C222.205 263.206 222.767 263.341 223.332 263.314C224.003 263.35 224.664 263.14 225.192 262.726C225.415 262.528 225.59 262.282 225.705 262.007C225.819 261.731 225.869 261.434 225.852 261.136V261.001C225.869 260.707 225.821 260.412 225.71 260.139C225.599 259.866 225.428 259.622 225.21 259.423C224.671 259.002 223.997 258.793 223.315 258.835H221.943V257.657L223.285 257.646Z" fill="#1A1B1F"/>
<path d="M261.683 263.267C261.022 262.316 260.668 261.187 260.668 260.029C260.668 258.871 261.022 257.742 261.683 256.791C262.293 256.159 263.097 255.749 263.966 255.628C264.836 255.506 265.721 255.679 266.481 256.12C267.008 256.468 267.419 256.966 267.658 257.551L266.605 258.11C266.467 257.695 266.196 257.337 265.833 257.092C265.44 256.842 264.981 256.715 264.515 256.727C264.186 256.712 263.858 256.768 263.553 256.892C263.248 257.016 262.974 257.205 262.749 257.445C262.305 257.965 262.075 258.634 262.107 259.317V260.765C262.075 261.448 262.305 262.117 262.749 262.637C262.981 262.881 263.263 263.072 263.576 263.196C263.889 263.32 264.226 263.374 264.562 263.355C265.053 263.38 265.54 263.25 265.954 262.984C266.368 262.718 266.688 262.329 266.869 261.871L267.811 262.513C267.557 263.104 267.133 263.606 266.593 263.955C265.977 264.331 265.265 264.517 264.544 264.491C264.006 264.519 263.468 264.423 262.972 264.211C262.476 263.999 262.035 263.676 261.683 263.267Z" fill="#1A1B1F"/>
<path d="M275.393 264.267V262.013H269.724V260.776L274.705 252.747H276.712V260.859H278.437V261.995H276.718V264.249L275.393 264.267ZM270.961 260.876H275.393V253.813H275.329L270.961 260.876Z" fill="#1A1B1F"/>
<path d="M311.99 263.267C311.329 262.316 310.975 261.187 310.975 260.029C310.975 258.871 311.329 257.742 311.99 256.791C312.6 256.159 313.404 255.749 314.273 255.628C315.143 255.506 316.028 255.679 316.788 256.12C317.315 256.468 317.726 256.966 317.965 257.551L316.912 258.11C316.774 257.695 316.503 257.337 316.14 257.092C315.747 256.842 315.288 256.715 314.822 256.727C314.493 256.712 314.165 256.768 313.86 256.892C313.555 257.016 313.281 257.205 313.056 257.445C312.612 257.965 312.382 258.634 312.414 259.317V260.765C312.382 261.448 312.612 262.117 313.056 262.637C313.288 262.881 313.57 263.072 313.883 263.196C314.196 263.32 314.533 263.374 314.869 263.355C315.36 263.38 315.847 263.25 316.261 262.984C316.675 262.718 316.995 262.329 317.176 261.871L318.118 262.513C317.864 263.104 317.44 263.606 316.9 263.955C316.284 264.331 315.572 264.517 314.851 264.491C314.313 264.519 313.775 264.423 313.279 264.211C312.783 263.999 312.342 263.676 311.99 263.267Z" fill="#1A1B1F"/>
<path d="M327.755 253.966H322.586L322.257 258.369H322.374C322.641 257.989 322.984 257.668 323.381 257.428C323.813 257.203 324.296 257.096 324.782 257.116C325.407 257.108 326.024 257.255 326.577 257.545C327.098 257.829 327.527 258.256 327.814 258.776C328.12 259.355 328.272 260.004 328.255 260.659C328.27 261.351 328.11 262.035 327.79 262.649C327.478 263.22 327.005 263.687 326.43 263.991C325.782 264.322 325.062 264.485 324.335 264.468C323.576 264.5 322.825 264.314 322.168 263.932C321.583 263.557 321.076 263.074 320.673 262.508L321.715 261.713C322.005 262.171 322.378 262.571 322.816 262.89C323.284 263.171 323.825 263.307 324.37 263.279C324.7 263.299 325.031 263.252 325.343 263.14C325.654 263.029 325.94 262.856 326.183 262.631C326.403 262.395 326.573 262.117 326.683 261.814C326.793 261.51 326.842 261.188 326.825 260.865V260.736C326.841 260.413 326.791 260.089 326.679 259.786C326.567 259.482 326.394 259.205 326.171 258.97C325.923 258.746 325.633 258.573 325.318 258.463C325.002 258.353 324.668 258.307 324.335 258.328C323.916 258.312 323.5 258.397 323.122 258.576C322.783 258.761 322.48 259.007 322.227 259.3L321.05 259.135L321.462 252.807H327.725L327.755 253.966Z" fill="#1A1B1F"/>
<path d="M384.249 258.752C384.249 250.624 377.66 244.035 369.532 244.035C361.404 244.035 354.815 250.624 354.815 258.752C354.815 266.879 361.404 273.468 369.532 273.468C377.66 273.468 384.249 266.879 384.249 258.752Z" fill="white" stroke="#1A1B1F" stroke-miterlimit="10"/>
<path d="M434.579 258.752C434.579 250.624 427.99 244.035 419.863 244.035C411.735 244.035 405.146 250.624 405.146 258.752C405.146 266.879 411.735 273.468 419.863 273.468C427.99 273.468 434.579 266.879 434.579 258.752Z" fill="white" stroke="#1A1B1F" stroke-miterlimit="10"/>
<path d="M362.027 263.267C361.365 262.316 361.011 261.187 361.011 260.029C361.011 258.871 361.365 257.742 362.027 256.791C362.636 256.159 363.44 255.749 364.309 255.628C365.179 255.506 366.065 255.679 366.824 256.12C367.352 256.468 367.762 256.966 368.001 257.551L366.948 258.11C366.81 257.695 366.539 257.337 366.177 257.092C365.783 256.842 365.324 256.715 364.858 256.727C364.529 256.712 364.201 256.768 363.896 256.892C363.591 257.016 363.317 257.205 363.092 257.445C362.648 257.965 362.419 258.634 362.45 259.317V260.765C362.419 261.448 362.648 262.117 363.092 262.637C363.324 262.881 363.606 263.072 363.919 263.196C364.232 263.32 364.569 263.374 364.905 263.355C365.396 263.38 365.883 263.25 366.297 262.984C366.711 262.718 367.031 262.329 367.213 261.871L368.154 262.513C367.901 263.104 367.476 263.606 366.936 263.955C366.32 264.331 365.608 264.517 364.887 264.491C364.349 264.519 363.811 264.423 363.315 264.211C362.819 263.999 362.378 263.676 362.027 263.267Z" fill="#1A1B1F"/>
<path d="M371.634 263.291C370.893 262.38 370.519 261.225 370.586 260.053C370.581 259.009 370.792 257.975 371.204 257.016C371.592 256.099 372.125 255.25 372.781 254.502C373.359 253.836 374.024 253.252 374.759 252.766H376.525C375.394 253.537 374.374 254.46 373.494 255.509C372.763 256.461 372.25 257.562 371.993 258.735L372.075 258.764C372.358 258.276 372.751 257.86 373.223 257.551C373.733 257.247 374.319 257.096 374.912 257.116C375.529 257.108 376.136 257.258 376.678 257.551C377.195 257.84 377.62 258.268 377.903 258.788C378.202 259.365 378.352 260.009 378.338 260.66C378.352 261.353 378.188 262.038 377.862 262.649C377.546 263.218 377.074 263.684 376.502 263.991C375.873 264.318 375.173 264.482 374.465 264.468C373.936 264.49 373.408 264.396 372.919 264.193C372.43 263.99 371.991 263.682 371.634 263.291ZM376.307 262.649C376.534 262.408 376.709 262.124 376.823 261.813C376.936 261.503 376.985 261.172 376.967 260.842V260.713C376.985 260.382 376.936 260.052 376.823 259.741C376.709 259.431 376.534 259.146 376.307 258.905C375.791 258.483 375.144 258.252 374.477 258.252C373.809 258.252 373.162 258.483 372.646 258.905C372.418 259.145 372.242 259.43 372.129 259.741C372.016 260.051 371.967 260.382 371.987 260.713V260.842C371.967 261.172 372.016 261.503 372.129 261.814C372.242 262.125 372.418 262.409 372.646 262.649C373.164 263.068 373.811 263.296 374.477 263.296C375.143 263.296 375.789 263.068 376.307 262.649Z" fill="#1A1B1F"/>
<path d="M412.38 263.267C411.719 262.316 411.365 261.187 411.365 260.029C411.365 258.871 411.719 257.742 412.38 256.791C412.99 256.159 413.794 255.749 414.663 255.628C415.533 255.506 416.419 255.679 417.178 256.12C417.706 256.468 418.116 256.966 418.355 257.551L417.302 258.11C417.164 257.695 416.893 257.337 416.531 257.092C416.137 256.842 415.678 256.715 415.212 256.727C414.883 256.712 414.555 256.768 414.25 256.892C413.945 257.016 413.671 257.205 413.446 257.445C413.002 257.965 412.773 258.634 412.804 259.317V260.765C412.773 261.448 413.002 262.117 413.446 262.637C413.678 262.881 413.96 263.072 414.273 263.196C414.586 263.32 414.923 263.374 415.259 263.355C415.75 263.38 416.237 263.25 416.651 262.984C417.065 262.718 417.385 262.329 417.567 261.871L418.508 262.513C418.255 263.104 417.83 263.606 417.29 263.955C416.674 264.331 415.962 264.517 415.241 264.491C414.703 264.519 414.165 264.423 413.669 264.211C413.173 263.999 412.732 263.676 412.38 263.267Z" fill="#1A1B1F"/>
<path d="M422.712 264.268L427.215 253.955H422.17V256.097H420.934V252.766H428.586V253.984L424.166 264.268H422.712Z" fill="#1A1B1F"/>
<path d="M419.863 214.603V244.036" stroke="#1A1B1F" stroke-miterlimit="10" stroke-dasharray="6 3"/>
<path d="M78.439 154.559L68.1375 185.169" stroke="#1A1B1F" stroke-miterlimit="10" stroke-dasharray="6 3"/>
<path d="M107.872 154.559L118.174 185.169" stroke="#1A1B1F" stroke-miterlimit="10" stroke-dasharray="6 3"/>
<path d="M178.953 154.559L168.651 185.169" stroke="#1A1B1F" stroke-miterlimit="10" stroke-dasharray="6 3"/>
<path d="M208.386 154.559L218.688 185.169" stroke="#1A1B1F" stroke-miterlimit="10" stroke-dasharray="6 3"/>
<path d="M308.9 125.126H279.467V154.559H308.9V125.126Z" fill="#EFFFFD" stroke="#1A1B1F" stroke-width="2" stroke-miterlimit="10"/>
<path d="M293.671 139.724L292.023 141.667V145.358H290.64V133.855H292.023V139.854H292.076L293.589 137.941L296.985 133.855H298.651L294.613 138.7L298.734 145.358H297.121L293.671 139.724Z" fill="#1A1B1F"/>
<path d="M279.467 154.559L269.165 185.169" stroke="#1A1B1F" stroke-miterlimit="10" stroke-dasharray="6 3"/>
<path d="M308.9 154.559L319.201 185.169" stroke="#1A1B1F" stroke-miterlimit="10" stroke-dasharray="6 3"/>
<path d="M409.414 125.126H379.981V154.559H409.414V125.126Z" fill="#EFFFFD" stroke="#1A1B1F" stroke-width="2" stroke-miterlimit="10"/>
<path d="M391.73 145.358V133.855H393.114V144.157H398.571V145.334L391.73 145.358Z" fill="#1A1B1F"/>
<path d="M379.981 154.559L369.679 185.169" stroke="#1A1B1F" stroke-miterlimit="10" stroke-dasharray="6 3"/>
<path d="M409.414 154.559L419.715 185.169" stroke="#1A1B1F" stroke-miterlimit="10" stroke-dasharray="6 3"/>
<path d="M93.1556 125.126L94.5096 123.996" stroke="#1A1B1F" stroke-miterlimit="10"/>
<path d="M95.8223 122.895L126.686 97.082" stroke="#1A1B1F" stroke-miterlimit="10" stroke-dasharray="5.82 2.91"/>
<path d="M127.339 96.5346L128.699 95.3984" stroke="#1A1B1F" stroke-miterlimit="10"/>
<path d="M193.669 125.126L192.316 123.996" stroke="#1A1B1F" stroke-miterlimit="10"/>
<path d="M191.003 122.895L160.139 97.082" stroke="#1A1B1F" stroke-miterlimit="10" stroke-dasharray="5.82 2.91"/>
<path d="M159.486 96.5346L158.132 95.3984" stroke="#1A1B1F" stroke-miterlimit="10"/>
<path d="M359.083 65.9658H329.65V95.3989H359.083V65.9658Z" fill="white" stroke="#1A1B1F" stroke-miterlimit="10"/>
<path d="M341.888 76.4613H341.771V86.1977H340.523V74.6953H342.483L346.403 84.3376H346.521V74.6953H347.775V86.1977H345.809L341.888 76.4613Z" fill="#1A1B1F"/>
<path d="M294.113 125.126L329.65 95.3984" stroke="#1A1B1F" stroke-miterlimit="10"/>
<path d="M394.621 125.126L359.083 95.3984" stroke="#1A1B1F" stroke-miterlimit="10"/>
<path d="M143.41 65.9658L223.185 21.2275" stroke="#1A1B1F" stroke-miterlimit="10"/>
<path d="M344.143 65.9658L264.815 21.2275" stroke="#1A1B1F" stroke-miterlimit="10"/>
</g>
<defs>
<clipPath id="clip0">
<rect width="488" height="273.763" fill="white"/>
</clipPath>
</defs>
</svg>
