<svg width="488" height="240" viewBox="0 0 488 240" fill="none" xmlns="http://www.w3.org/2000/svg">
<g clip-path="url(#clip0)">
<path d="M208.463 91.6016H179.03V120.987H208.463V91.6016Z" fill="white" stroke="#1A1B1F" stroke-miterlimit="10"/>
<path d="M308.977 91.6016H279.543V120.987H308.977V91.6016Z" fill="white" stroke="#1A1B1F" stroke-miterlimit="10"/>
<path d="M243.999 26.4486L223.187 47.2275L243.999 68.0065L264.812 47.2275L243.999 26.4486Z" fill="#1A1B1F" stroke="#1A1B1F" stroke-miterlimit="10"/>
<path d="M190.179 111.801V110.702H193.081V101.416H190.208V100.317H197.331V101.416H194.435V110.702H197.302V111.801H190.179Z" fill="#1A1B1F"/>
<path d="M297.221 100.317V108.828C297.234 109.415 297.085 109.994 296.791 110.503C296.516 110.98 296.107 111.366 295.614 111.613C295.064 111.879 294.459 112.012 293.848 112.001C293.069 112.028 292.304 111.788 291.682 111.319C291.088 110.836 290.687 110.156 290.551 109.403L291.87 109.121C291.963 109.582 292.19 110.006 292.523 110.338C292.936 110.645 293.441 110.801 293.955 110.782C294.469 110.763 294.961 110.569 295.349 110.232C295.723 109.767 295.907 109.176 295.861 108.581V101.528H291.682V100.353L297.221 100.317Z" fill="#1A1B1F"/>
<path d="M56.8294 229.51C56.3543 228.831 56.0995 228.022 56.0995 227.194C56.0995 226.366 56.3543 225.557 56.8294 224.878C57.0784 224.593 57.3889 224.368 57.7375 224.219C58.0861 224.07 58.4639 224.003 58.8426 224.02C59.3421 224.005 59.8353 224.136 60.2613 224.396C60.6338 224.649 60.9244 225.004 61.0972 225.419L60.3378 225.819C60.2399 225.523 60.0476 225.267 59.7903 225.09C59.507 224.912 59.1772 224.822 58.8426 224.831C58.6062 224.819 58.37 224.859 58.1504 224.947C57.9308 225.035 57.7331 225.17 57.5711 225.343C57.2589 225.716 57.0972 226.191 57.1178 226.677V227.711C57.0961 228.197 57.2578 228.673 57.5711 229.045C57.7372 229.219 57.939 229.354 58.1625 229.443C58.3861 229.531 58.6261 229.57 58.8661 229.557C59.2169 229.573 59.5642 229.48 59.8596 229.291C60.155 229.101 60.3838 228.824 60.5144 228.499L61.1913 228.957C61.0107 229.381 60.7047 229.74 60.3142 229.986C59.8821 230.26 59.3779 230.399 58.8661 230.385C58.4822 230.405 58.0989 230.336 57.7458 230.184C57.3927 230.032 57.0792 229.801 56.8294 229.51Z" fill="#4A4B4F"/>
<path d="M63.7226 229.979C63.2859 229.719 62.9373 229.334 62.7219 228.874C62.4874 228.348 62.3662 227.778 62.3662 227.202C62.3662 226.626 62.4874 226.057 62.7219 225.53C62.9339 225.071 63.2755 224.683 63.705 224.414C64.1424 224.147 64.6467 224.011 65.159 224.02C65.6565 224.012 66.1462 224.144 66.5717 224.402C66.9785 224.657 67.305 225.022 67.5136 225.454C67.7457 225.93 67.8626 226.453 67.855 226.982V227.446H63.3518V227.728C63.3427 227.972 63.3829 228.216 63.4698 228.444C63.5568 228.672 63.6888 228.88 63.858 229.057C64.0357 229.232 64.2477 229.368 64.4808 229.457C64.7138 229.546 64.9627 229.586 65.2119 229.574C65.5824 229.585 65.9482 229.489 66.2656 229.298C66.5688 229.112 66.8088 228.84 66.9544 228.516L67.6549 228.986C67.4614 229.414 67.138 229.769 66.7307 230.003C66.2694 230.268 65.7438 230.4 65.2119 230.385C64.6876 230.389 64.1722 230.249 63.7226 229.979ZM64.2465 225.037C63.9699 225.19 63.7384 225.413 63.5755 225.683C63.4192 225.972 63.3383 226.295 63.34 226.624V226.706H66.8308V226.577C66.8485 226.1 66.682 225.635 66.3657 225.278C66.2095 225.113 66.0201 224.984 65.8101 224.898C65.6 224.811 65.3741 224.771 65.1472 224.778C64.8295 224.784 64.519 224.873 64.2465 225.037Z" fill="#4A4B4F"/>
<path d="M68.9735 229.428H70.7395V224.961H68.9735V224.162H71.6931V225.684H71.7461C71.8469 225.225 72.1101 224.818 72.4876 224.537C72.865 224.256 73.3312 224.121 73.8005 224.156H74.6423V225.096H73.5062C73.2615 225.082 73.0165 225.117 72.7858 225.2C72.5552 225.283 72.3437 225.412 72.1641 225.578C72.0068 225.739 71.8839 225.931 71.803 226.141C71.722 226.351 71.6847 226.576 71.6931 226.801V229.422H74.0478V230.221H68.9735V229.428Z" fill="#4A4B4F"/>
<path d="M77.9623 228.204C77.9415 228.492 78.0027 228.779 78.1389 229.033C78.1967 229.12 78.272 229.195 78.3602 229.251C78.4484 229.308 78.5475 229.346 78.6511 229.362C78.9839 229.415 79.3209 229.437 79.6577 229.427H80.3994V230.226H79.6695C79.1682 230.239 78.6673 230.186 78.1801 230.067C77.8319 229.982 77.5266 229.773 77.3207 229.48C77.0973 229.095 76.9929 228.654 77.0205 228.21V224.978H74.9955V224.178H77.0205V222.039H77.9623V224.178H80.7291V224.978H77.9623V228.204Z" fill="#4A4B4F"/>
<path d="M82.0712 229.404H84.2963V224.996H82.0712V224.161H85.2382V229.404H87.2749V230.227H82.0712V229.404ZM85.3088 221.528V222.774H84.0608V221.528H85.3088Z" fill="#4A4B4F"/>
<path d="M88.4639 229.427H90.5125V224.961H88.3462V224.161H90.5125V223.574C90.4866 223.13 90.5909 222.689 90.8127 222.304C91.0201 222.012 91.3248 221.804 91.6721 221.716C92.1593 221.598 92.6601 221.544 93.1614 221.558H93.8914V222.357H93.1497C92.8129 222.35 92.4762 222.372 92.1431 222.422C92.0399 222.439 91.9413 222.477 91.8533 222.534C91.7653 222.591 91.6897 222.664 91.6309 222.751C91.4947 223.005 91.4335 223.292 91.4543 223.579V224.167H93.8914V224.966H91.4543V229.433H93.597V230.232H88.4404L88.4639 229.427Z" fill="#4A4B4F"/>
<path d="M95.0217 229.404H97.2469V224.996H95.0217V224.161H98.1887V229.404H100.225V230.227H95.0217V229.404ZM98.2594 221.528V222.774H97.0114V221.528H98.2594Z" fill="#4A4B4F"/>
<path d="M102.156 229.509C101.681 228.83 101.426 228.021 101.426 227.193C101.426 226.365 101.681 225.556 102.156 224.877C102.591 224.427 103.165 224.134 103.786 224.047C104.407 223.96 105.039 224.082 105.582 224.395C105.958 224.644 106.249 225.001 106.418 225.418L105.665 225.818C105.566 225.52 105.372 225.264 105.111 225.089C104.83 224.911 104.502 224.821 104.169 224.83C103.933 224.817 103.697 224.857 103.477 224.945C103.257 225.033 103.06 225.169 102.898 225.342C102.582 225.712 102.418 226.189 102.439 226.676V227.71C102.416 228.197 102.581 228.674 102.898 229.044C103.064 229.218 103.265 229.354 103.489 229.443C103.713 229.531 103.953 229.569 104.193 229.556C104.544 229.571 104.891 229.478 105.186 229.288C105.481 229.099 105.71 228.823 105.841 228.498L106.512 228.956C106.334 229.38 106.03 229.739 105.641 229.985C105.209 230.258 104.705 230.398 104.193 230.384C103.809 230.404 103.426 230.335 103.072 230.183C102.719 230.032 102.406 229.801 102.156 229.509Z" fill="#4A4B4F"/>
<path d="M112.74 230.227C112.603 230.238 112.465 230.221 112.335 230.176C112.204 230.132 112.085 230.061 111.983 229.969C111.881 229.876 111.8 229.763 111.744 229.638C111.688 229.512 111.658 229.377 111.657 229.239H111.598C111.461 229.601 111.207 229.908 110.877 230.112C110.547 230.316 110.16 230.406 109.773 230.368C109.223 230.396 108.682 230.221 108.255 229.874C108.061 229.707 107.908 229.499 107.806 229.265C107.704 229.031 107.656 228.777 107.666 228.522C107.666 227.347 108.537 226.759 110.28 226.759H111.575V226.171C111.588 225.988 111.561 225.803 111.496 225.631C111.431 225.458 111.329 225.302 111.198 225.172C110.896 224.929 110.514 224.807 110.127 224.831C109.8 224.815 109.474 224.89 109.187 225.048C108.9 225.206 108.663 225.44 108.502 225.725L107.866 225.255C108.055 224.886 108.351 224.584 108.714 224.385C109.164 224.138 109.672 224.016 110.186 224.032C110.801 223.998 111.407 224.193 111.887 224.579C112.098 224.765 112.264 224.997 112.373 225.256C112.482 225.516 112.531 225.796 112.517 226.077V229.016C112.517 229.128 112.561 229.236 112.641 229.315C112.72 229.394 112.828 229.439 112.94 229.439H113.364V230.262L112.74 230.227ZM111.127 229.257C111.268 229.177 111.386 229.062 111.468 228.923C111.551 228.784 111.596 228.625 111.598 228.463V227.447H110.303C109.22 227.447 108.679 227.752 108.679 228.364V228.622C108.672 228.758 108.699 228.894 108.757 229.017C108.816 229.14 108.904 229.247 109.014 229.327C109.288 229.506 109.612 229.592 109.938 229.574C110.358 229.594 110.774 229.483 111.127 229.257Z" fill="#4A4B4F"/>
<path d="M116.814 228.204C116.793 228.492 116.854 228.779 116.991 229.033C117.048 229.12 117.124 229.195 117.212 229.251C117.3 229.308 117.399 229.346 117.503 229.362C117.836 229.415 118.173 229.437 118.509 229.427H119.251V230.226H118.521C118.02 230.239 117.519 230.186 117.032 230.067C116.684 229.982 116.378 229.773 116.172 229.48C115.949 229.095 115.845 228.654 115.872 228.21V224.978H113.847V224.178H115.872V222.039H116.814V224.178H119.581V224.978H116.814V228.204Z" fill="#4A4B4F"/>
<path d="M121.994 229.979C121.56 229.717 121.214 229.333 120.999 228.875C120.768 228.347 120.649 227.778 120.649 227.202C120.649 226.627 120.768 226.058 120.999 225.53C121.215 225.073 121.556 224.686 121.982 224.414C122.42 224.149 122.924 224.013 123.436 224.02C123.934 224.011 124.424 224.143 124.849 224.402C125.258 224.657 125.586 225.021 125.797 225.454C126.027 225.93 126.142 226.454 126.132 226.982V227.446H121.635V227.728C121.626 227.972 121.666 228.216 121.753 228.444C121.84 228.672 121.972 228.88 122.141 229.057C122.319 229.232 122.531 229.368 122.764 229.457C122.997 229.546 123.246 229.586 123.495 229.574C123.864 229.585 124.228 229.489 124.543 229.298C124.847 229.112 125.089 228.839 125.238 228.516L125.932 228.986C125.741 229.415 125.417 229.771 125.008 230.003C124.549 230.268 124.025 230.401 123.495 230.385C122.967 230.39 122.448 230.249 121.994 229.979ZM122.524 225.037C122.247 225.19 122.016 225.413 121.853 225.683C121.697 225.972 121.616 226.295 121.617 226.624V226.706H125.102V226.577C125.122 226.1 124.956 225.634 124.637 225.278C124.482 225.112 124.292 224.982 124.082 224.896C123.872 224.81 123.646 224.77 123.419 224.778C123.103 224.785 122.794 224.874 122.524 225.037Z" fill="#4A4B4F"/>
<path d="M127.151 229.21L127.739 228.622C128.012 228.926 128.345 229.17 128.717 229.339C129.103 229.504 129.521 229.584 129.941 229.574C130.35 229.595 130.757 229.503 131.118 229.309C131.257 229.233 131.371 229.119 131.448 228.981C131.525 228.843 131.562 228.686 131.554 228.528C131.564 228.409 131.544 228.289 131.494 228.18C131.445 228.07 131.368 227.976 131.271 227.905C131.031 227.762 130.761 227.674 130.483 227.646L129.529 227.505C129.185 227.461 128.846 227.384 128.516 227.276C128.226 227.181 127.966 227.011 127.763 226.782C127.538 226.516 127.424 226.173 127.445 225.824C127.432 225.561 127.487 225.3 127.605 225.064C127.722 224.828 127.898 224.627 128.116 224.478C128.645 224.15 129.26 223.988 129.882 224.014C130.34 223.993 130.797 224.069 131.223 224.237C131.649 224.406 132.035 224.662 132.355 224.99L131.766 225.577C131.528 225.316 131.234 225.112 130.906 224.979C130.577 224.847 130.224 224.79 129.87 224.813C129.488 224.791 129.106 224.877 128.77 225.06C128.648 225.135 128.548 225.241 128.481 225.367C128.414 225.493 128.381 225.635 128.387 225.777C128.376 225.897 128.397 226.018 128.448 226.127C128.498 226.237 128.577 226.331 128.675 226.4C128.914 226.543 129.181 226.631 129.458 226.659L130.412 226.8C130.759 226.848 131.102 226.925 131.436 227.029C131.724 227.127 131.981 227.297 132.184 227.523C132.405 227.791 132.517 228.134 132.496 228.481C132.508 228.753 132.45 229.023 132.329 229.267C132.207 229.511 132.026 229.719 131.801 229.874C131.246 230.235 130.591 230.41 129.929 230.373C129.409 230.396 128.89 230.303 128.409 230.102C127.929 229.901 127.499 229.596 127.151 229.21Z" fill="#4A4B4F"/>
<path d="M75.4781 170.95H77.6032V163.85H75.4781V163.051H78.5391V170.95H80.6465V171.749H75.4604L75.4781 170.95Z" fill="#4A4B4F"/>
<path d="M83.1484 171.502C82.7117 171.242 82.3631 170.857 82.1477 170.397C81.9132 169.871 81.792 169.301 81.792 168.725C81.792 168.149 81.9132 167.579 82.1477 167.053C82.3597 166.593 82.7013 166.205 83.1307 165.936C83.5682 165.67 84.0725 165.533 84.5847 165.542C85.0823 165.534 85.572 165.667 85.9975 165.924C86.4043 166.18 86.7307 166.544 86.9394 166.976C87.1714 167.452 87.2884 167.975 87.2808 168.504V168.951H82.7775V169.263C82.7685 169.507 82.8086 169.75 82.8956 169.978C82.9826 170.206 83.1146 170.415 83.2838 170.591C83.4615 170.766 83.6735 170.902 83.9065 170.991C84.1395 171.08 84.3885 171.12 84.6377 171.108C85.0082 171.119 85.374 171.023 85.6914 170.832C85.9946 170.646 86.2346 170.374 86.3801 170.05L87.0806 170.52C86.8872 170.948 86.5638 171.304 86.1564 171.537C85.6952 171.802 85.1696 171.934 84.6377 171.919C84.1122 171.92 83.5968 171.775 83.1484 171.502ZM83.6723 166.559C83.402 166.72 83.1788 166.949 83.0248 167.223C82.8685 167.512 82.7876 167.835 82.7893 168.164V168.246H86.2801V168.117C86.2978 167.64 86.1313 167.175 85.815 166.818C85.6588 166.653 85.4694 166.524 85.2594 166.438C85.0493 166.351 84.8234 166.311 84.5965 166.318C84.2724 166.315 83.9534 166.398 83.6723 166.559Z" fill="#4A4B4F"/>
<path d="M93.3205 171.749C93.1828 171.761 93.0441 171.745 92.9131 171.701C92.7822 171.657 92.6617 171.586 92.5594 171.493C92.4571 171.401 92.3751 171.288 92.3187 171.162C92.2623 171.036 92.2326 170.9 92.2315 170.762H92.1785C92.0407 171.124 91.7873 171.43 91.4575 171.634C91.1277 171.838 90.7397 171.928 90.3536 171.89C89.8035 171.92 89.262 171.744 88.8349 171.396C88.6404 171.23 88.4862 171.022 88.3842 170.788C88.2822 170.554 88.2351 170.3 88.2462 170.045C88.2462 168.869 89.1116 168.281 90.854 168.281H92.1549V167.694C92.1663 167.51 92.1385 167.326 92.0736 167.154C92.0087 166.982 91.908 166.825 91.7782 166.695C91.4754 166.453 91.0938 166.331 90.7068 166.354C90.3797 166.337 90.0545 166.412 89.7676 166.57C89.4806 166.728 89.2433 166.962 89.0821 167.247L88.4464 166.777C88.633 166.409 88.9264 166.106 89.2882 165.907C89.7385 165.661 90.2466 165.539 90.7598 165.554C91.3767 165.521 91.9843 165.716 92.4669 166.101C92.6761 166.289 92.8407 166.521 92.9486 166.78C93.0566 167.039 93.1052 167.319 93.0909 167.6V170.538C93.0898 170.594 93.1002 170.649 93.1214 170.701C93.1427 170.753 93.1744 170.799 93.2145 170.838C93.2549 170.878 93.3027 170.909 93.3552 170.93C93.4078 170.951 93.464 170.962 93.5206 170.961H93.9445V171.784L93.3205 171.749ZM91.7076 170.779C91.8477 170.698 91.9647 170.583 92.0471 170.444C92.1296 170.305 92.1749 170.147 92.1785 169.986V168.987H90.8776C89.7944 168.987 89.2587 169.292 89.2587 169.903V170.15C89.2518 170.286 89.2788 170.422 89.3374 170.545C89.3959 170.668 89.4842 170.775 89.5943 170.856C89.866 171.034 90.1879 171.12 90.5126 171.102C90.9347 171.12 91.352 171.007 91.7076 170.779Z" fill="#4A4B4F"/>
<path d="M94.9391 170.95H96.9877V166.483H94.8214V165.684H96.9877V165.096C96.9618 164.653 97.0662 164.211 97.2879 163.826C97.4953 163.535 97.8 163.326 98.1473 163.239C98.6345 163.12 99.1354 163.067 99.6367 163.08H100.367V163.879H99.6249C99.2881 163.872 98.9514 163.894 98.6183 163.944C98.5151 163.962 98.4166 164 98.3286 164.056C98.2406 164.113 98.1649 164.187 98.1061 164.273C97.9699 164.527 97.9087 164.815 97.9295 165.102V165.69H100.367V166.489H97.9295V170.956H100.072V171.755H94.9156L94.9391 170.95Z" fill="#4A4B4F"/>
<path d="M108.066 163.051H109.008V166.671H109.055C109.189 166.325 109.427 166.03 109.738 165.828C110.049 165.625 110.415 165.525 110.786 165.543C111.069 165.526 111.353 165.57 111.618 165.671C111.883 165.772 112.123 165.929 112.322 166.13C112.733 166.6 112.944 167.212 112.911 167.835V171.725H111.969V167.999C112.004 167.557 111.874 167.118 111.604 166.765C111.466 166.623 111.299 166.513 111.114 166.442C110.929 166.371 110.731 166.341 110.533 166.354C110.156 166.343 109.784 166.448 109.467 166.653C109.325 166.747 109.21 166.876 109.132 167.027C109.055 167.179 109.018 167.348 109.026 167.517V171.725H108.084L108.066 163.051Z" fill="#4A4B4F"/>
<path d="M119.216 171.748C119.078 171.759 118.94 171.742 118.81 171.698C118.68 171.654 118.56 171.583 118.458 171.49C118.357 171.398 118.275 171.285 118.219 171.159C118.163 171.034 118.134 170.898 118.132 170.761H118.074C117.936 171.123 117.682 171.43 117.353 171.634C117.023 171.837 116.635 171.927 116.249 171.889C115.699 171.918 115.158 171.742 114.73 171.395C114.536 171.229 114.383 171.021 114.281 170.787C114.179 170.553 114.131 170.299 114.141 170.044C114.141 168.868 115.013 168.281 116.755 168.281H118.05V167.693C118.063 167.509 118.036 167.325 117.971 167.152C117.906 166.98 117.804 166.823 117.673 166.694C117.372 166.45 116.989 166.328 116.602 166.353C116.275 166.337 115.95 166.412 115.663 166.569C115.376 166.727 115.138 166.961 114.977 167.246L114.341 166.776C114.531 166.408 114.826 166.105 115.189 165.906C115.639 165.659 116.147 165.537 116.661 165.554C117.276 165.52 117.882 165.715 118.362 166.1C118.573 166.286 118.74 166.518 118.849 166.778C118.958 167.037 119.007 167.318 118.992 167.599V170.537C118.992 170.65 119.037 170.757 119.116 170.837C119.195 170.916 119.303 170.961 119.416 170.961H119.84V171.783L119.216 171.748ZM117.603 170.778C117.744 170.699 117.861 170.583 117.944 170.444C118.026 170.305 118.071 170.147 118.074 169.985V168.986H116.779C115.695 168.986 115.154 169.291 115.154 169.903V170.15C115.147 170.286 115.174 170.421 115.232 170.544C115.291 170.668 115.379 170.774 115.489 170.855C115.763 171.033 116.087 171.12 116.414 171.102C116.834 171.12 117.25 171.007 117.603 170.778Z" fill="#4A4B4F"/>
<path d="M120.676 170.703L121.311 170.15C121.584 170.454 121.916 170.698 122.288 170.867C122.675 171.032 123.093 171.112 123.513 171.102C123.922 171.123 124.329 171.031 124.69 170.838C124.829 170.761 124.943 170.647 125.02 170.509C125.097 170.371 125.134 170.214 125.126 170.056C125.136 169.937 125.115 169.817 125.066 169.708C125.017 169.599 124.94 169.504 124.843 169.433C124.603 169.29 124.333 169.202 124.054 169.175L123.101 169.033C122.757 168.989 122.418 168.912 122.088 168.804C121.798 168.71 121.538 168.539 121.335 168.311C121.11 168.044 120.996 167.701 121.017 167.353C121.004 167.09 121.059 166.828 121.177 166.592C121.294 166.357 121.47 166.155 121.688 166.007C122.217 165.678 122.832 165.516 123.454 165.542C123.912 165.521 124.369 165.598 124.795 165.766C125.221 165.934 125.607 166.19 125.926 166.518L125.338 167.106C125.1 166.844 124.806 166.64 124.477 166.508C124.149 166.375 123.795 166.319 123.442 166.342C123.059 166.32 122.678 166.405 122.341 166.589C122.22 166.664 122.12 166.769 122.053 166.895C121.986 167.021 121.953 167.163 121.959 167.306C121.948 167.426 121.969 167.546 122.02 167.656C122.07 167.765 122.149 167.859 122.247 167.929C122.486 168.071 122.753 168.16 123.03 168.187L123.984 168.328C124.331 168.376 124.674 168.453 125.008 168.557C125.296 168.655 125.553 168.825 125.756 169.051C125.977 169.32 126.089 169.662 126.068 170.009C126.08 170.281 126.022 170.552 125.901 170.795C125.779 171.039 125.598 171.248 125.373 171.402C124.818 171.763 124.162 171.938 123.501 171.902C122.97 171.927 122.44 171.832 121.951 171.625C121.462 171.417 121.026 171.102 120.676 170.703Z" fill="#4A4B4F"/>
<path d="M127.492 163.051H128.434V166.671H128.481C128.614 166.325 128.853 166.03 129.164 165.828C129.474 165.625 129.841 165.525 130.212 165.543C130.495 165.526 130.779 165.57 131.043 165.671C131.308 165.772 131.549 165.929 131.748 166.13C132.159 166.6 132.37 167.212 132.337 167.835V171.725H131.395V167.999C131.43 167.557 131.3 167.118 131.03 166.765C130.892 166.623 130.725 166.513 130.54 166.442C130.355 166.371 130.156 166.341 129.959 166.354C129.581 166.343 129.21 166.448 128.893 166.653C128.751 166.747 128.635 166.876 128.558 167.027C128.481 167.179 128.444 167.348 128.452 167.517V171.725H127.51L127.492 163.051Z" fill="#4A4B4F"/>
<path d="M75.6958 111.802V105.737H76.6318V106.724H76.6789C76.8139 106.372 77.0582 106.073 77.376 105.87C77.6938 105.667 78.0684 105.571 78.4448 105.596C78.728 105.58 79.0112 105.624 79.2759 105.726C79.5407 105.827 79.7811 105.983 79.9813 106.183C80.3894 106.655 80.6001 107.265 80.5699 107.888V111.778H79.6222V108.052C79.6555 107.611 79.528 107.173 79.2631 106.818C79.1244 106.677 78.957 106.567 78.7722 106.496C78.5873 106.425 78.3894 106.395 78.1917 106.407C77.8124 106.396 77.4386 106.5 77.1204 106.706C76.9781 106.8 76.8627 106.929 76.7853 107.08C76.7079 107.232 76.6712 107.401 76.6789 107.57V111.778L75.6958 111.802Z" fill="#4A4B4F"/>
<path d="M83.0777 111.555C82.6576 111.289 82.3257 110.904 82.1241 110.45C81.6844 109.373 81.6844 108.166 82.1241 107.088C82.3272 106.635 82.6587 106.251 83.0777 105.984C83.5216 105.718 84.0319 105.583 84.5494 105.596C85.0651 105.582 85.5738 105.717 86.0152 105.984C86.4342 106.251 86.7657 106.635 86.9688 107.088C87.4085 108.166 87.4085 109.373 86.9688 110.45C86.7672 110.904 86.4354 111.289 86.0152 111.555C85.5738 111.822 85.0651 111.956 84.5494 111.943C84.0319 111.956 83.5216 111.821 83.0777 111.555ZM85.8268 110.644C85.9971 110.447 86.1269 110.219 86.2087 109.972C86.2905 109.724 86.3228 109.464 86.3036 109.204V108.334C86.3417 107.81 86.1702 107.293 85.8268 106.894C85.4748 106.58 85.0189 106.406 84.5465 106.406C84.074 106.406 83.6181 106.58 83.2661 106.894C82.9227 107.293 82.7513 107.81 82.7893 108.334V109.204C82.7701 109.464 82.8024 109.724 82.8842 109.972C82.966 110.219 83.0958 110.447 83.2661 110.644C83.6181 110.959 84.074 111.133 84.5465 111.133C85.0189 111.133 85.4748 110.959 85.8268 110.644Z" fill="#4A4B4F"/>
<path d="M92.4963 110.814H92.4198C92.2558 111.166 91.9908 111.461 91.6586 111.662C91.3263 111.863 90.9418 111.96 90.5538 111.943C90.2128 111.959 89.873 111.891 89.5648 111.744C89.2566 111.598 88.9897 111.377 88.7878 111.102C88.381 110.392 88.167 109.588 88.167 108.769C88.167 107.951 88.381 107.146 88.7878 106.436C88.9904 106.162 89.2575 105.942 89.5655 105.795C89.8735 105.649 90.2129 105.58 90.5538 105.595C90.9418 105.578 91.3263 105.676 91.6586 105.877C91.9908 106.077 92.2558 106.372 92.4198 106.724H92.4728V103.104H93.4088V111.802H92.4728L92.4963 110.814ZM92.049 110.779C92.1933 110.675 92.3097 110.537 92.3877 110.377C92.4657 110.217 92.5031 110.04 92.4963 109.862V107.676C92.502 107.498 92.4643 107.322 92.3863 107.162C92.3084 107.002 92.1926 106.864 92.049 106.759C91.7249 106.534 91.337 106.418 90.9423 106.43C90.7073 106.417 90.4721 106.454 90.2527 106.539C90.0334 106.624 89.8349 106.755 89.6708 106.924C89.3473 107.288 89.1802 107.765 89.2057 108.252V109.316C89.1796 109.802 89.3467 110.28 89.6708 110.644C89.8349 110.812 90.0334 110.944 90.2527 111.029C90.4721 111.114 90.7073 111.151 90.9423 111.138C91.3407 111.144 91.7299 111.018 92.049 110.779Z" fill="#4A4B4F"/>
<path d="M96.0931 111.555C95.6595 111.293 95.3133 110.908 95.0983 110.45C94.8673 109.922 94.748 109.353 94.748 108.778C94.748 108.202 94.8673 107.633 95.0983 107.106C95.3139 106.648 95.6547 106.261 96.0813 105.989C96.5194 105.724 97.0233 105.588 97.5353 105.595C98.033 105.586 98.5231 105.718 98.9481 105.977C99.3567 106.232 99.6851 106.597 99.8959 107.029C100.126 107.505 100.241 108.029 100.231 108.557V109.004H95.734V109.315C95.725 109.559 95.7651 109.803 95.8521 110.031C95.939 110.259 96.071 110.467 96.2403 110.644C96.418 110.819 96.63 110.955 96.863 111.044C97.096 111.133 97.345 111.173 97.5942 111.161C97.9629 111.172 98.3268 111.076 98.642 110.885C98.9459 110.698 99.1877 110.426 99.3366 110.103L100.031 110.573C99.8398 111.002 99.516 111.358 99.107 111.59C98.6482 111.855 98.1242 111.988 97.5942 111.972C97.0649 111.973 96.5456 111.829 96.0931 111.555ZM96.6229 106.612C96.3526 106.773 96.1294 107.002 95.9754 107.276C95.8191 107.565 95.7382 107.888 95.7399 108.216V108.299H99.2248V108.169C99.245 107.693 99.0782 107.227 98.7597 106.871C98.6042 106.705 98.415 106.575 98.2047 106.489C97.9945 106.403 97.7683 106.362 97.5412 106.371C97.2191 106.368 96.9021 106.452 96.6229 106.612Z" fill="#4A4B4F"/>
<path d="M108.066 103.104H109.008V106.724H109.055C109.189 106.378 109.427 106.083 109.738 105.88C110.049 105.678 110.415 105.578 110.786 105.595C111.069 105.579 111.353 105.623 111.618 105.724C111.883 105.825 112.123 105.982 112.322 106.183C112.733 106.653 112.944 107.265 112.911 107.888V111.778H111.969V108.052C112.004 107.61 111.874 107.17 111.604 106.818C111.466 106.676 111.299 106.565 111.114 106.494C110.929 106.423 110.731 106.393 110.533 106.406C110.156 106.396 109.784 106.501 109.467 106.706C109.325 106.8 109.21 106.928 109.132 107.08C109.055 107.231 109.018 107.4 109.026 107.57V111.778H108.084L108.066 103.104Z" fill="#4A4B4F"/>
<path d="M119.216 111.802C119.078 111.813 118.94 111.796 118.81 111.752C118.68 111.707 118.56 111.637 118.458 111.544C118.357 111.451 118.275 111.339 118.219 111.213C118.163 111.088 118.134 110.952 118.132 110.814H118.074C117.936 111.177 117.682 111.483 117.353 111.687C117.023 111.891 116.635 111.981 116.249 111.943C115.699 111.972 115.158 111.796 114.73 111.449C114.536 111.282 114.383 111.074 114.281 110.84C114.179 110.606 114.131 110.352 114.141 110.097C114.141 108.922 115.013 108.334 116.755 108.334H118.05V107.747C118.063 107.563 118.036 107.378 117.971 107.206C117.906 107.034 117.804 106.877 117.673 106.747C117.372 106.504 116.989 106.382 116.602 106.407C116.275 106.39 115.95 106.465 115.663 106.623C115.376 106.781 115.138 107.015 114.977 107.3L114.341 106.83C114.531 106.462 114.826 106.159 115.189 105.96C115.639 105.713 116.147 105.591 116.661 105.607C117.276 105.574 117.882 105.768 118.362 106.154C118.573 106.34 118.74 106.572 118.849 106.831C118.958 107.091 119.007 107.371 118.992 107.653V110.591C118.992 110.703 119.037 110.811 119.116 110.89C119.195 110.97 119.303 111.014 119.416 111.014H119.84V111.837L119.216 111.802ZM117.603 110.832C117.744 110.752 117.861 110.637 117.944 110.498C118.026 110.359 118.071 110.2 118.074 110.039V109.04H116.779C115.695 109.04 115.154 109.345 115.154 109.956V110.203C115.147 110.339 115.174 110.475 115.232 110.598C115.291 110.721 115.379 110.828 115.489 110.908C115.763 111.087 116.087 111.173 116.414 111.155C116.834 111.174 117.25 111.061 117.603 110.832Z" fill="#4A4B4F"/>
<path d="M120.676 110.755L121.311 110.203C121.584 110.507 121.916 110.751 122.288 110.92C122.675 111.085 123.093 111.165 123.513 111.155C123.922 111.176 124.329 111.084 124.69 110.891C124.829 110.814 124.943 110.7 125.02 110.562C125.097 110.424 125.134 110.267 125.126 110.109C125.136 109.99 125.115 109.87 125.066 109.761C125.017 109.651 124.94 109.557 124.843 109.486C124.603 109.343 124.333 109.255 124.054 109.227L123.101 109.086C122.757 109.042 122.418 108.965 122.088 108.857C121.798 108.762 121.538 108.592 121.335 108.363C121.11 108.097 120.996 107.754 121.017 107.405C121.004 107.142 121.059 106.881 121.177 106.645C121.294 106.409 121.47 106.208 121.688 106.06C122.217 105.731 122.832 105.569 123.454 105.595C123.912 105.574 124.369 105.65 124.795 105.818C125.221 105.987 125.607 106.243 125.926 106.571L125.338 107.159C125.1 106.897 124.806 106.693 124.477 106.56C124.149 106.428 123.795 106.371 123.442 106.394C123.059 106.372 122.678 106.458 122.341 106.641C122.22 106.716 122.12 106.822 122.053 106.948C121.986 107.074 121.953 107.216 121.959 107.358C121.948 107.478 121.969 107.599 122.02 107.708C122.07 107.818 122.149 107.912 122.247 107.981C122.486 108.124 122.753 108.213 123.03 108.24L123.984 108.381C124.331 108.429 124.674 108.506 125.008 108.61C125.296 108.708 125.553 108.878 125.756 109.104C125.977 109.372 126.089 109.715 126.068 110.062C126.08 110.334 126.022 110.604 125.901 110.848C125.779 111.092 125.598 111.3 125.373 111.455C124.818 111.816 124.162 111.991 123.501 111.954C122.97 111.98 122.44 111.885 121.951 111.677C121.462 111.47 121.026 111.155 120.676 110.755Z" fill="#4A4B4F"/>
<path d="M127.492 103.104H128.434V106.724H128.481C128.614 106.378 128.853 106.083 129.164 105.88C129.474 105.678 129.841 105.578 130.212 105.595C130.495 105.579 130.779 105.623 131.043 105.724C131.308 105.825 131.549 105.982 131.748 106.183C132.159 106.653 132.37 107.265 132.337 107.888V111.778H131.395V108.052C131.43 107.61 131.3 107.17 131.03 106.818C130.892 106.676 130.725 106.565 130.54 106.494C130.355 106.423 130.156 106.393 129.959 106.406C129.581 106.396 129.21 106.501 128.893 106.706C128.751 106.8 128.635 106.928 128.558 107.08C128.481 107.231 128.444 107.4 128.452 107.57V111.778H127.51L127.492 103.104Z" fill="#4A4B4F"/>
<path d="M194.494 3.06743L193.799 4.44268L191.833 8.016L189.879 4.44268L189.184 3.07918H188.89V9.99073H187.924V1.7627H189.455L191.809 6.18233H191.856L194.211 1.7627H195.742V9.99073H194.788V3.06743H194.494Z" fill="#4A4B4F"/>
<path d="M198.673 9.73219C198.238 9.47201 197.891 9.08699 197.678 8.62728C197.435 8.10511 197.316 7.53384 197.331 6.95817C197.319 6.38021 197.44 5.80718 197.684 5.28317C197.853 4.94732 198.089 4.64974 198.378 4.40892C198.667 4.1681 199.002 3.98921 199.363 3.88337C199.724 3.77752 200.104 3.747 200.477 3.79369C200.85 3.84038 201.21 3.96328 201.534 4.15476C201.949 4.40736 202.284 4.7721 202.499 5.20677C202.729 5.68291 202.844 6.20629 202.835 6.73483V7.1815H198.32V7.4636C198.308 7.7101 198.348 7.95635 198.437 8.18642C198.527 8.41648 198.664 8.62524 198.839 8.79919C199.014 8.97314 199.224 9.1084 199.455 9.19622C199.686 9.28405 199.933 9.32248 200.18 9.30903C200.548 9.31646 200.911 9.22077 201.228 9.03281C201.528 8.83521 201.765 8.55575 201.911 8.22763L202.605 8.69781C202.412 9.12521 202.088 9.48094 201.681 9.71456C201.22 9.97548 200.698 10.1075 200.168 10.0966C199.646 10.1141 199.129 9.98801 198.673 9.73219ZM199.203 4.78949C198.929 4.94565 198.704 5.17584 198.555 5.45361C198.396 5.74103 198.314 6.06532 198.32 6.39396V6.46448H201.805V6.34694C201.818 5.86793 201.645 5.40235 201.322 5.04809C201.171 4.88764 200.989 4.76035 200.786 4.67433C200.583 4.58831 200.365 4.54546 200.145 4.54853C199.814 4.53928 199.488 4.62277 199.203 4.78949Z" fill="#4A4B4F"/>
<path d="M203.924 9.17986H205.69V4.70145H203.924V3.91391H206.62V5.44198H206.679C206.777 4.98287 207.039 4.57497 207.416 4.29396C207.793 4.01295 208.259 3.87792 208.728 3.91391H209.575V4.85426H208.433C208.189 4.83783 207.944 4.87218 207.714 4.95514C207.484 5.0381 207.274 5.16786 207.097 5.33619C206.939 5.49723 206.815 5.68858 206.733 5.89868C206.651 6.10879 206.613 6.33329 206.62 6.55864V9.17986H208.975V9.99091H203.901L203.924 9.17986Z" fill="#4A4B4F"/>
<path d="M210.741 1.28125H211.683V6.77052H211.73L212.789 5.77141L214.814 3.91422H215.992L213.472 6.26509L216.251 9.99121H215.073L212.719 6.84105L211.671 7.79315V9.99121H210.741V1.28125Z" fill="#4A4B4F"/>
<path d="M216.904 9.18016H219.029V2.08054H216.904V1.28125H219.965V9.18016H222.09V9.99121H216.904V9.18016Z" fill="#4A4B4F"/>
<path d="M224.574 9.73302C224.139 9.47151 223.79 9.08703 223.574 8.62811C223.333 8.10503 223.214 7.5344 223.226 6.959C223.217 6.38256 223.34 5.81162 223.585 5.28988C223.797 4.83018 224.139 4.44214 224.568 4.17322C225.003 3.9191 225.498 3.78516 226.002 3.78516C226.506 3.78516 227 3.9191 227.435 4.17322C227.849 4.41877 228.184 4.77775 228.401 5.2076C228.633 5.68325 228.75 6.20665 228.742 6.73567V7.18233H224.239V7.46443C224.23 7.70832 224.271 7.95143 224.358 8.17951C224.445 8.40759 224.576 8.61605 224.745 8.79267C224.923 8.96752 225.135 9.10374 225.368 9.19275C225.601 9.28176 225.85 9.32163 226.099 9.30986C226.469 9.31808 226.834 9.22238 227.153 9.03364C227.446 8.8349 227.675 8.55511 227.812 8.22847L228.512 8.69864C228.319 9.12604 227.996 9.48177 227.588 9.71539C227.126 9.97734 226.601 10.1093 226.07 10.0974C225.547 10.1152 225.03 9.98913 224.574 9.73302ZM225.098 4.79032C224.827 4.95008 224.603 5.17938 224.451 5.45444C224.294 5.74294 224.213 6.0665 224.215 6.39479V6.46532H227.706V6.34777C227.72 5.86877 227.547 5.40318 227.223 5.04892C227.073 4.88848 226.89 4.76118 226.687 4.67516C226.485 4.58914 226.266 4.54629 226.046 4.54936C225.714 4.54179 225.386 4.62513 225.098 4.79032Z" fill="#4A4B4F"/>
<path d="M238.82 7.95723C238.79 8.25451 238.852 8.55372 238.996 8.8153C239.054 8.90272 239.13 8.97715 239.218 9.03382C239.306 9.0905 239.405 9.12816 239.509 9.14442C239.842 9.19434 240.178 9.21597 240.515 9.20907H241.257V9.99073H240.521C240.022 10.0044 239.523 9.95099 239.038 9.83205C238.689 9.74782 238.383 9.53869 238.178 9.24433C237.951 8.8612 237.845 8.41905 237.872 7.97486V4.70128H235.853V3.91374H237.872V1.7627H238.82V3.91374H241.581V4.70128H238.82V7.95723Z" fill="#4A4B4F"/>
<path d="M242.776 9.18053H244.542V4.70213H242.776V3.91459H245.472V5.44265H245.525C245.626 4.98366 245.889 4.57639 246.266 4.29567C246.644 4.01495 247.11 3.87963 247.579 3.91459H248.421V4.85494H247.285C247.04 4.83768 246.794 4.87162 246.563 4.9546C246.332 5.03758 246.121 5.16778 245.943 5.33686C245.785 5.4982 245.663 5.68973 245.582 5.89986C245.501 6.10999 245.463 6.33434 245.472 6.55932V9.18053H247.826V9.99158H242.752L242.776 9.18053Z" fill="#4A4B4F"/>
<path d="M250.469 9.7331C250.037 9.46962 249.691 9.08553 249.475 8.6282C249.234 8.10511 249.115 7.53449 249.127 6.95908C249.115 6.38113 249.236 5.8081 249.48 5.28409C249.695 4.81636 250.044 4.42295 250.483 4.15397C250.923 3.88499 251.432 3.7526 251.947 3.77366C252.445 3.76438 252.935 3.8969 253.36 4.15567C253.767 4.40995 254.094 4.77485 254.302 5.20769C254.532 5.68383 254.647 6.2072 254.637 6.73575V7.18241H250.14V7.46452C250.131 7.70841 250.172 7.95152 250.259 8.17959C250.346 8.40767 250.477 8.61613 250.646 8.79276C250.824 8.9676 251.036 9.10382 251.269 9.19283C251.502 9.28184 251.751 9.32172 252 9.30995C252.368 9.31801 252.731 9.22228 253.048 9.03372C253.343 8.83533 253.574 8.55561 253.713 8.22855L254.408 8.69872C254.216 9.12747 253.892 9.48378 253.483 9.71547C253.02 9.96805 252.501 10.1004 251.973 10.1004C251.446 10.1004 250.927 9.96805 250.464 9.71547L250.469 9.7331ZM250.999 4.79041C250.728 4.95017 250.504 5.17946 250.352 5.45453C250.195 5.74303 250.114 6.06658 250.116 6.39487V6.4654H253.601V6.34786C253.619 5.86916 253.448 5.40253 253.124 5.049C252.974 4.88768 252.792 4.7598 252.589 4.67371C252.386 4.58763 252.167 4.54528 251.947 4.54944C251.615 4.54157 251.287 4.62493 250.999 4.79041Z" fill="#4A4B4F"/>
<path d="M256.945 9.7331C256.512 9.46962 256.166 9.08553 255.95 8.6282C255.71 8.10511 255.591 7.53449 255.603 6.95908C255.591 6.38113 255.711 5.8081 255.956 5.28409C256.17 4.81636 256.52 4.42295 256.959 4.15397C257.398 3.88499 257.907 3.7526 258.422 3.77366C258.92 3.76438 259.41 3.8969 259.835 4.15567C260.243 4.40995 260.569 4.77485 260.777 5.20769C261.007 5.68383 261.122 6.2072 261.113 6.73575V7.18241H256.615V7.46452C256.607 7.70841 256.647 7.95152 256.734 8.17959C256.821 8.40767 256.953 8.61613 257.121 8.79276C257.299 8.9676 257.511 9.10382 257.744 9.19283C257.977 9.28184 258.226 9.32172 258.475 9.30995C258.844 9.31801 259.207 9.22228 259.523 9.03372C259.818 8.83533 260.049 8.55561 260.188 8.22855L260.883 8.69872C260.692 9.12747 260.368 9.48378 259.959 9.71547C259.496 9.96805 258.976 10.1004 258.449 10.1004C257.921 10.1004 257.402 9.96805 256.939 9.71547L256.945 9.7331ZM257.475 4.79041C257.203 4.95017 256.98 5.17946 256.827 5.45453C256.67 5.74303 256.589 6.06658 256.592 6.39487V6.4654H260.076V6.34786C260.095 5.86916 259.923 5.40253 259.6 5.049C259.45 4.88768 259.267 4.7598 259.064 4.67371C258.862 4.58763 258.643 4.54528 258.422 4.54944C258.09 4.54157 257.762 4.62493 257.475 4.79041Z" fill="#4A4B4F"/>
<path d="M268.918 1.28125H269.86V4.90159H269.907C270.04 4.55582 270.279 4.26072 270.59 4.05817C270.9 3.85561 271.267 3.7559 271.638 3.77317C271.921 3.75646 272.204 3.80024 272.469 3.90158C272.734 4.00293 272.974 4.15951 273.174 4.36089C273.585 4.83061 273.797 5.44223 273.763 6.06526V9.99121H272.821V6.25333C272.856 5.81107 272.726 5.3715 272.456 5.01913C272.319 4.87606 272.151 4.765 271.966 4.69389C271.781 4.62277 271.582 4.59335 271.384 4.60773C271.007 4.59737 270.635 4.70192 270.319 4.90746C270.177 5.00096 270.061 5.12973 269.984 5.28118C269.906 5.43263 269.87 5.60156 269.877 5.77141V9.99121H268.936L268.918 1.28125Z" fill="#4A4B4F"/>
<path d="M280.067 9.99135C279.93 10.0027 279.792 9.98562 279.662 9.94124C279.532 9.89687 279.412 9.82614 279.31 9.73347C279.209 9.64079 279.127 9.52818 279.071 9.40266C279.015 9.27714 278.985 9.14142 278.984 9.00399H278.925C278.788 9.36609 278.534 9.67281 278.204 9.87677C277.875 10.0807 277.487 10.1706 277.101 10.1324C276.551 10.1612 276.009 9.98527 275.582 9.63872C275.389 9.47176 275.235 9.26362 275.134 9.02967C275.032 8.79571 274.984 8.54191 274.993 8.28698C274.993 7.11154 275.864 6.52383 277.607 6.52383H278.902V5.93611C278.915 5.75228 278.888 5.56778 278.823 5.3953C278.758 5.22282 278.656 5.06646 278.525 4.93699C278.225 4.6907 277.841 4.5687 277.454 4.59611C277.127 4.57994 276.801 4.65492 276.514 4.81268C276.228 4.97044 275.99 5.20476 275.829 5.48944L275.193 5.01927C275.385 4.63073 275.697 4.31362 276.082 4.11419C276.532 3.86715 277.04 3.74536 277.554 3.76156C278.169 3.72786 278.775 3.92254 279.255 4.30813C279.466 4.49447 279.633 4.72603 279.742 4.98554C279.851 5.24504 279.9 5.52578 279.885 5.80681V8.74539C279.885 8.85762 279.93 8.96525 280.009 9.04461C280.089 9.12397 280.196 9.16855 280.309 9.16855H280.733V9.99135H280.067ZM278.437 9.00987C278.577 8.92914 278.694 8.81373 278.776 8.67476C278.859 8.53579 278.904 8.37795 278.908 8.21645V7.21733H277.613C276.53 7.21733 275.988 7.52294 275.988 8.13417V8.38101C275.981 8.51711 276.008 8.65281 276.067 8.77591C276.125 8.899 276.213 9.00565 276.323 9.08627C276.597 9.26465 276.921 9.35113 277.248 9.33311C277.668 9.35132 278.084 9.23834 278.437 9.00987Z" fill="#4A4B4F"/>
<path d="M281.504 8.93247L282.139 8.38001C282.422 8.68591 282.764 8.93005 283.146 9.09703C283.533 9.26179 283.95 9.34195 284.37 9.33211C284.78 9.3527 285.187 9.26125 285.548 9.06764C285.686 8.99098 285.8 8.87712 285.877 8.73896C285.954 8.60081 285.991 8.44389 285.983 8.28598C285.994 8.16661 285.974 8.04648 285.924 7.9373C285.875 7.82811 285.798 7.73361 285.701 7.663C285.46 7.52002 285.191 7.43173 284.912 7.4044L283.958 7.26335C283.614 7.21907 283.275 7.14233 282.946 7.03414C282.657 6.93484 282.398 6.76514 282.192 6.54046C281.968 6.27348 281.854 5.93064 281.874 5.58248C281.862 5.31959 281.917 5.05784 282.034 4.82222C282.152 4.5866 282.328 4.38498 282.545 4.23661C283.073 3.9057 283.689 3.7437 284.311 3.77231C284.769 3.75021 285.227 3.82579 285.653 3.99402C286.079 4.16224 286.465 4.41925 286.784 4.74792L286.195 5.33564C285.959 5.07183 285.665 4.86574 285.337 4.73327C285.008 4.6008 284.653 4.54549 284.3 4.57161C283.917 4.5494 283.535 4.63492 283.199 4.81845C283.077 4.89337 282.978 4.99925 282.91 5.12524C282.843 5.25124 282.811 5.39281 282.816 5.53546C282.806 5.65536 282.827 5.77585 282.878 5.88508C282.928 5.9943 283.007 6.08851 283.105 6.15844C283.345 6.29877 283.611 6.38689 283.888 6.41704L284.841 6.55809C285.189 6.60045 285.533 6.67723 285.866 6.7873C286.153 6.88493 286.411 7.05497 286.613 7.28098C286.836 7.54884 286.947 7.89158 286.925 8.23896C286.936 8.51065 286.877 8.7806 286.756 9.02399C286.635 9.26738 286.454 9.4764 286.231 9.63185C285.676 9.99288 285.02 10.1679 284.359 10.1314C283.823 10.1613 283.287 10.0688 282.792 9.86105C282.298 9.65331 281.857 9.33574 281.504 8.93247Z" fill="#4A4B4F"/>
<path d="M288.344 1.28125H289.286V4.90159H289.333C289.466 4.55582 289.705 4.26072 290.015 4.05817C290.326 3.85561 290.693 3.7559 291.063 3.77317C291.347 3.75646 291.63 3.80024 291.895 3.90158C292.16 4.00293 292.4 4.15951 292.6 4.36089C293.011 4.83061 293.222 5.44223 293.188 6.06526V9.99121H292.247V6.25333C292.282 5.81107 292.152 5.3715 291.882 5.01913C291.744 4.87606 291.577 4.765 291.392 4.69389C291.207 4.62277 291.008 4.59335 290.81 4.60773C290.433 4.59737 290.061 4.70192 289.745 4.90746C289.603 5.00096 289.487 5.12973 289.41 5.28118C289.332 5.43263 289.296 5.60156 289.303 5.77141V9.99121H288.361L288.344 1.28125Z" fill="#4A4B4F"/>
<path d="M183.445 151.548H154.011V180.934H183.445V151.548Z" fill="white" stroke="#1A1B1F" stroke-miterlimit="10"/>
<path d="M233.481 151.548H204.048V180.934H233.481V151.548Z" fill="white" stroke="#1A1B1F" stroke-miterlimit="10"/>
<path d="M283.811 151.548H254.378V180.934H283.811V151.548Z" fill="white" stroke="#1A1B1F" stroke-miterlimit="10"/>
<path d="M334.142 151.548H304.709V180.934H334.142V151.548Z" fill="white" stroke="#1A1B1F" stroke-miterlimit="10"/>
<path d="M171.707 171.749L170.712 168.475H166.674L165.702 171.749H164.266L167.798 160.265H169.629L173.161 171.749H171.707ZM168.763 161.728H168.616L167.003 167.276H170.382L168.763 161.728Z" fill="#1A1B1F"/>
<path d="M215.267 160.264H219.17C220.019 160.219 220.852 160.509 221.49 161.069C221.775 161.349 221.997 161.686 222.143 162.058C222.289 162.429 222.356 162.828 222.337 163.226C222.364 163.796 222.196 164.358 221.861 164.819C221.522 165.24 221.061 165.546 220.542 165.695V165.736C221.169 165.851 221.741 166.167 222.173 166.635C222.586 167.141 222.796 167.782 222.761 168.434C222.768 169.019 222.628 169.596 222.355 170.114C222.096 170.599 221.712 171.005 221.242 171.29C220.767 171.582 220.217 171.733 219.659 171.725H215.262L215.267 160.264ZM219.023 165.248C219.514 165.281 220.001 165.141 220.401 164.854C220.567 164.709 220.698 164.528 220.781 164.324C220.865 164.12 220.9 163.899 220.883 163.679V163.038C220.898 162.819 220.863 162.598 220.779 162.395C220.695 162.191 220.566 162.009 220.401 161.863C220.004 161.569 219.516 161.426 219.023 161.457H216.669V165.242L219.023 165.248ZM219.253 170.538C219.792 170.573 220.327 170.415 220.76 170.091C220.943 169.93 221.087 169.729 221.18 169.504C221.273 169.279 221.312 169.035 221.295 168.792V168.116C221.312 167.873 221.273 167.629 221.18 167.404C221.087 167.179 220.943 166.978 220.76 166.817C220.325 166.496 219.792 166.338 219.253 166.371H216.627V170.538H219.253Z" fill="#1A1B1F"/>
<path d="M266.346 170.438C265.651 169.422 265.298 167.952 265.298 166.019C265.298 164.085 265.651 162.616 266.346 161.599C266.691 161.098 267.16 160.694 267.708 160.427C268.256 160.161 268.863 160.04 269.471 160.077C270.274 160.028 271.067 160.272 271.702 160.765C272.274 161.268 272.723 161.895 273.015 162.598L271.838 163.139C271.651 162.618 271.349 162.146 270.955 161.758C270.543 161.417 270.017 161.247 269.483 161.282C269.088 161.259 268.693 161.341 268.339 161.518C267.984 161.695 267.683 161.963 267.464 162.293C266.962 163.132 266.722 164.102 266.775 165.078V166.959C266.722 167.935 266.962 168.905 267.464 169.745C267.683 170.075 267.984 170.342 268.339 170.519C268.693 170.697 269.088 170.778 269.483 170.756C270.017 170.79 270.543 170.62 270.955 170.28C271.349 169.891 271.651 169.419 271.838 168.899L273.015 169.439C272.722 170.143 272.273 170.772 271.702 171.279C271.065 171.767 270.273 172.009 269.471 171.961C268.863 171.998 268.256 171.877 267.708 171.61C267.16 171.343 266.691 170.94 266.346 170.438Z" fill="#1A1B1F"/>
<path d="M316.04 160.264H319.255C319.858 160.225 320.461 160.337 321.01 160.59C321.559 160.842 322.036 161.227 322.398 161.71C323.093 162.68 323.446 164.108 323.446 166.006C323.446 167.905 323.093 169.339 322.398 170.303C322.036 170.786 321.559 171.171 321.01 171.423C320.461 171.676 319.858 171.788 319.255 171.748H316.04V160.264ZM319.19 170.55C319.587 170.571 319.984 170.496 320.345 170.329C320.707 170.161 321.021 169.908 321.262 169.592C321.789 168.8 322.047 167.861 321.998 166.912V165.148C322.058 164.196 321.808 163.25 321.285 162.451C321.045 162.134 320.73 161.881 320.369 161.714C320.008 161.547 319.611 161.471 319.213 161.493H317.447V170.579L319.19 170.55Z" fill="#1A1B1F"/>
<path d="M183.445 225.013C183.445 216.899 176.856 210.32 168.728 210.32C160.6 210.32 154.011 216.899 154.011 225.013C154.011 233.128 160.6 239.706 168.728 239.706C176.856 239.706 183.445 233.128 183.445 225.013Z" fill="white" stroke="#1A1B1F" stroke-miterlimit="10"/>
<path d="M233.481 225.013C233.481 216.899 226.892 210.32 218.764 210.32C210.637 210.32 204.048 216.899 204.048 225.013C204.048 233.128 210.637 239.706 218.764 239.706C226.892 239.706 233.481 233.128 233.481 225.013Z" fill="white" stroke="#1A1B1F" stroke-miterlimit="10"/>
<path d="M283.811 225.013C283.811 216.899 277.222 210.32 269.095 210.32C260.967 210.32 254.378 216.899 254.378 225.013C254.378 233.128 260.967 239.706 269.095 239.706C277.222 239.706 283.811 233.128 283.811 225.013Z" fill="white" stroke="#1A1B1F" stroke-miterlimit="10"/>
<path d="M334.136 225.013C334.136 216.899 327.547 210.32 319.419 210.32C311.291 210.32 304.703 216.899 304.703 225.013C304.703 233.128 311.291 239.706 319.419 239.706C327.547 239.706 334.136 233.128 334.136 225.013Z" fill="white" stroke="#1A1B1F" stroke-miterlimit="10"/>
<path d="M161.24 229.21C160.577 228.262 160.222 227.133 160.222 225.977C160.222 224.821 160.577 223.693 161.24 222.745C161.851 222.115 162.654 221.707 163.523 221.585C164.392 221.462 165.277 221.633 166.038 222.069C166.567 222.417 166.977 222.917 167.215 223.503L166.155 224.091C166.02 223.675 165.748 223.317 165.384 223.074C164.991 222.825 164.532 222.698 164.066 222.709C163.737 222.694 163.409 222.751 163.104 222.875C162.799 222.998 162.525 223.187 162.3 223.426C161.858 223.947 161.629 224.614 161.658 225.295V226.741C161.629 227.423 161.858 228.09 162.3 228.61C162.532 228.854 162.814 229.044 163.127 229.168C163.44 229.292 163.777 229.346 164.113 229.327C164.604 229.352 165.091 229.222 165.505 228.957C165.919 228.691 166.239 228.303 166.42 227.846L167.362 228.487C167.107 229.076 166.683 229.577 166.144 229.927C165.529 230.299 164.819 230.485 164.101 230.461C163.56 230.486 163.021 230.385 162.524 230.168C162.028 229.951 161.589 229.623 161.24 229.21Z" fill="#1A1B1F"/>
<path d="M169.646 224.508C169.646 220.547 170.986 218.566 173.667 218.566C176.347 218.566 177.689 220.547 177.693 224.508C177.693 228.469 176.351 230.45 173.667 230.45C170.983 230.45 169.642 228.469 169.646 224.508ZM175.633 228.252C176.094 227.392 176.31 226.422 176.257 225.449V223.568C176.31 222.594 176.094 221.624 175.633 220.764C175.406 220.457 175.111 220.207 174.77 220.035C174.429 219.863 174.052 219.773 173.67 219.773C173.288 219.773 172.911 219.863 172.57 220.035C172.229 220.207 171.933 220.457 171.707 220.764C171.244 221.624 171.028 222.594 171.083 223.568V225.449C171.028 226.423 171.244 227.393 171.707 228.252C171.933 228.559 172.229 228.809 172.57 228.981C172.911 229.154 173.288 229.243 173.67 229.243C174.052 229.243 174.429 229.154 174.77 228.981C175.111 228.809 175.406 228.559 175.633 228.252ZM172.648 224.69V224.326C172.648 223.803 172.99 223.538 173.667 223.538C174.344 223.538 174.691 223.803 174.691 224.326V224.69C174.691 225.213 174.35 225.478 173.667 225.478C172.984 225.478 172.648 225.19 172.648 224.667V224.69Z" fill="#1A1B1F"/>
<path d="M211.276 229.515C210.614 228.567 210.258 227.439 210.258 226.283C210.258 225.127 210.614 223.998 211.276 223.05C211.887 222.421 212.69 222.013 213.559 221.89C214.428 221.768 215.313 221.938 216.074 222.374C216.603 222.722 217.013 223.222 217.251 223.809L216.192 224.396C216.056 223.981 215.784 223.623 215.421 223.379C215.027 223.13 214.568 223.004 214.102 223.015C213.773 223 213.445 223.057 213.14 223.18C212.835 223.304 212.561 223.492 212.336 223.732C211.894 224.252 211.665 224.92 211.694 225.601V227.047C211.665 227.728 211.894 228.396 212.336 228.916C212.568 229.16 212.85 229.35 213.163 229.474C213.476 229.598 213.813 229.652 214.149 229.633C214.64 229.658 215.127 229.528 215.541 229.262C215.955 228.997 216.275 228.608 216.457 228.152L217.398 228.792C217.143 229.382 216.719 229.882 216.18 230.232C215.565 230.605 214.856 230.791 214.137 230.767C213.596 230.791 213.057 230.691 212.561 230.474C212.065 230.257 211.625 229.929 211.276 229.515Z" fill="#1A1B1F"/>
<path d="M220.159 230.52V229.345H223.456V220.053H223.344L220.442 222.756L219.635 221.881L222.685 219.036H224.869V229.321H227.9V230.497L220.159 230.52Z" fill="#1A1B1F"/>
<path d="M261.607 229.515C260.944 228.567 260.589 227.439 260.589 226.283C260.589 225.127 260.944 223.998 261.607 223.05C262.217 222.421 263.021 222.013 263.89 221.89C264.759 221.768 265.644 221.938 266.405 222.374C266.933 222.722 267.344 223.222 267.582 223.809L266.522 224.396C266.387 223.981 266.115 223.623 265.751 223.379C265.357 223.13 264.899 223.004 264.433 223.015C264.104 223 263.776 223.057 263.471 223.18C263.166 223.304 262.892 223.492 262.667 223.732C262.225 224.252 261.996 224.92 262.025 225.601V227.047C261.996 227.728 262.225 228.396 262.667 228.916C262.899 229.16 263.181 229.35 263.494 229.474C263.807 229.598 264.143 229.652 264.48 229.633C264.971 229.658 265.458 229.528 265.872 229.262C266.286 228.997 266.606 228.608 266.787 228.152L267.729 228.792C267.474 229.382 267.05 229.882 266.511 230.232C265.896 230.605 265.186 230.791 264.468 230.767C263.927 230.791 263.387 230.691 262.891 230.474C262.395 230.257 261.956 229.929 261.607 229.515Z" fill="#1A1B1F"/>
<path d="M277.942 230.52H270.26V229.104L274.098 225.648C274.648 225.178 275.13 224.634 275.529 224.032C275.847 223.55 276.021 222.987 276.029 222.41V222.21C276.047 221.919 276.008 221.628 275.913 221.352C275.818 221.077 275.669 220.823 275.476 220.605C275.263 220.402 275.01 220.245 274.734 220.144C274.457 220.043 274.163 220 273.869 220.018C273.295 219.987 272.73 220.167 272.279 220.523C271.857 220.917 271.552 221.419 271.396 221.975L270.16 221.51C270.407 220.76 270.855 220.091 271.455 219.577C272.153 219.037 273.022 218.765 273.904 218.813C274.381 218.785 274.858 218.852 275.309 219.009C275.759 219.166 276.174 219.411 276.529 219.73C276.849 220.042 277.099 220.418 277.263 220.833C277.428 221.248 277.502 221.693 277.483 222.139C277.488 222.933 277.261 223.711 276.83 224.378C276.291 225.171 275.645 225.885 274.911 226.5L271.697 229.298H277.942V230.52Z" fill="#1A1B1F"/>
<path d="M311.937 229.515C311.275 228.567 310.919 227.439 310.919 226.283C310.919 225.127 311.275 223.998 311.937 223.05C312.548 222.421 313.351 222.013 314.22 221.89C315.089 221.768 315.974 221.938 316.735 222.374C317.264 222.722 317.674 223.222 317.912 223.809L316.853 224.396C316.717 223.981 316.445 223.623 316.082 223.379C315.688 223.13 315.229 223.004 314.763 223.015C314.434 223 314.106 223.057 313.801 223.18C313.496 223.304 313.222 223.492 312.997 223.732C312.555 224.252 312.326 224.92 312.355 225.601V227.047C312.326 227.728 312.555 228.396 312.997 228.916C313.229 229.16 313.511 229.35 313.824 229.474C314.137 229.598 314.474 229.652 314.81 229.633C315.301 229.658 315.788 229.528 316.202 229.262C316.616 228.997 316.936 228.608 317.118 228.152L318.059 228.792C317.804 229.382 317.38 229.882 316.841 230.232C316.226 230.605 315.517 230.791 314.798 230.767C314.257 230.791 313.718 230.691 313.222 230.474C312.726 230.257 312.286 229.929 311.937 229.515Z" fill="#1A1B1F"/>
<path d="M323.87 223.92C324.502 223.958 325.128 223.771 325.636 223.391C325.831 223.22 325.986 223.006 326.088 222.767C326.19 222.528 326.236 222.269 326.224 222.01V221.892C326.238 221.635 326.192 221.378 326.09 221.141C325.988 220.905 325.832 220.695 325.636 220.529C325.197 220.191 324.652 220.022 324.099 220.053C323.586 220.033 323.079 220.163 322.639 220.429C322.231 220.705 321.899 221.079 321.674 221.516L320.638 220.723C320.999 220.127 321.513 219.639 322.127 219.31C322.741 218.98 323.432 218.82 324.129 218.848C324.734 218.842 325.335 218.958 325.895 219.189C326.407 219.388 326.849 219.733 327.166 220.182C327.481 220.642 327.643 221.188 327.631 221.745C327.657 222.391 327.433 223.022 327.007 223.508C326.578 223.98 326.012 224.306 325.388 224.443V224.507C326.063 224.62 326.682 224.948 327.154 225.442C327.397 225.705 327.585 226.013 327.707 226.349C327.829 226.685 327.884 227.042 327.867 227.399C327.882 228.023 327.709 228.637 327.372 229.162C327.03 229.679 326.545 230.087 325.977 230.338C325.322 230.631 324.611 230.776 323.893 230.761C323.105 230.792 322.323 230.607 321.633 230.226C321.04 229.855 320.526 229.372 320.12 228.804L321.156 228.01C321.441 228.477 321.822 228.877 322.274 229.186C322.767 229.463 323.328 229.595 323.893 229.568C324.564 229.604 325.225 229.395 325.753 228.98C325.975 228.782 326.149 228.536 326.264 228.261C326.378 227.987 326.429 227.69 326.413 227.393V227.258C326.43 226.963 326.381 226.669 326.27 226.395C326.159 226.122 325.988 225.877 325.771 225.677C325.227 225.269 324.554 225.071 323.875 225.119H322.586V223.943L323.87 223.92Z" fill="#1A1B1F"/>
<path d="M168.728 180.935V210.32" stroke="#1A1B1F" stroke-miterlimit="10"/>
<path d="M218.764 180.935V210.32" stroke="#1A1B1F" stroke-miterlimit="10"/>
<path d="M269.095 180.935V210.32" stroke="#1A1B1F" stroke-miterlimit="10"/>
<path d="M319.425 180.935V210.32" stroke="#1A1B1F" stroke-miterlimit="10"/>
<path d="M179.03 120.987L168.728 151.549" stroke="#1A1B1F" stroke-miterlimit="10"/>
<path d="M208.463 120.987L218.764 151.549" stroke="#1A1B1F" stroke-miterlimit="10"/>
<path d="M279.543 120.987L269.236 151.549" stroke="#1A1B1F" stroke-miterlimit="10"/>
<path d="M308.977 120.987L319.278 151.549" stroke="#1A1B1F" stroke-miterlimit="10"/>
<path d="M193.746 91.6011L223.185 47.2285" stroke="#1A1B1F" stroke-miterlimit="10"/>
<path d="M294.254 91.6011L264.815 47.2285" stroke="#1A1B1F" stroke-miterlimit="10"/>
</g>
<defs>
<clipPath id="clip0">
<rect width="488" height="240" fill="white"/>
</clipPath>
</defs>
</svg>
