<svg width="385" height="145" viewBox="0 0 385 145" fill="none" xmlns="http://www.w3.org/2000/svg">
<line x1="252.5" y1="1.09278e-08" x2="252.5" y2="25" stroke="#B0B1B5"/>
<line x1="265" y1="12.5" x2="240" y2="12.5" stroke="#B0B1B5"/>
<line x1="312.5" y1="1.09278e-08" x2="312.5" y2="25" stroke="#B0B1B5"/>
<line x1="325" y1="12.5" x2="300" y2="12.5" stroke="#B0B1B5"/>
<line x1="192.5" y1="1.09278e-08" x2="192.5" y2="25" stroke="#B0B1B5"/>
<line x1="205" y1="12.5" x2="180" y2="12.5" stroke="#B0B1B5"/>
<line x1="72.5" y1="1.09278e-08" x2="72.5" y2="25" stroke="#B0B1B5"/>
<line x1="85" y1="12.5" x2="60" y2="12.5" stroke="#B0B1B5"/>
<line x1="372.5" y1="1.09278e-08" x2="372.5" y2="25" stroke="#B0B1B5"/>
<line x1="385" y1="12.5" x2="360" y2="12.5" stroke="#B0B1B5"/>
<line x1="132.5" y1="1.09278e-08" x2="132.5" y2="25" stroke="#B0B1B5"/>
<line x1="145" y1="12.5" x2="120" y2="12.5" stroke="#B0B1B5"/>
<line x1="12.5" y1="1.09278e-08" x2="12.5" y2="25" stroke="#B0B1B5"/>
<line x1="25" y1="12.5" x2="-1.82131e-08" y2="12.5" stroke="#B0B1B5"/>
<line x1="252.5" y1="60" x2="252.5" y2="85" stroke="#B0B1B5"/>
<line x1="265" y1="72.5" x2="240" y2="72.5" stroke="#B0B1B5"/>
<line x1="312.5" y1="60" x2="312.5" y2="85" stroke="#B0B1B5"/>
<line x1="325" y1="72.5" x2="300" y2="72.5" stroke="#B0B1B5"/>
<line x1="192.5" y1="60" x2="192.5" y2="85" stroke="#B0B1B5"/>
<line x1="205" y1="72.5" x2="180" y2="72.5" stroke="#B0B1B5"/>
<line x1="72.5" y1="60" x2="72.5" y2="85" stroke="#B0B1B5"/>
<line x1="85" y1="72.5" x2="60" y2="72.5" stroke="#B0B1B5"/>
<line x1="372.5" y1="60" x2="372.5" y2="85" stroke="#B0B1B5"/>
<line x1="385" y1="72.5" x2="360" y2="72.5" stroke="#B0B1B5"/>
<line x1="132.5" y1="60" x2="132.5" y2="85" stroke="#B0B1B5"/>
<line x1="145" y1="72.5" x2="120" y2="72.5" stroke="#B0B1B5"/>
<line x1="12.5" y1="60" x2="12.5" y2="85" stroke="#B0B1B5"/>
<line x1="25" y1="72.5" x2="-1.82131e-08" y2="72.5" stroke="#B0B1B5"/>
<line x1="252.5" y1="120" x2="252.5" y2="145" stroke="#B0B1B5"/>
<line x1="265" y1="132.5" x2="240" y2="132.5" stroke="#B0B1B5"/>
<line x1="312.5" y1="120" x2="312.5" y2="145" stroke="#B0B1B5"/>
<line x1="325" y1="132.5" x2="300" y2="132.5" stroke="#B0B1B5"/>
<line x1="192.5" y1="120" x2="192.5" y2="145" stroke="#B0B1B5"/>
<line x1="205" y1="132.5" x2="180" y2="132.5" stroke="#B0B1B5"/>
<line x1="72.5" y1="120" x2="72.5" y2="145" stroke="#B0B1B5"/>
<line x1="85" y1="132.5" x2="60" y2="132.5" stroke="#B0B1B5"/>
<line x1="372.5" y1="120" x2="372.5" y2="145" stroke="#B0B1B5"/>
<line x1="385" y1="132.5" x2="360" y2="132.5" stroke="#B0B1B5"/>
<line x1="132.5" y1="120" x2="132.5" y2="145" stroke="#B0B1B5"/>
<line x1="145" y1="132.5" x2="120" y2="132.5" stroke="#B0B1B5"/>
<line x1="12.5" y1="120" x2="12.5" y2="145" stroke="#B0B1B5"/>
<line x1="25" y1="132.5" x2="-1.82131e-08" y2="132.5" stroke="#B0B1B5"/>
<rect x="133" y="73" width="59" height="59" fill="white" stroke="#1A1B1F" stroke-width="2"/>
<rect x="145" y="61" width="59" height="59" fill="white" stroke="#1A1B1F" stroke-width="2"/>
<rect x="157" y="49" width="59" height="59" fill="white" stroke="#1A1B1F" stroke-width="2"/>
<path d="M186 58L190.674 61.5554L196.5 60.8135L198.77 66.2297L204.187 68.5L203.445 74.3257L207 79L203.445 83.6743L204.187 89.5L198.77 91.7703L196.5 97.1865L190.674 96.4446L186 100L181.326 96.4446L175.5 97.1865L173.23 91.7703L167.813 89.5L168.555 83.6743L165 79L168.555 74.3257L167.813 68.5L173.23 66.2297L175.5 60.8135L181.326 61.5554L186 58Z" stroke="#1A1B1F" stroke-width="2"/>
<rect class='anim rev' x="193" y="13" width="59" height="59" fill="white" stroke="#1A1B1F" stroke-width="2" stroke-dasharray="6 3"/>
<path d="M222.56 22L227.234 25.5554L233.06 24.8135L235.33 30.2297L240.746 32.5L240.004 38.3257L243.56 43L240.004 47.6743L240.746 53.5L235.33 55.7703L233.06 61.1865L227.234 60.4446L222.56 64L217.885 60.4446L212.06 61.1865L209.789 55.7703L204.373 53.5L205.115 47.6743L201.56 43L205.115 38.3257L204.373 32.5L209.789 30.2297L212.06 24.8135L217.885 25.5554L222.56 22Z" fill="#D6FFF8" stroke="#1A1B1F" stroke-width="2"/>
</svg>
