<svg width="385" height="146" viewBox="0 0 385 146" fill="none" xmlns="http://www.w3.org/2000/svg">
<line x1="252.5" y1="1.09278e-08" x2="252.5" y2="25" stroke="#B0B1B5"/>
<line x1="265" y1="12.5" x2="240" y2="12.5" stroke="#B0B1B5"/>
<line x1="312.5" y1="1.09278e-08" x2="312.5" y2="25" stroke="#B0B1B5"/>
<line x1="325" y1="12.5" x2="300" y2="12.5" stroke="#B0B1B5"/>
<line x1="192.5" y1="1.09278e-08" x2="192.5" y2="25" stroke="#B0B1B5"/>
<line x1="205" y1="12.5" x2="180" y2="12.5" stroke="#B0B1B5"/>
<line x1="72.5" y1="1.09278e-08" x2="72.5" y2="25" stroke="#B0B1B5"/>
<line x1="85" y1="12.5" x2="60" y2="12.5" stroke="#B0B1B5"/>
<line x1="372.5" y1="1.09278e-08" x2="372.5" y2="25" stroke="#B0B1B5"/>
<line x1="385" y1="12.5" x2="360" y2="12.5" stroke="#B0B1B5"/>
<line x1="132.5" y1="1.09278e-08" x2="132.5" y2="25" stroke="#B0B1B5"/>
<line x1="145" y1="12.5" x2="120" y2="12.5" stroke="#B0B1B5"/>
<line x1="12.5" y1="1.09278e-08" x2="12.5" y2="25" stroke="#B0B1B5"/>
<line x1="25" y1="12.5" x2="-1.82131e-08" y2="12.5" stroke="#B0B1B5"/>
<line x1="252.5" y1="60" x2="252.5" y2="85" stroke="#B0B1B5"/>
<line x1="265" y1="72.5" x2="240" y2="72.5" stroke="#B0B1B5"/>
<line x1="312.5" y1="60" x2="312.5" y2="85" stroke="#B0B1B5"/>
<line x1="325" y1="72.5" x2="300" y2="72.5" stroke="#B0B1B5"/>
<line x1="192.5" y1="60" x2="192.5" y2="85" stroke="#B0B1B5"/>
<line x1="205" y1="72.5" x2="180" y2="72.5" stroke="#B0B1B5"/>
<line x1="72.5" y1="60" x2="72.5" y2="85" stroke="#B0B1B5"/>
<line x1="85" y1="72.5" x2="60" y2="72.5" stroke="#B0B1B5"/>
<line x1="372.5" y1="60" x2="372.5" y2="85" stroke="#B0B1B5"/>
<line x1="385" y1="72.5" x2="360" y2="72.5" stroke="#B0B1B5"/>
<line x1="132.5" y1="60" x2="132.5" y2="85" stroke="#B0B1B5"/>
<line x1="145" y1="72.5" x2="120" y2="72.5" stroke="#B0B1B5"/>
<line x1="12.5" y1="60" x2="12.5" y2="85" stroke="#B0B1B5"/>
<line x1="25" y1="72.5" x2="-1.82131e-08" y2="72.5" stroke="#B0B1B5"/>
<line x1="252.5" y1="120" x2="252.5" y2="145" stroke="#B0B1B5"/>
<line x1="265" y1="132.5" x2="240" y2="132.5" stroke="#B0B1B5"/>
<line x1="312.5" y1="120" x2="312.5" y2="145" stroke="#B0B1B5"/>
<line x1="325" y1="132.5" x2="300" y2="132.5" stroke="#B0B1B5"/>
<line x1="192.5" y1="120" x2="192.5" y2="145" stroke="#B0B1B5"/>
<line x1="205" y1="132.5" x2="180" y2="132.5" stroke="#B0B1B5"/>
<line x1="72.5" y1="120" x2="72.5" y2="145" stroke="#B0B1B5"/>
<line x1="85" y1="132.5" x2="60" y2="132.5" stroke="#B0B1B5"/>
<line x1="372.5" y1="120" x2="372.5" y2="145" stroke="#B0B1B5"/>
<line x1="385" y1="132.5" x2="360" y2="132.5" stroke="#B0B1B5"/>
<line x1="132.5" y1="120" x2="132.5" y2="145" stroke="#B0B1B5"/>
<line x1="145" y1="132.5" x2="120" y2="132.5" stroke="#B0B1B5"/>
<line x1="12.5" y1="120" x2="12.5" y2="145" stroke="#B0B1B5"/>
<line x1="25" y1="132.5" x2="-1.82131e-08" y2="132.5" stroke="#B0B1B5"/>
<rect class='anim' width="119" height="119" transform="matrix(-1 0 0 1 252 13)" stroke="#1A1B1F" stroke-width="2" stroke-dasharray="6 3"/>
<rect x="180" y="60" width="59" height="59" transform="rotate(-180 180 60)" fill="white"/>
<rect x="174" y="36" width="35" height="11" transform="rotate(-180 174 36)" fill="#D6FFF8" stroke="#1A1B1F" stroke-width="2"/>
<rect x="162" y="18" width="35" height="11" transform="rotate(-180 162 18)" fill="#D6FFF8" stroke="#1A1B1F" stroke-width="2"/>
<rect x="167" y="54" width="35" height="11" transform="rotate(-180 167 54)" fill="#D6FFF8" stroke="#1A1B1F" stroke-width="2"/>
<line x1="150" y1="42.4463" x2="150" y2="36.1074" stroke="#1A1B1F" stroke-width="2"/>
<line x1="150" y1="59.8513" x2="150" y2="54.221" stroke="#1A1B1F" stroke-width="2"/>
<line x1="150" y1="24.8926" x2="150" y2="18.5537" stroke="#1A1B1F" stroke-width="2"/>
<rect x="180" y="60" width="59" height="59" transform="rotate(-180 180 60)" stroke="#1A1B1F" stroke-width="2"/>
<ellipse cx="235" cy="100" rx="15" ry="15" fill="#D6FFF8" stroke="#1A1B1F" stroke-width="2"/>
<path d="M234.5 115C218.208 115 205 127.984 205 144H264C264 127.984 250.792 115 234.5 115Z" fill="#D6FFF8" stroke="#1A1B1F" stroke-width="2"/>
<rect x="146" y="86" width="33" height="33" fill="#D6FFF8" stroke="#1A1B1F" stroke-width="2"/>
<line x1="164" y1="86" x2="164" y2="119" stroke="black" stroke-width="2"/>
<line x1="157" y1="86" x2="157" y2="119" stroke="black" stroke-width="2"/>
<line x1="151" y1="86" x2="151" y2="119" stroke="black" stroke-width="2"/>
<path d="M215 41L223 48L231 26L239 33V59H230.986H223H215H207V54.7571L215 41Z" fill="#D6FFF8"/>
<path d="M215 41L223 48M215 41V59M215 41L207 54.7571V59C210.104 59 212.394 59 215 59M223 48L231 26M223 48V59M231 26L239 33V59C236.082 59 233.455 59 230.986 59M231 26L230.986 59M230.986 59C228.003 59 225.751 59 223 59M223 59C220.394 59 217.803 59 215 59" stroke="#1A1B1F" stroke-width="2"/>
</svg>
