<?xml version="1.0" encoding="utf-8"?>
<svg version="1.1" id="Layer_1" xmlns="http://www.w3.org/2000/svg" xmlns:xlink="http://www.w3.org/1999/xlink" x="0px" y="0px"
	 viewBox="0 0 1270 294" style="enable-background:new 0 0 1270 294;" xml:space="preserve">
<style type="text/css">
	.st0{fill:none;stroke:#B0B1B5;}
	.st1{fill:none;stroke:#1A1B1F;stroke-width:2;}
	.st2{fill:none;stroke:#000000;stroke-width:2;stroke-dasharray:6,3;}
	.st3{fill:#FFE7DB;stroke:#1A1B1F;stroke-width:2;}
	.st4{fill:none;stroke:#1A1B1F;stroke-width:2;stroke-dasharray:6,3;}
</style>
<line class="st0" x1="25.5" y1="0" x2="25.5" y2="50"/>
<line class="st0" x1="50" y1="25.5" x2="0" y2="25.5"/>
<line class="st0" x1="1123.5" y1="0" x2="1123.5" y2="50"/>
<line class="st0" x1="1148" y1="25.5" x2="1098" y2="25.5"/>
<line class="st0" x1="1245.5" y1="0" x2="1245.5" y2="50"/>
<line class="st0" x1="1270" y1="25.5" x2="1220" y2="25.5"/>
<line class="st0" x1="1001.5" y1="0" x2="1001.5" y2="50"/>
<line class="st0" x1="1026" y1="25.5" x2="976" y2="25.5"/>
<line class="st0" x1="879.5" y1="0" x2="879.5" y2="50"/>
<line class="st0" x1="904" y1="25.5" x2="854" y2="25.5"/>
<line class="st0" x1="757.5" y1="0" x2="757.5" y2="50"/>
<line class="st0" x1="782" y1="25.5" x2="732" y2="25.5"/>
<line class="st0" x1="25.5" y1="122" x2="25.5" y2="172"/>
<line class="st0" x1="50" y1="147.5" x2="0" y2="147.5"/>
<line class="st0" x1="1123.5" y1="122" x2="1123.5" y2="172"/>
<line class="st0" x1="1148" y1="147.5" x2="1098" y2="147.5"/>
<line class="st0" x1="1245.5" y1="122" x2="1245.5" y2="172"/>
<line class="st0" x1="1270" y1="147.5" x2="1220" y2="147.5"/>
<line class="st0" x1="1001.5" y1="122" x2="1001.5" y2="172"/>
<line class="st0" x1="1026" y1="147.5" x2="976" y2="147.5"/>
<line class="st0" x1="879.5" y1="122" x2="879.5" y2="172"/>
<line class="st0" x1="904" y1="147.5" x2="854" y2="147.5"/>
<line class="st0" x1="757.5" y1="122" x2="757.5" y2="172"/>
<line class="st0" x1="782" y1="147.5" x2="732" y2="147.5"/>
<line class="st0" x1="25.5" y1="244" x2="25.5" y2="294"/>
<line class="st0" x1="50" y1="269.5" x2="0" y2="269.5"/>
<line class="st0" x1="1123.5" y1="244" x2="1123.5" y2="294"/>
<line class="st0" x1="1148" y1="269.5" x2="1098" y2="269.5"/>
<line class="st0" x1="1245.5" y1="244" x2="1245.5" y2="294"/>
<line class="st0" x1="1270" y1="269.5" x2="1220" y2="269.5"/>
<line class="st0" x1="1001.5" y1="244" x2="1001.5" y2="294"/>
<line class="st0" x1="1026" y1="269.5" x2="976" y2="269.5"/>
<line class="st0" x1="879.5" y1="244" x2="879.5" y2="294"/>
<line class="st0" x1="904" y1="269.5" x2="854" y2="269.5"/>
<line class="st0" x1="757.5" y1="244" x2="757.5" y2="294"/>
<line class="st0" x1="782" y1="269.5" x2="732" y2="269.5"/>
<path class="st1" d="M977,63l24,24l-24,24"/>
<path class="anim st2" d="M818,147v61h60"/>
<path class="anim st2" d="M1001,208h62v-59"/>
<path class="st1" d="M1026,232l-24-24l24-24"/>
<path class="st1" d="M794,172l24-24l24,24"/>
<path class="st1" d="M758,26h96.4L879,50.6V147H758V26z"/>
<rect x="841" y="109.4" transform="matrix(0.7071 -0.7071 0.7071 0.7071 163.5876 639.705)" class="st3" width="26" height="26"/>
<path class="st1" d="M854,26v25h25"/>
<line class="st1" x1="770" y1="62" x2="846" y2="62"/>
<line class="st1" x1="770" y1="75" x2="821" y2="75"/>
<rect x="1015" y="75" class="st3" width="72" height="23"/>
<rect x="1038" y="111" class="st3" width="72" height="23"/>
<rect x="1026" y="39" class="st3" width="72" height="23"/>
<line class="st1" x1="1063" y1="62" x2="1063" y2="75"/>
<line class="st1" x1="1063" y1="135" x2="1063" y2="146.5"/>
<line class="st1" x1="1063" y1="98" x2="1063" y2="111"/>
<rect x="1002" y="26" class="st1" width="121" height="121"/>
<path class="anim st2" d="M1001,87H880"/>
<ellipse class="st3" cx="940.5" cy="208.5" rx="60.5" ry="60.5"/>
<ellipse class="st1" cx="941" cy="208.5" rx="43" ry="60.5"/>
<ellipse class="st1" cx="940.5" cy="208.5" rx="22.5" ry="60.5"/>
<line class="st1" x1="940" y1="148" x2="940" y2="270"/>
<line class="anim st4" x1="1001" y1="208" x2="879" y2="208"/>
<path class="anim st4" d="M994,238.2H887"/>
<path class="anim st4" d="M994,179H887"/>
</svg>
