<?xml version="1.0" encoding="utf-8"?>
<svg version="1.1" id="Layer_1" xmlns="http://www.w3.org/2000/svg" xmlns:xlink="http://www.w3.org/1999/xlink" x="0px" y="0px"
	 viewBox="0 0 385 145" style="enable-background:new 0 0 385 145;" xml:space="preserve">
<style type="text/css">
	.st0{fill:none;stroke:#B0B1B5;}
	.st1{fill:none;stroke:#1A1B1F;stroke-width:2;}
	.st2{fill:#FFE7DB;stroke:#1A1B1F;stroke-width:2;stroke-miterlimit:4;}
	.st3{fill:#FFE7DB;stroke:#1A1B1F;stroke-width:2;}
	.st4{fill:none;stroke:#1A1B1F;stroke-width:2;stroke-dasharray:6,3;}
</style>
<line class="st0" x1="252.5" y1="0" x2="252.5" y2="25"/>
<line class="st0" x1="265" y1="12.5" x2="240" y2="12.5"/>
<line class="st0" x1="312.5" y1="0" x2="312.5" y2="25"/>
<line class="st0" x1="325" y1="12.5" x2="300" y2="12.5"/>
<line class="st0" x1="192.5" y1="0" x2="192.5" y2="25"/>
<line class="st0" x1="205" y1="12.5" x2="180" y2="12.5"/>
<line class="st0" x1="72.5" y1="0" x2="72.5" y2="25"/>
<line class="st0" x1="85" y1="12.5" x2="60" y2="12.5"/>
<line class="st0" x1="372.5" y1="0" x2="372.5" y2="25"/>
<line class="st0" x1="385" y1="12.5" x2="360" y2="12.5"/>
<line class="st0" x1="132.5" y1="0" x2="132.5" y2="25"/>
<line class="st0" x1="145" y1="12.5" x2="120" y2="12.5"/>
<line class="st0" x1="12.5" y1="0" x2="12.5" y2="25"/>
<line class="st0" x1="25" y1="12.5" x2="0" y2="12.5"/>
<line class="st0" x1="252.5" y1="60" x2="252.5" y2="85"/>
<line class="st0" x1="265" y1="72.5" x2="240" y2="72.5"/>
<line class="st0" x1="312.5" y1="60" x2="312.5" y2="85"/>
<line class="st0" x1="325" y1="72.5" x2="300" y2="72.5"/>
<line class="st0" x1="192.5" y1="60" x2="192.5" y2="85"/>
<line class="st0" x1="205" y1="72.5" x2="180" y2="72.5"/>
<line class="st0" x1="72.5" y1="60" x2="72.5" y2="85"/>
<line class="st0" x1="85" y1="72.5" x2="60" y2="72.5"/>
<line class="st0" x1="372.5" y1="60" x2="372.5" y2="85"/>
<line class="st0" x1="385" y1="72.5" x2="360" y2="72.5"/>
<line class="st0" x1="132.5" y1="60" x2="132.5" y2="85"/>
<line class="st0" x1="145" y1="72.5" x2="120" y2="72.5"/>
<line class="st0" x1="12.5" y1="60" x2="12.5" y2="85"/>
<line class="st0" x1="25" y1="72.5" x2="0" y2="72.5"/>
<line class="st0" x1="252.5" y1="120" x2="252.5" y2="145"/>
<line class="st0" x1="265" y1="132.5" x2="240" y2="132.5"/>
<line class="st0" x1="312.5" y1="120" x2="312.5" y2="145"/>
<line class="st0" x1="325" y1="132.5" x2="300" y2="132.5"/>
<line class="st0" x1="192.5" y1="120" x2="192.5" y2="145"/>
<line class="st0" x1="205" y1="132.5" x2="180" y2="132.5"/>
<line class="st0" x1="72.5" y1="120" x2="72.5" y2="145"/>
<line class="st0" x1="85" y1="132.5" x2="60" y2="132.5"/>
<line class="st0" x1="372.5" y1="120" x2="372.5" y2="145"/>
<line class="st0" x1="385" y1="132.5" x2="360" y2="132.5"/>
<line class="st0" x1="132.5" y1="120" x2="132.5" y2="145"/>
<line class="st0" x1="145" y1="132.5" x2="120" y2="132.5"/>
<line class="st0" x1="12.5" y1="120" x2="12.5" y2="145"/>
<line class="st0" x1="25" y1="132.5" x2="0" y2="132.5"/>
<path class="st1" d="M73,13h47l12,12v47H73V13z"/>
<rect x="112.9" y="52.5" transform="matrix(0.7071 -0.7071 0.7071 0.7071 -6.5329 101.1987)" class="st2" width="12" height="12"/>
<path class="st1" d="M119,13v13h13"/>
<line class="st1" x1="78.8" y1="31.4" x2="115.6" y2="31.4"/>
<line class="st1" x1="78.8" y1="37.7" x2="103.5" y2="37.7"/>
<rect x="259" y="37" class="st3" width="35" height="11"/>
<rect x="271" y="55" class="st3" width="35" height="11"/>
<rect x="266" y="19" class="st3" width="35" height="11"/>
<line class="st1" x1="283" y1="30.6" x2="283" y2="36.9"/>
<line class="st1" x1="283" y1="66.1" x2="283" y2="71.8"/>
<line class="st1" x1="283" y1="48.1" x2="283" y2="54.4"/>
<rect x="253" y="13" class="st1" width="59" height="59"/>
<path class="st1" d="M236,114l-12-12l12-12"/>
<path class="anim st4" d="M224,102h59V73"/>
<path class="st1" d="M91,86l12-12l12,12"/>
<path class="anim st4" d="M103,74v28h59"/>
<path class="st1" d="M239,30l12,12l-12,12"/>
<path class="anim st4" d="M251,42H133"/>
<ellipse class="st3" cx="192.5" cy="102.5" rx="29.5" ry="29.5"/>
<ellipse class="st1" cx="192.5" cy="102.5" rx="21.5" ry="29.5"/>
<ellipse class="st1" cx="192.5" cy="102.5" rx="11.5" ry="29.5"/>
<line class="st1" x1="193" y1="73" x2="193" y2="132"/>
<path class="anim st4" d="M222,102h-59"/>
<path class="anim st4" d="M219,116h-53"/>
<path class="anim st4" d="M218,88h-51"/>
</svg>
