<svg xmlns="http://www.w3.org/2000/svg" viewBox="0 0 766 1049"><defs><style>.a,.c,.d,.e,.f,.i,.k,.l,.m,.n,.o,.p,.q,.r{fill:none;}.a{stroke:#1a1b1e;}.a,.c,.d,.e,.f,.g,.i,.k,.l,.m,.n,.o,.p,.q,.r{stroke-miterlimit:10;}.b{fill:#1a1b1e;}.c,.d,.e,.f,.g,.i,.k,.l,.m,.n,.o,.p,.q,.r{stroke:#1a1b1f;}.d{stroke-width:3px;}.e{stroke-width:3px;}.f{stroke-linecap:round;}.g{fill:#fff;}.h{fill:#1a1b1f;}.i{stroke-width:2px;}.j{fill:#4a4b4f;}.k{stroke-dasharray:9.25 3.7;}.l{stroke-dasharray:10.52 4.21;}.m{stroke-dasharray:9.46 3.78;}.n{stroke-dasharray:9.91 3.96;}.o{stroke-dasharray:10.27 4.11;}.p{stroke-dasharray:8.13 3.25;}.q{stroke-dasharray:11.44 4.57;}.r{stroke-dasharray:8.2 3.28;}</style></defs><title>without-CT(mix)_v2_v3</title><path class="a" d="M72.42,399.17V148.6"/><path class="a" d="M442.47,94.54H163"/><path class="a" d="M586.6,138.45a292.06,292.06,0,0,0-52.75-25.82"/><polygon class="b" points="584.6 129.17 583.64 129.45 586.26 138.28 577.26 140.24 577.48 141.22 587.52 139.03 585.82 133.27 584.6 129.17"/><line class="a" x1="72.42" y1="878.57" x2="72.42" y2="774.5"/><polygon class="b" points="79.42 872.12 78.69 871.44 72.42 878.19 66.16 871.44 65.43 872.12 72.42 879.66 76.51 875.26 79.42 872.12"/><path class="a" d="M72.42,660.22V513.16"/><path class="a" d="M284.76,324.5H462.5l19-.13c30.1,0,60.49-8.36,85-28.4"/><polyline class="c" points="101.69 513.16 1 513.16 1 399.17 143.84 399.17 143.84 476.58"/><line class="d" x1="10.55" y1="409.55" x2="32.41" y2="409.55"/><line class="d" x1="123.01" y1="409.55" x2="134.91" y2="409.55"/><line class="d" x1="103.56" y1="409.55" x2="115.45" y2="409.55"/><line class="e" x1="29.42" y1="444.09" x2="115.42" y2="444.09"/><line class="e" x1="40.32" y1="454.04" x2="104.52" y2="454.04"/><path class="c" d="M1,496.26c4.72-4.43,18.79-22.79,41.13-22.79,26.3,0,28,22.83,58,27.38.53.08,1,.15,1.58.21"/><polygon class="c" points="193.06 549.68 101.69 549.68 101.69 476.58 168.42 476.58 193.06 501.24 193.06 549.68"/><path class="f" d="M122.11,502.48c2-1.66,6.43-10.1,3.37-13-2.31-2.18-5.76.4-7.41,2.15A20.09,20.09,0,0,0,113,503c-.42,3.81.26,9.29,4.57,10.68A4.92,4.92,0,0,0,122,513a11.51,11.51,0,0,0,2.34-2.8,6.28,6.28,0,0,1,2.68-2.41c1.76-.68,3,.41,3.74,1.86.68,1.25,1,3,2.3,3.87,1.53,1,3.51-.42,4.72-1.4s2.8-2.26,4.47-2c1.35.18,2.39,1.25,3.62,1.81a9.45,9.45,0,0,0,3.46.65,79,79,0,0,0,13.13-.56"/><polygon class="g" points="174.52 517.68 177.48 520.08 181.25 519.48 182.62 523.04 186.17 524.41 185.58 528.17 187.98 531.14 185.58 534.1 186.17 537.87 182.62 539.23 181.25 542.79 177.48 542.19 174.52 544.59 171.56 542.19 167.79 542.79 166.43 539.23 162.87 537.87 163.46 534.1 161.06 531.14 163.46 528.17 162.87 524.41 166.43 523.04 167.79 519.48 171.56 520.08 174.52 517.68"/><polyline class="f" points="193.06 501.22 168.42 501.22 168.42 476.58"/><line class="c" x1="114.9" y1="528.78" x2="145.48" y2="528.78"/><line class="c" x1="114.9" y1="533.49" x2="139.66" y2="533.49"/><rect class="c" x="1" y="29" width="142.84" height="113.99"/><path class="h" d="M45.05,47l-7,20.47H35.72L29.38,50,23.27,67.48H20.94L13.94,47h2.58l5.65,17.77L28.31,47h2.38l6.18,17.77L42.48,47Z"/><path class="h" d="M79,47,72,67.48H69.61L63.27,50l-6.1,17.52H54.83L47.83,47h2.58l5.65,17.77L62.2,47h2.38l6.18,17.77L76.37,47Z"/><path class="h" d="M112.84,47l-7,20.47h-2.33L97.16,50l-6.1,17.52H88.73L81.73,47h2.58L90,64.78,96.1,47h2.37l6.18,17.77L110.26,47Z"/><path class="h" d="M118.08,65.8a2,2,0,1,1-2-2A1.92,1.92,0,0,1,118.08,65.8Z"/><path class="h" d="M19.3,95.61a1.92,1.92,0,0,1-2,2,2,2,0,0,1,0-4A1.93,1.93,0,0,1,19.3,95.61Z"/><path class="h" d="M41.57,81.89,39.36,83a5.94,5.94,0,0,0-6.18-4.51c-4.58,0-7.33,3.24-7.33,8.6s2.71,8.6,7.29,8.6c3.44,0,5.9-1.76,6.47-4.71l2.17.74c-1.15,3.72-4.3,6-8.56,6-6.1,0-9.7-4-9.7-10.65s3.64-10.64,9.74-10.64C37.4,76.41,40.26,78.45,41.57,81.89Z"/><path class="h" d="M65.6,87.05c0,6.63-3.68,10.65-9.78,10.65S46,93.68,46,87.05s3.69-10.64,9.79-10.64S65.6,80.42,65.6,87.05Zm-17.23,0c0,5.36,2.82,8.64,7.45,8.64s7.45-3.28,7.45-8.64-2.83-8.64-7.45-8.64S48.37,81.69,48.37,87.05Z"/><path class="h" d="M103.75,84V97.24h-2.33v-13c0-4-2.37-5.86-5.65-5.86a6.92,6.92,0,0,0-6.92,7.25V97.29H86.52v-13c0-4-2.33-5.86-5.61-5.86-3.48,0-6.92,2.62-6.92,7.41V97.29H71.66V76.82h2.09l.12,3.84a7.9,7.9,0,0,1,7.25-4.25c3.27,0,6.14,1.51,7.24,4.58,1.19-3,4.5-4.62,7.62-4.62C100.19,76.37,103.75,78.86,103.75,84Z"/><circle class="g" cx="143.84" cy="71.01" r="17.9"/><path class="g" d="M138.43,88.91h10.83a19.65,19.65,0,0,1,19.65,19.65V143a0,0,0,0,1,0,0H118.78a0,0,0,0,1,0,0V108.56A19.65,19.65,0,0,1,138.43,88.91Z"/><rect class="c" x="1" y="660.22" width="142.84" height="114.27"/><rect class="c" x="1" y="684.65" width="142.84" height="65.41"/><path class="h" d="M62,717.52v12.12H59.87V718.23c0-4.11-2.21-5.8-5.28-5.8-3.32,0-6.47,2.32-6.47,6.81v10.4H46V702.33h2.13v12.08a7,7,0,0,1,6.7-3.85C58.93,710.56,62,712.88,62,717.52Z"/><path class="h" d="M78.72,728.44A6.37,6.37,0,0,1,74.34,730c-2.88,0-4.93-1.53-4.93-5V712.77H65.67v-1.83h3.74V706.3l2.13-.56v5.2h7v1.83h-7v11.85c0,2.25,1.16,3.41,3.18,3.41a4.2,4.2,0,0,0,3.21-1.39Z"/><path class="h" d="M91.66,728.44A6.35,6.35,0,0,1,87.29,730c-2.88,0-4.94-1.53-4.94-5V712.77H78.61v-1.83h3.74V706.3l2.13-.56v5.2h7v1.83h-7v11.85c0,2.25,1.16,3.41,3.18,3.41a4.21,4.21,0,0,0,3.22-1.39Z"/><path class="h" d="M112.94,720.29c0,6.09-3.25,9.72-8.53,9.72a7,7,0,0,1-6.73-4.08v11.56H95.55V710.94h1.91l.11,4a7,7,0,0,1,6.84-4.34C109.69,710.56,112.94,714.19,112.94,720.29Zm-2.13,0c0-4.87-2.47-7.86-6.66-7.86-3.77,0-6.36,2.77-6.47,7.33v1c.11,4.56,2.66,7.33,6.47,7.33C108.34,728.14,110.81,725.15,110.81,720.29Z"/><path class="h" d="M116.8,725.67l1.75-1.16c.83,2.47,3.29,3.63,6.36,3.63,3.4,0,5.24-1.42,5.24-3.37,0-1.72-1.31-2.69-5.43-3.4-5.31-1-7.18-2.39-7.18-5.38s2.85-5.43,7.22-5.43c3.93,0,6.28,1.42,7.22,4.56l-1.8,1c-.78-2.65-2.65-3.74-5.42-3.74-2.92,0-5.08,1.54-5.08,3.33s1.38,2.92,5.61,3.63c5.16.86,7,2.35,7,5.27,0,3.22-3,5.35-7.59,5.35C121.06,730,118,728.59,116.8,725.67Z"/><rect class="g" x="13.23" y="713.12" width="21.46" height="16.35" rx="4.5"/><path class="c" d="M24,701.88h0a7.38,7.38,0,0,1,7.38,7.38v3.86a0,0,0,0,1,0,0H16.58a0,0,0,0,1,0,0v-3.86A7.38,7.38,0,0,1,24,701.88Z"/><circle class="c" cx="23.96" cy="721.29" r="3.77"/><polygon class="c" points="284.76 372.96 193.39 372.96 193.39 299.86 260.12 299.86 284.76 324.52 284.76 372.96"/><path class="f" d="M213.81,325.76c2-1.66,6.43-10.1,3.38-13-2.32-2.18-5.77.4-7.42,2.15a20.07,20.07,0,0,0-5.06,11.38c-.43,3.81.26,9.29,4.57,10.68a4.93,4.93,0,0,0,4.39-.74,12,12,0,0,0,2.34-2.8,6.2,6.2,0,0,1,2.67-2.41c1.77-.68,2.95.41,3.74,1.86.68,1.25,1,3,2.3,3.87,1.53,1,3.51-.42,4.72-1.4s2.81-2.26,4.48-2c1.34.18,2.38,1.25,3.62,1.81a9.36,9.36,0,0,0,3.45.65,79,79,0,0,0,13.13-.56"/><polygon class="g" points="266.22 340.96 269.19 343.36 272.95 342.76 274.32 346.32 277.88 347.69 277.28 351.45 279.68 354.42 277.28 357.38 277.88 361.14 274.32 362.51 272.95 366.07 269.19 365.47 266.22 367.87 263.26 365.47 259.49 366.07 258.13 362.51 254.57 361.14 255.16 357.38 252.76 354.42 255.16 351.45 254.57 347.69 258.13 346.32 259.49 342.76 263.26 343.36 266.22 340.96"/><polyline class="f" points="284.76 324.5 260.12 324.5 260.12 299.86"/><line class="c" x1="206.6" y1="352.06" x2="237.18" y2="352.06"/><line class="c" x1="206.6" y1="356.77" x2="231.36" y2="356.77"/><polygon class="c" points="607.43 142.23 625.55 156.91 648.58 153.26 656.93 175.03 678.7 183.38 675.05 206.4 689.72 224.52 675.05 242.64 678.7 265.67 656.93 274.02 648.58 295.79 625.55 292.13 607.43 306.81 589.32 292.13 566.29 295.79 557.94 274.02 536.17 265.67 539.82 242.64 525.15 224.52 539.82 206.4 536.17 183.38 557.94 175.03 566.29 153.26 589.32 156.91 607.43 142.23"/><path class="i" d="M601.23,242a15.32,15.32,0,0,1-15.31,15.31h0A15.31,15.31,0,0,1,570.61,242V207.05a15.3,15.3,0,0,1,15.31-15.31h0a15.31,15.31,0,0,1,15.31,15.31"/><path class="i" d="M612.29,257.31V207.05a15.31,15.31,0,0,1,15.31-15.31h0a15.3,15.3,0,0,1,15.31,15.31v50.26"/><line class="i" x1="612.29" y1="231.29" x2="642.91" y2="231.29"/><path class="j" d="M288.33,301.65a11.08,11.08,0,0,1,1.35-2.81,8.56,8.56,0,0,1,1.89-2H293a10.17,10.17,0,0,0-2.76,3.19,8.19,8.19,0,0,0-1.09,4.12v1.55a8.19,8.19,0,0,0,1.09,4.12A10.28,10.28,0,0,0,293,313h-1.46a8.56,8.56,0,0,1-1.89-2,11.08,11.08,0,0,1-1.35-2.81,10.85,10.85,0,0,1,0-6.51Z"/><path class="j" d="M303.7,310.5h-8.39V309l4.2-3.79a8.76,8.76,0,0,0,1.56-1.77,3.32,3.32,0,0,0,.54-1.77v-.22a2.41,2.41,0,0,0-.6-1.75,2.31,2.31,0,0,0-1.75-.62,2.56,2.56,0,0,0-1.74.55,3.35,3.35,0,0,0-1,1.59l-1.35-.51a4.59,4.59,0,0,1,1.41-2.11,4.64,4.64,0,0,1,5.54.16,3.52,3.52,0,0,1,1,2.64,4.51,4.51,0,0,1-.71,2.45,11.66,11.66,0,0,1-2.1,2.32l-3.51,3.06h6.82Z"/><path class="j" d="M310.54,308.16a10.45,10.45,0,0,1-1.35,2.81,8.17,8.17,0,0,1-1.89,2h-1.46a10.31,10.31,0,0,0,2.77-3.19,8.3,8.3,0,0,0,1.09-4.12v-1.55a8.3,8.3,0,0,0-1.09-4.12,10.2,10.2,0,0,0-2.77-3.19h1.46a8.17,8.17,0,0,1,1.89,2,10.76,10.76,0,0,1,1.35,9.32Z"/><path class="j" d="M324.94,308.9l1-.85a4.4,4.4,0,0,0,1.49,1.1,4.55,4.55,0,0,0,1.87.36,3.43,3.43,0,0,0,1.8-.4,1.31,1.31,0,0,0,.67-1.2,1.07,1.07,0,0,0-.43-1,2.82,2.82,0,0,0-1.21-.4l-1.46-.22a8.48,8.48,0,0,1-1.55-.35,2.8,2.8,0,0,1-1.15-.75,2.14,2.14,0,0,1-.49-1.47,2.36,2.36,0,0,1,1-2.06,4.73,4.73,0,0,1,2.72-.71,5,5,0,0,1,3.78,1.49l-.94.89a3.5,3.5,0,0,0-2.89-1.17,3.14,3.14,0,0,0-1.69.37,1.22,1.22,0,0,0-.58,1.1,1,1,0,0,0,.44.95,2.77,2.77,0,0,0,1.2.4l1.45.22a8.35,8.35,0,0,1,1.57.35,2.71,2.71,0,0,1,1.14.75,2.13,2.13,0,0,1,.48,1.47,2.47,2.47,0,0,1-1.06,2.13,4.8,4.8,0,0,1-2.86.77A5.47,5.47,0,0,1,324.94,308.9Z"/><path class="j" d="M336.9,310.12a3.85,3.85,0,0,1-1.52-1.69,6.39,6.39,0,0,1,0-5.12,4,4,0,0,1,1.5-1.71,4.1,4.1,0,0,1,2.22-.6,4,4,0,0,1,2.16.58,3.86,3.86,0,0,1,1.45,1.62,5,5,0,0,1,.52,2.34v.68h-6.88v.43a2.69,2.69,0,0,0,2.84,2.83,2.94,2.94,0,0,0,1.61-.43,2.86,2.86,0,0,0,1.06-1.19l1.06.72a3.45,3.45,0,0,1-1.41,1.55,4.47,4.47,0,0,1-2.32.59A4.36,4.36,0,0,1,336.9,310.12Zm.81-7.57a2.69,2.69,0,0,0-1,1,2.9,2.9,0,0,0-.36,1.44v.13h5.33v-.2a2.82,2.82,0,0,0-.71-2,2.44,2.44,0,0,0-1.87-.76A2.78,2.78,0,0,0,337.71,302.55Z"/><path class="j" d="M345.31,310.5v-9.29h1.44v1.52h.07a2.64,2.64,0,0,1,2.64-1.73,3.06,3.06,0,0,1,2.35.93,3.71,3.71,0,0,1,.88,2.61v6h-1.44v-5.7a2.79,2.79,0,0,0-.56-1.89,2.07,2.07,0,0,0-1.64-.63,2.79,2.79,0,0,0-1.63.46,1.48,1.48,0,0,0-.67,1.32v6.44Z"/><path class="j" d="M361.11,309H361a3,3,0,0,1-2.86,1.73,3.16,3.16,0,0,1-2.68-1.29,7.12,7.12,0,0,1,0-7.14,3.16,3.16,0,0,1,2.68-1.29,3,3,0,0,1,2.86,1.73h.07v-5.55h1.44V310.5h-1.44Zm-.68-.05a1.67,1.67,0,0,0,.68-1.41v-3.35a1.65,1.65,0,0,0-.68-1.4,2.83,2.83,0,0,0-1.7-.5,2.54,2.54,0,0,0-1.94.75,2.87,2.87,0,0,0-.7,2v1.58a2.85,2.85,0,0,0,.7,2,2.51,2.51,0,0,0,1.94.76A2.83,2.83,0,0,0,360.43,308.94Z"/><path class="j" d="M364.56,308.9l1-.85a4.5,4.5,0,0,0,1.49,1.1,4.6,4.6,0,0,0,1.88.36,3.48,3.48,0,0,0,1.8-.4,1.32,1.32,0,0,0,.66-1.2,1.05,1.05,0,0,0-.43-1,2.77,2.77,0,0,0-1.21-.4l-1.45-.22a8.29,8.29,0,0,1-1.55-.35,2.68,2.68,0,0,1-1.15-.75,2.09,2.09,0,0,1-.49-1.47,2.33,2.33,0,0,1,1-2.06,4.7,4.7,0,0,1,2.71-.71,4.94,4.94,0,0,1,3.78,1.49l-.93.89a3.53,3.53,0,0,0-2.9-1.17,3.12,3.12,0,0,0-1.68.37,1.23,1.23,0,0,0-.59,1.1,1.06,1.06,0,0,0,.44.95,2.87,2.87,0,0,0,1.2.4l1.46.22a8.23,8.23,0,0,1,1.56.35,2.68,2.68,0,0,1,1.15.75,2.18,2.18,0,0,1,.47,1.47,2.47,2.47,0,0,1-1.06,2.13,4.8,4.8,0,0,1-2.86.77A5.45,5.45,0,0,1,364.56,308.9Z"/><path class="j" d="M385.77,309.4a6.17,6.17,0,0,1,0-7.09,4.31,4.31,0,0,1,5.24-.74,3.53,3.53,0,0,1,1.28,1.57l-1.16.61a2.1,2.1,0,0,0-.84-1.11,2.81,2.81,0,0,0-3.39.38,3,3,0,0,0-.7,2.05v1.58a3,3,0,0,0,.7,2,2.54,2.54,0,0,0,2,.79,2.58,2.58,0,0,0,2.52-1.62l1,.7a3.51,3.51,0,0,1-1.33,1.57,4,4,0,0,1-2.23.59A3.84,3.84,0,0,1,385.77,309.4Z"/><path class="j" d="M396.31,310.12a3.91,3.91,0,0,1-1.52-1.69,6.39,6.39,0,0,1,0-5.12,4,4,0,0,1,1.5-1.71,4.16,4.16,0,0,1,2.23-.6,3.87,3.87,0,0,1,3.61,2.2,5.16,5.16,0,0,1,.51,2.34v.68h-6.88v.43a2.71,2.71,0,0,0,2.85,2.83,2.93,2.93,0,0,0,1.6-.43,2.86,2.86,0,0,0,1.06-1.19l1.06.72a3.45,3.45,0,0,1-1.41,1.55,4.43,4.43,0,0,1-2.31.59A4.37,4.37,0,0,1,396.31,310.12Zm.81-7.57a2.69,2.69,0,0,0-1,1,2.9,2.9,0,0,0-.36,1.44v.13h5.33v-.2a2.82,2.82,0,0,0-.71-2,2.42,2.42,0,0,0-1.86-.76A2.79,2.79,0,0,0,397.12,302.55Z"/><path class="j" d="M404.34,309.28h2.72v-6.84h-2.72v-1.23h4.16v2.34h.09a3,3,0,0,1,3.13-2.34H413v1.44h-1.75a2.73,2.73,0,0,0-2,.74,2.54,2.54,0,0,0-.73,1.87v4h3.6v1.22h-7.76Z"/><path class="j" d="M418.11,307.41a2.35,2.35,0,0,0,.27,1.27,1.17,1.17,0,0,0,.79.5,8.31,8.31,0,0,0,1.53.1h1.14v1.22h-1.12a8.59,8.59,0,0,1-2.27-.24,2.27,2.27,0,0,1-1.32-.93,3.5,3.5,0,0,1-.46-1.94v-4.95h-3.09v-1.23h3.09v-3.27h1.44v3.27h4.23v1.23h-4.23Z"/><path class="j" d="M424.39,309.24h3.4v-6.75h-3.4v-1.28h4.84v8h3.11v1.26h-7.95Zm4.95-12.06v1.91h-1.91v-1.91Z"/><path class="j" d="M434.15,309.28h3.14v-6.84H434v-1.23h3.32v-.91a3.56,3.56,0,0,1,.45-1.95,2.3,2.3,0,0,1,1.32-.92,8.23,8.23,0,0,1,2.27-.25h1.12v1.23h-1.13a8.36,8.36,0,0,0-1.54.1,1.12,1.12,0,0,0-.78.5,2.33,2.33,0,0,0-.27,1.27v.93h3.72v1.23h-3.72v6.84H442v1.22h-7.89Z"/><path class="j" d="M444.19,309.24h3.4v-6.75h-3.4v-1.28H449v8h3.11v1.26h-7.95Zm4.95-12.06v1.91h-1.91v-1.91Z"/><path class="j" d="M455.09,309.41a6.19,6.19,0,0,1,0-7.09,3.81,3.81,0,0,1,3.08-1.32,3.86,3.86,0,0,1,2.16.57,3.45,3.45,0,0,1,1.28,1.56l-1.15.62a2.24,2.24,0,0,0-.85-1.12,2.58,2.58,0,0,0-1.44-.39,2.47,2.47,0,0,0-2,.79,2.92,2.92,0,0,0-.69,2v1.58a3,3,0,0,0,.7,2.05,2.54,2.54,0,0,0,2,.78,2.6,2.6,0,0,0,2.51-1.63l1,.7a3.54,3.54,0,0,1-1.33,1.58,4,4,0,0,1-2.23.59A3.88,3.88,0,0,1,455.09,309.41Z"/><path class="j" d="M471.27,310.42a1.52,1.52,0,0,1-1.66-1.5h-.09a2.68,2.68,0,0,1-2.78,1.75,3.45,3.45,0,0,1-2.33-.74,2.63,2.63,0,0,1-.88-2.07q0-2.7,4-2.73h2v-.92a1.94,1.94,0,0,0-.58-1.52,2.33,2.33,0,0,0-1.65-.51,2.68,2.68,0,0,0-2.47,1.38l-1-.71a3.12,3.12,0,0,1,1.29-1.34,4.36,4.36,0,0,1,2.25-.56,3.86,3.86,0,0,1,2.6.82,2.85,2.85,0,0,1,1,2.29l0,4.46a.65.65,0,0,0,.2.46.6.6,0,0,0,.46.19h.64v1.26ZM468.8,309a1.47,1.47,0,0,0,.71-1.22V306.2h-2c-1.66,0-2.48.49-2.48,1.43V308a1.24,1.24,0,0,0,.52,1.07,2.34,2.34,0,0,0,1.41.37A3.15,3.15,0,0,0,468.8,309Z"/><path class="j" d="M477.46,307.28a2.28,2.28,0,0,0,.28,1.26,1.14,1.14,0,0,0,.79.5,7.65,7.65,0,0,0,1.53.09h1.14v1.23h-1.12a8.78,8.78,0,0,1-2.28-.23,2.3,2.3,0,0,1-1.32-.92,3.49,3.49,0,0,1-.47-1.94l0-4.95-3.1,0v-1.22l3.1,0,0-3.28h1.44l0,3.28,4.23,0v1.22l-4.23,0Z"/><path class="j" d="M485.8,309.82a3.87,3.87,0,0,1-1.62-1.59,5.76,5.76,0,0,1-.7-2.52,5.85,5.85,0,0,1,.37-2.59,4.2,4.2,0,0,1,5.76-2.11,3.9,3.9,0,0,1,1.55,1.52,5.16,5.16,0,0,1,.67,2.3l0,.68L485,306l0,.43a2.77,2.77,0,0,0,.9,2,2.81,2.81,0,0,0,2.12.66,3.06,3.06,0,0,0,1.57-.53,2.72,2.72,0,0,0,1-1.27l1.11.65a3.34,3.34,0,0,1-1.31,1.65,4.84,4.84,0,0,1-4.61.29Zm.32-7.61a2.75,2.75,0,0,0-.92,1.08,3,3,0,0,0-.27,1.46v.13l5.32-.34v-.2a2.86,2.86,0,0,0-.84-1.94,2.43,2.43,0,0,0-1.91-.64A2.7,2.7,0,0,0,486.12,302.21Z"/><path class="j" d="M184.91,71.68a10.39,10.39,0,0,1,1.35-2.8,8.17,8.17,0,0,1,1.89-2h1.46A10.27,10.27,0,0,0,186.84,70a8.33,8.33,0,0,0-1.09,4.13v1.54a8.33,8.33,0,0,0,1.09,4.13A10.27,10.27,0,0,0,189.61,83h-1.46a8.12,8.12,0,0,1-1.89-2,10.6,10.6,0,0,1-1.35-2.81,10.67,10.67,0,0,1,0-6.52Z"/><path class="j" d="M192.14,80.54V79.22h3.6V69.09h-.12l-3.17,3-.88-1L194.9,68h2.35V79.22h3.32v1.32Z"/><path class="j" d="M207.12,78.2A11.25,11.25,0,0,1,205.77,81a8.12,8.12,0,0,1-1.89,2h-1.46a10.12,10.12,0,0,0,2.76-3.18,8.23,8.23,0,0,0,1.09-4.13V74.17A8.23,8.23,0,0,0,205.18,70a10.12,10.12,0,0,0-2.76-3.18h1.46a8.17,8.17,0,0,1,1.89,2,11,11,0,0,1,1.35,2.8,10.88,10.88,0,0,1,0,6.52Z"/><path class="j" d="M221.7,79.32h2.72V72.47H221.7V71.25h4.16v2.34H226a3,3,0,0,1,3.13-2.34h1.3v1.44h-1.75a2.73,2.73,0,0,0-2,.74,2.52,2.52,0,0,0-.73,1.87v4h3.6v1.22H221.7Z"/><path class="j" d="M233.47,80.16A3.9,3.9,0,0,1,232,78.47a5.88,5.88,0,0,1-.53-2.56,5.77,5.77,0,0,1,.54-2.56,4,4,0,0,1,1.5-1.71,4.1,4.1,0,0,1,2.22-.6,4,4,0,0,1,2.16.58,3.9,3.9,0,0,1,1.45,1.61,5.1,5.1,0,0,1,.52,2.34v.68h-6.88v.44a2.78,2.78,0,0,0,.78,2,2.73,2.73,0,0,0,2.06.79,3,3,0,0,0,1.61-.42,2.82,2.82,0,0,0,1.06-1.2l1.06.72a3.42,3.42,0,0,1-1.41,1.56,4.47,4.47,0,0,1-2.32.58A4.35,4.35,0,0,1,233.47,80.16Zm.81-7.57a2.69,2.69,0,0,0-1,1,2.9,2.9,0,0,0-.36,1.44v.12h5.33V75a2.82,2.82,0,0,0-.71-2,2.45,2.45,0,0,0-1.87-.77A2.79,2.79,0,0,0,234.28,72.59Z"/><path class="j" d="M247.76,79h-.07a3,3,0,0,1-2.86,1.72,3.13,3.13,0,0,1-2.67-1.28,7.07,7.07,0,0,1,0-7.15A3.13,3.13,0,0,1,244.83,71a3,3,0,0,1,2.86,1.72h.07V71.25h1.44V84.14h-1.44Zm-.68-.06a1.62,1.62,0,0,0,.68-1.4V74.22a1.62,1.62,0,0,0-.68-1.4,2.76,2.76,0,0,0-1.69-.51,2.55,2.55,0,0,0-1.95.76,2.89,2.89,0,0,0-.7,2v1.59a2.89,2.89,0,0,0,.7,2,2.55,2.55,0,0,0,1.95.76A2.76,2.76,0,0,0,247.08,79Z"/><path class="j" d="M257.61,79h-.07a2.66,2.66,0,0,1-2.65,1.72,3.07,3.07,0,0,1-2.35-.93,3.67,3.67,0,0,1-.87-2.61v-6h1.44V77a2.74,2.74,0,0,0,.56,1.89,2.05,2.05,0,0,0,1.63.63,2.87,2.87,0,0,0,1.63-.46,1.51,1.51,0,0,0,.68-1.32V71.25h1.44v9.29h-1.44Z"/><path class="j" d="M263.17,80.16a3.9,3.9,0,0,1-1.52-1.69,6.39,6.39,0,0,1,0-5.12,4,4,0,0,1,1.5-1.71,4.1,4.1,0,0,1,2.22-.6,4,4,0,0,1,2.16.58A3.9,3.9,0,0,1,269,73.23a5.23,5.23,0,0,1,.52,2.34v.68h-6.88v.44a2.82,2.82,0,0,0,.77,2,2.77,2.77,0,0,0,2.07.79,3,3,0,0,0,1.61-.42,2.82,2.82,0,0,0,1.06-1.2l1.06.72a3.42,3.42,0,0,1-1.41,1.56,4.47,4.47,0,0,1-2.32.58A4.35,4.35,0,0,1,263.17,80.16Zm.81-7.57a2.69,2.69,0,0,0-1,1,2.9,2.9,0,0,0-.36,1.44v.12H268V75a2.82,2.82,0,0,0-.71-2,2.45,2.45,0,0,0-1.87-.77A2.79,2.79,0,0,0,264,72.59Z"/><path class="j" d="M271,78.94l1-.85a4.25,4.25,0,0,0,3.37,1.46,3.48,3.48,0,0,0,1.8-.41,1.3,1.3,0,0,0,.66-1.19,1.07,1.07,0,0,0-.43-1,2.92,2.92,0,0,0-1.21-.39l-1.45-.22a8.29,8.29,0,0,1-1.55-.35,2.61,2.61,0,0,1-1.15-.76,2,2,0,0,1-.49-1.46,2.33,2.33,0,0,1,1-2.06,4.62,4.62,0,0,1,2.71-.71,4.9,4.9,0,0,1,3.78,1.49l-.93.88a3.56,3.56,0,0,0-2.9-1.17,3.12,3.12,0,0,0-1.68.38,1.23,1.23,0,0,0-.59,1.1,1.06,1.06,0,0,0,.44,1,3,3,0,0,0,1.2.4l1.46.21a9.08,9.08,0,0,1,1.56.35,2.7,2.7,0,0,1,1.15.76,2.14,2.14,0,0,1,.47,1.47A2.47,2.47,0,0,1,278.18,80a4.8,4.8,0,0,1-2.86.76A5.45,5.45,0,0,1,271,78.94Z"/><path class="j" d="M285,77.44a2.33,2.33,0,0,0,.27,1.27,1.18,1.18,0,0,0,.78.51,9.45,9.45,0,0,0,1.54.1h1.14v1.22h-1.12a8.72,8.72,0,0,1-2.28-.24,2.29,2.29,0,0,1-1.31-.93,3.45,3.45,0,0,1-.46-2v-5h-3.1V71.25h3.1V68H285v3.28h4.23v1.22H285Z"/><path class="j" d="M290.82,78.94l1-.85a4.25,4.25,0,0,0,3.37,1.46,3.48,3.48,0,0,0,1.8-.41,1.3,1.3,0,0,0,.66-1.19,1.07,1.07,0,0,0-.43-1A2.92,2.92,0,0,0,296,76.6l-1.45-.22A8.29,8.29,0,0,1,293,76a2.61,2.61,0,0,1-1.15-.76,2,2,0,0,1-.49-1.46,2.33,2.33,0,0,1,1-2.06,4.62,4.62,0,0,1,2.71-.71,4.9,4.9,0,0,1,3.78,1.49l-.93.88a3.56,3.56,0,0,0-2.9-1.17,3.12,3.12,0,0,0-1.68.38,1.23,1.23,0,0,0-.59,1.1,1.06,1.06,0,0,0,.44,1,3,3,0,0,0,1.2.4l1.46.21a9.08,9.08,0,0,1,1.56.35,2.7,2.7,0,0,1,1.15.76,2.14,2.14,0,0,1,.47,1.47A2.47,2.47,0,0,1,298,80a4.8,4.8,0,0,1-2.86.76A5.45,5.45,0,0,1,290.82,78.94Z"/><path class="j" d="M312,79.44a6.17,6.17,0,0,1,0-7.09A3.8,3.8,0,0,1,315.12,71a3.86,3.86,0,0,1,2.16.57,3.53,3.53,0,0,1,1.28,1.57l-1.16.61a2.17,2.17,0,0,0-.84-1.12,2.58,2.58,0,0,0-1.44-.39,2.49,2.49,0,0,0-1.95.78,3,3,0,0,0-.7,2v1.59a3,3,0,0,0,.7,2,2.53,2.53,0,0,0,2,.78,2.58,2.58,0,0,0,2.52-1.62l1,.7a3.54,3.54,0,0,1-1.33,1.58,4,4,0,0,1-2.23.58A3.83,3.83,0,0,1,312,79.44Z"/><path class="j" d="M322.57,80.16a3.9,3.9,0,0,1-1.52-1.69,6.39,6.39,0,0,1,0-5.12,4,4,0,0,1,1.5-1.71,4.1,4.1,0,0,1,2.22-.6,4,4,0,0,1,2.16.58,3.9,3.9,0,0,1,1.45,1.61,5.23,5.23,0,0,1,.52,2.34v.68H322v.44a2.82,2.82,0,0,0,.77,2,2.77,2.77,0,0,0,2.07.79,3,3,0,0,0,1.61-.42,2.82,2.82,0,0,0,1.06-1.2l1.06.72a3.42,3.42,0,0,1-1.41,1.56,4.47,4.47,0,0,1-2.32.58A4.35,4.35,0,0,1,322.57,80.16Zm.81-7.57a2.69,2.69,0,0,0-1,1,2.9,2.9,0,0,0-.36,1.44v.12h5.33V75a2.82,2.82,0,0,0-.71-2,2.45,2.45,0,0,0-1.87-.77A2.79,2.79,0,0,0,323.38,72.59Z"/><path class="j" d="M330.6,79.32h2.71V72.47H330.6V71.25h4.15v2.34h.09A3,3,0,0,1,338,71.25h1.29v1.44h-1.74a2.77,2.77,0,0,0-2,.74,2.56,2.56,0,0,0-.73,1.87v4h3.6v1.22H330.6Z"/><path class="j" d="M344.35,77.44a2.33,2.33,0,0,0,.27,1.27,1.18,1.18,0,0,0,.78.51,9.45,9.45,0,0,0,1.54.1h1.14v1.22H347a8.72,8.72,0,0,1-2.28-.24,2.26,2.26,0,0,1-1.31-.93,3.45,3.45,0,0,1-.46-2v-5h-3.1V71.25h3.1V68h1.44v3.28h4.23v1.22h-4.23Z"/><path class="j" d="M350.63,79.28H354V72.53h-3.4V71.25h4.84v8h3.12v1.26h-8Zm4.95-12.06v1.91h-1.91V67.22Z"/><path class="j" d="M360.41,79.32h3.13V72.47h-3.31V71.25h3.31v-.92a3.44,3.44,0,0,1,.46-1.94,2.22,2.22,0,0,1,1.31-.93,8.72,8.72,0,0,1,2.28-.24h1.11v1.22h-1.13a9.36,9.36,0,0,0-1.54.1,1.18,1.18,0,0,0-.78.51,2.33,2.33,0,0,0-.27,1.27v.93h3.72v1.22H365v6.85h3.31v1.22h-7.88Z"/><path class="j" d="M370.43,79.28h3.4V72.53h-3.4V71.25h4.84v8h3.12v1.26h-8Zm4.95-12.06v1.91h-1.91V67.22Z"/><path class="j" d="M381.34,79.44a6.17,6.17,0,0,1,0-7.09A3.8,3.8,0,0,1,384.42,71a3.86,3.86,0,0,1,2.16.57,3.45,3.45,0,0,1,1.27,1.57l-1.15.61a2.17,2.17,0,0,0-.84-1.12,2.58,2.58,0,0,0-1.44-.39,2.49,2.49,0,0,0-1.95.78,2.92,2.92,0,0,0-.7,2v1.59a2.92,2.92,0,0,0,.7,2,2.53,2.53,0,0,0,2,.78A2.58,2.58,0,0,0,387,77.89l1,.7a3.54,3.54,0,0,1-1.33,1.58,4,4,0,0,1-2.24.58A3.82,3.82,0,0,1,381.34,79.44Z"/><path class="j" d="M397.52,80.54A1.53,1.53,0,0,1,395.86,79h-.09A2.66,2.66,0,0,1,393,80.75a3.42,3.42,0,0,1-2.32-.75,2.63,2.63,0,0,1-.86-2.07q0-2.7,4-2.7h2v-.92a2,2,0,0,0-.57-1.53,2.36,2.36,0,0,0-1.64-.52,2.64,2.64,0,0,0-2.48,1.37l-1-.72a3.19,3.19,0,0,1,1.3-1.33,4.26,4.26,0,0,1,2.25-.54,3.81,3.81,0,0,1,2.6.83,2.9,2.9,0,0,1,1,2.3v4.46a.66.66,0,0,0,.19.46.62.62,0,0,0,.46.19h.65v1.26Zm-2.47-1.49a1.44,1.44,0,0,0,.72-1.21V76.31h-2c-1.65,0-2.48.47-2.48,1.4v.38a1.26,1.26,0,0,0,.51,1.08,2.39,2.39,0,0,0,1.42.38A3.12,3.12,0,0,0,395.05,79.05Z"/><path class="j" d="M403.75,77.44a2.33,2.33,0,0,0,.27,1.27,1.18,1.18,0,0,0,.78.51,9.45,9.45,0,0,0,1.54.1h1.13v1.22h-1.11a8.72,8.72,0,0,1-2.28-.24,2.26,2.26,0,0,1-1.31-.93,3.45,3.45,0,0,1-.46-2v-5h-3.1V71.25h3.1V68h1.44v3.28H408v1.22h-4.23Z"/><path class="j" d="M411.67,80.16a3.9,3.9,0,0,1-1.52-1.69,6.39,6.39,0,0,1,0-5.12,4,4,0,0,1,1.5-1.71,4.1,4.1,0,0,1,2.22-.6,4,4,0,0,1,2.16.58,3.9,3.9,0,0,1,1.45,1.61,5.22,5.22,0,0,1,.51,2.34v.68h-6.87v.44a2.82,2.82,0,0,0,.77,2,2.77,2.77,0,0,0,2.07.79,3,3,0,0,0,1.6-.42,2.85,2.85,0,0,0,1.07-1.2l1.06.72a3.42,3.42,0,0,1-1.41,1.56,4.47,4.47,0,0,1-2.32.58A4.35,4.35,0,0,1,411.67,80.16Zm.81-7.57a2.69,2.69,0,0,0-1,1,2.9,2.9,0,0,0-.36,1.44v.12h5.33V75a2.82,2.82,0,0,0-.71-2,2.45,2.45,0,0,0-1.87-.77A2.79,2.79,0,0,0,412.48,72.59Z"/><polyline class="c" points="533.84 138 533.84 143 528.84 143"/><line class="k" x1="525.15" y1="143" x2="449.32" y2="143"/><polyline class="c" points="447.47 143 442.47 143 442.47 138"/><line class="l" x1="442.47" y1="133.79" x2="442.47" y2="77"/><polyline class="c" points="442.47 74.9 442.47 69.9 447.47 69.9"/><line class="m" x1="451.25" y1="69.9" x2="502.31" y2="69.9"/><polyline class="c" points="504.2 69.9 509.2 69.9 512.74 73.44"/><polyline class="n" points="515.54 76.24 533.84 94.56 533.84 136.02"/><path class="c" d="M462.9,95.8a13.62,13.62,0,0,0,2.78-4.12"/><path class="o" d="M467.07,87.82c.44-2,.36-3.91-.8-5-2.32-2.19-5.77.39-7.42,2.15a20,20,0,0,0-5.06,11.38c-.43,3.81.26,9.29,4.57,10.67a4.89,4.89,0,0,0,4.39-.74,12.13,12.13,0,0,0,2.34-2.79,6.31,6.31,0,0,1,2.68-2.42c1.76-.67,2.94.42,3.73,1.86.69,1.25,1,3,2.31,3.87,1.52,1,3.51-.42,4.72-1.4s2.8-2.25,4.47-2c1.34.18,2.38,1.24,3.62,1.8a9.36,9.36,0,0,0,3.45.65c2,.11,4.07.11,6.1,0"/><path class="c" d="M498.22,105.74c1.67-.11,3.33-.27,5-.47"/><polyline class="c" points="514.53 111.63 515.3 111 516.08 111.63"/><polyline class="c" points="517.49 112.77 518.27 113.4 519.25 113.25"/><polyline class="c" points="521.04 112.96 522.03 112.81 522.39 113.74"/><polyline class="c" points="523.04 115.43 523.4 116.37 524.33 116.72"/><polyline class="c" points="526.02 117.37 526.96 117.73 526.8 118.72"/><polyline class="c" points="526.52 120.51 526.36 121.5 526.99 122.28"/><polyline class="c" points="528.13 123.68 528.76 124.46 528.13 125.24"/><polyline class="c" points="526.99 126.65 526.36 127.42 526.52 128.41"/><polyline class="c" points="526.8 130.2 526.96 131.19 526.02 131.55"/><polyline class="c" points="524.33 132.2 523.4 132.56 523.04 133.49"/><polyline class="c" points="522.39 135.18 522.03 136.11 521.04 135.96"/><polyline class="c" points="519.25 135.67 518.27 135.52 517.49 136.15"/><polyline class="c" points="516.08 137.29 515.3 137.92 514.53 137.29"/><polyline class="c" points="513.12 136.15 512.34 135.52 511.35 135.67"/><polyline class="c" points="509.56 135.96 508.58 136.11 508.22 135.18"/><polyline class="c" points="507.57 133.49 507.21 132.56 506.28 132.2"/><polyline class="c" points="504.58 131.55 503.65 131.19 503.81 130.2"/><polyline class="c" points="504.09 128.41 504.25 127.42 503.62 126.65"/><polyline class="c" points="502.48 125.24 501.85 124.46 502.48 123.68"/><polyline class="c" points="503.62 122.28 504.25 121.5 504.09 120.51"/><polyline class="c" points="503.81 118.72 503.65 117.73 504.58 117.37"/><polyline class="c" points="506.28 116.72 507.21 116.37 507.57 115.43"/><polyline class="c" points="508.22 113.74 508.58 112.81 509.56 112.96"/><polyline class="c" points="511.35 113.25 512.34 113.4 513.12 112.77"/><line class="c" x1="533.84" y1="94.54" x2="528.84" y2="94.54"/><line class="p" x1="525.59" y1="94.54" x2="515.83" y2="94.54"/><polyline class="c" points="514.2 94.54 509.2 94.54 509.2 89.54"/><line class="p" x1="509.2" y1="86.29" x2="509.2" y2="76.53"/><line class="c" x1="509.2" y1="74.9" x2="509.2" y2="69.9"/><line class="c" x1="455.68" y1="122.11" x2="460.68" y2="122.11"/><line class="q" x1="465.25" y1="122.11" x2="478.98" y2="122.11"/><line class="c" x1="481.26" y1="122.11" x2="486.26" y2="122.11"/><line class="c" x1="455.68" y1="126.81" x2="460.68" y2="126.81"/><line class="r" x1="463.96" y1="126.81" x2="473.8" y2="126.81"/><line class="c" x1="475.44" y1="126.81" x2="480.44" y2="126.81"/><path class="h" d="M8.76,9.88c0-3.2,1.84-5.42,4.49-5.42a3.19,3.19,0,0,1,2.86,1.46h.06V.7h3.26V15H16.31V13.62h0a3.37,3.37,0,0,1-3,1.7C10.62,15.32,8.76,13.3,8.76,9.88Zm7.49,0c0-1.72-.7-3-2.12-3s-2.07,1.2-2.07,2.92.77,2.9,2,2.9S16.25,11.56,16.25,9.88Z"/><path class="h" d="M20.52,9.9A5.25,5.25,0,0,1,26,4.48,5.22,5.22,0,0,1,31.47,9.9,5.22,5.22,0,0,1,26,15.32,5.25,5.25,0,0,1,20.52,9.9Zm7.65,0c0-1.86-.76-3.12-2.18-3.12S23.82,8,23.82,9.9,24.56,13,26,13,28.17,11.76,28.17,9.9Z"/><path class="h" d="M32.56,4.76h3.13V6.22h.06a3.41,3.41,0,0,1,3.1-1.76,3.07,3.07,0,0,1,2.88,1.8h0A3.64,3.64,0,0,1,45,4.46c2.32,0,3.48,1.58,3.48,3.88V15H45.21V8.92c0-1.1-.46-1.74-1.44-1.74S42.15,8,42.15,9.26V15H38.89V8.92c0-1.1-.46-1.74-1.44-1.74S35.83,8,35.83,9.26V15H32.56Z"/><path class="h" d="M49.46,12.14c0-2.26,1.8-2.94,3.92-3.22C55.31,8.68,56,8.48,56,7.78s-.42-1.1-1.4-1.1S53,7.14,52.92,8h-3c.08-1.9,1.54-3.52,4.65-3.52a5.33,5.33,0,0,1,3.32.84,3.39,3.39,0,0,1,1.3,2.92V13.4c0,.82.08,1.28.36,1.46V15H56.39a2.86,2.86,0,0,1-.34-1.14h0a3.37,3.37,0,0,1-3,1.4C50.92,15.26,49.46,14.16,49.46,12.14Zm6.61-.8V10.12a7.91,7.91,0,0,1-1.68.54c-1.27.28-1.79.6-1.79,1.38s.61,1.14,1.4,1.14A1.86,1.86,0,0,0,56.07,11.34Z"/><path class="h" d="M60.76.7H64V3.34H60.76Zm0,4.06H64V15H60.76Z"/><path class="h" d="M65.58,4.76h3.14v1.4h.06A3.59,3.59,0,0,1,72,4.46c2.24,0,3.56,1.6,3.56,3.88V15H72.25V9c0-1.08-.54-1.82-1.6-1.82a1.91,1.91,0,0,0-1.81,2.16V15H65.58Z"/><path class="h" d="M79.62,9.9a5.48,5.48,0,0,1,10.95,0,5.48,5.48,0,0,1-10.95,0Zm7.65,0c0-1.86-.77-3.12-2.19-3.12S82.92,8,82.92,9.9s.74,3.1,2.16,3.1S87.27,11.76,87.27,9.9Z"/><path class="h" d="M90.44,4.76h3.32L94.88,9c.22.82.46,2,.46,2h0s.24-1.18.46-2l1.08-4.18h2.77l1.12,4.18c.22.88.48,2.06.48,2.06h0s.26-1.18.48-2L103,4.76h3.22L103,15H100l-1.2-4.64c-.23-.8-.44-1.84-.44-1.84h0s-.25,1-.46,1.84L96.6,15h-3Z"/><path class="h" d="M106.92,4.76h3.14v1.4h.06a3.59,3.59,0,0,1,3.17-1.7c2.24,0,3.56,1.6,3.56,3.88V15h-3.27V9c0-1.08-.54-1.82-1.6-1.82s-1.8.9-1.8,2.16V15h-3.26Z"/><path class="h" d="M117.86,9.86a5.15,5.15,0,0,1,5.26-5.4,5,5,0,0,1,3.5,1.28,6.48,6.48,0,0,1,1.81,5h-7.37a2.26,2.26,0,0,0,2.3,2.24,1.7,1.7,0,0,0,1.7-1h3.19a4.14,4.14,0,0,1-1.73,2.42,5.41,5.41,0,0,1-3.2.94A5.18,5.18,0,0,1,117.86,9.86Zm7.26-1.08a2,2,0,0,0-1.94-2c-1.24,0-1.88.78-2.1,2Z"/><path class="h" d="M129.52,4.76h3.12v1.6h.06a3,3,0,0,1,2.8-1.76,1.71,1.71,0,0,1,.64.08v2.8h-.08c-2-.28-3.28.7-3.28,2.92V15h-3.26Z"/><path class="h" d="M561.08,327.64a5.17,5.17,0,0,1,5.36-5.42c2.78,0,4.56,1.62,4.86,3.92h-3.14a1.69,1.69,0,0,0-1.68-1.52c-1.4,0-2.1,1.17-2.1,3s.7,3,2.1,3c1,0,1.64-.6,1.78-1.76h3.12c-.08,2.36-2,4.2-4.86,4.2A5.21,5.21,0,0,1,561.08,327.64Z"/><path class="h" d="M572,327.61a5.15,5.15,0,0,1,5.26-5.4,5,5,0,0,1,3.5,1.27,6.53,6.53,0,0,1,1.8,5h-7.36c.2,1.39,1,2.25,2.3,2.25a1.7,1.7,0,0,0,1.7-1h3.18a4.17,4.17,0,0,1-1.72,2.42,5.41,5.41,0,0,1-3.2.94A5.18,5.18,0,0,1,572,327.61Zm7.26-1.08a2,2,0,0,0-1.94-2c-1.24,0-1.88.77-2.1,2Z"/><path class="h" d="M583.62,322.5h3.12v1.61h.06a3,3,0,0,1,2.8-1.77,2,2,0,0,1,.64.08v2.8h-.08c-2-.27-3.28.71-3.28,2.93v4.6h-3.26Z"/><path class="h" d="M592.28,330.05v-5.51h-1.36v-2h1.36v-3.24h3.18v3.24h1.86v2h-1.86v4.81c0,.8.44,1,1.14,1l.72,0v2.38a7.52,7.52,0,0,1-1.78.16C593.64,332.87,592.28,332.25,592.28,330.05Z"/><path class="h" d="M598.5,318.44h3.26v2.64H598.5Zm0,4.06h3.26v10.25H598.5Z"/><path class="h" d="M604.06,324.58h-1.34V322.5h1.34v-.74a3.1,3.1,0,0,1,.6-2c.8-1.14,2.62-1.42,4.56-1.22v2.3c-1.22,0-1.92.06-1.92,1.2v.5h1.92v2.08H607.3v8.17h-3.24Zm6.2-6.14h3.26v2.64h-3.26Zm0,4.06h3.26v10.25h-3.26Z"/><path class="h" d="M614.62,327.64a5.17,5.17,0,0,1,5.36-5.42c2.78,0,4.56,1.62,4.86,3.92H621.7a1.69,1.69,0,0,0-1.68-1.52c-1.4,0-2.1,1.17-2.1,3s.7,3,2.1,3c1,0,1.64-.6,1.78-1.76h3.12c-.08,2.36-2,4.2-4.86,4.2A5.21,5.21,0,0,1,614.62,327.64Z"/><path class="h" d="M625.68,329.89c0-2.27,1.8-2.94,3.92-3.22,1.92-.24,2.6-.45,2.6-1.14s-.42-1.11-1.4-1.11-1.56.46-1.66,1.32h-3c.08-1.9,1.54-3.52,4.64-3.52a5.33,5.33,0,0,1,3.32.84,3.42,3.42,0,0,1,1.3,2.92v5.17c0,.82.08,1.28.36,1.46v.14H632.6a2.86,2.86,0,0,1-.34-1.14h0a3.37,3.37,0,0,1-3,1.4C627.14,333,625.68,331.91,625.68,329.89Zm6.6-.8v-1.22a7.91,7.91,0,0,1-1.68.54c-1.26.28-1.78.6-1.78,1.38s.6,1.14,1.4,1.14A1.86,1.86,0,0,0,632.28,329.09Z"/><path class="h" d="M637.58,330.05v-5.51h-1.36v-2h1.36v-3.24h3.18v3.24h1.86v2h-1.86v4.81c0,.8.44,1,1.14,1l.72,0v2.38a7.52,7.52,0,0,1-1.78.16C638.94,332.87,637.58,332.25,637.58,330.05Z"/><path class="h" d="M643.24,327.61a5.15,5.15,0,0,1,5.26-5.4,5,5,0,0,1,3.5,1.27,6.53,6.53,0,0,1,1.8,5h-7.36c.2,1.39,1,2.25,2.3,2.25a1.7,1.7,0,0,0,1.7-1h3.18a4.17,4.17,0,0,1-1.72,2.42,5.41,5.41,0,0,1-3.2.94A5.18,5.18,0,0,1,643.24,327.61Zm7.26-1.08a2,2,0,0,0-1.94-2c-1.24,0-1.88.77-2.1,2Z"/><path class="h" d="M566.48,349.26c0-2.26,1.8-2.94,3.92-3.22,1.92-.24,2.6-.44,2.6-1.14s-.42-1.1-1.4-1.1-1.56.46-1.66,1.32h-3c.08-1.9,1.54-3.52,4.64-3.52a5.33,5.33,0,0,1,3.32.84,3.39,3.39,0,0,1,1.3,2.92v5.16c0,.82.08,1.28.36,1.46v.14H573.4a2.86,2.86,0,0,1-.34-1.14h0a3.37,3.37,0,0,1-3,1.4C567.94,352.38,566.48,351.28,566.48,349.26Zm6.6-.8v-1.22a7.91,7.91,0,0,1-1.68.54c-1.26.28-1.78.6-1.78,1.38s.6,1.14,1.4,1.14A1.86,1.86,0,0,0,573.08,348.46Z"/><path class="h" d="M577.7,348.6v-6.72h3.24v6c0,1.12.5,1.74,1.54,1.74a1.82,1.82,0,0,0,1.8-2.06v-5.72h3.26v10.24h-3.12v-1.26h-.06a3.5,3.5,0,0,1-3.06,1.56C578.94,352.42,577.7,350.88,577.7,348.6Z"/><path class="h" d="M589.9,349.42v-5.5h-1.36v-2h1.36v-3.24h3.18v3.24h1.86v2h-1.86v4.8c0,.8.44,1,1.14,1l.72,0v2.38a7.52,7.52,0,0,1-1.78.16C591.26,352.24,589.9,351.62,589.9,349.42Z"/><path class="h" d="M596.12,337.82h3.26v5.32h.06a3.51,3.51,0,0,1,3-1.56c2.24,0,3.56,1.6,3.56,3.88v6.66h-3.26v-6c0-1.08-.54-1.82-1.6-1.82s-1.8.9-1.8,2.16v5.66h-3.26Z"/><path class="h" d="M607.06,347a5.47,5.47,0,1,1,5.48,5.42A5.25,5.25,0,0,1,607.06,347Zm7.64,0c0-1.86-.76-3.12-2.18-3.12s-2.16,1.26-2.16,3.12.74,3.1,2.16,3.1S614.7,348.88,614.7,347Z"/><path class="h" d="M619.1,341.88h3.12v1.6h.06a3,3,0,0,1,2.8-1.76,1.71,1.71,0,0,1,.64.08v2.8h-.08c-2-.28-3.28.7-3.28,2.92v4.6H619.1Z"/><path class="h" d="M626.76,337.82H630v2.64h-3.26Zm0,4.06H630v10.24h-3.26Z"/><path class="h" d="M632.38,349.42v-5.5H631v-2h1.36v-3.24h3.18v3.24h1.86v2h-1.86v4.8c0,.8.44,1,1.14,1l.72,0v2.38a7.52,7.52,0,0,1-1.78.16C633.74,352.24,632.38,351.62,632.38,349.42Z"/><path class="h" d="M639.24,353h1.12c1,0,1.34-.38,1.34-1.08a6.87,6.87,0,0,0-.62-2.12l-3-7.88h3.44l1.38,4.36c.32,1,.64,2.36.64,2.36h0s.28-1.36.6-2.36l1.34-4.36h3.26l-3.54,10.38c-.82,2.4-1.8,3.24-3.86,3.24h-2.12Z"/><path class="h" d="M39.17,1037.85h3.37l1.4,4.62c.3,1,.56,2.06.56,2.06h0s.25-1,.56-2.06l1.42-4.62h3.26l-3.54,10.24H42.71Z"/><path class="h" d="M50.49,1033.79h3.26v2.64H50.49Zm0,4.06h3.26v10.24H50.49Z"/><path class="h" d="M54.69,1044.77h3.08a1.66,1.66,0,0,0,1.89,1.52c1,0,1.6-.36,1.6-1,0-.92-1.25-1-2.6-1.26-1.79-.3-3.69-.78-3.69-3.18,0-2.16,2-3.28,4.42-3.28,2.91,0,4.47,1.26,4.63,3.28H61c-.12-.92-.74-1.2-1.64-1.2s-1.42.3-1.42.94,1.16.82,2.46,1.06c1.8.3,3.92.76,3.92,3.38,0,2.24-2,3.4-4.67,3.4C56.67,1048.41,54.79,1047,54.69,1044.77Z"/><path class="h" d="M65.39,1033.79h3.27v2.64H65.39Zm0,4.06h3.27v10.24H65.39Z"/><path class="h" d="M71,1045.39v-5.5H69.65v-2H71v-3.24H74.2v3.24h1.86v2H74.2v4.8c0,.8.43,1,1.13,1l.73,0v2.38a7.56,7.56,0,0,1-1.79.16C72.37,1048.21,71,1047.59,71,1045.39Z"/><path class="h" d="M76.67,1043a5.48,5.48,0,1,1,5.49,5.42A5.25,5.25,0,0,1,76.67,1043Zm7.65,0c0-1.86-.76-3.12-2.19-3.12S80,1041.13,80,1043s.74,3.1,2.16,3.1S84.32,1044.85,84.32,1043Z"/><path class="h" d="M88.71,1037.85h3.12v1.6h.06a3,3,0,0,1,2.81-1.76,1.62,1.62,0,0,1,.63.08v2.8h-.07c-2-.28-3.29.7-3.29,2.92v4.6H88.71Z"/><path class="h" d="M95.75,1044.77h3.08a1.66,1.66,0,0,0,1.88,1.52c1,0,1.61-.36,1.61-1,0-.92-1.25-1-2.61-1.26-1.78-.3-3.68-.78-3.68-3.18,0-2.16,2-3.28,4.42-3.28,2.91,0,4.47,1.26,4.63,3.28h-3c-.12-.92-.75-1.2-1.65-1.2s-1.42.3-1.42.94,1.16.82,2.46,1.06c1.81.3,3.93.76,3.93,3.38,0,2.24-2,3.4-4.67,3.4C97.73,1048.41,95.85,1047,95.75,1044.77Z"/><path class="a" d="M143.85,149.69v50.7a124.08,124.08,0,0,0,36.35,87.76h0a123.21,123.21,0,0,0,13.31,11.55"/><polygon class="b" points="136.84 156.14 137.58 156.82 143.84 150.07 150.11 156.82 150.84 156.14 143.84 148.6 139.76 153 136.84 156.14"/><circle class="g" cx="72.78" cy="904.23" r="19.54"/><path class="g" d="M66.87,923.77H78.69a21.45,21.45,0,0,1,21.45,21.45v37.59a0,0,0,0,1,0,0H45.42a0,0,0,0,1,0,0V945.22A21.45,21.45,0,0,1,66.87,923.77Z"/><circle class="g" cx="45.06" cy="941.17" r="19.54"/><path class="g" d="M39.15,960.71H51a21.45,21.45,0,0,1,21.45,21.45v37.59a0,0,0,0,1,0,0H17.7a0,0,0,0,1,0,0V982.16A21.45,21.45,0,0,1,39.15,960.71Z"/><circle class="g" cx="99.78" cy="941.17" r="19.54"/><path class="g" d="M93.87,960.71h11.82a21.45,21.45,0,0,1,21.45,21.45v37.59a0,0,0,0,1,0,0H72.42a0,0,0,0,1,0,0V982.16A21.45,21.45,0,0,1,93.87,960.71Z"/><path class="j" d="M33.62,591A10.45,10.45,0,0,1,35,588.14a8.17,8.17,0,0,1,1.89-2h1.46a10.2,10.2,0,0,0-2.77,3.19,8.3,8.3,0,0,0-1.09,4.12V595a8.3,8.3,0,0,0,1.09,4.12,10.31,10.31,0,0,0,2.77,3.19H36.86a8.17,8.17,0,0,1-1.89-2A10.76,10.76,0,0,1,33.62,591Z"/><path class="j" d="M44.18,592.57a3,3,0,0,0,2-.58,1.88,1.88,0,0,0,.67-1.51v-.13a1.85,1.85,0,0,0-.62-1.49,2.5,2.5,0,0,0-1.68-.52,2.81,2.81,0,0,0-1.59.41,3.16,3.16,0,0,0-1.06,1.19l-1.13-.87A4.26,4.26,0,0,1,44.54,587a5,5,0,0,1,2,.37,3.13,3.13,0,0,1,1.38,1.09,2.88,2.88,0,0,1,.51,1.71,2.77,2.77,0,0,1-.68,1.91,3.41,3.41,0,0,1-1.77,1v.08a3.4,3.4,0,0,1,1.92,1,3,3,0,0,1,.78,2.14,3.42,3.42,0,0,1-.54,1.91,3.64,3.64,0,0,1-1.52,1.29,5.31,5.31,0,0,1-2.28.46,4.68,4.68,0,0,1-2.47-.59,5.91,5.91,0,0,1-1.65-1.55l1.13-.87a4.05,4.05,0,0,0,1.23,1.27,3.25,3.25,0,0,0,1.76.42,3,3,0,0,0,2-.62,2.16,2.16,0,0,0,.72-1.73v-.15a2.17,2.17,0,0,0-.7-1.73,3.12,3.12,0,0,0-2.07-.61H42.8v-1.29Z"/><path class="j" d="M55.83,597.46a11.08,11.08,0,0,1-1.35,2.81,8.17,8.17,0,0,1-1.89,2H51.13a10.31,10.31,0,0,0,2.77-3.19A8.29,8.29,0,0,0,55,595v-1.55a8.29,8.29,0,0,0-1.08-4.12,10.2,10.2,0,0,0-2.77-3.19h1.46a8.17,8.17,0,0,1,1.89,2A11.08,11.08,0,0,1,55.83,591a10.85,10.85,0,0,1,0,6.51Z"/><path class="j" d="M90,598.2l1-.85a4.29,4.29,0,0,0,3.37,1.46,3.48,3.48,0,0,0,1.8-.4,1.32,1.32,0,0,0,.66-1.2,1.05,1.05,0,0,0-.43-1,2.77,2.77,0,0,0-1.2-.4l-1.46-.22a8.29,8.29,0,0,1-1.55-.35,2.74,2.74,0,0,1-1.15-.75,2.09,2.09,0,0,1-.49-1.47,2.33,2.33,0,0,1,1-2.06,4.71,4.71,0,0,1,2.72-.71,5,5,0,0,1,3.78,1.49l-.94.88a3.55,3.55,0,0,0-2.9-1.17,3.12,3.12,0,0,0-1.68.38A1.23,1.23,0,0,0,92,593a1.06,1.06,0,0,0,.44.95,2.87,2.87,0,0,0,1.2.4l1.46.22a8.53,8.53,0,0,1,1.57.35,2.71,2.71,0,0,1,1.14.75,2.13,2.13,0,0,1,.48,1.47,2.48,2.48,0,0,1-1.07,2.13,4.8,4.8,0,0,1-2.86.77A5.45,5.45,0,0,1,90,598.2Z"/><path class="j" d="M102,599.42a3.85,3.85,0,0,1-1.52-1.69,6.39,6.39,0,0,1,0-5.12,4,4,0,0,1,1.5-1.71,4.11,4.11,0,0,1,2.23-.6,4,4,0,0,1,2.15.58,3.9,3.9,0,0,1,1.45,1.61,5.1,5.1,0,0,1,.52,2.34v.69h-6.88V596a2.71,2.71,0,0,0,2.85,2.83,3,3,0,0,0,1.6-.43,2.86,2.86,0,0,0,1.06-1.19l1.06.72a3.45,3.45,0,0,1-1.41,1.55,4.46,4.46,0,0,1-2.31.59A4.37,4.37,0,0,1,102,599.42Zm.81-7.57a2.69,2.69,0,0,0-1,1,2.9,2.9,0,0,0-.36,1.44v.13h5.33v-.2a2.82,2.82,0,0,0-.71-2,2.44,2.44,0,0,0-1.86-.76A2.79,2.79,0,0,0,102.79,591.85Z"/><path class="j" d="M110,598.58h2.72v-6.84H110v-1.23h4.16v2.34h.09a3,3,0,0,1,3.13-2.34h1.3V592h-1.75a2.73,2.73,0,0,0-2,.74,2.54,2.54,0,0,0-.73,1.87v4h3.6v1.22H110Z"/><path class="j" d="M123,599.8l-3.33-9.29h1.46l2.77,8.09H124l2.77-8.09h1.42l-3.33,9.29Z"/><path class="j" d="M131.68,599.42a3.85,3.85,0,0,1-1.52-1.69,6.39,6.39,0,0,1,0-5.12,4,4,0,0,1,1.5-1.71,4.11,4.11,0,0,1,2.23-.6,4,4,0,0,1,2.15.58,3.9,3.9,0,0,1,1.45,1.61,5.1,5.1,0,0,1,.52,2.34v.69h-6.88V596a2.71,2.71,0,0,0,2.84,2.83,3,3,0,0,0,1.61-.43,2.86,2.86,0,0,0,1.06-1.19l1.06.72a3.45,3.45,0,0,1-1.41,1.55A4.47,4.47,0,0,1,134,600,4.36,4.36,0,0,1,131.68,599.42Zm.81-7.57a2.69,2.69,0,0,0-1,1,2.9,2.9,0,0,0-.36,1.44v.13h5.33v-.2a2.82,2.82,0,0,0-.71-2,2.44,2.44,0,0,0-1.86-.76A2.79,2.79,0,0,0,132.49,591.85Z"/><path class="j" d="M139.53,598.2l1-.85a4.5,4.5,0,0,0,1.49,1.1,4.6,4.6,0,0,0,1.88.36,3.48,3.48,0,0,0,1.8-.4,1.32,1.32,0,0,0,.66-1.2,1.05,1.05,0,0,0-.43-1,2.77,2.77,0,0,0-1.21-.4l-1.45-.22a8.29,8.29,0,0,1-1.55-.35,2.68,2.68,0,0,1-1.15-.75,2.09,2.09,0,0,1-.49-1.47,2.33,2.33,0,0,1,1-2.06,4.7,4.7,0,0,1,2.71-.71,4.94,4.94,0,0,1,3.78,1.49l-.93.88a3.56,3.56,0,0,0-2.9-1.17,3.12,3.12,0,0,0-1.68.38,1.23,1.23,0,0,0-.59,1.1,1.06,1.06,0,0,0,.44.95,2.87,2.87,0,0,0,1.2.4l1.46.22a8.23,8.23,0,0,1,1.56.35,2.68,2.68,0,0,1,1.15.75,2.13,2.13,0,0,1,.47,1.47,2.47,2.47,0,0,1-1.06,2.13,4.8,4.8,0,0,1-2.86.77A5.45,5.45,0,0,1,139.53,598.2Z"/><path class="j" d="M160.91,590.51l1,3.59,1.2,4.5h0l1.38-4.54,1.1-3.55h1.28l1.12,3.55,1.42,4.54h0l1.19-4.52,1-3.57h1.35l-2.65,9.29h-1.78l-2.29-7.29h0l-.92,3-1.35,4.32h-1.75l-2.66-9.29Z"/><path class="j" d="M176.68,599.42a3.85,3.85,0,0,1-1.52-1.69,5.7,5.7,0,0,1-.53-2.55,5.79,5.79,0,0,1,.54-2.57,4,4,0,0,1,1.5-1.71,4.1,4.1,0,0,1,2.22-.6,4,4,0,0,1,2.16.58,3.9,3.9,0,0,1,1.45,1.61,5.23,5.23,0,0,1,.52,2.34v.69h-6.88V596a2.69,2.69,0,0,0,2.84,2.83,3,3,0,0,0,1.61-.43,2.86,2.86,0,0,0,1.06-1.19l1.06.72a3.45,3.45,0,0,1-1.41,1.55A4.47,4.47,0,0,1,179,600,4.36,4.36,0,0,1,176.68,599.42Zm.81-7.57a2.69,2.69,0,0,0-1,1,2.9,2.9,0,0,0-.36,1.44v.13h5.33v-.2a2.82,2.82,0,0,0-.71-2,2.44,2.44,0,0,0-1.87-.76A2.78,2.78,0,0,0,177.49,591.85Z"/><path class="j" d="M185,586.48h1.44V592h.07a3,3,0,0,1,2.87-1.73,3.16,3.16,0,0,1,2.67,1.28,7.14,7.14,0,0,1,0,7.15,3.14,3.14,0,0,1-2.67,1.29,3,3,0,0,1-2.87-1.73h-.07v1.51H185Zm5.76,11.5a2.85,2.85,0,0,0,.7-2v-1.58a2.87,2.87,0,0,0-.7-2,2.52,2.52,0,0,0-1.94-.75,2.73,2.73,0,0,0-1.69.5,1.64,1.64,0,0,0-.69,1.4v3.35a1.66,1.66,0,0,0,.69,1.41,2.8,2.8,0,0,0,1.69.5A2.49,2.49,0,0,0,190.79,598Z"/><path class="j" d="M194.43,598.2l1-.85a4.5,4.5,0,0,0,1.49,1.1,4.6,4.6,0,0,0,1.88.36,3.48,3.48,0,0,0,1.8-.4,1.32,1.32,0,0,0,.66-1.2,1.05,1.05,0,0,0-.43-1,2.77,2.77,0,0,0-1.21-.4l-1.45-.22a8.29,8.29,0,0,1-1.55-.35,2.68,2.68,0,0,1-1.15-.75,2.09,2.09,0,0,1-.49-1.47,2.33,2.33,0,0,1,1-2.06,4.7,4.7,0,0,1,2.71-.71,4.94,4.94,0,0,1,3.78,1.49l-.93.88a3.56,3.56,0,0,0-2.9-1.17,3.12,3.12,0,0,0-1.68.38,1.23,1.23,0,0,0-.59,1.1,1.06,1.06,0,0,0,.44.95,2.87,2.87,0,0,0,1.2.4l1.46.22a8.23,8.23,0,0,1,1.56.35,2.68,2.68,0,0,1,1.15.75,2.18,2.18,0,0,1,.47,1.47,2.47,2.47,0,0,1-1.06,2.13,4.8,4.8,0,0,1-2.86.77A5.45,5.45,0,0,1,194.43,598.2Z"/><path class="j" d="M204.74,598.54h3.4v-6.75h-3.4v-1.28h4.84v8h3.12v1.26h-8Zm4.95-12.06v1.91h-1.91v-1.91Z"/><path class="j" d="M218.26,596.71a2.29,2.29,0,0,0,.27,1.26,1.15,1.15,0,0,0,.78.51,9.45,9.45,0,0,0,1.54.1H222v1.22h-1.11a8.72,8.72,0,0,1-2.28-.24,2.22,2.22,0,0,1-1.31-.93,3.41,3.41,0,0,1-.46-1.94v-5h-3.1v-1.23h3.1v-3.27h1.44v3.27h4.23v1.23h-4.23Z"/><path class="j" d="M226.18,599.42a3.85,3.85,0,0,1-1.52-1.69,5.7,5.7,0,0,1-.53-2.55,5.79,5.79,0,0,1,.54-2.57,4,4,0,0,1,1.5-1.71,4.1,4.1,0,0,1,2.22-.6,4,4,0,0,1,2.16.58,3.9,3.9,0,0,1,1.45,1.61,5.23,5.23,0,0,1,.52,2.34v.69h-6.88V596a2.69,2.69,0,0,0,2.84,2.83,3,3,0,0,0,1.61-.43,2.86,2.86,0,0,0,1.06-1.19l1.06.72a3.45,3.45,0,0,1-1.41,1.55,4.47,4.47,0,0,1-2.32.59A4.36,4.36,0,0,1,226.18,599.42Zm.81-7.57a2.69,2.69,0,0,0-1,1,2.9,2.9,0,0,0-.36,1.44v.13H231v-.2a2.82,2.82,0,0,0-.71-2,2.44,2.44,0,0,0-1.87-.76A2.78,2.78,0,0,0,227,591.85Z"/><path class="j" d="M97.73,621.17a1.52,1.52,0,0,1-1.65-1.51H96a2.67,2.67,0,0,1-2.79,1.73,3.36,3.36,0,0,1-2.32-.76,2.59,2.59,0,0,1-.87-2.07q0-2.7,4-2.7h2V615a2,2,0,0,0-.58-1.53,2.34,2.34,0,0,0-1.64-.53,2.68,2.68,0,0,0-2.48,1.37l-1-.72a3.1,3.1,0,0,1,1.29-1.33,4.41,4.41,0,0,1,2.25-.54,3.8,3.8,0,0,1,2.6.84,2.84,2.84,0,0,1,1,2.29v4.47a.58.58,0,0,0,.19.45.6.6,0,0,0,.46.19h.64v1.26Zm-2.46-1.48a1.45,1.45,0,0,0,.72-1.22v-1.53H94q-2.49,0-2.49,1.41v.38a1.27,1.27,0,0,0,.52,1.08,2.34,2.34,0,0,0,1.41.37A3.15,3.15,0,0,0,95.27,619.69Z"/><path class="j" d="M100.49,621.17v-9.28h1.44v1.51H102a2.65,2.65,0,0,1,2.65-1.73,3,3,0,0,1,2.34.94,3.63,3.63,0,0,1,.88,2.61v5.95h-1.44v-5.7a2.79,2.79,0,0,0-.56-1.89,2.07,2.07,0,0,0-1.64-.63,2.79,2.79,0,0,0-1.63.46,1.48,1.48,0,0,0-.67,1.32v6.44Z"/><path class="j" d="M116.27,619.66h-.07a3,3,0,0,1-2.86,1.73,3.14,3.14,0,0,1-2.67-1.29,7.05,7.05,0,0,1,0-7.14,3.14,3.14,0,0,1,2.67-1.29,3,3,0,0,1,2.86,1.73h.07v-5.55h1.44v13.32h-1.44Zm-.68,0a1.67,1.67,0,0,0,.68-1.41v-3.34a1.67,1.67,0,0,0-.68-1.41,2.82,2.82,0,0,0-1.69-.5,2.55,2.55,0,0,0-2,.75,2.89,2.89,0,0,0-.7,2v1.58a2.89,2.89,0,0,0,.7,2,2.55,2.55,0,0,0,2,.75A2.82,2.82,0,0,0,115.59,619.61Z"/><path class="j" d="M131.05,620.08a6.23,6.23,0,0,1,0-7.1,3.83,3.83,0,0,1,3.08-1.31,3.78,3.78,0,0,1,2.16.58,3.45,3.45,0,0,1,1.28,1.56l-1.15.61a2.17,2.17,0,0,0-.85-1.11,2.51,2.51,0,0,0-1.44-.4,2.43,2.43,0,0,0-1.94.79,2.93,2.93,0,0,0-.71,2v1.58a3,3,0,0,0,.71,2,2.5,2.5,0,0,0,2,.78,2.6,2.6,0,0,0,2.52-1.62l1,.7a3.46,3.46,0,0,1-1.33,1.57,4,4,0,0,1-2.23.59A3.86,3.86,0,0,1,131.05,620.08Z"/><path class="j" d="M141.58,620.8a3.87,3.87,0,0,1-1.52-1.7,6.39,6.39,0,0,1,0-5.12,4,4,0,0,1,3.72-2.31,4.06,4.06,0,0,1,2.16.58,3.86,3.86,0,0,1,1.45,1.62,5,5,0,0,1,.52,2.34v.68H141v.43a2.68,2.68,0,0,0,2.84,2.83,2.94,2.94,0,0,0,1.61-.43,2.86,2.86,0,0,0,1.06-1.19l1.06.72a3.35,3.35,0,0,1-1.41,1.55,4.82,4.82,0,0,1-4.62,0Zm.81-7.57a2.6,2.6,0,0,0-1,1,3,3,0,0,0-.36,1.44v.13h5.33v-.2a2.83,2.83,0,0,0-.71-2,2.44,2.44,0,0,0-1.87-.76A2.69,2.69,0,0,0,142.39,613.23Z"/><path class="j" d="M149.61,620h2.72v-6.84h-2.72v-1.22h4.16v2.34h.09a3,3,0,0,1,3.13-2.34h1.29v1.44h-1.74a2.72,2.72,0,0,0-2,.73,2.56,2.56,0,0,0-.73,1.88v4h3.6v1.22h-7.76Z"/><path class="j" d="M163.36,618.08a2.35,2.35,0,0,0,.27,1.27,1.14,1.14,0,0,0,.78.5,8.43,8.43,0,0,0,1.54.1h1.14v1.22H166a8.72,8.72,0,0,1-2.28-.24,2.25,2.25,0,0,1-1.31-.93,3.41,3.41,0,0,1-.46-1.94v-4.95h-3.1v-1.22h3.1v-3.28h1.44v3.28h4.23v1.22h-4.23Z"/><path class="j" d="M169.64,619.91H173v-6.75h-3.4v-1.27h4.84v8h3.12v1.26h-8Zm5-12.06v1.91h-1.91v-1.91Z"/><path class="j" d="M179.42,620h3.13v-6.84h-3.31v-1.22h3.31V611a3.47,3.47,0,0,1,.46-2,2.25,2.25,0,0,1,1.31-.92,8.26,8.26,0,0,1,2.28-.25h1.11v1.23h-1.13a8.43,8.43,0,0,0-1.54.1,1.14,1.14,0,0,0-.78.5A2.33,2.33,0,0,0,184,611v.94h3.72v1.22H184V620h3.31v1.22h-7.88Z"/><path class="j" d="M189.44,619.91h3.4v-6.75h-3.4v-1.27h4.84v8h3.12v1.26h-8Zm4.95-12.06v1.91h-1.91v-1.91Z"/><path class="j" d="M200.35,620.08a6.19,6.19,0,0,1,0-7.1,3.83,3.83,0,0,1,3.08-1.31,3.78,3.78,0,0,1,2.16.58,3.37,3.37,0,0,1,1.27,1.56l-1.15.61a2.1,2.1,0,0,0-.84-1.11,2.51,2.51,0,0,0-1.44-.4,2.47,2.47,0,0,0-2,.79,3,3,0,0,0-.7,2v1.58a3,3,0,0,0,.7,2,2.53,2.53,0,0,0,2,.78,2.58,2.58,0,0,0,2.52-1.62l1,.7a3.46,3.46,0,0,1-1.33,1.57,4,4,0,0,1-2.24.59A3.85,3.85,0,0,1,200.35,620.08Z"/><path class="j" d="M216.53,621.17a1.52,1.52,0,0,1-1.65-1.51h-.09a2.68,2.68,0,0,1-2.79,1.73,3.39,3.39,0,0,1-2.33-.76,2.61,2.61,0,0,1-.86-2.07q0-2.7,4-2.7h2V615a2,2,0,0,0-.58-1.53,2.34,2.34,0,0,0-1.64-.53,2.67,2.67,0,0,0-2.48,1.37l-1-.72a3.1,3.1,0,0,1,1.29-1.33,4.36,4.36,0,0,1,2.25-.54,3.82,3.82,0,0,1,2.6.84,2.87,2.87,0,0,1,1,2.29v4.47a.61.61,0,0,0,.18.45.62.62,0,0,0,.46.19h.65v1.26Zm-2.46-1.48a1.45,1.45,0,0,0,.72-1.22v-1.53h-2q-2.49,0-2.49,1.41v.38a1.28,1.28,0,0,0,.51,1.08,2.39,2.39,0,0,0,1.42.37A3.15,3.15,0,0,0,214.07,619.69Z"/><path class="j" d="M222.76,618.08a2.35,2.35,0,0,0,.27,1.27,1.14,1.14,0,0,0,.78.5,8.43,8.43,0,0,0,1.54.1h1.13v1.22h-1.11a8.72,8.72,0,0,1-2.28-.24,2.22,2.22,0,0,1-1.31-.93,3.41,3.41,0,0,1-.46-1.94v-4.95h-3.1v-1.22h3.1v-3.28h1.44v3.28H227v1.22h-4.23Z"/><path class="j" d="M230.68,620.8a3.87,3.87,0,0,1-1.52-1.7,5.7,5.7,0,0,1-.53-2.55,5.82,5.82,0,0,1,.54-2.57,4,4,0,0,1,3.72-2.31,4.06,4.06,0,0,1,2.16.58,3.86,3.86,0,0,1,1.45,1.62,5.17,5.17,0,0,1,.52,2.34v.68h-6.88v.43a2.68,2.68,0,0,0,2.84,2.83,2.94,2.94,0,0,0,1.61-.43,2.86,2.86,0,0,0,1.06-1.19l1.06.72a3.35,3.35,0,0,1-1.41,1.55,4.82,4.82,0,0,1-4.62,0Zm.81-7.57a2.6,2.6,0,0,0-1,1,3,3,0,0,0-.36,1.44v.13h5.33v-.2a2.83,2.83,0,0,0-.71-2,2.44,2.44,0,0,0-1.87-.76A2.69,2.69,0,0,0,231.49,613.23Z"/><path class="j" d="M33.62,815.72A10.6,10.6,0,0,1,35,812.91a8.12,8.12,0,0,1,1.89-2h1.46a10.27,10.27,0,0,0-2.77,3.18,8.33,8.33,0,0,0-1.09,4.13v1.54a8.33,8.33,0,0,0,1.09,4.13,10.27,10.27,0,0,0,2.77,3.18H36.86a8.12,8.12,0,0,1-1.89-2,10.6,10.6,0,0,1-1.35-2.81,10.67,10.67,0,0,1,0-6.52Z"/><path class="j" d="M46.13,824.58v-2.47H39.94v-1.33L45.37,812h2.2v8.86h1.87v1.24H47.57v2.47Zm-4.84-3.71h4.84v-7.69h-.07Z"/><path class="j" d="M55.83,822.24a11.25,11.25,0,0,1-1.35,2.81,8.12,8.12,0,0,1-1.89,2H51.13a10.27,10.27,0,0,0,2.77-3.18A8.32,8.32,0,0,0,55,819.75v-1.54a8.32,8.32,0,0,0-1.08-4.13,10.27,10.27,0,0,0-2.77-3.18h1.46a8.12,8.12,0,0,1,1.89,2,11.25,11.25,0,0,1,1.35,2.81,10.88,10.88,0,0,1,0,6.52Z"/><path class="j" d="M93.31,824.58,90,815.29h1.45l2.78,8.08h.07l2.77-8.08h1.42l-3.33,9.29Z"/><path class="j" d="M100.34,823.32h3.41v-6.75h-3.41v-1.28h4.85v8h3.11v1.26h-8Zm5-12.06v1.91h-1.9v-1.91Z"/><path class="j" d="M117.53,824.58a1.52,1.52,0,0,1-1.65-1.51h-.09a2.67,2.67,0,0,1-2.79,1.72,3.43,3.43,0,0,1-2.33-.75,2.64,2.64,0,0,1-.86-2.07q0-2.7,4-2.7h2v-.92a2,2,0,0,0-.58-1.53,2.34,2.34,0,0,0-1.64-.52,2.65,2.65,0,0,0-2.48,1.37l-1-.72a3.12,3.12,0,0,1,1.29-1.34,4.36,4.36,0,0,1,2.25-.54,3.82,3.82,0,0,1,2.6.84,2.86,2.86,0,0,1,1,2.3v4.46a.65.65,0,0,0,.65.65h.64v1.26Zm-2.46-1.49a1.44,1.44,0,0,0,.72-1.21v-1.53h-2c-1.66,0-2.49.47-2.49,1.4v.38a1.24,1.24,0,0,0,.52,1.08,2.34,2.34,0,0,0,1.41.38A3.15,3.15,0,0,0,115.07,823.09Z"/><path class="j" d="M130.13,811.26h1.44v5.54h.08a3,3,0,0,1,2.86-1.73,3.14,3.14,0,0,1,2.67,1.29,7.14,7.14,0,0,1,0,7.15,3.13,3.13,0,0,1-2.67,1.28,3,3,0,0,1-2.86-1.72h-.08v1.51h-1.44Zm5.76,11.5a2.85,2.85,0,0,0,.7-2v-1.59a2.85,2.85,0,0,0-.7-2,2.49,2.49,0,0,0-1.94-.76,2.74,2.74,0,0,0-1.69.51,1.63,1.63,0,0,0-.69,1.4v3.35a1.63,1.63,0,0,0,.69,1.4,2.74,2.74,0,0,0,1.69.51A2.53,2.53,0,0,0,135.89,822.76Z"/><path class="j" d="M139.71,823.35h2.72v-6.84h-2.72v-1.22h4.16v2.34H144a3,3,0,0,1,3.13-2.34h1.29v1.44h-1.74a2.73,2.73,0,0,0-2,.74,2.52,2.52,0,0,0-.73,1.87v4h3.6v1.23h-7.76Z"/><path class="j" d="M151.38,824.2a4,4,0,0,1-1.46-1.69,6.76,6.76,0,0,1,0-5.15,3.91,3.91,0,0,1,1.46-1.69,4.48,4.48,0,0,1,4.48,0,3.84,3.84,0,0,1,1.46,1.69,6.76,6.76,0,0,1,0,5.15,3.9,3.9,0,0,1-1.46,1.69,4.55,4.55,0,0,1-4.48,0Zm4.2-1.4a3,3,0,0,0,.72-2.2v-1.33a3.08,3.08,0,0,0-.72-2.21,3,3,0,0,0-3.92,0,3.08,3.08,0,0,0-.72,2.21v1.33a3,3,0,0,0,.72,2.2,2.94,2.94,0,0,0,3.92,0Z"/><path class="j" d="M160.91,815.29l1,3.58,1.2,4.5h0l1.38-4.53,1.1-3.55h1.28l1.12,3.55,1.42,4.53h0l1.19-4.52,1-3.56h1.35l-2.65,9.29h-1.78l-2.29-7.29h0l-.92,3-1.35,4.32h-1.75l-2.66-9.29Z"/><path class="j" d="M174.63,823l1-.85a4.25,4.25,0,0,0,3.37,1.46,3.48,3.48,0,0,0,1.8-.41,1.31,1.31,0,0,0,.66-1.19,1.06,1.06,0,0,0-.43-1,2.92,2.92,0,0,0-1.21-.39l-1.45-.22a8.29,8.29,0,0,1-1.55-.35,2.61,2.61,0,0,1-1.15-.76,2,2,0,0,1-.49-1.46,2.33,2.33,0,0,1,1-2.06,4.62,4.62,0,0,1,2.71-.72,4.91,4.91,0,0,1,3.78,1.5l-.93.88a3.56,3.56,0,0,0-2.9-1.17,3.12,3.12,0,0,0-1.68.38,1.23,1.23,0,0,0-.59,1.1,1.06,1.06,0,0,0,.44,1,3.19,3.19,0,0,0,1.2.4l1.46.21a9.08,9.08,0,0,1,1.56.35,2.7,2.7,0,0,1,1.15.76,2.14,2.14,0,0,1,.47,1.47,2.47,2.47,0,0,1-1.06,2.13,4.8,4.8,0,0,1-2.86.76A5.45,5.45,0,0,1,174.63,823Z"/><path class="j" d="M186.58,824.2a3.9,3.9,0,0,1-1.52-1.69,6.39,6.39,0,0,1,0-5.12,4,4,0,0,1,1.5-1.71,4.11,4.11,0,0,1,2.22-.61,4,4,0,0,1,2.16.59,3.9,3.9,0,0,1,1.45,1.61,5.17,5.17,0,0,1,.52,2.34v.68H186v.44a2.82,2.82,0,0,0,.77,2,2.77,2.77,0,0,0,2.07.79,3,3,0,0,0,1.61-.42,2.82,2.82,0,0,0,1.06-1.2l1.06.72a3.42,3.42,0,0,1-1.41,1.56,4.47,4.47,0,0,1-2.32.58A4.35,4.35,0,0,1,186.58,824.2Zm.81-7.57a2.69,2.69,0,0,0-1,1,2.9,2.9,0,0,0-.36,1.44v.12h5.33V819a2.82,2.82,0,0,0-.71-2,2.45,2.45,0,0,0-1.87-.77A2.79,2.79,0,0,0,187.39,816.63Z"/><path class="j" d="M194.61,823.35h2.72v-6.84h-2.72v-1.22h4.16v2.34h.09a3,3,0,0,1,3.13-2.34h1.29v1.44h-1.74a2.73,2.73,0,0,0-2,.74,2.52,2.52,0,0,0-.73,1.87v4h3.6v1.23h-7.76Z"/><path class="j" d="M94.06,842.85a2.33,2.33,0,0,0,.27,1.27,1.18,1.18,0,0,0,.78.51,9.54,9.54,0,0,0,1.54.1h1.14V846H96.67a8.72,8.72,0,0,1-2.28-.24,2.29,2.29,0,0,1-1.31-.93,3.44,3.44,0,0,1-.46-1.94v-5H89.53v-1.23h3.09v-3.27h1.44v3.27h4.23v1.23H94.06Z"/><path class="j" d="M100.49,832.63h1.44v5.54H102a2.65,2.65,0,0,1,2.65-1.72,3.05,3.05,0,0,1,2.34.93,3.67,3.67,0,0,1,.88,2.61v6h-1.44v-5.71a2.79,2.79,0,0,0-.56-1.89,2.07,2.07,0,0,0-1.64-.63,2.87,2.87,0,0,0-1.63.46,1.51,1.51,0,0,0-.67,1.33V846h-1.44Z"/><path class="j" d="M110,844.73h2.72v-6.84H110v-1.23h4.16V839h.09a3,3,0,0,1,3.13-2.34h1.3v1.44h-1.75a2.73,2.73,0,0,0-2,.74,2.54,2.54,0,0,0-.73,1.87v4h3.6V846H110Z"/><path class="j" d="M121.68,845.57a3.91,3.91,0,0,1-1.46-1.69,6.76,6.76,0,0,1,0-5.15,4,4,0,0,1,1.46-1.69,4.55,4.55,0,0,1,4.48,0,3.9,3.9,0,0,1,1.46,1.69,6.76,6.76,0,0,1,0,5.15,3.84,3.84,0,0,1-1.46,1.69,4.48,4.48,0,0,1-4.48,0Zm4.2-1.39a3.08,3.08,0,0,0,.72-2.21v-1.33a3,3,0,0,0-.72-2.2,2.94,2.94,0,0,0-3.92,0,3,3,0,0,0-.72,2.2V842a3.08,3.08,0,0,0,.72,2.21,3,3,0,0,0,3.92,0Z"/><path class="j" d="M136,844.44H136a2.67,2.67,0,0,1-2.65,1.73,3.08,3.08,0,0,1-2.35-.94,3.67,3.67,0,0,1-.87-2.61v-6h1.44v5.71a2.74,2.74,0,0,0,.56,1.89,2.05,2.05,0,0,0,1.63.63,2.79,2.79,0,0,0,1.63-.46,1.51,1.51,0,0,0,.68-1.32v-6.45h1.44V846H136Z"/><path class="j" d="M147.41,845.64a4.13,4.13,0,0,1-1.08,3,4,4,0,0,1-3,1.1,4.41,4.41,0,0,1-3.33-1.28l.84-1a3.33,3.33,0,0,0,2.5,1c1.76,0,2.63-.93,2.63-2.78v-1.54h-.07a3,3,0,0,1-2.86,1.72,3.19,3.19,0,0,1-2.67-1.26,6.69,6.69,0,0,1,0-6.94,3.19,3.19,0,0,1,2.67-1.26,3,3,0,0,1,2.86,1.72H146v-1.51h1.44Zm-2.12-1.51a1.64,1.64,0,0,0,.68-1.4v-3.1a1.64,1.64,0,0,0-.68-1.4,2.76,2.76,0,0,0-1.69-.51,2.55,2.55,0,0,0-1.95.76,2.85,2.85,0,0,0-.7,2v1.34a2.85,2.85,0,0,0,.7,2,2.55,2.55,0,0,0,1.95.76A2.76,2.76,0,0,0,145.29,844.13Z"/><path class="j" d="M150,832.63h1.44v5.54h.07a2.64,2.64,0,0,1,2.64-1.72,3.06,3.06,0,0,1,2.35.93,3.67,3.67,0,0,1,.88,2.61v6h-1.44v-5.71a2.79,2.79,0,0,0-.56-1.89,2.07,2.07,0,0,0-1.64-.63,2.87,2.87,0,0,0-1.63.46,1.51,1.51,0,0,0-.67,1.33V846H150Z"/><path class="j" d="M175.87,840.24H171V846h-1.51V833.39H171v5.54h4.9v-5.54h1.51V846h-1.51Z"/><path class="j" d="M184.08,834.7V846h-1.51V834.7h-4.2v-1.31h9.9v1.31Z"/><path class="j" d="M194,834.7V846h-1.51V834.7h-4.2v-1.31h9.9v1.31Z"/><path class="j" d="M199.34,846V833.39h4.57a3.53,3.53,0,0,1,2.66,1,4.28,4.28,0,0,1,0,5.33,3.57,3.57,0,0,1-2.66,1h-3.06V846Zm1.51-6.64h3a2.13,2.13,0,0,0,1.48-.48,1.71,1.71,0,0,0,.53-1.36v-.93a1.71,1.71,0,0,0-.53-1.36,2.13,2.13,0,0,0-1.48-.48h-3Z"/><path class="j" d="M210.29,845.58a5.37,5.37,0,0,1-1.86-1.63l1.1-.9a4.87,4.87,0,0,0,1.57,1.38,4.11,4.11,0,0,0,1.94.44,3.1,3.1,0,0,0,2.08-.63,2.23,2.23,0,0,0,.73-1.76,1.86,1.86,0,0,0-.54-1.44,3.44,3.44,0,0,0-1.8-.72l-1.41-.24a3.91,3.91,0,0,1-2.48-1.2,3.36,3.36,0,0,1-.76-2.22,3.14,3.14,0,0,1,1.12-2.59,5.62,5.62,0,0,1,7.29,1l-1.06.91a4.23,4.23,0,0,0-1.33-1.15,3.92,3.92,0,0,0-1.84-.39,3,3,0,0,0-2,.55,1.92,1.92,0,0,0-.69,1.61,1.9,1.9,0,0,0,.53,1.4,3.48,3.48,0,0,0,1.83.74l1.35.23c2.19.39,3.28,1.53,3.28,3.44a3.45,3.45,0,0,1-1.15,2.74,4.83,4.83,0,0,1-3.24,1A5.67,5.67,0,0,1,210.29,845.58Z"/></svg>