<svg width="35" height="56" viewBox="0 0 35 56" fill="none" xmlns="http://www.w3.org/2000/svg">
<path d="M17.6311 13.3107C15.9427 13.3107 13.3418 11.3573 10.5961 11.4354C6.97195 11.4788 3.65483 13.5712 1.78735 16.8877C-1.97319 23.5381 0.815237 33.3575 4.4905 38.7577C6.28976 41.3884 8.41306 44.349 11.2271 44.2534C13.9302 44.1319 14.945 42.465 18.2195 42.465C21.4684 42.465 22.3978 44.2534 25.2545 44.184C28.1623 44.1406 30.0042 41.5099 31.7864 38.8532C33.8415 35.7972 34.6942 32.8366 34.7368 32.6716C34.6686 32.6456 29.0832 30.4664 29.015 23.8854C28.9724 18.3897 33.4236 15.7591 33.6283 15.6375C31.0872 11.8521 27.1902 11.4354 25.8343 11.3399C22.2699 11.0534 19.2939 13.3107 17.6311 13.3107ZM23.6343 7.76291C25.1351 5.931 26.1243 3.36981 25.8514 0.834656C23.7025 0.930158 21.1187 2.29324 19.5753 4.12514C18.1939 5.74868 16.9915 8.35329 17.3156 10.845C19.6862 11.0274 22.1335 9.59482 23.6343 7.76291Z" fill="#ACACAC"/>
</svg>
