<?xml version="1.0" encoding="UTF-8" standalone="no"?>
<!-- Created with Inkscape (http://www.inkscape.org/) -->

<svg
   width="2903.4492"
   height="394.32254"
   viewBox="0 0 2903.4492 394.32254"
   version="1.1"
   id="svg1"
   xml:space="preserve"
   xmlns="http://www.w3.org/2000/svg"
   xmlns:svg="http://www.w3.org/2000/svg"><defs
     id="defs1" /><g
     id="layer1"
     transform="translate(-184.31074,-342.68941)"><path
       style="fill:#000000"
       d="m 499.87604,735.86755 c -112.6159,-9.51103 -223.34837,-70.75042 -298.9408,-165.32597 -22.02,-27.54977 -21.91437,-23.20871 -1.17288,-48.19886 134.41742,-161.95129 317.19497,-211.83518 488.82463,-133.41066 7.71095,3.52344 7.71095,3.52344 5.55464,9.31648 -1.96006,5.26579 -2.1906,8.16658 -2.53305,31.87143 -0.37673,26.07837 -0.37673,26.07837 -5.3888,27.88068 -7.32896,2.63546 -16.07925,11.14298 -20.17947,19.6196 -3.30691,6.83657 -3.30691,6.83657 -5.58506,2.12895 -66.73761,-137.9082 -276.67254,-87.18362 -276.43509,66.79238 0.22702,147.21804 198.6748,199.32372 271.70404,71.34029 4.57895,-8.02459 5.65184,-8.84006 5.65184,-4.29581 0,26.43521 19.74418,49.45014 53.63238,62.51694 14.58445,5.62355 14.52836,5.5683 8.96325,8.82966 -64.16465,37.603 -150.2569,57.17098 -224.09563,50.93489 z m -102.0631,-72.07597 c -61.52389,-70.99915 -59.40608,-175.92253 4.90481,-242.99999 2.24109,-2.3375 3.81896,-4.25 3.50639,-4.25 -2.88775,0 -38.24802,17.57734 -54.6115,27.14699 -40.20523,23.51274 -86.20821,62.19921 -112.96561,94.99909 -7.00704,8.58939 -5.13507,11.39947 30.93146,46.43242 38.77722,37.66594 100.25384,77.27896 135.55713,87.34745 0.14277,0.0407 -3.15244,-3.86346 -7.32268,-8.67596 z m 351.0631,9.85732 c -55.90819,-22.8506 -62.90291,-27.74 -69.92366,-48.8775 -2.48243,-7.47389 -1.94577,-134.16235 0.58767,-138.72982 4.53234,-8.17125 12.92241,-13.49643 22.47197,-14.26298 6.1948,-0.49726 6.1948,-0.49726 6.61318,-31.61713 0.88496,-65.82535 31.2838,-99.95479 86.69238,-97.33139 52.34971,2.47857 79.01399,36.6583 79.04532,101.32459 0.0131,27.11309 0.0131,27.11309 6.28263,27.61634 24.43368,1.9613 25.73473,6.14549 25.71573,82.70207 -0.0183,73.74245 -0.29545,75.32582 -15.95852,91.17114 -8.06523,8.15907 -6.16933,7.20867 -55.53868,27.84125 -48.66275,20.33727 -36.68474,20.3145 -85.98802,0.16343 z m 61.14876,-61.39985 c -5.47613,-31.485 -5.78228,-44.54321 -1.14453,-48.81813 21.38117,-19.70848 1.71559,-53.99306 -25.46883,-44.40183 -19.02596,6.71275 -23.61408,31.03079 -8.38397,44.43686 4.48392,3.94691 4.48392,3.94691 0.91622,27.76127 -1.96223,13.09789 -3.56818,24.03936 -3.56878,24.31436 -6e-4,0.275 8.5959,0.36836 19.10334,0.20747 19.10442,-0.29253 19.10442,-0.29253 18.54655,-3.5 z m 32.35124,-166.81313 c 0,-48.8988 -15.17704,-69.76225 -51,-70.10826 -36.15183,-0.34918 -51,20.10727 -51,70.26314 0,25.95078 0,25.95078 51,25.95078 51,0 51,0 51,-26.10566 z m -324,191.08021 C 436.40108,625.14452 413.93089,511.55969 484.60846,465.82399 c 47.74548,-30.89624 110.41151,-6.80974 128.04969,49.21759 20.59607,65.42303 -29.84584,130.41319 -94.28211,121.47455 z m 22.5,-82.84189 c 26.95719,-12.28855 18.95965,-52.2787 -10.5,-52.50322 -29.99399,-0.22859 -38.81656,40.05085 -11.5,52.50322 2.65424,1.20994 6.35509,1.82341 11,1.82341 4.64491,0 8.34577,-0.61347 11,-1.82341 z"
       id="path1" /><path
       style="font-weight:800;font-size:320px;font-family:Cantarell;-inkscape-font-specification:'Cantarell Ultra-Bold';white-space:pre;stroke:#000000;stroke-width:9.1"
       d="m 1225.3613,513.77803 c 24,0 51.52,-6.4 68.48,-15.68 l -12.16,-40 c -12.8,4.48 -29.12,7.04 -42.88,7.04 -44.48,0 -70.08,-26.24 -70.08,-69.44 0,-40.64 22.72,-61.44 63.04,-61.44 17.28,0 37.44,3.2 49.6,8.32 l 15.36,-43.52 c -21.44,-9.28 -42.24,-13.76 -64.3201,-13.76 -71.3599,0 -121.2799,46.08 -121.2799,115.84 0,67.52 46.72,112.64 114.24,112.64 z m 179.5198,0 c 19.2,0 39.36,-3.52 59.2,-10.24 l -12.16,-37.44 c -13.12,4.48 -25.6,6.72 -38.4,6.72 -23.36,0 -37.44,-7.68 -42.88,-25.28 h 94.08 c 1.28,-8 2.24,-16 2.24,-24.32 0,-45.76 -26.24,-72.64 -71.04,-72.64 -49.6,0 -82.56,32.64 -82.56,81.92 0,50.56 34.56,81.28 91.52,81.28 z m -36.16,-96.64 c 1.92,-17.28 9.92,-25.92 23.36,-25.92 14.4,0 22.72,9.28 22.72,25.92 z m 128.6399,93.44 h 55.36 v -92.16 c 8.32,-8.96 19.2,-14.08 31.04,-14.08 7.04,0 16,1.6 22.4,3.84 l 12.48,-50.56 c -6.4,-3.2 -16,-5.12 -25.6,-5.12 -18.56,0 -36.16,9.28 -47.68,25.6 l -4.8,-24.32 h -43.2 z m 211.2,2.56 c 10.88,0 23.04,-1.6 35.52,-5.12 l -10.56,-39.04 c -4.16,1.6 -8.64,2.24 -12.8,2.24 -13.44,0 -21.44,-7.04 -21.44,-18.56 v -55.68 h 36.16 v -43.2 h -36.16 v -45.12 h -54.4 v 45.12 h -22.4 v 43.2 h 22.4 v 57.28 c 0,37.12 23.04,58.88 63.68,58.88 z m 162.5602,0.64 c 69.44,0 115.52,-46.08 115.52,-115.52 0,-67.84 -44.8,-112.96 -112,-112.96 -68.8,0 -114.56,46.4 -114.56,116.16 0,67.52 44.48,112.32 111.04,112.32 z m 3.52,-48.64 c -34.24,0 -56.32,-26.24 -56.32,-66.88 0,-39.04 20.8,-64.32 52.8,-64.32 34.88,0 57.28,26.56 57.28,67.52 0,38.72 -21.12,63.68 -53.76,63.68 z m 231.3599,48.64 c 43.52,0 72.64,-33.28 72.64,-82.88 0,-48.32 -27.2,-80.32 -66.88,-80.32 -16,0 -29.76,5.12 -40.32,14.72 v -91.2 h -53.12 v 236.48 h 33.92 l 8.64,-17.28 c 10.24,13.44 25.28,20.48 45.12,20.48 z m -34.56,-109.12 c 5.12,-6.08 12.8,-8 20.48,-8 19.52,0 30.4,12.8 30.4,36.16 0,22.4 -9.6,34.88 -26.88,34.88 -9.6,0 -18.24,-3.84 -24,-11.2 z m 192.6402,109.12 c 47.36,0 74.24,-19.52 74.24,-53.44 0,-38.72 -34.88,-44.8 -59.84,-48.96 -13.44,-2.56 -24,-4.16 -24,-10.56 0,-5.44 7.68,-8.64 23.04,-8.64 12.48,0 27.84,2.24 43.52,6.08 l 10.56,-40 c -15.36,-4.8 -36.16,-7.68 -55.04,-7.68 -48.64,0 -74.88,18.56 -74.88,52.8 0,38.72 33.6,43.84 57.6,47.68 13.76,2.24 24.32,3.84 24.32,10.88 0,6.08 -8.64,10.24 -22.4,10.24 -13.76,0 -33.6,-3.84 -49.92,-9.6 l -11.84,39.36 c 17.92,7.36 41.92,11.84 64.64,11.84 z m 184.96,0 c 19.2,0 39.36,-3.52 59.2,-10.24 l -12.16,-37.44 c -13.12,4.48 -25.6,6.72 -38.4,6.72 -23.36,0 -37.44,-7.68 -42.88,-25.28 h 94.08 c 1.28,-8 2.24,-16 2.24,-24.32 0,-45.76 -26.24,-72.64 -71.04,-72.64 -49.6,0 -82.56,32.64 -82.56,81.92 0,50.56 34.56,81.28 91.52,81.28 z m -36.16,-96.64 c 1.92,-17.28 9.92,-25.92 23.36,-25.92 14.4,0 22.72,9.28 22.72,25.92 z m 128.6399,93.44 h 55.36 v -92.16 c 8.32,-8.96 19.2,-14.08 31.04,-14.08 7.04,0 16,1.6 22.4,3.84 l 12.48,-50.56 c -6.4,-3.2 -16,-5.12 -25.6,-5.12 -18.56,0 -36.16,9.28 -47.68,25.6 l -4.8,-24.32 h -43.2 z m 179.8399,0 h 55.36 l 60.8,-156.8 h -55.68 l -31.68,104.32 -28.16,-104.32 h -60.8 z m 216.6402,3.2 c 19.2,0 39.36,-3.52 59.2,-10.24 l -12.16,-37.44 c -13.12,4.48 -25.6,6.72 -38.4,6.72 -23.36,0 -37.44,-7.68 -42.88,-25.28 h 94.08 c 1.28,-8 2.24,-16 2.24,-24.32 0,-45.76 -26.24,-72.64 -71.04,-72.64 -49.6,0 -82.56,32.64 -82.56,81.92 0,50.56 34.56,81.28 91.52,81.28 z m -36.16,-96.64 c 1.92,-17.28 9.92,-25.92 23.36,-25.92 14.4,0 22.72,9.28 22.72,25.92 z m 128.6398,93.44 h 55.36 v -92.16 c 8.32,-8.96 19.2,-14.08 31.04,-14.08 7.04,0 16,1.6 22.4,3.84 l 12.48,-50.56 c -6.4,-3.2 -16,-5.12 -25.6,-5.12 -18.56,0 -36.16,9.28 -47.68,25.6 l -4.8,-24.32 h -43.2 z"
       id="text1"
       transform="translate(-68.551788,145.91267)"
       aria-label="CertObserver" /></g></svg>
