<svg xmlns="http://www.w3.org/2000/svg" xml:space="preserve" style="fill-rule:evenodd;clip-rule:evenodd;stroke-linejoin:round;stroke-miterlimit:2" viewBox="0 0 3544 1181">
  <path d="M0 0h3544v1181H0z" style="fill:none"/>
  <clipPath id="a">
    <path d="M108.044 197.596h835.263v792.229H108.044z"/>
  </clipPath>
  <g clip-path="url(#a)">
    <path d="m862.417 578.189-441.44 335.436-24.866-32.724 441.44-335.436z" style="fill:#047878"/>
    <path d="m434.158 931.011-10.769-14.198L864.845 581.38l10.769 14.198c7.78 10.198 5.802 24.835-4.44 32.616l-404.4 307.3c-10.198 7.78-24.835 5.802-32.616-4.44v-.044Z" style="fill:#047878;fill-rule:nonzero"/>
    <path d="m835.066 542.2-441.44 335.436-24.866-32.724L810.2 509.476zM753.102 434.275l-441.44 335.436-24.866-32.724 441.44-335.436zM780.374 470.247l-441.44 335.436-24.866-32.724 441.44-335.436zM807.724 506.237l-441.44 335.436-24.866-32.724 441.44-335.436z" style="fill:#2d3138"/>
    <path d="M88.616 473.203c-7.121-9.363-5.275-22.77 4.088-29.847l404.4-307.3c9.363-7.121 22.77-5.275 29.847 4.088l171.079 225.19-438.291 333.015z" style="fill:none;fill-rule:nonzero"/>
    <path d="M695.304 364.938 260.046 695.623 90.154 472.016c-6.462-8.528-4.835-20.704 3.692-27.165L498.29 137.595c8.528-6.462 20.704-4.835 27.165 3.692l169.936 223.651m5.363.703L528.488 138.957c-7.78-10.198-22.374-12.22-32.616-4.44l-404.4 307.256c-10.198 7.78-12.22 22.374-4.44 32.616l172.266 226.728 441.456-335.433v-.044Z" style="fill:none;fill-rule:nonzero"/>
    <path d="M259.255 576.853c-24.352-32.044-38.726-63.517-43.209-94.595-4.484-31.033.571-60.836 15.253-89.496 14.594-28.616 38.154-55.209 70.55-79.869 25.407-19.297 50.99-33.451 76.836-42.506s50.946-12.616 75.386-10.813c24.396 1.802 47.605 9.055 69.583 21.583 21.978 12.572 42.11 30.858 60.352 54.858 16.308 21.495 28.308 41.055 36.044 58.726 7.692 17.671 13.011 36.308 15.912 55.913l-74.287 18.594c-1.319-15.077-4.747-28.66-10.286-40.792-23.561-45.891-66.067-94.507-122.551-88.265-51.121 6.725-101.584 42.286-121.848 90.243-16.044 40.748.088 79.561 24.044 113.452 10.506 13.802 22.242 25.407 35.341 34.726a332 332 0 0 0 41.143 25.099l-63.473 48.22c-15.209-7.956-30.242-18.594-45.099-32.044-14.813-13.451-28.044-27.781-39.649-43.033h-.044Z" style="fill:#2d3138;fill-rule:nonzero"/>
    <path d="m725.557 398.277-441.44 335.436-24.866-32.724 441.44-335.436z" style="fill:#2d3138"/>
    <path d="m765.151 572.106 52.924 69.627-238.596 22.418-84.792 224.838-54.726-72.001 67.913-186.068-23.121 16.791-109.847 83.474-45.715-60.177 324.092-246.245 45.715 60.177-132.309 101.32" style="fill:#fff;fill-rule:nonzero"/>
  </g>
  <path d="M1157.486 804.11q-57.9 0-95.281-24.453t-55.651-69.142q-18.269-44.69-18.269-104.275 0-50.03 12.367-89.66t36.257-67.737 59.586-42.722q35.695-14.616 81.79-14.615 29.23 0 51.435 5.902t45.251 17.145l-26.982 66.893q-20.799-10.68-38.506-14.615t-34.009-3.935q-29.23 0-49.467 9.837t-32.322 28.388q-12.086 18.55-17.426 44.408t-5.34 57.337q0 43.846 10.399 72.796 10.4 28.95 32.322 43.003t57.337 14.053q19.674 0 40.192-5.059 20.517-5.059 48.062-17.426v73.077q-24.171 10.68-50.311 15.74-26.139 5.06-51.435 5.059ZM1494.764 804.11q-53.965 0-91.627-18.55-37.663-18.55-57.618-54.527-19.956-35.976-19.956-87.692 0-47.781 16.864-83.195t49.467-54.808 78.698-19.393q43.284 0 73.639 17.145t46.376 48.905q16.02 31.76 16.021 76.169v40.473h-201.805q1.124 22.485 13.772 37.944t34.009 23.047 46.657 7.589q21.923 0 46.376-5.34t51.997-15.459v65.769q-24.734 12.368-50.873 17.145-26.139 4.778-51.997 4.778m38.787-191.124q0-20.237-8.151-34.571t-21.642-22.204-31.479-7.87q-25.858 0-44.408 16.583t-21.361 48.062zM1657.782 798.489v-50.592l79.822-16.864V559.021l-64.645-9.556v-57.899h126.479l11.805 51.716h3.935q14.615-25.859 37.101-41.598 22.485-15.74 56.775-15.74 9.556 0 24.172 1.686 14.615 1.687 29.231 7.87l-21.923 75.887q-7.87-2.81-19.675-5.059t-24.734-2.249q-25.858 0-43.003 11.524t-25.577 31.198-8.432 44.408v79.822l80.385 16.864v50.592h-241.716ZM2191.805 804.11q-39.349 0-66.05-11.524t-40.192-35.976-13.491-63.802V559.021h-70.266v-50.592l76.45-16.864 13.491-76.45h61.834v76.45h115.237v67.456h-115.237v125.355q0 21.923 7.308 32.885t19.675 14.896 26.982 3.935q13.492 0 27.544-2.249 14.053-2.249 36.538-6.183v64.083q-20.8 6.745-40.754 9.556-19.956 2.811-39.068 2.811ZM2334.586 798.489V397.128h79.822v192.248q8.994-17.426 17.426-31.76t18.55-28.95l87.692-131.538h89.379l-126.479 179.319 123.106 222.041h-89.379l-86.568-163.58-33.728 31.479v132.1h-79.822ZM2680.295 798.489v-50.592l102.308-16.864V559.021l-87.13-9.556v-57.899h168.639v239.467l91.627 16.864v50.592h-275.443Zm143.343-341.775q-24.172 0-36.538-11.805-12.367-11.805-12.367-35.414 0-23.048 12.367-35.133t37.663-12.086q24.734 0 37.101 11.805t12.367 34.852q0 23.048-12.648 35.414t-37.944 12.367ZM3203.638 804.11q-39.349 0-66.05-11.524t-40.192-35.976-13.491-63.802V559.021h-70.266v-50.592l76.45-16.864 13.491-76.45h61.834v76.45h115.237v67.456h-115.237v125.355q0 21.923 7.308 32.885t19.675 14.896 26.982 3.935q13.492 0 27.544-2.249 14.053-2.249 36.538-6.183v64.083q-20.8 6.745-40.754 9.556-19.956 2.811-39.068 2.811Z" style="fill:#2d3138;fill-rule:nonzero"/>
</svg>
