<svg width="127" height="56" viewBox="0 0 127 56" fill="none" xmlns="http://www.w3.org/2000/svg">
<path d="M104.867 25.9819C105.24 24.7429 105.115 23.504 104.494 22.7606C103.872 22.0172 103.002 21.5216 101.884 21.3977L80.2563 21.1499C80.132 21.1499 80.0077 21.026 79.8834 21.026C79.7592 20.9021 79.7592 20.7782 79.8834 20.6543C80.0077 20.4065 80.132 20.2826 80.3806 20.2826L102.132 20.0348C104.743 19.9109 107.477 17.8047 108.471 15.3267L109.714 12.1054C109.714 11.9815 109.839 11.8576 109.714 11.7337C108.347 5.4149 102.63 0.706787 95.9176 0.706787C89.7028 0.706787 84.3581 4.67151 82.4937 10.2469C81.2507 9.37963 79.7592 8.88403 78.019 9.00793C75.0359 9.25573 72.6743 11.7337 72.3014 14.7072C72.1771 15.4506 72.3014 16.194 72.4257 16.9374C67.5782 17.0613 63.6007 21.026 63.6007 25.9819C63.6007 26.4775 63.6007 26.8492 63.725 27.3448C63.725 27.5926 63.9736 27.7165 64.0979 27.7165H103.997C104.245 27.7165 104.494 27.5926 104.494 27.3448L104.867 25.9819V25.9819Z" fill="#F48120"/>
<path d="M111.703 12.1055H111.082C110.957 12.1055 110.833 12.2294 110.709 12.3533L109.839 15.3268C109.466 16.5658 109.59 17.8048 110.212 18.5481C110.833 19.2915 111.703 19.7871 112.822 19.911L117.421 20.1588C117.545 20.1588 117.669 20.2827 117.794 20.2827C117.918 20.4066 117.918 20.5305 117.794 20.6544C117.669 20.9022 117.545 21.0261 117.296 21.0261L112.573 21.2739C109.963 21.3978 107.228 23.5041 106.234 25.982L105.985 27.0971C105.861 27.221 105.985 27.4688 106.234 27.4688H122.641C122.89 27.4688 123.014 27.3449 123.014 27.0971C123.263 26.1059 123.511 24.9908 123.511 23.8757C123.511 17.4331 118.166 12.1055 111.703 12.1055Z" fill="#FAAD3F"/>
<path d="M125.127 34.407C124.506 34.407 124.008 33.9114 124.008 33.2919C124.008 32.6724 124.506 32.1768 125.127 32.1768C125.749 32.1768 126.246 32.6724 126.246 33.2919C126.246 33.9114 125.749 34.407 125.127 34.407ZM125.127 32.4246C124.63 32.4246 124.257 32.7963 124.257 33.2919C124.257 33.7875 124.63 34.1592 125.127 34.1592C125.624 34.1592 125.997 33.7875 125.997 33.2919C125.997 32.7963 125.624 32.4246 125.127 32.4246ZM125.624 33.9114H125.376L125.127 33.5397H124.878V33.9114H124.63V32.7963H125.251C125.5 32.7963 125.624 32.9202 125.624 33.168C125.624 33.2919 125.5 33.4158 125.376 33.5397L125.624 33.9114V33.9114ZM125.251 33.2919C125.376 33.2919 125.376 33.2919 125.376 33.168C125.376 33.0441 125.251 33.0441 125.251 33.0441H124.878V33.4158H125.251V33.2919ZM13.7582 32.1768H16.4927V39.6107H21.216V41.9647H13.7582V32.1768ZM24.0748 37.0088C24.0748 34.1592 26.3121 31.929 29.4195 31.929C32.5269 31.929 34.6399 34.1592 34.6399 37.0088C34.6399 39.8585 32.4026 42.0886 29.2952 42.0886C26.3121 42.0886 24.0748 39.8585 24.0748 37.0088ZM31.9054 37.0088C31.9054 35.5221 30.911 34.2831 29.4195 34.2831C27.9279 34.2831 26.9336 35.522 26.9336 36.8849C26.9336 38.2478 27.9279 39.4868 29.4195 39.4868C30.911 39.7346 31.9054 38.4956 31.9054 37.0088ZM37.9959 37.6283V32.1768H40.7304V37.6283C40.7304 38.9912 41.4761 39.7346 42.5948 39.7346C43.7135 39.7346 44.4592 39.1151 44.4592 37.7522V32.1768H47.1937V37.6283C47.1937 40.8497 45.3293 42.2125 42.5948 42.2125C39.736 42.0886 37.9959 40.7258 37.9959 37.6283ZM51.2955 32.1768H55.1486C58.6289 32.1768 60.7419 34.1592 60.7419 37.0088C60.7419 39.8585 58.6289 41.9647 55.1486 41.9647H51.4198V32.1768H51.2955ZM55.1486 39.4868C56.7645 39.4868 57.8832 38.6195 57.8832 37.0088C57.8832 35.3982 56.7645 34.5309 55.1486 34.5309H54.03V39.4868H55.1486ZM64.5951 32.1768H72.4257V34.5309H67.3296V36.1415H71.9285V38.3717H67.3296V41.9647H64.5951V32.1768ZM76.2789 32.1768H79.0134V39.6107H83.7366V41.9647H76.2789V32.1768ZM90.8215 32.0529H93.556L97.782 41.9647H94.7989L94.0531 40.2302H90.2L89.4542 41.9647H86.5954L90.8215 32.0529V32.0529ZM93.3074 38.1239L92.1887 35.3982L91.0701 38.1239H93.3074V38.1239ZM101.262 32.1768H105.861C107.353 32.1768 108.347 32.5485 109.093 33.2919C109.714 33.9114 109.963 34.6548 109.963 35.5221C109.963 37.0088 109.217 38 107.974 38.4956L110.336 41.9647H107.228L105.24 38.9912H103.997V41.9647H101.262V32.1768V32.1768ZM105.737 36.8849C106.607 36.8849 107.228 36.3893 107.228 35.7698C107.228 35.0265 106.607 34.6548 105.737 34.6548H103.997V37.0088H105.737V36.8849ZM113.816 32.1768H121.771V34.407H116.551V35.8937H121.274V38.1239H116.551V39.6107H121.895V41.9647H113.816V32.1768ZM7.79206 38.2478C7.41918 39.1151 6.54911 39.7346 5.55474 39.7346C4.0632 39.7346 3.06883 38.4956 3.06883 37.1327C3.06883 35.7698 4.0632 34.5309 5.55474 34.5309C6.6734 34.5309 7.54347 35.2743 7.91636 36.1415H10.7752C10.278 33.7875 8.28925 32.0529 5.55474 32.0529C2.57165 32.0529 0.210037 34.2831 0.210037 37.1327C0.210037 39.9824 2.44736 42.2125 5.43045 42.2125C8.04065 42.2125 10.0294 40.478 10.6509 38.2478H7.79206V38.2478Z" fill="#404041"/>
</svg>
