<?xml version="1.0" encoding="utf-8"?>
<svg viewBox="0 0 282 111.797" width="282" height="111.797" xmlns="http://www.w3.org/2000/svg">
  <defs>
    <clipPath id="ff6b7263ec">
      <path d="M 0 0 L 282 0 L 282 112 L 0 112 Z M 0 0 " clip-rule="nonzero"/>
    </clipPath>
    <clipPath id="9b3ccb130f">
      <path d="M 21 0 L 260.859375 0 C 272.457031 0 281.859375 9.402344 281.859375 21 L 281.859375 91.226562 C 281.859375 102.824219 272.457031 112.226562 260.859375 112.226562 L 21 112.226562 C 9.402344 112.226562 0 102.824219 0 91.226562 L 0 21 C 0 9.402344 9.402344 0 21 0 " clip-rule="nonzero"/>
    </clipPath>
  </defs>
  <g clip-path="url(#ff6b7263ec)">
    <g clip-path="url(#9b3ccb130f)">
      <path fill="#00b278" d="M 0 0 L 282.65625 0 L 282.65625 111.796875 L 0 111.796875 Z M 0 0 " fill-opacity="1" fill-rule="nonzero"/>
    </g>
  </g>
  <g fill="#ffffff" fill-opacity="1">
    <g transform="translate(19.277353, 88.099943)">
      <g>
        <path d="M 25.75 -9.78125 C 28.195312 -9.78125 30.1875 -10.453125 31.71875 -11.796875 C 33.25 -13.140625 34.046875 -14.929688 34.109375 -17.171875 L 46.546875 -17.171875 C 46.515625 -13.804688 45.59375 -10.722656 43.78125 -7.921875 C 41.976562 -5.117188 39.507812 -2.941406 36.375 -1.390625 C 33.238281 0.148438 29.773438 0.921875 25.984375 0.921875 C 18.878906 0.921875 13.273438 -1.332031 9.171875 -5.84375 C 5.078125 -10.363281 3.03125 -16.601562 3.03125 -24.5625 L 3.03125 -25.421875 C 3.03125 -33.078125 5.0625 -39.179688 9.125 -43.734375 C 13.195312 -48.296875 18.785156 -50.578125 25.890625 -50.578125 C 32.097656 -50.578125 37.078125 -48.8125 40.828125 -45.28125 C 44.578125 -41.75 46.484375 -37.046875 46.546875 -31.171875 L 34.109375 -31.171875 C 34.046875 -33.734375 33.25 -35.816406 31.71875 -37.421875 C 30.1875 -39.035156 28.164062 -39.84375 25.65625 -39.84375 C 22.5625 -39.84375 20.226562 -38.71875 18.65625 -36.46875 C 17.082031 -34.21875 16.296875 -30.566406 16.296875 -25.515625 L 16.296875 -24.140625 C 16.296875 -19.035156 17.070312 -15.363281 18.625 -13.125 C 20.1875 -10.894531 22.5625 -9.78125 25.75 -9.78125 Z M 25.75 -9.78125 "/>
      </g>
    </g>
  </g>
  <g fill="#ffffff" fill-opacity="1">
    <g transform="translate(68.294844, 88.099943)">
      <g>
        <path d="M 33 -37.21875 C 31.195312 -37.46875 29.609375 -37.59375 28.234375 -37.59375 C 23.210938 -37.59375 19.921875 -35.894531 18.359375 -32.5 L 18.359375 0 L 5.09375 0 L 5.09375 -49.65625 L 17.625 -49.65625 L 18 -43.734375 C 20.65625 -48.296875 24.335938 -50.578125 29.046875 -50.578125 C 30.515625 -50.578125 31.894531 -50.378906 33.1875 -49.984375 Z M 33 -37.21875 "/>
      </g>
    </g>
  </g>
  <g fill="#ffffff" fill-opacity="1">
    <g transform="translate(102.579555, 88.099943)">
      <g>
        <path d="M 20.96875 -61.875 L 20.96875 -49.65625 L 29.46875 -49.65625 L 29.46875 -39.9375 L 20.96875 -39.9375 L 20.96875 -15.140625 C 20.96875 -13.304688 21.320312 -11.988281 22.03125 -11.1875 C 22.738281 -10.394531 24.085938 -10 26.078125 -10 C 27.546875 -10 28.84375 -10.109375 29.96875 -10.328125 L 29.96875 -0.28125 C 27.375 0.519531 24.695312 0.921875 21.9375 0.921875 C 12.632812 0.921875 7.894531 -3.773438 7.71875 -13.171875 L 7.71875 -39.9375 L 0.453125 -39.9375 L 0.453125 -49.65625 L 7.71875 -49.65625 L 7.71875 -61.875 Z M 20.96875 -61.875 "/>
      </g>
    </g>
  </g>
  <g fill="#ffffff" fill-opacity="1">
    <g transform="translate(134.339951, 88.099943)">
      <g>
        <path d="M 5.78125 -6.515625 C 5.78125 -8.628906 6.488281 -10.34375 7.90625 -11.65625 C 9.332031 -12.96875 11.117188 -13.625 13.265625 -13.625 C 15.441406 -13.625 17.238281 -12.96875 18.65625 -11.65625 C 20.082031 -10.34375 20.796875 -8.628906 20.796875 -6.515625 C 20.796875 -4.429688 20.085938 -2.738281 18.671875 -1.4375 C 17.265625 -0.144531 15.460938 0.5 13.265625 0.5 C 11.085938 0.5 9.296875 -0.144531 7.890625 -1.4375 C 6.484375 -2.738281 5.78125 -4.429688 5.78125 -6.515625 Z M 5.78125 -6.515625 "/>
      </g>
    </g>
  </g>
  <g fill="#ffffff" fill-opacity="1">
    <g transform="translate(161.64839, 88.099943)">
      <g>
        <path d="M 31.984375 -13.71875 C 31.984375 -15.34375 31.179688 -16.617188 29.578125 -17.546875 C 27.972656 -18.484375 25.394531 -19.320312 21.84375 -20.0625 C 10.03125 -22.539062 4.125 -27.554688 4.125 -35.109375 C 4.125 -39.515625 5.953125 -43.191406 9.609375 -46.140625 C 13.265625 -49.097656 18.046875 -50.578125 23.953125 -50.578125 C 30.265625 -50.578125 35.304688 -49.09375 39.078125 -46.125 C 42.859375 -43.15625 44.75 -39.300781 44.75 -34.5625 L 31.484375 -34.5625 C 31.484375 -36.457031 30.867188 -38.023438 29.640625 -39.265625 C 28.421875 -40.503906 26.507812 -41.125 23.90625 -41.125 C 21.675781 -41.125 19.945312 -40.617188 18.71875 -39.609375 C 17.5 -38.597656 16.890625 -37.3125 16.890625 -35.75 C 16.890625 -34.28125 17.582031 -33.09375 18.96875 -32.1875 C 20.363281 -31.289062 22.710938 -30.515625 26.015625 -29.859375 C 29.328125 -29.203125 32.113281 -28.457031 34.375 -27.625 C 41.382812 -25.0625 44.890625 -20.613281 44.890625 -14.28125 C 44.890625 -9.75 42.945312 -6.082031 39.0625 -3.28125 C 35.175781 -0.476562 30.15625 0.921875 24 0.921875 C 19.84375 0.921875 16.148438 0.179688 12.921875 -1.296875 C 9.691406 -2.785156 7.160156 -4.820312 5.328125 -7.40625 C 3.492188 -10 2.578125 -12.796875 2.578125 -15.796875 L 15.140625 -15.796875 C 15.265625 -13.429688 16.140625 -11.617188 17.765625 -10.359375 C 19.390625 -9.109375 21.5625 -8.484375 24.28125 -8.484375 C 26.820312 -8.484375 28.738281 -8.96875 30.03125 -9.9375 C 31.332031 -10.90625 31.984375 -12.164062 31.984375 -13.71875 Z M 31.984375 -13.71875 "/>
      </g>
    </g>
  </g>
  <g fill="#ffffff" fill-opacity="1">
    <g transform="translate(209.977438, 88.099943)">
      <g>
        <path d="M 18.03125 -44.25 C 21.550781 -48.46875 25.972656 -50.578125 31.296875 -50.578125 C 42.066406 -50.578125 47.53125 -44.320312 47.6875 -31.8125 L 47.6875 0 L 34.421875 0 L 34.421875 -31.4375 C 34.421875 -34.28125 33.804688 -36.382812 32.578125 -37.75 C 31.359375 -39.113281 29.328125 -39.796875 26.484375 -39.796875 C 22.597656 -39.796875 19.78125 -38.296875 18.03125 -35.296875 L 18.03125 0 L 4.78125 0 L 4.78125 -70.5 L 18.03125 -70.5 Z M 18.03125 -44.25 "/>
      </g>
    </g>
  </g>
</svg>