<svg width="112" height="55" viewBox="0 0 112 55" fill="none" xmlns="http://www.w3.org/2000/svg">
<path d="M0.527527 29.7245C0.527527 26.9728 1.27732 24.7839 2.71442 23.1371C4.17234 21.4902 6.04682 20.6772 8.35867 20.6772C9.10846 20.6772 9.8166 20.7606 10.4414 20.9482C11.0662 21.1359 11.5869 21.3443 11.9618 21.6153C12.3367 21.8863 12.67 22.1573 12.9407 22.4283C13.2115 22.6993 13.4198 22.9286 13.5239 23.0954L13.6489 23.3664H13.7322C13.6905 23.012 13.6489 22.6159 13.6489 22.199V14.1941H16.9813V38.3756H13.8571V36.7288L13.8988 35.5614H13.8155C13.7738 35.6448 13.6905 35.749 13.628 35.9158C13.5447 36.0408 13.3573 36.3118 13.0449 36.7079C12.7324 37.104 12.3784 37.4167 11.9827 37.6877C11.5869 37.9587 11.0454 38.2297 10.3373 38.4798C9.6708 38.7091 8.92101 38.8342 8.10874 38.8342C5.79689 38.8342 3.92241 38.0212 2.54779 36.3327C1.21483 34.6233 0.527527 32.4136 0.527527 29.7245ZM3.92241 29.7245C3.92241 31.6006 4.40144 33.1015 5.29702 34.2272C6.19261 35.3738 7.37978 35.9158 8.85853 35.9158C10.2748 35.9158 11.4411 35.4155 12.42 34.3523C13.3573 33.2892 13.878 31.7674 13.878 29.6828C13.878 27.9942 13.4406 26.5767 12.5867 25.3259C11.7327 24.1169 10.5039 23.4915 8.9835 23.4915C7.56723 23.4915 6.40088 24.0335 5.42199 25.1383C4.40144 26.264 3.92241 27.7858 3.92241 29.7245Z" fill="#0174C3"/>
<path d="M19.8346 17.5887V14.1907H23.2086V17.6095H19.8346V17.5887ZM19.8554 38.3723V21.0491H23.1878V38.3723H19.8554V38.3723Z" fill="#0174C3"/>
<path d="M28.2489 41.5409C29.7068 42.333 31.2689 42.7083 33.0184 42.7083C34.6638 42.7083 35.9967 42.3122 36.9756 41.5409C37.9962 40.7487 38.4544 39.5396 38.4544 37.8511V36.6003L38.496 35.4955H38.4127C37.3505 37.2883 35.6218 38.2055 33.2892 38.2055C30.9357 38.2055 29.0612 37.3925 27.6449 35.704C26.2286 34.0154 25.5205 31.91 25.5205 29.3459C25.5205 26.7818 26.187 24.718 27.5616 23.0712C28.8946 21.466 30.769 20.6322 33.1225 20.6322C33.914 20.6322 34.6013 20.7156 35.2678 20.9032C35.9343 21.07 36.4341 21.2993 36.8298 21.5703C37.2256 21.8413 37.538 22.0706 37.8087 22.3624C38.0795 22.5917 38.2878 22.8419 38.3502 23.0295L38.5169 23.2588H38.6002C38.5585 23.092 38.5585 22.9044 38.5585 22.7168V21.1117H41.7243V37.726C41.7243 39.1019 41.4952 40.311 40.9745 41.3741C40.4746 42.4373 39.8082 43.2503 38.9751 43.834C38.1211 44.4176 37.2047 44.8971 36.1842 45.2098C35.1636 45.5225 34.1014 45.6476 32.9767 45.6476C30.894 45.6476 28.9362 45.1681 27.0617 44.1883L28.2489 41.5409ZM33.9556 35.3079C35.2886 35.3079 36.4133 34.8284 37.2464 33.8903C38.1211 32.9731 38.5377 31.4305 38.5377 29.3667C38.5377 25.4894 36.8923 23.5298 33.6432 23.5298C32.1645 23.5298 31.019 24.0301 30.165 25.0516C29.3528 26.073 28.9154 27.4906 28.9154 29.2417C28.9154 31.0761 29.3944 32.5353 30.29 33.6402C31.2272 34.7242 32.4352 35.3079 33.9556 35.3079Z" fill="#0174C3"/>
<path d="M44.5778 17.5887V14.1907H47.9518V17.6095H44.5778V17.5887ZM44.5778 38.3723V21.0491H47.9102V38.3723H44.5778V38.3723Z" fill="#0174C3"/>
<path d="M50.3261 29.7213C50.3261 27.1364 51.18 24.9684 52.9503 23.259C54.7207 21.5496 56.9076 20.6741 59.6151 20.6741C60.9065 20.6741 62.0728 20.8617 63.135 21.2995C64.2389 21.7372 64.9678 22.1541 65.4468 22.5919L66.1133 23.2173L64.5513 25.5312C64.4263 25.4061 64.1972 25.2185 63.9681 24.9892C63.6973 24.7599 63.1558 24.4889 62.3227 24.0928C61.5104 23.7385 60.6357 23.5508 59.7818 23.5508C58.0531 23.5508 56.616 24.1345 55.4705 25.3228C54.325 26.511 53.7418 27.9077 53.7418 29.7213C53.7418 31.4932 54.325 32.9733 55.4705 34.1824C56.616 35.3498 58.0947 35.9543 59.8651 35.9543C60.8023 35.9543 61.7395 35.7667 62.656 35.3706C63.5515 34.9745 64.1764 34.5784 64.6137 34.2032L65.2386 33.6195L66.5715 36.0585C66.4882 36.1419 66.4049 36.2253 66.3008 36.3295C66.1758 36.4546 65.905 36.6839 65.4885 36.9966C65.0719 37.3093 64.5929 37.5803 64.0722 37.8096C63.5724 38.0389 62.9267 38.2891 62.1561 38.4767C61.3647 38.6643 60.5524 38.7894 59.6985 38.7894C56.9909 38.7894 54.7623 37.9347 52.992 36.2044C51.2008 34.4951 50.3261 32.3479 50.3261 29.7213Z" fill="#0174C3"/>
<path d="M66.9464 29.7211C66.9464 27.0111 67.7587 24.8223 69.4041 23.1337C71.0494 21.4452 73.1322 20.6322 75.6315 20.6322C77.985 20.6322 79.8178 21.4244 81.1508 22.9461C82.4837 24.4679 83.1502 26.4274 83.1502 28.783L83.0252 30.2423H70.3829C70.4663 32.0767 71.0911 33.4943 72.2158 34.474C73.3613 35.4538 74.7151 35.9541 76.3188 35.9541C77.2144 35.9541 78.0891 35.7873 78.943 35.4538C79.797 35.0994 80.4218 34.7867 80.8592 34.474L81.484 33.9737L82.8586 36.4127C82.6712 36.6003 82.3796 36.8088 82.0463 37.0798C81.6923 37.3508 80.9008 37.7052 79.7345 38.1846C78.5682 38.6641 77.381 38.8517 76.1313 38.8517C73.4238 38.8517 71.2369 37.997 69.5082 36.2668C67.8003 34.4949 66.9464 32.306 66.9464 29.7211ZM70.4663 27.6782H79.7553C79.7137 26.219 79.2763 25.135 78.5057 24.3845C77.7142 23.634 76.7353 23.238 75.569 23.238C74.2777 23.238 73.1322 23.634 72.2366 24.4054C71.2785 25.1975 70.6954 26.3024 70.4663 27.6782Z" fill="#0174C3"/>
<path d="M85.5037 38.3722V21.0491H88.7111V24.0718L88.6278 25.3642H88.7111C89.1068 24.0301 89.815 22.9669 90.7939 22.1122C91.7728 21.2575 92.9183 20.8615 94.2096 20.8615L95.0635 20.9448V24.2385C94.7511 24.1551 94.4387 24.1134 94.1263 24.1134C93.0641 24.1134 92.0852 24.4678 91.1896 25.2183C90.294 25.9688 89.6692 26.9485 89.2734 28.1993C89.0027 29.0957 88.8777 30.1171 88.8777 31.3262V38.4139H85.5037V38.3722V38.3722Z" fill="#0174C3"/>
<path d="M99.3332 32.0142V23.9467H97.063V21.2784H99.4165V16.2753H102.624V21.2992H106.81V23.9467H102.624V31.6598C102.624 32.3269 102.707 32.9105 102.895 33.39C103.082 33.8903 103.29 34.2447 103.561 34.5365C103.832 34.8075 104.144 35.0369 104.498 35.2036C104.852 35.3704 105.165 35.4746 105.436 35.5163C105.706 35.558 106.019 35.5997 106.29 35.5997L107.081 35.5163V38.4556C106.769 38.4973 106.373 38.539 105.915 38.539C105.373 38.539 104.852 38.4973 104.353 38.4139C103.853 38.3305 103.29 38.1846 102.624 37.9136C101.999 37.6426 101.458 37.2882 100.979 36.8088C100.5 36.371 100.125 35.7039 99.7705 34.8909C99.479 34.0988 99.3332 33.119 99.3332 32.0142Z" fill="#0174C3"/>
<path d="M107.831 15.1705H108.997C109.393 15.1705 109.539 15.2122 109.622 15.2539C109.934 15.3789 110.059 15.7333 110.059 16.0043C110.059 16.317 109.893 16.6297 109.622 16.7548C109.497 16.7965 109.435 16.8382 109.31 16.8382C109.539 17.0049 109.664 17.0675 109.893 17.5469L110.247 18.1306H109.58L109.185 17.5052C108.872 16.9632 108.831 16.9215 108.435 16.9215H108.31V18.1723H107.768V15.1705H107.831ZM108.372 16.4212H108.768C108.935 16.4212 109.164 16.4212 109.268 16.3795C109.455 16.2962 109.455 16.1085 109.455 16.0252C109.455 15.9001 109.414 15.7959 109.289 15.7125C109.164 15.6291 109.122 15.6291 108.747 15.6291H108.31V16.4212H108.372V16.4212Z" fill="#0174C3"/>
<path d="M108.956 14.1492C107.539 14.1492 106.456 15.2957 106.456 16.6507C106.456 18.0057 107.602 19.1522 108.956 19.1522C110.33 19.1522 111.455 18.0057 111.455 16.6507C111.476 15.254 110.33 14.1492 108.956 14.1492ZM108.956 18.6519C107.81 18.6519 106.914 17.7556 106.914 16.609C106.914 15.5042 107.81 14.5661 108.956 14.5661C110.059 14.5661 110.955 15.4625 110.955 16.609C110.955 17.7556 110.059 18.6519 108.956 18.6519Z" fill="#0174C3"/>
</svg>
