<svg width="122" height="57" xmlns="http://www.w3.org/2000/svg"><defs><linearGradient x1="50%" y1=".003%" x2="50%" y2="100.001%" id="a"><stop stop-color="#C6168D" offset="20%"/><stop stop-color="#762B8A" offset="80%"/></linearGradient></defs><g fill-rule="nonzero" fill="none"><path d="M59.618 39.507 42.51 29.63V9.877L59.618 0l17.107 9.877v19.755l-17.107 9.875Zm14.354-11.465V11.465L59.616 3.178 45.26 11.465v16.577l14.356 8.287 14.356-8.287Z" fill="#762B8A"/><path fill="url(#a)" d="M19.817 28.882v-2.77l8.887-5.169v-2.75l-8.887 5.118v-2.753l8.897-5.115-.002-2.388L17.11 6.354 5.504 13.055v13.399l11.605 6.7 11.605-6.704V23.7z" transform="translate(42.509)"/><g fill="#3F454F"><path d="M13.428 56.179H.035V43.675h12.954v2.751H3.01v1.885h6.94v2.744H3.01v2.373h10.418zM17.422 43.675V56.18h2.974V46.92l7.55 9.259h3.934V43.675h-2.977v9.27l-7.548-9.27zM35.403 43.675v2.748h5.653v9.756h2.975v-9.756h5.656v-2.748zM107.231 43.675v2.748h5.652v9.756h2.976v-9.756h5.656v-2.748zM63.115 43.672c1.357 0 2.435.37 3.238 1.11.802.739 1.205 1.73 1.205 2.973 0 1.98-.91 3.247-2.73 3.798l3.295 4.62h-3.466l-3.097-4.35h-5.367v4.35h-2.978V43.67h9.9v.002Zm-6.922 2.754v2.654h6.399c1.774 0 1.932-.629 1.932-1.337 0-.8-.514-1.319-1.837-1.319h-6.494v.002ZM79.184 53.774c3.872 0 4.233-1.324 4.233-2.468v-7.63h2.974v8.273c0 2.96-3.172 4.569-7.205 4.569h.001c-4.035 0-7.205-1.61-7.205-4.57v-8.271h2.973v7.629c-.005 1.142.358 2.468 4.229 2.468ZM102.396 47.32l1.856-1.96c-2.514-2.003-5.699-1.944-6.577-2.001-.88-.057-6.779-.18-7.043 3.83-.18 2.72 2.417 3.61 6.594 3.714 4.176.104 4.351.83 4.346 1.286-.005.493-.534 1.592-4.272 1.531-2.424-.04-4.501-.888-5.621-1.837l-1.664 2.18c1.96 1.554 4.462 2.332 7.57 2.332 3.741 0 6.956-.971 7.125-4.031.197-3.558-3.435-3.98-6.751-4.253-3.202-.263-4.213-.35-4.203-1.14.01-.875 2.431-.989 4.104-.896 1.953.111 3.422.602 4.536 1.245Z"/></g></g></svg>
