<?xml version="1.0" encoding="UTF-8"?>
<svg id="Livello_1" data-name="Livello 1" xmlns="http://www.w3.org/2000/svg" viewBox="0 0 283.46 113.39">
  <defs>
    <style>
      .cls-1 {
        fill: #231f20;
      }

      .cls-2 {
        fill: #fff;
      }
    </style>
  </defs>
  <g>
    <path d="M224.96,99.88c.48-.11-1.91-1.39-2.64-1.87-.41-.27-1.11-.38-1.64-.31-.66.09-1.32,0-2.06.07,0,.55-.02,1.23-.02,1.78,0,.25.03.5.02.74,0,.23.04,1.06-.2,1.04-.23-.02-.24-.69-.24-.92.04-.94-.05-1.41,0-3.14.07-1.16.06-2.83,0-4.08-.58-.11-1.33-.2-1.91-.26-1.48-.15-2.93-.4-4.42-.51-.5-.04-1-.03-1.49-.02-.47,0-.52.07-.54.53-.04.8-.09,1.6-.13,2.41-.05.97,0,2.33-.04,3.31,0,.13-.14.87-.17,1-.37.01-.31-.58-.32-.76-.03-.55.04-1.59.03-2.15-.02-1.22.03-2.67.02-3.89,0-.4-.32-.55-.69-.75-.37-.2-.77-.22-1.16-.24-1.66-.1-3.32-.22-4.99-.26-2.79-.06-5.58-.06-8.37-.07-.61,0-1.22.05-1.83.06-.3,0-.46.16-.52.43-.04.17-.06.34-.06.51-.04,1.11-.07,2.21-.1,3.32-.02.78-.03,1.57-.03,2.35,0,.25,0,.5.05.74.06.37.2.49.57.53.36.04.72.05,1.14.07v-.47c0-.75.01-1.51.02-2.24.22-.17.33-.1.45.07.15.21.31.45.68.34-.03-.27-.06-.54-.09-.81.04-.01.09-.02.13-.04.28.32.33.58.3,1.1-.01.23.04,1.12.04,1.36,0,.26-.16.47-.18.77,1.38.14,3.43.24,4.84.29-.07-.24-.1-.38-.16-.51-.22-.55-.16-.78.25-1.21.1-.1.13-.26.2-.4.61-.15.29.47.47.63.18-.16.35-.42.49-.41.34.03.21.38.26.6.06.26-.42.51-.35.77.04.14.07.27.12.52-.5-.14-.32-.25-.72-.36-.14.28-.1.42.16.45.32.03.65.06.97.09,1.11.1,2.21.2,3.32.3.14.01.28,0,.48,0,.05-1.9-.47-.35-.57-.56-.11-.21-.13-.48-.15-.72-.02-.41.22-1.09.63-1.06.11,0,.87,0,.98.04.26.1.39,1.65.12,2.37.16.05.55.12.71.14,2.35.27,4.71.53,7.07.79,1.37.15,2.74.3,4.11.43.28.03.57.03.86.03.24,0,.42.05.45.32.02.21-.22.38-.49.35-.57-.07-1.13-.16-1.7-.23-1.75-.19-3.5-.37-5.25-.57-1.44-.16-2.88-.37-4.33-.53-1.52-.17-3.04-.31-4.57-.45-1.77-.17-3.54-.36-5.32-.47-2.75-.17-5.5-.28-8.25-.44-1.18-.07-2.36-.21-3.54-.31-1.11-.08-2.22-.14-3.32-.21-.13,0-.27,0-.4-.04-.23-.07-.29-.27-.21-.46.04-.1.24-.2.35-.19.38.04.75.14,1.13.2.08.01.16-.06.28-.1-.08-.07-.11-.12-.13-.12-.24.07-.46.09-.58-.19-.13-.3-.05-.58.16-.82.12-.14.19-.32.27-.49.07-.16.13-.34.19-.51.62.27.66.32.65.9,0,.44,0,.88,0,1.36.56.22,1.4.14,2.01.22.04-.52.06-1.33.08-1.81.04-.86,0-2.23.05-3.09.07-1.07,0-1.3.09-2.37,0-.08-.01-.17.03-.22.07-.1.17-.21.27-.24.06-.02.21.11.23.19.06.25-.04,1.71-.07,1.96-.21,1.69-.1,4.47-.12,5.15-.02.76.07.5.65.58.15.02.52.04.7.04.04-1.02-.07-2.07.2-3.05.06-.21.08-.5.38-.51.32-.02.5.22.55.49.16.94-.04,2.09.1,3.04.01.07,1.24.16,1.64.15.17-2.52.14-5.32.23-7.84-.52-.15-1.12-.06-1.63-.23-.14-.05-.34-.19-.34-.29,0-.13.04-.16.15-.27.06-.06.28-.21.37-.24,1.55-.51,3.34-1.12,4.77-1.86,1.13-.45,3.05-1.49,3.77-2.05.22-.1.28-.26.25-.51-.03-.3,0-.61.02-.91.02-.21.04-.44.34-.44.33,0,.61.19.66.45.03.15.02.3.03.53.58-.53,1.16-.27,1.68-.06.97.39,1.99.55,3.01.68,1.12.15,2.24.24,3.37.36.46.05.89.07,1.26.52.28.34,1.05.83,1.47,1.06,1.01.58,1.78.81,2.8,1.38.53.3,1.09.56,1.64.81,1.01.46,1.97.99,3.05,1.31.68.2,1.68.52,1.83.9.02.2.1.38-.14.42-.55.08-.64-.09-.73.87,0,.32-.04,1.27-.05,1.59-.02.59,0,.98-.01,1.57.78.15,1.64.03,2.38-.05.6-.06,1.01.15,1.52.43.48.27,1,.64,1.47.94.82.53,1.05.55,1.58.92.5.34.67.83.08.93-1.08-.04-1.12.06-1.23,1.07-.11.96-.12,2.2-.02,3.19-.06,1.17-.38,1.44-.46.01-.03-1.23-.06-2.42-.07-3.62,0-.47-.08-.59-.55-.56-1.09.08-1.96.09-3.05.16-.33.02-.89.05-1.22,0-.08-.02-.22-.16-.21-.22.02-.11.07-.11.17-.13.48-.11.9-.06,1.39-.1,1.16-.07,1.77-.05,2.94-.1.07,0,1.48-.15,1.64-.17ZM190.64,90.87c.23,0,1.04.07,1.21.08.59.03,2.92-.05,4.42,0,.59.02,2.73.05,3.32.02,2.24.01,3.58.07,5.62.12,1.69.09,3.82.47,2.62-.12-.33-.2-.85-.44-1.03-.54-.97-.58-1.8-.87-2.76-1.47-1.15-.72-2.28-1.48-3.43-2.2-.16-.1-.62-.3-.79-.24-.56.18-.92.5-1.44.76-1.05.54-2.06,1.18-3.12,1.69-1.36.65-5.67,1.95-4.63,1.9ZM201.74,86.42c-.81-.32-.42.06-.12.24.05.04,1.6,1.12,2.24,1.47,1.37.76,2.29,1.27,3.65,2.05.78.45,1.31.72,2.44,1.3.28.18,1.06.28,1.15.29,1.19.22,2.55.21,3.96.44,1.15.13,2.11.31,2.62.31,1.89.23-1.98-.83-3.93-1.85-1.62-.68-1.96-.86-3.5-1.66-.3-.16-1.17-.71-1.56-1.03-.38-.5-1.24-.58-1.8-.66-1.08-.14-2.16-.3-3.23-.46-.6-.09-1.32-.35-1.91-.45Z"/>
    <path d="M201.99,75.83c-.14-.26-.29-.34-.52-.53-.61-.49-1.38-1.01-2.01-1.47-.65-.48-1.15-.93-1.8-1.39-.15-.1-.58-.28-.76-.28-1.63-.03-2.94-.19-4.56-.34-.09,0-.87.03-.98-.19-.08-.39-.05-.48-.01-.88.13-.19,1.25-.01.73-.61-.14-.15-.27-.31-.42-.45-.21-.19-1.63-1.16-2.31-1.72-.37-.3-.84-.7-1.18-1.04-.24-.24-.99-.26-1.31-.26-.47,0-3.05.48-3.67-.07-.27-.5-.47-.67-1.04-.62-.63.05-1.26.12-1.89.11-1.13,0-2.26-.04-3.38-.11-.57-.04-1.13-.17-1.69-.31-.43-.11-.53-.27-.54-.7-.04-1.16-.06-2.33-.11-3.49-.01-.32-.05-.65-.14-.96-.05-.18-.15-.27-.31-.39-.42-.34-1-.18-1.47-.21-1.1-.06-2.2-.03-3.33-.04-.19,0-.12-.17-.12-.29,0-.52,0-.92,0-1.43,0-.28-.12-.9.24-1.06.06-.02.23-.09.22-.17-.02-.29-.12-.54-.4-.71-1.13-.71-2.26-1.44-3.38-2.16-.35-.23-.71-.46-1.03-.73-.33-.28-.32-.46.04-.73.43-.32.88-.61,1.32-.92.47-.34.51-.32,1.02-.01.82.49,1.65.96,2.47,1.43.32.18.63.37.95.53,1.11.56,2.22,1.12,3.34,1.65.6.28,1.28.72,1.9.97,0,.45-.03.63-.07,1.03-.1,1.22-.11,2.37-.14,3.66.01,1.12-.07,1.91,0,2.88.02.25.05.51.34.53.28.02.3-.54.3-.6.02-.95.06-1.91.07-2.86.02-1.36.01-2.21.03-3.56,0-.12-.02-.82.08-.84.58,0,1.11,0,1.64.01.78,0,1.57.03,2.35.03.19,0,.46,0,.47-.22,0-.17-.96-.63-1.05-.65-.6-.18-.7-.31-1.3-.49-.69-.22-.78-.33-.8-1.06-.01-.61.01-1.22.01-1.84,0-.72.06-1.45-.17-2.16-.41,0-.36.28-.36.52.01.71.05,1.41.07,2.12.01.62,0,1.25,0,1.91-.21-.09-.44-.17-.66-.28-1.17-.56-2.34-1.13-3.52-1.68-.36-.17-.52-.42-.51-.81.01-.67.01-1.34.02-2.01,0-.48-.03-.59.46-.79.12-.05.43-.21.51-.3.16-.19.14-.21.28-.41.54-.79,1.13-1.53,1.87-2.19.16-.09.47.51.53.6.37.58.74,1.12,1.13,1.69.4.58,1.01,1.5,1.25,1.59.23.09.31,0,.46-.11.18-.13.09-.34-.05-.5-.14-.16-.25-.34-.41-.48-1-.93-1.76-2.04-2.44-3.2-.08-.14-.1-.32-.11-.49-.03-.43-.1-.62-.52-.52-.35.08-.71.2-1.06.22-.97.06-1.95.11-2.93.09-1.38-.03-2.92,0-4.29-.09-.55-.03-.95-.15-1.46-.31-1.74-.57-3.53-.59-5.17-1.44-.42-.22-.9-.78-1.24-1.14-.29-.31-.65-.43-1.08-.43-1.01-.01-2.14.09-3.21.04-.04-.29,0-1.04,0-1.3-.02-1.86-.01-3.39-.02-5.25,0-.15,0-.31.02-.46.05-.26.23-.39.49-.36.08,0,.15.04.22.05.17.02.37.05.42-.18.05-.19-.11-.24-.25-.32-.33-.21-1.03-.67-1.29-.86-.83-.6-1.12-1.18-1.67-2.08-.34-.66-.82-1.27-1.21-1.99-.19-.43-.5-.96-.76-1.35-.31-.47-.53-.31-.73-.2-.15.16-.34.51-.44.69-.28.48-.36.73-.62,1.22-.23.44-.57,1.01-.83,1.43-.59.98-.95,1.35-1.53,2.33-.13.22-.26.33-.52.37-.29.04-.63.1-.82.37-.16.39.27.36.51.37.4.02.85.16.85.52,0,.17.04.91.05,1.08.04.76.05,1.7.09,2.46.04.92.06,1.37.08,2.28.02.66-.38.58-1.06.58-.32,0-.65.02-.97.04-.21.01-3.3.07-4.5.05-1.61-.02-2.99.03-4.6.03-.65,0-.81-.15-.83-.81-.03-.84-.07-1.8-.08-2.64,0-.47.26-.59.75-.6.09,0,.24-.07.26-.14.03-.08.06-.15-.09-.29-.23-.13-.6-.29-.67-.33-.79-.51-1.09-.82-1.71-1.54-.39-.45-.78-.89-1.18-1.33-.16-.18-.32-.3-.63-.29-.64.01-1.52.05-2.15,0-.04-.41.05-1,0-1.34-.07-.5.2-.75.73-.89.03,0,.05-.06.07-.09.08-.33-.01-.52-.38-.62-.23-.06-.43-.24-.62-.39-.26-.2-.49-.43-.73-.64-1.1-.93-2.15-1.89-2.77-3.24-.21-.44-.68-.56-1.16-.38-.19.07-.4.13-.61.14-1.18.07-2.37.15-3.55.17-1.22.03-2.45,0-3.67,0-.41,0-.85.07-1.11-.38-.03-.06-.12-.09-.19-.12-.82-.31-1.5-.85-2.16-1.4-.48-.4-.89-.69-1.52-.43-.06.03-.15,0-.23,0-1.73-.06-3.64-.38-5.34-.67,0-.29.1-.73,0-.97-.09-.28-.15-.68-.41-.59-.32.11-.22.82-.19,1.05.08.59,0,2.18.02,2.45.04.67.1,1.33.13,2,0,.14.08.46-.06.54-.54-.42-1.01-.77-1.46-1.14-.07-.06-.11-.2-.11-.31-.01-.44.02-.88-.02-1.31-.03-.34-.13-.68-.23-1-.06-.2-.22-.24-.47-.05,0,.62,0,1.3-.01,2.05-.17-.13-.27-.19-.35-.27-.24-.25-.49-.49-.71-.75-.24-.28-.48-.39-.85-.26-.21.08-.45.07-.67.07-.44-.01-.82.03-1.26.01-.4-.02-1.18-.02-1.46-.15-.39-.51-.12-2.18-.09-3.19,0-.12.17-.45.25-.53.77-.72,1.16-1.22,2.18-2.12.48-.42,1-.96,1.6-1,.31-.06.78.49,1,.8,1.09,1.3,1.63,1.37,2.94,2.3.13.09.36.2.44.15.13-.1.19-.18.24-.35.07-.26-.15-.35-.34-.46-.37-.2-.73-.4-1.08-.63-.37-.24-.71-.51-1.06-.77-.54-.4-1.07-.81-1.4-1.41-.35-.63-.72-.67-1.43-.49-.33.08-.7.14-1.04.17-.46.04-.92,0-1.38.05-1.78.07-3.18,0-4.68-.13-.86-.08-1.33-.1-2.02.49-.44.37-.83.66-1.29.99-.22.16-.54.38-.75.54-.24.2-.63.3-.78.29-.3-.02-.67-.11-.97-.17-.84-.18-1-.26-1.64-.59-.68-.36-1.31-.75-1.92-1.26-.51-.42-.96-.73-1.28-.94-.63-.41-1.25-.4-1.93-.23-.24.06-.97.13-1.15-.08-.32-.38-.53-.76-.68-1.22-.34-1.03-.53-1.37-.97-2.12-.45-.77-1.26-1.65-2.13-1.97-.84-.31-1.69-.7-2.53-1.01-.94-.34-2.03-.62-3.04-.58-1.55.06-2.07.17-3.64.56-.11.03-1.09.24-1.62.32-.7.11-1.2.05-1.87-.11-.91-.22-1.51-.58-2.36-.94-.76-.32-1.6-.46-2.43-.36-.58.07-1.12.04-1.64-.31-.08-.06-.4-.43-.48-.12-.08.34.33.66.43.7.27.1.77.37,2.42.15,1.01-.14,2.03.69,2.95,1.07.93.39,1.89.59,2.91.46.19-.02,3.73-.85,4.56-.88.53-.02,1.39-.07,1.92.02.36.06,1.1.25,1.43.37.85.3,1.74.76,2.58,1.07.97.35,1.52.78,1.98,1.69.15.3.55.99.77,1.58.14.37.4,1,.58,1.35.4.77.77.91,1.51.96.27.02,1.15-.18,1.42-.17.5.02.91.37,1.33.67.55.38.89.72,1.44,1.09.54.36.99.55,1.56.85.32.16,1.28.48,1.64.51.22.02.48.1.62.13-.34.28-.49.47-.91.66-.24.11-.62.35-.51.63.18.25.62.2.7.21.28.01.54-.03.76.03.08.67.14,1.61.08,2.31.03.27-.26.29-.51.45-.47.29-.83.65-1.27.98-.92.71-1.95,1.38-2.85,2.11-1.1.89-2.17,1.82-3.57,2.24-.05.02-.1.05-.15.08-.36.27-.33.48.08.67.15.07.49.16.65.18.33.03.38.32.43.66.09.7.23,1.39.28,2.09.05.74.02,1.49.02,2.24,0,.34,0,.67.02,1.01,0,.11.06.27.14.3.16.08.3-.02.33-.2.07-.35.08-1.55.09-1.88,0-.31,0-.71-.04-1.01-.07-.72-.16-1.45-.24-2.17-.09-.9.21-1.11,1.12-1.03,1.49.13,2.98.08,4.47.2.32.03.43.38.48.65.03.15.04.3.04.46.02.97.03,1.95.04,2.92,0,.42-.04,1.24.16,1.73.23.4.23-.69.24-.79.07-.59.09-1.49.1-2.08,0-1.07.03-1.82,0-2.85,1.08-1.09,1.73-1.47,2.97-2.29.25-.17,1.11-.72,1.37-.87.58-.33.73-.54,1.32-.86.24-.13.93-.58,1.28-.72.28-.17.25.81.16,1.48,0,.9-.07,1.8-.11,2.69-.02.47.1.92.22,1.37.11-.09.2-.18.21-.28.05-.36.08-.72.1-1.08.05-1.45.1-2.9.15-4.41,0-.55.47-.51.64-.52,1.2-.05,1.64.09,2.84.07.37,0,.94.05.99.05.26,0,.61.41.8.6.43.43.76.64,1.23,1.02.91.73,1.68,1.31,2.63,1.99.38.27.48.79.49,1.25.01.4.01.8.03,1.21,0,.16-.03.35.23.42.19-.32.17-.66.19-.99.02-.32.01-.65.05-.97,0-.08.14-.15.21-.22.03.03.06.05.09.08-.03.06-.06.12-.08.18-.12.35,0,.5.37.45.06,0,.11-.04.16-.05.64-.1.95.16.93.8-.02.71-.08,1.42-.09,2.12,0,.32-.13.52-.37.71-1.33,1-2.63,2.05-3.98,3.03-.75.55-1.79,1.34-2.59,1.81-.51.3-.53-.15-.55-.73-.05-1.34-.09-2.68-.13-4.02,0-.17.02-.33.03-.45,1.1,0,2.15.01,3.19.02,1.01,0,2.03,0,3.04,0,.19,0,.37-.04.39-.25.02-.24-.16-.33-.36-.37-.09-.02-.19.01-.28.02-.49.04-.99.13-1.48.11-1.87-.08-3.74,0-5.59-.47-1.13-.29-2.08-.2-3.25-.17-.6.02-1.19.23-1.43.5-.67.75-1.21,1.04-2.05,1.58-1.29.83-2.56,1.59-3.77,2.54-.39.3-1.21.4-1.71.4-2.11.01-3.97-.06-6.08-.02-.51,0-1.05,0-1.54.13-.72.2-1.41.49-1.98,1-.27.24-1.21.91-1.53,1.08-1.42.75-2.19,1.08-3.7,1.64-.34.13-.67.29-.97.48-.49.32-.56.44-.4.78.28.19.68.17.94.19.3.03.77-.1.77.5,0,.34-.02,1,.02,1.34.07.55.07,3.59.3,3.08.32-.78.12-2,.17-2.69.05-.7.08-1.4.12-2.14,4.74-.04,9.41-.08,14.06-.13.64.14.6,8.63.48,10.31-.03.16-1.4.05-2.1.02-.62-.03-1.27.14-1.86-.2-.08-.05-.27.01-.37.08-.14.09-.21.36-.33.48-.31.31-.53.51-.86.81-.1.09-.56.56-.67.26-.04-.13-.01-.26,0-.54,0-.38.02-.76.02-1.15,0-.26-.17-.93-.44-.57-.07.63.02,1.18.01,1.8-.02.73.03,1.06-.39,1.25-.18.09-.06.38.41.47.02.22.03,1.05.03,1.26-.01.63.02,1.09,0,1.72,0,.15,0,.31.04.45.07.2.33.24.45.06.07-.1.12-.25.11-.37-.07-1.01-.13-2.02-.24-3.03-.03-.29.01-.48.23-.65.43-.33.84-.66,1.27-.98.54-.41.71-.57,1.24-.12.57.48,1.08.85,1.67,1.38.16.13.4.62.42.84.04.57.06,1.88.07,1.99.01.19.09.23.3.21.22-.02.16-.2.16-.35,0-.6-.14-1.86.04-1.92,1.06-.06,2.06.03,3.09-.03,1.34-.07,2.67-.17,4.01-.2,1.99-.05,3.98-.05,5.97-.06.15,0,.31.02.46.05.19.03.49.06.49.28,0,.99,0,2.12,0,3.16-.04.54-.99.3-1.39.27-1.07-.07-2.77-.22-3.84-.31-2.51-.19-3.06-.16-5.43-.4-.31-.03-.92-.29-1.18-.08-.1.08-.23.14-.36.16-.85.11-1.7.22-2.56.31-.46.05-.78.2-.95.67-.3.82-1.03,1.29-1.55,1.86-.56-.2-.76-.36-.76-.84,0-.4-.03-.99-.1-1.39-.01-.09-.1-.53-.27-.23-.09.51.09,1.36,0,1.91-.17-.06-.57-.43-.67-.5-.36-.28-.73-.55-1.05-.88-.33-.34-.68-.52-1.16-.51-1.11.01-2.21-.01-3.32-.02-1.44,0-2.87-.01-4.31-.01-.73,0-1.45.03-2.18.01-.22,0-.47-.06-.65-.17-.34-.21-.97-.89-1.61-.86-.92,0-1.53.01-2.45.03-.95.02-2.07,0-2.96-.35-.46-.18-.24.7.12,1,.6.5,3.37,2.83,3.93,3.32.26.23.51.35.86.36,1.01.03,2.03.08,3.04.12.17,0,.34.01.52.02.27.02.55.27.54.57,0,.17,0,.34,0,.52.08,1.43.04,2.35.06,3.8l.13.3c.33.26.35.03.35-.35,0-.42-.04-.84-.05-1.26-.02-.97-.05-1.95-.02-2.92.02-.62.02-.78.66-.89.24-.04.71-.03.76-.2.16-.48.52-.42.83-.41,1.53.05,2.78.01,4.31.04,1.36.02,2.99.11,4.35.09.17,0,.35.04.63.07-.23.2-.37.3-.49.41-.51.47-1.02.92-1.51,1.41-.25.25-.15.42.15.5.41.12.49.33.5.67.01.32-.02.84-.01,1.16.04,1.97.08,3.94.12,5.91,0,.21.05.42.11.62.02.06.15.13.22.13.07,0,.17-.1.19-.17.03-.13.01-.26.01-.4-.01-1.01-.04-2.02-.04-3.03,0-1.13.03-2.26.04-3.38,0-.36,0-.73.02-1.09,0-.19.05-.52.31-.56.81-.11,3.57-.22,3.89-.23,1.47-.05,2.72-.11,4.19-.15.43-.01.55.28.59.71.09.86,0,1.78.05,2.63.08,1.45.15,2.56.11,4.13.03.73.03,1.6.04,2.33.02,1.38.01,2.75.02,4.13.01,1.45.04,2.91.05,4.36,0,.27.07.77.06,1.03.06.42.51-.52.5-.86-.05-1.51.01-2.75-.02-4.26-.04-1.72-.07-3.45-.08-5.17-.02-2.72-.02-5.44-.03-8.16,0-.22.05-.58.06-.89.58,0,1.17-.02,1.7,0,.67.02,1.77.14,2.43.18,1.32.07,2.59.17,3.91.22,1.26.05,2.06.1,3.32.12.26,0,.53.03.85.05,0,.28.28,5.15.16,7.68.05,1.18,0,2.83.03,4.01.04,1.17.03,2.17-.1,3.34-.02.19.03.39.29.42.28.04.34.02.41-.25.03-.11.04-.23.04-.34-.03-2.04-.1-4.09-.06-6.13.02-.92.03-1.83,0-2.75,0-.15,0-.49,0-.63.31-.23.75-.17,1.11-.17,1.41.01,2.64-.07,4.06-.07.71,0,1.78-.05,2.54-.05.06.55.09,1.64.1,2.13.02,1.03-.03,1.82-.02,2.85.02,1.01-.02,1.79,0,2.8.01.72.02,3.43.02,4.06,0,1.03-.02,2.06-.03,3.1,0,.03-.04.06-.05.07-1.73-.7-3.27-1.71-4.62-3.01-.25-.24-.6-.38-.72-.76-.03-.09-.2-.18-.31-.2-.34-.07-.93-.09-1.27-.09-1.61-.01-2.71-.1-4.28-.49-.5-.12-1.34-.21-1.85-.29-.42-.03-.87.25-1.04.34-.64.34-.72.32-1.36.66-1.36.73-2.73,1.45-4.1,2.17-.29.15-.58.3-.88.4-.17.06-.79.24-.93.3-.24.1-.53.1-.66.4-.09.34.35.44.67.48.85.1,1.71.18,2.56.34,1.5.27,2.14.39,3.89.87,1.05.21,1.26.25,1.81.18-.05,1.8.03,4.05.07,5.89.04,1.84.01,3.7.17,5.56.25,1,.54-.19.54-.91-.02-.27-.03-.53-.02-.8.03-1.44-.04-2.29-.03-3.73,0-.88-.07-1.69-.08-2.57-.02-.96.06-2.22-.02-3.17-.03-.42.23-.79.55-.94.57-.26,1.09-.68,1.65-.97.7-.36,1.38-.74,2.07-1.11.47-.26.92-.55,1.39-.78.32-.16.84-.66,1.21-.53,1.11.67,2,1.53,3.13,2.17.48.27.71.86.72,1.33.04,1.38-.06,2.57-.03,3.95.04,1.51-.02,5.21.04,5.55.02.12-.01.73.15.94.24.04.29-.1.35-.93-.04-1.37.06-2.82.06-3.4.77-.06,1.72-.02,2.44-.05,1.28-.05,2.56-.08,3.84-.1,1.45-.03,2.91-.05,4.36-.06,1.32,0,2.2.02,3.52,0,.69,0,.94.03.82-.62-.02-.09-.03-.19-.03-.28-.07-1.07-.02-2.2-.05-3.27-.05-1.79.03-3.63,0-5.43,0-.26.11-.41.31-.56,1.15-.87,2.43-1.51,3.73-2.12,1.47-.69,2.93-1.41,4.33-2.23.62-.36,1.19-.83,1.9-1.05.52-.16.75-.28,1.13.1.84.77,1.34,1.18,2.2,1.73.63.36,1.22.94,1.83,1.34.2.13.38.31.67.55-.57.05-.51.34-.46.68.2,1.2.11,2.4.1,3.61-.01,1.57,0,3.14.02,4.71.03,2.02.11,4.05.14,6.07.01,1.13.1,1.3,1.22,1.54.64.14,1.25.33,1.8.7.19.13.4.22.61.32,1.52.72,3.05,1.42,4.56,2.16,1.35.67,2.68,1.38,4.02,2.08.28.15.47.13.58-.09.12-.23,0-.44-.28-.57-.28-.13-.54-.28-.82-.41-1.26-.59-2.53-1.18-3.79-1.78-.48-.23-.96-.48-1.43-.73-.83-.44-1.62-.96-2.49-1.3-.99-.39-1.86-.97-2.77-1.5-.19-.11-.41-.29-.45-.47-.1-.44-.14-.9-.15-1.36-.04-1.66-.08-3.32-.09-4.98,0-2.41,0-4.82.02-7.23,0-.38.06-.75.09-1.12.19-.01.41.02.43-.03.18-.42.58-.66.83-1,.27-.38.02-1.02-.43-1.34-.11.07-.24.21-.36.2-.4-.04-.31.33-.39.63-.04.16-.16.41-.23.62-.46-.24-.98-.69-1.41-.9-.87-.52-.65-1.16-.65-1.3,0-.82-.04-1.72,0-2.54.02-.31.09-.65-.1-.88.34.1.68.2,1.02.3.14-.3.14-.5-.14-.62-.31-.14-.63-.27-.93-.44-.77-.43-1.52-.89-2.29-1.31-1.64-.88-3.1-2.03-4.63-3.07-.72-.49-1.38-.67-2.29-.62-.59.04-1.47.04-2.06.03-1.01-.01-1.84-.21-2.85-.21-.93,0-1.77.33-2.48.92-.84.71-1.88,1.5-2.88,1.95-.2.09-.8.37-.79-.18-.01-.42.53-.35.71-.4.53-.15.47-.32.15-.77-.19-.27-.47-.5-.75-.69-.53-.37-.98-.69-1.46-1.11-.43-.37-.85-.43-1.37-.41-1.03.03-2.06.04-3.09.04-1.66,0-3.33-.08-4.99-.05-1.49.03-3.2.14-4.68.03-.05-.88-.12-1.42-.03-2,.33.02,1.3-.01,1.64,0,.13,0,.27,0,.39-.03.26-.09.32-.28.12-.47-.72-.65-1.86-1.13-2.62-1.73-.6-.47-2.46-2.01-2.94-2.37-.29-.22-.31-.68-.3-1.04.04-.8.02-1.61.02-2.41,0-.13,0-.53,0-.66.51-.08,1.34,0,.92-.48-.23-.13-.48-.24-.7-.39-.11-.08-.2-.25-.2-.38-.02-1.24-.36-3.63.13-3.65.6-.2,1.49-.14,2.1-.14,1.07,0,2.14.01,3.21.02.46,0,.92-.01,1.38,0,.63.02,1.26.08,1.89.09,1.45.02,2.91,0,4.36.05,1.45.04,2.9.14,4.36.21.64.03.72-.09.72.55,0,.94.07,1.59.05,2.52,0,.18.02.82-.01,1.04-.72.03-1.54.11-2.21.1-1.61-.03-3.21-.08-4.82-.14-.77-.03-1.38.24-1.84.85-.23.3-.42.65-.68.91-.61.61-1.2,1.32-1.85,1.88-.71.61-.76.66-1.49,1.26-.1.08-.58.43-.58.51,0,.23.22.21.35.21.36.02.46-.09.82-.1.58-.02.6.4.64.98.09,1.24.27,2.47.2,3.72,0,.06,0,.11,0,.17.01.19.07.35.3.33.21-.01.21-.14.22-.33.04-.68-.02-.97-.07-1.75-.07-1.07-.17-2.53-.24-3.6-.04-.7.17-.89.67-1.39.78-.78,2.05-2.71,2.42-2.4,1.97,1.34,5.87,4.41,5.8,4.83.06.49.05,1.07.07,1.46.06.92-.05,1.5,0,2.41.02.32.08.64.15.96.01.07.13.16.19.16.07,0,.16-.08.21-.15.04-.05.03-.15.03-.22.02-1.11.04-2.22.05-3.33,0-.52-.12-1.12.37-.94.43.16.92.11,1.53.08.46-.06,1.83,0,2.23-.01,1.43-.01,2.49.06,3.93.03,1.55-.03,2.65,0,4.2-.02,2.09-.02,3.94-.04,6.03-.02.36,0,.95-.03,1.05.23.08,1.36.17,2.68.22,3.99.02.67-.03,1.34-.06,2-.02.4-.07.8-.06,1.2,0,.39.16.52.53.54.02-.03.04-.07.05-.1.05-1.41.02-2.43.05-3.84.01-.73.03-1.85.02-2.58,0-.24-.02-.82.06-1.05.14-.38.46-.16.82.02.22.11.43.25.63.4,1.09.8,2.18,1.61,3.23,2.39.15.28.06,1.25.05,1.63-.01.36-.03,2.9,0,3.67.06,1.33.06,3.51.04,3.68-.25,0-.48,0-.7,0-.22,0-.45,0-.66,0-.1.67-.02.62.56.63.1,0,.19,0,.29,0,.67-.02,1.46-.18,2.13-.2.57-.06,1.21-.06.96.59-.27.04-.86.02-1.1.02-.75.01-1.49,0-2.24.01-.58.02-.62.11-.32.67,1.23-.02,2.49-.26,3.74.08.05.64.1,1.23.14,1.82.03.48.06.95.06,1.43,0,.88.06,1.99.07,2.86.02.86.01,1.48.02,2.34.02,1.51.08,2.66.08,4.17,0,.5.07,2.02.04,2.62-.51-.31-.96-.65-1.41-1-.16-.12-.32-.23-.5-.04-.15.16-.11.37.13.53.5.35,1,.71,1.52,1.02,1.31.76,2.63,1.49,3.94,2.24,1.43.81,2.86,1.61,4.29,2.43.21.12.39.18.56,0,.14-.15.02-.41-.22-.54-.71-.38-1.42-.75-2.12-1.13-.52-.28-1.03-.56-1.58-.86.44-.29.72.11.97.12.44-.29.82-.53,1.29-.84-.24-.07-.36-.13-.48-.15-.54-.07-.58-.1-.58-.62,0-.34.03-.68.06-1.06-.32-.06-.57-.17-.58-.53,0-.06-.06-.16-.12-.19-.32-.14-.23-.4-.2-.64.02-.13.1-.26.09-.39,0-.11-.07-.23-.12-.34-.13.06-.27.1-.38.19-.06.05-.05.18-.06.27-.05.55-.09,1.1-.13,1.66-.03.49-.04.98-.06,1.45-.37.05-.69.12-1.01.14-.14,0-.29-.05-.42-.12-.3-.16-.59-.36-.89-.53-.44-.24-.88-.45-1.29-.66-.15-5.96-.35-11.66-.44-17.87.13-.02.29-.07.45-.07.34,0,.69.02,1.03.02,2.39-.01,4.79-.03,7.18-.04.15,0,.31,0,.46,0,.24.02.43.1.41.35-.04.42.02,3.6.1,4.68.07,1.06.08,3.25.08,3.35-.06,1.3.01,2.6.15,3.89.03.24.08.3.38.33.04-.47.09-.78.09-1.25,0-2.35,0-4.71-.02-7.06-.01-1.26-.06-2.52-.09-3.79,0-.39.09-.5.51-.51.82-.02,1.65-.03,2.47-.05.55-.02,1.11-.09,1.66-.09.74,0,1.49.03,2.23.06.28.01.57.07.45.31-.07.13-.23.23-.43.41-.15.14-.53.32-.4.56.1.07.14.11.19.13.66.23.67.23.68.91.01.97.03,1.95.01,2.92,0,.4.02.84.09,1.19.05.25.36-.21.41-.21.05-.19.07-.65.08-.84.05-.74.02-1.01.03-1.76,0-.59-.02-1.01-.08-1.77-.05-.59-.17-1.11.25-1.45.52-.42,1.09-.86,1.61-1.28,1.15-1.2,2.93-2.85,3.43-2.63.72.2,5.57,3.14,6.62,4.12.45.36.37,1.04.39,1.26-.03,2,0,3.17-.1,5.03-.06,1.24.05,2.61-.02,3.85-.01.23,0,.46-.01.69-.04.53-.32.48-.87.47-.07,0-.15-.02-.28-.03-.01-.17-.04-.34-.03-.5.03-.3.05-.61.12-.91.13-.5,0-.86-.49-1.03-.1-.7.15-1.42-.2-2.14-.18.11-.29.21-.42.26-.54.2-.53.2-.56.76-.01.32-.05.63-.08.95-.67.12-1.26,0-1.83-.13-1.34-.31-2.81-.51-4.15-.84-.83-.2-2.02-.35-2.86-.53-.32-.07-1,.13-1.59.53-1.08.79-1.49,1.32-2.53,1.94,0,0-.97.66-1.16.78-1,.63-1.45.93-2.45,1.55-.16.1-.67.41-.84.48-.68.39-.73.48-1.55.92-.45.26-.57.48-.05.69.62.1,2.23.43,2.61.51,1.36.3,2.95.56,4.31.87.35.08,3.95.48,4.08,1.12.04.3.08,1.04.11,1.32.03,1.19.06,1.38.07,2.66,0,.19.13,2.79.1,3.89-.05,1.58-.15,3.16-.23,4.75,0,.19-.03.38-.08.56-.07.25.06.37.24.44.41.17.8-.04.85-.48.04-.28.01-.57,0-.86-.06-1.24-.15-2.48-.19-3.72-.05-1.43-.06-2.87-.06-4.3,0-.9-.02-1.37,0-2.27.02-.55.01-1.36,0-1.91-.01-.63.36-1.26.89-1.59.49-.3.96-.62,1.44-.93,1.1-.7,2.2-1.39,3.3-2.08.63-.4,1.53-1.21,2.22-1.66.4-.34.24,1.29.25,1.46.04.8.02,5.29-.17,6.3-.05.24-.06.5-.03.74.01.12.13.32.22.34.23.04.52.28.59-.36-.13-.97-.18-1.8-.05-2.8.15-1.15.16-3.93.18-4.08.2-.02.8-.04.97-.05,1.64-.11,2.92-.05,4.56-.15.84-.05,1.68-.09,2.52-.05.42.02.79.05,1.2.18.27.08.42.43.41.72-.02.57-.01,1.14,0,1.71,0,.48,0,.96.01,1.44,0,.28.1.47.41.49.2-1.91.18-3.83,0-4.33-.09-.35-.45-.5-1.01-.63-.33-.1-.54-.11-.79-.1-.03-.78-.09-1.63-.07-2.33.01-.56.05-.57-.43-.76-.37-.15-.5-.1-.62.31-.11.37-.06,1.53-.06,2.33.02.21,0,.33-.02.48-.11.01-.55,0-.71.02-.02-.31,0-.69,0-.97,0-.53,0-1.53,0-2.06,0-1.42.03-2.37.02-3.78,0-.78.02-1.56.02-2.34,0-.55.21-.77.76-.77.46,0,.92.04,1.37.06.4.01.8.01,1.2.03.36.02.73.03,1.08.08.32.04.52.26.53.58.03.44.04.88.04,1.32,0,.48-.06.95-.07,1.43-.01.77.01,1.53-.02,2.3-.03.64.06,1.3-.19,1.96-.24-.03-.47-.04-.69-.08-.26-.04-.52-.13-.79-.15-.1,0-.3.1-.31.16,0,.12.06.29.16.37.12.1.29.13.51.22-.18.27-.34.48-.47.71-.2.33,0,.67.38.68.09,0,.19-.06.28-.05.44.02,1.96.05,2.19.05.86,0,2.03,0,2.9,0,1.15.01,2.06.04,3.21.05.43,0,.57.22.56.67-.01.48-.09.95-.1,1.43,0,.14.13.42.19.41.17-.01.37-.1.49-.22.07-.08.02-.28.02-.43-.02-.3-.06-.6-.07-.9,0-.42.03-.58.04-1,0-.45-.01-.59-.43-.6-.9,0-1.88.1-2.77.11-.44,0-3.69-.04-5.07-.01-.2,0-.98,0-1.17-.04-.04-.63.25-.82.76-.83.17,0,.34,0,.52.02,2.33.1,4.67.21,7,.31.2,0,.45,0,.47-.22.03-.25-.07-.51-.11-.76-.11.02-.25.02-.34.08-.06.05-.05.19-.08.38-.42-.23-1.31-.08-1.73-.14-1.57-.01-3.91-.17-4.18-.16-.28,0-.56,0-.84,0,.04-.14.09-.27.1-.4.05-1.01.07-2.03.15-3.03.09-1.12.03-2.4.16-3.52.05-.46.49-.65.88-.92.66-.46,1.31-.93,1.97-1.39.11-.08.25-.12.39-.19.02.09.04.13.04.17-.09,1.39,0,3.1-.05,4.49-.06,1.32-.07,2.54-.1,3.86-.01.6-.01.77.57.5,0-.32,0-.9,0-1.22,0-.46-.02-.92,0-1.38.05-1.43.03-2.03.07-3.46.02-.53.05-1.91.05-2.44,0-.32,0-1.34.25-1.23.29-.03,1.15.72,1.23.77,1.09.83,1.26,1.03,2.25,1.8.42.4,1.13.87,1.08,1.47,0,1.66-.12,6.4-.18,7.38,0,.14.06.7.09.86.62-.25.56-.67.56-1.52,0-1.55.04-3.1.08-4.65.01-.61.07-1.22.1-1.83.01-.26.05-.72.37-.73.55-.02,1.15.06,1.74.07.43.06.18,1.83.18,2.54-.01,1.26-.15,4.3-.05,4.66.07.26.28.28.48.12,0-.32-.01-.62,0-.93.15-1.92-.22-4.17.21-6.07.06-.28.19-.41.5-.47.4-.07.83-.02.64-.38ZM96.05,25.26c-.78.49-4.27,2.68-5.26,3.42-.26.19-.72.43-.99.6-.17.1-.59.35-.77.33-1.01.07-1.81.09-2.71.07-.97-.02-1.73-.06-2.71-.12-.14,0-.82.03-.82-.24,0-.05.11-.09.41-.31,1.16-.87,2.34-1.72,3.49-2.61.73-.56,1.42-1.16,2.11-1.77.29-.26.58-.41.97-.39,1.45.06,2.9.1,4.35.17.74.04,1.47.14,2.21.22.79.08-.08.49-.28.62ZM97.87,23.89c-.04.43-.55.36-.97.35l-4.15-.23c-.66-.04-.91-.1-1.63-.18-.22-.02-.78-.05-.97-.17-.08-.05-.02-.42-.03-.52-.04-.53-.07-1.07-.07-1.6,0-.41.1-.45.51-.53,1.41-.27,2.82-.01,4.23-.09.65-.03,1.3.01,1.94.02.11,0,.23.01.34.04.53.11.75.12.77.66.02.4.04.9.07,1.3.01.21-.02.73-.04.93ZM97.06,20.5c-1.6-.08-2.46,0-4.06-.03-.51-.01-1.7.04-2.21.05-.36,0-2.05.11-1.67-.17.14-.13.67-.41.78-.49,1.05-.74,1.93-1.43,2.91-2.26.26-.22.83-.37,1.01-.37,1.45-.04,2.92.09,4.37.1.76,0,2.91.05,2.78.24-.59.51-1.1.94-1.59,1.39-.41.37-.8.76-1.19,1.16-.25.25-.75.4-1.11.39ZM72.24,62.04c-1.03.02-2.59-.13-3.62-.13-.71,0-1.09-.4-1.63-.77-.97-.67-1.99-1.68-2.8-2.66-.34-.34,1.08-.03,1.73.05.94.07,1.54.07,2.45.04.38-.01.69.09,1,.32,1.04.78,2.11,1.52,3.16,2.28.16.12.3.26.55.47.5.39-.5.38-.85.39ZM81.28,61.4c-.98,0-1.97-.06-2.87-.07-1.38-.02-2.71.02-4.08,0-.64,0-1.25-.27-1.77-.68-.3-.23-.84-.65-1.26-.93-.37-.39,2.89-.24,3.71-.23,1.22,0,4.58-.05,5.57,0,.19.01.72.19.86.29.6.39,1.27.9,1.82,1.5.35.28-1.41.13-1.97.13ZM107.21,81.49c-.4.26-.89.57-1.31.79-1.23.82-1.24.8-2.69,1.53-.33.22-1.66.87-1.72.92-.69.38-1.46.25-2.07.11-1.21-.27-2.29-.46-3.51-.7-.52-.11-2.06-.16-2.58-.27-.62-.06,2.82-1.38,3.7-1.81,1.13-.55,2.15-1.16,3.29-1.71.52-.26,1.26-.12,1.85-.02.72.11,1.43.22,2.15.31.81.1,1.63.18,2.45.26,0,0,.98.02.88.24-.02.05-.36.3-.44.35ZM137.87,74.82c-.1.19-.52.28-.76.42-1.19.68-1.96,1.16-3.18,1.79-1.44.75-2.25,1.19-3.71,1.89-.32.15-2.15,1.25-2.5,1.01-.29-.2-.76-.37-1.13-.45-.79-.16-1.46-.47-2.24-.64-.16-.03-1.11-.23-.92-.4.5-.23,1.24-.46,1.63-.64,1.5-.71,3.01-1.42,4.44-2.27.89-.52,1.8-1,2.72-1.47.21-.1.48-.14.71-.12,1.19.14,2.39.31,3.58.49.31.05.67.03.97.1.51.07.39.24.4.29ZM133.57,68.31c.65-.39,1.26-.02,1.57.19,1.05.7,1.79,1.4,2.87,2.06.75.46,1.61,1.02,2.39,1.43.56.3,1.13.61,1.69.92-.35.07-.47.31-.46.65.03.65.07,1.3.09,1.94.01.4,0,.8,0,1.27-.17-.11-.31-.17-.41-.26-.81-.7-1.62-1.4-2.41-2.13-.25-.23-.5-.31-.82-.33-.57-.04-1.14-.12-1.7-.19-.8-.09-1.6-.2-2.4-.27-.41-.03-.82-.16-1.17-.39-.56-.36-.6-.33-1.04.16-.16.18-.38.31-.58.46-.85.64-1.99,1.33-2.95,1.76-1.81.98-2.71,1.24-4.28,1.95-.31.14-.85.23-1.17.36-.43.17-.43.18-.42.68-.05.02.63.57.84.63.04.53.04,1.4.05,1.93.02,1.28.03,2.56.03,3.84,0,.42,0,1.88.63,1.84.11-.39.15-.8.11-1.22-.05-.57-.09-1.14-.09-1.71,0-1.3.02-2.6.04-3.9,0-.15.01-.29.03-.52,1.12.43,2.26.34,3.16.99,0,.49,0,1.54,0,2.01,0,.59.04,1.27.05,1.86,0,.27.07,3.07.02,4.51,0,.15,0,.66,0,.81.03.46.02.79-.56.8-2.25.03-3.83-.05-5.71.04-1.82.09-6.6.05-7.17.05-.2,0-.52-.04-.78-.07,0-.57.01-1.11.01-1.62.24,0,.58.07.76,0,.11-.04.08-.39.19-.64.48-.02,2.2.01,2.47-.02.72-.07,1.44-.15,2.17-.21,1.47-.13,2.93-.25,4.4-.38.13-.01.25-.12.41-.2-.38-.53-1.09-.26-1.58-.36-.05-.48-.03-1.01-.08-1.51-.04-.34-.09-.85-.15-1.19-.08-.43-.21-.6-.5-.6-.42,0-.44.4-.55.73-.08.26-.15,1.83-.02,2.48.03.13-.23.41-.37.43-.24.03-.48.07-.73.08-1.39.09-2.79.2-4.18.25-.66.02-1.51-.02-2.22-.06-.1-.96-.14-2.05-.05-2.95.38-.05.93.34,1.2.48,0,.38,0,.75,0,1.11,0,.22.08.39.32.38.24,0,.26-.2.26-.37,0-1.24.13-2.47.09-3.71-.08-2.08,0-4.17.02-6.25.03-2.18.08-4.36.12-6.54,0-.08-.01-.29,0-.44,2.07-.13,4.26-.13,6.33.03.14.75.06,1.11-.57,1.37-.67.28-1.49.76-2.17,1.01-.26.1-.55-.15-.83-.17-.62-.04-.81.12-.74.74.04.32.09.65.18.96.08.29.31.32.52.09.08-.08.12-.2.2-.28,0-1.14,1.24-.45,1.32-.14.27,1.09.19,3,.12,4.15-.05.84-.06,2.33-.05,3.17.02,1.43-.03,4.35-.02,5.03,0,.28-.1.82-.02,1.07.17.49.39.9.65.17.01-.04-.03-4.86-.06-7.24,0-.51.18-4.05.12-5.31-.01-.28-.05-.82-.04-1.12.3,0,.87.21,1.11.25.75.14,1.25.32,1.99.49.55.13.59.2.61.8.02.65.01,1.3.02,1.95,0,.22-.04.53.27.54.29,0,.31-.3.31-.52.02-.93.01-1.87.02-2.83-.04-.51,1.67-1.16,2.64-1.55,1.03-.41,3.45-1.8,4-2.11.77-.43,1.88-1.21,2.66-1.62ZM123.26,70.19c.85-.37,1.04-.58,2.18-1.33.06-.05.7-.6.76-.65.65-.59,1.24-.7,2.15-.6,1.1.11,1.88.13,2.98.16.26,0,.89-.02,1.15.01.21.02.57.05-.05.47-.12.06-.63.44-.74.5-.59.36-1.07.56-1.67.89-1.43.8-2.5,1.29-3.95,2.06-.72.38-1.48.7-2.23,1.03-.15.06-.35.34-.97.22-1.02-.26-1.47-.31-2.48-.59-.02,0-1.04-.2-.59-.4.31-.2,1.07-.56,1.41-.73.77-.39,1.28-.69,2.07-1.04ZM106.43,67.02c.16-.02.39-.06.51-.06,1.97.04,4.06-.11,6.03-.07,2.16.04,4.08.04,6.24.07.44.03,1.12.55,1.25.61.48.24,1.38.67,1.35,1.02-.1.17-1.08.07-1.26.07-1.05.02-3.37-.01-3.71,0-1.32.02-2.63.03-3.95.06-.84.02-1.68.09-2.52.06-.88-.03-3.51.07-3.95.02,0-.5,0-1.32,0-1.79ZM152.08,90.95c.04.4.07.8.11,1.19-.33-.37-.17-.79-.11-1.19ZM151.53,93.26c-.15-.09-.29-.16-.46-.26q.4-.09.46.26ZM174.53,83.99c-2.3,1.97-4.6,3.34-7.14,4.98-.3.19-.57.16-.87.15-1.42-.08-2.41-.31-3.8-.57-1.26-.24-2.21-.52-3.86-.77-.74-.15-2.1-.2-2.1-.44-.05-.19,2-1.06,2.79-1.55,1.44-.91,2.89-1.8,4.19-2.9.52-.44,1.13-.76,1.7-1.13.28-.18.59-.11.89-.04.92.19,1.83.41,2.75.56,1.53.26,3.06.48,4.59.72.41.07.81.19,1.3.3.25.14-.35.62-.44.7ZM184.3,67.27c.28-.02.52-.04.76-.05.73-.01,1.45-.02,2.18-.01.18,0,.4.05.53.16.99.82,3.78,2.67,3.36,2.81-.29.06-1.53.19-1.62.2-.45.04-.79.02-1.2-.09-.42-.1-.8-.44-1.16-.71-.91-.69-1.72-1.18-2.62-1.88-.04-.03-.46-.44-.21-.43ZM183.7,67.77c.02-.36.35.23.84.62,1.17.87,2.1,1.58,3.27,2.44.13.09.31.17.46.17.57-.02,1.14-.07,1.71-.12.28-.02.56-.05.88-.08.03.66.04.88-.49.91-.84.03-1.72-.12-2.56-.12-.44,0-.83.1-1.16.39-.27.24-.44.47-.72.71-.18.15-.65.68-.76.31,0-.18,0-.64.01-.84,0-.19-.03-.35-.23-.41-.22-.06-.31.12-.39.27-.08.17-.08.49-.14.71-.37-.12-.45-.24-.82-.47.05-.46-.01-.86,0-1.25.02-.97.01-2.15.08-3.23ZM176.29,66.55c1.03.06,2.06.11,3.09.15,1.01.03,2.02.04,3.03.06.38,0,.56.14.65.53.25,1.15.09,2.29.06,3.46-.01.36.07.81.02,1.27-.38-.19-.81-.42-1.07-.59-.11-.07-.18-.23-.21-.36-.12-.59-.23-.63-.78-.19-.45-.25-.94-.5-1.4-.8-.62-.4-1.22-.86-1.84-1.27-.16-.11-.38-.18-.57-.18-.32,0-.66.03-.96.13-.46.15-1.05.12-1.54-.04-.07-.74.02-1.49-.05-2.32.57.05,1.07.12,1.58.15ZM172.83,60.73c.3-.12.73-.15,1.03-.03.28,2.61.27,5.36.26,8.02,0,.22-.78.1-1.12,0-.05-.99.07-1.96.02-2.93-.05-.9-.1-1.79-.16-2.69-.05-.75-.36-2.37-.03-2.37ZM167.64,55.72c.25.16.58.3.9.54.42.37-.78.26-1.05.09-1.28-.58-2.52-1.3-3.67-2.2-.51-.4-1.04-.94-.64-.95.54-.08.94.24,1.18.38,1.24.75,2.05,1.37,3.28,2.14ZM168.64,57.19c0,.83-.02,1.81-.02,2.58-.64.23-.95.32-.97-.26-.03-.62,0-1.54,0-2.33.33,0,.71,0,1,0ZM177.14,55.18c.47.23,1.64.55,2.13.75-1.05.07-2.77-.08-3.78-.52-1.44-.62-2.89-1.2-4.22-2.07-.93-.6-1.93-1.11-2.89-1.66-.17-.1-.96-.38-.43-.45.63-.03,1.22-.02,1.78.27,2.46,1.23,4.93,2.46,7.4,3.68ZM166.04,46.19c.39-.67.71-.74,1.48-.63.76.06,1.62.03,2.1.03,1.53-.03,2.61,0,4.14-.06.38-.01.63-.1,1.01-.12.13,0,.43.04.52.12.04.04-.02.25-.09.34-.61.8-1.24,1.6-1.86,2.4-.14.18-.32.24-.55.23-.84-.04-1.85.09-2.69.09-.67,0-1.85.04-2.56,0-1.32-.07-3.09,0-3.42,0,.12-.2,1.49-1.65,1.93-2.39ZM155.2,42.31c.96-.06,1.82-.03,2.74,0,.31.01.81.1,1.03.32.32.31.71.67,1.08.97.21.24,0,.32-.71.31-1.26-.05-2.15.06-3.4,0-.39,0-.74,0-.74-.27,0-.45,0-.87,0-1.32ZM155.25,44.49c1.53,0,3.21-.2,4.78.12.06.64.07,1.8.09,2.44.04,1.28.09,2.4.16,3.68.04.64.06.92.2,1.55.05.2-.01.43.33.3-.1-2.41-.12-5.15-.08-8-.03-.64,5.25.57,4.93,1.21-.79.93-1.82,2.19-2.52,3.03-.04.04-.18.18,0,.27.25,0,.47.04.69,0,.92-.07,1.59-.04,2.4.05.84.04,1.53.03,2.29.01.96-.02,1.91-.07,2.87-.08.56,0,.83.07.86.63.02.4.01.65-.01,1.05-.02.32.04.97,0,1.38-.27-.11-.79-.31-1-.42-.49-.25-.78-.3-1.25-.59-.74-.45-1.17-.28-2.3-.38-.09.02-.59-.1-.68-.13-.6-.15-.78.1-1.13.53-.55.66-1.19,1.23-2.06,1.48-.5.15-.93.09-1.28-.32-.25-.28-.63-.28-.73.05-.16.52-.59.74-.96,1.02-.53.41-1.11.75-1.66,1.11-.2-.07-.4-.16-.6-.23-.87-.28-1.75-.55-2.61-.85-.61-.21-.71-.17-.68-.79.02-.51.05-.84.04-1.36-.02-.97.02-2.22-.02-3.19-.03-.78-.05-1.22-.08-2-.02-.41,0-.99.05-1.59ZM154.63,34.48c.03.11.01.77.01.89,0,.59.09,3.86,0,4.47-.03-.11-.42.2-.28-2.68.02-.32-.18-.61-.28-.64-.05-.01-.18.12-.21.21-.05.18-.08.37-.08.56.01.73-.05,1.16-.04,1.89.02.83.26.57.89.75.02.72.04,1.94.06,2.68.04,1.83.07,3.79.09,5.63.01.94,0,2.88,0,3.28,0,.32.03,1.04,0,1.4-.89-.2-1.11-.39-1.23-1.17-.04-.25-.08-.49-.08-.74,0-1.07-.05-4.36-.07-5.14-.07-2.43,0-9.09-.03-10.1,0-.17-.01-1.09,0-1.26.02-.22-.01-.44.31-.46.27-.02.87.17.93.44ZM147.31,33.53c.06-.19.49-.77.73-1.13.74-.87,2.37-4.8,2.8-4.25,1.05,1.37,1.91,3.32,2.95,4.82.06.09.24.36-.16.4-1.82.02-6.71.73-6.32.17ZM147.55,37.55c-.03-.98-.25-3.26.18-3.25,1.54-.19,3.27-.38,4.94-.28.29-.03.23,1.3.23,1.83,0,2.85-.06,5.56-.07,8.41,0,1.66.05,3.53.06,5.19,0,.95,0,1.7.07,2.78-.79-.29-1.55-.58-2.29-.85-.11-.29.01-.68-.37-.74-.15-.02-.32.12-.58.24-.47-.25-1.06-.52-1.61-.86-.16-.1-.25-.38-.27-.59-.06-.63-.08-1.26-.09-1.89-.04-2.1-.14-4.21-.09-6.31.03-1.23-.06-2.21-.11-3.69ZM148.01,50.73c1.55.61,2.92,1.29,4.45,1.91,1.68.68,3.35,1.39,5.03,2.08.3.12.61.2.91.3-.25.24-1,.38-1.24.29-2.34-.94-4.2-1.83-6.47-2.95-1.02-.51-2.05-.86-3.1-1.31-.1-.04-1.77-.73-1.84-.87.19.05,2.07.48,2.25.55ZM142.05,49.72c-.53.21-.46.13-.98.35-1.07.46-1.7.72-2.77,1.19-.89.39-1.98.83-2.87,1.21-1.21.53-2.26,1.04-3.47,1.56-.46.2-1.13.43-1.59.6-.23.09-1.28.37-1.44.37-1.57,0-3.14,0-4.71-.01-.86,0-1.87.02-2.82.01-.05-.17,0-.41,0-.62.06-1.81-.09-3.21-.02-5.03.01-.26,0-1.01-.02-1.32.01,0-.1-.78.28-.81,4.49-.14,6.21-.16,7.39-.07.31,0,1.2-.03,1.21.49,0,.26.04.74.05,1,.01.07-.02,1.05-.02,1.16.1,1.68.07,2.14.15,3.81.11.41.24-.04.27-.11.06-.2,0-.84,0-1.05.02-.4,0-.8.02-1.21.05-.82-.33-4.23.55-4.2.52-.02,2.45-.1,2.98-.08,1.34.06,5.97-.02,6.81-.02.31,0,1.66.01,1.6.02,0,.3.06,1.06.06,1.36,0,.02,0,.56,0,.58.03.39.02.56-.65.79ZM130.08,46.51c.13.4-1.72.1-2.35.13-.5.02-1.42.08-1.92.08-1.72,0-2.21-.07-3.93-.04-.42,0-1.67.3-1.52-.09.23-.31.73-.6.99-.88.87-.74,1.08-.84,2-1.64.23-.2.88-.7,1.19-.79.23-.09,1.42-.16,2.95-.19,1.66-.03,3.7.02,5.63.06.15,0,2.15.05,3.68.08.57.01,1.64.41,2.11.79.82.65,4.14,2.52,3.33,2.52-.18.02-1.22-.04-1.4-.03-1.28.03-2.27.02-3.55.03-1.7.02-3.24.08-4.94.07-.61,0-1.26.02-1.72-.39-.59-.54-.97-.96-1.56-1.5-.1-.09-.69-.65-.76-.76-.15-.27-.56-.46-.83-.35.7,1.03,1.82,1.77,2.59,2.92ZM143.18,47.98c-.13-1.02.18-.86.57-.99s-.67-.7-1-.96c-.39-.31-1.45-.89-2.26-1.47-.36-.26-1.99-1.32-.97-1.27,2.42-.14,5.18-.28,7.62-.06.04.16,0,4.93,0,6.73-.17-.07-.6-.18-.82-.27,0-.37.03-1.14.03-1.5,0-.16,0-.35-.2-.35-.11,0-.26.13-.32.25-.09.18-.11.4-.18.6-.11.32.13.89-.19.77-.41-.16-1.68-.45-2.08-.61-.2-.08-.19-.65-.21-.86ZM129.86,34.04c.42,0,.97,0,1.47,0-.39.68-.92,1.34-1.5,1.88-.05-.66-.05-1.34.02-1.88ZM120.1,26.52c1.16,0,2.33.07,3.49.11.18,0,.36.03.64.05-.13.16-.18.25-.26.32-.56.52-1.12,1.04-1.68,1.55-.3.28-.73.7-1.17.73-2.67.17-5.22.06-7.89.06-.92,0-1.65,0-2.57,0-.19,0-.68-.02-.86-.03-.39.03-.08-.24.04-.34.24-.21.47-.44.71-.63.66-.52,1.32-1.04,1.99-1.54.14-.1.52-.23.7-.22,1.07.08,5.58-.05,6.86-.05ZM121.15,32.77c-1.05-.03-2.01,0-3.03,0-.52,0-3.18.04-4.45,0-1.35.02-1.8.01-3.29.03-.36.07-.55.16-.74.21.06-.95-.01-2.3.12-3.16.73,0,1.34.06,2.01.07.24,0,.68.02.92,0,.55-.03,2.6-.08,3.14-.07,1.14.02,2.3,0,3.44.04.4.01.8.02,1.2.01.3,0,.58.13.63.42.06.36.02.79.05,1.15.03.44,0,.87,0,1.3ZM112.29,24.67c.46-.31.57-.3,1.02.04.48.36,2.56,1.23,1.83,1.25-.47-.05-1.3,0-1.68-.04-.34-.03-.68-.05-1.02-.08-.23-.02-.37.09-.42.3-.07.31-.27.58-.51.75-.43.31-.98.78-1.43,1.13-.14.18-.11-.99-.1-1.36.01-.43.41-.63.72-.85.54-.36,1.04-.78,1.57-1.14ZM106.55,23.67c1.71.16,3.54.42,5.15.57-.62.55-1.34,1.43-2.33,1.28-.81-.13-1.54-.3-2.36-.36-.32-.02-.44-.23-.45-.49-.01-.28-.03-.71,0-1ZM108.84,28.96c-.31-.13-.36-.46-.33-.7.05-.38-.02-.71-.45-.89-.21.38.06.84-.28,1.19-.3-.17-.61-.31-.88-.51-.13-.09-.23-.27-.26-.42-.08-.52-.05-1.35-.11-1.84.08-.46,2.01.17,2.17.21.62.14.84.45.82,1.19,0,.19-.08.86-.08,1.24,0,.27-.19.65-.61.53ZM103.73,38.01c.52-.31,1.35-.94,1.9-1.38.72-.57,1.17-.94,1.9-1.49.58-.44,1.46-1.09,2.11-1.41.59-.29.93-.42,1.58-.42,2.1-.01,4.8-.04,6.9.02.72,0,1.91-.08,2.17,0,.5.12-1.91,1.55-2.53,2.03-.74.57-1.55,1.1-2.3,1.66-1.16.86-2.11,1.68-3.44,2.22-.31.13-1.08.11-1.43.09-1.79-.11-3.7-.2-5.49-.33-.43-.03-1.75-.14-2.26-.2-.39-.05.81-.71.9-.79ZM111.98,43.19c.03,1.43-.04,2.35,0,3.78.01.32,0,.93,0,1.3-.33.02-.75,0-1.03,0-.96-.02-1.91-.07-2.87-.08-.76-.01-1.53.02-2.29.02-.44,0-.88-.03-1.32-.05-.28,0-.41-.17-.46-.42-.03-.15-.04-.3-.05-.46-.05-.68-.12-1.37-.13-2.05,0-.57.06-1.14.08-1.71.04-.95.08-1.91.11-2.86.01-.34,0-.83,0-1.15.59-.17,6.05.2,7.46.5.77.1.45,2.22.48,3.19ZM100.94,33.57c.13.81.03,1.76.09,2.57.05.63,0,1.26,0,1.89,0,.17,0,.35.02.52.07.47.25.67.73.75.32.06.65.05.97.09.22.03.44.01.69.06,0,.85,0,1.72-.01,2.56-.78.2-1.56.18-2.4.26-.01.17-.03.35-.03.54.04,1.8.08,3.6.12,5.39.02.69.01,1.24.06,1.92,0,.35.1.88-.32,1.02-1.11.63-1.63,1.02-2.91,1.52-.11.07-.62.07-.75.07-.88.05-1.75.02-2.63.05-.13,0-.77,0-.8-.16-.03-.81-.03-1.49-.05-2.27-.02-.49,0-.93-.46-1.05-.34-.08-.71.07-.88.46-.17.4-.04.65,0,1.26.04.51.04,1.17.04,1.75-.86,0-2.05.12-2.76-.05-.36-.02-.12-1.89-.13-2.44,0-.69.04-1.55.02-2.23-.06-1.39-.09-2.79-.12-4.18,0-.32-.04-.72-.03-1.04.02-.3.17-.63.44-.69.37-.14.83-.11,1.21-.13,1.05-.05,2.17-.01,3.22-.04.67-.02,1.34-.02,2.01-.02.61,0,1.22.01,1.84.04.21,0,.88.07,1.08.11.76.16.38,4.07.39,5.62,0,.74.02,1.49.04,2.23,0,.15,0,.33.06.45.06.1.24.16.37.17.05,0,.18-.21.16-.3-.3-1.41-.03-2.82-.03-4.23,0-.98-.07-3.42-.09-3.66-.05-.52.06-.45.58-.45.19,0,.38,0,.57,0,.38-.03.67-.28.36-.69-.08-.1-1.08-.77-1.7-1.17-.93-.6-1.96-1.24-2.83-1.92-.5-.39-.69-.7-1.45-.76-.2-.05-.6-.08-.32-.41.19-.2.38-.44.61-.63,1.12-.93,2.03-1.74,3.29-2.47.21-.12.69-.46.91-.58.38-.22.76-.16.83.28ZM89.67,41.3c.03-.07.13-.2.16-.23.99-.99,1.97-1.98,2.97-2.95.12-.12.32-.22.49-.23.74-.04,1.49-.08,2.23-.06.33,0,.4.07.65.27.83.66,1.72,1.22,2.65,1.81.48.31.81.47,1.28.81.13.09.75.46.86.57.22.21.08.22-.23.2-.3,0-.84,0-1.14,0-1.64-.03-2.6-.08-4.25-.08-.72,0-1.77-.02-2.49,0-1.01.02-1.79,0-2.8-.01-.06,0-.39.01-.39-.1ZM90.47,37.02c.14-.11.45-.3.6-.4,1.76-1.22,3.52-2.43,5.26-3.67.4-.29.75-.36,1.16-.4.77-.01,1.31.04,1.98.08.23,0,.38.26.18.33-.36.23-.67.4-1.02.65-.54.39-1.51,1.13-4.18,3.27-.3.24-.76.35-1.17.32-.71-.04-1.15.03-1.85,0-.18,0-.68.02-.86,0-.27-.04-.33-.04-.1-.18ZM88.83,41.2c-.25.26-.6.63-.98.63-1.3.02-2.27.05-3.68.03-1.24,0-2.75.03-3.96,0-1.87.05-3.71,0-5.58.04-.39,0-1.78.08-1.64-.09.24-.31,1.11-.57,1.29-.64,1.64-.66,2.57-1.22,4.05-2.16.59-.37.98-.64,1.59-1,.42-.25,1.09-.33,1.58-.32,3,.02,6,.05,9.01.08.47,0,.94,0,1.49,0,.31.06-.18.54-.26.62-.98,1.02-1.91,1.79-2.89,2.8ZM101.79,55.09c-1.13.05-2.48.08-3.63.06-1.03-.02-2.41-.01-3.44.01-1.16.03-2.16.03-3.32.11-.9.06-1.44-.04-2.34,0-.4.02-.79-.07-1.13-.33-.52-.39-1.06-.76-1.58-1.14-.15-.11-.27-.25-.4-.38-.25-.24.09-.24.11-.24,1.39-.02,2.79.09,4.18.08.59,0,1.18.02,1.78.04,1.66.05,3.1-.02,4.76.01.46,0,1.3-.05,1.76-.06.56,0,1.08.13,1.43.48.29.19.4.31.66.46.4.23.8.45,1.21.67.11.07.02.22-.05.22ZM100.6,53.62c-.36-.28-.83-.62-1.2-.97.63-.45,1.55-1.07,2.33-1.27.2.87.29,2.01.31,2.91-.54-.05-1.06-.37-1.44-.67ZM85.11,63.41c-.32.03-.96.1-1.34.11-.68,0,.8-.98,1.16-1.38.57-.64,1.43-1.25,2-1.9.22-.25.44-.63.76-.66.74-.05,1.4-.2,2.14-.24.26-.02.81.33.94.6.02.05,1.03,1.42,1.53,2.11.22.3.48.58.8.95-.91,0-7.5.36-7.99.4ZM102.65,60.36c1.49,1.14,2.05,1.67,3.4,2.57.05.03,1.43.89.44.77-.81-.07-1.83-.1-2.7-.16-2.26-.02-7.91-.31-8.91-.41-.63-.06-1.22-.25-1.61-.81-.57-.64-1.12-1.48-1.65-2.08-.09-.1-.15-.21-.28-.39-.46-.69.77-.47,1.29-.45.96.03,3.9.25,4.32.28,1.33.09,2.67.18,4,.27.38.03.76.06,1.14.13.19.04.41.14.54.29ZM102.04,50.16c-.21.1-.28-.37-.28-.49-.13-.82-.02-1.65-.06-2.54-.03-.57-.01-1.37-.04-1.94-.04-.76,0-1.52,0-2.34.55-.06,1.13-.14,1.71-.03.02.16.06,1.05.07,1.17.03.66-.04.72-.68.95-.39.14-.45.89-.46,1.31,0,.19,0,.33-.01.43,0,0,0,0,0,.01-.02.86-.03.76-.04,1.61,0,.13.09.29.2.37.14.11.28.02.39-.11.1-.13.24-.2.43-.01-.41.49-.36,1.51-1.22,1.62ZM120.77,50.29c-.67.01-1.36.03-2,0-1.74-.05-3.12-.01-4.85-.09-1.15-.05-2.78.01-3.92-.04-.74-.03-2.15-.05-2.9-.06-1.33-.03-2.03-.13-3.37-.09-.17,0-.33,0-.55,0-.04-.47.4-.88.78-1.24,1.52-.14,2.8-.16,4.58-.06,2.15,0,4.07-.07,6.18.11,1.8.08,3.22.25,4.83.24.28,0,.86,0,1.22.04,0,.34,0,.85,0,1.18ZM120.83,48.61c-2.74.13-5.6-.26-8.21-.32-.03-.22,0-.56,0-.74-.02-2.43-.03-4.58-.06-7.01,0-.6.25-1.12.79-1.45,1.06-.65,1.53-1.12,2.56-1.8.94-.63,1.39-1.02,2.32-1.66.36-.25,1.27-.88,1.62-1.15.19-.15.84-.7,1.11-.7.21-.02.77.54.96.69.4.3.74.65,1.12.97.55.45,1.23,1,1.79,1.43,1.06.82,1.46,1.09,2.55,1.88.26.19.89.55,1.18.7.33.17.47.55.47.95,0,.42-.04.75-.01,1.17.01.19.05.38.12.55.03.08.19.16.26.14.08-.02.17-.16.17-.25,0-.34-.04-.69-.05-1.03,0-.33-.08-.9.42-1.02.14-.03.26-.11.31-.3.03-.09-.3-.23-.4-.28-1.77-.67-3.06-1.65-4.57-2.76-.14-.1-2.16-1.7-2.83-2.27-.73-.61-.65-1.16-.65-2.03,0-.57.05-1.14.04-1.72,0-.39.13-.65.39-.95.88-1.03,1.61-1.56,2.59-2.48.07-.06.49-.53.72-.53.53.3.86.89,1.2,1.36.63.89,1.32,1.49,2.27,2.24.12.09.22.2.38.35.3.34-.15.31-.09.59.12.52.03,1.37.03,1.9.02,1.16-.02,1.99-.04,3.16,0,.17-.05.34-.07.51-.06.48.1.85.54,1.1.51-1.43,1.08-2.27,2.21-3.47.37-.45,1.12.82,1.54,1.24.32.33.62.68.94,1,.17.16.24.33.23.55-.02.44.02.86.04,1.3.03.61.02,1.23.07,1.84.02.26.02.53.02.79,0,.24-.09.63.14.7,4.05.18,8.17-.01,12.21-.15,0,.25,0,.75,0,1.04-.45.06-1.32.07-1.73.07-.82,0-4.92.01-6.07.06-1.41.05-2.47-.03-3.87-.31-.35-.07-.47.15-.55.39-.07,0-.11.02-.15.02-.56-.03-.6-.06-.56-.6.02-.31.02-.62-.16-.88-.06-.09-.18-.21-.24-.2-.11.03-.26.14-.28.23-.08.39-.11.79-.16,1.2-.72,0-1.46,0-2.19-.02-.5-.01-5.76-.15-6.59.12-.66.21-1.04.64-1.62,1.07-.78.58-2.66,2.08-3.15,2.63-.24.27-.25.74.4.73.6.04.58.26.6.64,0,.13,0,.67,0,.8ZM138.74,60.78c-.07.13-.44.15-.61.15-.97,0-2.13.07-3.1.04-.31,0-4.58.05-6.7-.01-1.62-.04-3.26,0-4.88-.01-.97,0-2.18.04-3.16-.01-.48.04-.94-.32-1.06-.4-1.57-1.06-2.64-2.07-4.2-3.13-.43-.3-1.29-.98-1.69-1.52-.16-.39,1.38-.22,1.6-.2,1.13.07,4,0,4.38,0,.9,0,2.17.03,3.07.02,1.17,0,6.87-.05,8.19,0,.46.02,1,0,1.44.1.62.13,1.23.59,1.36.69,1.46,1.05,2.24,1.78,3.69,2.83.32.23.66.46.99.68.09.07.2.12.28.2.15.14.53.34.4.57ZM167.91,71.05c-.56.44-.83.78-1.32,1.13-.31.28-.99.37-1.14.38-1.28.05-2.38-.07-3.66-.03-1.24.03-2.11,0-3.35.02-.76.01-1.53.07-2.29.08-.8.01-5.75.22-6.79.18-.22,0-2.77.21-2.02-.24,1.13-.79,1.64-1.8,3.45-1.66.99,0,2.24.11,3.01.11,1.32-.01,2.31,0,3.63-.03,1.78-.04,3.58-.06,5.36-.09,1.49-.02,2.08.01,3.57,0,.22,0,1.8-.09,1.55.15ZM150.29,67.14s.09-.09.14-.13c.44.04.51.4.6.74-.24-.2-.49-.41-.73-.61ZM169.96,69.09c-.08.1-.17.19-.26.28-.32.31-.22.29-.86.75-.58.26-1.85.23-1.98.24-1.2.11-1.86.03-3.28.06-.28.02-.57,0-.83,0,0-.63.04-1.16.02-1.76-.01-.57-.19-1.05-.83-1.25-.54-.17-.62.2-.6.76.02.59,0,2.04-.02,2.24-2.9.09-5.27.27-8.27.06,0,0-.01,0-.02,0-.19,0-.93-.03-.93-.03-.09-.95.05-2.03,0-2.99-.03-.61-.21-1.06-.65-1.28-.42-.21-.77-.19-1.2.19-.35.31-.23.77-.24,1.38,0,.8.03,1.04,0,1.88.02.34.05.81-.18.79-.42-.03-.61.17-.84.35-.83.62-1.51,1.03-2.34,1.64-.12.09-.25.17-.38.26-.31.2-.31.78.24.97-.46.06-1.47.07-1.84.12-.03-.1-.06-2.01-.05-2.12.03-1.51.07-2.67.04-4.37,0-.4.04-1.04.06-1.44,0,0-.02-.39.05-.54.29.16.82.53,1.1.68.08.04.16.11.25.13.23.05.38-.14.28-.34-.06-.13-.15-.27-.27-.36-.6-.47-1.33-.86-1.97-1.29-1.1-.73-2.17-1.59-3.24-2.36-.19-.13-.53-.51-.46-.75.08-.3-.24-.44-.48-.57-.74-.43-.93-.55-1.65-1.01-.48-.31-2.6-1.83-3.52-2.54-.5-.38-1.67-1.2-2.22-1.49-.23-.12-.87-.32-1.14-.35-.39,0-.29,0,.38-.25,1.39-.53,2.61-1.18,3.97-1.78,1.76-.79,2.62-1.16,4.48-2,.6-.36,2.24-.86,2.88-1.15.2-.09.52-.17.7-.05.76.39,1.22.68,1.81.93,1.03.44,2.06.88,3.07,1.35.5.23,1.01.46,1.51.7.71.34,1.41.69,2.11,1.03,1.46.71,2.92,1.43,4.38,2.14.07.03.13.08.22.14-.12.35-.09.66.33.86.44-.38.88-.78,1.33-1.15.83-.68,1.67-1.35,2.51-2,.49-.38.83-.44,1.37.01.62.52,1.27,1.02,1.95,1.45.9.57,1.76,1.21,2.62,1.72-.03.67-.02.98-.03,1.31-.01.63,0,1.47.01,2.1.03,2.45.05,4.59.09,7.04.01.67-.03,1.2,0,1.86,0,.12.07.26.16.34.21.21.34.18.38-.12.06-.45.09-.88.09-1.33-.02-1.51-.06-3.11-.09-4.62,0-.5-.02-.99-.02-1.49,0-.21-.06-.95-.05-1.22-.03-.35,3.42-.4,4.24-.19.36.11.34,1.7.36,1.83.17,1.83.18,5.34.08,5.77.01.66-.63.41-1.09.35-.53-.06-.95.09-1.28.49ZM182.39,85.05c-.5.03-1.19.02-1.65.05,0-.17-.03-.47,0-.7.04-.96.08-1.15.03-1.91-.02-.31-.11-.53-.38-.67-.35-.18-.5-.03-.66.33-.32.73-.2,1.5-.23,2.25,0,.24,0,.49,0,.74-.34,0-.76,0-1.17,0,0-1.02.08-3.47.07-4.89,0-.6-.02-2.04.04-2.64.05-.62-.01-1.44.01-2.06.02-.37-.03-.72.13-.78.33,0,.66.04.92.04.5,0,.99-.04,1.49-.04.75,0,1.42-.1,1.36,1.06.1,2.18.18,4.75.06,6.93-.04.69.04,2.01,0,2.3ZM183.17,74.01c-.94,0-2.02.08-2.95.08-.35,0-.98.07-1.18-.23-.1-.15-.24-.37-.4-.43-1.21-.4-1.65-.87-2.87-1.56-1.05-.65-1.77-.98-2.71-1.57-.34-.28-.78-.5-.97-.64-1.26-.58,2.28-.08,3.07-.17.43-.05.86-.16,1.3-.18.66-.03,1.27.13,1.84.49,1.03.65,2.08,1.27,3.13,1.9.79.47,1.92.84,2.61,1.46.39.35.1.49-.38.71-.15.07-.32.14-.49.14ZM192.12,72.4c-1.03.91-2.05,1.64-3.12,2.3-.18.11-.37.19-.59.05-.07-.05-.18-.05-.28-.05-.74-.01-1.49-.02-2.23-.02-.48,0-.96,0-1.43-.02-.11,0-.73.03-.83-.03-.13-.27.65-.39.74-.42,1.04-.39,1.67-1,2.49-1.72.25-.22.69-.49,1.01-.47.61.05,1.2.11,1.81.13.57.02,1.08.06,1.65.08.51.03,1.01.03.78.17ZM200.55,75.71c-.77-.02-1.53-.05-2.29-.06-.32,0-.62.03-.88-.17-1.07-.8-1.64-1.27-2.71-2.06-.04-.03-.86-.66-1.18-.98.01-.05,1.55.09,2.11.15.49.05,1.1.04,1.53.23.43.19.85.58,1.24.89.63.5,1.03.83,1.67,1.31.15.11,1.37.76.51.68Z"/>
    <path d="M189.29,60.14c-.13.28-.27.09-.53.21-.39.19-.42.46-.44.84-.04.84-.04,1.68-.08,2.52-.02.51.14,1.02.08,1.53,0,.06-.12.14-.2.17-.05.01-.16-.05-.18-.1-.07-.16-.14-.32-.14-.49-.01-.76,0-4.04.12-4.28-.17-.24-.56-.11-.81-.11-.88.01-2.05-.05-2.93-.03-.34,0-.37.29-.45.6-.09.31-.03.63-.07.95-.05.45-.03,1.89-.03,2.54.03.07.01.41-.01.51-.14.11-.22-.05-.29-.11-.32-.28-.28-1.09-.28-1.11.17-1.75.35-3.56.02-3.75-1.11-.48-2.22-1.19-3.41-1.7-.04.47-.09,1.12-.11,1.53-.03.88-.04,1.76-.07,2.64-.02.53-.08,1.06-.13,1.59-.02.17-.07.38-.3.33-.1-.03-.25-.48-.25-.55.04-2.01.08-4.02.12-6.03.01-.62.04-.6.66-.66.91-.08,1.11.05,2.02-.03.25-.02,1-.04,1.26,0,.07.01.54.15.77.23,1.71.58,1.81.98,3.74,1.59.13.04,1,.38,1.13.43.37.13.79.24.78.76ZM179.99,57.72c.59.41,1.67.89,2.3,1.18.58.26.99.39,1.55.76.28.19.93.12,1.28.15.68.06,1.37.06,2.06.07.23,0,.95.01,1.19,0-.11-.16-.7-.26-.82-.3-.64-.24-1.29-.47-1.92-.73-.88-.36-1.41-.69-2.28-1.07-.09-.04-.76-.2-.85-.2-.96-.05-1.57.06-2.5.15Z"/>
    <path d="M74.61,69.12c1.68.82,3.36,1.64,5.05,2.45.17.08.94.42,1.17.51.02-.18.01-.77.02-.89.02-.67.01-1.26.05-1.93.04-.79.22-1,.92-.66.29.14.34.95.37,1.25.1.99.1,1.17.18,2.16.02.23.21.61-.09.75.33.17.64.31.92.49.11.07.23.24.21.34-.03.21-.24.22-.42.19-.13-.02-.26-.06-.38-.12-.44-.19-.89-.36-1.31-.58-.35-.18-.65-.45-1-.63-.93-.48-1.88-.93-2.82-1.4-1.48-.74-2.96-1.5-4.45-2.24-.31-.15-1.57-.8-1.6-1.22.17-.2.33-.17.52-.06.16.09,1.89,1.21,2.66,1.58Z"/>
    <path d="M87.76,89.95c-.47,0-.87,0-1.27,0-.28,0-.48-.07-.51-.4-.01-.14,1.58-.23,2.51-.23.26,0,1.48-.12,1.74-.11.78.02,3.69-.1,4.5-.1.17,0,.37-.01.39.23.02.26-.16.31-.37.31-.96,0-1.91-.01-2.87.02-.97.04-1.94.13-2.92.2-.13,0-.39.02-.52.05-.15.94.14,1.86-.06,2.77-.38.11-.39.02-.43-.28-.05-.42-.08-.84-.11-1.25-.03-.38-.05-.76-.08-1.21Z"/>
    <path d="M153.3,85.06c.43.08.83.14,1.32.23-.44.39-.87.11-1.22.24q-.13.42.26.65c-.18.26-.45.27-.71.25-.36-.02-.73-.1-.89.44-.5-.7-1.17-.52-1.8-.54-.2,0-.49.13-.51-.17-.03-.31.29-.3.51-.32.27-.02.53,0,.86,0,.02-.17.04-.33.06-.57-.56.05-1.06.09-1.57.14.09-.46.19-.56.61-.6.3-.02.6,0,.93,0,.03-.16.07-.28.06-.38-.06-.56.05-1.09.3-1.6.06-.13.07-.29.08-.44.01-.17.06-.33.25-.29.09.02.21.17.22.27.05.59.07,1.18.1,1.77.01.27-.05.55.16.93.15-.71.04-1.31.07-1.91.22-.09.44-.2.66-.28.24-.09.4.04.38.31-.03.44-.08.87-.12,1.31-.01.17,0,.34,0,.56ZM152.27,85.3q-.17.62.34.73c-.1-.22-.19-.42-.34-.73Z"/>
    <path d="M157.26,89.03c.15-.45.4-.27.47-.24.15.08.31.23.36.57,0,.86-.01,1.71-.01,2.57,0,1.84-.03,3.67,0,5.51.01.97.1,1.94.14,2.91,0,.12-.09.3-.19.36-.15.08-.24-.05-.35-.18-.14-.24-.15-.84-.17-1.29-.03-.76-.05-1.89-.03-2.65-.1-2.3-.14-4.06-.21-6.23-.01-.41,0-.83,0-1.32Z"/>
    <path d="M103.96,89.6c.08-.84.15-1.63.23-2.52.45-.21.98-.11,1.51.02.07.02.14.17.15.27.05.54.08,1.09.13,1.67.24,0,.46,0,.68,0,.25,0,.5-.02.74,0,.09,0,.25.11.25.17,0,.11-.06.29-.15.32-.26.11-.54.34-.83.03-.04-.05-.15-.06-.22-.05-.67.09-1.35.19-2.04.6.49.14.86-.03,1.24-.03.37,0,.74,0,1.1,0,0,.04.01.08.02.12-.09.04-.18.09-.27.11-.75.16-1.49.31-2.24.47-.26.06-.52.22-.72-.07-.15-.21-.04-.73.18-.95.08-.08.18-.13.23-.17Z"/>
    <path d="M151.26,78.64c-.41.05-.79.09-1.17.14-.23.04-.42.03-.49-.28.51-.31,1.11-.17,1.71-.31.05-.54.1-1.09.15-1.63.01-.13.01-.27.04-.4.05-.31.26-.46.57-.39.14.03.23.12.4-.03.24-.23.45-.12.46.23.03.59.04,1.18.05,1.77,0,.11,0,.22.02.38.3.03.59.06.96.09-.2.25-.43.19-.6.26-.13.05-.33.08-.38.18-.2.38-.6.33-.91.43-.34.11-.68,0-.79-.44Z"/>
    <path d="M89.5,85.36c-.05-.26-.1-.45-.11-.65,0-.61.02-1.22,0-1.84-.02-.72-.07-1.45-.1-2.17-.01-.3,0-.6,0-.89.52-.1.6-.06.74.34.07.21.05.45.35.54.07.02.12.22.12.34,0,1.22-.02,2.44-.2,3.65-.03.18-.08.32-.28.37-.15.04-.28.16-.51.3Z"/>
    <path d="M68.02,47.57c.17.02.35.05.52.07.38.06.75.16,1.13.17,2.1.04,4.2.12,6.3-.06.49-.04.99-.02,1.49-.03.25,0,.49,0,.68.21-.09.32-.33.37-.58.38-.67.01-1.34.02-2.01.02-2.1,0-4.21.01-6.31-.01-.35,0-.71-.14-1.04-.26-.12-.04-.18-.23-.27-.36.03-.04.05-.09.08-.13Z"/>
    <path d="M78.4,50.77c-.08.36-.32.35-.55.35-.95,0-1.91.02-2.86.02-1.33,0-2.67,0-4-.02-.41,0-.83-.08-1.24-.14-.1-.01-.2-.1-.33-.17.42-.24.69-.21,1-.37.09-.04.22-.01.34,0,.89.1,1.93.25,2.82.33.8.07,1.56.07,2.36.09.39,0,.71-.23,1.1-.29.48-.07.93-.05,1.37.18Z"/>
    <path d="M165.05,102.43c-.51-.25-.38-.67-.49-1.04-.03.16-.07.31-.1.47-.03.17,0,.38-.24.4-.28.02-.25-.24-.28-.41-.03-.17-.04-.34-.05-.51-.06-.63-.11-1.25-.17-1.88,0-.08-.06-.18-.03-.22.08-.11.2-.2.3-.29.08.09.21.18.22.28.03.32,0,.64,0,.97.04,0,.08,0,.11,0,0-.42,0-.84,0-1.26,0-.19-.07-.41.21-.44.26-.03.29.21.35.38.04.11.04.22.06.38.05-.1.07-.18.12-.21.09-.05.22-.12.29-.09.07.03.13.19.12.28-.04.46-.11.91-.16,1.36-.05.42-.08.84-.14,1.25-.03.2-.09.39-.14.6Z"/>
    <path d="M164.8,91.57c.13.02.28.02.38.08.1.06.22.2.21.29-.06.78-.15,1.55-.23,2.32,0,.02-.02.03-.04.06-.21-.11-.43-.22-.7-.35-.04.22-.04.39-.1.54-.04.11-.16.24-.25.25-.08,0-.23-.14-.25-.23-.06-.3-.1-.6-.1-.91.01-.57.07-1.14.1-1.72.01-.22.01-.41.28-.5.09-.03.12-.21.2-.31.05-.07.13-.19.17-.19.1.01.24.08.26.16.05.15.04.33.06.49,0,.25,0,.5,0,.74,0-.25,0-.5,0-.75Z"/>
    <path d="M200.64,95.22c-.1-.2-.19-.38-.28-.58-.08.05-.15.08-.21.12q-.32.22-.53-.1s-.03-.08-.05-.1c-.65-.29-.45-.89-.49-1.4-.03-.29.21-.44.4-.58.19-.14.33.03.49.15.19.14.74.12.77.5.02.3.06.6.08.9,0,.07.01.21,0,.21-.44.11.29.7-.18.87Z"/>
    <path d="M90.95,71.15c0,.91,0,1.72-.02,2.54-.01.35-.08.36-.5.23-.04.03-.1.05-.13.09-.09.15-.19.35-.38.23-.11-.07-.18-.28-.19-.43-.06-.76-.08-1.52-.13-2.28-.01-.23.06-.38.31-.39.32,0,.64,0,1.05,0Z"/>
    <path d="M195.15,92.32c.05.13.14.27.14.4.01.53,0,1.07-.02,1.6,0,.2.07.47-.24.48-.31,0-.34-.23-.25-.65-.44.53-.77.32-1.06.08-.13-.11-.18-.31-.26-.48-.02-.05,0-.11,0-.17-.03-.49-.18-1.01.4-1.36q.29.08.43,1.35c.23-.46.12-1.07.85-1.26Z"/>
    <path d="M87.76,85.04c-.27-.12-.33-.3-.33-.49-.02-1.11-.04-2.21-.06-3.32-.02-1.01-.04-2.02-.06-3.03-.01-.46-.04-.91-.06-1.36.42-.19.47-.18.51.16.02.15.02.3.02.46,0,2.33.01,4.66.02,6.99,0,.18-.02.36-.04.6Z"/>
    <path d="M205.88,94.81c-.14.09-.29.18-.41.25,0-1.17-.48-.17-.64-.36-.24-.26.78-1.12.02-1.89-.08-.58.86.11.88.12.37.25.27,1.98.15,1.88Z"/>
    <path d="M90.71,67.68c-.26.07-.5.03-.69.26-.12.16-.38,0-.39-.22-.03-.61-.06-1.22-.05-1.83,0-.41.19-.57.6-.66.07-.01.13-.05.2-.08.36-.18.52-.11.5.26-.04.76-.11,1.51-.18,2.27Z"/>
    <path d="M183.46,89.31c0-.4,0-.68,0-.95.02-.27.06-.53.11-.79.01-.06.14-.14.21-.14.07,0,.17.11.18.18.03.82.05,1.64.05,2.46,0,.22-.12.39-.39.41-.26.02-.63-.13-.7-.39-.17-.67-.28-1.35-.2-2.04,0-.07.12-.17.18-.17.1,0,.25.06.27.13.05.18.06.37.06.56,0,.22-.06.45.21.74Z"/>
    <path d="M123.41,64.91c-.17.13-.33.28-.51.38-.1.05-.32.07-.35.02-.34-.51-.82-.96-.73-1.69.18-.15.48-.15.62-.47.11-.26.35-.06.5.13.04-.03.08-.07.13-.08.12-.03.28-.1.35-.05.08.05.12.22.11.34-.03.47-.08.94-.12,1.43Z"/>
    <path d="M112.33,52.35c.05.46.09.92.14,1.37.25.08.46.15.67.22-.13.37-.46.2-.68.39.26.17.65-.06.89.35-.38.05-.71.08-1.04.13-.36.05-.72.11-1.08.13-.08,0-.2-.09-.25-.17-.03-.04.05-.22.1-.23.63-.13.44-.68.55-1.07.06-.19,0-.42.02-.63.03-.42.13-.5.68-.49Z"/>
    <path d="M108.41,54.16c-.54.24-1.13.19-1.79.32.18.07.35.13.53.2-.04.07-.09.15-.13.22-.48,0-.96,0-1.44-.02-.04,0-.1-.11-.11-.17,0-.04.04-.12.08-.13.14-.06.28-.09.45-.15-.18-.18-.53-.15-.5-.53.16-.03.31-.06.51-.09.09-.42.18-.86.27-1.28.54.04.6.08.64.45.02.15,0,.31-.01.46-.07.56-.08.56.51.56.33,0,.67,0,1.01,0,0,.05,0,.11.01.16Z"/>
    <path d="M183.08,92.25c.31.16.57.28.81.44.07.05.13.19.13.29-.06.62-.13,1.24-.2,1.85-.04,0-.08.02-.12.03-.09-.14-.17-.27-.27-.44-.03.07-.05.12-.06.17-.03.17-.03.4-.27.34-.13-.03-.29-.2-.33-.33-.16-.54-.11-1.09.03-1.63.06-.23.18-.45.28-.71Z"/>
    <path d="M101.83,25.8c.36.2.39.43.39.69,0,.88,0,1.75,0,2.63,0,.38.03.77-.23,1.09-.06.08-.16.13-.24.2-.07-.1-.18-.19-.2-.3-.04-.24-.05-.5-.04-.74.05-.95.11-1.91.18-2.86.02-.22.08-.43.14-.71Z"/>
    <path d="M66.33,52.91c.36-.07.54.01.62.28.02.07.02.15.02.23,0,.94-.02,1.87-.03,2.81,0,.13-.01.28-.07.39-.04.08-.17.17-.25.16-.08-.01-.18-.14-.19-.23-.03-.51-.03-1.03-.05-1.54-.02-.69-.03-1.37-.05-2.1Z"/>
    <path d="M193.45,88.07c-.56-.11-.93-.29-1.09-.84-.17-.58.18-.84.56-1.15.09.03.2.06.31.1.41.13.49.23.44.65-.05.41-.14.81-.22,1.25Z"/>
    <path d="M187.95,87.27c0-.33,0-.54,0-.75.02-.31.15-.38.57-.36.28.01.36.14.31.41-.07.44-.01.86.1,1.29.1.35-.02.5-.4.59-.35.08-.48,0-.54-.39-.04-.3-.04-.61-.05-.79Z"/>
    <path d="M135.04,65.38c-.54.16-.67.08-.71-.4-.02-.32-.03-.64-.04-.92.07-.06.09-.1.12-.11.73-.31.81-.28,1.01.5.08.33.11.67.12,1.01,0,.12-.11.24-.17.37-.09-.09-.18-.17-.26-.26-.04-.04-.05-.1-.08-.18Z"/>
    <path d="M154.38,79.75c-1.59-.02-3.18-.32-4.77,0-.02-.05-.04-.09-.06-.14.09-.1.16-.25.27-.3.24-.1.51-.21.77-.19,1.12.07,2.24.18,3.35.28.17.02.33.1.49.15-.02.06-.03.13-.05.19Z"/>
    <path d="M216.89,94.63c-.02.34-.06.65-.41.82-.22.11-.41.07-.47-.14-.15-.45-.28-.9-.34-1.37-.05-.31.08-.39.42-.36.13,0,.26.06.39.06.24.01.33.15.35.37.02.21.04.42.07.62Z"/>
    <path d="M141.25,79.64c.29-.12.47.01.53.25.17.68.34,1.37.14,2.07-.03.1-.07.22-.15.29-.15.14-.31.14-.43-.05-.06-.09-.1-.21-.11-.32-.03-.7-.05-1.4-.06-2.1,0-.05.04-.1.06-.15Z"/>
    <path d="M144.77,81.89c.17-.15.33-.28.52-.44.1.08.25.13.29.23.2.54.34,1.1.17,1.68-.02.07-.02.17-.07.21-.11.1-.23.22-.36.23-.08,0-.23-.14-.27-.24-.1-.3-.18-.62-.24-.93-.04-.22-.03-.46-.04-.73Z"/>
    <path d="M174.15,57.08c-.04.34.04.62-.32.74-.09.03-.1.3-.17.45-.05.11-.16.29-.21.27-.13-.03-.31-.13-.33-.23-.13-.63-.14-1.25.3-1.79.23-.29.52-.26.66.08.07.17.06.37.07.47Z"/>
    <path d="M79.86,44.53c.16-.47,1.08-.18,1.29.15.1.29.17.51.25.74.07.21,0,.38-.21.37-.42-.01-.83-.07-1.24-.15-.08-.01-.12-.2-.18-.3.36-.19.06-.49.09-.81Z"/>
    <path d="M211.51,98.86c-.03-.74.5-.57.9-.2,0,.7,0,1.32-.03,1.94,0,.11-.2.26-.34.31-.18.07-.33-.05-.39-.24-.03-.07-.06-.15-.06-.22-.03-.51-.05-1.02-.08-1.6Z"/>
    <path d="M141.55,90.49c-.41-.03-.62-.19-.63-.45-.02-.67.02-1.33.05-2,0-.07.04-.16.1-.2.09-.06.2-.11.3-.1.07,0,.12.12.18.19.02.03.02.07.02.11,0,.8,0,1.59-.01,2.45Z"/>
    <path d="M222.7,103.62c-.27.28-.5.31-.72-.13-.07-.5-.16-1,.08-1.51.4-.16.49.17.79.33.05.03.08.14.06.21-.09.38.15.77-.22,1.1Z"/>
    <path d="M75.94,45.13c.08-.17.21-.31.19-.4-.05-.16-.13-.31.05-.38.14-.06.4-.09.48-.02.26.27.62.5.6.96-.01.23,0,.47-.27.57-.21.07-.66-.06-.78-.24-.1-.16-.18-.33-.27-.49Z"/>
    <path d="M213.98,93.74c.22-.07.43-.45.66-.2.2.21.52.48.37.89-.01.04-.03.07-.03.11,0,.17.02.33.03.54-.12.13-.31.33-.5.18-.21-.17-.36-.43-.45-.69-.08-.24-.05-.52-.07-.82Z"/>
    <path d="M129.79,65.08c-.23.07-.41.13-.6.18-.22.06-.41-.04-.39-.27.02-.42.08-.84.16-1.25.02-.1.22-.21.34-.22.25,0,.54.32.54.58,0,.34-.03.68-.05.98Z"/>
    <path d="M145.32,88.15c-.33-.17-.43-.41-.45-.68-.02-.25,0-.49,0-.74,0-.36.17-.56.52-.64.3-.07.41-.03.42.26.01.64-.25,1.2-.49,1.81Z"/>
    <path d="M98.87,56.41c.17.06.42.06.5.18.14.21.22.48.26.73.02.17-.15.22-.32.23-.26.02-.51.09-.77.09-.12,0-.31-.07-.36-.16-.26-.51.12-1.05.7-1.07Z"/>
    <path d="M210.97,93.28c.67-.18.74-.12.78.53.02.26.11.51.17.78-.18.25-.46.24-.71.21-.11-.02-.22-.19-.28-.31-.12-.28-.1-.67.03-1.21Z"/>
    <path d="M107.06,57.53c-.03.57-.04,1.06-.09,1.55-.02.13-.17.31-.3.35-.19.06-.3-.12-.35-.29-.07-.28-.13-.56-.16-.84-.05-.33.26-.48.42-.7.06-.08.36-.39.49-.07Z"/>
    <path d="M90.31,57.83c-.42-.36-.35-.8-.35-1.23.27-.07.51-.16.76-.2.09-.01.27.08.29.16.07.23.11.49.1.73,0,.12-.13.26-.24.33-.16.1-.35.14-.56.22Z"/>
    <path d="M85.12,45.38c.49-.69.89-.77,1.56-.3-.16.18.63,1-.22,1.38-.77.44-.74-.22-.93-.23-.41-.02-.16-.55-.41-.85Z"/>
    <path d="M195.3,78.25c-.18-.18-.35-.27-.38-.4-.08-.37-.12-.75-.15-1.12-.02-.28.21-.33.42-.36.2-.02.32.1.36.29.11.51.09,1.01-.25,1.6Z"/>
    <path d="M178.01,58.73c0,.09-.03.21-.09.26-.1.09-.24.2-.36.2-.08,0-.21-.16-.24-.27-.15-.54.01-1.05.24-1.54.05-.1.46.87.45,1.34Z"/>
    <path d="M91.96,29.96c.06-.13.23-.25.37-.29.06-.02.23.17.27.28.15.4.08.82.03,1.24-.03.19-.13.36-.32.33-.11-.01-.26-.16-.29-.27-.08-.25-.09-.52-.13-.78.02,0,.01-.37.07-.51Z"/>
    <path d="M213.51,94.95c-.64.14-.79.06-.88-.48-.05-.3-.07-.6-.1-.89.63-.24.79-.14.84.45.03.3.09.59.14.93Z"/>
    <path d="M198.45,78.05c.02-.21,0-.42.06-.62.03-.1.16-.25.25-.25.1,0,.24.13.28.23.17.52.13,1.05.02,1.57-.02.09-.17.2-.27.22-.06.01-.21-.11-.23-.19-.07-.31-.1-.16-.14-.48.01,0,.03-.48.04-.48Z"/>
    <path d="M186.75,80.32c-.04.19-.06.46-.15.71-.04.11-.22.22-.33.22-.11,0-.3-.14-.31-.24-.05-.32-.04-.65-.03-.97.01-.28.23-.55.38-.47.18.09.31.29.44.46.04.05,0,.15,0,.29Z"/>
    <path d="M188.37,91c.2.55.24,1.13.16,1.71-.03.19-.15.34-.33.31-.1-.02-.25-.19-.25-.3-.02-.49-.01-.98.02-1.47,0-.11.16-.21.25-.31.05.02.11.04.16.06Z"/>
    <path d="M194.67,80.72c0-.15,0-.3,0-.46,0-.31.23-.42.46-.49.19-.06.36.06.34.26-.04.41-.13.82-.2,1.23-.04.2-.18.32-.37.24-.1-.05-.19-.2-.22-.33-.04-.14,0-.3,0-.45,0,0,0,0-.01,0Z"/>
    <path d="M87.52,31.08c.45.42.46,1.18.07,1.5-.25.21-.53.15-.63-.16-.1-.31-.14-.63.16-.89.14-.12.01-.44.4-.44Z"/>
    <path d="M102.89,35.38c.06-.12.26-.23.4-.24.22,0,.25.21.24.38-.01.28-.04.57-.09.85-.04.21-.14.43-.4.4-.25-.02-.24-.25-.24-.45,0-.1,0-.19,0-.29-.01,0,0-.47.09-.67Z"/>
    <path d="M104.96,30.28c.02-.28-.02-.48.06-.61.08-.14.26-.29.41-.31.21-.03.26.18.24.36-.03.36-.06.72-.12,1.07-.02.1-.18.27-.23.25-.12-.03-.28-.14-.32-.25-.06-.19-.04-.41-.04-.51Z"/>
    <path d="M95.4,57.14c0,.49-.2.62-.64.4-.47-.23-.48-.25-.23-.72,0-.02.02-.03.03-.05.11-.18.08-.53.41-.43.27.08.4.34.42.63,0,.06,0,.11,0,.17Z"/>
    <path d="M118.92,53.23c-.08.36-.11.65-.21.91-.04.11-.25.27-.32.25-.13-.05-.32-.23-.3-.33.05-.37.16-.74.28-1.09.02-.07.27-.13.33-.09.11.09.17.26.22.35Z"/>
    <path d="M185.96,75.96h.57c0,.47.02.9.02,1.33,0,.2-.08.41-.33.37-.22-.04-.27-.23-.27-.44,0-.4,0-.79,0-1.25Z"/>
    <path d="M213.53,100.36c.1-.33.15-.59.26-.82.05-.1.24-.23.33-.21.1.03.23.21.23.32,0,.28-.07.56-.15.83-.05.18-.19.38-.41.27-.13-.06-.19-.27-.26-.39Z"/>
    <path d="M84.42,31.81c0-.27.04-.36.1-.49.06-.12.2-.31.28-.3.14.02.37.18.37.27-.01.33-.07.67-.18.97-.06.17-.38.12-.47-.06-.06-.13-.08-.29-.1-.39Z"/>
    <path d="M74.83,66.17c-.72.15-1,0-1.01-.57,0-.14.1-.35.21-.4.11-.05.35.02.44.12.2.24.38.52.36.86Z"/>
    <path d="M141.56,65.63c-.03.14-.07.39-.16.61-.03.08-.24.16-.31.13-.27-.12-.32-.39-.36-.66-.03-.23.02-.4.24-.52.35-.19.58-.06.59.45Z"/>
    <path d="M108.4,30.72c.03.43.08.87.1,1.3,0,.17-.05.37-.28.36-.25,0-.31-.18-.3-.4.01-.31.02-.61.02-.92,0-.26.13-.39.46-.34Z"/>
    <path d="M82.06,66.51c-.08.13-.24.25-.38.27-.07.01-.22-.18-.26-.3-.1-.3.02-.66.27-.81.08-.05.23-.08.31-.04.07.03.1.17.13.27.01.05,0,.11-.01.17,0,0,0,0,.01,0-.01.15.01.33-.06.44"/>
    <path d="M104.08,22.37c.05-.29.08-.59.17-.87.03-.1.22-.24.32-.22.12.01.31.17.31.27,0,.24-.02.52-.15.71-.08.14-.51.59-.65.12Z"/>
    <path d="M198.46,81.15c.31-.05.46.1.5.32.04.26.05.53.03.79,0,.08-.14.2-.22.21-.08,0-.21-.09-.25-.17-.17-.36-.31-.74-.06-1.15Z"/>
    <path d="M74.21,63.24c.05-.07.12-.25.26-.35.19-.14.41-.04.49.19.03.09.04.18.05.28.01.35-.16.59-.39.58-.24-.01-.42-.27-.4-.7Z"/>
    <path d="M177.98,60.92c.04.37.09.68.12.99.01.18-.07.35-.27.37-.22.02-.27-.16-.28-.34-.01-.17-.05-.34-.06-.51-.01-.29.06-.37.49-.52Z"/>
    <path d="M176.56,50.99c0,.09,0,.21-.03.31-.07.2-.34.25-.45.06-.11-.19-.16-.41-.19-.63-.03-.19.12-.36.3-.34.13.02.26.17.35.29.05.06.02.18.03.3Z"/>
    <path d="M185.14,61.34c-.06.26-.07.44-.14.59-.05.1-.18.19-.28.21-.06,0-.18-.13-.2-.22-.04-.16-.05-.34-.05-.51,0-.22.24-.48.37-.41.14.07.22.25.3.33Z"/>
    <path d="M84.29,56.11c.2.14.16.85-.36.94-.46-.17-.47-.2-.39-.51.11-.39.29-.51.74-.44Z"/>
    <path d="M185.34,63.39c0,.29-.12.46-.32.43-.26-.04-.32-.24-.3-.46.02-.19-.04-.45.27-.46.21,0,.34.2.35.5Z"/>
    <path d="M105.02,91.13c-.31.37-.65.49-1.02.54-.07,0-.21-.11-.23-.2-.02-.07.07-.21.15-.25.31-.14.64-.22,1.09-.1Z"/>
    <path d="M77.45,63.22c0,.26-.17.46-.35.42-.25-.06-.3-.28-.3-.49,0-.18.03-.4.29-.41.23,0,.37.18.36.47Z"/>
    <path d="M77.1,65.94c.01-.44.11-.56.34-.54.21.02.36.21.34.44-.02.21-.29.48-.45.41-.13-.07-.2-.25-.23-.3Z"/>
    <path d="M79.39,62.73c.32.07.44.24.42.47,0,.11-.1.25-.2.3-.1.05-.27.02-.36-.04-.06-.04-.07-.21-.05-.31.03-.14.12-.27.19-.42Z"/>
    <path d="M78.94,65.8c.06-.04.17-.18.28-.17.23,0,.37.18.37.42,0,.15,0,.32-.22.32-.2,0-.42-.24-.43-.56Z"/>
    <path d="M185.91,61.17c.14.18.32.32.29.38-.07.17-.19.35-.34.46-.1.08-.37-.21-.32-.37.05-.15.2-.26.37-.46Z"/>
    <path d="M81.28,63.21c.5-.1.65-.05.67.2.02.2-.05.39-.27.44-.23.06-.38-.19-.41-.64Z"/>
    <path d="M215.14,100.25c.15-.16.23-.32.36-.36.16-.05.3.07.26.26-.03.18-.01.43-.26.44-.1,0-.21-.19-.36-.34Z"/>
    <path d="M186.33,63.4c-.13.25-.28.26-.36.24-.12-.02-.29,0-.34-.22,0-.19.16-.31.23-.3.13.01.41-.06.47.28Z"/>
    <path d="M105.25,34.76c.29,0,.49,0,.47.28,0,.06-.12.17-.19.17-.28,0-.24-.21-.27-.45Z"/>
    <path d="M184.67,64.88c.1.18.2.29.22.41.01.07-.09.21-.17.23-.15.05-.33-.15-.29-.32.02-.09.11-.16.24-.32Z"/>
    <path d="M186.83,63.81c-.09-.17-.19-.27-.19-.38,0-.07.16-.21.2-.19.1.04.25.15.25.23,0,.09-.14.18-.27.34Z"/>
    <path d="M187.05,61.66c-.14.12-.22.22-.33.25-.04.01-.21-.15-.19-.19.03-.1.13-.21.22-.24.05-.02.16.09.3.19Z"/>
    <path d="M161.68,83.48c-.26.15-.43,0-.44-.23-.03-.52,0-1.05,0-1.56.31-.12.41.03.48.26.15.5.15,1-.03,1.49,0,0,0,.03,0,.03Z"/>
    <path d="M149.98,61.44h.08c.02-.23.03-.46.05-.71.43,0,.22.43.43.6.17-.14.09-.3.08-.46,0-.09.08-.18.13-.26.07.07.2.12.22.2.07.37.11.74.17,1.17.05-.21.09-.36.13-.51.04,0,.09,0,.13,0,.24.49.15,1.06.27,1.58.03.12-.06.26-.09.39-.04,0-.08,0-.13,0l-.24-.71s-.07.79-.09.79c0,.35-.67.14-1.02.04,0,0-.05.03-.1.07-.26.25-.41.24-.44-.08-.07-.75-.23-1.51-.03-2.26.03-.11.13-.2.2-.29.05.01.21.32.24.46Z"/>
    <path d="M150.72,58.36c-.09-.12-.19-.25-.32-.41-.13.16-.23.28-.34.41-.39-.09-.09-.46-.13-.71-.13-.77-.18-1.55-.26-2.33,0-.07.03-.14.06-.26.29-.23.15-.2.43-.05.19.12.43.06.55.4.04.44.01.61.06,1.05.05.47.1.95.19,1.41.05.24.06.41-.26.47Z"/>
    <path d="M169.47,62.69c-.05.52-.07.92-.13,1.31-.04.25-.29.35-.46.16-.14-.16-.27-.39-.28-.59-.01-.35.05-.72.12-1.07.03-.18.12-.38.37-.36.24.02.3.2.36.39.03.09.03.19.02.16Z"/>
    <path d="M169.28,66.79c-.01.27.01.45-.04.61-.04.12-.18.26-.29.27-.11.01-.31-.11-.33-.21-.12-.45-.14-.91.03-1.35.03-.08.17-.18.25-.18.09,0,.23.09.26.17.07.25.1.52.14.69Z"/>
    <path d="M95.59,73.83c0-.54.21-.71.57-.91.1-.05.03-.39.04-.6.01-.2-.03-.53.07-.59.3-.17.43-.56.86-.55.34.01.45.05.47.4.01.29,0,.57-.03.86-.05.44-.02.48.41.55.26.04.51.08.84.13-.25.27-.49.2-.7.22-.2.02-1.7.6-2.53.48Z"/>
    <path d="M103.1,71.33c.06-.05.17-.22.25-.21.11.02.26.15.3.27.2.52.04,1.86-.27,2.42-.24-.11-.48-.28-.78-.1-.1.06-.27.03-.39,0-.12-.03-.24-.1-.31-.2-.03-.04.06-.22.13-.27.19-.13.2-.3.2-.5,0-.4.01-.8.04-1.2.02-.2.04-.48.31-.48.17,0,.33.16.52.26Z"/>
    <path d="M102.37,65.62c.44-.21.86.11.8.55-.03.67.09,1.37-.15,2.09-.18-.11-.31-.24-.44-.24-.47,0-.56-.31-.6-.68-.02-.17-.06-.34-.08-.51q-.08-.65.46-1.21Z"/>
    <path d="M97.3,67.62q-.87.26-.86-.64c0-.47.01-.95.03-1.42,0-.11.06-.21.09-.31.66.05.74.13.75.69,0,.55,0,1.1,0,1.69Z"/>
    <path d="M110.59,80.34q-.87.27-.91-.66c0-.25-.02-.49-.01-.74,0-.23.25-.59.45-.58.25.02.5.12.73.23.05.02.06.21.04.31-.09.46-.19.92-.3,1.44Z"/>
    <path d="M109.94,73.11c.03-.46.04-.83.1-1.18.02-.12.15-.3.25-.31.12-.02.33.08.37.19.09.22.12.47.12.71,0,.24-.14.5-.1.73.05.31-.17.49-.24.73-.02.08-.21.14-.32.14-.06,0-.16-.16-.17-.25-.02-.28,0-.57,0-.75Z"/>
    <path d="M103.2,74.44c-.27.04-.54.1-.81.12-.08,0-.16-.12-.24-.18.07-.08.13-.19.22-.22.3-.12.58-.07.83.12,0,.05,0,.11.01.16Z"/>
    <path d="M124.69,39.37c-.03.21-.05.54-.12.85-.07.31-.31.37-.54.15-.07-.07-.1-.17-.18-.22-.3-.16-.42-.4-.43-.74-.01-.39.13-.71.36-1,.06-.07.25-.1.34-.07.5.19.59.36.57,1.02Z"/>
    <path d="M127.27,31.28c.06-.12.25-.22.4-.23.07,0,.23.21.23.32,0,.47-.04.95-.1,1.42-.01.1-.18.27-.24.26-.12-.03-.27-.15-.31-.26-.08-.25-.08-1.29.03-1.5Z"/>
    <path d="M159.56,78.98c-.2.03-.42.04-.45-.21-.02-.22.14-.34.35-.38.21-.03.42-.04.62-.06.21-.02.41-.05.66-.07,0-.56,0-1.08,0-1.61q0-.34.39-.51c0,.48.02.93.02,1.38.06,0,.11,0,.17,0,0-.27,0-.54,0-.82,0-.15,0-.31.02-.46.04-.24.2-.33.41-.22.16.09.31.21.49.33.04.75-.39,1.61.43,2.25-.14.08-.3.14-.39.25-.09.11-.09.29-.16.53-.12-.15-.19-.2-.21-.26-.18-.55-.23-.57-.74-.24-.57-.32-1.11-.15-1.65.11l.02-.02Z"/>
    <path d="M175.79,74.54c.28.11.2.35.18.57-.04.39-.07.79-.11,1.24-.1.11-.25.28-.41.44-.06.06-.17.12-.23.11-.07-.02-.12-.12-.18-.2-.02-.03-.02-.07-.02-.11,0-.57,0-1.14,0-1.66.05-.92.46-.45.77-.39Z"/>
    <path d="M159.54,78.99c1.03-.03,1.66.06,2.13.29-.19.2-.43.13-.64.16-.39.06-.79.08-1.19.13-.19.02-.39.08-.51-.13-.14-.25.12-.32.21-.47,0,0-.02.02-.02.02Z"/>
    <path d="M126.21,82.81c-.44-.48-.39-1.28.1-1.61.26-.17.51-.08.53.23.04.45.06.91.03,1.36-.02.32-.25.26-.46.16-.07-.05-.13-.09-.2-.14Z"/>
    <path d="M126.05,83.18l.91.73c-.55.06-.96-.23-1.4-.42-.11-.05-.18-.2-.27-.3.02-.04.04-.08.06-.11h.48c.07.04.15.08.22.12Z"/>
    <path d="M126.05,83.18c-.07-.04-.15-.08-.22-.11-.15-.07-.3-.14-.44-.22-.13-.08-.25-.17-.4-.27.22-.27.4-.19.59-.09.21.11.43.22.64.33.07.05.13.09.2.14.04.34-.21.21-.36.22Z"/>
    <path d="M97.35,46.41c-.13-.06-.31-.1-.38-.2-.22-.35-.48-.7-.57-1.09-.06-.24.13-.58.29-.81.11-.16.37-.3.56-.31.24,0,.2.74.23.97.03.34.05.68.07,1.02.02.29-.07.48-.19.42Z"/>
    <path d="M93.14,46.5c-.14.05-.3.11-.5.18-.04-.22-.08-.41-.11-.6-.02,0-.04,0-.06,0,0,.12.03.26-.01.37-.03.09-.14.21-.21.21-.07,0-.2-.12-.21-.2-.04-.19,0-.38-.02-.57-.03-.34-.07-.68-.1-1.02,0-.68,1.38-.1,1.43,0,.27.59.11,1.12-.2,1.64Z"/>
    <path d="M99.79,36.76c0,.58-.13.83-.36.8-.35-.04-.34-.36-.39-.61-.04-.18-.1-.38-.06-.56.03-.14.16-.33.28-.36.12-.03.34.09.4.2.1.19.11.43.13.52Z"/>
    <path d="M128.27,51.01c-.14.09-.29.27-.39.24-.12-.03-.24-.23-.27-.37-.06-.29-.06-.6-.1-.91-.06-.38.15-.59.44-.76.26-.16.44-.09.49.2.05.26.06.53.1.79.05.29-.16.85-.27.8Z"/>
    <path d="M123.75,49.24s.3-.02.38.06c.17.16.41.37.41.57,0,.37-.12.74-.24,1.1-.09.27-.37.23-.59.23-.25,0-.28-.21-.29-.41-.02-.23.16-1.28.33-1.55Z"/>
    <path d="M124.48,53.52c.01.15.04.3.03.46-.02.31-.29.43-.51.22-.14-.13-.27-.34-.28-.52,0-.31.07-.64.15-.94.02-.09.2-.19.29-.18.1.01.23.14.25.24.06.24.06.49.09.73,0,0-.02,0-.03,0Z"/>
    <path d="M133.84,49.81c.3-.09.51-.42.82-.23.36.22.08.56.1.84.01.23-.05.45-.34.52-.33.08-.53-.02-.58-.35-.03-.24,0-.49,0-.79Z"/>
    <path d="M138.11,50.78c-.42-.53-.48-1.01-.17-1.29.09-.09.26-.12.39-.11.05,0,.12.22.11.32-.04.37.04.78-.34,1.08Z"/>
    <path d="M157.9,50.06c.08-.23-.1-.71.24-.71.12.12.25.19.26.26.04.6.07,1.21-.22,1.79-.28.14-.61.15-.78,0-.23-.45-.26-.94-.23-1.44.01-.2.07-.39.31-.42.25-.02.32.16.36.36,0,.05.04.09.06.15Z"/>
    <path d="M157.33,47.21c-.27-.06-.2-.79-.25-1.14-.05-.39.05-.49.46-.5.13,0,.26,0,.39,0,.01,0,.03.02.12.09-.13.44.08,1.09-.07,1.56-.02.06-.49-.08-.65,0Z"/>
    <path d="M162.67,46.78c0,.07-.01.13-.02.18-.03.33-.2.57-.39.51-.27-.09-.32-.35-.28-.56.04-.23.17-.46.3-.65.1-.15.35-.06.38.14.02.13,0,.26,0,.38Z"/>
    <path d="M170.96,49.69c.11.12.29.22.3.34.03.25.02.53-.06.77-.05.17-.33.13-.47-.05-.22-.28-.16-.61.22-1.07Z"/>
    <path d="M162.32,50.18c.16.15.31.22.32.31.03.24.01.49-.02.73-.02.14-.1.33-.29.26-.12-.05-.24-.2-.26-.33-.03-.16.04-.33.08-.49.03-.12.08-.24.17-.48Z"/>
    <path d="M165.39,49.35c-.07.33-.12.55-.17.81-.44-.2-.39-.49-.33-.84.15,0,.29.01.5.03Z"/>
    <path d="M117.8,87.3q-.99.18-.97-.72c0-.21.05-.43,0-.63-.12-.48.24-.77.4-1.15.06-.15.3-.12.36.04.05.14.05.3.08.45.05.25.15.51.16.76.02.41-.02.82-.03,1.25Z"/>
    <path d="M116.85,77.86c.26-.08.56-.29.76-.21.34.13.09.5.1.77.01.55,0,1.1,0,1.63-.62.21-.68.17-.71-.35-.03-.57-.09-1.14-.15-1.84Z"/>
    <path d="M149.41,39.66c0-.72,0-.93,0-1.79,0-.4-.01-1.08.28-1.38.39-.23.87.03,1.03.37.11.97.12,2.79.12,2.79,0,0-.92.02-1.43,0Z"/>
    <path d="M150.79,46.37c.01.27.02.59.04.92.01.22,0,.63-.24.68-.11.02-.48.14-.69.01-.12-.07-.18-.32-.18-.49-.01-.32.05-.64.05-.97,0-.45-.01-.91-.06-1.35-.04-.36-.01-.44.34-.46.13,0,.26-.03.39-.03.42.01.35.3.35.72,0,.3,0,.61,0,.97Z"/>
    <path d="M109.9,41.26c.16-.31.34-.31.57-.05.42.48.38,1.43-.1,1.85-.11.1-.34.17-.46.12-.39-.16-.16-1.62,0-1.92Z"/>
    <path d="M109.51,45.99c.1-.14.19-.28.31-.41.07-.07.2-.17.25-.15.11.04.25.17.26.26,0,.47,0,.95-.05,1.42-.02.2-.25.26-.4.11-.09-.09-.16-.22-.19-.34-.08-.29-.12-.6-.18-.89Z"/>
    <path d="M114,30.51c.85-.1.96.02.77.74-.01.06-.01.13-.05.16-.1.1-.23.29-.31.27-.14-.03-.31-.18-.34-.3-.07-.27-.05-.56-.07-.87Z"/>
    <path d="M117.81,30.84c.63-.09.8.07.64.63-.06.21-.14.42-.2.64-.5-.18-.59-.46-.43-1.26Z"/>
    <path d="M110.9,30.54s.38.07.47.15c.23.21.04.52-.09.73-.15.25-.4.27-.53.02-.1-.19.11-.91.15-.91Z"/>
    <path d="M181.25,69.33c-.38-.44-.39-1.05-.03-1.46.14-.17.46-.14.51.09.06.27.03.56,0,.84-.03.25-.13.48-.48.53Z"/>
    <path d="M145.38,43.91c.53-.11.64-.03.64.46,0,.23-.02.46-.04.69-.01.17-.08.33-.26.3-.12-.02-.26-.15-.3-.27-.15-.38-.16-.78-.04-1.17Z"/>
    <path d="M143.99,44.71c0,.1,0,.12,0,.14-.01.18.06.43-.2.46-.24.03-.38-.16-.39-.39-.01-.22,0-.45.05-.67.02-.07.17-.16.26-.15.08,0,.2.11.23.19.05.16.04.33.05.42Z"/>
    <path d="M142.55,44.48c-.19.23-.4.23-.59.04-.04-.04-.02-.22.03-.24.24-.13.43-.06.56.19Z"/>
    <path d="M93.5,22.95c-.42-.19-.39-.57-.36-.92.02-.22.22-.31.42-.28.12.02.29.13.33.24.13.32-.05.72-.39.96Z"/>
    <path d="M96.4,22.42s0,.04,0,.06c0,.41-.16.66-.39.63-.22-.03-.41-.36-.4-.68.01-.26.3-.53.57-.5.08,0,.17.09.2.16.04.1.02.22.02.33,0,0,0,0,0,0Z"/>
    <path d="M91.46,22.98c-.49-.25-.64-.82-.31-1.15.07-.07.21-.13.29-.11.08.02.19.15.19.24,0,.35.06.71-.17,1.03Z"/>
    <path d="M153.73,48.27c-.02-.41-.05-.79-.06-1.16-.01-.44-.02-.88-.02-1.32,0-.55.11-.63.66-.5.15.15.09.19.13.38.04.72.06,1.77.08,2.5.02.55-.08.07-.79.1Z"/>
    <path d="M185.24,70.53c-.66-.02-.73-.18-.4-.82.51.08.52.1.4.82Z"/>
  </g>
  <g>
    <g>
      <path class="cls-1" d="M28.81,95.19c-8.58,0-13.7-5.51-13.7-14.74v-26.57c0-9.23,5.12-14.75,13.7-14.75,8.05,0,13.49,5.71,13.87,14.55,0,.91-.84,1.74-1.72,1.74h-5.07c-.95,0-1.81-.82-1.81-1.72-.26-5.67-2.3-6.84-5.27-6.84-2.52,0-5.09.91-5.09,7.63v25.34c0,6.72,2.57,7.63,5.09,7.63s5.27-.81,5.27-6.84v-8.5h-3.61c-.83,0-1.55-.76-1.55-1.63v-4.2c0-.8.75-1.55,1.55-1.55h10.4c.95,0,1.81.82,1.81,1.72v26.57c0,.9-.86,1.72-1.81,1.72h-3.84c-.89,0-1.72-.84-1.72-1.72v-.26c-1.77,1.61-3.94,2.42-6.49,2.42Z"/>
      <path class="cls-2" d="M28.81,39.64c8.21,0,13.02,5.94,13.37,14.07,0,.61-.61,1.22-1.22,1.22h-5.07c-.7,0-1.31-.61-1.31-1.22-.26-5.68-2.27-7.34-5.77-7.34-3.76,0-5.59,2.27-5.59,8.13v25.34c0,5.86,1.84,8.13,5.59,8.13,3.5,0,5.77-1.66,5.77-7.34v-9h-4.11c-.52,0-1.05-.52-1.05-1.14v-4.2c0-.52.53-1.05,1.05-1.05h10.4c.7,0,1.31.61,1.31,1.22v26.57c0,.61-.61,1.22-1.31,1.22h-3.84c-.61,0-1.22-.61-1.22-1.22v-1.49c-1.66,1.92-3.93,3.15-6.99,3.15-8.91,0-13.2-6.12-13.2-14.24v-26.57c0-8.13,4.28-14.25,13.2-14.25M28.81,38.64c-8.76,0-14.2,5.84-14.2,15.25v26.57c0,9.4,5.44,15.24,14.2,15.24,2.35,0,4.4-.66,6.12-1.96.32.86,1.17,1.52,2.09,1.52h3.84c1.23,0,2.31-1.04,2.31-2.22v-26.57c0-1.18-1.08-2.22-2.31-2.22h-10.4c-1.07,0-2.05.98-2.05,2.05v4.2c0,1.14.96,2.14,2.05,2.14h3.11v8c0,5.57-2.29,6.34-4.77,6.34-3.81,0-4.59-2.85-4.59-7.13v-25.34c0-5.92,1.84-7.13,4.59-7.13s4.52,1.07,4.77,6.39c0,1.14,1.08,2.18,2.31,2.18h5.07c1.16,0,2.22-1.06,2.22-2.22-.39-9.17-6.03-15.07-14.37-15.07h0Z"/>
    </g>
    <g>
      <path class="cls-1" d="M63.86,94.76c-.95,0-1.81-.82-1.81-1.72v-51.56c0-.9.86-1.72,1.81-1.72h17.22c.8,0,1.55.75,1.55,1.55v4.54c0,.87-.72,1.64-1.55,1.64h-10.42v17.7h5.97c.8,0,1.55.75,1.55,1.55v4.54c0,.87-.72,1.64-1.55,1.64h-5.97v14.12h10.42c.83,0,1.55.76,1.55,1.63v4.54c0,.8-.75,1.55-1.55,1.55h-17.22Z"/>
      <path class="cls-2" d="M81.07,40.25c.52,0,1.05.52,1.05,1.05v4.54c0,.61-.53,1.14-1.05,1.14h-10.92v18.7h6.47c.52,0,1.05.52,1.05,1.05v4.54c0,.61-.52,1.14-1.05,1.14h-6.47v15.12h10.92c.52,0,1.05.52,1.05,1.14v4.54c0,.52-.53,1.05-1.05,1.05h-17.22c-.7,0-1.31-.61-1.31-1.22v-51.56c0-.61.61-1.22,1.31-1.22h17.22M81.07,39.25h-17.22c-1.23,0-2.31,1.04-2.31,2.22v51.56c0,1.18,1.08,2.22,2.31,2.22h17.22c1.07,0,2.05-.98,2.05-2.05v-4.54c0-1.14-.96-2.14-2.05-2.14h-9.92v-13.12h5.47c1.09,0,2.05-1,2.05-2.14v-4.54c0-1.07-.98-2.05-2.05-2.05h-5.47v-16.7h9.92c1.09,0,2.05-1,2.05-2.14v-4.54c0-1.07-.98-2.05-2.05-2.05h0Z"/>
    </g>
    <g>
      <path class="cls-1" d="M112.54,95.19c-8.52,0-13.61-5.51-13.61-14.74v-26.57c0-9.23,5.09-14.75,13.61-14.75s13.61,5.51,13.61,14.75v26.57c0,9.23-5.09,14.74-13.61,14.74ZM112.54,46.87c-3,0-5.01,1.3-5.01,7.63v25.34c0,6.33,2,7.63,5.01,7.63s5.01-1.3,5.01-7.63v-25.34c0-6.33-2-7.63-5.01-7.63Z"/>
      <path class="cls-2" d="M112.54,39.64c9,0,13.11,6.12,13.11,14.25v26.57c0,8.13-4.11,14.24-13.11,14.24s-13.11-6.12-13.11-14.24v-26.57c0-8.13,4.11-14.25,13.11-14.25M112.54,87.96c3.85,0,5.51-2.27,5.51-8.13v-25.34c0-5.86-1.66-8.13-5.51-8.13s-5.51,2.27-5.51,8.13v25.34c0,5.86,1.66,8.13,5.51,8.13M112.54,38.64c-8.83,0-14.11,5.7-14.11,15.25v26.57c0,9.55,5.27,15.24,14.11,15.24s14.11-5.7,14.11-15.24v-26.57c0-9.55-5.27-15.25-14.11-15.25h0ZM112.54,86.96c-2.78,0-4.51-1.19-4.51-7.13v-25.34c0-5.94,1.72-7.13,4.51-7.13s4.51,1.19,4.51,7.13v25.34c0,5.94-1.72,7.13-4.51,7.13h0Z"/>
    </g>
    <g>
      <path class="cls-1" d="M173.29,94.76c-.89,0-1.72-.84-1.72-1.72v-28.84l-6.9,18.01c-.14.44-.59.76-1.08.76h-1.92c-.49,0-.93-.32-1.08-.78l-6.89-17.99v28.84c0,.89-.84,1.72-1.72,1.72h-5.07c-.95,0-1.81-.82-1.81-1.72v-51.56c0-.9.86-1.72,1.81-1.72h5.07c.55,0,1.05.28,1.45.81.03.04.05.08.07.12l9.14,24.44,9.14-24.44s.04-.09.07-.12c.4-.53.9-.81,1.45-.81h5.07c.95,0,1.81.82,1.81,1.72v51.56c0,.9-.86,1.72-1.81,1.72h-5.07Z"/>
      <path class="cls-2" d="M178.35,40.25c.7,0,1.31.61,1.31,1.22v51.56c0,.61-.61,1.22-1.31,1.22h-5.07c-.61,0-1.22-.61-1.22-1.22v-31.55l-7.87,20.54c-.09.26-.35.44-.61.44h-1.92c-.26,0-.52-.17-.61-.44l-7.87-20.54v31.55c0,.61-.61,1.22-1.22,1.22h-5.07c-.7,0-1.31-.61-1.31-1.22v-51.56c0-.61.61-1.22,1.31-1.22h5.07c.44,0,.79.26,1.05.61l9.61,25.69,9.61-25.69c.26-.35.61-.61,1.05-.61h5.07M178.35,39.25h-5.07c-.7,0-1.36.36-1.85,1.01-.06.08-.1.16-.14.25l-8.68,23.19-8.68-23.19c-.03-.09-.08-.17-.14-.25-.49-.65-1.15-1.01-1.85-1.01h-5.07c-1.23,0-2.31,1.04-2.31,2.22v51.56c0,1.18,1.08,2.22,2.31,2.22h5.07c1.16,0,2.22-1.06,2.22-2.22v-26.14l5.93,15.49c.21.62.85,1.08,1.55,1.08h1.92c.7,0,1.34-.46,1.56-1.12l5.92-15.45v26.14c0,1.16,1.06,2.22,2.22,2.22h5.07c1.23,0,2.31-1.04,2.31-2.22v-51.56c0-1.18-1.08-2.22-2.31-2.22h0Z"/>
    </g>
    <g>
      <path class="cls-1" d="M209.12,94.76c-.95,0-1.81-.82-1.81-1.72v-16.79l-10.81-34.62s-.02-.1-.02-.15c0-.9.86-1.72,1.81-1.72h5.16c.72,0,1.35.54,1.77,1.53l6.36,22.73,6.42-22.67c.44-1.04,1.07-1.59,1.79-1.59h5.16c.95,0,1.81.82,1.81,1.72,0,.05,0,.1-.02.15l-10.81,34.62v16.79c0,.89-.84,1.72-1.72,1.72h-5.07Z"/>
      <path class="cls-2" d="M224.94,40.25c.7,0,1.31.61,1.31,1.22l-10.84,34.69v16.87c0,.61-.61,1.22-1.22,1.22h-5.07c-.7,0-1.31-.61-1.31-1.22v-16.87l-10.84-34.69c0-.61.61-1.22,1.31-1.22h5.16c.61,0,1.05.61,1.31,1.22l6.82,24.38,6.9-24.38c.26-.61.7-1.22,1.31-1.22h5.16M224.94,39.25h-5.16c-.54,0-1.55.24-2.23,1.83-.02.04-.03.08-.04.12l-5.94,20.96-5.86-20.96s-.03-.08-.04-.12c-.68-1.59-1.69-1.83-2.23-1.83h-5.16c-1.23,0-2.31,1.04-2.31,2.22,0,.1.02.2.05.3l10.79,34.55v16.71c0,1.18,1.08,2.22,2.31,2.22h5.07c1.16,0,2.22-1.06,2.22-2.22v-16.71l10.79-34.55c.03-.1.05-.2.05-.3,0-1.18-1.08-2.22-2.31-2.22h0Z"/>
    </g>
    <g>
      <path class="cls-1" d="M255.01,95.19c-8.85,0-14.03-5.07-14.57-14.28,0-.93.86-1.75,1.81-1.75h5.07c.89,0,1.72.84,1.72,1.72.18,3.72.73,6.58,5.88,6.58,4.2,0,4.83-4.07,4.83-6.49,0-5.54-3.82-7.9-8.24-10.64-5.19-3.21-11.07-6.85-11.07-16.62,0-14.57,9.91-14.57,13.17-14.57,11.31,0,13,8.75,13,13.96,0,.89-.84,1.72-1.72,1.72h-4.72c-.95,0-1.81-.82-1.81-1.72-.09-4.3-1.56-6.14-4.92-6.14-3.08,0-4.39,1.84-4.39,6.14,0,5.55,3.75,7.84,8.08,10.48,5.26,3.21,11.23,6.86,11.23,17.31,0,9.36-4.62,14.31-13.35,14.31Z"/>
      <path class="cls-2" d="M253.61,39.64c11.45,0,12.5,9.35,12.5,13.46,0,.61-.61,1.22-1.22,1.22h-4.72c-.7,0-1.31-.61-1.31-1.22-.09-4.02-1.4-6.64-5.42-6.64s-4.89,2.71-4.89,6.64c0,12.85,19.31,9.18,19.31,27.79,0,9.79-4.98,13.81-12.85,13.81-7.17,0-13.46-3.41-14.07-13.81,0-.61.61-1.22,1.31-1.22h5.07c.61,0,1.22.61,1.22,1.22.17,3.58.7,7.08,6.38,7.08,5.33,0,5.33-5.94,5.33-6.99,0-12.67-19.31-9.7-19.31-27.26,0-6.29,1.49-14.07,12.67-14.07M253.61,38.64c-13.67,0-13.67,11.34-13.67,15.07,0,10.06,6.01,13.77,11.31,17.05,4.3,2.66,8.01,4.95,8.01,10.21,0,2.73-.75,5.99-4.33,5.99-4.72,0-5.21-2.54-5.38-6.13,0-1.11-1.06-2.17-2.22-2.17h-5.07c-1.23,0-2.31,1.04-2.31,2.22,0,.02,0,.04,0,.06.56,9.51,5.91,14.75,15.07,14.75s13.85-5.12,13.85-14.81c0-10.73-6.09-14.45-11.47-17.73-4.21-2.57-7.84-4.79-7.84-10.06,0-4.68,1.56-5.64,3.89-5.64,3.05,0,4.33,1.64,4.42,5.66,0,1.16,1.08,2.2,2.31,2.2h4.72c1.16,0,2.22-1.06,2.22-2.22,0-9.19-4.92-14.46-13.5-14.46h0Z"/>
    </g>
  </g>
</svg>