<svg id="Layer_1" data-name="Layer 1" xmlns="http://www.w3.org/2000/svg" viewBox="0 0 138 55"><defs><style>.cls-1{fill:#0f7ab3;}.cls-2{fill:#333;}</style></defs><path class="cls-1" d="M10.57,35.38h-.09A9.76,9.76,0,0,1,.73,25.63v-.08a9.75,9.75,0,0,1,9.75-9.75h.09a9.74,9.74,0,0,1,9.74,9.75v.08A9.75,9.75,0,0,1,10.57,35.38ZM9,20,6.8,26.12H9.1L6.75,32.68l7.61-8.54h-2.5L15.5,20Z"/><path class="cls-2" d="M24.35,17.39H28.9v6.14h5.83V17.39h4.55v16.4H34.73V27.56H28.9v6.23H24.35Z"/><path class="cls-2" d="M44.64,34.07A5.35,5.35,0,0,1,43,33.81a3.86,3.86,0,0,1-1.35-.75,3.47,3.47,0,0,1-.9-1.22,4,4,0,0,1-.33-1.68v-.05a3.93,3.93,0,0,1,.36-1.73,3.41,3.41,0,0,1,1-1.24,4.53,4.53,0,0,1,1.56-.75,7.21,7.21,0,0,1,2-.26,9.35,9.35,0,0,1,1.7.15,8.34,8.34,0,0,1,1.34.34v-.21a1.88,1.88,0,0,0-.62-1.52,2.85,2.85,0,0,0-1.91-.54,8.44,8.44,0,0,0-1.82.18,12.76,12.76,0,0,0-1.67.52l-.91-3.14a13.76,13.76,0,0,1,2.28-.71,13.26,13.26,0,0,1,2.85-.27,9.26,9.26,0,0,1,2.89.39,5,5,0,0,1,1.94,1.15,4.08,4.08,0,0,1,1,1.7,7.76,7.76,0,0,1,.32,2.33v7.29H48.36V32.48a5.13,5.13,0,0,1-1.56,1.16A4.93,4.93,0,0,1,44.64,34.07Zm1.59-2.79a2.27,2.27,0,0,0,1.59-.56,2,2,0,0,0,.61-1.52v-.59a4.87,4.87,0,0,0-1.73-.33,2.3,2.3,0,0,0-1.51.44,1.37,1.37,0,0,0-.53,1.13v0a1.25,1.25,0,0,0,.44,1A1.76,1.76,0,0,0,46.23,31.28Z"/><path class="cls-2" d="M54.07,21.11h4.48v2.56A5.21,5.21,0,0,1,60,21.61a3.62,3.62,0,0,1,2.53-.71v4.69h-.37a3.47,3.47,0,0,0-2.7,1,4.72,4.72,0,0,0-.93,3.23v3.94H54.07Z"/><path class="cls-2" d="M68.72,34.07a5.09,5.09,0,0,1-2.14-.46,5.15,5.15,0,0,1-1.78-1.3,6.43,6.43,0,0,1-1.22-2.06,7.83,7.83,0,0,1-.46-2.74v-.05a8,8,0,0,1,.45-2.77,6.21,6.21,0,0,1,1.21-2.09,5.37,5.37,0,0,1,1.78-1.31,5,5,0,0,1,2.13-.46,4.49,4.49,0,0,1,2.33.55,6.58,6.58,0,0,1,1.55,1.28V18.34L77,16.74V33.79H72.57l0-1.69A6.84,6.84,0,0,1,71,33.48,4.05,4.05,0,0,1,68.72,34.07Zm1.35-3.72a2.4,2.4,0,0,0,1-.22,2.42,2.42,0,0,0,.82-.59,2.92,2.92,0,0,0,.55-.92,3.28,3.28,0,0,0,.2-1.16v0a3.19,3.19,0,0,0-.2-1.15,2.72,2.72,0,0,0-.55-.9,2.32,2.32,0,0,0-.82-.6,2.49,2.49,0,0,0-2,0,2.61,2.61,0,0,0-.82.58,3,3,0,0,0-.56.91,3.07,3.07,0,0,0-.21,1.16v0a3.07,3.07,0,0,0,.21,1.16,3.15,3.15,0,0,0,.56.92,2.64,2.64,0,0,0,.82.59A2.4,2.4,0,0,0,70.07,30.35Z"/><path class="cls-2" d="M85,34.09a7.51,7.51,0,0,1-2.74-.48,6.45,6.45,0,0,1-2.15-1.33,5.83,5.83,0,0,1-1.4-2.08,6.9,6.9,0,0,1-.51-2.69v-.05a7.17,7.17,0,0,1,.47-2.59A6.34,6.34,0,0,1,80,22.77a6.05,6.05,0,0,1,2-1.42,6.23,6.23,0,0,1,2.58-.52,6.8,6.8,0,0,1,2.85.56,5.71,5.71,0,0,1,2,1.52,6.37,6.37,0,0,1,1.17,2.2A8.87,8.87,0,0,1,91,27.77v.44a3.59,3.59,0,0,1,0,.47H82.48a2.63,2.63,0,0,0,1,1.57,2.92,2.92,0,0,0,1.77.52,3.43,3.43,0,0,0,1.47-.31,4.7,4.7,0,0,0,1.34-1l2.46,2a6.85,6.85,0,0,1-2.26,1.87A6.92,6.92,0,0,1,85,34.09Zm1.82-7.68a2.81,2.81,0,0,0-.7-1.68,2,2,0,0,0-1.5-.62,1.87,1.87,0,0,0-1.45.62,3.26,3.26,0,0,0-.75,1.68Z"/><path class="cls-2" d="M92.16,21.11h4.47v1.78a9.62,9.62,0,0,1,.68-.77,3.79,3.79,0,0,1,.83-.65,4.73,4.73,0,0,1,1-.46,4,4,0,0,1,1.22-.18,4.17,4.17,0,0,1,3.2,1.24,4.88,4.88,0,0,1,1.14,3.43v8.29h-4.48V26.92a2.32,2.32,0,0,0-.48-1.59,1.65,1.65,0,0,0-1.28-.54,1.79,1.79,0,0,0-1.33.54,2.24,2.24,0,0,0-.52,1.59v6.87H92.16Z"/><path class="cls-2" d="M112,30.85l5.86-6.22h-5.65V21.11h11.55v2.94l-5.88,6.22h5.88v3.52H112Z"/><path class="cls-2" d="M131,34.09a7.54,7.54,0,0,1-2.74-.48,6.4,6.4,0,0,1-2.14-1.33,6,6,0,0,1-1.41-2.08,6.89,6.89,0,0,1-.5-2.69v-.05a7,7,0,0,1,.47-2.59,6.34,6.34,0,0,1,1.32-2.1,6,6,0,0,1,2-1.42,6.21,6.21,0,0,1,2.57-.52,6.74,6.74,0,0,1,2.85.56,5.62,5.62,0,0,1,2,1.52,6.2,6.2,0,0,1,1.17,2.2,8.87,8.87,0,0,1,.39,2.66v.44c0,.16,0,.32,0,.47h-8.49a2.64,2.64,0,0,0,1,1.57,2.88,2.88,0,0,0,1.77.52,3.35,3.35,0,0,0,1.46-.31,4.74,4.74,0,0,0,1.35-1l2.46,2a6.85,6.85,0,0,1-2.26,1.87A6.93,6.93,0,0,1,131,34.09Zm1.83-7.68a2.87,2.87,0,0,0-.7-1.68,2,2,0,0,0-1.5-.62,1.9,1.9,0,0,0-1.46.62,3.43,3.43,0,0,0-.75,1.68Z"/><polygon class="cls-2" points="110.64 23.32 110.64 19.69 106.02 21.34 106.02 24.97 110.64 23.32"/><polygon class="cls-2" points="106.02 26.29 106.02 33.79 110.64 33.79 110.64 24.64 106.02 26.29"/></svg>