<?xml version="1.0" encoding="utf-8"?>
<!-- Generator: Adobe Illustrator 24.2.1, SVG Export Plug-In . SVG Version: 6.00 Build 0)  -->
<svg version="1.1" id="Layer_1" xmlns="http://www.w3.org/2000/svg" xmlns:xlink="http://www.w3.org/1999/xlink" x="0px" y="0px"
	 viewBox="0 0 514 82" style="enable-background:new 0 0 514 82;" xml:space="preserve">
<style type="text/css">
	.st0{fill:#0F7AB3;}
	.st1{fill:#333333;}
</style>
<path class="st0" d="M54.9,77h-24c-13.3,0-24-10.7-24-24V29c0-13.3,10.7-24,24-24h24c13.3,0,24,10.7,24,24v24
	C78.9,66.3,68.1,77,54.9,77z M37.1,20.6L29.2,43h8.5L29,67.1l28-31.4h-9.2l13.4-15.1L37.1,20.6z"/>
<path class="st1" d="M93.7,10.8h16.7v22.6h21.4V10.8h16.7v60.3h-16.7V48.2h-21.4v22.9H93.7V10.8z"/>
<path class="st1" d="M168.3,72.2c-2.1,0-4.2-0.3-6.2-0.9c-1.8-0.6-3.5-1.5-5-2.8c-1.4-1.2-2.6-2.8-3.3-4.5c-0.8-2-1.3-4.1-1.2-6.2
	v-0.2c0-2.2,0.4-4.4,1.3-6.4c0.9-1.8,2.1-3.4,3.7-4.6c1.7-1.3,3.7-2.2,5.7-2.8c2.4-0.7,5-1,7.5-1c2.1,0,4.2,0.2,6.2,0.6
	c1.7,0.3,3.3,0.7,5,1.2V44c0.1-2.1-0.7-4.2-2.3-5.6c-1.5-1.3-3.9-2-7-2c-2.3,0-4.5,0.2-6.7,0.7c-2.1,0.5-4.1,1.1-6.1,1.9l-3.4-11.6
	c2.7-1.1,5.5-2,8.4-2.6c3.4-0.7,7-1,10.5-1c3.6-0.1,7.2,0.4,10.6,1.5c2.7,0.8,5.1,2.3,7.1,4.2c1.8,1.7,3.1,3.9,3.8,6.2
	c0.8,2.8,1.2,5.7,1.2,8.6v26.8H182v-4.8C178.5,70.2,173.5,72.4,168.3,72.2L168.3,72.2z M174.2,61.9c2.1,0.1,4.2-0.6,5.9-2.1
	c1.5-1.5,2.3-3.5,2.2-5.6v-2.2c-0.9-0.4-1.9-0.7-2.9-0.9c-1.1-0.2-2.3-0.3-3.5-0.3c-2-0.1-3.9,0.4-5.6,1.6c-1.3,1-2,2.6-1.9,4.2v0.2
	c-0.1,1.4,0.5,2.8,1.6,3.8C171.2,61.5,172.7,62,174.2,61.9L174.2,61.9z"/>
<path class="st1" d="M203,24.5h16.5v9.4c1.2-2.9,3-5.5,5.4-7.6c2.3-1.9,5.4-2.8,9.3-2.6V41h-1.4c-4.3,0-7.6,1.3-9.9,3.8
	c-2.3,2.5-3.5,6.5-3.5,11.9v14.5H203V24.5z"/>
<path class="st1" d="M256.9,72.2c-2.7,0-5.4-0.6-7.9-1.7c-2.5-1.1-4.7-2.7-6.5-4.8c-2-2.2-3.5-4.8-4.5-7.6
	c-1.2-3.2-1.7-6.6-1.7-10.1v-0.2c0-3.5,0.5-6.9,1.7-10.2c1-2.8,2.5-5.4,4.5-7.7c1.8-2,4-3.7,6.5-4.8c2.5-1.1,5.1-1.7,7.8-1.7
	c3-0.1,6,0.6,8.6,2c2.1,1.3,4,2.8,5.7,4.7V14.3l16.5-5.9v62.7H271l0.1-6.2c-1.6,2-3.5,3.7-5.7,5.1C262.9,71.6,259.9,72.3,256.9,72.2
	z M261.9,58.5c1.3,0,2.5-0.3,3.7-0.8c1.1-0.5,2.2-1.3,3-2.2c0.9-1,1.6-2.1,2-3.4c0.5-1.4,0.7-2.8,0.7-4.3v-0.2
	c0-1.4-0.2-2.9-0.7-4.2c-0.5-1.2-1.1-2.3-2-3.3c-0.8-0.9-1.9-1.7-3-2.2c-2.4-1-5-1-7.4,0c-1.1,0.5-2.2,1.2-3,2.2
	c-0.9,1-1.6,2.1-2.1,3.3c-0.5,1.4-0.8,2.8-0.8,4.3v0.2c0,1.5,0.2,2.9,0.8,4.3c0.5,1.2,1.2,2.4,2.1,3.4
	C256.9,57.4,259.4,58.5,261.9,58.5L261.9,58.5z"/>
<path class="st1" d="M316.7,72.3c-3.4,0-6.9-0.6-10.1-1.8c-2.9-1.1-5.6-2.8-7.9-4.9c-2.2-2.1-4-4.7-5.2-7.6
	c-1.3-3.1-1.9-6.5-1.9-9.9v-0.2c0-3.3,0.6-6.5,1.7-9.5c1.1-2.9,2.7-5.5,4.9-7.8c2.1-2.2,4.7-4,7.5-5.2c3-1.3,6.2-1.9,9.5-1.9
	c3.6-0.1,7.2,0.6,10.5,2.1c2.8,1.3,5.3,3.2,7.3,5.6c2,2.4,3.4,5.1,4.3,8.1c1,3.2,1.4,6.5,1.4,9.8v1.6c0,0.6,0,1.1-0.1,1.7h-31.2
	c0.5,2.3,1.7,4.4,3.6,5.8c1.9,1.3,4.2,2,6.5,1.9c1.9,0,3.7-0.4,5.4-1.1c1.9-0.9,3.5-2.1,5-3.6l9,7.5c-2.2,2.9-5.1,5.2-8.3,6.9
	C324.9,71.5,320.9,72.4,316.7,72.3z M323.4,44c-0.2-2.3-1.1-4.4-2.6-6.2c-1.4-1.5-3.4-2.4-5.5-2.3c-2-0.1-4,0.8-5.3,2.3
	c-1.5,1.7-2.4,3.9-2.8,6.2H323.4z"/>
<path class="st1" d="M343.1,24.5h16.5v6.6c0.8-1,1.6-1.9,2.5-2.8c0.9-0.9,1.9-1.7,3.1-2.4c1.2-0.7,2.4-1.3,3.7-1.7
	c1.5-0.4,3-0.7,4.5-0.6c5,0,8.9,1.5,11.7,4.6c2.8,3,4.2,7.2,4.2,12.6v30.5h-16.5V45.9c0-2.6-0.6-4.5-1.8-5.9c-1.2-1.3-2.9-2.1-4.7-2
	c-1.8-0.1-3.6,0.7-4.9,2c-1.3,1.3-1.9,3.3-1.9,5.9v25.2h-16.4V24.5z"/>
<path class="st1" d="M415.9,60.4l21.5-22.9h-20.8V24.5h42.5v10.8l-21.6,22.9h21.6v12.9h-43.3V60.4z"/>
<path class="st1" d="M485.9,72.3c-3.4,0-6.9-0.6-10.1-1.8c-2.9-1.1-5.6-2.8-7.9-4.9c-2.2-2.1-4-4.7-5.2-7.6
	c-1.3-3.1-1.9-6.5-1.9-9.9v-0.2c0-3.3,0.6-6.5,1.7-9.5c1.1-2.9,2.8-5.5,4.9-7.8c2.1-2.2,4.6-4,7.4-5.2c3-1.3,6.2-1.9,9.5-1.9
	c3.6-0.1,7.2,0.6,10.5,2.1c2.8,1.3,5.3,3.2,7.3,5.6c2,2.4,3.4,5.1,4.3,8.1c0.9,3.2,1.4,6.5,1.4,9.8v1.6c0,0.6,0,1.1-0.1,1.7h-31.2
	c0.4,2.3,1.7,4.4,3.6,5.8c1.9,1.3,4.2,2,6.5,1.9c1.9,0,3.7-0.4,5.4-1.1c1.9-0.9,3.5-2.1,5-3.6l9,7.5c-2.2,2.9-5.1,5.2-8.3,6.9
	C494.2,71.5,490.1,72.4,485.9,72.3z M492.7,44c-0.2-2.3-1.1-4.4-2.6-6.2c-1.4-1.5-3.4-2.4-5.5-2.3c-2-0.1-4,0.8-5.3,2.3
	c-1.5,1.7-2.4,3.9-2.8,6.2H492.7z"/>
<polygon class="st1" points="411.1,32.7 411.1,19.3 394.1,25.4 394.1,38.7 "/>
<polygon class="st1" points="394.1,43.6 394.1,71.2 411.1,71.2 411.1,37.5 "/>
</svg>
