<?xml version="1.0" encoding="UTF-8" standalone="no"?>
<!-- Created with Inkscape (http://www.inkscape.org/) -->

<svg
   version="1.1"
   id="svg2"
   width="316.77206"
   height="71.82"
   viewBox="0 0 316.77206 71.82"
   sodipodi:docname="Logo of Hurricane Electric.svg"
   inkscape:version="1.2.2 (b0a8486541, 2022-12-01)"
   xmlns:inkscape="http://www.inkscape.org/namespaces/inkscape"
   xmlns:sodipodi="http://sodipodi.sourceforge.net/DTD/sodipodi-0.dtd"
   xmlns="http://www.w3.org/2000/svg"
   xmlns:svg="http://www.w3.org/2000/svg">
  <defs
     id="defs6">
    <clipPath
       clipPathUnits="userSpaceOnUse"
       id="clipPath22">
      <path
         d="M 0,0 H 238 V 54 H 0 Z"
         id="path20" />
    </clipPath>
    <clipPath
       clipPathUnits="userSpaceOnUse"
       id="clipPath90">
      <path
         d="M 0,0 H 238 V 54 H 0 Z"
         id="path88" />
    </clipPath>
    <clipPath
       clipPathUnits="userSpaceOnUse"
       id="clipPath118">
      <path
         d="M 0,0 H 238 V 54 H 0 Z"
         id="path116" />
    </clipPath>
    <clipPath
       clipPathUnits="userSpaceOnUse"
       id="clipPath138">
      <path
         d="M 0,0 H 238 V 54 H 0 Z"
         id="path136" />
    </clipPath>
    <clipPath
       clipPathUnits="userSpaceOnUse"
       id="clipPath162">
      <path
         d="M 0,0 H 238 V 54 H 0 Z"
         id="path160" />
    </clipPath>
    <clipPath
       clipPathUnits="userSpaceOnUse"
       id="clipPath182">
      <path
         d="M 0,0 H 238 V 54 H 0 Z"
         id="path180" />
    </clipPath>
    <clipPath
       clipPathUnits="userSpaceOnUse"
       id="clipPath196">
      <path
         d="M 0,0 H 238 V 54 H 0 Z"
         id="path194" />
    </clipPath>
  </defs>
  <sodipodi:namedview
     id="namedview4"
     pagecolor="#ffffff"
     bordercolor="#000000"
     borderopacity="0.25"
     inkscape:showpageshadow="2"
     inkscape:pageopacity="0.0"
     inkscape:pagecheckerboard="0"
     inkscape:deskcolor="#d1d1d1"
     showgrid="false"
     inkscape:zoom="5.3158494"
     inkscape:cx="57.375591"
     inkscape:cy="35.742171"
     inkscape:window-width="1866"
     inkscape:window-height="1011"
     inkscape:window-x="0"
     inkscape:window-y="0"
     inkscape:window-maximized="1"
     inkscape:current-layer="g10">
    <inkscape:page
       x="0"
       y="0"
       id="page8"
       width="316.77206"
       height="71.82" />
  </sodipodi:namedview>
  <g
     id="g10"
     inkscape:groupmode="layer"
     inkscape:label="Page 1"
     transform="matrix(1.3333333,0,0,1.3333333,0,2.1288333e-6)">
    <g
       id="g12">
      <g
         id="g14">
        <g
           id="g16">
          <g
             id="g18"
             clip-path="url(#clipPath22)">
            <g
               id="g24">
              <path
                 d="M 0,26.934 C 0,12.059 12.059,0.004 26.934,0 c 14.875,0.004 26.929,12.059 26.929,26.934 0,14.875 -12.054,26.929 -26.929,26.929 v -3.59 c 6.449,0 12.273,-2.609 16.504,-6.835 4.226,-4.231 6.835,-10.055 6.835,-16.504 0,-6.454 -2.609,-12.278 -6.835,-16.508 C 39.207,6.199 33.383,3.59 26.934,3.59 20.48,3.59 14.656,6.199 10.426,10.426 6.199,14.656 3.59,20.48 3.59,26.934 c 0,6.449 2.609,12.273 6.836,16.504 4.23,4.226 10.054,6.835 16.508,6.835 v 3.59 C 12.059,53.863 0,41.809 0,26.934"
                 style="fill:#313a90;fill-opacity:1;fill-rule:nonzero;stroke:none"
                 id="path26" />
              <path
                 d="m 18.871,21.234 h 8.871 v -5.429 c 0,-0.965 -0.062,-1.602 -0.187,-1.907 -0.094,-0.234 -0.289,-0.433 -0.59,-0.601 -0.406,-0.223 -0.836,-0.332 -1.289,-0.332 H 25 v -0.547 h 8.172 v 0.547 h -0.68 c -0.449,0 -0.879,0.105 -1.285,0.32 -0.301,0.149 -0.504,0.375 -0.613,0.676 -0.11,0.301 -0.164,0.914 -0.164,1.844 v 9.472 c 0,0 0.011,2.602 0,1.938 -0.008,-0.66 -0.067,4.187 -0.067,4.187 h -2.621 v -9.121 h -8.871 v 5.731 c 0,0.961 0.059,1.597 0.184,1.906 0.09,0.23 0.289,0.43 0.59,0.598 0.402,0.226 0.828,0.336 1.277,0.336 h 0.687 v 0.55 h -8.171 v -0.55 h 0.679 c 0.793,0 1.367,-0.227 1.723,-0.684 0.226,-0.297 0.34,-1.016 0.34,-2.156 V 15.805 c 0,-0.965 -0.063,-1.602 -0.184,-1.907 -0.094,-0.234 -0.289,-0.433 -0.578,-0.601 -0.414,-0.223 -0.852,-0.332 -1.301,-0.332 h -0.679 v -0.547 h 8.171 v 0.547 h -0.687 c -0.449,0 -0.875,0.105 -1.277,0.32 -0.293,0.149 -0.497,0.375 -0.606,0.676 -0.113,0.301 -0.168,0.914 -0.168,1.844 z"
                 style="fill:#231f20;fill-opacity:1;fill-rule:nonzero;stroke:none"
                 id="path28" />
              <path
                 d="m 30.449,22.312 v 7.422 h 4.086 c 1.067,0 1.781,-0.16 2.141,-0.484 0.476,-0.426 0.742,-1.18 0.801,-2.254 h 0.546 v 6.625 H 37.477 C 37.348,32.695 37.219,32.098 37.09,31.836 36.922,31.508 36.652,31.25 36.273,31.062 35.898,30.875 35.316,30.781 34.535,30.781 h -4.086 v 6.211 c 0,0.442 0.008,0.793 0.031,1.051 0.016,0.23 0.043,0.387 0.079,0.473 0.078,0.179 0.207,0.324 0.39,0.429 0.188,0.106 0.539,0.16 1.063,0.16 h 3.207 c 1.07,0 1.843,-0.074 2.328,-0.222 0.484,-0.149 0.949,-0.438 1.394,-0.875 0.579,-0.57 1.168,-1.434 1.774,-2.59 h 0.644 l -1.644,4.781 H 25.016 v -0.547 h 0.679 c 0.453,0 0.879,-0.105 1.285,-0.324 0.301,-0.148 0.508,-0.375 0.614,-0.672 0.051,-0.144 0.09,-0.355 0.117,-0.636 0.008,-0.082 0.016,-0.168 0.023,-0.262 0,-0.055 0,-14.207 0,-16.285 v -0.258 h 11.934 l 0.199,4.137 H 39.219 C 39.023,24.379 38.812,23.711 38.578,23.348 38.34,22.984 37.992,22.707 37.535,22.516 37.164,22.379 36.516,22.312 35.586,22.312 Z"
                 style="fill:#231f20;fill-opacity:1;fill-rule:nonzero;stroke:none"
                 id="path30" />
              <path
                 d="m 64.211,20.652 h 4.805 V 17.68 c 0,-0.528 -0.036,-0.871 -0.102,-1.039 -0.051,-0.125 -0.156,-0.235 -0.32,-0.325 -0.223,-0.121 -0.453,-0.179 -0.699,-0.179 h -0.368 v -0.289 h 4.446 v 0.289 h -0.368 c -0.246,0 -0.476,0.058 -0.699,0.172 -0.164,0.082 -0.273,0.203 -0.332,0.367 -0.058,0.164 -0.09,0.5 -0.09,1.004 v 6.722 c 0,0.52 0.036,0.868 0.102,1.032 0.051,0.128 0.156,0.238 0.312,0.328 0.227,0.121 0.461,0.183 0.707,0.183 h 0.368 v 0.285 h -4.446 v -0.285 h 0.368 c 0.425,0 0.734,-0.125 0.929,-0.375 0.125,-0.16 0.192,-0.55 0.192,-1.168 v -3.175 h -4.805 v 3.175 c 0,0.52 0.031,0.868 0.098,1.032 0.05,0.128 0.16,0.238 0.32,0.328 0.219,0.121 0.449,0.183 0.695,0.183 h 0.375 V 26.23 H 61.25 v -0.285 h 0.371 c 0.43,0 0.738,-0.125 0.934,-0.375 0.125,-0.16 0.183,-0.55 0.183,-1.168 V 17.68 c 0,-0.528 -0.031,-0.871 -0.097,-1.039 -0.051,-0.125 -0.157,-0.235 -0.317,-0.325 -0.222,-0.121 -0.461,-0.179 -0.703,-0.179 H 61.25 v -0.289 h 4.449 v 0.289 h -0.375 c -0.246,0 -0.476,0.058 -0.695,0.172 -0.156,0.082 -0.266,0.203 -0.328,0.367 -0.063,0.164 -0.09,0.5 -0.09,1.004 z"
                 style="fill:#231f20;fill-opacity:1;fill-rule:nonzero;stroke:none"
                 id="path32" />
              <path
                 d="m 80.18,16.137 v -0.289 h 3.66 v 0.289 h -0.391 c -0.406,0 -0.719,0.168 -0.937,0.511 -0.11,0.157 -0.16,0.524 -0.16,1.102 v 4.203 c 0,1.039 -0.106,1.848 -0.313,2.418 -0.207,0.574 -0.609,1.067 -1.215,1.477 -0.605,0.41 -1.429,0.617 -2.469,0.617 -1.132,0 -1.996,-0.199 -2.582,-0.59 -0.585,-0.395 -1,-0.922 -1.246,-1.586 -0.164,-0.453 -0.246,-1.305 -0.246,-2.555 v -4.058 c 0,-0.633 -0.086,-1.047 -0.261,-1.246 -0.172,-0.196 -0.454,-0.293 -0.84,-0.293 h -0.387 v -0.289 h 4.445 v 0.289 h -0.39 c -0.422,0 -0.727,0.133 -0.907,0.402 -0.125,0.18 -0.187,0.563 -0.187,1.137 v 4.523 c 0,0.403 0.035,0.863 0.109,1.383 0.075,0.52 0.207,0.926 0.403,1.215 0.195,0.293 0.472,0.531 0.839,0.719 0.364,0.191 0.813,0.285 1.344,0.285 0.68,0 1.289,-0.149 1.824,-0.446 0.536,-0.293 0.903,-0.671 1.102,-1.132 0.195,-0.465 0.293,-1.246 0.293,-2.348 v -4.199 c 0,-0.641 -0.07,-1.043 -0.211,-1.207 -0.199,-0.223 -0.496,-0.332 -0.887,-0.332 z"
                 style="fill:#231f20;fill-opacity:1;fill-rule:nonzero;stroke:none"
                 id="path34" />
              <path
                 d="m 87.617,16.602 c 0.496,-0.11 0.891,-0.161 1.18,-0.161 0.656,0 1.187,0.204 1.586,0.606 0.398,0.402 0.597,0.93 0.597,1.574 0,0.66 -0.246,1.207 -0.742,1.633 -0.492,0.43 -1.226,0.641 -2.199,0.641 -0.047,0 -0.105,0 -0.176,-0.004 -0.07,0 -0.152,-0.004 -0.246,-0.004 z m 7.371,9.343 c -0.566,-0.062 -1.027,-0.207 -1.379,-0.429 -0.351,-0.227 -0.769,-0.68 -1.261,-1.364 l -2.157,-2.984 c 0.871,-0.191 1.516,-0.523 1.93,-0.992 0.418,-0.469 0.625,-1.024 0.625,-1.66 0,-0.598 -0.184,-1.11 -0.547,-1.539 -0.363,-0.43 -0.808,-0.727 -1.332,-0.887 -0.523,-0.16 -1.332,-0.242 -2.433,-0.242 h -3.778 v 0.289 h 0.391 c 0.394,0 0.687,0.109 0.887,0.332 0.14,0.156 0.214,0.562 0.214,1.207 v 6.726 c 0,0.586 -0.054,0.961 -0.164,1.118 -0.187,0.281 -0.5,0.425 -0.937,0.425 h -0.391 v 0.285 h 4.449 v -0.285 h -0.406 c -0.387,0 -0.676,-0.113 -0.867,-0.336 -0.144,-0.156 -0.215,-0.558 -0.215,-1.207 v -3.031 c 0.078,0.004 0.156,0.008 0.231,0.012 0.074,0.004 0.144,0.004 0.211,0.004 0.156,0 0.363,-0.004 0.617,-0.016 l 3.531,4.859 h 2.781 z"
                 style="fill:#231f20;fill-opacity:1;fill-rule:nonzero;stroke:none"
                 id="path36" />
              <path
                 d="m 98.457,16.602 c 0.496,-0.11 0.891,-0.161 1.18,-0.161 0.656,0 1.187,0.204 1.586,0.606 0.398,0.402 0.597,0.93 0.597,1.574 0,0.66 -0.246,1.207 -0.742,1.633 -0.492,0.43 -1.226,0.641 -2.199,0.641 -0.047,0 -0.106,0 -0.176,-0.004 -0.07,0 -0.152,-0.004 -0.246,-0.004 z m 7.371,9.343 c -0.566,-0.062 -1.027,-0.207 -1.379,-0.429 -0.351,-0.227 -0.769,-0.68 -1.261,-1.364 l -2.157,-2.984 c 0.871,-0.191 1.516,-0.523 1.93,-0.992 0.414,-0.469 0.625,-1.024 0.625,-1.66 0,-0.598 -0.184,-1.11 -0.547,-1.539 -0.367,-0.43 -0.809,-0.727 -1.332,-0.887 -0.523,-0.16 -1.332,-0.242 -2.434,-0.242 h -3.777 v 0.289 h 0.391 c 0.39,0 0.687,0.109 0.886,0.332 0.141,0.156 0.211,0.562 0.211,1.207 v 6.726 c 0,0.586 -0.05,0.961 -0.16,1.118 -0.187,0.281 -0.5,0.425 -0.937,0.425 h -0.391 v 0.285 h 4.449 v -0.285 h -0.406 c -0.387,0 -0.676,-0.113 -0.867,-0.336 -0.145,-0.156 -0.215,-0.558 -0.215,-1.207 v -3.031 c 0.078,0.004 0.156,0.008 0.231,0.012 0.074,0.004 0.144,0.004 0.207,0.004 0.16,0 0.367,-0.004 0.621,-0.016 l 3.527,4.859 h 2.785 z"
                 style="fill:#231f20;fill-opacity:1;fill-rule:nonzero;stroke:none"
                 id="path38" />
              <path
                 d="m 110.91,25.945 v 0.285 h -4.449 v -0.285 h 0.371 c 0.43,0 0.738,-0.125 0.934,-0.375 0.125,-0.16 0.183,-0.55 0.183,-1.168 v -6.726 c 0,-0.52 -0.031,-0.864 -0.097,-1.031 -0.051,-0.125 -0.157,-0.235 -0.317,-0.325 -0.223,-0.125 -0.461,-0.183 -0.703,-0.183 h -0.371 v -0.289 h 4.449 v 0.289 h -0.375 c -0.422,0 -0.73,0.121 -0.922,0.371 -0.129,0.164 -0.191,0.554 -0.191,1.168 v 6.726 c 0,0.52 0.031,0.868 0.098,1.032 0.05,0.128 0.16,0.238 0.32,0.328 0.219,0.121 0.453,0.183 0.695,0.183 z"
                 style="fill:#231f20;fill-opacity:1;fill-rule:nonzero;stroke:none"
                 id="path40" />
              <path
                 d="m 121.125,15.617 0.234,3.531 h -0.254 c -0.312,-1.054 -0.761,-1.816 -1.347,-2.281 -0.586,-0.465 -1.285,-0.695 -2.106,-0.695 -0.687,0 -1.308,0.176 -1.863,0.523 -0.551,0.348 -0.988,0.907 -1.305,1.668 -0.32,0.766 -0.476,1.715 -0.476,2.852 0,0.937 0.148,1.75 0.449,2.437 0.301,0.688 0.75,1.215 1.355,1.582 0.602,0.364 1.29,0.547 2.063,0.547 0.672,0 1.266,-0.144 1.777,-0.433 0.512,-0.286 1.078,-0.86 1.696,-1.719 l 0.242,0.164 c -0.52,0.922 -1.125,1.598 -1.82,2.027 -0.696,0.43 -1.516,0.645 -2.469,0.645 -1.723,0 -3.051,-0.637 -3.996,-1.914 -0.703,-0.949 -1.055,-2.067 -1.055,-3.352 0,-1.035 0.23,-1.984 0.695,-2.851 0.461,-0.868 1.102,-1.539 1.914,-2.016 0.813,-0.477 1.7,-0.715 2.664,-0.715 0.747,0 1.485,0.18 2.215,0.547 0.215,0.113 0.367,0.168 0.457,0.168 0.137,0 0.258,-0.047 0.36,-0.144 0.133,-0.137 0.226,-0.329 0.285,-0.571 z"
                 style="fill:#231f20;fill-opacity:1;fill-rule:nonzero;stroke:none"
                 id="path42" />
              <path
                 d="m 125.934,22.195 1.816,-4.191 1.75,4.191 z m 4.421,2.055 c 0.204,0.484 0.305,0.836 0.305,1.059 0,0.168 -0.07,0.312 -0.215,0.429 -0.144,0.117 -0.425,0.184 -0.84,0.207 v 0.285 h 4.098 v -0.285 c -0.426,-0.027 -0.754,-0.14 -0.992,-0.347 -0.238,-0.207 -0.5,-0.657 -0.793,-1.348 l -3.617,-8.637 h -0.258 l -3.695,8.535 c -0.317,0.75 -0.606,1.25 -0.868,1.497 -0.125,0.121 -0.406,0.222 -0.839,0.3 v 0.285 h 3.281 v -0.285 c -0.5,-0.039 -0.824,-0.117 -0.977,-0.234 -0.148,-0.117 -0.226,-0.258 -0.226,-0.414 0,-0.199 0.086,-0.5 0.261,-0.902 l 0.704,-1.625 h 4.054 z"
                 style="fill:#231f20;fill-opacity:1;fill-rule:nonzero;stroke:none"
                 id="path44" />
              <path
                 d="m 134.004,15.848 h 2.789 l 6.371,7.769 v -5.976 c 0,-0.633 -0.07,-1.028 -0.215,-1.188 -0.191,-0.211 -0.496,-0.316 -0.91,-0.316 h -0.363 v -0.289 h 3.66 v 0.289 h -0.375 c -0.441,0 -0.758,0.133 -0.945,0.394 -0.114,0.164 -0.168,0.531 -0.168,1.11 v 8.757 h -0.282 l -6.839,-8.355 v 6.395 c 0,0.632 0.07,1.031 0.211,1.187 0.195,0.211 0.496,0.32 0.906,0.32 h 0.371 v 0.285 h -3.656 v -0.285 h 0.363 c 0.449,0 0.769,-0.133 0.953,-0.398 0.113,-0.16 0.172,-0.531 0.172,-1.109 v -7.227 c -0.301,-0.352 -0.531,-0.582 -0.688,-0.691 -0.152,-0.114 -0.382,-0.219 -0.683,-0.317 -0.149,-0.043 -0.371,-0.066 -0.672,-0.066 z"
                 style="fill:#231f20;fill-opacity:1;fill-rule:nonzero;stroke:none"
                 id="path46" />
              <path
                 d="m 149.184,16.422 v 4.09 h 2.277 c 0.594,0 0.992,-0.09 1.187,-0.266 0.266,-0.23 0.414,-0.641 0.446,-1.223 h 0.289 v 3.622 h -0.289 c -0.071,-0.508 -0.141,-0.836 -0.215,-0.981 -0.09,-0.18 -0.242,-0.32 -0.449,-0.426 -0.211,-0.101 -0.535,-0.152 -0.969,-0.152 h -2.277 v 3.41 c 0,0.457 0.023,0.738 0.062,0.836 0.039,0.098 0.113,0.18 0.215,0.238 0.101,0.059 0.293,0.086 0.578,0.086 h 1.754 c 0.586,0 1.008,-0.039 1.273,-0.121 0.266,-0.082 0.52,-0.242 0.762,-0.48 0.317,-0.313 0.641,-0.789 0.969,-1.426 h 0.34 l -0.899,2.601 h -8.011 v -0.285 h 0.367 c 0.246,0 0.48,-0.058 0.699,-0.175 0.164,-0.082 0.273,-0.208 0.336,-0.368 0.059,-0.164 0.086,-0.496 0.086,-1 V 17.66 c 0,-0.66 -0.067,-1.066 -0.199,-1.219 -0.184,-0.203 -0.493,-0.304 -0.922,-0.304 h -0.367 v -0.289 h 8.015 l 0.106,2.277 h -0.305 c -0.105,-0.543 -0.227,-0.918 -0.355,-1.121 -0.129,-0.203 -0.321,-0.359 -0.579,-0.465 -0.203,-0.078 -0.562,-0.117 -1.078,-0.117 z"
                 style="fill:#231f20;fill-opacity:1;fill-rule:nonzero;stroke:none"
                 id="path48" />
              <path
                 d="m 163.453,16.422 v 4.09 h 2.277 c 0.59,0 0.989,-0.09 1.188,-0.266 0.266,-0.23 0.414,-0.641 0.445,-1.223 h 0.285 v 3.622 h -0.285 c -0.074,-0.508 -0.144,-0.836 -0.218,-0.981 -0.09,-0.18 -0.239,-0.32 -0.45,-0.426 -0.211,-0.101 -0.531,-0.152 -0.965,-0.152 h -2.277 v 3.41 c 0,0.457 0.02,0.738 0.059,0.836 0.043,0.098 0.113,0.18 0.215,0.238 0.101,0.059 0.293,0.086 0.578,0.086 h 1.754 c 0.586,0 1.011,-0.039 1.273,-0.121 0.266,-0.082 0.52,-0.242 0.766,-0.48 0.312,-0.313 0.636,-0.789 0.964,-1.426 h 0.344 l -0.898,2.601 h -8.016 v -0.285 h 0.371 c 0.242,0 0.477,-0.058 0.696,-0.175 0.164,-0.082 0.277,-0.208 0.336,-0.368 0.058,-0.164 0.085,-0.496 0.085,-1 V 17.66 c 0,-0.66 -0.066,-1.066 -0.199,-1.219 -0.183,-0.203 -0.488,-0.304 -0.918,-0.304 h -0.371 v -0.289 h 8.016 l 0.109,2.277 h -0.305 c -0.109,-0.543 -0.226,-0.918 -0.355,-1.121 -0.133,-0.203 -0.324,-0.359 -0.578,-0.465 -0.203,-0.078 -0.567,-0.117 -1.078,-0.117 z"
                 style="fill:#231f20;fill-opacity:1;fill-rule:nonzero;stroke:none"
                 id="path50" />
              <path
                 d="m 179.133,23.363 0.269,0.051 -0.898,2.816 h -8.031 v -0.285 h 0.386 c 0.438,0 0.75,-0.144 0.942,-0.425 0.105,-0.161 0.16,-0.532 0.16,-1.118 v -6.726 c 0,-0.641 -0.074,-1.043 -0.215,-1.207 -0.199,-0.223 -0.492,-0.332 -0.887,-0.332 h -0.386 v -0.289 h 4.679 v 0.289 c -0.547,-0.008 -0.929,0.043 -1.148,0.148 -0.223,0.11 -0.371,0.238 -0.453,0.403 -0.082,0.16 -0.121,0.542 -0.121,1.152 v 6.539 c 0,0.422 0.039,0.715 0.121,0.875 0.062,0.105 0.156,0.187 0.285,0.238 0.125,0.051 0.523,0.074 1.191,0.074 h 0.758 c 0.793,0 1.352,-0.058 1.672,-0.175 0.32,-0.118 0.613,-0.325 0.879,-0.621 0.266,-0.297 0.531,-0.766 0.797,-1.407"
                 style="fill:#231f20;fill-opacity:1;fill-rule:nonzero;stroke:none"
                 id="path52" />
              <path
                 d="m 183.371,16.422 v 4.09 h 2.277 c 0.594,0 0.989,-0.09 1.188,-0.266 0.266,-0.23 0.414,-0.641 0.445,-1.223 h 0.285 v 3.622 h -0.285 c -0.07,-0.508 -0.144,-0.836 -0.215,-0.981 -0.093,-0.18 -0.242,-0.32 -0.453,-0.426 -0.207,-0.101 -0.531,-0.152 -0.965,-0.152 h -2.277 v 3.41 c 0,0.457 0.02,0.738 0.063,0.836 0.039,0.098 0.109,0.18 0.214,0.238 0.102,0.059 0.293,0.086 0.579,0.086 h 1.753 c 0.586,0 1.008,-0.039 1.274,-0.121 0.266,-0.082 0.519,-0.242 0.762,-0.48 0.316,-0.313 0.636,-0.789 0.968,-1.426 h 0.34 l -0.898,2.601 h -8.012 v -0.285 h 0.367 c 0.246,0 0.477,-0.058 0.699,-0.175 0.165,-0.082 0.274,-0.208 0.332,-0.368 0.059,-0.164 0.09,-0.496 0.09,-1 V 17.66 c 0,-0.66 -0.066,-1.066 -0.199,-1.219 -0.183,-0.203 -0.492,-0.304 -0.922,-0.304 h -0.367 v -0.289 h 8.016 l 0.105,2.277 h -0.305 c -0.105,-0.543 -0.226,-0.918 -0.355,-1.121 -0.129,-0.203 -0.324,-0.359 -0.578,-0.465 -0.203,-0.078 -0.563,-0.117 -1.078,-0.117 z"
                 style="fill:#231f20;fill-opacity:1;fill-rule:nonzero;stroke:none"
                 id="path54" />
              <path
                 d="m 199.516,15.617 0.234,3.531 h -0.25 c -0.316,-1.054 -0.766,-1.816 -1.352,-2.281 -0.582,-0.465 -1.285,-0.695 -2.105,-0.695 -0.684,0 -1.305,0.176 -1.859,0.523 -0.555,0.348 -0.989,0.907 -1.309,1.668 -0.316,0.766 -0.477,1.715 -0.477,2.852 0,0.937 0.153,1.75 0.45,2.437 0.3,0.688 0.754,1.215 1.355,1.582 0.602,0.364 1.293,0.547 2.063,0.547 0.672,0 1.265,-0.144 1.781,-0.433 0.512,-0.286 1.078,-0.86 1.691,-1.719 l 0.246,0.164 c -0.519,0.922 -1.129,1.598 -1.82,2.027 -0.695,0.43 -1.519,0.645 -2.473,0.645 -1.718,0 -3.05,-0.637 -3.992,-1.914 -0.707,-0.949 -1.058,-2.067 -1.058,-3.352 0,-1.035 0.234,-1.984 0.695,-2.851 0.465,-0.868 1.102,-1.539 1.914,-2.016 0.812,-0.477 1.703,-0.715 2.664,-0.715 0.75,0 1.488,0.18 2.215,0.547 0.215,0.113 0.367,0.168 0.461,0.168 0.137,0 0.258,-0.047 0.359,-0.144 0.133,-0.137 0.227,-0.329 0.281,-0.571 z"
                 style="fill:#231f20;fill-opacity:1;fill-rule:nonzero;stroke:none"
                 id="path56" />
              <path
                 d="m 209.961,15.848 0.109,2.445 h -0.297 c -0.058,-0.426 -0.132,-0.731 -0.23,-0.914 -0.156,-0.297 -0.367,-0.516 -0.629,-0.656 -0.258,-0.141 -0.602,-0.211 -1.031,-0.211 h -1.453 v 7.926 c 0,0.632 0.07,1.031 0.211,1.187 0.195,0.211 0.5,0.32 0.91,0.32 h 0.367 v 0.285 h -4.445 v -0.285 h 0.371 c 0.445,0 0.758,-0.133 0.945,-0.398 0.113,-0.16 0.172,-0.531 0.172,-1.109 v -7.926 h -1.246 c -0.481,0 -0.824,0.035 -1.027,0.109 -0.266,0.094 -0.493,0.281 -0.68,0.559 -0.188,0.273 -0.301,0.644 -0.336,1.113 h -0.297 l 0.105,-2.445 z"
                 style="fill:#231f20;fill-opacity:1;fill-rule:nonzero;stroke:none"
                 id="path58" />
              <path
                 d="m 214.094,16.602 c 0.496,-0.11 0.89,-0.161 1.183,-0.161 0.657,0 1.184,0.204 1.582,0.606 0.399,0.402 0.598,0.93 0.598,1.574 0,0.66 -0.246,1.207 -0.742,1.633 -0.492,0.43 -1.227,0.641 -2.199,0.641 -0.047,0 -0.102,0 -0.172,-0.004 -0.071,0 -0.153,-0.004 -0.25,-0.004 z m 7.371,9.343 c -0.563,-0.062 -1.024,-0.207 -1.375,-0.429 -0.352,-0.227 -0.774,-0.68 -1.262,-1.364 l -2.156,-2.984 c 0.871,-0.191 1.512,-0.523 1.93,-0.992 0.414,-0.469 0.621,-1.024 0.621,-1.66 0,-0.598 -0.184,-1.11 -0.547,-1.539 -0.364,-0.43 -0.809,-0.727 -1.328,-0.887 -0.524,-0.16 -1.336,-0.242 -2.434,-0.242 h -3.777 v 0.289 h 0.39 c 0.391,0 0.684,0.109 0.883,0.332 0.145,0.156 0.215,0.562 0.215,1.207 v 6.726 c 0,0.586 -0.055,0.961 -0.16,1.118 -0.188,0.281 -0.5,0.425 -0.938,0.425 h -0.39 v 0.285 h 4.445 v -0.285 h -0.402 c -0.387,0 -0.68,-0.113 -0.871,-0.336 -0.145,-0.156 -0.215,-0.558 -0.215,-1.207 v -3.031 c 0.082,0.004 0.156,0.008 0.23,0.012 0.078,0.004 0.145,0.004 0.211,0.004 0.16,0 0.363,-0.004 0.617,-0.016 l 3.532,4.859 h 2.781 z"
                 style="fill:#231f20;fill-opacity:1;fill-rule:nonzero;stroke:none"
                 id="path60" />
              <path
                 d="m 226.547,25.945 v 0.285 h -4.445 v -0.285 h 0.367 c 0.429,0 0.742,-0.125 0.937,-0.375 0.121,-0.16 0.184,-0.55 0.184,-1.168 v -6.726 c 0,-0.52 -0.035,-0.864 -0.102,-1.031 -0.05,-0.125 -0.156,-0.235 -0.312,-0.325 -0.227,-0.125 -0.461,-0.183 -0.707,-0.183 h -0.367 v -0.289 h 4.445 v 0.289 h -0.375 c -0.422,0 -0.727,0.121 -0.922,0.371 -0.129,0.164 -0.191,0.554 -0.191,1.168 v 6.726 c 0,0.52 0.035,0.868 0.101,1.032 0.051,0.128 0.156,0.238 0.32,0.328 0.219,0.121 0.45,0.183 0.692,0.183 z"
                 style="fill:#231f20;fill-opacity:1;fill-rule:nonzero;stroke:none"
                 id="path62" />
              <path
                 d="m 236.762,15.617 0.234,3.531 h -0.25 c -0.316,-1.054 -0.766,-1.816 -1.351,-2.281 -0.583,-0.465 -1.286,-0.695 -2.102,-0.695 -0.688,0 -1.309,0.176 -1.863,0.523 -0.555,0.348 -0.992,0.907 -1.309,1.668 -0.316,0.766 -0.476,1.715 -0.476,2.852 0,0.937 0.152,1.75 0.449,2.437 0.301,0.688 0.754,1.215 1.355,1.582 0.602,0.364 1.289,0.547 2.067,0.547 0.668,0 1.261,-0.144 1.777,-0.433 0.512,-0.286 1.078,-0.86 1.691,-1.719 l 0.246,0.164 c -0.519,0.922 -1.128,1.598 -1.82,2.027 -0.695,0.43 -1.519,0.645 -2.472,0.645 -1.719,0 -3.051,-0.637 -3.993,-1.914 -0.707,-0.949 -1.058,-2.067 -1.058,-3.352 0,-1.035 0.234,-1.984 0.695,-2.851 0.465,-0.868 1.102,-1.539 1.914,-2.016 0.813,-0.477 1.699,-0.715 2.664,-0.715 0.75,0 1.488,0.18 2.215,0.547 0.215,0.113 0.367,0.168 0.461,0.168 0.137,0 0.258,-0.047 0.359,-0.144 0.133,-0.137 0.227,-0.329 0.282,-0.571 z"
                 style="fill:#231f20;fill-opacity:1;fill-rule:nonzero;stroke:none"
                 id="path64" />
            </g>
          </g>
        </g>
      </g>
      <path
         d="m 62.836,29.75 h 1.309 v 6.902 h -1.309 z"
         style="fill:#313a90;fill-opacity:1;fill-rule:nonzero;stroke:none"
         id="path66" />
      <path
         d="m 62.836,36.941 v -0.289 h 0.285 -0.285 v 0.289 h -0.285 v -7.48 h 1.879 v 7.48 z m 1.019,-6.906 h -0.734 v 6.332 h 0.734 z"
         style="fill:#2a3e92;fill-opacity:1;fill-rule:nonzero;stroke:none"
         id="path68" />
      <path
         d="M 68.562,36.652 V 29.75 h 1.344 l 5.203,5.426 V 29.75 h 1.254 v 6.902 H 75.02 l -5.204,-5.425 v 5.425 z"
         style="fill:#313a90;fill-opacity:1;fill-rule:nonzero;stroke:none"
         id="path70" />
      <path
         d="m 74.898,36.941 -4.793,-5 v 5 h -1.543 v -0.289 h 0.29 -0.29 v 0.289 h -0.285 v -7.48 h 1.75 l 4.793,5 v -5 h 1.828 v 7.48 z m 0.243,-0.574 h 0.933 v -6.332 h -0.679 v 5.856 l -5.614,-5.856 h -0.929 v 6.332 h 0.679 v -5.855 z"
         style="fill:#2a3e92;fill-opacity:1;fill-rule:nonzero;stroke:none"
         id="path72" />
      <path
         d="M 83.172,36.652 V 30.574 H 79.926 V 29.75 h 7.797 v 0.824 H 84.48 v 6.078 z"
         style="fill:#313a90;fill-opacity:1;fill-rule:nonzero;stroke:none"
         id="path74" />
      <path
         d="m 83.168,36.941 v -0.289 h 0.289 -0.289 v 0.289 h -0.285 v -6.082 h -3.246 v -1.398 h 8.375 v 1.398 h -3.246 v 6.082 z m 1.023,-0.574 v -6.078 h 3.247 v -0.254 h -7.227 v 0.254 h 3.246 v 6.078 z"
         style="fill:#2a3e92;fill-opacity:1;fill-rule:nonzero;stroke:none"
         id="path76" />
      <path
         d="M 91.262,36.652 V 29.75 h 7.097 v 0.824 H 92.57 v 2.098 h 5.414 v 0.824 H 92.57 v 2.332 h 6.024 v 0.824 z"
         style="fill:#313a90;fill-opacity:1;fill-rule:nonzero;stroke:none"
         id="path78" />
      <path
         d="m 91.258,36.941 v -0.289 h 0.289 -0.289 v 0.289 h -0.285 v -7.48 h 7.675 v 1.398 h -5.793 v 1.528 h 5.415 v 1.398 h -5.415 v 1.754 h 6.024 v 1.402 z m 7.047,-0.574 v -0.254 h -6.024 v -2.902 h 5.418 v -0.254 h -5.418 v -2.668 h 5.793 v -0.254 h -6.527 v 6.332 z"
         style="fill:#2a3e92;fill-opacity:1;fill-rule:nonzero;stroke:none"
         id="path80" />
      <g
         id="g82">
        <g
           id="g84">
          <g
             id="g86"
             clip-path="url(#clipPath90)">
            <g
               id="g92">
              <path
                 d="m 103.852,30.52 h 3.132 c 0.735,0 1.27,0.105 1.61,0.312 0.34,0.207 0.511,0.469 0.511,0.785 0,0.223 -0.085,0.426 -0.261,0.613 -0.176,0.188 -0.434,0.325 -0.774,0.407 -0.34,0.082 -0.804,0.125 -1.406,0.125 h -2.812 z m 0,6.132 v -3.066 h 1.519 c 0.336,0 0.578,0.012 0.727,0.035 0.203,0.031 0.402,0.094 0.601,0.184 0.196,0.09 0.418,0.246 0.664,0.465 0.25,0.218 0.563,0.535 0.946,0.949 l 1.308,1.433 h 1.633 l -1.715,-1.879 c -0.34,-0.367 -0.699,-0.671 -1.082,-0.914 -0.18,-0.113 -0.441,-0.226 -0.789,-0.343 0.949,-0.094 1.652,-0.309 2.106,-0.645 0.453,-0.332 0.679,-0.746 0.679,-1.238 0,-0.375 -0.137,-0.723 -0.41,-1.035 -0.273,-0.317 -0.641,-0.536 -1.101,-0.66 -0.458,-0.126 -1.129,-0.188 -2.008,-0.188 h -4.387 v 6.902 z"
                 style="fill:#313a90;fill-opacity:1;fill-rule:nonzero;stroke:none"
                 id="path94" />
              <path
                 d="m 109.492,36.941 -1.394,-1.527 c -0.375,-0.41 -0.688,-0.719 -0.922,-0.93 -0.235,-0.207 -0.438,-0.347 -0.598,-0.418 -0.176,-0.082 -0.348,-0.136 -0.519,-0.164 -0.121,-0.015 -0.36,-0.031 -0.688,-0.031 h -1.23 v 3.07 h -1.883 v -7.48 h 4.672 c 0.894,0 1.582,0.062 2.086,0.199 0.504,0.137 0.925,0.387 1.238,0.75 0.312,0.352 0.484,0.774 0.484,1.223 0.004,0.586 -0.289,1.101 -0.8,1.472 -0.336,0.243 -0.762,0.422 -1.286,0.543 0.387,0.25 0.75,0.563 1.094,0.934 l 2.156,2.359 z m -5.64,-0.289 v -0.285 z m 1.519,-3.351 c 0.344,0 0.594,0.008 0.774,0.035 0.226,0.035 0.453,0.105 0.671,0.207 0.235,0.109 0.477,0.277 0.739,0.512 0.257,0.23 0.578,0.55 0.968,0.972 l 1.223,1.34 h 0.856 l -1.278,-1.398 c -0.324,-0.352 -0.668,-0.637 -1.023,-0.867 -0.149,-0.094 -0.395,-0.204 -0.731,-0.317 l 0.067,-0.558 c 0.922,-0.086 1.578,-0.301 1.965,-0.586 0.394,-0.301 0.554,-0.606 0.562,-1.008 -0.004,-0.305 -0.105,-0.574 -0.34,-0.848 -0.234,-0.269 -0.547,-0.457 -0.961,-0.57 -0.414,-0.117 -1.07,-0.18 -1.933,-0.18 h -4.102 v 6.332 h 0.738 v -3.066 z m -1.805,-0.25 v -2.817 h 3.418 c 0.758,0 1.34,0.098 1.758,0.352 0.399,0.23 0.656,0.605 0.653,1.035 0,0.297 -0.129,0.578 -0.344,0.805 -0.227,0.238 -0.535,0.398 -0.91,0.488 -0.379,0.094 -0.864,0.133 -1.477,0.137 z m 0.571,-0.578 2.527,0.004 c 0.586,0 1.035,-0.043 1.336,-0.118 0.305,-0.078 0.508,-0.191 0.633,-0.324 0.137,-0.152 0.183,-0.277 0.187,-0.414 -0.008,-0.211 -0.086,-0.363 -0.375,-0.547 -0.257,-0.16 -0.754,-0.269 -1.461,-0.265 h -2.843 z"
                 style="fill:#2a3e92;fill-opacity:1;fill-rule:nonzero;stroke:none"
                 id="path96" />
            </g>
          </g>
        </g>
      </g>
      <path
         d="M 114.586,36.652 V 29.75 h 1.344 l 5.203,5.426 V 29.75 h 1.254 v 6.902 h -1.344 l -5.199,-5.425 v 5.425 z"
         style="fill:#313a90;fill-opacity:1;fill-rule:nonzero;stroke:none"
         id="path98" />
      <path
         d="m 120.918,36.941 -4.789,-5 v 5 h -1.543 v -0.289 h 0.285 -0.285 v 0.289 h -0.285 v -7.48 h 1.75 l 4.793,5 v -5 h 1.828 v 7.48 z m 0.246,-0.574 h 0.938 v -6.332 h -0.684 v 5.856 l -5.609,-5.856 h -0.938 v 6.332 h 0.684 v -5.855 z"
         style="fill:#2a3e92;fill-opacity:1;fill-rule:nonzero;stroke:none"
         id="path100" />
      <path
         d="M 126.738,36.652 V 29.75 h 7.102 v 0.824 h -5.793 v 2.098 h 5.414 v 0.824 h -5.414 v 2.332 h 6.023 v 0.824 z"
         style="fill:#313a90;fill-opacity:1;fill-rule:nonzero;stroke:none"
         id="path102" />
      <path
         d="m 126.738,36.938 v -0.286 h 0.285 -0.285 v 0.286 h -0.285 v -7.477 h 7.672 v 1.398 h -5.793 v 1.528 h 5.414 v 1.398 h -5.414 v 1.754 h 6.023 v 1.399 z m 7.047,-0.571 v -0.254 h -6.023 v -2.902 h 5.414 v -0.25 h -5.414 v -2.676 h 5.789 v -0.25 h -6.528 v 6.332 z"
         style="fill:#2a3e92;fill-opacity:1;fill-rule:nonzero;stroke:none"
         id="path104" />
      <path
         d="M 140.512,36.652 V 30.574 H 137.27 V 29.75 h 7.796 v 0.824 h -3.242 v 6.078 z"
         style="fill:#313a90;fill-opacity:1;fill-rule:nonzero;stroke:none"
         id="path106" />
      <path
         d="m 140.512,36.938 v -0.286 h 0.289 -0.289 v 0.286 h -0.285 v -6.079 h -3.247 v -1.398 h 8.375 v 1.398 h -3.246 v 6.079 z m 1.023,-0.571 v -6.078 h 3.246 v -0.254 h -7.226 v 0.254 h 3.246 v 6.078 z"
         style="fill:#2a3e92;fill-opacity:1;fill-rule:nonzero;stroke:none"
         id="path108" />
      <g
         id="g110">
        <g
           id="g112">
          <g
             id="g114"
             clip-path="url(#clipPath118)">
            <g
               id="g120">
              <path
                 d="m 154.078,34.43 1.238,-0.071 c 0.059,0.344 0.192,0.621 0.403,0.84 0.211,0.219 0.539,0.399 0.984,0.531 0.442,0.137 0.942,0.208 1.496,0.208 0.492,0 0.93,-0.055 1.305,-0.157 0.379,-0.101 0.66,-0.242 0.844,-0.422 0.183,-0.175 0.277,-0.375 0.277,-0.586 0,-0.214 -0.09,-0.402 -0.266,-0.566 -0.179,-0.16 -0.472,-0.297 -0.879,-0.41 -0.261,-0.07 -0.839,-0.18 -1.734,-0.332 -0.891,-0.153 -1.523,-0.297 -1.887,-0.43 -0.472,-0.176 -0.824,-0.39 -1.054,-0.648 -0.235,-0.254 -0.348,-0.539 -0.348,-0.856 0,-0.351 0.141,-0.676 0.422,-0.98 0.277,-0.305 0.687,-0.531 1.23,-0.692 0.539,-0.156 1.137,-0.234 1.797,-0.234 0.727,0 1.367,0.082 1.922,0.246 0.555,0.164 0.984,0.406 1.281,0.727 0.301,0.32 0.461,0.683 0.481,1.09 l -1.254,0.07 c -0.066,-0.43 -0.289,-0.758 -0.672,-0.977 -0.383,-0.222 -0.949,-0.332 -1.699,-0.332 -0.777,0 -1.344,0.102 -1.699,0.301 -0.36,0.203 -0.536,0.445 -0.536,0.73 0,0.247 0.125,0.45 0.379,0.61 0.246,0.156 0.895,0.32 1.942,0.484 1.047,0.168 1.765,0.317 2.16,0.442 0.578,0.183 1,0.418 1.273,0.703 0.274,0.285 0.414,0.613 0.414,0.984 0,0.367 -0.152,0.715 -0.449,1.039 -0.301,0.324 -0.73,0.574 -1.289,0.754 -0.562,0.176 -1.195,0.266 -1.894,0.266 -0.887,0 -1.633,-0.09 -2.235,-0.27 -0.597,-0.18 -1.07,-0.453 -1.414,-0.82 -0.34,-0.363 -0.519,-0.777 -0.539,-1.242"
                 style="fill:#313a90;fill-opacity:1;fill-rule:nonzero;stroke:none"
                 id="path122" />
              <path
                 d="m 155.949,36.766 c -0.637,-0.192 -1.156,-0.489 -1.543,-0.899 -0.379,-0.406 -0.594,-0.894 -0.613,-1.426 l 0.285,-0.011 0.016,0.285 -0.016,-0.285 -0.285,0.011 -0.012,-0.281 1.774,-0.105 0.043,0.254 c 0.05,0.3 0.16,0.519 0.328,0.691 0.16,0.168 0.441,0.328 0.859,0.457 0.41,0.125 0.883,0.191 1.414,0.191 0.473,0 0.883,-0.05 1.231,-0.144 0.347,-0.094 0.586,-0.219 0.718,-0.352 0.141,-0.14 0.188,-0.25 0.188,-0.379 0,-0.136 -0.043,-0.23 -0.172,-0.355 -0.121,-0.109 -0.375,-0.238 -0.758,-0.344 -0.238,-0.062 -0.816,-0.176 -1.707,-0.328 -0.902,-0.152 -1.539,-0.297 -1.941,-0.441 -0.496,-0.188 -0.891,-0.422 -1.168,-0.727 -0.274,-0.297 -0.422,-0.66 -0.422,-1.047 0,-0.429 0.18,-0.836 0.496,-1.176 0.328,-0.351 0.789,-0.605 1.363,-0.769 0.571,-0.168 1.196,-0.25 1.879,-0.25 0.75,0 1.418,0.086 2.004,0.258 0.59,0.176 1.067,0.441 1.41,0.808 0.336,0.36 0.535,0.797 0.559,1.27 l 0.016,0.285 -1.801,0.102 -0.039,-0.258 c -0.063,-0.356 -0.219,-0.586 -0.535,-0.774 -0.313,-0.179 -0.832,-0.293 -1.551,-0.293 -0.758,0 -1.285,0.106 -1.563,0.266 -0.312,0.184 -0.386,0.328 -0.39,0.48 0.004,0.141 0.046,0.235 0.246,0.368 0.144,0.105 0.8,0.285 1.832,0.445 1.054,0.168 1.777,0.316 2.207,0.449 0.601,0.192 1.066,0.442 1.39,0.778 0.321,0.328 0.497,0.738 0.493,1.183 0.004,0.449 -0.192,0.871 -0.528,1.235 -0.34,0.371 -0.816,0.64 -1.41,0.832 -0.594,0.183 -1.258,0.277 -1.98,0.277 -0.907,0 -1.68,-0.09 -2.317,-0.281 m -1.121,-1.289 c 0.301,0.32 0.723,0.57 1.285,0.738 0.563,0.172 1.282,0.258 2.153,0.258 0.675,0 1.277,-0.086 1.804,-0.25 0.528,-0.168 0.91,-0.399 1.168,-0.676 0.262,-0.289 0.371,-0.555 0.371,-0.844 -0.004,-0.301 -0.101,-0.543 -0.332,-0.785 -0.222,-0.238 -0.605,-0.457 -1.152,-0.629 -0.363,-0.117 -1.082,-0.266 -2.121,-0.43 -1.066,-0.175 -1.703,-0.32 -2.051,-0.527 -0.308,-0.187 -0.515,-0.5 -0.512,-0.852 -0.003,-0.418 0.278,-0.761 0.68,-0.98 0.438,-0.242 1.039,-0.336 1.848,-0.336 0.773,0 1.383,0.109 1.836,0.367 0.375,0.207 0.636,0.535 0.757,0.926 l 0.7,-0.039 c -0.063,-0.223 -0.176,-0.426 -0.364,-0.625 -0.253,-0.273 -0.628,-0.496 -1.148,-0.648 -0.523,-0.153 -1.137,-0.235 -1.844,-0.235 -0.636,0 -1.207,0.078 -1.718,0.227 -0.508,0.144 -0.868,0.355 -1.102,0.609 -0.242,0.266 -0.344,0.512 -0.344,0.785 0,0.242 0.082,0.449 0.274,0.664 0.187,0.207 0.5,0.407 0.945,0.571 0.324,0.121 0.949,0.265 1.832,0.414 0.902,0.152 1.477,0.265 1.762,0.343 0.433,0.118 0.761,0.262 0.996,0.473 0.222,0.199 0.363,0.481 0.359,0.777 0.004,0.297 -0.137,0.579 -0.363,0.793 -0.238,0.227 -0.563,0.379 -0.969,0.493 -0.406,0.109 -0.867,0.164 -1.379,0.164 -0.578,0 -1.105,-0.071 -1.582,-0.219 -0.472,-0.145 -0.844,-0.336 -1.105,-0.606 -0.2,-0.203 -0.336,-0.457 -0.422,-0.738 l -0.688,0.039 c 0.063,0.278 0.2,0.531 0.426,0.778"
                 style="fill:#2a3e92;fill-opacity:1;fill-rule:nonzero;stroke:none"
                 id="path124" />
            </g>
          </g>
        </g>
      </g>
      <path
         d="M 165.883,36.652 V 29.75 h 7.101 v 0.824 h -5.793 v 2.098 h 5.414 v 0.824 h -5.414 v 2.332 h 6.028 v 0.824 z"
         style="fill:#313a90;fill-opacity:1;fill-rule:nonzero;stroke:none"
         id="path126" />
      <path
         d="m 165.883,36.941 v -0.289 h 0.285 -0.285 v 0.289 h -0.285 v -7.48 h 7.672 v 1.398 h -5.793 v 1.528 h 5.418 v 1.398 h -5.418 v 1.754 h 6.023 v 1.402 z m 0.285,-0.574 h 6.762 v -0.254 h -6.028 v -2.902 h 5.418 v -0.254 h -5.418 v -2.668 h 5.793 v -0.254 h -6.527 z"
         style="fill:#2a3e92;fill-opacity:1;fill-rule:nonzero;stroke:none"
         id="path128" />
      <g
         id="g130">
        <g
           id="g132">
          <g
             id="g134"
             clip-path="url(#clipPath138)">
            <g
               id="g140">
              <path
                 d="m 178.477,30.52 h 3.128 c 0.735,0 1.274,0.105 1.614,0.312 0.34,0.207 0.511,0.469 0.511,0.785 0,0.223 -0.089,0.426 -0.265,0.613 -0.176,0.188 -0.434,0.325 -0.77,0.407 -0.34,0.082 -0.808,0.125 -1.406,0.125 h -2.812 z m 0,6.132 v -3.066 h 1.515 c 0.34,0 0.582,0.012 0.731,0.035 0.203,0.031 0.402,0.094 0.597,0.184 0.2,0.09 0.422,0.246 0.668,0.465 0.246,0.218 0.563,0.535 0.946,0.949 l 1.308,1.433 h 1.633 l -1.715,-1.879 c -0.34,-0.367 -0.703,-0.671 -1.086,-0.914 -0.179,-0.113 -0.441,-0.226 -0.785,-0.343 0.949,-0.094 1.649,-0.309 2.102,-0.645 0.457,-0.332 0.683,-0.746 0.683,-1.238 0,-0.375 -0.136,-0.723 -0.41,-1.035 -0.277,-0.317 -0.644,-0.536 -1.102,-0.66 -0.46,-0.126 -1.128,-0.188 -2.011,-0.188 h -4.383 v 6.902 z"
                 style="fill:#313a90;fill-opacity:1;fill-rule:nonzero;stroke:none"
                 id="path142" />
              <path
                 d="m 184.113,36.941 -1.39,-1.527 c -0.379,-0.41 -0.692,-0.719 -0.926,-0.93 -0.235,-0.207 -0.438,-0.347 -0.598,-0.422 -0.172,-0.078 -0.347,-0.132 -0.519,-0.16 -0.121,-0.015 -0.36,-0.027 -0.688,-0.027 h -1.23 v 3.066 h -1.883 v -7.48 h 4.672 c 0.894,0 1.586,0.062 2.086,0.199 0.504,0.137 0.925,0.387 1.242,0.746 0.312,0.356 0.484,0.778 0.48,1.227 0.004,0.586 -0.289,1.101 -0.797,1.472 -0.335,0.243 -0.765,0.422 -1.289,0.543 0.387,0.25 0.754,0.563 1.098,0.934 l 2.152,2.359 z m -5.636,-0.289 v -0.285 z m -1.024,-0.285 h 0.735 v -3.066 h 1.804 c 0.348,0 0.594,0.008 0.774,0.035 0.23,0.035 0.457,0.105 0.675,0.207 0.235,0.109 0.477,0.281 0.739,0.512 0.258,0.23 0.578,0.55 0.965,0.968 l 1.222,1.34 h 0.856 l -1.274,-1.394 c -0.328,-0.352 -0.668,-0.637 -1.027,-0.867 -0.149,-0.094 -0.395,-0.204 -0.727,-0.317 l 0.063,-0.555 c 0.922,-0.093 1.578,-0.3 1.965,-0.589 0.398,-0.301 0.558,-0.606 0.562,-1.008 0,-0.305 -0.105,-0.574 -0.34,-0.848 -0.234,-0.265 -0.543,-0.457 -0.961,-0.57 -0.414,-0.117 -1.066,-0.18 -1.933,-0.18 h -4.098 z m 0.735,-3.316 v -2.817 h 3.417 c 0.762,0 1.34,0.102 1.762,0.352 0.395,0.23 0.653,0.605 0.649,1.031 0,0.301 -0.129,0.582 -0.34,0.809 -0.227,0.242 -0.539,0.394 -0.914,0.488 -0.375,0.094 -0.86,0.133 -1.473,0.137 z m 0.574,-0.578 h 2.527 c 0.582,0 1.035,-0.039 1.336,-0.114 0.301,-0.078 0.504,-0.191 0.629,-0.324 0.141,-0.152 0.184,-0.277 0.187,-0.418 -0.003,-0.207 -0.086,-0.359 -0.371,-0.539 -0.261,-0.164 -0.758,-0.273 -1.465,-0.269 h -2.843 z"
                 style="fill:#2a3e92;fill-opacity:1;fill-rule:nonzero;stroke:none"
                 id="path144" />
              <path
                 d="m 192.043,36.652 -3.82,-6.902 h 1.414 l 2.558,5.012 c 0.207,0.398 0.379,0.777 0.516,1.129 0.156,-0.375 0.332,-0.754 0.535,-1.129 l 2.668,-5.012 h 1.332 l -3.859,6.902 z"
                 style="fill:#313a90;fill-opacity:1;fill-rule:nonzero;stroke:none"
                 id="path146" />
              <path
                 d="m 192.043,36.941 v -0.289 l 0.25,-0.14 -0.25,0.14 v 0.289 h -0.168 l -4.137,-7.48 h 2.074 l 2.637,5.168 c 0.098,0.187 0.188,0.367 0.266,0.543 0.09,-0.184 0.18,-0.363 0.277,-0.547 l 2.75,-5.164 h 1.996 l -4.187,7.48 z m 0.168,-0.574 h 0.379 l -0.145,-0.371 c -0.136,-0.344 -0.3,-0.711 -0.504,-1.105 l -2.48,-4.856 h -0.75 z m 1.285,-1.469 c -0.195,0.368 -0.371,0.735 -0.516,1.102 l -0.152,0.367 h 0.387 l 3.543,-6.332 h -0.672 z"
                 style="fill:#2a3e92;fill-opacity:1;fill-rule:nonzero;stroke:none"
                 id="path148" />
            </g>
          </g>
        </g>
      </g>
      <path
         d="m 200.762,29.75 h 1.309 v 6.902 h -1.309 z"
         style="fill:#313a90;fill-opacity:1;fill-rule:nonzero;stroke:none"
         id="path150" />
      <path
         d="m 200.762,36.938 v -0.286 h 0.285 -0.285 v 0.286 h -0.289 v -7.473 h 1.882 v 7.473 z m 0.285,-0.571 0.738,-0.004 v -6.328 h -0.738 z"
         style="fill:#2a3e92;fill-opacity:1;fill-rule:nonzero;stroke:none"
         id="path152" />
      <g
         id="g154">
        <g
           id="g156">
          <g
             id="g158"
             clip-path="url(#clipPath162)">
            <g
               id="g164">
              <path
                 d="m 213.555,34.223 1.308,0.226 c -0.273,0.754 -0.765,1.324 -1.48,1.719 -0.711,0.394 -1.582,0.594 -2.61,0.594 -1.066,0 -1.929,-0.153 -2.597,-0.453 -0.668,-0.297 -1.176,-0.739 -1.524,-1.313 -0.347,-0.574 -0.519,-1.191 -0.519,-1.851 0,-0.723 0.195,-1.352 0.59,-1.883 0.39,-0.535 0.949,-0.942 1.675,-1.219 0.727,-0.277 1.528,-0.418 2.399,-0.418 0.988,0 1.82,0.176 2.496,0.527 0.672,0.356 1.145,0.848 1.41,1.489 l -1.293,0.207 c -0.23,-0.5 -0.562,-0.864 -0.996,-1.094 -0.437,-0.227 -0.984,-0.34 -1.648,-0.34 -0.758,0 -1.395,0.125 -1.907,0.379 -0.507,0.25 -0.867,0.594 -1.074,1.023 -0.207,0.426 -0.308,0.868 -0.308,1.321 0,0.586 0.121,1.093 0.367,1.531 0.242,0.437 0.625,0.762 1.14,0.98 0.52,0.215 1.078,0.325 1.68,0.325 0.731,0 1.352,-0.149 1.859,-0.442 0.508,-0.297 0.852,-0.73 1.032,-1.308"
                 style="fill:#313a90;fill-opacity:1;fill-rule:nonzero;stroke:none"
                 id="path166" />
              <path
                 d="m 210.773,37.047 c -1.093,0 -1.996,-0.152 -2.714,-0.477 -0.715,-0.32 -1.274,-0.797 -1.653,-1.425 -0.371,-0.614 -0.562,-1.29 -0.562,-2 0,-0.774 0.215,-1.469 0.644,-2.055 0.43,-0.582 1.043,-1.024 1.809,-1.317 0.762,-0.293 1.598,-0.437 2.5,-0.437 1.023,0 1.902,0.184 2.629,0.562 0.722,0.379 1.25,0.93 1.539,1.633 l 0.14,0.336 -1.867,0.297 -0.09,-0.195 c -0.207,-0.457 -0.492,-0.762 -0.871,-0.961 -0.382,-0.199 -0.882,-0.309 -1.511,-0.309 -0.727,0 -1.317,0.121 -1.778,0.348 -0.468,0.234 -0.769,0.527 -0.945,0.891 -0.188,0.394 -0.281,0.789 -0.281,1.199 0,0.543 0.113,1.004 0.332,1.39 0.211,0.375 0.531,0.657 1.004,0.856 0.476,0.199 1,0.301 1.566,0.301 0.691,0 1.262,-0.137 1.715,-0.403 0.449,-0.261 0.738,-0.629 0.902,-1.144 l 0.074,-0.239 1.895,0.325 -0.117,0.324 c -0.293,0.816 -0.844,1.449 -1.61,1.871 -0.761,0.422 -1.679,0.629 -2.742,0.629 z m 0.024,-7.137 c -0.844,0 -1.606,0.137 -2.297,0.399 -0.684,0.265 -1.191,0.636 -1.547,1.121 -0.355,0.484 -0.535,1.043 -0.539,1.715 0.004,0.609 0.16,1.171 0.484,1.703 0.317,0.523 0.774,0.918 1.395,1.199 0.613,0.277 1.441,0.426 2.48,0.426 0.993,0 1.809,-0.188 2.473,-0.555 0.551,-0.309 0.945,-0.715 1.211,-1.25 l -0.715,-0.121 c -0.215,0.523 -0.582,0.945 -1.074,1.23 -0.563,0.325 -1.234,0.481 -2.004,0.481 -0.637,0 -1.234,-0.117 -1.793,-0.348 -0.562,-0.234 -1,-0.605 -1.277,-1.101 -0.274,-0.485 -0.406,-1.047 -0.406,-1.672 0,-0.496 0.117,-0.981 0.339,-1.446 0.239,-0.496 0.653,-0.882 1.207,-1.156 0.563,-0.277 1.243,-0.41 2.032,-0.41 0.691,0 1.289,0.121 1.777,0.375 0.437,0.227 0.781,0.578 1.027,1.031 l 0.7,-0.113 c -0.25,-0.414 -0.614,-0.746 -1.11,-1.012 -0.621,-0.324 -1.402,-0.496 -2.351,-0.496 z"
                 style="fill:#2a3e92;fill-opacity:1;fill-rule:nonzero;stroke:none"
                 id="path168" />
            </g>
          </g>
        </g>
      </g>
      <path
         d="M 218.641,36.652 V 29.75 h 7.101 v 0.824 h -5.793 v 2.098 h 5.414 v 0.824 h -5.414 v 2.332 h 6.024 v 0.824 z"
         style="fill:#313a90;fill-opacity:1;fill-rule:nonzero;stroke:none"
         id="path170" />
      <path
         d="m 218.641,36.941 v -0.289 h 0.285 -0.285 v 0.289 h -0.289 v -7.48 h 7.675 v 1.398 h -5.793 v 1.528 h 5.414 v 1.398 h -5.414 v 1.754 h 6.028 v 1.402 z m 0.285,-0.574 h 6.762 v -0.254 h -6.028 v -2.902 h 5.418 v -0.254 h -5.418 v -2.668 h 5.793 v -0.254 h -6.527 z"
         style="fill:#2a3e92;fill-opacity:1;fill-rule:nonzero;stroke:none"
         id="path172" />
      <g
         id="g174">
        <g
           id="g176">
          <g
             id="g178"
             clip-path="url(#clipPath182)">
            <g
               id="g184">
              <path
                 d="m 229.477,34.43 1.234,-0.071 c 0.059,0.344 0.195,0.621 0.406,0.84 0.211,0.219 0.539,0.399 0.981,0.531 0.445,0.137 0.945,0.208 1.5,0.208 0.492,0 0.925,-0.055 1.304,-0.157 0.375,-0.101 0.657,-0.242 0.84,-0.422 0.188,-0.175 0.278,-0.375 0.278,-0.586 0,-0.214 -0.09,-0.402 -0.266,-0.566 -0.176,-0.16 -0.469,-0.297 -0.879,-0.41 -0.258,-0.07 -0.836,-0.18 -1.73,-0.332 -0.895,-0.153 -1.524,-0.297 -1.891,-0.43 -0.469,-0.176 -0.824,-0.39 -1.055,-0.648 -0.23,-0.254 -0.347,-0.539 -0.347,-0.856 0,-0.351 0.14,-0.676 0.421,-0.98 0.282,-0.305 0.692,-0.531 1.231,-0.692 0.539,-0.156 1.141,-0.234 1.801,-0.234 0.726,0 1.367,0.082 1.922,0.246 0.554,0.164 0.98,0.406 1.281,0.727 0.297,0.32 0.457,0.683 0.48,1.09 l -1.254,0.07 c -0.066,-0.43 -0.293,-0.758 -0.675,-0.977 -0.383,-0.222 -0.946,-0.332 -1.696,-0.332 -0.781,0 -1.347,0.102 -1.703,0.301 -0.355,0.203 -0.535,0.445 -0.535,0.73 0,0.247 0.125,0.45 0.379,0.61 0.246,0.156 0.894,0.32 1.941,0.484 1.047,0.168 1.77,0.317 2.164,0.442 0.575,0.183 1,0.418 1.274,0.703 0.273,0.285 0.41,0.613 0.41,0.984 0,0.367 -0.148,0.715 -0.449,1.039 -0.297,0.324 -0.727,0.574 -1.289,0.754 -0.559,0.176 -1.192,0.266 -1.891,0.266 -0.891,0 -1.637,-0.09 -2.234,-0.27 -0.602,-0.18 -1.075,-0.453 -1.414,-0.82 -0.344,-0.363 -0.524,-0.777 -0.539,-1.242"
                 style="fill:#313a90;fill-opacity:1;fill-rule:nonzero;stroke:none"
                 id="path186" />
            </g>
          </g>
        </g>
      </g>
      <g
         id="g188">
        <g
           id="g190">
          <g
             id="g192"
             clip-path="url(#clipPath196)">
            <g
               id="g198">
              <path
                 d="m 231.348,36.766 c -0.641,-0.192 -1.16,-0.489 -1.543,-0.899 -0.383,-0.406 -0.598,-0.894 -0.617,-1.426 l 0.289,-0.011 0.015,0.285 -0.015,-0.285 -0.289,0.011 -0.008,-0.281 1.769,-0.105 0.047,0.257 c 0.051,0.297 0.16,0.516 0.324,0.688 0.16,0.168 0.446,0.332 0.86,0.457 0.414,0.125 0.886,0.191 1.418,0.191 0.468,0 0.882,-0.046 1.226,-0.144 0.352,-0.094 0.586,-0.219 0.719,-0.352 0.145,-0.14 0.187,-0.25 0.191,-0.382 -0.004,-0.133 -0.043,-0.227 -0.172,-0.352 -0.121,-0.109 -0.378,-0.238 -0.761,-0.344 -0.239,-0.062 -0.817,-0.176 -1.707,-0.328 -0.903,-0.152 -1.539,-0.297 -1.938,-0.445 -0.5,-0.184 -0.894,-0.418 -1.168,-0.723 -0.273,-0.297 -0.426,-0.66 -0.426,-1.047 0,-0.429 0.184,-0.836 0.5,-1.176 0.329,-0.351 0.79,-0.605 1.36,-0.773 0.57,-0.164 1.195,-0.246 1.883,-0.246 0.746,0 1.414,0.086 2.004,0.258 0.589,0.176 1.062,0.437 1.41,0.808 0.336,0.364 0.531,0.797 0.554,1.266 l 0.016,0.289 -1.801,0.102 -0.039,-0.258 c -0.058,-0.356 -0.219,-0.586 -0.535,-0.774 -0.309,-0.179 -0.832,-0.293 -1.551,-0.293 -0.758,0 -1.285,0.106 -1.562,0.266 -0.313,0.184 -0.387,0.328 -0.391,0.48 0.008,0.141 0.051,0.235 0.246,0.368 0.149,0.101 0.805,0.285 1.832,0.445 1.059,0.168 1.782,0.316 2.207,0.449 0.602,0.196 1.071,0.442 1.395,0.778 0.316,0.328 0.492,0.742 0.488,1.183 0.004,0.449 -0.187,0.871 -0.523,1.235 -0.344,0.371 -0.821,0.644 -1.414,0.832 -0.594,0.183 -1.254,0.277 -1.981,0.277 -0.906,0 -1.676,-0.094 -2.312,-0.281 m -1.121,-1.289 c 0.296,0.32 0.718,0.57 1.285,0.738 0.562,0.172 1.281,0.258 2.148,0.258 0.68,0 1.281,-0.086 1.809,-0.25 0.527,-0.168 0.91,-0.399 1.164,-0.676 0.262,-0.289 0.371,-0.559 0.375,-0.844 -0.004,-0.301 -0.106,-0.547 -0.332,-0.789 -0.227,-0.23 -0.61,-0.453 -1.156,-0.625 -0.364,-0.117 -1.079,-0.266 -2.118,-0.43 -1.066,-0.175 -1.703,-0.32 -2.054,-0.527 -0.309,-0.187 -0.516,-0.5 -0.508,-0.852 -0.004,-0.418 0.277,-0.761 0.68,-0.98 0.433,-0.242 1.039,-0.336 1.843,-0.336 0.774,0 1.383,0.109 1.84,0.367 0.371,0.207 0.633,0.535 0.754,0.926 l 0.699,-0.039 c -0.058,-0.223 -0.176,-0.426 -0.359,-0.625 -0.254,-0.273 -0.633,-0.496 -1.152,-0.648 -0.524,-0.153 -1.137,-0.235 -1.84,-0.235 -0.641,0 -1.211,0.078 -1.723,0.227 -0.504,0.144 -0.863,0.355 -1.098,0.609 -0.242,0.266 -0.343,0.512 -0.347,0.785 0.004,0.242 0.086,0.449 0.273,0.664 0.192,0.207 0.5,0.407 0.945,0.571 0.329,0.121 0.95,0.265 1.836,0.414 0.899,0.152 1.473,0.265 1.762,0.343 0.43,0.118 0.758,0.262 0.992,0.473 0.227,0.199 0.364,0.481 0.364,0.774 0,0.3 -0.141,0.582 -0.368,0.796 -0.234,0.227 -0.558,0.379 -0.964,0.493 -0.411,0.109 -0.868,0.164 -1.379,0.164 -0.582,0 -1.11,-0.071 -1.586,-0.219 -0.469,-0.145 -0.84,-0.336 -1.102,-0.606 -0.199,-0.203 -0.34,-0.457 -0.422,-0.738 l -0.691,0.039 c 0.062,0.278 0.199,0.531 0.43,0.778"
                 style="fill:#2a3e92;fill-opacity:1;fill-rule:nonzero;stroke:none"
                 id="path200" />
            </g>
          </g>
        </g>
      </g>
    </g>
  </g>
</svg>
