<?xml version="1.0" encoding="utf-8"?>
<!-- Generator: Adobe Illustrator 21.1.0, SVG Export Plug-In . SVG Version: 6.00 Build 0)  -->
<svg version="1.1" xmlns="http://www.w3.org/2000/svg" xmlns:xlink="http://www.w3.org/1999/xlink" x="0px" y="0px"
	 viewBox="0 0 1124.4 198.1" style="enable-background:new 0 0 1124.4 198.1;" xml:space="preserve">
<style type="text/css">
	.st0{fill:#E4411F;}
	.st1{fill:#7C858E;}
</style>
<g id="Layer_1">
	<g>
		<path class="st0" d="M219.2,66.1c-2.8-1.2-5.7-2.1-8.6-2.7c-0.7-9-3.1-17.5-7-25.2c-2.4,5.8-5.7,11.3-9.4,16.5
			c-9.7,13.1-22.2,23.8-35.4,33c-26.8,18.3-57.1,31-88.6,39.5c-20.3,5.4-41.2,9.1-62.6,10.3c9,14.7,25.2,24.5,43.7,24.5
			c2.8,0,5.5,0,8.3,0c29.3-0.1,58.6-0.2,87.9-0.2c15.6,0,31.3,0.2,46.9,0.1c10-0.1,18.4,0.1,27.4-4.9c8.5-4.7,15.5-11.8,21-19.7
			c5.4-7.8,8.2-17,8.2-26.5C251.1,90.3,238.3,72.6,219.2,66.1z"/>
		<path class="st1" d="M66.6,111c30.5-5.4,60.6-15,87.7-30.4c13.5-7.7,26.3-17,36.6-28.6c4.4-5.1,8.2-10.6,11.1-16.7
			C190.4,14.3,167.8,0,142.1,0c-24.5,0-46.5,12.8-58.8,33c-5.1-2.7-10.8-4.1-16.8-4.1c-19.5,0-35.4,15.5-36.1,34.8
			C12.3,71.9,0,90.2,0,110.6c0,1.6,0.1,3.2,0.2,4.8C22.2,116.6,44.6,114.9,66.6,111z"/>
	</g>
</g>
<g id="Layer_2">
	<path class="st0" d="M388.4,67.3c0,22.6-9.2,36.9-27.6,42.8l33.5,49.9h-27.4l-30.6-46.1h-28.4V160h-21.6V22.8h47.6
		c19.5,0,33.5,3.5,41.9,10.6C384.2,40.4,388.4,51.8,388.4,67.3z M359.7,86.8c4.4-4.1,6.6-10.6,6.6-19.5c0-9-2.3-15.1-6.8-18.5
		c-4.5-3.3-12.6-5-24.2-5h-27.4v49.1h26.9C347,92.9,355.3,90.8,359.7,86.8z"/>
	<path class="st0" d="M486.9,117.4h-76.3c0.5,7.6,3.7,13.7,9.7,18.4c6,4.6,12.8,7,20.5,7c12.2,0,21.5-4.1,27.8-12.4l11.7,13.7
		c-10.5,11.7-24.2,17.5-41,17.5c-13.7,0-25.3-4.9-34.9-14.6c-9.6-9.8-14.4-22.8-14.4-39.3c0-16.4,4.9-29.5,14.6-39.2
		C414.5,58.8,426,54,439.3,54c13.2,0,24.5,4.3,33.8,12.9c9.3,8.6,13.9,20.4,13.9,35.4V117.4z M410.6,100.1h55.8
		c0-8.8-2.6-15.5-7.7-20.2c-5.1-4.7-11.4-7.1-18.9-7.1c-7.5,0-14.2,2.5-20.2,7.4C413.6,85.1,410.6,91.8,410.6,100.1z"/>
	<path class="st0" d="M545.3,54c13.1,0,24.2,4.8,33.5,14.5c9.3,9.7,13.9,22.6,13.9,38.7c0,16.1-4.6,29.2-13.8,39.3
		c-9.2,10.1-19.9,15.1-32.2,15.1c-12.3,0-23.3-5.8-33-17.3v53.8h-20.5V55.6h20.5v18.3C521.7,60.6,532.2,54,545.3,54z M513.2,108
		c0,10,2.8,18.1,8.4,24.4c5.6,6.4,12.4,9.5,20.5,9.5s15.1-3.1,21-9.4c6-6.3,9-14.4,9-24.4s-2.9-18.3-8.8-24.9
		c-5.9-6.6-12.9-9.9-21-9.9c-8.2,0-15.1,3.3-20.7,9.9C516,89.8,513.2,98,513.2,108z"/>
	<path class="st0" d="M688,146c-9.8,10.4-22,15.6-36.6,15.6c-14.6,0-26.8-5.2-36.6-15.6c-9.8-10.4-14.6-23.1-14.6-38.2
		c0-15.1,4.9-27.8,14.6-38.2c9.8-10.4,22-15.6,36.6-15.6c14.6,0,26.8,5.2,36.6,15.6c9.8,10.4,14.6,23.1,14.6,38.2
		C702.7,122.9,697.8,135.6,688,146z M629.4,132.4c5.8,6.4,13.1,9.5,22,9.5c8.9,0,16.3-3.2,22.1-9.5c5.8-6.3,8.7-14.6,8.7-24.6
		c0-10.1-2.9-18.3-8.7-24.6c-5.8-6.3-13.1-9.5-22.1-9.5c-8.9,0-16.3,3.2-22,9.5c-5.8,6.4-8.7,14.6-8.7,24.6
		C620.7,117.9,623.6,126.1,629.4,132.4z"/>
	<path class="st0" d="M758.7,76.2c-10.1,0-17.7,3.5-22.9,10.6c-5.1,7.1-7.7,16.6-7.7,28.5V160h-20.5V55.6h20.5v21
		c3.3-6.5,7.8-11.9,13.4-16.1c5.7-4.2,11.7-6.3,18-6.5l0.2,22.2C759.4,76.2,759,76.2,758.7,76.2z"/>
	<path class="st0" d="M798,73.2v53c0,5,1.2,8.9,3.7,11.9c2.4,2.9,5.9,4.4,10.2,4.4c4.4,0,8.6-2.3,12.6-6.9l8.4,15.5
		c-7.2,6.9-15.2,10.4-23.9,10.4c-8.7,0-16.2-3.2-22.3-9.7c-6.2-6.5-9.2-15.2-9.2-26.2V73.2h-12.3V55.6h12.3V22.8H798v32.8h25.6v17.7
		H798z"/>
	<path class="st1" d="M894.4,128.6c5.9,7.3,13.8,11,23.8,11c10,0,17.9-3.7,23.8-11c5.9-7.3,8.8-17.3,8.8-29.8v-76h21.6v77
		c0,19.8-5.1,35-15.2,45.7c-10.1,10.7-23.1,16-39,16c-15.9,0-28.9-5.3-39-16c-10.1-10.7-15.2-25.9-15.2-45.7v-77h21.6v76
		C885.6,111.3,888.6,121.3,894.4,128.6z"/>
	<path class="st1" d="M1090,67.3c0,22.6-9.2,36.9-27.6,42.8l33.5,49.9h-27.4l-30.6-46.1h-28.4V160h-21.6V22.8h47.6
		c19.5,0,33.5,3.5,41.9,10.6C1085.8,40.4,1090,51.8,1090,67.3z M1061.3,86.8c4.4-4.1,6.6-10.6,6.6-19.5c0-9-2.3-15.1-6.8-18.5
		c-4.5-3.3-12.6-5-24.2-5h-27.4v49.1h26.9C1048.6,92.9,1056.9,90.8,1061.3,86.8z"/>
	<path class="st1" d="M1102.8,22.8h21.6V160h-21.6V22.8z"/>
</g>
</svg>
