<svg width="138" height="55" viewBox="0 0 138 55" fill="none" xmlns="http://www.w3.org/2000/svg">
<path d="M13.3746 19.85C10.6452 19.85 8.43024 22.16 8.43024 25.04C8.43024 27.23 9.71635 29.105 11.5312 29.87L8.58743 41H18.6191L15.7897 29.585C17.3044 28.7 18.3333 26.975 18.3333 25.025C18.3333 22.16 16.1041 19.85 13.3746 19.85Z" fill="#142442"/>
<path d="M26.7512 23.855C26.1653 16.67 20.4063 11 13.3899 11C6.1019 11 0.157192 17.135 0 24.755V24.965C0 25.01 0 25.04 0 25.085V29.75H3.17241V24.92C3.25815 19.07 7.80242 14.33 13.4042 14.33C18.6629 14.33 22.9929 18.5 23.5787 23.855H21.4924L25.0935 30.41L28.7089 23.855H26.7512Z" fill="#CC4466"/>
<path d="M47.8282 31.415C48.6284 31.415 49.2286 31.355 49.6573 31.235C50.086 31.115 50.3004 30.875 50.3004 30.5C50.3004 30.26 50.2289 30.05 50.1003 29.885C49.9717 29.72 49.7859 29.57 49.543 29.45C49.3144 29.33 49.0286 29.21 48.7285 29.105C48.4141 29 48.0997 28.88 47.771 28.775C47.2995 28.625 46.8136 28.46 46.3134 28.265C45.8133 28.07 45.3703 27.83 44.9559 27.53C44.5415 27.23 44.2128 26.855 43.9413 26.405C43.6841 25.955 43.5554 25.37 43.5554 24.695C43.5554 24.14 43.6555 23.615 43.8555 23.12C44.0556 22.625 44.37 22.19 44.7987 21.815C45.2274 21.425 45.7847 21.14 46.4563 20.915C47.128 20.705 47.9425 20.6 48.8714 20.6C49.6859 20.6 50.429 20.66 51.1292 20.795C51.8294 20.93 52.4296 21.11 52.9441 21.35L52.4439 24.245C52.1438 24.155 51.6722 24.005 51.0292 23.78C50.4004 23.57 49.6859 23.465 48.8857 23.465C48.0568 23.465 47.4852 23.57 47.1994 23.78C46.9136 23.99 46.7707 24.215 46.7707 24.455C46.7707 24.665 46.8422 24.845 46.9708 25.01C47.0994 25.16 47.2709 25.31 47.4995 25.43C47.7282 25.565 47.9854 25.685 48.2712 25.805C48.557 25.925 48.8714 26.045 49.2143 26.15C49.6859 26.315 50.1861 26.495 50.7005 26.705C51.215 26.915 51.6865 27.17 52.0867 27.47C52.5011 27.77 52.844 28.16 53.1013 28.625C53.3728 29.105 53.5014 29.675 53.5014 30.365C53.5014 30.905 53.4014 31.415 53.2013 31.895C53.0155 32.375 52.6869 32.795 52.2439 33.14C51.7866 33.485 51.2007 33.77 50.4719 33.98C49.7431 34.19 48.8571 34.295 47.7996 34.295C46.7279 34.295 45.799 34.16 45.0416 33.905C44.2842 33.65 43.6698 33.41 43.2125 33.215L43.7126 30.35C44.3271 30.62 44.9845 30.86 45.6847 31.07C46.3849 31.295 47.0994 31.415 47.8282 31.415ZM61.8468 31.415C62.6471 31.415 63.2473 31.355 63.676 31.235C64.1047 31.115 64.319 30.875 64.319 30.5C64.319 30.26 64.2476 30.05 64.119 29.885C63.9904 29.72 63.8046 29.57 63.5617 29.45C63.333 29.33 63.0472 29.21 62.7471 29.105C62.4327 29 62.1183 28.88 61.7897 28.775C61.3181 28.625 60.8322 28.46 60.3321 28.265C59.8319 28.07 59.3889 27.83 58.9745 27.53C58.5601 27.23 58.2314 26.855 57.9599 26.405C57.7027 25.955 57.5741 25.37 57.5741 24.695C57.5741 24.14 57.6741 23.615 57.8742 23.12C58.0742 22.625 58.3886 22.19 58.8173 21.815C59.246 21.425 59.8033 21.14 60.475 20.915C61.1466 20.705 61.9612 20.6 62.89 20.6C63.7046 20.6 64.4476 20.66 65.1479 20.795C65.8481 20.93 66.4483 21.11 66.9627 21.35L66.4626 24.245C66.1625 24.155 65.6909 24.005 65.0478 23.78C64.4191 23.57 63.7046 23.465 62.9043 23.465C62.0755 23.465 61.5039 23.57 61.2181 23.78C60.9323 23.99 60.7894 24.215 60.7894 24.455C60.7894 24.665 60.8608 24.845 60.9894 25.01C61.118 25.16 61.2895 25.31 61.5182 25.43C61.7468 25.565 62.004 25.685 62.2898 25.805C62.5756 25.925 62.89 26.045 63.233 26.15C63.7046 26.315 64.2047 26.495 64.7192 26.705C65.2336 26.915 65.7052 27.17 66.1053 27.47C66.5197 27.77 66.8627 28.16 67.1199 28.625C67.3914 29.105 67.52 29.675 67.52 30.365C67.52 30.905 67.42 31.415 67.2199 31.895C67.0342 32.375 66.7055 32.795 66.2625 33.14C65.8052 33.485 65.2193 33.77 64.4905 33.98C63.7617 34.19 62.8757 34.295 61.8183 34.295C60.7465 34.295 59.8176 34.16 59.0603 33.905C58.3029 33.65 57.6884 33.41 57.2311 33.215L57.7313 30.35C58.3457 30.62 59.0031 30.86 59.7033 31.07C60.4178 31.295 61.1323 31.415 61.8468 31.415ZM82.2103 33.44C82.1531 33.485 82.0388 33.545 81.8531 33.635C81.6673 33.725 81.4243 33.83 81.1242 33.92C80.8242 34.025 80.4669 34.1 80.0239 34.175C79.5952 34.25 79.1093 34.295 78.5663 34.295C77.0658 34.295 75.9655 33.83 75.2796 32.885C74.5937 31.94 74.2507 30.575 74.2507 28.79V17.69H70.8068V14.87H77.5088V29.06C77.5088 29.945 77.6803 30.545 78.009 30.86C78.3377 31.175 78.7664 31.34 79.2808 31.34C79.9382 31.34 80.4812 31.25 80.9242 31.07C81.3672 30.875 81.653 30.755 81.7959 30.71L82.2103 33.44Z" fill="#142442"/>
<path d="M84.9397 21.455C85.9972 21.035 86.9975 20.825 87.9406 20.825C88.4551 20.825 88.9267 20.9 89.384 21.065C89.8269 21.215 90.2128 21.47 90.5415 21.8C91.2988 21.155 92.1134 20.825 92.9708 20.825C93.3995 20.825 93.7996 20.915 94.1712 21.08C94.557 21.245 94.8857 21.485 95.1858 21.83C95.4716 22.16 95.7145 22.58 95.886 23.09C96.0575 23.585 96.1432 24.17 96.1432 24.845V34.025H94.1569V24.77C94.1569 24.095 94.014 23.585 93.7282 23.24C93.4424 22.895 93.0994 22.715 92.6707 22.715C92.4563 22.715 92.242 22.775 92.0133 22.88C91.7847 23 91.5704 23.165 91.3703 23.405C91.4703 23.84 91.5275 24.305 91.5275 24.83V29.03H89.5411V24.785C89.5411 24.14 89.4411 23.63 89.2411 23.27C89.041 22.895 88.6694 22.715 88.0978 22.715C87.7406 22.715 87.3405 22.805 86.8975 22.97V34.01H84.9111V21.455H84.9397ZM104.646 32.36C105.189 32.36 105.675 32.345 106.103 32.3C106.532 32.27 106.889 32.21 107.175 32.165V28.325C106.889 28.235 106.561 28.16 106.161 28.1C105.76 28.04 105.346 28.01 104.903 28.01C104.489 28.01 104.089 28.04 103.703 28.115C103.317 28.175 102.974 28.295 102.674 28.46C102.374 28.625 102.131 28.85 101.931 29.105C101.745 29.375 101.645 29.705 101.645 30.11C101.645 30.95 101.916 31.535 102.445 31.85C103.002 32.195 103.731 32.36 104.646 32.36ZM104.432 20.795C105.346 20.795 106.118 20.915 106.747 21.155C107.375 21.395 107.875 21.725 108.261 22.16C108.647 22.58 108.933 23.105 109.09 23.72C109.247 24.32 109.333 24.995 109.333 25.715V33.785C108.819 33.875 108.147 33.995 107.304 34.115C106.461 34.25 105.603 34.31 104.732 34.31C104.06 34.31 103.403 34.25 102.76 34.13C102.131 34.01 101.559 33.8 101.059 33.5C100.559 33.2 100.173 32.765 99.8586 32.225C99.5586 31.685 99.4156 30.995 99.4156 30.17C99.4156 29.435 99.5728 28.805 99.8729 28.295C100.187 27.785 100.587 27.365 101.073 27.05C101.559 26.735 102.116 26.51 102.745 26.375C103.374 26.24 104.003 26.165 104.646 26.165C105.503 26.165 106.361 26.27 107.19 26.465V25.835C107.19 25.445 107.147 25.07 107.075 24.71C106.989 24.35 106.847 24.02 106.618 23.72C106.404 23.42 106.103 23.18 105.718 23.015C105.346 22.835 104.846 22.745 104.26 22.745C103.503 22.745 102.831 22.805 102.274 22.91C101.716 23.03 101.273 23.135 100.973 23.24L100.702 21.35C101.002 21.2 101.488 21.065 102.188 20.96C102.888 20.84 103.631 20.795 104.432 20.795ZM118.35 21.095H123.537V23.015H118.35V29.03C118.35 29.675 118.393 30.215 118.479 30.62C118.564 31.025 118.707 31.355 118.922 31.61C119.122 31.865 119.393 32.03 119.708 32.135C120.022 32.225 120.422 32.27 120.879 32.27C121.523 32.27 122.023 32.21 122.409 32.105C122.794 32 123.166 31.85 123.523 31.655L123.838 33.605C123.58 33.725 123.194 33.86 122.651 34.055C122.108 34.25 121.451 34.34 120.651 34.34C119.736 34.34 118.979 34.22 118.393 34.01C117.807 33.785 117.364 33.455 117.035 33.005C116.707 32.555 116.478 32.015 116.364 31.355C116.235 30.695 116.178 29.93 116.178 29.06V23.015H113.577V21.095H116.178V17.48L118.35 17.09V21.095V21.095ZM132.797 20.795C134.455 20.795 135.741 21.335 136.627 22.43C137.528 23.51 137.985 25.16 137.985 27.365V28.16H129.196C129.282 29.495 129.711 30.515 130.454 31.205C131.211 31.895 132.269 32.24 133.626 32.24C134.412 32.24 135.07 32.18 135.613 32.045C136.156 31.925 136.57 31.775 136.856 31.625L137.156 33.575C136.884 33.725 136.413 33.89 135.727 34.055C135.041 34.22 134.255 34.31 133.398 34.31C132.34 34.31 131.397 34.13 130.611 33.785C129.811 33.44 129.139 32.975 128.61 32.375C128.082 31.775 127.682 31.07 127.41 30.245C127.139 29.42 127.01 28.535 127.01 27.56C127.01 26.42 127.181 25.415 127.51 24.56C127.853 23.705 128.296 23 128.839 22.445C129.382 21.89 129.997 21.47 130.697 21.185C131.368 20.93 132.069 20.795 132.797 20.795ZM135.77 26.3C135.77 25.205 135.498 24.35 134.941 23.705C134.398 23.06 133.669 22.745 132.769 22.745C132.254 22.745 131.783 22.85 131.383 23.06C130.968 23.255 130.611 23.525 130.311 23.855C130.011 24.185 129.768 24.575 129.596 24.995C129.425 25.415 129.311 25.85 129.254 26.3H135.77V26.3Z" fill="#142442"/>
</svg>
