<?xml version="1.0" encoding="UTF-8"?>
<!-- Created with Inkscape (http://www.inkscape.org/) -->
<svg width="69.749mm" height="21.02mm" version="1.1" viewBox="0 0 69.749 21.02" xml:space="preserve" xmlns="http://www.w3.org/2000/svg"><g transform="translate(-56.718 -48.132)"><g transform="matrix(.065978 0 0 .065978 52.152 49.758)"><g transform="matrix(10.893,0,0,10.893,-519.48,356.2)"><g transform="translate(69.924,-4.7193)"><g transform="matrix(.82986 0 0 .82986 5.2024 -2.8041)"><g transform="matrix(.66679 0 0 .66679 10.531 -62.466)"><g transform="matrix(-1,0,0,1,181.66,-2.2614)" fill="#fc0" stroke-width=".26458"><path transform="matrix(.096937 0 0 .096937 70.507 57.25)" d="m130.97 32.92 8.7129 17.654 19.483 2.831-14.098 13.742 3.328 19.404-17.426-9.1613-17.426 9.1613 3.328-19.404-14.098-13.742 19.483-2.831z"/><g transform="translate(-1.2981 .79537)"><path transform="matrix(.096937 0 0 .096937 68.841 61.534)" d="m130.97 32.92 8.7129 17.654 19.483 2.831-14.098 13.742 3.328 19.404-17.426-9.1613-17.426 9.1613 3.328-19.404-14.098-13.742 19.483-2.831z"/><path transform="matrix(.096937 0 0 .096937 65.94 66.67)" d="m130.97 32.92 8.7129 17.654 19.483 2.831-14.098 13.742 3.328 19.404-17.426-9.1613-17.426 9.1613 3.328-19.404-14.098-13.742 19.483-2.831z"/></g><g transform="translate(-7.2248,11.031)"><path transform="matrix(.096937 0 0 .096937 68.841 61.534)" d="m130.97 32.92 8.7129 17.654 19.483 2.831-14.098 13.742 3.328 19.404-17.426-9.1613-17.426 9.1613 3.328-19.404-14.098-13.742 19.483-2.831z"/><path transform="matrix(.096937 0 0 .096937 65.94 66.67)" d="m130.97 32.92 8.7129 17.654 19.483 2.831-14.098 13.742 3.328 19.404-17.426-9.1613-17.426 9.1613 3.328-19.404-14.098-13.742 19.483-2.831z"/></g></g></g><path class="UnoptimicedTransforms" transform="matrix(.66679 0 0 .66679 10.531 -62.466)" d="m91.014 44.095-15.238 26.394-15.239 26.394h60.954l-5.9412-10.29h-6.3857l2.7487 4.7604h-41.797l20.898-36.198 2.8593 4.9527 3.1931-5.5299z" fill="#94e6ff" stroke-width=".26458"/><g stroke-width=".26458" aria-label="Stellastra"><path d="m-25.332 1.1877v-3.9687q1.079 0.90537 2.344 1.3643 1.265 0.44648 2.5549 0.44648 0.75654 0 1.3146-0.13643 0.57051-0.13643 0.94258-0.37207 0.38447-0.24805 0.57051-0.57051 0.18604-0.33486 0.18604-0.71934 0-0.5209-0.29766-0.93018-0.29766-0.40928-0.81856-0.75654-0.5085-0.34727-1.2154-0.66973-0.70693-0.32246-1.5255-0.65732-2.0836-0.86816-3.113-2.1208-1.017-1.2526-1.017-3.0262 0-1.3891 0.5581-2.3812 0.55811-1.0046 1.5131-1.6495 0.96738-0.64492 2.2324-0.94258 1.265-0.31006 2.6789-0.31006 1.3891 0 2.4557 0.17363 1.079 0.16123 1.9844 0.5085v3.7083q-0.44648-0.31006-0.97978-0.5457-0.5209-0.23564-1.079-0.38447-0.5581-0.16123-1.1162-0.23564-0.5457-0.07441-1.0418-0.07441-0.68213 0-1.2402 0.13643-0.5581 0.12402-0.94258 0.35967-0.38447 0.23564-0.59531 0.57051-0.21084 0.32246-0.21084 0.73174 0 0.44648 0.23564 0.80615 0.23564 0.34727 0.66973 0.66973 0.43408 0.31006 1.0542 0.62012 0.62012 0.29766 1.4015 0.62012 1.0666 0.44648 1.91 0.95498 0.85576 0.49609 1.4635 1.1286t0.93018 1.4511q0.32246 0.80615 0.32246 1.8852 0 1.4883-0.57051 2.5053-0.5581 1.0046-1.5255 1.6371-0.96738 0.62012-2.2572 0.89297-1.2774 0.27285-2.7037 0.27285-1.4635 0-2.7905-0.24805-1.3146-0.24805-2.282-0.74414z"/><path d="m-3.615 1.721q-0.86816 0.45889-2.6169 0.45889-4.1424 0-4.1424-4.3036v-5.8167h-2.0588v-2.8897h2.0588v-2.7409l3.9067-1.1162v3.8571h2.8525v2.8897h-2.8525v5.1346q0 1.9844 1.5751 1.9844 0.62012 0 1.2774-0.35967z"/><path d="m9.9035-3.364h-8.2848q0.19844 2.7657 3.4851 2.7657 2.096 0 3.6835-0.99219v2.8277q-1.7611 0.94258-4.5765 0.94258-3.0758 0-4.7749-1.6991-1.6991-1.7115-1.6991-4.7625 0-3.1626 1.8355-5.0105 1.8355-1.8479 4.5145-1.8479 2.7781 0 4.2912 1.6495 1.5255 1.6495 1.5255 4.4772zm-3.6339-2.4061q0-2.7285-2.2076-2.7285-0.94258 0-1.6371 0.78135-0.68213 0.78135-0.83096 1.9472z"/><path d="m16.154 1.8698h-3.9191v-18.802h3.9191z"/><path d="m23.372 1.8698h-3.9191v-18.802h3.9191z"/><path d="m37.238 1.8698h-3.7083v-1.8231h-0.04961q-1.2774 2.1332-3.7827 2.1332-1.8479 0-2.9146-1.0418-1.0542-1.0542-1.0542-2.8029 0-3.6959 4.378-4.2664l3.4479-0.45889q0-2.0836-2.2572-2.0836-2.2696 0-4.316 1.3519v-2.9518q0.81855-0.42168 2.2324-0.74414 1.4263-0.32246 2.5921-0.32246 5.4322 0 5.4322 5.4198zm-3.6835-5.1594v-0.85576l-2.3068 0.29766q-1.91 0.24805-1.91 1.7239 0 0.66973 0.45889 1.1038 0.47129 0.42168 1.265 0.42168 1.1038 0 1.7983-0.75654 0.69453-0.76895 0.69453-1.9348z"/><path d="m39.508 1.5349v-3.175q0.96738 0.58291 1.9224 0.86816 0.96738 0.28525 1.8231 0.28525 1.0418 0 1.6371-0.28525 0.60772-0.28525 0.60772-0.86816 0-0.37207-0.27285-0.62012-0.27285-0.24805-0.70693-0.43408-0.42168-0.18604-0.93018-0.33486t-0.97978-0.33486q-0.75654-0.28525-1.3395-0.60771-0.57051-0.33486-0.96738-0.76895-0.38447-0.43408-0.59531-1.0046-0.19844-0.57051-0.19844-1.3519 0-1.0666 0.45889-1.8355 0.47129-0.76895 1.2402-1.2526 0.78135-0.49609 1.7735-0.71934 1.0046-0.23564 2.0836-0.23564 0.84336 0 1.7115 0.13643 0.86816 0.12402 1.7115 0.37207v3.0262q-0.74414-0.43408-1.5999-0.64492-0.84336-0.22324-1.6619-0.22324-0.38447 0-0.73174 0.074414-0.33486 0.062012-0.59531 0.19844-0.26045 0.12402-0.40928 0.33486-0.14883 0.19844-0.14883 0.45889 0 0.34727 0.22324 0.59531 0.22324 0.24805 0.58291 0.43408 0.35967 0.17363 0.79375 0.32246 0.44648 0.13643 0.88057 0.28525 0.78135 0.27285 1.4139 0.59531 0.63252 0.32246 1.079 0.75654 0.45889 0.43408 0.69453 1.017 0.24805 0.58291 0.24805 1.3891 0 1.1286-0.49609 1.9348-0.48369 0.79375-1.3022 1.3022-0.80615 0.49609-1.8728 0.71934-1.0542 0.23564-2.1952 0.23564-2.096 0-3.8819-0.64492z"/><path d="m59.19 1.721q-0.86816 0.45889-2.6169 0.45889-4.1424 0-4.1424-4.3036v-5.8167h-2.0588v-2.8897h2.0588v-2.7409l3.9067-1.1162v3.8571h2.8525v2.8897h-2.8525v5.1346q0 1.9844 1.5751 1.9844 0.62012 0 1.2774-0.35967z"/><path d="m69.683-7.2955q-0.70693-0.38447-1.6495-0.38447-1.2774 0-1.9968 0.94258-0.71934 0.93018-0.71934 2.5425v6.0647h-3.9191v-12.7h3.9191v2.3564h0.04961q0.93018-2.5797 3.3486-2.5797 0.62012 0 0.96738 0.14883z"/><path d="m82.073 1.8698h-3.7083v-1.8231h-0.04961q-1.2774 2.1332-3.7827 2.1332-1.8479 0-2.9146-1.0418-1.0542-1.0542-1.0542-2.8029 0-3.6959 4.378-4.2664l3.4479-0.45889q0-2.0836-2.2572-2.0836-2.2696 0-4.316 1.3519v-2.9518q0.81856-0.42168 2.2324-0.74414 1.4263-0.32246 2.5921-0.32246 5.4322 0 5.4322 5.4198zm-3.6835-5.1594v-0.85576l-2.3068 0.29766q-1.91 0.24805-1.91 1.7239 0 0.66973 0.45889 1.1038 0.47129 0.42168 1.265 0.42168 1.1038 0 1.7983-0.75654 0.69453-0.76895 0.69453-1.9348z"/></g></g></g></g></g></g></svg>
