<?xml version="1.0" encoding="UTF-8"?>
<svg width="182px" height="41px" viewBox="0 0 182 41" version="1.1" xmlns="http://www.w3.org/2000/svg" xmlns:xlink="http://www.w3.org/1999/xlink">
    <title>亚洲诚信logo</title>
    <g id="页面-1" stroke="none" stroke-width="1" fill="none" fill-rule="evenodd">
        <g id="CA-策略信息-英文" transform="translate(-360.000000, -25.000000)">
            <g id="Nav">
                <g id="亚洲诚信logo" transform="translate(360.000000, 25.000000)">
                    <g id="XMLID_191_" fill-rule="nonzero">
                        <path d="M37.908,37.98 C38.34,37.512 38.664,37.116 38.844,36.36 C39.852,31.248 40.392,25.776 40.392,20.376 C40.392,14.94 39.852,9.648 38.844,4.536 C38.7,3.816 38.34,3.24 37.872,2.736 C37.404,2.34 36.972,2.016 36.252,1.872 C31.104,0.864 25.812,0.324 20.34,0.324 C14.904,0.324 9.576,0.864 4.428,1.872 C3.708,2.016 3.204,2.448 2.736,2.844 C2.34,3.312 1.944,3.78 1.8,4.536 C0.792,9.684 0.252,14.976 0.252,20.412 C0.252,25.848 0.792,31.176 1.8,36.288 C1.944,37.008 2.268,37.512 2.736,38.052 C3.168,38.448 3.672,38.772 4.428,38.916 C9.576,39.924 14.868,40.464 20.304,40.464 C25.74,40.464 31.068,39.924 36.216,38.916 C36.972,38.736 37.476,38.448 37.908,37.98 Z" id="XMLID_201_" fill="#C6272A"></path>
                        <g id="XMLID_192_" transform="translate(5.400000, 5.400000)" fill="#FFFFFF">
                            <path d="M9.684,15.552 L9.684,15.552 L10.764,15.552 L25.992,15.552 C26.388,15.552 26.676,15.192 26.64,14.832 C26.604,14.292 26.532,13.464 26.532,12.888 C26.532,12.528 26.208,12.24 25.848,12.24 L17.856,12.24 L9.684,12.24 C9.288,12.24 9.108,12.6 9.108,12.78 C9.108,13.032 9.036,14.832 9.036,14.832 C9.036,15.264 9.432,15.552 9.684,15.552 Z" id="XMLID_200_"></path>
                            <path d="M29.7,28.584 C28.728,25.956 27.612,22.536 27,17.892 C26.964,17.604 26.676,17.28 26.316,17.28 L9.684,17.244 C9.144,17.244 8.82,17.712 8.82,18 C8.712,19.836 7.992,24.48 7.596,26.316 C7.452,26.892 7.92,27.396 8.46,27.396 L21.384,27.396 C21.96,27.396 22.248,26.82 22.176,26.46 L21.924,24.948 C21.816,24.408 21.384,24.012 20.808,24.012 L13.14,24.012 C12.636,24.012 12.348,23.544 12.384,23.22 C12.384,23.22 12.636,20.988 12.636,20.916 C12.672,20.628 12.924,20.268 13.356,20.268 L21.996,20.268 C22.356,20.268 22.788,20.52 22.824,21.024 C23.148,23.688 23.724,26.892 24.336,28.872 C24.48,29.412 24.912,29.556 25.236,29.556 L28.908,29.556 C29.484,29.628 29.88,29.052 29.7,28.584 Z" id="XMLID_199_"></path>
                            <path d="M25.92,7.272 L9.504,7.272 C9.252,7.272 9.072,7.488 9.072,7.704 C9.108,8.46 9.144,10.008 9.144,10.152 C9.144,10.368 9.324,10.548 9.576,10.548 L21.384,10.548 L26.028,10.548 C26.316,10.548 26.532,10.296 26.532,10.044 C26.532,9.504 26.568,8.532 26.604,7.884 C26.568,7.524 26.172,7.272 25.92,7.272 Z" id="XMLID_198_"></path>
                            <path d="M7.524,8.964 C7.524,8.136 7.452,7.272 7.416,6.444 C7.38,6.048 7.128,2.484 6.876,1.08 C6.804,0.684 6.408,0.36 6.084,0.36 L1.368,0.36 L1.368,0.36 C0.9,0.36 0.828,0.432 0.648,0.612 C0.504,0.756 0.504,1.044 0.576,1.512 L0.9,3.6 C0.972,4.032 1.296,4.284 1.656,4.284 L2.376,4.284 C2.88,4.284 3.132,4.68 3.132,5.004 C3.132,6.012 3.132,7.092 3.096,8.208 C3.096,8.568 3.06,8.964 3.06,9.324 C3.024,10.08 2.844,12.528 2.844,12.96 C2.7,15.372 2.268,18.072 2.196,18.828 C1.692,22.5 0.972,25.992 0.252,28.764 C0.144,29.304 0.612,29.628 0.936,29.628 L4.32,29.628 C4.464,29.628 5.148,29.52 5.328,28.8 C6.336,25.056 6.984,21.096 7.344,17.172 C7.344,17.172 7.38,16.596 7.416,16.344 C7.488,15.588 7.524,14.868 7.56,14.112 C7.596,13.608 7.596,13.14 7.632,12.636 C7.668,11.88 7.668,11.088 7.668,10.332 C7.524,9.864 7.524,9.432 7.524,8.964 Z" id="XMLID_197_"></path>
                            <path d="M8.928,5.112 C8.928,5.292 9.144,5.544 9.432,5.544 L25.776,5.544 C26.424,5.544 26.784,5.004 26.784,4.608 C26.856,3.528 26.928,2.088 27,1.116 C27.036,0.648 26.64,0.324 26.244,0.324 L26.244,0.324 L22.608,0.324 C22.284,0.324 22.068,0.612 22.068,0.792 L21.96,1.836 C21.96,2.052 21.78,2.232 21.528,2.232 L9.36,2.232 C8.928,2.232 8.64,2.628 8.676,2.988 C8.784,3.636 8.892,4.5 8.928,5.112 Z" id="XMLID_194_"></path>
                        </g>
                    </g>
                    <g id="XMLID_115_" transform="translate(47.880000, 2.160000)" fill="#000000" fill-rule="nonzero">
                        <path d="M10.404,10.764 L14.256,10.764 L14.256,5.112 L10.404,5.112 L10.404,2.412 L14.76,2.412 L14.76,1.08 L0.756,1.08 L0.756,2.376 L5.076,2.376 L5.076,5.076 L1.296,5.076 L1.296,10.728 L5.076,10.728 L5.076,13.896 L0.324,13.896 L0.324,15.192 L15.228,15.192 L15.228,13.896 L10.368,13.896 L10.368,10.764 L10.404,10.764 Z M2.592,9.504 L2.592,6.372 L6.372,6.372 L6.372,2.412 L9.072,2.412 L9.072,6.372 L12.96,6.372 L12.96,9.504 L9.108,9.504 L9.108,13.932 L6.408,13.932 L6.408,9.504 L2.592,9.504 Z" id="XMLID_144_"></path>
                        <g id="XMLID_136_" transform="translate(61.200000, 0.000000)">
                            <rect id="XMLID_143_" x="5.364" y="7.452" width="9.036" height="1.224"></rect>
                            <path d="M5.508,16.02 L6.804,16.02 L6.804,15.048 L12.924,15.048 L12.924,16.02 L14.22,16.02 L14.22,10.044 L5.508,10.044 L5.508,16.02 L5.508,16.02 Z M12.96,11.268 L12.96,13.824 L6.84,13.824 L6.84,11.268 L12.96,11.268 Z" id="XMLID_140_"></path>
                            <path d="M10.26,2.268 L10.728,2.016 L10.692,1.944 C10.332,1.296 9.972,0.684 9.612,0.108 L9.576,0.072 L8.46,0.684 L8.496,0.756 C8.82,1.26 9.108,1.764 9.396,2.268 L4.536,2.268 L4.536,3.528 L15.3,3.528 L15.3,2.268 L10.26,2.268 Z" id="XMLID_139_"></path>
                            <path d="M4.824,0.504 L3.528,0.108 L3.492,0.18 C2.736,2.952 1.62,5.544 0.18,7.848 L0.144,7.884 L0.144,7.92 C0.324,8.316 0.468,8.748 0.648,9.216 L0.684,9.324 L0.756,9.216 C1.224,8.568 1.656,7.848 2.088,7.092 L2.088,16.02 L3.348,16.02 L3.348,4.536 C3.852,3.348 4.32,2.016 4.788,0.576 L4.824,0.504 Z" id="XMLID_138_"></path>
                            <rect id="XMLID_137_" x="5.364" y="4.86" width="9.036" height="1.224"></rect>
                        </g>
                        <g id="XMLID_126_" transform="translate(40.680000, 0.000000)">
                            <path d="M14.04,2.808 L14.076,2.88 L14.904,1.908 L14.868,1.872 C14.22,1.224 13.644,0.684 13.104,0.252 L13.068,0.216 L12.348,1.08 L12.384,1.116 C12.996,1.656 13.572,2.232 14.04,2.808 Z" id="XMLID_135_"></path>
                            <path d="M14.472,11.484 L14.4,11.448 L14.4,11.556 C14.328,12.6 14.256,13.356 14.184,13.788 C14.148,13.968 14.04,14.148 13.932,14.184 C13.824,14.22 13.608,14.112 13.248,13.5 C13.068,13.212 12.888,12.708 12.744,12.024 C13.68,10.548 14.508,8.784 15.192,6.804 L15.228,6.732 L14.04,6.12 L14.004,6.192 C13.572,7.668 13.068,9 12.456,10.152 C12.24,6.876 12.132,4.896 12.096,4.32 L15.444,4.32 L15.444,3.024 L12.06,3.024 C12.024,2.052 12.024,1.08 12.024,0.216 L12.024,0.144 L10.8,0.144 L10.8,0.216 C10.836,1.152 10.836,2.088 10.872,3.024 L6.192,3.024 L6.192,8.892 C6.192,11.196 5.832,12.996 5.148,14.256 L5.148,9.864 L0.972,9.864 L0.972,15.696 L2.088,15.696 L2.088,14.724 L4.86,14.724 C4.788,14.832 4.716,14.94 4.644,15.012 L4.608,15.084 L4.644,15.12 C4.932,15.372 5.22,15.66 5.472,16.02 L5.508,16.092 L5.544,16.02 C6.264,15.012 6.768,13.752 7.056,12.276 L7.056,12.312 C7.128,12.564 7.2,12.924 7.308,13.536 L7.308,13.608 L7.344,13.608 C7.524,13.608 7.776,13.608 8.208,13.608 C8.784,13.608 9.252,13.464 9.54,13.14 C9.864,12.816 10.044,12.276 10.044,11.592 C10.08,10.548 10.116,8.964 10.152,6.696 L10.152,6.624 L7.308,6.624 L7.308,4.32 L10.836,4.32 C11.016,7.848 11.196,10.332 11.448,11.772 C10.656,12.924 9.684,13.932 8.604,14.76 L8.532,14.796 L8.604,14.868 C8.892,15.192 9.144,15.516 9.36,15.804 L9.396,15.876 L9.468,15.84 C10.296,15.156 11.088,14.328 11.808,13.392 C11.916,13.752 12.024,14.004 12.168,14.184 C12.708,15.228 13.356,15.768 14.112,15.804 C14.688,15.732 15.084,15.228 15.264,14.328 C15.336,14.004 15.408,13.284 15.552,11.988 L15.552,11.916 L15.516,11.916 C15.192,11.808 14.868,11.664 14.472,11.484 Z M3.996,11.052 L3.996,13.536 L2.088,13.536 L2.088,11.052 L3.996,11.052 Z M7.092,12.24 C7.272,11.34 7.344,10.368 7.344,9.288 L7.344,7.884 L9.036,7.884 C9.036,8.928 9,10.08 8.964,11.304 C8.964,11.664 8.892,11.952 8.712,12.132 C8.568,12.276 8.388,12.348 8.136,12.312 C7.92,12.312 7.596,12.276 7.164,12.24 L7.092,12.24 Z" id="XMLID_130_"></path>
                            <rect id="XMLID_129_" x="0.864" y="4.896" width="4.392" height="1.188"></rect>
                            <rect id="XMLID_128_" x="0.864" y="7.38" width="4.392" height="1.188"></rect>
                            <path d="M5.868,2.412 L3.42,2.412 L3.996,2.088 L3.96,2.016 C3.636,1.404 3.276,0.756 2.844,0.072 L2.808,0.036 L1.62,0.684 L1.656,0.756 C1.98,1.332 2.304,1.908 2.556,2.448 L0.288,2.448 L0.288,3.636 L5.868,3.636 L5.868,2.412 L5.868,2.412 Z" id="XMLID_127_"></path>
                        </g>
                        <g id="XMLID_116_" transform="translate(20.520000, 0.360000)">
                            <path d="M2.412,7.236 L2.448,7.164 C2.556,7.02 2.7,6.876 2.844,6.66 C2.952,6.516 3.096,6.336 3.24,6.156 L3.276,6.084 L3.24,6.048 C2.484,5.364 1.656,4.716 0.828,4.104 L0.792,4.068 L0,5.04 L0.072,5.076 C0.828,5.688 1.584,6.408 2.34,7.128 L2.412,7.236 Z" id="XMLID_125_"></path>
                            <path d="M3.132,9.216 L3.06,9.18 C2.664,9.036 2.304,8.892 1.908,8.712 L1.836,8.676 L1.836,8.748 C1.476,10.8 0.972,12.852 0.396,14.904 L0.36,14.976 L1.728,15.444 L1.728,15.372 C2.196,13.248 2.628,11.16 3.096,9.252 L3.132,9.216 Z" id="XMLID_124_"></path>
                            <path d="M5.832,5.256 C5.832,7.812 5.652,9.684 5.292,10.836 C4.896,12.168 4.14,13.392 3.06,14.472 L3.024,14.508 L3.06,14.544 C3.348,14.868 3.636,15.192 3.924,15.552 L3.96,15.624 L3.996,15.588 C5.256,14.292 6.084,12.888 6.48,11.484 C6.876,10.224 7.092,8.1 7.056,5.184 L7.056,0.108 L5.796,0.108 L5.796,5.256 L5.832,5.256 Z" id="XMLID_123_"></path>
                            <path d="M8.208,4.464 L8.172,4.392 L7.164,4.752 L7.2,4.824 C7.596,5.976 7.92,7.2 8.208,8.424 L8.208,8.496 L9.324,8.136 L9.288,8.064 C9,6.732 8.604,5.544 8.208,4.464 Z" id="XMLID_122_"></path>
                            <path d="M3.06,3.348 L3.096,3.384 L3.276,3.168 C3.492,2.916 3.744,2.664 3.996,2.34 L4.032,2.304 L3.996,2.268 C3.204,1.512 2.376,0.756 1.548,0.072 L1.512,0.036 L0.684,0.972 L0.72,1.008 C1.332,1.584 2.124,2.34 3.06,3.348 Z" id="XMLID_121_"></path>
                            <rect id="XMLID_120_" x="9.576" y="0.684" width="1.26" height="13.824"></rect>
                            <path d="M3.168,8.352 L3.24,8.388 C3.6,8.496 3.924,8.64 4.248,8.784 L4.32,8.82 L4.356,8.748 C4.752,7.596 5.148,6.264 5.544,4.752 L5.544,4.68 L4.392,4.32 L4.392,4.392 C4.104,5.76 3.744,7.056 3.24,8.28 L3.168,8.352 Z" id="XMLID_119_"></path>
                            <rect id="XMLID_118_" x="13.176" y="0.108" width="1.26" height="15.336"></rect>
                            <path d="M11.88,4.572 L11.844,4.5 L10.836,4.86 L10.872,4.932 C11.232,6.084 11.556,7.308 11.844,8.532 L11.844,8.604 L12.96,8.208 L12.924,8.136 C12.6,6.876 12.24,5.688 11.88,4.572 Z" id="XMLID_117_"></path>
                        </g>
                    </g>
                    <path d="M177.012,33.732 L177.012,30.384 C177.012,30.384 177.012,30.384 177.012,30.384 C177.012,30.168 177.012,28.332 177.012,27.612 C177.156,23.436 170.676,24.984 168.624,26.064 L168.624,22.212 C171.648,21.312 177.336,20.664 179.928,22.86 C181.008,23.76 181.512,25.128 181.512,27 L181.512,37.908 C177.048,35.208 172.44,40.752 168.732,36.936 C167.832,36 167.364,34.776 167.364,33.336 C167.364,32.148 167.58,31.212 168.048,30.456 C168.516,29.7 169.164,29.124 170.028,28.692 C170.856,28.26 171.9,27.972 173.16,27.792 C173.952,27.684 174.78,27.576 175.608,27.504 L175.608,30.564 C175.428,30.6 175.212,30.6 174.996,30.636 C174.276,30.744 173.736,30.852 173.376,30.996 C172.908,31.14 172.584,31.392 172.332,31.716 C172.08,32.04 171.972,32.436 171.972,32.94 C171.972,33.264 172.008,33.552 172.044,33.768 C172.08,33.984 172.224,34.164 172.404,34.38 C172.584,34.56 172.836,34.704 173.088,34.812 C173.34,34.92 173.772,34.956 174.348,34.956 C174.78,34.956 175.248,34.848 175.716,34.632 C176.256,34.38 176.652,34.092 177.012,33.732 L177.012,33.732 Z" id="XMLID_112_" fill="#C6272A"></path>
                    <polygon id="XMLID_108_" fill="#C6272A" points="165.24 38.34 160.704 38.34 160.704 21.384 165.24 21.384"></polygon>
                    <path d="M111.06,32.832 C111.06,34.488 110.412,35.82 109.08,36.828 C107.784,37.836 105.984,38.34 103.716,38.34 C102.456,38.34 101.304,38.196 100.296,37.944 C99.252,37.692 98.46,37.368 97.812,37.044 L97.812,32.832 C99.72,33.876 101.592,34.92 103.788,34.92 C104.688,34.92 105.336,34.812 105.768,34.596 C106.416,34.236 106.704,33.228 106.02,32.76 C105.768,32.58 105.3,32.4 104.58,32.256 C104.256,32.184 103.788,32.076 103.212,31.968 C102.636,31.86 102.096,31.752 101.628,31.608 C100.332,31.212 99.396,30.636 98.748,29.844 C98.136,29.052 97.812,28.044 97.812,26.856 C97.812,25.308 98.46,24.048 99.756,23.004 C101.052,21.996 102.816,21.456 105.048,21.456 C106.092,21.456 107.136,21.564 108.072,21.816 C109.044,22.068 109.8,22.32 110.34,22.608 L110.34,26.64 C109.188,25.596 106.56,24.876 105.048,24.876 C104.328,24.876 103.716,24.984 103.212,25.236 C102.492,25.56 102.132,26.496 102.816,27.072 C103.032,27.288 103.572,27.468 104.4,27.684 C104.868,27.792 105.372,27.9 105.876,28.008 C106.416,28.116 106.956,28.224 107.496,28.368 C108.684,28.728 109.584,29.268 110.124,30.024 C110.772,30.744 111.06,31.68 111.06,32.832 L111.06,32.832 Z" id="XMLID_107_" fill="#000000" fill-rule="nonzero"></path>
                    <path d="M95.688,37.764 C91.476,35.748 85.644,40.104 82.728,36.684 C81.864,35.676 81.468,34.164 81.468,32.184 L81.468,21.744 L86.04,21.744 L86.04,29.7 C86.04,30.492 86.076,31.176 86.112,31.716 C86.148,32.256 86.256,32.688 86.436,33.048 C86.58,33.408 86.832,33.66 87.156,33.804 C87.48,33.984 87.948,34.056 88.524,34.056 C88.92,34.056 89.352,33.984 89.82,33.804 C90.288,33.66 90.756,33.408 91.188,33.084 L91.188,21.708 L95.724,21.708 L95.724,37.764 L95.688,37.764 Z" id="XMLID_106_" fill="#000000" fill-rule="nonzero"></path>
                    <polygon id="XMLID_105_" fill="#000000" fill-rule="nonzero" points="62.388 25.704 57.744 25.704 57.744 38.16 52.884 38.16 52.884 25.704 48.204 25.704 48.204 21.6 62.388 21.6"></polygon>
                    <polygon id="XMLID_104_" fill="#000000" fill-rule="nonzero" points="126.756 25.704 122.076 25.704 122.076 38.16 117.252 38.16 117.252 25.704 112.572 25.704 112.572 21.6 126.756 21.6"></polygon>
                    <path d="M74.52,26.712 C74.52,26.316 74.412,25.956 74.232,25.668 C74.052,25.38 73.728,25.164 73.296,24.984 C72.972,24.876 72.612,24.804 72.216,24.768 C71.784,24.732 71.316,24.732 70.776,24.732 L69.12,24.732 L69.12,29.124 L70.524,29.124 C71.244,29.124 71.892,29.088 72.36,29.016 C72.864,28.944 73.26,28.8 73.62,28.584 C73.944,28.368 74.16,28.116 74.34,27.828 C74.448,27.54 74.52,27.18 74.52,26.712 L74.52,26.712 Z M81.72,38.052 L76.104,38.052 L71.244,32.04 L69.12,32.04 L69.12,38.052 L64.548,38.052 L64.548,21.708 L72.252,21.708 C73.296,21.708 74.232,21.744 74.988,21.888 C75.744,21.996 76.464,22.248 77.112,22.608 C77.796,22.968 78.3,23.436 78.696,24.048 C79.092,24.624 79.272,25.38 79.272,26.244 C79.272,27.468 78.948,28.44 78.372,29.196 C77.76,29.952 76.896,30.6 75.744,31.104 L81.72,38.052 L81.72,38.052 Z" id="XMLID_101_" fill="#000000" fill-rule="nonzero"></path>
                    <path d="M158.58,32.832 C158.58,34.488 157.932,35.82 156.6,36.828 C155.304,37.836 153.504,38.34 151.2,38.34 C149.94,38.34 148.788,38.196 147.78,37.944 C146.736,37.692 145.944,37.368 145.296,37.044 L145.296,32.832 C147.204,33.876 149.076,34.92 151.272,34.92 C152.172,34.92 152.82,34.812 153.252,34.596 C153.9,34.236 154.188,33.228 153.504,32.76 C153.252,32.58 152.784,32.4 152.064,32.256 C151.74,32.184 151.272,32.076 150.696,31.968 C150.12,31.86 149.58,31.752 149.112,31.608 C147.816,31.212 146.88,30.636 146.268,29.844 C145.656,29.052 145.332,28.044 145.332,26.856 C145.332,25.308 145.98,24.048 147.276,23.004 C148.572,21.996 150.336,21.456 152.568,21.456 C153.612,21.456 154.656,21.564 155.592,21.816 C156.564,22.068 157.32,22.32 157.86,22.608 L157.86,26.64 C156.708,25.596 154.08,24.876 152.568,24.876 C151.848,24.876 151.236,24.984 150.732,25.236 C150.012,25.56 149.652,26.496 150.336,27.072 C150.552,27.288 151.092,27.468 151.92,27.684 C152.388,27.792 152.892,27.9 153.432,28.008 C153.972,28.116 154.512,28.224 155.052,28.368 C156.24,28.728 157.14,29.268 157.68,30.024 C158.292,30.744 158.58,31.68 158.58,32.832 L158.58,32.832 Z" id="XMLID_97_" fill="#C6272A"></path>
                    <g id="XMLID_90_" transform="translate(124.560000, 14.760000)" fill="#C6272A" fill-rule="nonzero">
                        <path d="M21.06,1.908 L20.124,0.252 L9.036,14.472 L7.992,13.896 C8.496,12.24 9.072,10.332 9.864,7.776 L10.944,11.34 L14.292,7.128 L12.744,2.34 L7.164,2.34 L4.104,11.7 L2.592,10.836 L0.468,13.068 L2.016,12.924 L9,20.952 L12.24,15.84 C12.744,17.532 14.004,21.528 14.652,23.58 L19.656,23.58 L15.48,10.728 L21.06,1.908 Z" id="XMLID_94_"></path>
                        <path d="M0.216,23.58 L5.076,23.58 C5.616,21.744 6.084,20.304 6.48,18.972 L3.024,14.94 L0.216,23.58 Z" id="XMLID_91_"></path>
                    </g>
                    <g id="XMLID_81_" transform="translate(127.080000, 2.520000)" fill="#000000" fill-rule="nonzero">
                        <path d="M3.024,6.012 C1.548,6.012 0.324,4.752 0.324,3.168 C0.324,1.584 1.548,0.324 3.024,0.324 C4.5,0.324 5.724,1.584 5.724,3.168 C5.724,4.752 4.5,6.012 3.024,6.012 Z M3.024,0.504 C1.62,0.504 0.504,1.692 0.504,3.168 C0.504,4.644 1.656,5.832 3.024,5.832 C4.428,5.832 5.544,4.644 5.544,3.168 C5.544,1.692 4.428,0.504 3.024,0.504 Z" id="XMLID_86_"></path>
                        <g id="XMLID_82_" transform="translate(1.800000, 1.440000)">
                            <path d="M0.288,0.072 C0.504,0.036 0.792,0 1.08,0 C1.512,0 1.8,0.072 2.016,0.288 C2.16,0.432 2.268,0.648 2.268,0.936 C2.268,1.368 2.016,1.656 1.656,1.8 L1.656,1.8 C1.908,1.872 2.052,2.124 2.124,2.484 C2.232,2.952 2.304,3.276 2.376,3.42 L1.944,3.42 C1.908,3.312 1.836,3.024 1.728,2.628 C1.62,2.16 1.476,1.98 1.08,1.98 L0.684,1.98 L0.684,3.42 L0.288,3.42 L0.288,0.072 L0.288,0.072 Z M0.684,1.62 L1.116,1.62 C1.548,1.62 1.836,1.368 1.836,0.972 C1.836,0.54 1.548,0.36 1.116,0.36 C0.936,0.36 0.792,0.396 0.72,0.396 L0.72,1.62 L0.684,1.62 Z" id="XMLID_83_"></path>
                        </g>
                    </g>
                </g>
            </g>
        </g>
    </g>
</svg>