<svg xmlns="http://www.w3.org/2000/svg" viewBox="0 0 775 309">
  <defs>
    <style>.a,.d,.f,.g{fill:none;}.a{stroke:#1a1b1e;}.a,.c,.d,.f,.g,.i,.j,.k{stroke-miterlimit:10;}.b{fill:#1a1b1e;}.c{fill:#d4f7da;}.c,.d,.f,.g,.i,.j,.k{stroke:#1a1b1f;}.e,.j{fill:#fff;}.f{stroke-dasharray:11 4.4;}.g{stroke-dasharray:7.56 3.02;}.h{fill:#1a1b1f;}.i{fill:#e0f0ff;}.k{fill:#fff;}</style>
  </defs>
  <title>08</title>
  <line class="a anim rev" x1="323.57" y1="154.5" x2="488.95" y2="154.5"/>
  <polygon class="b" points="482.5 161.5 481.82 160.77 488.56 154.5 481.82 148.23 482.5 147.5 490.03 154.5 485.63 158.59 482.5 161.5"/>
  <circle class="a" cx="170.07" cy="154.5" r="153.5"/>
  <polyline class="c" points="231.82 183.95 255.57 183.95 255.57 30.5 132.07 30.5 132.07 77.78"/>
  <line class="d" x1="193.82" y1="66" x2="193.82" y2="77.78"/>
  <rect class="e" x="155.82" y="42.4" width="76" height="23.61"/>
  <polyline class="d" points="155.82 61.01 155.82 66 160.82 66"/>
  <line class="f" x1="165.22" y1="66.01" x2="224.62" y2="66.01"/>
  <polyline class="d" points="226.82 66 231.82 66 231.82 61.01"/>
  <line class="g" x1="231.82" y1="57.98" x2="231.82" y2="48.91"/>
  <polyline class="d" points="231.82 47.4 231.82 42.4 226.82 42.4"/>
  <line class="f" x1="222.42" y1="42.4" x2="163.02" y2="42.4"/>
  <polyline class="d" points="160.82 42.4 155.82 42.4 155.82 47.4"/>
  <line class="g" x1="155.82" y1="50.42" x2="155.82" y2="59.49"/>
  <polyline class="c" points="208.07 231.22 231.82 231.22 231.82 77.78 108.32 77.78 108.32 125.05"/>
  <line class="d" x1="170.07" y1="113.28" x2="170.07" y2="125.05"/>
  <rect class="e" x="119.16" y="89.67" width="76" height="23.61"/>
  <polyline class="d" points="119.16 108.28 119.16 113.28 124.16 113.28"/>
  <line class="f" x1="128.56" y1="113.28" x2="187.96" y2="113.28"/>
  <polyline class="d" points="190.16 113.28 195.16 113.28 195.16 108.28"/>
  <line class="g" x1="195.16" y1="105.26" x2="195.16" y2="96.19"/>
  <polyline class="d" points="195.16 94.67 195.16 89.67 190.16 89.67"/>
  <line class="f" x1="185.76" y1="89.67" x2="126.36" y2="89.67"/>
  <polyline class="d" points="124.16 89.67 119.16 89.67 119.16 94.67"/>
  <line class="g" x1="119.16" y1="97.7" x2="119.16" y2="106.77"/>
  <rect class="c" x="84.57" y="125.05" width="123.5" height="153.45"/>
  <line class="d" x1="146.32" y1="160.56" x2="146.32" y2="172.33"/>
  <line class="d" x1="146.32" y1="195.89" x2="146.32" y2="207.66"/>
  <line class="d" x1="146.32" y1="231.22" x2="146.32" y2="243"/>
  <line class="d" x1="146.32" y1="266.55" x2="146.32" y2="278.33"/>
  <rect class="d" x="97.49" y="243.09" width="76" height="23.61" transform="translate(270.98 509.79) rotate(-180)"/>
  <rect class="d" x="111.57" y="207.71" width="76" height="23.61" transform="translate(299.14 439.03) rotate(-180)"/>
  <rect class="d" x="106.16" y="172.33" width="76" height="23.61" transform="translate(288.31 368.27) rotate(-180)"/>
  <rect class="e" x="119.16" y="136.95" width="76" height="23.61"/>
  <polyline class="d" points="119.16 155.56 119.16 160.56 124.16 160.56"/>
  <line class="f" x1="128.56" y1="160.56" x2="187.96" y2="160.56"/>
  <polyline class="d" points="190.16 160.56 195.16 160.56 195.16 155.56"/>
  <line class="g" x1="195.16" y1="152.54" x2="195.16" y2="143.46"/>
  <polyline class="d" points="195.16 141.95 195.16 136.95 190.16 136.95"/>
  <line class="f" x1="185.76" y1="136.95" x2="126.36" y2="136.95"/>
  <polyline class="d" points="124.16 136.95 119.16 136.95 119.16 141.95"/>
  <line class="g" x1="119.16" y1="144.98" x2="119.16" y2="154.05"/>
  <path class="h" d="M197.51,258.93h-4.78l-1.15,3.86h-1.69l4.17-13.54h2.16l4.18,13.54h-1.74ZM195,251l-1.91,6.53h4L195.21,251Z"/>
  <path class="h" d="M220.37,202c2.32,0,3.74,1.37,3.74,3.49a2.82,2.82,0,0,1-2.12,2.91v.05a3,3,0,0,1,2.63,3.18,3.72,3.72,0,0,1-3.67,3.9h-5.2V202Zm2,4v-.76c0-1.24-.84-1.86-2.21-1.86h-2.81v4.46h2.81C221.56,207.85,222.4,207.25,222.4,206Zm.49,6v-.8c0-1.35-.92-2.05-2.42-2.05h-3.09v4.9h3.09C222,214.09,222.89,213.42,222.89,212Z"/>
  <path class="h" d="M239.13,161.47c0-4.5,1.62-7,4.93-7a4.3,4.3,0,0,1,4.2,3l-1.41.64c-.49-1.2-1.13-2.19-2.79-2.19-2.16,0-3.2,1.77-3.2,4.48v2.21c0,2.71,1,4.48,3.2,4.48,1.66,0,2.3-1,2.79-2.19l1.41.64a4.3,4.3,0,0,1-4.2,3C240.75,168.46,239.13,166,239.13,161.47Z"/>
  <polygon class="i" points="714.29 104.72 750.94 104.72 750.94 125.77 750.94 169.88 714.29 169.88 714.29 104.72"/>
  <polygon class="i" points="523.92 125.77 523.92 104.72 560.57 104.72 560.57 204.28 523.92 204.28 523.92 125.77"/>
  <polygon class="j" points="560.57 204.28 560.57 189.13 548.8 183.73 545.8 184.99 545.8 204.28 560.57 204.28"/>
  <path class="d" d="M537.3,149.49A22.31,22.31,0,0,0,555,158.21a22.57,22.57,0,0,0,5.55-.72V146.37a11.79,11.79,0,0,1-5.55,1.38,11.92,11.92,0,0,1,0-23.83,11.79,11.79,0,0,1,5.55,1.38V114.18a22.1,22.1,0,0,0-5.55-.72,22.39,22.39,0,0,0-21.37,15.72"/>
  <path class="k" d="M560.57,114.16a22.57,22.57,0,0,0-5.55-.7v10.46a11.9,11.9,0,0,1,5.55,1.37Z"/>
  <polyline class="i" points="714.29 216 560.57 216 560.57 93 714.29 93"/>
  <rect class="d" x="560.57" y="93" width="76.86" height="76.88"/>
  <polyline class="d" points="689.24 169.88 637.43 169.88 637.43 93 714.29 93 714.29 119.01"/>
  <polygon class="j" points="560.57 203.51 591.32 190.61 622.06 204.72 652.8 181.19 683.54 203.37 687.25 200.13 687.25 216 560.57 216 560.57 203.51"/>
  <rect class="j" x="648.22" y="103.79" width="13.81" height="55.3"/>
  <rect class="d" x="668.95" y="132.65" width="13.81" height="26.43"/>
  <polyline class="d" points="700.74 159.09 689.69 159.09 689.69 125.61 699.75 125.61"/>
  <line class="d" x1="703.5" y1="154.35" x2="703.5" y2="158.23"/>
  <path class="d" d="M599,103.79a27.65,27.65,0,1,0,27.64,27.65A27.64,27.64,0,0,0,599,103.79Zm0,42.37a14.72,14.72,0,1,1,14.72-14.72A14.72,14.72,0,0,1,599,146.16Z"/>
  <path class="j" d="M623.58,118.79a27.63,27.63,0,0,0-24.58-15h0v12.93h0a14.72,14.72,0,0,1,13.08,8h0l11.49-5.91Z"/>
  <circle class="j" cx="751.15" cy="141.41" r="15.63"/>
  <path class="j" d="M741.32,204.28H773V174.2A17.16,17.16,0,0,0,755.88,157h-9.46a17.08,17.08,0,0,0-12.65,5.58"/>
  <ellipse class="j" cx="714.29" cy="138.32" rx="19.31" ry="19.32"/>
  <path class="j" d="M708.45,157.64h11.67a21.2,21.2,0,0,1,21.2,21.2V216a0,0,0,0,1,0,0H687.25a0,0,0,0,1,0,0V178.84A21.2,21.2,0,0,1,708.45,157.64Z"/>
  <circle class="j" cx="523.92" cy="141.41" r="15.63"/>
  <path class="j" d="M519.19,157h9.45A17.16,17.16,0,0,1,545.8,174.2v30.08a0,0,0,0,1,0,0H502a0,0,0,0,1,0,0V174.2A17.16,17.16,0,0,1,519.19,157Z"/>
</svg>