<?xml version="1.0" encoding="utf-8"?>
<svg version="1.1" id="Layer_1" xmlns="http://www.w3.org/2000/svg" xmlns:xlink="http://www.w3.org/1999/xlink" x="0px" y="0px"
	 viewBox="0 0 385 145" style="enable-background:new 0 0 385 145;" xml:space="preserve">
<style type="text/css">
	.st0{fill:none;stroke:#B0B1B5;}
	.st1{fill:#D6FFF8;stroke:#1A1B1F;stroke-width:2;}
	.st2{fill:none;stroke:#1A1B1F;stroke-width:2;}
	.st3{fill:none;stroke:#1A1B1F;stroke-width:2;stroke-dasharray:6,3;}
</style>
<line class="st0" x1="252.5" y1="0" x2="252.5" y2="25"/>
<line class="st0" x1="265" y1="12.5" x2="240" y2="12.5"/>
<line class="st0" x1="312.5" y1="0" x2="312.5" y2="25"/>
<line class="st0" x1="325" y1="12.5" x2="300" y2="12.5"/>
<line class="st0" x1="192.5" y1="0" x2="192.5" y2="25"/>
<line class="st0" x1="205" y1="12.5" x2="180" y2="12.5"/>
<line class="st0" x1="72.5" y1="0" x2="72.5" y2="25"/>
<line class="st0" x1="85" y1="12.5" x2="60" y2="12.5"/>
<line class="st0" x1="372.5" y1="0" x2="372.5" y2="25"/>
<line class="st0" x1="385" y1="12.5" x2="360" y2="12.5"/>
<line class="st0" x1="132.5" y1="0" x2="132.5" y2="25"/>
<line class="st0" x1="145" y1="12.5" x2="120" y2="12.5"/>
<line class="st0" x1="12.5" y1="0" x2="12.5" y2="25"/>
<line class="st0" x1="25" y1="12.5" x2="0" y2="12.5"/>
<line class="st0" x1="252.5" y1="60" x2="252.5" y2="85"/>
<line class="st0" x1="265" y1="72.5" x2="240" y2="72.5"/>
<line class="st0" x1="312.5" y1="60" x2="312.5" y2="85"/>
<line class="st0" x1="325" y1="72.5" x2="300" y2="72.5"/>
<line class="st0" x1="192.5" y1="60" x2="192.5" y2="85"/>
<line class="st0" x1="205" y1="72.5" x2="180" y2="72.5"/>
<line class="st0" x1="72.5" y1="60" x2="72.5" y2="85"/>
<line class="st0" x1="85" y1="72.5" x2="60" y2="72.5"/>
<line class="st0" x1="372.5" y1="60" x2="372.5" y2="85"/>
<line class="st0" x1="385" y1="72.5" x2="360" y2="72.5"/>
<line class="st0" x1="132.5" y1="60" x2="132.5" y2="85"/>
<line class="st0" x1="145" y1="72.5" x2="120" y2="72.5"/>
<line class="st0" x1="12.5" y1="60" x2="12.5" y2="85"/>
<line class="st0" x1="25" y1="72.5" x2="0" y2="72.5"/>
<line class="st0" x1="252.5" y1="120" x2="252.5" y2="145"/>
<line class="st0" x1="265" y1="132.5" x2="240" y2="132.5"/>
<line class="st0" x1="312.5" y1="120" x2="312.5" y2="145"/>
<line class="st0" x1="325" y1="132.5" x2="300" y2="132.5"/>
<line class="st0" x1="192.5" y1="120" x2="192.5" y2="145"/>
<line class="st0" x1="205" y1="132.5" x2="180" y2="132.5"/>
<line class="st0" x1="72.5" y1="120" x2="72.5" y2="145"/>
<line class="st0" x1="85" y1="132.5" x2="60" y2="132.5"/>
<line class="st0" x1="372.5" y1="120" x2="372.5" y2="145"/>
<line class="st0" x1="385" y1="132.5" x2="360" y2="132.5"/>
<line class="st0" x1="132.5" y1="120" x2="132.5" y2="145"/>
<line class="st0" x1="145" y1="132.5" x2="120" y2="132.5"/>
<line class="st0" x1="12.5" y1="120" x2="12.5" y2="145"/>
<line class="st0" x1="25" y1="132.5" x2="0" y2="132.5"/>
<rect x="217" y="25" class="st1" width="35" height="11"/>
<rect x="223" y="43" class="st1" width="35" height="11"/>
<rect x="211" y="7" class="st1" width="35" height="11"/>
<line class="st2" x1="235" y1="18.6" x2="235" y2="24.9"/>
<line class="st2" x1="235" y1="54.1" x2="235" y2="59.8"/>
<line class="st2" x1="235" y1="36.1" x2="235" y2="42.4"/>
<path class="anim st3" d="M205,1v59h59V1H205z"/>
<rect x="127" y="109" class="st1" width="35" height="11"/>
<rect x="139" y="127" class="st1" width="35" height="11"/>
<rect x="134" y="91" class="st1" width="35" height="11"/>
<line class="st2" x1="151" y1="102.6" x2="151" y2="108.9"/>
<line class="st2" x1="151" y1="138.1" x2="151" y2="143.8"/>
<line class="st2" x1="151" y1="120.1" x2="151" y2="126.4"/>
<path class="anim st3" d="M121,85v59h59V85H121z"/>
<ellipse class="st1" cx="192.5" cy="72.5" rx="46.5" ry="46.5"/>
<ellipse class="st2" cx="192.5" cy="72.5" rx="33.5" ry="46.5"/>
<ellipse class="st2" cx="193" cy="72.5" rx="18" ry="46.5"/>
<line class="st2" x1="193" y1="26" x2="193" y2="120"/>
<path class="anim st3" d="M239.9,73h-93"/>
<path class="anim st3" d="M233,95h-81"/>
<path class="anim st3" d="M234,51h-83"/>
</svg>
