<svg xmlns="http://www.w3.org/2000/svg" viewBox="0 0 775 252">
  <defs>
    <style>.a,.b,.f,.g,.h{fill:none;}.a,.b,.c,.f,.g,.j{stroke:#1a1b1f;}.a,.b,.c,.f,.g,.h,.j{stroke-miterlimit:10;}.b{stroke-width:2px;}.c{fill:#d4f7da;}.d{fill:#1a1b1f;}.e{fill:#fff;}.f{stroke-dasharray:11 4.4;}.g{stroke-dasharray:7.78 3.11;}.h{stroke:#1a1b1e;}.i{fill:#1a1b1e;}.j{fill:#d6fff8;}</style>
  </defs>
  <title>03</title>
  <polygon class="a" points="139.69 32.7 159.18 48.49 183.94 44.56 192.92 67.97 216.33 76.95 212.41 101.72 228.19 121.2 212.41 140.69 216.33 165.45 192.92 174.44 183.94 197.85 159.18 193.92 139.69 209.7 120.2 193.92 95.44 197.85 86.46 174.44 63.05 165.45 66.97 140.69 51.19 121.2 66.97 101.72 63.05 76.95 86.46 67.97 95.44 44.56 120.2 48.49 139.69 32.7"/>
  <path class="b" d="M133,140a16.46,16.46,0,0,1-16.46,16.46h0A16.46,16.46,0,0,1,100.08,140V102.41a16.47,16.47,0,0,1,16.47-16.47h0A16.47,16.47,0,0,1,133,102.41"/>
  <path class="b" d="M144.91,156.46V102.41a16.48,16.48,0,0,1,16.47-16.47h0a16.47,16.47,0,0,1,16.46,16.47v54.05"/>
  <line class="b" x1="144.91" y1="128.49" x2="177.84" y2="128.49"/>
  <polyline class="c" points="699.19 155.5 723.19 155.5 723.19 0.5 600.19 0.5 600.19 48.5"/>
  <polyline class="c" points="675.19 203.5 699.19 203.5 699.19 48.5 576.19 48.5 576.19 96.5"/>
  <rect class="c" x="552.19" y="96.5" width="123" height="155"/>
  <path class="d" d="M664.56,231.41h-4.78l-1.15,3.86h-1.7l4.18-13.53h2.16l4.18,13.53h-1.74Zm-2.48-7.95L660.17,230h4l-1.91-6.53Z"/>
  <line class="a" x1="613.19" y1="240.5" x2="613.19" y2="251.5"/>
  <line class="a" x1="613.19" y1="204.5" x2="613.19" y2="216.5"/>
  <line class="a" x1="613.19" y1="168.51" x2="613.19" y2="180.51"/>
  <line class="a" x1="613.19" y1="132.5" x2="613.19" y2="144.5"/>
  <rect class="a" x="565.19" y="216.5" width="76" height="24" transform="translate(1206.38 457) rotate(-180)"/>
  <rect class="a" x="578.19" y="180.5" width="76" height="24" transform="translate(1232.38 385) rotate(-180)"/>
  <rect class="a" x="573.19" y="144.5" width="76" height="24" transform="translate(1222.37 313) rotate(-180)"/>
  <rect class="e" x="586.19" y="108.5" width="76" height="24"/>
  <polyline class="a" points="586.19 127.5 586.19 132.5 591.19 132.5"/>
  <line class="f" x1="595.59" y1="132.5" x2="654.99" y2="132.5"/>
  <polyline class="a" points="657.19 132.5 662.19 132.5 662.19 127.5"/>
  <line class="g" x1="662.19" y1="124.39" x2="662.19" y2="115.06"/>
  <polyline class="a" points="662.19 113.5 662.19 108.5 657.19 108.5"/>
  <line class="f" x1="652.79" y1="108.5" x2="593.39" y2="108.5"/>
  <polyline class="a" points="591.19 108.5 586.19 108.5 586.19 113.5"/>
  <line class="g" x1="586.19" y1="116.61" x2="586.19" y2="125.94"/>
  <line class="a" x1="647.19" y1="36.5" x2="647.19" y2="48.5"/>
  <rect class="e" x="620.19" y="12.5" width="76" height="24"/>
  <polyline class="a" points="620.19 31.5 620.19 36.5 625.19 36.5"/>
  <line class="f" x1="629.59" y1="36.5" x2="688.99" y2="36.5"/>
  <polyline class="a" points="691.19 36.5 696.19 36.5 696.19 31.5"/>
  <line class="g" x1="696.19" y1="28.39" x2="696.19" y2="19.06"/>
  <polyline class="a" points="696.19 17.5 696.19 12.5 691.19 12.5"/>
  <line class="f" x1="686.79" y1="12.5" x2="627.39" y2="12.5"/>
  <polyline class="a" points="625.19 12.5 620.19 12.5 620.19 17.5"/>
  <line class="g" x1="620.19" y1="20.61" x2="620.19" y2="29.94"/>
  <line class="a" x1="634.19" y1="84.5" x2="634.19" y2="96.5"/>
  <rect class="e" x="586.19" y="60.5" width="76" height="24"/>
  <polyline class="a" points="586.19 79.5 586.19 84.5 591.19 84.5"/>
  <line class="f" x1="595.59" y1="84.5" x2="654.99" y2="84.5"/>
  <polyline class="a" points="657.19 84.5 662.19 84.5 662.19 79.5"/>
  <line class="g" x1="662.19" y1="76.39" x2="662.19" y2="67.06"/>
  <polyline class="a" points="662.19 65.5 662.19 60.5 657.19 60.5"/>
  <line class="f" x1="652.79" y1="60.5" x2="593.39" y2="60.5"/>
  <polyline class="a" points="591.19 60.5 586.19 60.5 586.19 65.5"/>
  <line class="g" x1="586.19" y1="68.61" x2="586.19" y2="77.94"/>
  <path class="d" d="M687.38,173.74c2.32,0,3.74,1.37,3.74,3.48a2.83,2.83,0,0,1-2.13,2.91v.06a3,3,0,0,1,2.64,3.18,3.72,3.72,0,0,1-3.67,3.9h-5.21V173.74Zm2,4V177c0-1.24-.83-1.86-2.2-1.86h-2.81v4.46h2.81C688.57,179.61,689.4,179,689.4,177.77Zm.49,6V183c0-1.35-.92-2.05-2.42-2.05h-3.08v4.9h3.08C689,185.85,689.89,185.17,689.89,183.8Z"/>
  <path class="d" d="M706.63,132.5c0-4.5,1.61-7,4.93-7a4.27,4.27,0,0,1,4.19,3l-1.4.64c-.49-1.2-1.13-2.19-2.79-2.19-2.16,0-3.2,1.76-3.2,4.47v2.22c0,2.71,1,4.47,3.2,4.47,1.66,0,2.3-1,2.79-2.19l1.4.64a4.27,4.27,0,0,1-4.19,3C708.24,139.5,706.63,137,706.63,132.5Z"/>
  <line class="h anim rev" x1="228.69" y1="121" x2="539.11" y2="121"/>
  <polygon class="i" points="532.66 128 531.98 127.27 538.72 121 531.98 114.73 532.66 114 540.19 121 535.79 125.09 532.66 128"/>
  <path class="anim h" d="M564.11,72H513.69a24.5,24.5,0,0,0-24.5,24.5h0a24.5,24.5,0,0,1-24.5,24.5"/>
  <polygon class="i" points="557.66 65 556.98 65.73 563.72 72 556.98 78.27 557.66 79 565.19 72 560.79 67.91 557.66 65"/>
  <path class="anim h" d="M587.61,23H562.69a24.5,24.5,0,0,0-24.5,24.5A24.5,24.5,0,0,1,513.69,72"/>
  <polygon class="i" points="581.16 16 580.48 16.73 587.22 23 580.48 29.27 581.16 30 588.69 23 584.29 18.91 581.16 16"/>
  <polygon class="j" points="438.19 160.2 339.19 160.2 339.19 82.2 411.49 82.2 438.19 108.52 438.19 160.2"/>
  <path class="a" d="M361.32,109.84c2.2-1.77,7-10.78,3.65-13.86-2.5-2.32-6.24.43-8,2.3a21.25,21.25,0,0,0-5.49,12.14c-.46,4.07.28,9.92,4.95,11.39a5.39,5.39,0,0,0,4.76-.79,12.78,12.78,0,0,0,2.54-3,6.75,6.75,0,0,1,2.9-2.58c1.91-.72,3.19.45,4,2,.75,1.33,1.12,3.24,2.5,4.13,1.65,1.07,3.8-.45,5.11-1.5s3-2.4,4.85-2.16c1.46.2,2.58,1.33,3.92,1.93a10.52,10.52,0,0,0,3.74.7A85.68,85.68,0,0,0,405,120"/>
  <polyline class="a" points="438.19 108.5 411.49 108.5 411.49 82.2"/>
  <line class="a" x1="353.5" y1="137.91" x2="386.64" y2="137.91"/>
  <line class="a" x1="353.5" y1="142.93" x2="380.33" y2="142.93"/>
</svg>