<svg xmlns="http://www.w3.org/2000/svg" viewBox="0 0 775 179">
  <defs>
    <style>.a,.d,.h{fill:none;}.a{stroke:#1a1b1e;}.a,.c,.d,.e,.f,.h{stroke-miterlimit:10;}.b{fill:#1a1b1e;}.c{fill:#d6fff8;}.c,.d,.e,.f,.h{stroke:#1a1b1f;}.e{fill:#fff;}.f,.g{fill:#1a1b1f;}.h{stroke-width:2px;}</style>
  </defs>
  <title>06</title>
  <line class="a anim rev" x1="228.92" y1="89.5" x2="547.49" y2="89.5"/>
  <polygon class="b" points="541.04 96.5 540.36 95.77 547.1 89.5 540.36 83.23 541.04 82.5 548.57 89.5 544.17 93.59 541.04 96.5"/>
  <polygon class="c" points="451.57 128.5 352.57 128.5 352.57 50.5 424.87 50.5 451.57 76.81 451.57 128.5"/>
  <path class="d" d="M374.7,78.14c2.2-1.77,7-10.78,3.65-13.86-2.5-2.33-6.24.43-8,2.3a21.25,21.25,0,0,0-5.49,12.14c-.46,4.07.29,9.91,4.95,11.39a5.41,5.41,0,0,0,4.76-.79,12.78,12.78,0,0,0,2.54-3,6.75,6.75,0,0,1,2.9-2.58c1.91-.72,3.19.44,4,2,.74,1.34,1.12,3.24,2.49,4.14,1.66,1.07,3.81-.45,5.12-1.5s3-2.4,4.84-2.16c1.46.19,2.58,1.33,3.92,1.93a10.33,10.33,0,0,0,3.74.69,85.68,85.68,0,0,0,14.23-.6"/>
  <polygon class="e" points="431.48 94.36 434.69 96.92 438.77 96.28 440.25 100.08 444.11 101.54 443.46 105.56 446.06 108.72 443.46 111.88 444.11 115.9 440.25 117.35 438.77 121.15 434.69 120.52 431.48 123.08 428.27 120.52 424.19 121.15 422.71 117.35 418.86 115.9 419.5 111.88 416.9 108.72 419.5 105.56 418.86 101.54 422.71 100.08 424.19 96.28 428.27 96.92 431.48 94.36"/>
  <polyline class="d" points="451.57 76.8 424.87 76.8 424.87 50.5"/>
  <line class="d" x1="366.88" y1="106.2" x2="400.02" y2="106.2"/>
  <line class="d" x1="366.88" y1="111.23" x2="393.71" y2="111.23"/>
  <circle class="e" cx="339.57" cy="63.5" r="13"/>
  <circle class="f" cx="339.57" cy="63.5" r="1"/>
  <circle class="e" cx="339.57" cy="89.5" r="13"/>
  <circle class="f" cx="339.57" cy="89.5" r="1"/>
  <circle class="e" cx="339.57" cy="115.5" r="13"/>
  <circle class="f" cx="339.57" cy="115.5" r="1"/>
  <line class="d" x1="339.57" y1="63.5" x2="351.56" y2="58.45"/>
  <line class="d" x1="332.96" y1="59.08" x2="339.57" y2="63.5"/>
  <line class="d" x1="339.57" y1="89.5" x2="352.45" y2="87.71"/>
  <line class="d" x1="332.94" y1="85.08" x2="339.57" y2="89.5"/>
  <line class="d" x1="339.57" y1="115.5" x2="352.49" y2="116.94"/>
  <line class="d" x1="332.84" y1="111.08" x2="339.57" y2="115.5"/>
  <rect class="d" x="560.57" y="28" width="155" height="122.99"/>
  <path class="g" d="M609.07,47.43l-7.55,22.09H599l-6.84-18.91-6.57,18.91h-2.52l-7.55-22.09h2.78l6.09,19.17L591,47.43h2.56l6.66,19.17,6-19.17Z"/>
  <path class="g" d="M645.61,47.43l-7.55,22.09h-2.51L628.7,50.61l-6.57,18.91h-2.52l-7.55-22.09h2.78l6.1,19.17,6.62-19.17h2.56l6.66,19.17,6.05-19.17Z"/>
  <path class="g" d="M682.15,47.43,674.6,69.52h-2.51l-6.85-18.91-6.57,18.91h-2.52l-7.54-22.09h2.78l6.09,19.17,6.62-19.17h2.56l6.66,19.17,6-19.17Z"/>
  <path class="g" d="M687.79,67.71a2.18,2.18,0,1,1-2.2-2.21A2.07,2.07,0,0,1,687.79,67.71Z"/>
  <path class="g" d="M581.31,99.87a2.19,2.19,0,1,1-2.21-2.21A2.08,2.08,0,0,1,581.31,99.87Z"/>
  <path class="g" d="M605.31,85.07l-2.38,1.15a6.39,6.39,0,0,0-6.66-4.86c-4.95,0-7.9,3.49-7.9,9.28s2.91,9.27,7.85,9.27c3.71,0,6.36-1.9,7-5.08l2.34.8c-1.24,4-4.64,6.49-9.23,6.49-6.58,0-10.46-4.33-10.46-11.48s3.93-11.49,10.5-11.49C600.81,79.15,603.9,81.36,605.31,85.07Z"/>
  <path class="g" d="M631.22,90.64c0,7.15-4,11.48-10.55,11.48s-10.55-4.33-10.55-11.48,4-11.49,10.55-11.49S631.22,83.48,631.22,90.64Zm-18.58,0c0,5.78,3,9.32,8,9.32s8-3.54,8-9.32-3-9.32-8-9.32S612.64,84.85,612.64,90.64Z"/>
  <path class="g" d="M672.35,87.37v14.27h-2.51v-14c0-4.28-2.56-6.31-6.09-6.31a7.45,7.45,0,0,0-7.46,7.82v12.54h-2.52v-14c0-4.29-2.52-6.32-6-6.32-3.75,0-7.46,2.83-7.46,8v12.32h-2.51V79.59H640l.13,4.16a8.51,8.51,0,0,1,7.81-4.6c3.53,0,6.62,1.64,7.82,4.95,1.28-3.22,4.85-5,8.21-5C668.51,79.11,672.35,81.8,672.35,87.37Z"/>
  <ellipse class="e" cx="715.63" cy="73.32" rx="19.29" ry="19.32"/>
  <path class="e" d="M709.82,92.64h11.63a21.19,21.19,0,0,1,21.19,21.19V151a0,0,0,0,1,0,0h-54a0,0,0,0,1,0,0V113.82A21.19,21.19,0,0,1,709.82,92.64Z"/>
  <polygon class="d" points="140.07 1 159.56 16.78 184.32 12.86 193.31 36.27 216.72 45.25 212.79 70.02 228.57 89.5 212.79 108.98 216.72 133.75 193.31 142.73 184.32 166.14 159.56 162.22 140.07 178 120.59 162.22 95.82 166.14 86.84 142.73 63.43 133.75 67.35 108.98 51.57 89.5 67.35 70.02 63.43 45.25 86.84 36.27 95.82 12.86 120.59 16.78 140.07 1"/>
  <path class="h" d="M133.39,108.3a16.46,16.46,0,0,1-16.46,16.46h0a16.46,16.46,0,0,1-16.46-16.46V70.7a16.46,16.46,0,0,1,16.46-16.46h0A16.46,16.46,0,0,1,133.39,70.7"/>
  <path class="h" d="M145.3,124.76V70.7a16.46,16.46,0,0,1,16.46-16.46h0A16.47,16.47,0,0,1,178.23,70.7v54.06"/>
  <line class="h" x1="145.3" y1="96.78" x2="178.23" y2="96.78"/>
</svg>