<svg xmlns="http://www.w3.org/2000/svg" viewBox="0 0 775 124">
  <defs>
    <style>.a,.e{fill:none;}.a{stroke:#1a1b1e;}.a,.c,.d,.e,.f{stroke-miterlimit:10;}.b{fill:#1a1b1e;}.c{fill:#e0f0ff;}.c,.d,.e,.f{stroke:#1a1b1f;}.d{fill:#fff;}.f{fill:#fff;}.g{fill:#1a1b1f;}</style>
  </defs>
  <title>09</title>
  <line class="a" x1="283.69" y1="64.31" x2="547.49" y2="64.31"/>
  <polygon class="b" points="541.04 71.31 540.36 70.58 547.1 64.31 540.36 58.05 541.04 57.32 548.57 64.31 544.17 68.4 541.04 71.31"/>
  <polygon class="c" points="246.82 12.22 283.48 12.22 283.48 33.27 283.48 77.38 246.82 77.38 246.82 12.22"/>
  <polygon class="c" points="56.45 33.27 56.45 12.22 93.11 12.22 93.11 111.78 56.46 111.78 56.45 33.27"/>
  <polygon class="d" points="93.11 111.78 93.11 96.63 81.34 91.23 78.34 92.49 78.34 111.78 93.11 111.78"/>
  <path class="e" d="M69.84,57a22.3,22.3,0,0,0,17.72,8.72A22.57,22.57,0,0,0,93.11,65V53.87a11.92,11.92,0,1,1,0-21.07V21.68A22.1,22.1,0,0,0,87.56,21,22.39,22.39,0,0,0,66.19,36.68"/>
  <path class="f" d="M93.11,21.66a22.57,22.57,0,0,0-5.55-.7V31.42a11.9,11.9,0,0,1,5.55,1.37Z"/>
  <polyline class="c" points="246.82 123.5 93.11 123.5 93.11 0.5 246.82 0.5"/>
  <rect class="e" x="93.11" y="0.5" width="76.86" height="76.88"/>
  <polyline class="e" points="221.78 77.38 169.97 77.38 169.97 0.5 246.82 0.5 246.82 26.51"/>
  <polygon class="d" points="93.11 111.01 123.85 98.11 154.6 112.22 185.34 88.69 216.08 110.87 219.79 107.63 219.79 123.5 93.11 123.5 93.11 111.01"/>
  <rect class="d" x="180.75" y="11.29" width="13.81" height="55.3"/>
  <rect class="e" x="201.49" y="40.15" width="13.81" height="26.43"/>
  <polyline class="e" points="233.28 66.59 222.23 66.59 222.23 33.11 232.28 33.11"/>
  <line class="e" x1="236.04" y1="61.85" x2="236.04" y2="65.73"/>
  <path class="e" d="M131.54,11.29a27.65,27.65,0,1,0,27.64,27.65A27.64,27.64,0,0,0,131.54,11.29Zm0,42.37a14.72,14.72,0,1,1,14.72-14.72A14.72,14.72,0,0,1,131.54,53.66Z"/>
  <path class="d" d="M156.12,26.29a27.63,27.63,0,0,0-24.58-15h0V24.22h0a14.72,14.72,0,0,1,13.08,8h0l11.5-5.91Z"/>
  <circle class="d" cx="283.69" cy="48.91" r="15.63"/>
  <path class="d" d="M273.86,111.78h31.71V81.7a17.16,17.16,0,0,0-17.16-17.16H279a17.08,17.08,0,0,0-12.65,5.58"/>
  <ellipse class="d" cx="246.82" cy="45.82" rx="19.31" ry="19.32"/>
  <path class="d" d="M241,65.14h11.67a21.2,21.2,0,0,1,21.2,21.2V123.5a0,0,0,0,1,0,0H219.79a0,0,0,0,1,0,0V86.34A21.2,21.2,0,0,1,241,65.14Z"/>
  <circle class="d" cx="56.46" cy="48.91" r="15.63"/>
  <path class="d" d="M51.73,64.54h9.45A17.16,17.16,0,0,1,78.34,81.7v30.08a0,0,0,0,1,0,0H34.57a0,0,0,0,1,0,0V81.7A17.16,17.16,0,0,1,51.73,64.54Z"/>
  <rect class="e" x="560.57" y="0.5" width="155" height="122.99"/>
  <path class="g" d="M609.07,19.93,601.52,42H599l-6.84-18.91L585.59,42h-2.52l-7.55-22.09h2.78l6.09,19.17L591,19.93h2.56l6.66,19.17,6-19.17Z"/>
  <path class="g" d="M645.61,19.93,638.06,42h-2.51L628.7,23.11,622.13,42h-2.52l-7.55-22.09h2.78l6.1,19.17,6.62-19.17h2.56l6.66,19.17,6.05-19.17Z"/>
  <path class="g" d="M682.15,19.93,674.6,42h-2.51l-6.85-18.91L658.67,42h-2.52l-7.54-22.09h2.78l6.09,19.17,6.62-19.17h2.56l6.66,19.17,6-19.17Z"/>
  <path class="g" d="M687.79,40.21a2.18,2.18,0,1,1-2.2-2.21A2.07,2.07,0,0,1,687.79,40.21Z"/>
  <path class="g" d="M581.31,72.37a2.19,2.19,0,1,1-2.21-2.21A2.08,2.08,0,0,1,581.31,72.37Z"/>
  <path class="g" d="M605.31,57.57l-2.38,1.15a6.39,6.39,0,0,0-6.66-4.86c-4.95,0-7.9,3.49-7.9,9.28s2.91,9.27,7.85,9.27c3.71,0,6.36-1.9,7-5.08l2.34.8c-1.24,4-4.64,6.49-9.23,6.49-6.58,0-10.46-4.33-10.46-11.48s3.93-11.49,10.5-11.49C600.81,51.65,603.9,53.86,605.31,57.57Z"/>
  <path class="g" d="M631.22,63.14c0,7.15-4,11.48-10.55,11.48s-10.55-4.33-10.55-11.48,4-11.49,10.55-11.49S631.22,56,631.22,63.14Zm-18.58,0c0,5.78,3,9.32,8,9.32s8-3.54,8-9.32-3-9.32-8-9.32S612.64,57.35,612.64,63.14Z"/>
  <path class="g" d="M672.35,59.87V74.14h-2.51v-14c0-4.28-2.56-6.31-6.09-6.31a7.45,7.45,0,0,0-7.46,7.82V74.18h-2.52v-14c0-4.29-2.52-6.32-6-6.32-3.75,0-7.46,2.83-7.46,8V74.18h-2.51V52.09H640l.13,4.16a8.51,8.51,0,0,1,7.81-4.6c3.53,0,6.62,1.64,7.82,5,1.28-3.22,4.85-5,8.21-5C668.51,51.61,672.35,54.3,672.35,59.87Z"/>
  <ellipse class="d" cx="715.63" cy="45.82" rx="19.29" ry="19.32"/>
  <path class="d" d="M709.82,65.14h11.63a21.19,21.19,0,0,1,21.19,21.19V123.5a0,0,0,0,1,0,0h-54a0,0,0,0,1,0,0V86.32A21.19,21.19,0,0,1,709.82,65.14Z"/>
</svg>