<?xml version="1.0" encoding="utf-8"?>
<svg version="1.1" id="Layer_1" xmlns="http://www.w3.org/2000/svg" xmlns:xlink="http://www.w3.org/1999/xlink" x="0px" y="0px"
	 viewBox="0 0 435.5 3955.6" style="enable-background:new 0 0 435.5 3955.6;" xml:space="preserve">
<style type="text/css">
	.st0{fill:none;stroke:#1A1B1F;stroke-miterlimit:10;}
	.st1{fill:#FFFFFF;stroke:#1A1B1F;stroke-miterlimit:10;}
	.st2{fill:#D4F7DA;stroke:#1A1B1F;stroke-miterlimit:10;}
	.st3{fill:#FFFFFF;}
	.st4{fill:none;stroke:#1A1B1F;stroke-miterlimit:10;stroke-dasharray:7.6333,3.0533;}
	.st5{fill:#1A1B1F;}
	.st6{fill:none;stroke:#1A1B1F;stroke-miterlimit:10;stroke-dasharray:11,4.4;}
	.st7{fill:none;stroke:#1A1B1F;stroke-miterlimit:10;stroke-dasharray:7.7778,3.1111;}
	.st8{fill:none;stroke:#1A1B1E;stroke-miterlimit:10;}
	.st9{fill:#1A1B1E;}
	.st10{fill:#D6FFF8;}
	.st11{fill:none;stroke:#1A1B1F;stroke-miterlimit:10;stroke-dasharray:10.11,4.05;}
	.st12{fill:none;stroke:#1A1B1F;stroke-miterlimit:10;stroke-dasharray:9.19,3.68;}
	.st13{fill:none;stroke:#1A1B1F;stroke-miterlimit:10;stroke-dasharray:9.78,3.91;}
	.st14{fill:none;stroke:#1A1B1F;stroke-miterlimit:10;stroke-dasharray:9.06,3.63;}
	.st15{fill:none;stroke:#1A1B1F;stroke-miterlimit:10;stroke-dasharray:9.61,3.84;}
	.st16{fill:none;stroke:#1A1B1F;stroke-miterlimit:10;stroke-dasharray:9.28,3.71;}
	.st17{fill:none;stroke:#1A1B1F;stroke-miterlimit:10;stroke-dasharray:9.05,3.62;}
	.st18{fill:none;stroke:#1A1B1F;stroke-miterlimit:10;stroke-dasharray:12.85,5.14;}
	.st19{fill:none;stroke:#1A1B1F;stroke-miterlimit:10;stroke-dasharray:9.35,3.74;}
	.st20{fill:none;stroke:#1A1B1F;stroke-width:2;stroke-miterlimit:10;}
	.st21{fill:#D6FFF8;stroke:#1A1B1F;stroke-miterlimit:10;}
	.st22{fill:#1A1B1F;stroke:#1A1B1F;stroke-miterlimit:10;}
	.st23{fill:none;stroke:#1A1B1F;stroke-width:4;stroke-miterlimit:10;}
	.st24{fill:none;stroke:#1A1B1F;stroke-width:6;stroke-miterlimit:10;}
	.st25{fill:#FFFFFF;stroke:#1A1B1E;stroke-miterlimit:10;}
	.st26{fill:none;stroke:#1A1B1F;stroke-miterlimit:10;stroke-dasharray:9.1203,3.6481;}
	.st27{fill:none;stroke:#1A1B1F;stroke-miterlimit:10;stroke-dasharray:7.5612,3.0245;}
	.st28{fill:#E0F0FF;stroke:#1A1B1F;stroke-miterlimit:10;}
	.st29{fill:#E5E5FF;stroke:#1A1B1F;stroke-miterlimit:10;}
	.st30{fill:none;stroke:#1A1B1F;stroke-linejoin:round;stroke-miterlimit:10;}
	.st31{fill:#FFFFFF;stroke:#1A1B1F;stroke-linejoin:round;stroke-miterlimit:10;}
</style>
<title>_v3CT_SbS_(desktop)</title>
<line class="st0" x1="167" y1="1438.8" x2="358" y2="1438.8"/>
<line class="st0" x1="167" y1="1283.8" x2="358" y2="1283.8"/>
<circle class="st1" cx="357.5" cy="1361.2" r="77.5"/>
<rect x="299.8" y="1372" class="st2" width="23.7" height="15.9"/>
<rect x="329.6" y="1372" class="st2" width="23.7" height="15.9"/>
<rect x="314.7" y="1346.5" class="st2" width="23.7" height="15.9"/>
<rect x="345.6" y="1321" class="st2" width="23.7" height="15.9"/>
<polyline class="st0" points="341.4,1372 326.5,1362.3 311.6,1372 "/>
<rect x="361.7" y="1372" class="st2" width="23.7" height="15.9"/>
<g>
	<rect x="391.5" y="1372" class="st3" width="23.7" height="15.9"/>
	<g>
		<polyline class="st0" points="391.5,1377 391.5,1372 396.5,1372 		"/>
		<line class="st4" x1="399.6" y1="1372" x2="408.7" y2="1372"/>
		<polyline class="st0" points="410.3,1372 415.3,1372 415.3,1377 		"/>
		<polyline class="st0" points="415.3,1382.8 415.3,1387.8 410.3,1387.8 		"/>
		<line class="st4" x1="407.2" y1="1387.8" x2="398.1" y2="1387.8"/>
		<polyline class="st0" points="396.5,1387.8 391.5,1387.8 391.5,1382.8 		"/>
	</g>
</g>
<rect x="376.6" y="1346.5" class="st2" width="23.7" height="15.9"/>
<polyline class="st0" points="403.4,1372 388.5,1362.3 373.6,1372 "/>
<polyline class="st0" points="388.5,1346.5 357.5,1336.8 326.5,1346.5 "/>
<polyline class="st2" points="218.5,1438.8 242.5,1438.8 242.5,1283.8 119.5,1283.8 119.5,1331.8 "/>
<polyline class="st2" points="194.5,1486.8 218.5,1486.8 218.5,1331.8 95.5,1331.8 95.5,1379.8 "/>
<rect x="71.5" y="1379.8" class="st2" width="123" height="155"/>
<path class="st5" d="M183.9,1514.7h-4.8l-1.1,3.9h-1.7l4.2-13.5h2.2l4.2,13.5H185L183.9,1514.7z M181.4,1506.7l-1.9,6.5h4l-1.9-6.5
	H181.4z"/>
<line class="st0" x1="132.5" y1="1523.8" x2="132.5" y2="1534.8"/>
<line class="st0" x1="132.5" y1="1487.8" x2="132.5" y2="1499.8"/>
<line class="st0" x1="132.5" y1="1451.8" x2="132.5" y2="1463.8"/>
<line class="st0" x1="132.5" y1="1415.8" x2="132.5" y2="1427.8"/>
<rect x="84.5" y="1499.8" class="st0" width="76" height="24"/>
<rect x="97.5" y="1463.8" class="st0" width="76" height="24"/>
<rect x="92.5" y="1427.8" class="st0" width="76" height="24"/>
<g>
	<rect x="105.5" y="1391.8" class="st3" width="76" height="24"/>
	<g>
		<polyline class="st0" points="181.5,1410.8 181.5,1415.8 176.5,1415.8 		"/>
		<line class="st6" x1="172.1" y1="1415.8" x2="112.7" y2="1415.8"/>
		<polyline class="st0" points="110.5,1415.8 105.5,1415.8 105.5,1410.8 		"/>
		<line class="st7" x1="105.5" y1="1407.6" x2="105.5" y2="1398.3"/>
		<polyline class="st0" points="105.5,1396.8 105.5,1391.8 110.5,1391.8 		"/>
		<line class="st6" x1="114.9" y1="1391.8" x2="174.3" y2="1391.8"/>
		<polyline class="st0" points="176.5,1391.8 181.5,1391.8 181.5,1396.8 		"/>
		<line class="st7" x1="181.5" y1="1399.9" x2="181.5" y2="1409.2"/>
	</g>
</g>
<line class="st0" x1="166.5" y1="1319.8" x2="166.5" y2="1331.8"/>
<g>
	<rect x="139.5" y="1295.8" class="st3" width="76" height="24"/>
	<g>
		<polyline class="st0" points="215.5,1314.8 215.5,1319.8 210.5,1319.8 		"/>
		<line class="st6" x1="206.1" y1="1319.8" x2="146.7" y2="1319.8"/>
		<polyline class="st0" points="144.5,1319.8 139.5,1319.8 139.5,1314.8 		"/>
		<line class="st7" x1="139.5" y1="1311.6" x2="139.5" y2="1302.3"/>
		<polyline class="st0" points="139.5,1300.8 139.5,1295.8 144.5,1295.8 		"/>
		<line class="st6" x1="148.9" y1="1295.8" x2="208.3" y2="1295.8"/>
		<polyline class="st0" points="210.5,1295.8 215.5,1295.8 215.5,1300.8 		"/>
		<line class="st7" x1="215.5" y1="1303.9" x2="215.5" y2="1313.2"/>
	</g>
</g>
<line class="st0" x1="153.5" y1="1367.8" x2="153.5" y2="1379.8"/>
<g>
	<rect x="105.5" y="1343.8" class="st3" width="76" height="24"/>
	<g>
		<polyline class="st0" points="181.5,1362.8 181.5,1367.8 176.5,1367.8 		"/>
		<line class="st6" x1="172.1" y1="1367.8" x2="112.7" y2="1367.8"/>
		<polyline class="st0" points="110.5,1367.8 105.5,1367.8 105.5,1362.8 		"/>
		<line class="st7" x1="105.5" y1="1359.6" x2="105.5" y2="1350.3"/>
		<polyline class="st0" points="105.5,1348.8 105.5,1343.8 110.5,1343.8 		"/>
		<line class="st6" x1="114.9" y1="1343.8" x2="174.3" y2="1343.8"/>
		<polyline class="st0" points="176.5,1343.8 181.5,1343.8 181.5,1348.8 		"/>
		<line class="st7" x1="181.5" y1="1351.9" x2="181.5" y2="1361.2"/>
	</g>
</g>
<path class="st5" d="M206.7,1457c2.3,0,3.7,1.4,3.7,3.5c0.1,1.4-0.8,2.6-2.1,2.9v0.1c1.6,0.2,2.7,1.6,2.6,3.2
	c0.1,2.1-1.5,3.8-3.5,3.9c0,0-0.1,0-0.1,0h-5.2V1457H206.7z M208.7,1461v-0.8c0-1.2-0.8-1.9-2.2-1.9h-2.8v4.5h2.8
	C207.9,1462.9,208.7,1462.3,208.7,1461L208.7,1461z M209.2,1467v-0.8c0-1.4-0.9-2.1-2.4-2.1h-3.1v4.9h3.1
	C208.3,1469.1,209.2,1468.4,209.2,1467L209.2,1467z"/>
<path class="st5" d="M225.9,1415.8c0-4.5,1.6-7,4.9-7c1.9-0.1,3.6,1.2,4.2,3l-1.4,0.6c-0.5-1.2-1.1-2.2-2.8-2.2
	c-2.2,0-3.2,1.8-3.2,4.5v2.2c0,2.7,1,4.5,3.2,4.5c1.7,0,2.3-1,2.8-2.2l1.4,0.6c-0.6,1.8-2.3,3.1-4.2,3
	C227.6,1422.8,225.9,1420.2,225.9,1415.8z"/>
<line class="st8" x1="157" y1="520.2" x2="157" y2="123.3"/>
<polygon class="st9" points="164,513.8 163.3,513.1 157,519.8 150.7,513.1 150,513.8 157,521.3 161.1,516.9 "/>
<rect x="79" y="0.5" class="st1" width="155" height="123"/>
<path class="st5" d="M127.5,19.9L119.9,42h-2.5l-6.8-18.9L104,42h-2.5l-7.5-22.1h2.8l6.1,19.2l6.6-19.2h2.6l6.7,19.2l6-19.2
	L127.5,19.9z"/>
<path class="st5" d="M164,19.9L156.5,42H154l-6.9-18.9L140.6,42H138l-7.6-22.1h2.8l6.1,19.2l6.7-19.2h2.6l6.6,19.2l6.1-19.2
	L164,19.9z"/>
<path class="st5" d="M200.6,19.9L193,42h-2.5l-6.9-18.9L177.1,42h-2.5L167,19.9h2.8l6.1,19.2l6.6-19.2h2.6l6.7,19.2l6-19.2
	L200.6,19.9z"/>
<path class="st5" d="M206.2,40.2c0,1.2-1,2.2-2.2,2.2c-1.2,0-2.2-1-2.2-2.2c0-1.2,1-2.1,2.1-2.2c1.1-0.1,2.1,0.8,2.2,1.9
	C206.2,40,206.2,40.1,206.2,40.2z"/>
<path class="st5" d="M99.7,72.4c0,1.2-1,2.2-2.2,2.2c-1.2,0-2.2-1-2.2-2.2c0-1.2,1-2.2,2.2-2.2c1.1-0.1,2.1,0.8,2.2,1.9
	C99.7,72.2,99.7,72.3,99.7,72.4z"/>
<path class="st5" d="M123.7,57.6l-2.4,1.2c-0.7-3-3.6-5.1-6.7-4.9c-5,0-7.9,3.5-7.9,9.3s2.9,9.3,7.8,9.3c3.7,0,6.4-1.9,7-5.1
	l2.3,0.8c-1.2,4-4.6,6.5-9.2,6.5c-6.6,0-10.5-4.3-10.5-11.5s3.9-11.5,10.5-11.5C119.2,51.7,122.3,53.9,123.7,57.6z"/>
<path class="st5" d="M149.6,63.1c0,7.2-4,11.5-10.6,11.5s-10.6-4.3-10.6-11.5s4-11.5,10.6-11.5S149.6,56,149.6,63.1z M131.1,63.1
	c0,5.8,3,9.3,8,9.3s8-3.5,8-9.3s-3-9.3-8-9.3S131.1,57.3,131.1,63.1z"/>
<path class="st5" d="M190.8,59.9v14.3h-2.5v-14c0-4.3-2.6-6.3-6.1-6.3c-4.1,0-7.5,3.3-7.5,7.5c0,0.1,0,0.2,0,0.4v12.6h-2.5v-14
	c0-4.3-2.5-6.3-6.1-6.3c-3.8,0-7.5,2.8-7.5,8v12.3h-2.5V52.1h2.2l0.1,4.2c1.5-2.9,4.5-4.7,7.8-4.6c3.5,0,6.6,1.6,7.8,5
	c1.3-3.2,4.9-5,8.2-5C186.9,51.6,190.8,54.3,190.8,59.9z"/>
<ellipse class="st1" cx="234" cy="45.8" rx="19.3" ry="19.3"/>
<path class="st1" d="M228.2,65.1h11.6c11.7,0,21.2,9.5,21.2,21.2l0,0v37.2l0,0h-54l0,0V86.3C207,74.6,216.5,65.1,228.2,65.1z"/>
<rect x="79" y="2547.5" class="st1" width="155" height="123"/>
<path class="st5" d="M127.5,2566.9l-7.5,22.1h-2.5l-6.8-18.9L104,2589h-2.5l-7.6-22.1h2.8l6.1,19.2l6.6-19.2h2.6l6.7,19.2l6-19.2
	L127.5,2566.9z"/>
<path class="st5" d="M164,2566.9l-7.5,22.1H154l-6.9-18.9l-6.6,18.9H138l-7.6-22.1h2.8l6.1,19.2l6.6-19.2h2.6l6.7,19.2l6.1-19.2
	L164,2566.9z"/>
<path class="st5" d="M200.6,2566.9L193,2589h-2.5l-6.9-18.9l-6.6,18.9h-2.5l-7.5-22.1h2.8l6.1,19.2l6.6-19.2h2.6l6.7,19.2l6-19.2
	H200.6z"/>
<path class="st5" d="M206.2,2587.2c0,1.2-1,2.2-2.2,2.2c-1.2,0-2.2-1-2.2-2.2c0-1.2,1-2.1,2.2-2.2c1.1-0.1,2.1,0.8,2.2,2
	C206.2,2587,206.2,2587.1,206.2,2587.2z"/>
<path class="st5" d="M99.7,2619.4c0,1.2-1,2.2-2.2,2.2c-1.2,0-2.2-1-2.2-2.2c0-1.2,1-2.2,2.2-2.2c1.1-0.1,2.1,0.8,2.2,1.9
	C99.7,2619.2,99.7,2619.3,99.7,2619.4z"/>
<path class="st5" d="M123.7,2604.6l-2.4,1.1c-0.7-3-3.6-5.1-6.7-4.9c-5,0-7.9,3.5-7.9,9.3s2.9,9.3,7.8,9.3c3.7,0,6.4-1.9,7-5.1
	l2.3,0.8c-1.2,4-4.6,6.5-9.2,6.5c-6.6,0-10.5-4.3-10.5-11.5s3.9-11.5,10.5-11.5C119.2,2598.6,122.3,2600.9,123.7,2604.6z"/>
<path class="st5" d="M149.6,2610.1c0,7.2-4,11.5-10.6,11.5s-10.6-4.3-10.6-11.5s4-11.5,10.6-11.5S149.6,2603,149.6,2610.1z
	 M131.1,2610.1c0,5.8,3,9.3,8,9.3s8-3.5,8-9.3s-3-9.3-8-9.3S131.1,2604.4,131.1,2610.1z"/>
<path class="st5" d="M190.8,2606.9v14.3h-2.5v-14c0-4.3-2.6-6.3-6.1-6.3c-4.1,0-7.5,3.3-7.5,7.5c0,0.1,0,0.2,0,0.4v12.6h-2.5v-14
	c0-4.3-2.5-6.3-6.1-6.3c-3.8,0-7.5,2.8-7.5,8v12.3h-2.5v-22.1h2.2l0.1,4.1c1.5-2.9,4.5-4.7,7.8-4.6c3.5,0,6.6,1.6,7.8,4.9
	c1.3-3.2,4.9-5,8.2-5C186.9,2598.6,190.8,2601.3,190.8,2606.9z"/>
<ellipse class="st1" cx="234" cy="2592.8" rx="19.3" ry="19.3"/>
<path class="st1" d="M228.2,2612.1h11.6c11.7,0,21.2,9.5,21.2,21.2v0v37.2l0,0h-54l0,0v-37.2C207,2621.6,216.5,2612.1,228.2,2612.1z
	"/>
<rect x="79" y="3828.5" class="st1" width="155" height="123"/>
<path class="st5" d="M127.5,3847.9l-7.6,22.1h-2.5l-6.8-18.9L104,3870h-2.5l-7.6-22.1h2.8l6.1,19.2l6.6-19.2h2.6l6.7,19.2l6-19.2
	L127.5,3847.9z"/>
<path class="st5" d="M164,3847.9l-7.5,22.1h-2.5l-6.8-18.9l-6.6,18.9H138l-7.6-22.1h2.8l6.1,19.2l6.6-19.2h2.6l6.7,19.2l6-19.2
	L164,3847.9z"/>
<path class="st5" d="M200.6,3847.9L193,3870h-2.5l-6.8-18.9l-6.6,18.9h-2.5l-7.6-22.1h2.8l6.1,19.2l6.6-19.2h2.6l6.7,19.2l6.1-19.2
	H200.6z"/>
<path class="st5" d="M206.2,3868.2c0,1.2-1,2.2-2.2,2.2s-2.2-1-2.2-2.2c0-1.2,1-2.2,2.2-2.2c1.1-0.1,2.1,0.8,2.2,1.9
	C206.2,3868,206.2,3868.1,206.2,3868.2z"/>
<path class="st5" d="M99.7,3900.4c0,1.2-1,2.2-2.2,2.2c-1.2,0-2.2-1-2.2-2.2c0-1.2,1-2.2,2.2-2.2c1.1-0.1,2.1,0.8,2.2,1.9
	C99.7,3900.2,99.7,3900.3,99.7,3900.4z"/>
<path class="st5" d="M123.7,3885.6l-2.4,1.1c-0.7-3-3.6-5.1-6.7-4.9c-4.9,0-7.9,3.5-7.9,9.3s2.9,9.3,7.9,9.3c3.7,0,6.4-1.9,7-5.1
	l2.3,0.8c-1.2,4-4.6,6.5-9.2,6.5c-6.6,0-10.5-4.3-10.5-11.5s3.9-11.5,10.5-11.5C119.2,3879.6,122.3,3881.9,123.7,3885.6z"/>
<path class="st5" d="M149.6,3891.1c0,7.1-4,11.5-10.6,11.5s-10.6-4.3-10.6-11.5s4-11.5,10.6-11.5S149.6,3884,149.6,3891.1z
	 M131,3891.1c0,5.8,3,9.3,8,9.3s8-3.5,8-9.3s-3-9.3-8-9.3S131,3885.4,131,3891.1L131,3891.1z"/>
<path class="st5" d="M190.8,3887.9v14.3h-2.5v-14c0-4.3-2.6-6.3-6.1-6.3c-4.1,0-7.5,3.3-7.5,7.5c0,0.1,0,0.2,0,0.4v12.5h-2.5v-14
	c0-4.3-2.5-6.3-6-6.3c-3.8,0-7.5,2.8-7.5,8v12.3h-2.5v-22.1h2.2l0.1,4.1c1.5-2.9,4.5-4.7,7.8-4.6c3.5,0,6.6,1.6,7.8,4.9
	c1.3-3.2,4.9-5,8.2-5C186.9,3879.6,190.8,3882.3,190.8,3887.9z"/>
<ellipse class="st1" cx="234" cy="3873.8" rx="19.3" ry="19.3"/>
<path class="st1" d="M228.2,3893.1h11.6c11.7,0,21.1,9.5,21.1,21.2v37.2l0,0h-54l0,0v-37.2C207,3902.6,216.5,3893.1,228.2,3893.1
	C228.2,3893.1,228.2,3893.1,228.2,3893.1z"/>
<polygon class="st10" points="206.5,299 107.5,299 107.5,221 179.8,221 206.5,247.3 "/>
<polyline class="st0" points="206.5,294 206.5,299 201.5,299 "/>
<line class="st11" x1="197.4" y1="299" x2="114.5" y2="299"/>
<polyline class="st0" points="112.5,299 107.5,299 107.5,294 "/>
<line class="st12" x1="107.5" y1="290.3" x2="107.5" y2="227.8"/>
<polyline class="st0" points="107.5,226 107.5,221 112.5,221 "/>
<polyline class="st13" points="116.4,221 179.8,221 201.5,242.4 "/>
<polyline class="st0" points="202.9,243.8 206.5,247.3 206.5,252.3 "/>
<line class="st14" x1="206.5" y1="255.9" x2="206.5" y2="292.2"/>
<path class="st0" d="M129.6,248.6c1.2-1.2,2.2-2.6,2.9-4.1"/>
<path class="st15" d="M133.9,241c0.7-2.5,0.8-4.9-0.6-6.2c-2.5-2.3-6.2,0.4-8,2.3c-3.1,3.4-5,7.6-5.5,12.1c-0.5,4.1,0.3,9.9,5,11.4
	c1.6,0.5,3.4,0.2,4.8-0.8c1-0.9,1.9-1.9,2.5-3c0.7-1.1,1.7-2,2.9-2.6c1.9-0.7,3.2,0.4,4,2c0.7,1.3,1.1,3.2,2.5,4.1
	c1.7,1.1,3.8-0.5,5.1-1.5s3-2.4,4.8-2.2c1.5,0.2,2.6,1.3,3.9,1.9c1.2,0.5,2.5,0.7,3.7,0.7c2.4,0.1,4.9,0.1,7.3,0"/>
<path class="st0" d="M168.3,259.2c1.7-0.1,3.3-0.3,5-0.5"/>
<polyline class="st0" points="185.6,265.5 186.4,264.9 187.2,265.5 "/>
<polyline class="st0" points="188.8,266.8 189.6,267.4 190.6,267.3 "/>
<polyline class="st0" points="192.7,266.9 193.7,266.8 194.1,267.7 "/>
<polyline class="st0" points="194.8,269.6 195.2,270.6 196.1,270.9 "/>
<polyline class="st0" points="198.1,271.7 199,272 198.9,273 "/>
<polyline class="st0" points="198.5,275.1 198.4,276.1 199,276.8 "/>
<polyline class="st0" points="200.4,278.5 201,279.2 200.4,280 "/>
<polyline class="st0" points="199,281.6 198.4,282.4 198.5,283.4 "/>
<polyline class="st0" points="198.9,285.4 199,286.4 198.1,286.8 "/>
<polyline class="st0" points="196.1,287.5 195.2,287.9 194.8,288.8 "/>
<polyline class="st0" points="194.1,290.7 193.7,291.6 192.7,291.5 "/>
<polyline class="st0" points="190.6,291.2 189.6,291 188.8,291.6 "/>
<polyline class="st0" points="187.2,293 186.4,293.6 185.6,293 "/>
<polyline class="st0" points="184,291.6 183.2,291 182.2,291.2 "/>
<polyline class="st0" points="180.1,291.5 179.1,291.6 178.8,290.7 "/>
<polyline class="st0" points="178,288.8 177.6,287.9 176.7,287.5 "/>
<polyline class="st0" points="174.7,286.8 173.8,286.4 173.9,285.4 "/>
<polyline class="st0" points="174.3,283.4 174.4,282.4 173.8,281.6 "/>
<polyline class="st0" points="172.5,280 171.8,279.2 172.5,278.5 "/>
<polyline class="st0" points="173.8,276.8 174.4,276.1 174.3,275.1 "/>
<polyline class="st0" points="173.9,273 173.8,272 174.7,271.7 "/>
<polyline class="st0" points="176.7,270.9 177.6,270.6 178,269.6 "/>
<polyline class="st0" points="178.8,267.7 179.1,266.8 180.1,266.9 "/>
<polyline class="st0" points="182.2,267.3 183.2,267.4 184,266.8 "/>
<line class="st0" x1="206.5" y1="247.3" x2="201.5" y2="247.3"/>
<line class="st16" x1="197.8" y1="247.3" x2="186.6" y2="247.3"/>
<polyline class="st0" points="184.8,247.3 179.8,247.3 179.8,242.3 "/>
<line class="st17" x1="179.8" y1="238.7" x2="179.8" y2="227.8"/>
<line class="st0" x1="179.8" y1="226" x2="179.8" y2="221"/>
<line class="st0" x1="121.8" y1="276.7" x2="126.8" y2="276.7"/>
<line class="st18" x1="131.9" y1="276.7" x2="147.4" y2="276.7"/>
<line class="st0" x1="149.9" y1="276.7" x2="154.9" y2="276.7"/>
<line class="st0" x1="121.8" y1="281.7" x2="126.8" y2="281.7"/>
<line class="st19" x1="130.5" y1="281.7" x2="141.8" y2="281.7"/>
<line class="st0" x1="143.6" y1="281.7" x2="148.6" y2="281.7"/>
<polygon class="st1" points="157,533.5 176.5,549.3 201.2,545.4 210.2,568.8 233.6,577.8 229.7,602.5 245.5,622 229.7,641.5 
	233.6,666.2 210.2,675.2 201.2,698.6 176.5,694.7 157,710.5 137.5,694.7 112.8,698.6 103.8,675.2 80.4,666.2 84.3,641.5 68.5,622 
	84.3,602.5 80.4,577.8 103.8,568.8 112.8,545.4 137.5,549.3 "/>
<path class="st20" d="M150.3,640.8c0,9.1-7.4,16.5-16.5,16.5h0l0,0c-9.1,0-16.5-7.4-16.5-16.5c0,0,0,0,0,0v-37.6
	c0-9.1,7.4-16.5,16.5-16.5l0,0c9.1,0,16.5,7.4,16.5,16.5c0,0,0,0,0,0"/>
<path class="st20" d="M162.2,657.3v-54c0-9.1,7.4-16.5,16.5-16.5l0,0c9.1,0,16.5,7.4,16.5,16.5c0,0,0,0,0,0v54"/>
<line class="st20" x1="162.2" y1="629.3" x2="195.1" y2="629.3"/>
<path class="st8" d="M76.2,1355h-26c-17.8,0-32.2-14.5-32.2-32.3v-50.8"/>
<polygon class="st9" points="69.8,1348 69.1,1348.8 75.8,1355 69.1,1361.3 69.8,1362 77.3,1355 72.9,1350.9 "/>
<path class="st8" d="M99.8,1307.7h-46c-19.8,0-35.8-16.1-35.8-35.8c0,0,0,0,0,0"/>
<polygon class="st9" points="93.3,1300.7 92.6,1301.4 99.4,1307.7 92.6,1314 93.3,1314.7 100.9,1307.7 96.5,1303.6 "/>
<path class="st8" d="M296,1495.7c0-17.8-14.4-32.3-32.2-32.3H219"/>
<path class="rev st8" d="M194.5,1511.3h69.3c17.8,0,32.3,14.5,32.2,32.3"/>
<path class="st8" d="M157,2117v-505.2c0-19.8,16-35.8,35.8-35.8h71c17.8,0,32.3-14.5,32.3-32.3c0,0,0,0,0,0v-95.6
	c0-17.8-14.4-32.3-32.2-32.3h-21.3"/>
<polygon class="st9" points="164,2110.6 163.3,2109.9 157,2116.6 150.7,2109.9 150,2110.6 157,2118.1 161.1,2113.7 "/>
<polygon class="st21" points="401.5,661 302.5,661 302.5,583 374.8,583 401.5,609.3 "/>
<path class="st0" d="M324.6,610.6c2.2-1.8,7-10.8,3.6-13.9c-2.5-2.3-6.2,0.4-8,2.3c-3.1,3.4-5,7.6-5.5,12.1c-0.5,4.1,0.3,9.9,5,11.4
	c1.6,0.5,3.4,0.2,4.8-0.8c1-0.9,1.9-1.9,2.5-3c0.7-1.1,1.7-2,2.9-2.6c1.9-0.7,3.2,0.4,4,2c0.7,1.3,1.1,3.2,2.5,4.1
	c1.7,1.1,3.8-0.5,5.1-1.5s3-2.4,4.8-2.2c1.5,0.2,2.6,1.3,3.9,1.9c1.2,0.5,2.5,0.7,3.7,0.7c4.8,0.2,9.5,0,14.2-0.6"/>
<polyline class="st0" points="401.5,609.3 374.8,609.3 374.8,583 "/>
<line class="st0" x1="316.8" y1="638.7" x2="349.9" y2="638.7"/>
<line class="st0" x1="316.8" y1="643.7" x2="343.6" y2="643.7"/>
<line class="st8" x1="157" y1="2534.6" x2="157" y2="2306.8"/>
<polygon class="st9" points="164,2528.1 163.3,2527.5 157,2534.2 150.7,2527.5 150,2528.1 157,2535.7 161.1,2531.3 "/>
<polygon class="st1" points="157,2130.1 176.5,2145.9 201.2,2141.9 210.2,2165.4 233.6,2174.3 229.7,2199.1 245.5,2218.6 
	229.7,2238.1 233.6,2262.8 210.2,2271.8 201.2,2295.2 176.5,2291.3 157,2307.1 137.5,2291.3 112.8,2295.2 103.8,2271.8 80.4,2262.8 
	84.3,2238.1 68.5,2218.6 84.3,2199.1 80.4,2174.3 103.8,2165.4 112.8,2141.9 137.5,2145.9 "/>
<path class="st20" d="M150.3,2237.4c0,9.1-7.4,16.5-16.5,16.5l0,0c-9.1,0-16.5-7.4-16.5-16.4c0,0,0,0,0,0v-37.6
	c0-9.1,7.4-16.5,16.5-16.5l0,0c9.1,0,16.5,7.4,16.5,16.5c0,0,0,0,0,0"/>
<path class="st20" d="M162.2,2253.8v-54.1c0-9.1,7.4-16.5,16.5-16.5l0,0c9.1,0,16.5,7.4,16.5,16.5c0,0,0,0,0,0v54.1"/>
<line class="st20" x1="162.2" y1="2225.9" x2="195.1" y2="2225.9"/>
<line class="st8" x1="157" y1="2960.3" x2="157" y2="2670.4"/>
<polygon class="st9" points="164,2953.8 163.3,2953.1 157,2959.9 150.7,2953.1 150,2953.8 157,2961.4 161.1,2956.9 "/>
<line class="st8" x1="157" y1="3815.7" x2="157" y2="3525.8"/>
<polygon class="st9" points="164,3809.3 163.3,3808.6 157,3815.4 150.7,3808.6 150,3809.3 157,3816.8 161.1,3812.4 "/>
<path class="st8" d="M52.7,1402.3h-2.4c-17.8,0-32.3-14.5-32.2-32.3v-98.1c0-17.8,14.4-32.3,32.2-32.3c0,0,0,0,0,0h71
	c19.8,0,35.8-16,35.8-35.8c0,0,0,0,0,0V771.4c0-17.7,14.3-32,32-32h131c17.7,0,32-14.3,32-32v-46.5"/>
<polygon class="st9" points="46.2,1395.3 45.5,1396 52.3,1402.3 45.5,1408.6 46.2,1409.3 53.8,1402.3 49.4,1398.2 "/>
<polygon class="st21" points="206.5,1023 107.5,1023 107.5,945 179.8,945 206.5,971.3 "/>
<path class="st0" d="M129.6,972.6c2.2-1.8,7-10.8,3.6-13.9c-2.5-2.3-6.2,0.4-8,2.3c-3.1,3.4-5,7.6-5.5,12.1
	c-0.5,4.1,0.3,9.9,4.9,11.4c1.6,0.5,3.4,0.2,4.8-0.8c1-0.9,1.9-1.9,2.5-3c0.7-1.1,1.7-2,2.9-2.6c1.9-0.7,3.2,0.4,4,2
	c0.8,1.3,1.1,3.2,2.5,4.1c1.6,1.1,3.8-0.5,5.1-1.5s3-2.4,4.9-2.2c1.5,0.2,2.6,1.3,3.9,1.9c1.2,0.5,2.5,0.7,3.7,0.7
	c4.8,0.2,9.5,0,14.2-0.6"/>
<polyline class="st0" points="206.5,971.3 179.8,971.3 179.8,945 "/>
<line class="st0" x1="121.8" y1="1000.7" x2="154.9" y2="1000.7"/>
<line class="st0" x1="121.8" y1="1005.7" x2="148.6" y2="1005.7"/>
<circle class="st1" cx="157" cy="1982" r="13"/>
<circle class="st22" cx="157" cy="1982" r="1"/>
<circle class="st1" cx="157" cy="2008" r="13"/>
<circle class="st22" cx="157" cy="2008" r="1"/>
<circle class="st1" cx="157" cy="2034" r="13"/>
<circle class="st22" cx="157" cy="2034" r="1"/>
<line class="st0" x1="157" y1="1982" x2="169" y2="1976.9"/>
<line class="st0" x1="150.4" y1="1977.6" x2="157" y2="1982"/>
<line class="st0" x1="157" y1="2008" x2="169.9" y2="2006.2"/>
<line class="st0" x1="150.4" y1="2003.6" x2="157" y2="2008"/>
<line class="st0" x1="157" y1="2034" x2="169.9" y2="2035.4"/>
<line class="st0" x1="150.3" y1="2029.6" x2="157" y2="2034"/>
<circle class="st1" cx="266" cy="1415.8" r="13"/>
<circle class="st22" cx="266" cy="1415.8" r="1"/>
<line class="st0" x1="266" y1="1415.8" x2="278" y2="1410.7"/>
<line class="st0" x1="259.4" y1="1411.3" x2="266" y2="1415.8"/>
<circle class="st1" cx="242" cy="1463.3" r="13"/>
<circle class="st22" cx="242" cy="1463.3" r="1"/>
<line class="st0" x1="242" y1="1463.3" x2="254.9" y2="1461.5"/>
<line class="st0" x1="235.4" y1="1458.9" x2="242" y2="1463.3"/>
<circle class="st1" cx="218" cy="1511.3" r="13"/>
<circle class="st22" cx="218" cy="1511.3" r="1"/>
<line class="st0" x1="218" y1="1511.3" x2="230.9" y2="1512.8"/>
<line class="st0" x1="211.3" y1="1506.9" x2="218" y2="1511.3"/>
<polygon class="st21" points="219.5,2464 120.5,2464 120.5,2386 192.8,2386 219.5,2412.3 "/>
<path class="st0" d="M142.6,2413.6c2.2-1.8,7-10.8,3.6-13.9c-2.5-2.3-6.2,0.4-8,2.3c-3.1,3.4-5,7.6-5.5,12.1
	c-0.5,4.1,0.3,9.9,5,11.4c1.6,0.5,3.4,0.2,4.8-0.8c1-0.9,1.9-1.9,2.5-3c0.7-1.1,1.7-2,2.9-2.6c1.9-0.7,3.2,0.4,4,2
	c0.8,1.3,1.1,3.2,2.5,4.1c1.6,1.1,3.8-0.4,5.1-1.5s3-2.4,4.9-2.2c1.5,0.2,2.6,1.3,3.9,1.9c1.2,0.5,2.5,0.7,3.7,0.7
	c4.8,0.2,9.5,0,14.2-0.6"/>
<polygon class="st1" points="199.4,2429.9 202.6,2432.4 206.7,2431.8 208.2,2435.6 212,2437 211.4,2441.1 214,2444.2 211.4,2447.4 
	212,2451.4 208.2,2452.9 206.7,2456.6 202.6,2456 199.4,2458.6 196.2,2456 192.1,2456.6 190.6,2452.9 186.8,2451.4 187.4,2447.4 
	184.8,2444.2 187.4,2441.1 186.8,2437 190.6,2435.6 192.1,2431.8 196.2,2432.4 "/>
<polyline class="st0" points="219.5,2412.3 192.8,2412.3 192.8,2386 "/>
<line class="st0" x1="134.8" y1="2441.7" x2="167.9" y2="2441.7"/>
<line class="st0" x1="134.8" y1="2446.7" x2="161.6" y2="2446.7"/>
<circle class="st1" cx="107.5" cy="2399" r="13"/>
<circle class="st22" cx="107.5" cy="2399" r="1"/>
<circle class="st1" cx="107.5" cy="2425" r="13"/>
<circle class="st22" cx="107.5" cy="2425" r="1"/>
<circle class="st1" cx="107.5" cy="2451" r="13"/>
<circle class="st22" cx="107.5" cy="2451" r="1"/>
<line class="st0" x1="107.5" y1="2399" x2="119.5" y2="2393.9"/>
<line class="st0" x1="100.9" y1="2394.6" x2="107.5" y2="2399"/>
<line class="st0" x1="107.5" y1="2425" x2="120.4" y2="2423.2"/>
<line class="st0" x1="100.9" y1="2420.6" x2="107.5" y2="2425"/>
<line class="st0" x1="107.5" y1="2451" x2="120.4" y2="2452.4"/>
<line class="st0" x1="100.8" y1="2446.6" x2="107.5" y2="2451"/>
<polyline class="st1" points="188.2,2861.2 79,2861.2 79,2738.2 234,2738.2 234,2821.8 "/>
<line class="st23" x1="89.3" y1="2749.4" x2="113.1" y2="2749.4"/>
<line class="st23" x1="211.4" y1="2749.4" x2="224.3" y2="2749.4"/>
<line class="st23" x1="190.3" y1="2749.4" x2="203.2" y2="2749.4"/>
<line class="st24" x1="109.8" y1="2786.7" x2="203.1" y2="2786.7"/>
<line class="st24" x1="121.7" y1="2797.4" x2="191.3" y2="2797.4"/>
<path class="st0" d="M79,2843c5.1-4.8,20.4-24.6,44.6-24.6c28.5,0,30.4,24.6,62.9,29.6c0.6,0.1,1.7,0.2,2.2,0.3"/>
<polygon class="st21" points="288,2899.8 189,2899.8 189,2821.8 261.3,2821.8 288,2848.1 "/>
<path class="st0" d="M211.1,2849.4c2.2-1.8,7-10.8,3.6-13.9c-2.5-2.3-6.2,0.4-8,2.3c-3.1,3.4-5,7.6-5.5,12.1
	c-0.5,4.1,0.3,9.9,4.9,11.4c1.6,0.5,3.4,0.2,4.8-0.8c1-0.9,1.9-1.9,2.5-3c0.7-1.1,1.7-2,2.9-2.6c1.9-0.7,3.2,0.4,4,2
	c0.7,1.3,1.1,3.2,2.5,4.1c1.7,1.1,3.8-0.4,5.1-1.5s3-2.4,4.8-2.2c1.5,0.2,2.6,1.3,3.9,1.9c1.2,0.5,2.5,0.7,3.7,0.7
	c4.8,0.2,9.5,0,14.2-0.6"/>
<polygon class="st1" points="267.9,2865.6 271.1,2868.2 275.2,2867.5 276.7,2871.3 280.5,2872.8 279.9,2876.8 282.5,2880 
	279.9,2883.1 280.5,2887.1 276.7,2888.6 275.2,2892.4 271.1,2891.8 267.9,2894.3 264.7,2891.8 260.6,2892.4 259.1,2888.6 
	255.3,2887.1 255.9,2883.1 253.3,2880 255.9,2876.8 255.3,2872.8 259.1,2871.3 260.6,2867.5 264.7,2868.2 "/>
<polyline class="st0" points="288,2848.1 261.3,2848.1 261.3,2821.8 "/>
<line class="st0" x1="203.3" y1="2877.5" x2="236.4" y2="2877.5"/>
<line class="st0" x1="203.3" y1="2882.5" x2="230.1" y2="2882.5"/>
<circle class="st1" cx="176" cy="2834.8" r="13"/>
<circle class="st22" cx="176" cy="2834.8" r="1"/>
<circle class="st1" cx="176" cy="2860.8" r="13"/>
<circle class="st22" cx="176" cy="2860.8" r="1"/>
<circle class="st1" cx="176" cy="2886.8" r="13"/>
<circle class="st22" cx="176" cy="2886.8" r="1"/>
<line class="st0" x1="176" y1="2834.8" x2="188" y2="2829.7"/>
<line class="st0" x1="169.4" y1="2830.3" x2="176" y2="2834.8"/>
<line class="st0" x1="176" y1="2860.8" x2="188.9" y2="2859"/>
<line class="st0" x1="169.4" y1="2856.3" x2="176" y2="2860.8"/>
<line class="st0" x1="176" y1="2886.8" x2="188.9" y2="2888.2"/>
<line class="st0" x1="169.3" y1="2882.3" x2="176" y2="2886.8"/>
<ellipse class="st8 rev" cx="157" cy="3372.3" rx="156.5" ry="153.5"/>
<polyline class="st2" points="220,3401.8 244.2,3401.8 244.2,3248.3 118.3,3248.3 118.3,3295.6 "/>
<line class="st0" x1="181.2" y1="3283.8" x2="181.2" y2="3295.6"/>
<g>
	<rect x="142.5" y="3260.2" class="st3" width="77.5" height="23.6"/>
	<g>
		<polyline class="st0" points="220,3278.8 220,3283.8 215,3283.8 		"/>
		<line class="st26" x1="211.3" y1="3283.8" x2="149.3" y2="3283.8"/>
		<polyline class="st0" points="147.5,3283.8 142.5,3283.8 142.5,3278.8 		"/>
		<line class="st27" x1="142.5" y1="3275.8" x2="142.5" y2="3266.7"/>
		<polyline class="st0" points="142.5,3265.2 142.5,3260.2 147.5,3260.2 		"/>
		<line class="st26" x1="151.1" y1="3260.2" x2="213.1" y2="3260.2"/>
		<polyline class="st0" points="215,3260.2 220,3260.2 220,3265.2 		"/>
		<line class="st27" x1="220" y1="3268.2" x2="220" y2="3277.3"/>
	</g>
</g>
<polyline class="st2" points="195.7,3449 220,3449 220,3295.6 94,3295.6 94,3342.9 "/>
<line class="st0" x1="157" y1="3331.1" x2="157" y2="3342.9"/>
<g>
	<rect x="105.1" y="3307.5" class="st3" width="77.5" height="23.6"/>
	<g>
		<polyline class="st0" points="182.6,3326.1 182.6,3331.1 177.6,3331.1 		"/>
		<line class="st26" x1="173.9" y1="3331.1" x2="111.9" y2="3331.1"/>
		<polyline class="st0" points="110.1,3331.1 105.1,3331.1 105.1,3326.1 		"/>
		<line class="st27" x1="105.1" y1="3323.1" x2="105.1" y2="3314"/>
		<polyline class="st0" points="105.1,3312.5 105.1,3307.5 110.1,3307.5 		"/>
		<line class="st26" x1="113.7" y1="3307.5" x2="175.7" y2="3307.5"/>
		<polyline class="st0" points="177.6,3307.5 182.6,3307.5 182.6,3312.5 		"/>
		<line class="st27" x1="182.6" y1="3315.5" x2="182.6" y2="3324.6"/>
	</g>
</g>
<rect x="69.8" y="3342.9" class="st2" width="125.9" height="153.4"/>
<line class="st0" x1="132.8" y1="3378.4" x2="132.8" y2="3390.1"/>
<line class="st0" x1="132.8" y1="3413.7" x2="132.8" y2="3425.5"/>
<line class="st0" x1="132.8" y1="3449" x2="132.8" y2="3460.8"/>
<line class="st0" x1="132.8" y1="3484.4" x2="132.8" y2="3496.1"/>
<rect x="83" y="3460.9" class="st0" width="77.5" height="23.6"/>
<rect x="97.4" y="3425.5" class="st0" width="77.5" height="23.6"/>
<rect x="91.8" y="3390.1" class="st0" width="77.5" height="23.6"/>
<g>
	<rect x="105.1" y="3354.8" class="st3" width="77.5" height="23.6"/>
	<g>
		<polyline class="st0" points="182.6,3373.4 182.6,3378.4 177.6,3378.4 		"/>
		<line class="st26" x1="173.9" y1="3378.4" x2="111.9" y2="3378.4"/>
		<polyline class="st0" points="110.1,3378.4 105.1,3378.4 105.1,3373.4 		"/>
		<line class="st27" x1="105.1" y1="3370.3" x2="105.1" y2="3361.3"/>
		<polyline class="st0" points="105.1,3359.8 105.1,3354.8 110.1,3354.8 		"/>
		<line class="st26" x1="113.7" y1="3354.8" x2="175.7" y2="3354.8"/>
		<polyline class="st0" points="177.6,3354.8 182.6,3354.8 182.6,3359.8 		"/>
		<line class="st27" x1="182.6" y1="3362.8" x2="182.6" y2="3371.9"/>
	</g>
</g>
<path class="st5" d="M185,3476.7h-4.9l-1.2,3.9h-1.7l4.3-13.5h2.2l4.3,13.5h-1.8L185,3476.7z M182.5,3468.8l-1.9,6.5h4.1l-2-6.5
	H182.5z"/>
<path class="st5" d="M208.3,3419.8c2.4,0,3.8,1.4,3.8,3.5c0.1,1.4-0.8,2.6-2.2,2.9v0.1c1.6,0.2,2.8,1.6,2.7,3.2
	c0.1,2.1-1.5,3.8-3.6,3.9c0,0-0.1,0-0.1,0h-5.3v-13.5L208.3,3419.8z M210.4,3423.8v-0.8c0-1.2-0.9-1.9-2.2-1.9h-2.9v4.5h2.9
	C209.5,3425.7,210.4,3425.1,210.4,3423.8L210.4,3423.8z M210.9,3429.8v-0.8c0-1.4-0.9-2-2.5-2h-3.1v4.9h3.1
	C209.9,3431.9,210.9,3431.2,210.9,3429.8L210.9,3429.8z"/>
<path class="st5" d="M227.4,3379.3c0-4.5,1.6-7,5-7c1.9-0.1,3.7,1.2,4.3,3l-1.4,0.6c-0.5-1.2-1.1-2.2-2.8-2.2
	c-2.2,0-3.3,1.8-3.3,4.5v2.2c0,2.7,1,4.5,3.3,4.5c1.7,0,2.3-1,2.8-2.2l1.4,0.6c-0.6,1.8-2.3,3.1-4.3,3
	C229.1,3386.3,227.4,3383.8,227.4,3379.3z"/>
<polygon class="st28" points="233.8,3621.2 270.4,3621.2 270.4,3642.3 270.4,3686.4 233.8,3686.4 "/>
<polygon class="st28" points="43.4,3642.3 43.4,3621.2 80,3621.2 80,3720.8 43.4,3720.8 "/>
<polygon class="st1" points="80,3720.8 80,3705.6 68.3,3700.2 65.3,3701.5 65.3,3720.8 "/>
<path class="st0" d="M56.8,3666c4.2,5.5,10.8,8.7,17.7,8.7c1.9,0,3.7-0.3,5.5-0.7v-11.1c-5.8,3.1-13,0.9-16.1-5s-0.9-13,5-16.1
	c3.5-1.8,7.7-1.8,11.2,0v-11.1c-1.8-0.5-3.7-0.7-5.6-0.7c-9.8,0-18.5,6.4-21.4,15.7"/>
<path class="st1" d="M80,3630.7c-1.8-0.5-3.7-0.7-5.6-0.7v10.5c1.9,0,3.8,0.5,5.6,1.4V3630.7z"/>
<polyline class="st28" points="233.8,3732.5 80,3732.5 80,3609.5 233.8,3609.5 "/>
<rect x="80" y="3609.5" class="st0" width="76.9" height="76.9"/>
<polyline class="st0" points="208.7,3686.4 156.9,3686.4 156.9,3609.5 233.8,3609.5 233.8,3635.5 "/>
<polygon class="st1" points="80,3720 110.8,3707.1 141.5,3721.2 172.3,3697.7 203,3719.9 206.7,3716.6 206.7,3732.5 80,3732.5 "/>
<rect x="167.7" y="3620.3" class="st1" width="13.8" height="55.3"/>
<rect x="188.4" y="3649.1" class="st0" width="13.8" height="26.4"/>
<polyline class="st0" points="220.2,3675.6 209.2,3675.6 209.2,3642.1 219.2,3642.1 "/>
<line class="st0" x1="223" y1="3670.9" x2="223" y2="3674.7"/>
<path class="st0" d="M118.5,3620.3c-15.3,0-27.7,12.4-27.7,27.6c0,15.3,12.4,27.7,27.6,27.7c15.3,0,27.7-12.4,27.7-27.6c0,0,0,0,0,0
	C146.1,3632.7,133.7,3620.3,118.5,3620.3C118.5,3620.3,118.5,3620.3,118.5,3620.3z M118.5,3662.7c-8.1,0-14.7-6.6-14.7-14.7
	c0-8.1,6.6-14.7,14.7-14.7c8.1,0,14.7,6.6,14.7,14.7c0,0,0,0,0,0C133.2,3656.1,126.6,3662.7,118.5,3662.7L118.5,3662.7z"/>
<path class="st1" d="M143.1,3635.3c-4.7-9.2-14.2-15-24.6-15l0,0v12.9l0,0c5.5,0,10.6,3.1,13.1,8l0,0L143.1,3635.3L143.1,3635.3z"/>
<circle class="st1" cx="270.6" cy="3657.9" r="15.6"/>
<path class="st1" d="M260.8,3720.8h31.7v-30.1c0-9.5-7.7-17.2-17.2-17.2h-9.5c-4.8,0-9.4,2-12.7,5.6"/>
<ellipse class="st1" cx="233.8" cy="3654.8" rx="19.3" ry="19.3"/>
<path class="st1" d="M227.9,3674.1h11.7c11.7,0,21.2,9.5,21.2,21.2v37.2l0,0h-54.1l0,0v-37.2
	C206.7,3683.6,216.2,3674.1,227.9,3674.1C227.9,3674.1,227.9,3674.1,227.9,3674.1z"/>
<circle class="st1" cx="43.4" cy="3657.9" r="15.6"/>
<path class="st1" d="M38.7,3673.5h9.5c9.5,0,17.2,7.7,17.2,17.2v30.1l0,0H21.5l0,0v-30.1C21.5,3681.2,29.2,3673.5,38.7,3673.5z"/>
<path class="st8" d="M302.3,622h-56.6"/>
<g>
	<rect x="79" y="2973.2" class="st29" width="155" height="124"/>
	<rect x="92.3" y="2999.8" class="st1" width="141.7" height="48.9"/>
	<g>
		<path class="st0" d="M116.8,3035.2h-10.3c-2.1,0-3.7-1.7-3.7-3.7v-6.1c0-2.1,1.7-3.7,3.7-3.7h10.3c2.1,0,3.7,1.7,3.7,3.7v6.1
			C120.5,3033.5,118.8,3035.2,116.8,3035.2z"/>
		<path class="st0" d="M117.7,3021.7h-12.2v-3.2c0-3.4,2.7-6.1,6.1-6.1h0c3.4,0,6.1,2.7,6.1,6.1V3021.7z"/>
		<circle class="st0" cx="111.6" cy="3028.4" r="3.1"/>
	</g>
	<g>
		<path class="st5" d="M143.1,3025.3v10h-1.8v-9.4c0-3.4-1.8-4.8-4.4-4.8c-2.7,0-5.3,1.9-5.3,5.6v8.6h-1.8v-22.6h1.8v10
			c1-2.1,3.1-3.2,5.5-3.2C140.5,3019.6,143.1,3021.5,143.1,3025.3z"/>
		<path class="st5" d="M156.9,3034.3c-0.8,0.8-2.1,1.3-3.6,1.3c-2.4,0-4.1-1.3-4.1-4.2v-10.1h-3.1v-1.5h3.1v-3.8l1.8-0.5v4.3h5.8
			v1.5h-5.8v9.8c0,1.9,1,2.8,2.6,2.8c1.1,0,1.9-0.4,2.7-1.1L156.9,3034.3z"/>
		<path class="st5" d="M167.6,3034.3c-0.8,0.8-2.1,1.3-3.6,1.3c-2.4,0-4.1-1.3-4.1-4.2v-10.1h-3.1v-1.5h3.1v-3.8l1.8-0.5v4.3h5.8
			v1.5h-5.8v9.8c0,1.9,1,2.8,2.6,2.8c1.1,0,1.9-0.4,2.7-1.1L167.6,3034.3z"/>
		<path class="st5" d="M185.2,3027.6c0,5-2.7,8-7,8c-2.6,0-4.6-1.3-5.6-3.4v9.5h-1.8v-21.9h1.6l0.1,3.3c0.9-2.2,2.9-3.6,5.7-3.6
			C182.5,3019.6,185.2,3022.6,185.2,3027.6z M183.4,3027.6c0-4-2-6.5-5.5-6.5c-3.1,0-5.3,2.3-5.3,6.1v0.9c0.1,3.8,2.2,6.1,5.3,6.1
			C181.4,3034.1,183.4,3031.6,183.4,3027.6z"/>
		<path class="st5" d="M188.3,3032l1.5-1c0.7,2,2.7,3,5.3,3c2.8,0,4.3-1.2,4.3-2.8c0-1.4-1.1-2.2-4.5-2.8c-4.4-0.8-5.9-2-5.9-4.4
			c0-2.5,2.3-4.5,6-4.5c3.2,0,5.2,1.2,6,3.8l-1.5,0.9c-0.6-2.2-2.2-3.1-4.5-3.1c-2.4,0-4.2,1.3-4.2,2.7c0,1.6,1.1,2.4,4.6,3
			c4.3,0.7,5.8,1.9,5.8,4.4c0,2.7-2.4,4.4-6.3,4.4C191.9,3035.6,189.3,3034.5,188.3,3032z"/>
		<path class="st5" d="M208.3,3021.2c0,0.9-0.6,1.5-1.5,1.5c-0.9,0-1.5-0.6-1.5-1.5c0-0.9,0.6-1.5,1.5-1.5
			C207.6,3019.7,208.3,3020.3,208.3,3021.2z M208.3,3034c0,0.9-0.6,1.5-1.5,1.5c-0.9,0-1.5-0.6-1.5-1.5c0-0.9,0.6-1.5,1.5-1.5
			C207.6,3032.5,208.3,3033.1,208.3,3034z"/>
		<path class="st5" d="M213.4,3037.5h-1.7l8.9-24.7h1.7L213.4,3037.5z"/>
		<path class="st5" d="M221.3,3037.5h-1.7l8.9-24.7h1.7L221.3,3037.5z"/>
	</g>
	<rect x="92.3" y="3061.9" class="st30" width="64.3" height="35.4"/>
	<rect x="169.7" y="3061.9" class="st30" width="64.3" height="35.4"/>
	<g>
		<line class="st30" x1="213.4" y1="2979.2" x2="228.1" y2="2993.8"/>
		<line class="st30" x1="213.4" y1="2993.8" x2="228.1" y2="2979.2"/>
	</g>
	<line class="st30" x1="190.1" y1="2993.8" x2="204.2" y2="2993.8"/>
	<polygon class="st31" points="224.3,3078.5 212.4,3066.6 200.4,3054.6 200.4,3071.5 200.4,3088.4 207.6,3080.6 212.4,3092.2 
		218.5,3089.6 213.8,3078.1 	"/>
</g>
</svg>
