<svg width="538" height="294" viewBox="0 0 538 294" fill="none" xmlns="http://www.w3.org/2000/svg">
<line x1="147.5" y1="2.18557e-08" x2="147.5" y2="50" stroke="#B0B1B5"/>
<line x1="172" y1="25.5" x2="122" y2="25.5" stroke="#B0B1B5"/>
<line x1="391.5" y1="2.18557e-08" x2="391.5" y2="50" stroke="#B0B1B5"/>
<line x1="416" y1="25.5" x2="366" y2="25.5" stroke="#B0B1B5"/>
<line x1="269.5" y1="2.18557e-08" x2="269.5" y2="50" stroke="#B0B1B5"/>
<line x1="294" y1="25.5" x2="244" y2="25.5" stroke="#B0B1B5"/>
<line x1="25.5" y1="2.18557e-08" x2="25.5" y2="50" stroke="#B0B1B5"/>
<line x1="50" y1="25.5" x2="-3.64262e-08" y2="25.5" stroke="#B0B1B5"/>
<line x1="147.5" y1="122" x2="147.5" y2="172" stroke="#B0B1B5"/>
<line x1="172" y1="147.5" x2="122" y2="147.5" stroke="#B0B1B5"/>
<line x1="391.5" y1="122" x2="391.5" y2="172" stroke="#B0B1B5"/>
<line x1="416" y1="147.5" x2="366" y2="147.5" stroke="#B0B1B5"/>
<line x1="269.5" y1="122" x2="269.5" y2="172" stroke="#B0B1B5"/>
<line x1="294" y1="147.5" x2="244" y2="147.5" stroke="#B0B1B5"/>
<line x1="147.5" y1="244" x2="147.5" y2="294" stroke="#B0B1B5"/>
<line x1="172" y1="269.5" x2="122" y2="269.5" stroke="#B0B1B5"/>
<line x1="25.5" y1="122" x2="25.5" y2="172" stroke="#B0B1B5"/>
<line x1="50" y1="147.5" x2="-3.64262e-08" y2="147.5" stroke="#B0B1B5"/>
<line x1="25.5" y1="244" x2="25.5" y2="294" stroke="#B0B1B5"/>
<line x1="50" y1="269.5" x2="-3.64262e-08" y2="269.5" stroke="#B0B1B5"/>
<line x1="513.5" y1="2.18557e-08" x2="513.5" y2="50" stroke="#B0B1B5"/>
<line x1="538" y1="25.5" x2="488" y2="25.5" stroke="#B0B1B5"/>
<line x1="513.5" y1="122" x2="513.5" y2="172" stroke="#B0B1B5"/>
<line x1="538" y1="147.5" x2="488" y2="147.5" stroke="#B0B1B5"/>
<line x1="513.5" y1="244" x2="513.5" y2="294" stroke="#B0B1B5"/>
<line x1="538" y1="269.5" x2="488" y2="269.5" stroke="#B0B1B5"/>
<line x1="391.5" y1="244" x2="391.5" y2="294" stroke="#B0B1B5"/>
<line x1="416" y1="269.5" x2="366" y2="269.5" stroke="#B0B1B5"/>
<line x1="269.5" y1="244" x2="269.5" y2="294" stroke="#B0B1B5"/>
<line x1="294" y1="269.5" x2="244" y2="269.5" stroke="#B0B1B5"/>
<rect x="270" y="148" width="121" height="121" fill="white" stroke="#1A1B1F" stroke-width="2"/>
<rect x="294" y="123" width="121" height="121" fill="white" stroke="#1A1B1F" stroke-width="2"/>
<rect x="318" y="98" width="121" height="121" fill="white" stroke="#1A1B1F" stroke-width="2"/>
<path d="M378.5 116L387.96 123.195L399.75 121.694L404.345 132.655L415.306 137.25L413.805 149.04L421 158.5L413.805 167.96L415.306 179.75L404.345 184.345L399.75 195.306L387.96 193.805L378.5 201L369.04 193.805L357.25 195.306L352.655 184.345L341.694 179.75L343.195 167.96L336 158.5L343.195 149.04L341.694 137.25L352.655 132.655L357.25 121.694L369.04 123.195L378.5 116Z" stroke="#1A1B1F" stroke-width="2"/>
<rect class='anim rev' x="392" y="26" width="121" height="121" fill="white" stroke="#1A1B1F" stroke-width="2" stroke-dasharray="6 3"/>
<path d="M452.5 44L461.96 51.1954L473.75 49.6939L478.345 60.6552L489.306 65.25L487.805 77.0402L495 86.5L487.805 95.9598L489.306 107.75L478.345 112.345L473.75 123.306L461.96 121.805L452.5 129L443.04 121.805L431.25 123.306L426.655 112.345L415.694 107.75L417.195 95.9598L410 86.5L417.195 77.0402L415.694 65.25L426.655 60.6552L431.25 49.6939L443.04 51.1954L452.5 44Z" fill="#D6FFF8" stroke="#1A1B1F" stroke-width="2"/>
</svg>
