<svg width="539" height="296" viewBox="0 0 539 296" fill="none" xmlns="http://www.w3.org/2000/svg">
<line x1="148.5" y1="1" x2="148.5" y2="51" stroke="#B0B1B5"/>
<line x1="173" y1="26.5" x2="123" y2="26.5" stroke="#B0B1B5"/>
<line x1="392.5" y1="1" x2="392.5" y2="51" stroke="#B0B1B5"/>
<line x1="417" y1="26.5" x2="367" y2="26.5" stroke="#B0B1B5"/>
<line x1="270.5" y1="1" x2="270.5" y2="51" stroke="#B0B1B5"/>
<line x1="295" y1="26.5" x2="245" y2="26.5" stroke="#B0B1B5"/>
<line x1="26.5" y1="1" x2="26.5" y2="51" stroke="#B0B1B5"/>
<line x1="51" y1="26.5" x2="1" y2="26.5" stroke="#B0B1B5"/>
<line x1="148.5" y1="123" x2="148.5" y2="173" stroke="#B0B1B5"/>
<line x1="173" y1="148.5" x2="123" y2="148.5" stroke="#B0B1B5"/>
<line x1="392.5" y1="123" x2="392.5" y2="173" stroke="#B0B1B5"/>
<line x1="417" y1="148.5" x2="367" y2="148.5" stroke="#B0B1B5"/>
<line x1="270.5" y1="123" x2="270.5" y2="173" stroke="#B0B1B5"/>
<line x1="295" y1="148.5" x2="245" y2="148.5" stroke="#B0B1B5"/>
<line x1="148.5" y1="245" x2="148.5" y2="295" stroke="#B0B1B5"/>
<line x1="173" y1="270.5" x2="123" y2="270.5" stroke="#B0B1B5"/>
<line x1="26.5" y1="123" x2="26.5" y2="173" stroke="#B0B1B5"/>
<line x1="51" y1="148.5" x2="1" y2="148.5" stroke="#B0B1B5"/>
<line x1="26.5" y1="245" x2="26.5" y2="295" stroke="#B0B1B5"/>
<line x1="51" y1="270.5" x2="1" y2="270.5" stroke="#B0B1B5"/>
<line x1="514.5" y1="1" x2="514.5" y2="51" stroke="#B0B1B5"/>
<line x1="539" y1="26.5" x2="489" y2="26.5" stroke="#B0B1B5"/>
<line x1="514.5" y1="123" x2="514.5" y2="173" stroke="#B0B1B5"/>
<line x1="539" y1="148.5" x2="489" y2="148.5" stroke="#B0B1B5"/>
<line x1="514.5" y1="245" x2="514.5" y2="295" stroke="#B0B1B5"/>
<line x1="539" y1="270.5" x2="489" y2="270.5" stroke="#B0B1B5"/>
<line x1="392.5" y1="245" x2="392.5" y2="295" stroke="#B0B1B5"/>
<line x1="417" y1="270.5" x2="367" y2="270.5" stroke="#B0B1B5"/>
<line x1="270.5" y1="245" x2="270.5" y2="295" stroke="#B0B1B5"/>
<line x1="295" y1="270.5" x2="245" y2="270.5" stroke="#B0B1B5"/>
<path class='anim rev' d="M1 87C1 39.5035 39.5035 1 87 1V1C134.496 1 173 39.5035 173 87V173H87C39.5035 173 1 134.496 1 87V87Z" stroke="#1A1B1F" stroke-width="2" stroke-dasharray="6 3"/>
<path class='anim rev' d="M295 209C295 256.496 256.496 295 209 295V295C161.504 295 123 256.497 123 209L123 123L209 123C256.496 123 295 161.504 295 209V209Z" stroke="#1A1B1F" stroke-width="2" stroke-dasharray="6 3"/>
<circle cx="88" cy="58" r="31" fill="#D6FFF8" stroke="#1A1B1F" stroke-width="2"/>
<path d="M87.5 89C54.0868 89 27 115.415 27 148H148C148 115.415 120.913 89 87.5 89Z" fill="#D6FFF8" stroke="#1A1B1F" stroke-width="2"/>
<path d="M149 149H245.407L270 173.593V270H149V149Z" fill="#D6FFF8" stroke="#1A1B1F" stroke-width="2"/>
<rect x="244.987" y="227" width="26" height="26" transform="rotate(45 244.987 227)" fill="white" stroke="#1A1B1F" stroke-width="2"/>
<path d="M245 149V174H270" stroke="#1A1B1F" stroke-width="2"/>
<line x1="161" y1="185" x2="237" y2="185" stroke="#1A1B1F" stroke-width="2"/>
<line x1="161" y1="198" x2="212" y2="198" stroke="#1A1B1F" stroke-width="2"/>
</svg>
