<?xml version="1.0" encoding="utf-8"?>
<svg version="1.1" id="Layer_1" xmlns="http://www.w3.org/2000/svg" xmlns:xlink="http://www.w3.org/1999/xlink" x="0px" y="0px"
	 viewBox="0 0 1270 294" style="enable-background:new 0 0 1270 294;" xml:space="preserve">
<style type="text/css">
	.st0{fill:none;stroke:#B0B1B5;}
	.st1{fill:#D4F7DA;stroke:#1A1B1F;stroke-width:2;}
	.st2{fill:none;stroke:#1A1B1F;stroke-width:2;}
	.st3{fill:none;stroke:#1A1B1F;stroke-width:2;stroke-dasharray:6.2162,3.1081;}
</style>
<line class="st0" x1="25.5" y1="0" x2="25.5" y2="50"/>
<line class="st0" x1="50" y1="25.5" x2="0" y2="25.5"/>
<line class="st0" x1="1123.5" y1="0" x2="1123.5" y2="50"/>
<line class="st0" x1="1148" y1="25.5" x2="1098" y2="25.5"/>
<line class="st0" x1="1245.5" y1="0" x2="1245.5" y2="50"/>
<line class="st0" x1="1270" y1="25.5" x2="1220" y2="25.5"/>
<line class="st0" x1="1001.5" y1="0" x2="1001.5" y2="50"/>
<line class="st0" x1="1026" y1="25.5" x2="976" y2="25.5"/>
<line class="st0" x1="879.5" y1="0" x2="879.5" y2="50"/>
<line class="st0" x1="904" y1="25.5" x2="854" y2="25.5"/>
<line class="st0" x1="757.5" y1="0" x2="757.5" y2="50"/>
<line class="st0" x1="782" y1="25.5" x2="732" y2="25.5"/>
<line class="st0" x1="25.5" y1="122" x2="25.5" y2="172"/>
<line class="st0" x1="50" y1="147.5" x2="0" y2="147.5"/>
<line class="st0" x1="1123.5" y1="122" x2="1123.5" y2="172"/>
<line class="st0" x1="1148" y1="147.5" x2="1098" y2="147.5"/>
<line class="st0" x1="1245.5" y1="122" x2="1245.5" y2="172"/>
<line class="st0" x1="1270" y1="147.5" x2="1220" y2="147.5"/>
<line class="st0" x1="1001.5" y1="122" x2="1001.5" y2="172"/>
<line class="st0" x1="1026" y1="147.5" x2="976" y2="147.5"/>
<line class="st0" x1="879.5" y1="122" x2="879.5" y2="172"/>
<line class="st0" x1="904" y1="147.5" x2="854" y2="147.5"/>
<line class="st0" x1="757.5" y1="122" x2="757.5" y2="172"/>
<line class="st0" x1="782" y1="147.5" x2="732" y2="147.5"/>
<line class="st0" x1="25.5" y1="244" x2="25.5" y2="294"/>
<line class="st0" x1="50" y1="269.5" x2="0" y2="269.5"/>
<line class="st0" x1="1123.5" y1="244" x2="1123.5" y2="294"/>
<line class="st0" x1="1148" y1="269.5" x2="1098" y2="269.5"/>
<line class="st0" x1="1245.5" y1="244" x2="1245.5" y2="294"/>
<line class="st0" x1="1270" y1="269.5" x2="1220" y2="269.5"/>
<line class="st0" x1="1001.5" y1="244" x2="1001.5" y2="294"/>
<line class="st0" x1="1026" y1="269.5" x2="976" y2="269.5"/>
<line class="st0" x1="879.5" y1="244" x2="879.5" y2="294"/>
<line class="st0" x1="904" y1="269.5" x2="854" y2="269.5"/>
<line class="st0" x1="757.5" y1="244" x2="757.5" y2="294"/>
<line class="st0" x1="782" y1="269.5" x2="732" y2="269.5"/>
<rect x="771" y="197" class="st1" width="72" height="23"/>
<rect x="794" y="233" class="st1" width="72" height="23"/>
<rect x="783" y="161" class="st1" width="72" height="23"/>
<line class="st2" x1="819" y1="184" x2="819" y2="197"/>
<line class="st2" x1="819" y1="257" x2="819" y2="268.5"/>
<line class="st2" x1="819" y1="220" x2="819" y2="233"/>
<rect x="794" y="75" class="st1" width="72" height="23"/>
<rect x="783" y="111" class="st1" width="72" height="23"/>
<rect x="771" y="39" class="st1" width="72" height="23"/>
<line class="st2" x1="819" y1="62" x2="819" y2="75"/>
<line class="st2" x1="819" y1="135" x2="819" y2="146.5"/>
<line class="st2" x1="819" y1="98" x2="819" y2="111"/>
<rect x="904" y="75" class="st1" width="72" height="23"/>
<rect x="916" y="111" class="st1" width="72" height="23"/>
<rect x="893" y="39" class="st1" width="72" height="23"/>
<line class="st2" x1="941" y1="62" x2="941" y2="75"/>
<line class="st2" x1="941" y1="135" x2="941" y2="146.5"/>
<line class="st2" x1="941" y1="98" x2="941" y2="111"/>
<rect x="1027" y="197" class="st1" width="72" height="23"/>
<rect x="1015" y="233" class="st1" width="72" height="23"/>
<rect x="1038" y="161" class="st1" width="72" height="23"/>
<line class="st2" x1="1063" y1="184" x2="1063" y2="197"/>
<line class="st2" x1="1063" y1="257" x2="1063" y2="268.5"/>
<line class="st2" x1="1063" y1="220" x2="1063" y2="233"/>
<rect x="1015" y="75" class="st1" width="72" height="23"/>
<rect x="1038" y="111" class="st1" width="72" height="23"/>
<rect x="1027" y="39" class="st1" width="72" height="23"/>
<line class="st2" x1="1063" y1="62" x2="1063" y2="75"/>
<line class="st2" x1="1063" y1="135" x2="1063" y2="146.5"/>
<line class="st2" x1="1063" y1="98" x2="1063" y2="111"/>
<rect x="916" y="197" class="st1" width="72" height="23"/>
<rect x="904" y="233" class="st1" width="72" height="23"/>
<rect x="893" y="161" class="st1" width="72" height="23"/>
<line class="st2" x1="941" y1="184" x2="941" y2="197"/>
<line class="st2" x1="941" y1="257" x2="941" y2="268.5"/>
<line class="st2" x1="941" y1="220" x2="941" y2="233"/>
<path class="anim st3" d="M880,147h121V26H880"/>
<path class="anim st3" d="M758,147h121V26H758V147z"/>
<path class="anim st3" d="M758,148v121h121V148"/>
<path class="anim st3" d="M1002,147h121V26h-121"/>
<path class="anim st3" d="M1002,269h121V148"/>
<path class="anim st3" d="M880,269h121V148"/>
</svg>
