<svg width="111" height="55" viewBox="0 0 111 55" fill="none" xmlns="http://www.w3.org/2000/svg">
<path d="M47.7711 29.7111C47.7711 34.9903 43.7019 38.8805 38.708 38.8805C33.7142 38.8805 29.645 34.9903 29.645 29.7111C29.645 24.3947 33.7142 20.5417 38.708 20.5417C43.7019 20.5417 47.7711 24.3947 47.7711 29.7111ZM43.8037 29.7111C43.8037 26.4121 41.4453 24.1549 38.708 24.1549C35.9708 24.1549 33.6124 26.4121 33.6124 29.7111C33.6124 32.977 35.9708 35.2673 38.708 35.2673C41.4453 35.2673 43.8037 32.9729 43.8037 29.7111Z" fill="#EA4335"/>
<path d="M67.3228 29.7111C67.3228 34.9903 63.2536 38.8805 58.2598 38.8805C53.2659 38.8805 49.1967 34.9903 49.1967 29.7111C49.1967 24.3988 53.2659 20.5417 58.2598 20.5417C63.2536 20.5417 67.3228 24.3947 67.3228 29.7111ZM63.3554 29.7111C63.3554 26.4121 60.997 24.1549 58.2598 24.1549C55.5225 24.1549 53.1641 26.4121 53.1641 29.7111C53.1641 32.977 55.5225 35.2673 58.2598 35.2673C60.997 35.2673 63.3554 32.9729 63.3554 29.7111Z" fill="#FBBC05"/>
<path d="M86.0599 21.0957V37.5576C86.0599 44.3292 82.1251 47.0949 77.4734 47.0949C73.0946 47.0949 70.4592 44.1225 69.4653 41.6917L72.9195 40.2323C73.5345 41.7247 75.0417 43.4858 77.4693 43.4858C80.4469 43.4858 82.2921 41.6214 82.2921 38.1115V36.7928H82.1536C81.2656 37.9048 79.5548 38.8763 77.396 38.8763C72.8787 38.8763 68.7403 34.8828 68.7403 29.7442C68.7403 24.5683 72.8787 20.5417 77.396 20.5417C79.5508 20.5417 81.2616 21.5133 82.1536 22.5922H82.2921V21.0998H86.0599V21.0957ZM82.5731 29.7442C82.5731 26.5155 80.451 24.1549 77.7504 24.1549C75.0131 24.1549 72.7199 26.5155 72.7199 29.7442C72.7199 32.9398 75.0131 35.2673 77.7504 35.2673C80.451 35.2673 82.5731 32.9398 82.5731 29.7442Z" fill="#4285F4"/>
<path d="M92.2716 11.447V38.3184H88.402V11.447H92.2716Z" fill="#34A853"/>
<path d="M107.351 32.7291L110.43 34.8127C109.436 36.3051 107.041 38.8765 102.903 38.8765C97.7705 38.8765 93.9376 34.8499 93.9376 29.7071C93.9376 24.2542 97.8031 20.5377 102.459 20.5377C107.147 20.5377 109.44 24.3245 110.19 26.3709L110.601 27.4127L98.5241 32.4893C99.4487 34.329 100.887 35.2674 102.903 35.2674C104.923 35.2674 106.324 34.2587 107.351 32.7291ZM97.8723 29.4301L105.946 26.0278C105.502 24.8826 104.166 24.0848 102.593 24.0848C100.577 24.0848 97.7705 25.8913 97.8723 29.4301V29.4301Z" fill="#EA4335"/>
<path d="M14.9975 27.3259V23.4357H27.9139C28.0401 24.1137 28.1053 24.9157 28.1053 25.7839C28.1053 28.7025 27.3192 32.3116 24.7856 34.883C22.3213 37.4874 19.1726 38.8765 15.0016 38.8765C7.27051 38.8765 0.769562 32.4852 0.769562 24.6387C0.769562 16.7923 7.27051 10.401 15.0016 10.401C19.2785 10.401 22.3253 12.1042 24.6145 14.3242L21.9099 17.0693C20.2683 15.5066 18.0443 14.2912 14.9975 14.2912C9.35195 14.2912 4.93652 18.9089 4.93652 24.6387C4.93652 30.3686 9.35195 34.9863 14.9975 34.9863C18.6594 34.9863 20.7449 33.4939 22.0809 32.1379C23.1644 31.0383 23.8773 29.4673 24.1583 27.3217L14.9975 27.3259V27.3259Z" fill="#4285F4"/>
</svg>
