<svg width="153" height="56" viewBox="0 0 153 56" fill="none" xmlns="http://www.w3.org/2000/svg">
<path d="M34.0757 35.4089V21.3891H37.5013V32.462H43.0003V35.4089H34.0757Z" fill="#2C3C69"/>
<path d="M54.3137 30.5867C54.3137 30.7207 54.3137 30.8546 54.3137 30.9886C54.3137 31.1225 54.3137 31.2565 54.3137 31.3458H47.102C47.147 31.6136 47.1921 31.8815 47.3724 32.1048C47.5527 32.328 47.6879 32.5066 47.9133 32.6852C48.1387 32.8638 48.364 32.9978 48.6345 33.0871C48.9049 33.1764 49.1754 33.221 49.4909 33.221C50.0318 33.221 50.4374 33.1317 50.798 32.9531C51.1586 32.7745 51.429 32.5066 51.6995 32.1941L53.9982 33.6228C53.5475 34.2926 52.9165 34.8284 52.1502 35.1856C51.384 35.5427 50.4825 35.7213 49.4909 35.7213C48.7246 35.7213 48.0485 35.5874 47.3724 35.3642C46.6963 35.1409 46.1103 34.7837 45.6145 34.3372C45.1187 33.8907 44.7131 33.355 44.4426 32.6852C44.1722 32.0155 43.9919 31.3011 43.9919 30.4528C43.9919 29.6491 44.1271 28.9347 44.3975 28.265C44.668 27.5952 45.0737 27.0595 45.5244 26.613C46.0202 26.1665 46.5611 25.8093 47.2372 25.5414C47.8682 25.2735 48.5894 25.1842 49.3556 25.1842C50.0768 25.1842 50.7529 25.3182 51.384 25.5414C52.015 25.7646 52.5108 26.1218 52.9615 26.613C53.4123 27.0595 53.7278 27.6399 53.9982 28.3096C54.2236 28.9794 54.3137 29.7384 54.3137 30.5867ZM51.2938 29.3366C51.2938 28.8008 51.1135 28.3989 50.798 27.9971C50.4825 27.6399 49.9867 27.4613 49.3106 27.4613C48.9951 27.4613 48.6795 27.5059 48.4091 27.5952C48.1387 27.6845 47.9133 27.8185 47.6879 27.9971C47.5076 28.1757 47.3273 28.3543 47.1921 28.6222C47.0569 28.8454 47.0118 29.1133 47.0118 29.3366H51.2938V29.3366Z" fill="#2C3C69"/>
<path d="M59.5872 27.9526V31.7477C59.5872 32.1942 59.6774 32.5514 59.8577 32.7747C60.038 32.9979 60.3535 33.1319 60.8493 33.1319C61.0296 33.1319 61.1648 33.1319 61.3451 33.0872C61.5254 33.0426 61.6606 33.0426 61.7958 32.9533L61.8409 35.3196C61.6155 35.4089 61.3451 35.4536 60.9845 35.5429C60.6239 35.5875 60.3084 35.6322 59.9478 35.6322C59.2717 35.6322 58.7308 35.5429 58.2801 35.3643C57.8294 35.1857 57.4688 34.9625 57.1983 34.6499C56.9279 34.3374 56.7476 33.9802 56.6124 33.5337C56.4771 33.0872 56.4321 32.6407 56.4321 32.1049V27.9526H54.8545V25.5415H56.4321V22.9519H59.6323V25.5415H61.9761V27.9526H59.5872V27.9526Z" fill="#2C3C69"/>
<path d="M72.5234 28.4437C72.253 28.1758 71.9375 27.9972 71.5769 27.8186C71.2163 27.64 70.8557 27.5507 70.4501 27.5507C70.1345 27.5507 69.8641 27.5954 69.5937 27.7293C69.3232 27.8633 69.188 28.0419 69.188 28.3544C69.188 28.6223 69.3232 28.8456 69.6387 28.9349C69.9542 29.0242 70.405 29.2028 71.036 29.3367C71.3966 29.426 71.8023 29.5153 72.1629 29.6939C72.5235 29.8725 72.884 30.0511 73.1996 30.2743C73.5151 30.4976 73.7404 30.8101 73.9207 31.1673C74.101 31.5245 74.1912 31.9263 74.1912 32.4175C74.1912 33.0426 74.056 33.5783 73.8306 33.9802C73.5601 34.4267 73.2446 34.7392 72.839 35.0071C72.4333 35.275 71.9826 35.4536 71.4868 35.5875C70.9909 35.7215 70.4951 35.7661 69.9542 35.7661C69.1429 35.7661 68.3316 35.6322 67.5653 35.3643C66.7991 35.0964 66.123 34.7392 65.6272 34.2034L67.4752 32.2835C67.7456 32.5961 68.1062 32.864 68.557 33.0872C68.9626 33.3105 69.4584 33.3998 69.9092 33.3998C70.1796 33.3998 70.4501 33.3551 70.7205 33.2212C70.9909 33.0872 71.1262 32.864 71.1262 32.5514C71.1262 32.2389 70.9459 32.0156 70.6304 31.8817C70.3148 31.7477 69.819 31.5691 69.1429 31.4352C68.7823 31.3459 68.4668 31.2566 68.1062 31.1227C67.7456 30.9887 67.4301 30.8101 67.1597 30.5869C66.8892 30.3636 66.6639 30.0957 66.4836 29.7385C66.3033 29.426 66.2131 29.0242 66.2131 28.533C66.2131 27.9526 66.3484 27.4168 66.5737 27.015C66.8442 26.6131 67.1597 26.2559 67.5653 25.988C67.971 25.7201 68.4217 25.5415 68.8725 25.4076C69.3232 25.2737 69.8641 25.229 70.3148 25.229C71.0811 25.229 71.8023 25.363 72.5234 25.5862C73.2446 25.8094 73.8306 26.1666 74.3264 26.6131L72.5234 28.4437Z" fill="#2C3C69"/>
<path d="M80.5016 35.4088V21.389H90.0121V24.2466H83.7919V26.8809H89.6515V29.6044H83.7919V32.5066H90.3727V35.4088H80.5016Z" fill="#2C3C69"/>
<path d="M99.0268 35.4088V30.0063C99.0268 29.7384 98.9817 29.4705 98.9366 29.2026C98.8916 28.9347 98.8014 28.7115 98.7113 28.5329C98.6211 28.3543 98.4408 28.1757 98.2605 28.0864C98.0802 27.9971 97.8098 27.9078 97.5393 27.9078C97.2689 27.9078 96.9985 27.9524 96.7731 28.0864C96.5477 28.2203 96.3674 28.3543 96.2322 28.5329C96.097 28.7115 95.9618 28.9794 95.9167 29.2026C95.8265 29.4705 95.8265 29.7384 95.8265 30.0063V35.3641H92.5362V25.5414H95.7364V26.9255H95.7815C95.9167 26.7023 96.0519 26.5237 96.2322 26.3004C96.4125 26.0772 96.6379 25.8986 96.9083 25.7646C97.1788 25.6307 97.4492 25.4967 97.7647 25.4074C98.0802 25.3181 98.3957 25.2735 98.7563 25.2735C99.4324 25.2735 99.9733 25.4074 100.469 25.6307C100.965 25.8539 101.326 26.1665 101.596 26.5683C101.866 26.9255 102.092 27.372 102.227 27.8631C102.362 28.3543 102.407 28.8454 102.407 29.3365V35.4534L99.0268 35.4088Z" fill="#2C3C69"/>
<path d="M110.746 28.7116C110.566 28.4884 110.295 28.2651 109.98 28.1312C109.664 27.9972 109.349 27.9079 108.988 27.9079C108.628 27.9079 108.312 27.9972 108.042 28.1312C107.771 28.2651 107.501 28.4437 107.32 28.667C107.14 28.8902 106.96 29.1581 106.87 29.4706C106.734 29.7832 106.689 30.0957 106.689 30.4529C106.689 30.8101 106.734 31.1227 106.87 31.4352C106.96 31.7477 107.14 32.0156 107.32 32.2389C107.546 32.4621 107.771 32.6407 108.042 32.7747C108.312 32.9086 108.673 32.9533 109.033 32.9533C109.349 32.9533 109.709 32.9086 110.025 32.7747C110.34 32.6407 110.611 32.4621 110.836 32.2389L112.639 34.4267C112.233 34.8285 111.693 35.1411 111.061 35.3643C110.43 35.5875 109.709 35.7215 108.988 35.7215C108.222 35.7215 107.456 35.5875 106.779 35.3643C106.103 35.1411 105.517 34.7839 105.022 34.3374C104.526 33.8909 104.12 33.3105 103.85 32.6854C103.579 32.0603 103.399 31.3013 103.399 30.4976C103.399 29.6939 103.534 28.9795 103.85 28.3098C104.12 27.6847 104.526 27.1043 105.022 26.6578C105.517 26.2113 106.103 25.8541 106.779 25.5862C107.456 25.363 108.177 25.229 108.943 25.229C109.304 25.229 109.664 25.2737 110.025 25.3183C110.385 25.363 110.701 25.4522 111.061 25.5862C111.422 25.7201 111.693 25.8541 111.963 25.988C112.233 26.122 112.459 26.3452 112.684 26.5238L110.746 28.7116Z" fill="#2C3C69"/>
<path d="M120.347 28.2205C120.211 28.1758 120.076 28.1758 119.896 28.1312C119.716 28.0865 119.626 28.1312 119.49 28.1312C119.04 28.1312 118.679 28.2205 118.363 28.3544C118.048 28.533 117.823 28.7116 117.642 28.9349C117.462 29.1581 117.327 29.3814 117.237 29.6492C117.146 29.9171 117.101 30.1404 117.101 30.319V35.3643H113.811V25.5415H116.966V26.9703H117.011C117.282 26.4792 117.642 26.0327 118.093 25.7201C118.544 25.4076 119.085 25.229 119.716 25.229C119.851 25.229 119.986 25.229 120.121 25.229C120.257 25.229 120.347 25.2737 120.437 25.2737L120.347 28.2205Z" fill="#2C3C69"/>
<path d="M128.054 36.8823C127.874 37.4181 127.649 37.8645 127.378 38.2664C127.153 38.6682 126.837 39.0254 126.477 39.2933C126.116 39.5612 125.756 39.7844 125.26 39.9184C124.809 40.0523 124.268 40.1416 123.637 40.1416C123.322 40.1416 123.006 40.1416 122.691 40.097C122.375 40.0523 122.059 40.0077 121.834 39.9184L122.195 37.1948C122.375 37.2395 122.51 37.2841 122.736 37.3288C122.916 37.3734 123.096 37.3734 123.276 37.3734C123.772 37.3734 124.133 37.2395 124.358 37.0162C124.584 36.793 124.764 36.4804 124.944 36.0339L125.26 35.2303L121.113 25.5414H124.764L126.973 31.8816H127.018L129.001 25.5414H132.472L128.054 36.8823Z" fill="#2C3C69"/>
<path d="M144.461 30.4081C144.461 31.0779 144.371 31.7476 144.146 32.3727C143.92 32.9978 143.605 33.5782 143.199 34.0247C142.793 34.5158 142.297 34.873 141.712 35.1856C141.126 35.4534 140.449 35.632 139.728 35.632C139.097 35.632 138.556 35.4981 137.97 35.2749C137.384 35.0516 136.979 34.6944 136.708 34.2926H136.663V40.1416H133.373V25.5414H136.483V26.7469H136.528C136.844 26.3451 137.249 25.9879 137.79 25.72C138.331 25.4074 138.962 25.2735 139.683 25.2735C140.404 25.2735 141.035 25.4074 141.621 25.6753C142.207 25.9432 142.703 26.3451 143.109 26.7916C143.514 27.238 143.83 27.8185 144.055 28.4436C144.371 29.0687 144.461 29.7384 144.461 30.4081ZM141.261 30.4081C141.261 30.0956 141.216 29.783 141.126 29.4705C141.035 29.158 140.9 28.8901 140.675 28.6668C140.495 28.4436 140.224 28.265 139.954 28.0864C139.683 27.9078 139.323 27.8631 138.917 27.8631C138.556 27.8631 138.196 27.9524 137.925 28.0864C137.61 28.2203 137.384 28.4436 137.159 28.6668C136.934 28.8901 136.799 29.158 136.663 29.4705C136.528 29.783 136.483 30.0956 136.483 30.4081C136.483 30.7207 136.528 31.0332 136.663 31.3457C136.799 31.6583 136.934 31.9262 137.159 32.1494C137.384 32.3727 137.61 32.5959 137.925 32.7299C138.196 32.8638 138.556 32.9531 138.917 32.9531C139.323 32.9531 139.638 32.8638 139.954 32.7299C140.269 32.5959 140.495 32.3727 140.675 32.1494C140.855 31.9262 141.035 31.6583 141.126 31.3457C141.216 31.0779 141.261 30.7653 141.261 30.4081Z" fill="#2C3C69"/>
<path d="M149.69 27.9526V31.7477C149.69 32.1942 149.78 32.5514 149.96 32.7747C150.14 32.9979 150.456 33.1319 150.952 33.1319C151.132 33.1319 151.267 33.1319 151.447 33.0872C151.628 33.0426 151.763 33.0426 151.898 32.9533L151.943 35.3196C151.718 35.4089 151.447 35.4536 151.087 35.5429C150.726 35.5875 150.411 35.6322 150.05 35.6322C149.374 35.6322 148.833 35.5429 148.382 35.3643C147.932 35.1857 147.571 34.9625 147.301 34.6499C147.03 34.3374 146.85 33.9802 146.715 33.5337C146.58 33.0872 146.534 32.6407 146.534 32.1049V27.9526H144.957V25.5415H146.534V22.9519H149.735V25.5415H152.078V27.9526H149.69V27.9526Z" fill="#2C3C69"/>
<path d="M64.906 21.1213C63.9144 21.1213 63.1482 21.8357 63.1482 22.7286C63.1482 23.6663 63.7792 24.2913 64.7708 24.2913C64.861 24.2913 64.9511 24.2913 64.9962 24.2913C64.861 25.0057 64.1398 25.4969 63.5088 25.5862H63.3735V27.1042H63.5538C64.3201 27.0149 65.0863 26.6577 65.6723 26.1219C66.3935 25.4076 66.7991 24.4253 66.7991 23.1751C66.7991 21.9696 65.9878 21.1213 64.906 21.1213Z" fill="#2C3C69"/>
<path d="M20.5085 21.4338H16.9026V19.6032C16.9026 18.1298 15.6856 16.9243 14.1982 16.9243C12.7108 16.9243 11.4938 18.1298 11.4938 19.6032V21.4338H7.88788V19.6032C7.88788 16.1652 10.7275 13.3524 14.1982 13.3524C17.6689 13.3524 20.5085 16.1652 20.5085 19.6032V21.4338Z" fill="#F9A11D"/>
<path d="M21.9509 21.4337H6.40052C5.72442 21.4337 5.18353 21.9695 5.18353 22.6392V34.0247C5.18353 34.6944 5.72442 35.2302 6.40052 35.2302H21.9509C22.627 35.2302 23.1679 34.6944 23.1679 34.0247V22.5946C23.1679 21.9695 22.627 21.4337 21.9509 21.4337ZM14.9645 28.8901V30.4528C14.9645 30.8993 14.6039 31.2118 14.1983 31.2118C13.7926 31.2118 13.432 30.8546 13.432 30.4528V28.8901C12.9362 28.6222 12.6207 28.0864 12.6207 27.506C12.6207 26.613 13.3419 25.8986 14.2433 25.8986C15.1448 25.8986 15.866 26.613 15.866 27.506C15.7758 28.1311 15.4603 28.6222 14.9645 28.8901Z" fill="#2C3C69"/>
<path d="M4.82294 19.7371H1.08183C0.450798 19.7371 6.10352e-05 19.246 6.10352e-05 18.6656C6.10352e-05 18.0851 0.495871 17.594 1.08183 17.594H4.82294C5.45397 17.594 5.90471 18.0851 5.90471 18.6656C5.90471 19.246 5.45397 19.7371 4.82294 19.7371Z" fill="#F9A11D"/>
<path d="M7.48226 13.888C7.25689 13.888 6.98645 13.7987 6.76108 13.6201L3.78622 11.2091C3.33548 10.8073 3.24534 10.1375 3.651 9.69104C4.05666 9.24455 4.73277 9.15526 5.1835 9.5571L8.15836 11.9681C8.6091 12.37 8.69925 13.0397 8.29359 13.4862C8.11329 13.7541 7.79778 13.888 7.48226 13.888Z" fill="#F9A11D"/>
<path d="M14.1982 11.2986C13.5671 11.2986 13.1164 10.8074 13.1164 10.227V6.47648C13.1164 5.8514 13.6122 5.40491 14.1982 5.40491C14.7841 5.40491 15.2799 5.89605 15.2799 6.47648V10.227C15.2799 10.8074 14.7841 11.2986 14.1982 11.2986Z" fill="#F9A11D"/>
<path d="M20.9142 13.888C20.5987 13.888 20.2832 13.7541 20.0578 13.4862C19.6521 13.0397 19.7423 12.3253 20.193 11.9681L23.1679 9.5571C23.6186 9.15526 24.3398 9.24455 24.7004 9.69104C25.106 10.1375 25.0159 10.8519 24.5652 11.2091L21.5903 13.6201C21.41 13.7987 21.1396 13.888 20.9142 13.888Z" fill="#F9A11D"/>
<path d="M27.3146 19.7371H23.5284C22.8974 19.7371 22.4466 19.246 22.4466 18.6656C22.4466 18.0851 22.9424 17.594 23.5284 17.594H27.3146C27.9456 17.594 28.3963 18.0851 28.3963 18.6656C28.3963 19.246 27.9005 19.7371 27.3146 19.7371Z" fill="#F9A11D"/>
</svg>
