<svg width="117" height="55" viewBox="0 0 117 55" fill="none" xmlns="http://www.w3.org/2000/svg">
<path d="M31.4069 39.1788H19.1265C18.5985 39.1788 18.3575 38.9147 18.4034 38.3866L20.3775 15.8037C20.4234 15.2755 20.7103 15.0115 21.2382 15.0115H33.5187C34.0237 15.0115 34.2417 15.2755 34.1958 15.8037L33.9778 18.3639C33.9319 18.892 33.6564 19.1561 33.1629 19.1561H25.3126C25.0142 19.1561 24.8535 19.2939 24.8306 19.5694L24.4059 24.4603C24.3829 24.7358 24.5207 24.8736 24.8191 24.8736H31.2462C31.7742 24.8736 32.0152 25.1376 31.9693 25.6658L31.7397 28.226C31.6938 28.7541 31.4069 29.0182 30.879 29.0182H24.4518C24.1534 29.0182 23.9927 29.156 23.9698 29.4315L23.5107 34.6553C23.4877 34.9309 23.6255 35.0686 23.9239 35.0686H31.7742C32.2792 35.0686 32.4972 35.3327 32.4513 35.8608L32.2332 38.4211C32.1873 38.9147 31.9119 39.1788 31.4069 39.1788ZM44.6629 39.1788H40.5656C38.5915 39.1788 37.0995 38.6507 36.124 37.6059C35.1369 36.5497 34.7352 35.0342 34.9074 33.0595L35.9518 21.1423C36.124 19.1676 36.8011 17.6521 37.9603 16.5958C39.131 15.5396 40.7033 15.023 42.6774 15.023H46.7747C48.7258 15.023 50.2063 15.5511 51.2048 16.6188C52.2033 17.6865 52.6165 19.1905 52.4443 21.1423L52.2951 22.9103C52.2492 23.4614 51.9508 23.737 51.3999 23.737H48.2437C47.7158 23.737 47.4748 23.4614 47.5322 22.9103L47.6699 21.3719C47.7387 20.5682 47.624 20.0057 47.3141 19.6612C47.0042 19.3283 46.4533 19.1561 45.6499 19.1561H43.0905C42.3101 19.1561 41.7477 19.3283 41.369 19.6612C41.0017 19.9942 40.7836 20.5682 40.7148 21.3719L39.7163 32.8299C39.6474 33.6335 39.7622 34.1961 40.0721 34.5405C40.382 34.8735 40.9214 35.0457 41.7018 35.0457H44.2612C45.0646 35.0457 45.6499 34.8735 46.0172 34.5405C46.3844 34.2076 46.6025 33.6335 46.6714 32.8299L46.7861 31.2799C46.8321 30.7288 47.119 30.4533 47.6469 30.4533H50.8031C51.354 30.4533 51.6065 30.7288 51.5606 31.2799L51.4114 33.048C51.2392 34.9997 50.5621 36.5152 49.38 37.5715C48.1863 38.6392 46.614 39.1788 44.6629 39.1788ZM62.1195 39.1788H58.9633C58.4124 39.1788 58.1599 38.9147 58.2058 38.3866L59.847 19.5579C59.87 19.2824 59.7437 19.1446 59.4683 19.1446H55.1873C54.6594 19.1446 54.4184 18.8805 54.4643 18.3524L54.6823 15.7922C54.7283 15.2641 55.0152 15 55.5431 15H69.7402C70.2682 15 70.5092 15.2641 70.4633 15.7922L70.2452 18.3524C70.1993 18.8805 69.9124 19.1446 69.3844 19.1446H65.1035C64.8051 19.1446 64.6444 19.2824 64.6215 19.5579L62.9803 38.3866C62.9343 38.9147 62.6474 39.1788 62.1195 39.1788ZM77.6823 15.7922L75.7083 38.3866C75.6624 38.9147 75.3755 39.1788 74.8475 39.1788H71.6569C71.129 39.1788 70.8879 38.9147 70.9338 38.3866L72.9079 15.8037C72.9538 15.2755 73.2407 15.0115 73.7687 15.0115H76.9593C77.4872 15.0115 77.7283 15.2755 77.6823 15.7922ZM105.262 35.0342H107.924C108.728 35.0342 109.313 34.862 109.68 34.529C110.048 34.1961 110.266 33.622 110.335 32.8184L111.333 21.3604C111.402 20.5568 111.287 19.9942 110.977 19.6498C110.667 19.3168 110.116 19.1446 109.313 19.1446H106.65C105.847 19.1446 105.273 19.3168 104.917 19.6498C104.562 19.9827 104.355 20.5568 104.275 21.3604L103.276 32.8184C103.207 33.622 103.322 34.1846 103.62 34.529C103.907 34.8735 104.458 35.0342 105.262 35.0342ZM108.349 39.1788H104.137C102.163 39.1788 100.671 38.6507 99.6953 37.6059C98.7083 36.5497 98.3066 35.0342 98.4788 33.0595L99.5232 21.1423C99.6953 19.1561 100.372 17.6406 101.532 16.5844C102.702 15.5281 104.275 15.0115 106.249 15.0115H110.461C112.435 15.0115 113.927 15.5396 114.902 16.5844C115.889 17.6406 116.291 19.1561 116.119 21.1308L115.075 33.048C114.902 35.0227 114.225 36.5382 113.066 37.5944C111.907 38.6507 110.335 39.1788 108.349 39.1788ZM92.3844 23.094H95.5751C96.103 23.094 96.3899 22.8185 96.4358 22.2674L96.5391 21.1423C96.7113 19.1905 96.2981 17.6751 95.3226 16.6188C94.3355 15.5511 92.8665 15.023 90.9154 15.023H86.9328C84.9588 15.023 83.375 15.5511 82.2158 16.5958C81.0451 17.6521 80.3795 19.1676 80.2073 21.1423L79.1514 33.048C78.9793 35.0227 79.381 36.5382 80.368 37.5944C81.355 38.6507 82.8355 39.1673 84.8096 39.1673H88.7921C90.7432 39.1673 92.3041 38.6392 93.4748 37.5715C94.6454 36.5037 95.3111 34.9997 95.4832 33.048L96.0341 26.7679C96.0801 26.1939 95.8161 25.9069 95.2422 25.9069H87.8051C87.2198 25.9069 86.8066 26.5383 87.0476 27.0435L88.0117 28.9952C88.333 29.6382 88.9872 30.04 89.7332 30.04H90.5481C90.8236 30.04 90.9498 30.1778 90.9269 30.4533L90.7203 32.8184C90.6514 33.622 90.4333 34.1846 90.0776 34.529C89.7218 34.862 89.1479 35.0342 88.3445 35.0342H85.8999C85.1195 35.0342 84.5801 34.862 84.2702 34.529C83.9603 34.1961 83.8455 33.622 83.9144 32.8184L84.9129 21.3604C84.9817 20.5568 85.1998 19.9942 85.5671 19.6498C85.9343 19.3168 86.5082 19.1446 87.2886 19.1446H89.7332C90.5366 19.1446 91.0875 19.3168 91.3745 19.6498C91.6729 19.9827 91.7876 20.5568 91.7073 21.3604L91.627 22.2674C91.627 22.8185 91.8565 23.094 92.3844 23.094Z" fill="#0A1B2B"/>
<path d="M15.2779 19.156C16.0239 19.156 16.7469 18.7542 17.1831 18.1113L18.4914 16.1595C18.8358 15.6543 18.5259 15.0229 17.9405 15.0229H8.54084C6.56679 15.0229 4.99444 15.551 3.82378 16.5958C2.6646 17.6405 1.99893 19.1445 1.81529 21.0963L1.37917 26.2283C1.21849 28.1915 1.62018 29.684 2.59573 30.7288C3.58276 31.785 5.0633 32.3017 7.03735 32.3017H9.18356C9.59673 32.3017 9.83775 31.9687 9.88366 31.5095L10.1017 28.9952C10.1362 28.5359 9.80332 28.1685 9.34424 28.1685H8.15062C7.37018 28.1685 6.83076 27.9963 6.52088 27.6634C6.211 27.3304 6.09623 26.7564 6.16509 25.9527L6.56679 21.3604C6.63565 20.5567 6.85372 19.9941 7.22098 19.6497C7.58825 19.3167 8.1621 19.1445 8.93106 19.1445C8.93106 19.1445 15.2779 19.156 15.2779 19.156Z" fill="#00B373"/>
<path d="M9.89513 21.8885C9.459 21.8885 9.24094 22.2214 9.19503 22.6807L8.97697 25.195C8.94254 25.6542 9.27537 26.0216 9.73445 26.0216H10.9281C11.7085 26.0216 12.2479 26.1938 12.5578 26.5268C12.8677 26.8597 12.9825 27.4338 12.9136 28.2374L12.5119 32.8298C12.443 33.6335 12.225 34.196 11.8577 34.5404C11.4904 34.8734 10.9166 35.0456 10.1476 35.0456H3.66309C2.91709 35.0456 2.19403 35.4474 1.7579 36.0904L0.449521 38.0421C0.10521 38.5473 0.41509 39.1787 1.00042 39.1787H10.5378C12.5119 39.1787 14.0843 38.6506 15.2549 37.6059C16.4141 36.5611 17.0798 35.0571 17.2634 33.1053L17.711 27.9849C17.8717 26.0216 17.47 24.5291 16.4944 23.4843C15.5074 22.4281 14.0269 21.9115 12.0528 21.9115H9.89513V21.8885Z" fill="#00B373"/>
</svg>
