<?xml version="1.0" encoding="utf-8"?>
<!-- Generator: Adobe Illustrator 24.0.1, SVG Export Plug-In . SVG Version: 6.00 Build 0)  -->
<svg version="1.1" id="Layer_1" xmlns="http://www.w3.org/2000/svg" xmlns:xlink="http://www.w3.org/1999/xlink" x="0px" y="0px"
	 viewBox="0 0 1270 416" style="enable-background:new 0 0 1270 416;" xml:space="preserve">
<style type="text/css">
	.st0{fill:none;stroke:#B0B1B5;}
</style>
<g id="Group_191">
	<g id="Illustration_x2F_Grid_x2F_Main">
		<g id="Crosshair">
			<line id="Line_1" class="st0" x1="147.5" y1="0" x2="147.5" y2="50"/>
			<line id="Line_2" class="st0" x1="172" y1="25.5" x2="122" y2="25.5"/>
		</g>
		<g id="Crosshair_2">
			<line id="Line_1_x5F_2" class="st0" x1="25.5" y1="0" x2="25.5" y2="50"/>
			<line id="Line_2_x5F_2" class="st0" x1="50" y1="25.5" x2="0" y2="25.5"/>
		</g>
		<g id="Crosshair_3">
			<line id="Line_1_x5F_3" class="st0" x1="1123.5" y1="0" x2="1123.5" y2="50"/>
			<line id="Line_2_x5F_3" class="st0" x1="1148" y1="25.5" x2="1098" y2="25.5"/>
		</g>
		<g id="Crosshair_4">
			<line id="Line_1_x5F_4" class="st0" x1="1245.5" y1="0" x2="1245.5" y2="50"/>
			<line id="Line_2_x5F_4" class="st0" x1="1270" y1="25.5" x2="1220" y2="25.5"/>
		</g>
		<g id="Crosshair_5">
			<line id="Line_1_x5F_5" class="st0" x1="1001.5" y1="0" x2="1001.5" y2="50"/>
			<line id="Line_2_x5F_5" class="st0" x1="1026" y1="25.5" x2="976" y2="25.5"/>
		</g>
		<g id="Crosshair_6">
			<line id="Line_1_x5F_6" class="st0" x1="879.5" y1="0" x2="879.5" y2="50"/>
			<line id="Line_2_x5F_6" class="st0" x1="904" y1="25.5" x2="854" y2="25.5"/>
		</g>
		<g id="Crosshair_7">
			<line id="Line_1_x5F_7" class="st0" x1="757.5" y1="0" x2="757.5" y2="50"/>
			<line id="Line_2_x5F_7" class="st0" x1="782" y1="25.5" x2="732" y2="25.5"/>
		</g>
		<g id="Crosshair_8">
			<line id="Line_1_x5F_8" class="st0" x1="635.5" y1="0" x2="635.5" y2="50"/>
			<line id="Line_2_x5F_8" class="st0" x1="660" y1="25.5" x2="610" y2="25.5"/>
		</g>
		<g id="Crosshair_9">
			<line id="Line_1_x5F_9" class="st0" x1="513.5" y1="0" x2="513.5" y2="50"/>
			<line id="Line_2_x5F_9" class="st0" x1="538" y1="25.5" x2="488" y2="25.5"/>
		</g>
		<g id="Crosshair_10">
			<line id="Line_1_x5F_10" class="st0" x1="391.5" y1="0" x2="391.5" y2="50"/>
			<line id="Line_2_x5F_10" class="st0" x1="416" y1="25.5" x2="366" y2="25.5"/>
		</g>
		<g id="Crosshair_11">
			<line id="Line_1_x5F_11" class="st0" x1="269.5" y1="0" x2="269.5" y2="50"/>
			<line id="Line_2_x5F_11" class="st0" x1="294" y1="25.5" x2="244" y2="25.5"/>
		</g>
		<g id="Crosshair_12">
			<line id="Line_1_x5F_12" class="st0" x1="147.5" y1="122" x2="147.5" y2="172"/>
			<line id="Line_2_x5F_12" class="st0" x1="172" y1="147.5" x2="122" y2="147.5"/>
		</g>
		<g id="Crosshair_13">
			<line id="Line_1_x5F_13" class="st0" x1="25.5" y1="122" x2="25.5" y2="172"/>
			<line id="Line_2_x5F_13" class="st0" x1="50" y1="147.5" x2="0" y2="147.5"/>
		</g>
		<g id="Crosshair_14">
			<line id="Line_1_x5F_14" class="st0" x1="1123.5" y1="122" x2="1123.5" y2="172"/>
			<line id="Line_2_x5F_14" class="st0" x1="1148" y1="147.5" x2="1098" y2="147.5"/>
		</g>
		<g id="Crosshair_15">
			<line id="Line_1_x5F_15" class="st0" x1="1245.5" y1="122" x2="1245.5" y2="172"/>
			<line id="Line_2_x5F_15" class="st0" x1="1270" y1="147.5" x2="1220" y2="147.5"/>
		</g>
		<g id="Crosshair_23">
			<line id="Line_1_x5F_23" class="st0" x1="147.5" y1="244" x2="147.5" y2="294"/>
			<line id="Line_2_x5F_23" class="st0" x1="172" y1="269.5" x2="122" y2="269.5"/>
		</g>
		<g id="Crosshair_24">
			<line id="Line_1_x5F_24" class="st0" x1="25.5" y1="244" x2="25.5" y2="294"/>
			<line id="Line_2_x5F_24" class="st0" x1="50" y1="269.5" x2="0" y2="269.5"/>
		</g>
		<g id="Crosshair_25">
			<line id="Line_1_x5F_25" class="st0" x1="1123.5" y1="244" x2="1123.5" y2="294"/>
			<line id="Line_2_x5F_25" class="st0" x1="1148" y1="269.5" x2="1098" y2="269.5"/>
		</g>
		<g id="Crosshair_26">
			<line id="Line_1_x5F_26" class="st0" x1="1245.5" y1="244" x2="1245.5" y2="294"/>
			<line id="Line_2_x5F_26" class="st0" x1="1270" y1="269.5" x2="1220" y2="269.5"/>
		</g>
		<g id="Crosshair_34">
			<line id="Line_1_x5F_34" class="st0" x1="147.5" y1="366" x2="147.5" y2="416"/>
			<line id="Line_2_x5F_34" class="st0" x1="172" y1="391.5" x2="122" y2="391.5"/>
		</g>
		<g id="Crosshair_35">
			<line id="Line_1_x5F_35" class="st0" x1="25.5" y1="366" x2="25.5" y2="416"/>
			<line id="Line_2_x5F_35" class="st0" x1="50" y1="391.5" x2="0" y2="391.5"/>
		</g>
		<g id="Crosshair_36">
			<line id="Line_1_x5F_36" class="st0" x1="1123.5" y1="366" x2="1123.5" y2="416"/>
			<line id="Line_2_x5F_36" class="st0" x1="1148" y1="391.5" x2="1098" y2="391.5"/>
		</g>
		<g id="Crosshair_37">
			<line id="Line_1_x5F_37" class="st0" x1="1245.5" y1="366" x2="1245.5" y2="416"/>
			<line id="Line_2_x5F_37" class="st0" x1="1270" y1="391.5" x2="1220" y2="391.5"/>
		</g>
		<g id="Crosshair_38">
			<line id="Line_1_x5F_38" class="st0" x1="1001.5" y1="366" x2="1001.5" y2="416"/>
			<line id="Line_2_x5F_38" class="st0" x1="1026" y1="391.5" x2="976" y2="391.5"/>
		</g>
		<g id="Crosshair_39">
			<line id="Line_1_x5F_39" class="st0" x1="879.5" y1="366" x2="879.5" y2="416"/>
			<line id="Line_2_x5F_39" class="st0" x1="904" y1="391.5" x2="854" y2="391.5"/>
		</g>
		<g id="Crosshair_40">
			<line id="Line_1_x5F_40" class="st0" x1="757.5" y1="366" x2="757.5" y2="416"/>
			<line id="Line_2_x5F_40" class="st0" x1="782" y1="391.5" x2="732" y2="391.5"/>
		</g>
		<g id="Crosshair_41">
			<line id="Line_1_x5F_41" class="st0" x1="635.5" y1="366" x2="635.5" y2="416"/>
			<line id="Line_2_x5F_41" class="st0" x1="660" y1="391.5" x2="610" y2="391.5"/>
		</g>
		<g id="Crosshair_42">
			<line id="Line_1_x5F_42" class="st0" x1="513.5" y1="366" x2="513.5" y2="416"/>
			<line id="Line_2_x5F_42" class="st0" x1="538" y1="391.5" x2="488" y2="391.5"/>
		</g>
		<g id="Crosshair_43">
			<line id="Line_1_x5F_43" class="st0" x1="391.5" y1="366" x2="391.5" y2="416"/>
			<line id="Line_2_x5F_43" class="st0" x1="416" y1="391.5" x2="366" y2="391.5"/>
		</g>
		<g id="Crosshair_44">
			<line id="Line_1_x5F_44" class="st0" x1="269.5" y1="366" x2="269.5" y2="416"/>
			<line id="Line_2_x5F_44" class="st0" x1="294" y1="391.5" x2="244" y2="391.5"/>
		</g>
	</g>
</g>
</svg>
