<svg width="538" height="296" viewBox="0 0 538 296" fill="none" xmlns="http://www.w3.org/2000/svg">
<line x1="147.5" y1="1" x2="147.5" y2="51" stroke="#B0B1B5"/>
<line x1="172" y1="26.5" x2="122" y2="26.5" stroke="#B0B1B5"/>
<line x1="391.5" y1="1" x2="391.5" y2="51" stroke="#B0B1B5"/>
<line x1="416" y1="26.5" x2="366" y2="26.5" stroke="#B0B1B5"/>
<line x1="269.5" y1="1" x2="269.5" y2="51" stroke="#B0B1B5"/>
<line x1="294" y1="26.5" x2="244" y2="26.5" stroke="#B0B1B5"/>
<line x1="25.5" y1="1" x2="25.5" y2="51" stroke="#B0B1B5"/>
<line x1="50" y1="26.5" x2="-3.64262e-08" y2="26.5" stroke="#B0B1B5"/>
<line x1="147.5" y1="123" x2="147.5" y2="173" stroke="#B0B1B5"/>
<line x1="172" y1="148.5" x2="122" y2="148.5" stroke="#B0B1B5"/>
<line x1="391.5" y1="123" x2="391.5" y2="173" stroke="#B0B1B5"/>
<line x1="416" y1="148.5" x2="366" y2="148.5" stroke="#B0B1B5"/>
<line x1="269.5" y1="123" x2="269.5" y2="173" stroke="#B0B1B5"/>
<line x1="294" y1="148.5" x2="244" y2="148.5" stroke="#B0B1B5"/>
<line x1="147.5" y1="245" x2="147.5" y2="295" stroke="#B0B1B5"/>
<line x1="172" y1="270.5" x2="122" y2="270.5" stroke="#B0B1B5"/>
<line x1="25.5" y1="123" x2="25.5" y2="173" stroke="#B0B1B5"/>
<line x1="50" y1="148.5" x2="-3.64262e-08" y2="148.5" stroke="#B0B1B5"/>
<line x1="25.5" y1="245" x2="25.5" y2="295" stroke="#B0B1B5"/>
<line x1="50" y1="270.5" x2="-3.64262e-08" y2="270.5" stroke="#B0B1B5"/>
<line x1="513.5" y1="1" x2="513.5" y2="51" stroke="#B0B1B5"/>
<line x1="538" y1="26.5" x2="488" y2="26.5" stroke="#B0B1B5"/>
<line x1="513.5" y1="123" x2="513.5" y2="173" stroke="#B0B1B5"/>
<line x1="538" y1="148.5" x2="488" y2="148.5" stroke="#B0B1B5"/>
<line x1="513.5" y1="245" x2="513.5" y2="295" stroke="#B0B1B5"/>
<line x1="538" y1="270.5" x2="488" y2="270.5" stroke="#B0B1B5"/>
<line x1="391.5" y1="245" x2="391.5" y2="295" stroke="#B0B1B5"/>
<line x1="416" y1="270.5" x2="366" y2="270.5" stroke="#B0B1B5"/>
<line x1="269.5" y1="245" x2="269.5" y2="295" stroke="#B0B1B5"/>
<line x1="294" y1="270.5" x2="244" y2="270.5" stroke="#B0B1B5"/>
<path d="M148.5 123L154.176 127.317L161.25 126.416L164.007 132.993L170.584 135.75L169.683 142.824L174 148.5L169.683 154.176L170.584 161.25L164.007 164.007L161.25 170.584L154.176 169.683L148.5 174L142.824 169.683L135.75 170.584L132.993 164.007L126.416 161.25L127.317 154.176L123 148.5L127.317 142.824L126.416 135.75L132.993 132.993L135.75 126.416L142.824 127.317L148.5 123Z" fill="#D6FFF8" stroke="#1A1B1F" stroke-width="2"/>
<path d="M219.5 123L225.176 127.317L232.25 126.416L235.007 132.993L241.584 135.75L240.683 142.824L245 148.5L240.683 154.176L241.584 161.25L235.007 164.007L232.25 170.584L225.176 169.683L219.5 174L213.824 169.683L206.75 170.584L203.993 164.007L197.416 161.25L198.317 154.176L194 148.5L198.317 142.824L197.416 135.75L203.993 132.993L206.75 126.416L213.824 127.317L219.5 123Z" fill="white" stroke="#1A1B1F" stroke-width="2"/>
<path d="M219.5 194L225.176 198.317L232.25 197.416L235.007 203.993L241.584 206.75L240.683 213.824L245 219.5L240.683 225.176L241.584 232.25L235.007 235.007L232.25 241.584L225.176 240.683L219.5 245L213.824 240.683L206.75 241.584L203.993 235.007L197.416 232.25L198.317 225.176L194 219.5L198.317 213.824L197.416 206.75L203.993 203.993L206.75 197.416L213.824 198.317L219.5 194Z" fill="white" stroke="#1A1B1F" stroke-width="2"/>
<path d="M148.5 194L154.176 198.317L161.25 197.416L164.007 203.993L170.584 206.75L169.683 213.824L174 219.5L169.683 225.176L170.584 232.25L164.007 235.007L161.25 241.584L154.176 240.683L148.5 245L142.824 240.683L135.75 241.584L132.993 235.007L126.416 232.25L127.317 225.176L123 219.5L127.317 213.824L126.416 206.75L132.993 203.993L135.75 197.416L142.824 198.317L148.5 194Z" fill="white" stroke="#1A1B1F" stroke-width="2"/>
<path d="M77.5 194L83.1759 198.317L90.25 197.416L93.0069 203.993L99.5836 206.75L98.6828 213.824L103 219.5L98.6828 225.176L99.5836 232.25L93.0069 235.007L90.25 241.584L83.1759 240.683L77.5 245L71.8241 240.683L64.75 241.584L61.9931 235.007L55.4164 232.25L56.3172 225.176L52 219.5L56.3172 213.824L55.4164 206.75L61.9931 203.993L64.75 197.416L71.8241 198.317L77.5 194Z" fill="white" stroke="#1A1B1F" stroke-width="2"/>
<path d="M77.5 123L83.1759 127.317L90.25 126.416L93.0069 132.993L99.5836 135.75L98.6828 142.824L103 148.5L98.6828 154.176L99.5836 161.25L93.0069 164.007L90.25 170.584L83.1759 169.683L77.5 174L71.8241 169.683L64.75 170.584L61.9931 164.007L55.4164 161.25L56.3172 154.176L52 148.5L56.3172 142.824L55.4164 135.75L61.9931 132.993L64.75 126.416L71.8241 127.317L77.5 123Z" fill="white" stroke="#1A1B1F" stroke-width="2"/>
<path d="M77.5 51L83.1759 55.3172L90.25 54.4164L93.0069 60.9931L99.5836 63.75L98.6828 70.8241L103 76.5L98.6828 82.1759L99.5836 89.25L93.0069 92.0069L90.25 98.5836L83.1759 97.6828L77.5 102L71.8241 97.6828L64.75 98.5836L61.9931 92.0069L55.4164 89.25L56.3172 82.1759L52 76.5L56.3172 70.8241L55.4164 63.75L61.9931 60.9931L64.75 54.4164L71.8241 55.3172L77.5 51Z" fill="white" stroke="#1A1B1F" stroke-width="2"/>
<path d="M148.5 51L154.176 55.3172L161.25 54.4164L164.007 60.9931L170.584 63.75L169.683 70.8241L174 76.5L169.683 82.1759L170.584 89.25L164.007 92.0069L161.25 98.5836L154.176 97.6828L148.5 102L142.824 97.6828L135.75 98.5836L132.993 92.0069L126.416 89.25L127.317 82.1759L123 76.5L127.317 70.8241L126.416 63.75L132.993 60.9931L135.75 54.4164L142.824 55.3172L148.5 51Z" fill="white" stroke="#1A1B1F" stroke-width="2"/>
<path d="M219.5 51L225.176 55.3172L232.25 54.4164L235.007 60.9931L241.584 63.75L240.683 70.8241L245 76.5L240.683 82.1759L241.584 89.25L235.007 92.0069L232.25 98.5836L225.176 97.6828L219.5 102L213.824 97.6828L206.75 98.5836L203.993 92.0069L197.416 89.25L198.317 82.1759L194 76.5L198.317 70.8241L197.416 63.75L203.993 60.9931L206.75 54.4164L213.824 55.3172L219.5 51Z" fill="white" stroke="#1A1B1F" stroke-width="2"/>
<circle class='anim rev' cx="148" cy="148" r="147" stroke="#1A1B1F" stroke-width="2" stroke-dasharray="6 3"/>
</svg>
