<?xml version="1.0" encoding="utf-8"?>
<svg version="1.1" id="Layer_1" xmlns="http://www.w3.org/2000/svg" xmlns:xlink="http://www.w3.org/1999/xlink" x="0px" y="0px"
	 viewBox="0 0 1270 294" style="enable-background:new 0 0 1270 294;" xml:space="preserve">
<style type="text/css">
	.st0{fill:none;stroke:#B0B1B5;}
	.st1{fill:#D6FFF8;stroke:#1A1B1F;stroke-width:2;}
	.st2{fill:#D6FFF8;stroke:#1A1B1F;stroke-width:2;stroke-dasharray:6,3;}
	.st3{fill:none;stroke:#1A1B1F;stroke-width:2;}
	.st4{fill:#FFFFFF;stroke:#1A1B1F;stroke-width:2;}
	.st5{fill:none;stroke:#1A1B1F;stroke-width:2;stroke-dasharray:6,3;}
	.st6{fill:#D6FFF8;}
	.st7{fill:none;stroke:#000000;stroke-width:2;}
</style>
<line class="st0" x1="147.5" y1="0" x2="147.5" y2="50"/>
<line class="st0" x1="172" y1="25.5" x2="122" y2="25.5"/>
<line class="st0" x1="25.5" y1="0" x2="25.5" y2="50"/>
<line class="st0" x1="50" y1="25.5" x2="0" y2="25.5"/>
<line class="st0" x1="1123.5" y1="0" x2="1123.5" y2="50"/>
<line class="st0" x1="1148" y1="25.5" x2="1098" y2="25.5"/>
<line class="st0" x1="1245.5" y1="0" x2="1245.5" y2="50"/>
<line class="st0" x1="1270" y1="25.5" x2="1220" y2="25.5"/>
<line class="st0" x1="1001.5" y1="0" x2="1001.5" y2="50"/>
<line class="st0" x1="1026" y1="25.5" x2="976" y2="25.5"/>
<line class="st0" x1="879.5" y1="0" x2="879.5" y2="50"/>
<line class="st0" x1="904" y1="25.5" x2="854" y2="25.5"/>
<line class="st0" x1="757.5" y1="0" x2="757.5" y2="50"/>
<line class="st0" x1="782" y1="25.5" x2="732" y2="25.5"/>
<line class="st0" x1="635.5" y1="0" x2="635.5" y2="50"/>
<line class="st0" x1="660" y1="25.5" x2="610" y2="25.5"/>
<line class="st0" x1="513.5" y1="0" x2="513.5" y2="50"/>
<line class="st0" x1="538" y1="25.5" x2="488" y2="25.5"/>
<line class="st0" x1="391.5" y1="0" x2="391.5" y2="50"/>
<line class="st0" x1="416" y1="25.5" x2="366" y2="25.5"/>
<line class="st0" x1="269.5" y1="0" x2="269.5" y2="50"/>
<line class="st0" x1="294" y1="25.5" x2="244" y2="25.5"/>
<line class="st0" x1="147.5" y1="122" x2="147.5" y2="172"/>
<line class="st0" x1="172" y1="147.5" x2="122" y2="147.5"/>
<line class="st0" x1="25.5" y1="122" x2="25.5" y2="172"/>
<line class="st0" x1="50" y1="147.5" x2="0" y2="147.5"/>
<line class="st0" x1="1123.5" y1="122" x2="1123.5" y2="172"/>
<line class="st0" x1="1148" y1="147.5" x2="1098" y2="147.5"/>
<line class="st0" x1="1245.5" y1="122" x2="1245.5" y2="172"/>
<line class="st0" x1="1270" y1="147.5" x2="1220" y2="147.5"/>
<line class="st0" x1="1001.5" y1="122" x2="1001.5" y2="172"/>
<line class="st0" x1="1026" y1="147.5" x2="976" y2="147.5"/>
<line class="st0" x1="879.5" y1="122" x2="879.5" y2="172"/>
<line class="st0" x1="904" y1="147.5" x2="854" y2="147.5"/>
<line class="st0" x1="757.5" y1="122" x2="757.5" y2="172"/>
<line class="st0" x1="782" y1="147.5" x2="732" y2="147.5"/>
<line class="st0" x1="635.5" y1="122" x2="635.5" y2="172"/>
<line class="st0" x1="660" y1="147.5" x2="610" y2="147.5"/>
<line class="st0" x1="513.5" y1="122" x2="513.5" y2="172"/>
<line class="st0" x1="538" y1="147.5" x2="488" y2="147.5"/>
<line class="st0" x1="391.5" y1="122" x2="391.5" y2="172"/>
<line class="st0" x1="416" y1="147.5" x2="366" y2="147.5"/>
<line class="st0" x1="269.5" y1="122" x2="269.5" y2="172"/>
<line class="st0" x1="294" y1="147.5" x2="244" y2="147.5"/>
<line class="st0" x1="147.5" y1="244" x2="147.5" y2="294"/>
<line class="st0" x1="172" y1="269.5" x2="122" y2="269.5"/>
<line class="st0" x1="25.5" y1="244" x2="25.5" y2="294"/>
<line class="st0" x1="50" y1="269.5" x2="0" y2="269.5"/>
<line class="st0" x1="1123.5" y1="244" x2="1123.5" y2="294"/>
<line class="st0" x1="1148" y1="269.5" x2="1098" y2="269.5"/>
<line class="st0" x1="1245.5" y1="244" x2="1245.5" y2="294"/>
<line class="st0" x1="1270" y1="269.5" x2="1220" y2="269.5"/>
<line class="st0" x1="1001.5" y1="244" x2="1001.5" y2="294"/>
<line class="st0" x1="1026" y1="269.5" x2="976" y2="269.5"/>
<line class="st0" x1="879.5" y1="244" x2="879.5" y2="294"/>
<line class="st0" x1="904" y1="269.5" x2="854" y2="269.5"/>
<line class="st0" x1="757.5" y1="244" x2="757.5" y2="294"/>
<line class="st0" x1="782" y1="269.5" x2="732" y2="269.5"/>
<line class="st0" x1="635.5" y1="244" x2="635.5" y2="294"/>
<line class="st0" x1="660" y1="269.5" x2="610" y2="269.5"/>
<line class="st0" x1="513.5" y1="244" x2="513.5" y2="294"/>
<line class="st0" x1="538" y1="269.5" x2="488" y2="269.5"/>
<line class="st0" x1="391.5" y1="244" x2="391.5" y2="294"/>
<line class="st0" x1="416" y1="269.5" x2="366" y2="269.5"/>
<line class="st0" x1="269.5" y1="244" x2="269.5" y2="294"/>
<line class="st0" x1="294" y1="269.5" x2="244" y2="269.5"/>
<rect x="527" y="197" class="st1" width="72" height="23"/>
<rect x="550" y="233" class="st1" width="72" height="23"/>
<rect x="539" y="161" class="rev st2 anim" width="72" height="23"/>
<line class="st3" x1="575" y1="184" x2="575" y2="197"/>
<line class="st3" x1="575" y1="257" x2="575" y2="268.5"/>
<line class="st3" x1="575" y1="220" x2="575" y2="233"/>
<path class="st3" d="M636,26v121h121V26H636z"/>
<path class="st3" d="M514,269h121V148H514V269z"/>
<path class="st3" d="M757,148v121H636"/>
<rect x="660" y="75" class="st1" width="72" height="23"/>
<rect x="672" y="111" class="st1" width="72" height="23"/>
<rect x="649" y="39" class="anim rev st2" width="72" height="23"/>
<line class="st3" x1="697" y1="62" x2="697" y2="75"/>
<line class="st3" x1="697" y1="135" x2="697" y2="146.5"/>
<line class="st3" x1="697" y1="98" x2="697" y2="111"/>
<rect x="672" y="197" class="st1" width="72" height="23"/>
<rect x="660" y="233" class="st1" width="72" height="23"/>
<rect x="649" y="161" class="anim rev st2" width="72" height="23"/>
<line class="st3" x1="697" y1="184" x2="697" y2="197"/>
<line class="st3" x1="697" y1="257" x2="697" y2="268.5"/>
<line class="st3" x1="697" y1="220" x2="697" y2="233"/>
<path class="st1" d="M489,1h96.4L610,25.6V122H489V1z"/>
<rect x="572" y="84.4" transform="matrix(0.7071 -0.7071 0.7071 0.7071 102.477 442.1709)" class="st4" width="26" height="26"/>
<path class="st3" d="M585,1v25h25"/>
<line class="st3" x1="501" y1="37" x2="577" y2="37"/>
<line class="st3" x1="501" y1="50" x2="552" y2="50"/>
<path class="anim st5" d="M880,26v243h243V26H880z"/>
<path class="st6" d="M1045,83.8l17,13.7l18-46.5l17,15.5V121h-17h-18h-17h-18v-9L1045,83.8z"/>
<path class="st3" d="M1045,83.8V121 M1062,97.5V121 M1080,51v70 M1045,121c-5.5,0-11.4,0-18,0v-9l18-28.2l17,13.7l18-46.5l17,15.5
	V121c-6.2,0-11.8,0-17,0c-6.3,0-12.2,0-18,0C1056.5,121,1050.9,121,1045,121z"/>
<circle class="st1" cx="1088" cy="203" r="31"/>
<path class="st1" d="M1087.5,234c-33.4,0-60.5,26.4-60.5,59h121C1148,260.4,1120.9,234,1087.5,234z"/>
<rect x="905" y="173" class="st1" width="70" height="70"/>
<line class="st7" x1="938" y1="173" x2="938" y2="243"/>
<line class="st7" x1="920" y1="173" x2="920" y2="243"/>
<line class="st7" x1="911" y1="173" x2="911" y2="243"/>
<circle class="st1" cx="940" cy="87" r="35"/>
<path class="st7" d="M940,52v35l-15.5,31.5"/>
<path class="st7" d="M940,87l-30-18"/>
<circle class="st1" cx="269.5" cy="147.5" r="121.5"/>
<ellipse class="st3" cx="270" cy="147.5" rx="86" ry="121.5"/>
<ellipse class="st3" cx="270" cy="147.5" rx="45" ry="121.5"/>
<line class="st3" x1="270" y1="26" x2="270" y2="269"/>
<line class="anim st5" x1="390" y1="148" x2="147" y2="148"/>
<path class="anim st5" d="M376,207H163"/>
<path class="anim st5" d="M376,89H163"/>
<path class="anim st5" d="M879,148h-97v60h-24"/>
<path class="anim st5" d="M819,148V86h-61"/>
<path class="anim st5" d="M819,149v143H575v-22"/>
<line class="anim st5" x1="575" y1="149" x2="575" y2="122"/>
<line class="anim st5" x1="636" y1="51" x2="610" y2="51"/>
<line class="anim st5" x1="635.9" y1="147.5" x2="609.7" y2="121.3"/>
<path class="anim st5" d="M488,61h-37v87h-59"/>
</svg>
