<?xml version="1.0" encoding="UTF-8"?>
<!DOCTYPE svg PUBLIC "-//W3C//DTD SVG 1.1//EN" "http://www.w3.org/Graphics/SVG/1.1/DTD/svg11.dtd">
<svg version="1.1" xmlns="http://www.w3.org/2000/svg" xmlns:xlink="http://www.w3.org/1999/xlink" x="0" y="0" width="745" height="205" viewBox="0, 0, 745, 205">
  <g id="Layer_1">
    <g>
      <path d="M252.5,0 L252.5,25" fill="#000000"/>
      <path d="M252.5,0 L252.5,25" fill-opacity="0" stroke="#B0B1B5" stroke-width="1"/>
    </g>
    <g>
      <path d="M265,12.5 L240,12.5" fill="#000000"/>
      <path d="M265,12.5 L240,12.5" fill-opacity="0" stroke="#B0B1B5" stroke-width="1"/>
    </g>
    <g>
      <path d="M312.5,0 L312.5,25" fill="#000000"/>
      <path d="M312.5,0 L312.5,25" fill-opacity="0" stroke="#B0B1B5" stroke-width="1"/>
    </g>
    <g>
      <path d="M325,12.5 L300,12.5" fill="#000000"/>
      <path d="M325,12.5 L300,12.5" fill-opacity="0" stroke="#B0B1B5" stroke-width="1"/>
    </g>
    <g>
      <path d="M192.5,0 L192.5,25" fill="#000000"/>
      <path d="M192.5,0 L192.5,25" fill-opacity="0" stroke="#B0B1B5" stroke-width="1"/>
    </g>
    <g>
      <path d="M205,12.5 L180,12.5" fill="#000000"/>
      <path d="M205,12.5 L180,12.5" fill-opacity="0" stroke="#B0B1B5" stroke-width="1"/>
    </g>
    <g>
      <path d="M72.5,0 L72.5,25" fill="#000000"/>
      <path d="M72.5,0 L72.5,25" fill-opacity="0" stroke="#B0B1B5" stroke-width="1"/>
    </g>
    <g>
      <path d="M85,12.5 L60,12.5" fill="#000000"/>
      <path d="M85,12.5 L60,12.5" fill-opacity="0" stroke="#B0B1B5" stroke-width="1"/>
    </g>
    <g>
      <path d="M372.5,0 L372.5,25" fill="#000000"/>
      <path d="M372.5,0 L372.5,25" fill-opacity="0" stroke="#B0B1B5" stroke-width="1"/>
    </g>
    <g>
      <path d="M385,12.5 L360,12.5" fill="#000000"/>
      <path d="M385,12.5 L360,12.5" fill-opacity="0" stroke="#B0B1B5" stroke-width="1"/>
    </g>
    <g>
      <path d="M132.5,0 L132.5,25" fill="#000000"/>
      <path d="M132.5,0 L132.5,25" fill-opacity="0" stroke="#B0B1B5" stroke-width="1"/>
    </g>
    <g>
      <path d="M145,12.5 L120,12.5" fill="#000000"/>
      <path d="M145,12.5 L120,12.5" fill-opacity="0" stroke="#B0B1B5" stroke-width="1"/>
    </g>
    <g>
      <path d="M12.5,0 L12.5,25" fill="#000000"/>
      <path d="M12.5,0 L12.5,25" fill-opacity="0" stroke="#B0B1B5" stroke-width="1"/>
    </g>
    <g>
      <path d="M25,12.5 L0,12.5" fill="#000000"/>
      <path d="M25,12.5 L0,12.5" fill-opacity="0" stroke="#B0B1B5" stroke-width="1"/>
    </g>
    <g>
      <path d="M252.5,60 L252.5,85" fill="#000000"/>
      <path d="M252.5,60 L252.5,85" fill-opacity="0" stroke="#B0B1B5" stroke-width="1"/>
    </g>
    <g>
      <path d="M265,72.5 L240,72.5" fill="#000000"/>
      <path d="M265,72.5 L240,72.5" fill-opacity="0" stroke="#B0B1B5" stroke-width="1"/>
    </g>
    <g>
      <path d="M312.5,60 L312.5,85" fill="#000000"/>
      <path d="M312.5,60 L312.5,85" fill-opacity="0" stroke="#B0B1B5" stroke-width="1"/>
    </g>
    <g>
      <path d="M325,72.5 L300,72.5" fill="#000000"/>
      <path d="M325,72.5 L300,72.5" fill-opacity="0" stroke="#B0B1B5" stroke-width="1"/>
    </g>
    <g>
      <path d="M192.5,60 L192.5,85" fill="#000000"/>
      <path d="M192.5,60 L192.5,85" fill-opacity="0" stroke="#B0B1B5" stroke-width="1"/>
    </g>
    <g>
      <path d="M205,72.5 L180,72.5" fill="#000000"/>
      <path d="M205,72.5 L180,72.5" fill-opacity="0" stroke="#B0B1B5" stroke-width="1"/>
    </g>
    <g>
      <path d="M72.5,60 L72.5,85" fill="#000000"/>
      <path d="M72.5,60 L72.5,85" fill-opacity="0" stroke="#B0B1B5" stroke-width="1"/>
    </g>
    <g>
      <path d="M85,72.5 L60,72.5" fill="#000000"/>
      <path d="M85,72.5 L60,72.5" fill-opacity="0" stroke="#B0B1B5" stroke-width="1"/>
    </g>
    <g>
      <path d="M372.5,60 L372.5,85" fill="#000000"/>
      <path d="M372.5,60 L372.5,85" fill-opacity="0" stroke="#B0B1B5" stroke-width="1"/>
    </g>
    <g>
      <path d="M385,72.5 L360,72.5" fill="#000000"/>
      <path d="M385,72.5 L360,72.5" fill-opacity="0" stroke="#B0B1B5" stroke-width="1"/>
    </g>
    <g>
      <path d="M132.5,60 L132.5,85" fill="#000000"/>
      <path d="M132.5,60 L132.5,85" fill-opacity="0" stroke="#B0B1B5" stroke-width="1"/>
    </g>
    <g>
      <path d="M145,72.5 L120,72.5" fill="#000000"/>
      <path d="M145,72.5 L120,72.5" fill-opacity="0" stroke="#B0B1B5" stroke-width="1"/>
    </g>
    <g>
      <path d="M12.5,60 L12.5,85" fill="#000000"/>
      <path d="M12.5,60 L12.5,85" fill-opacity="0" stroke="#B0B1B5" stroke-width="1"/>
    </g>
    <g>
      <path d="M25,72.5 L0,72.5" fill="#000000"/>
      <path d="M25,72.5 L0,72.5" fill-opacity="0" stroke="#B0B1B5" stroke-width="1"/>
    </g>
    <g>
      <path d="M252.5,120 L252.5,145" fill="#000000"/>
      <path d="M252.5,120 L252.5,145" fill-opacity="0" stroke="#B0B1B5" stroke-width="1"/>
    </g>
    <g>
      <path d="M265,132.5 L240,132.5" fill="#000000"/>
      <path d="M265,132.5 L240,132.5" fill-opacity="0" stroke="#B0B1B5" stroke-width="1"/>
    </g>
    <g>
      <path d="M312.5,120 L312.5,145" fill="#000000"/>
      <path d="M312.5,120 L312.5,145" fill-opacity="0" stroke="#B0B1B5" stroke-width="1"/>
    </g>
    <g>
      <path d="M325,132.5 L300,132.5" fill="#000000"/>
      <path d="M325,132.5 L300,132.5" fill-opacity="0" stroke="#B0B1B5" stroke-width="1"/>
    </g>
    <g>
      <path d="M192.5,120 L192.5,145" fill="#000000"/>
      <path d="M192.5,120 L192.5,145" fill-opacity="0" stroke="#B0B1B5" stroke-width="1"/>
    </g>
    <g>
      <path d="M205,132.5 L180,132.5" fill="#000000"/>
      <path d="M205,132.5 L180,132.5" fill-opacity="0" stroke="#B0B1B5" stroke-width="1"/>
    </g>
    <g>
      <path d="M72.5,120 L72.5,145" fill="#000000"/>
      <path d="M72.5,120 L72.5,145" fill-opacity="0" stroke="#B0B1B5" stroke-width="1"/>
    </g>
    <g>
      <path d="M85,132.5 L60,132.5" fill="#000000"/>
      <path d="M85,132.5 L60,132.5" fill-opacity="0" stroke="#B0B1B5" stroke-width="1"/>
    </g>
    <g>
      <path d="M372.5,120 L372.5,145" fill="#000000"/>
      <path d="M372.5,120 L372.5,145" fill-opacity="0" stroke="#B0B1B5" stroke-width="1"/>
    </g>
    <g>
      <path d="M385,132.5 L360,132.5" fill="#000000"/>
      <path d="M385,132.5 L360,132.5" fill-opacity="0" stroke="#B0B1B5" stroke-width="1"/>
    </g>
    <g>
      <path d="M132.5,120 L132.5,145" fill="#000000"/>
      <path d="M132.5,120 L132.5,145" fill-opacity="0" stroke="#B0B1B5" stroke-width="1"/>
    </g>
    <g>
      <path d="M145,132.5 L120,132.5" fill="#000000"/>
      <path d="M145,132.5 L120,132.5" fill-opacity="0" stroke="#B0B1B5" stroke-width="1"/>
    </g>
    <g>
      <path d="M12.5,120 L12.5,145" fill="#000000"/>
      <path d="M12.5,120 L12.5,145" fill-opacity="0" stroke="#B0B1B5" stroke-width="1"/>
    </g>
    <g>
      <path d="M25,132.5 L0,132.5" fill="#000000"/>
      <path d="M25,132.5 L0,132.5" fill-opacity="0" stroke="#B0B1B5" stroke-width="1"/>
    </g>
  </g>
  <g id="Layer_2">
    <g>
      <path d="M672.5,0 L672.5,25" fill="#000000"/>
      <path d="M672.5,0 L672.5,25" fill-opacity="0" stroke="#B0B1B5" stroke-width="1"/>
    </g>
    <g>
      <path d="M685,12.5 L660,12.5" fill="#000000"/>
      <path d="M685,12.5 L660,12.5" fill-opacity="0" stroke="#B0B1B5" stroke-width="1"/>
    </g>
    <g>
      <path d="M732.5,0 L732.5,25" fill="#000000"/>
      <path d="M732.5,0 L732.5,25" fill-opacity="0" stroke="#B0B1B5" stroke-width="1"/>
    </g>
    <g>
      <path d="M745,12.5 L720,12.5" fill="#000000"/>
      <path d="M745,12.5 L720,12.5" fill-opacity="0" stroke="#B0B1B5" stroke-width="1"/>
    </g>
    <g>
      <path d="M612.5,0 L612.5,25" fill="#000000"/>
      <path d="M612.5,0 L612.5,25" fill-opacity="0" stroke="#B0B1B5" stroke-width="1"/>
    </g>
    <g>
      <path d="M625,12.5 L600,12.5" fill="#000000"/>
      <path d="M625,12.5 L600,12.5" fill-opacity="0" stroke="#B0B1B5" stroke-width="1"/>
    </g>
    <g>
      <path d="M492.5,0 L492.5,25" fill="#000000"/>
      <path d="M492.5,0 L492.5,25" fill-opacity="0" stroke="#B0B1B5" stroke-width="1"/>
    </g>
    <g>
      <path d="M505,12.5 L480,12.5" fill="#000000"/>
      <path d="M505,12.5 L480,12.5" fill-opacity="0" stroke="#B0B1B5" stroke-width="1"/>
    </g>
    <g>
      <path d="M552.5,0 L552.5,25" fill="#000000"/>
      <path d="M552.5,0 L552.5,25" fill-opacity="0" stroke="#B0B1B5" stroke-width="1"/>
    </g>
    <g>
      <path d="M565,12.5 L540,12.5" fill="#000000"/>
      <path d="M565,12.5 L540,12.5" fill-opacity="0" stroke="#B0B1B5" stroke-width="1"/>
    </g>
    <g>
      <path d="M432.5,0 L432.5,25" fill="#000000"/>
      <path d="M432.5,0 L432.5,25" fill-opacity="0" stroke="#B0B1B5" stroke-width="1"/>
    </g>
    <g>
      <path d="M445,12.5 L420,12.5" fill="#000000"/>
      <path d="M445,12.5 L420,12.5" fill-opacity="0" stroke="#B0B1B5" stroke-width="1"/>
    </g>
    <g>
      <path d="M672.5,60 L672.5,85" fill="#000000"/>
      <path d="M672.5,60 L672.5,85" fill-opacity="0" stroke="#B0B1B5" stroke-width="1"/>
    </g>
    <g>
      <path d="M685,72.5 L660,72.5" fill="#000000"/>
      <path d="M685,72.5 L660,72.5" fill-opacity="0" stroke="#B0B1B5" stroke-width="1"/>
    </g>
    <g>
      <path d="M732.5,60 L732.5,85" fill="#000000"/>
      <path d="M732.5,60 L732.5,85" fill-opacity="0" stroke="#B0B1B5" stroke-width="1"/>
    </g>
    <g>
      <path d="M745,72.5 L720,72.5" fill="#000000"/>
      <path d="M745,72.5 L720,72.5" fill-opacity="0" stroke="#B0B1B5" stroke-width="1"/>
    </g>
    <g>
      <path d="M612.5,60 L612.5,85" fill="#000000"/>
      <path d="M612.5,60 L612.5,85" fill-opacity="0" stroke="#B0B1B5" stroke-width="1"/>
    </g>
    <g>
      <path d="M625,72.5 L600,72.5" fill="#000000"/>
      <path d="M625,72.5 L600,72.5" fill-opacity="0" stroke="#B0B1B5" stroke-width="1"/>
    </g>
    <g>
      <path d="M492.5,60 L492.5,85" fill="#000000"/>
      <path d="M492.5,60 L492.5,85" fill-opacity="0" stroke="#B0B1B5" stroke-width="1"/>
    </g>
    <g>
      <path d="M505,72.5 L480,72.5" fill="#000000"/>
      <path d="M505,72.5 L480,72.5" fill-opacity="0" stroke="#B0B1B5" stroke-width="1"/>
    </g>
    <g>
      <path d="M552.5,60 L552.5,85" fill="#000000"/>
      <path d="M552.5,60 L552.5,85" fill-opacity="0" stroke="#B0B1B5" stroke-width="1"/>
    </g>
    <g>
      <path d="M565,72.5 L540,72.5" fill="#000000"/>
      <path d="M565,72.5 L540,72.5" fill-opacity="0" stroke="#B0B1B5" stroke-width="1"/>
    </g>
    <g>
      <path d="M432.5,60 L432.5,85" fill="#000000"/>
      <path d="M432.5,60 L432.5,85" fill-opacity="0" stroke="#B0B1B5" stroke-width="1"/>
    </g>
    <g>
      <path d="M445,72.5 L420,72.5" fill="#000000"/>
      <path d="M445,72.5 L420,72.5" fill-opacity="0" stroke="#B0B1B5" stroke-width="1"/>
    </g>
    <g>
      <path d="M672.5,120 L672.5,145" fill="#000000"/>
      <path d="M672.5,120 L672.5,145" fill-opacity="0" stroke="#B0B1B5" stroke-width="1"/>
    </g>
    <g>
      <path d="M685,132.5 L660,132.5" fill="#000000"/>
      <path d="M685,132.5 L660,132.5" fill-opacity="0" stroke="#B0B1B5" stroke-width="1"/>
    </g>
    <g>
      <path d="M732.5,120 L732.5,145" fill="#000000"/>
      <path d="M732.5,120 L732.5,145" fill-opacity="0" stroke="#B0B1B5" stroke-width="1"/>
    </g>
    <g>
      <path d="M745,132.5 L720,132.5" fill="#000000"/>
      <path d="M745,132.5 L720,132.5" fill-opacity="0" stroke="#B0B1B5" stroke-width="1"/>
    </g>
    <g>
      <path d="M612.5,120 L612.5,145" fill="#000000"/>
      <path d="M612.5,120 L612.5,145" fill-opacity="0" stroke="#B0B1B5" stroke-width="1"/>
    </g>
    <g>
      <path d="M625,132.5 L600,132.5" fill="#000000"/>
      <path d="M625,132.5 L600,132.5" fill-opacity="0" stroke="#B0B1B5" stroke-width="1"/>
    </g>
    <g>
      <path d="M492.5,120 L492.5,145" fill="#000000"/>
      <path d="M492.5,120 L492.5,145" fill-opacity="0" stroke="#B0B1B5" stroke-width="1"/>
    </g>
    <g>
      <path d="M505,132.5 L480,132.5" fill="#000000"/>
      <path d="M505,132.5 L480,132.5" fill-opacity="0" stroke="#B0B1B5" stroke-width="1"/>
    </g>
    <g>
      <path d="M552.5,120 L552.5,145" fill="#000000"/>
      <path d="M552.5,120 L552.5,145" fill-opacity="0" stroke="#B0B1B5" stroke-width="1"/>
    </g>
    <g>
      <path d="M565,132.5 L540,132.5" fill="#000000"/>
      <path d="M565,132.5 L540,132.5" fill-opacity="0" stroke="#B0B1B5" stroke-width="1"/>
    </g>
    <g>
      <path d="M432.5,120 L432.5,145" fill="#000000"/>
      <path d="M432.5,120 L432.5,145" fill-opacity="0" stroke="#B0B1B5" stroke-width="1"/>
    </g>
    <g>
      <path d="M445,132.5 L420,132.5" fill="#000000"/>
      <path d="M445,132.5 L420,132.5" fill-opacity="0" stroke="#B0B1B5" stroke-width="1"/>
    </g>
    <g>
      <path d="M252.5,180 L252.5,205" fill="#000000"/>
      <path d="M252.5,180 L252.5,205" fill-opacity="0" stroke="#B0B1B5" stroke-width="1"/>
    </g>
    <g>
      <path d="M265,192.5 L240,192.5" fill="#000000"/>
      <path d="M265,192.5 L240,192.5" fill-opacity="0" stroke="#B0B1B5" stroke-width="1"/>
    </g>
    <g>
      <path d="M312.5,180 L312.5,205" fill="#000000"/>
      <path d="M312.5,180 L312.5,205" fill-opacity="0" stroke="#B0B1B5" stroke-width="1"/>
    </g>
    <g>
      <path d="M325,192.5 L300,192.5" fill="#000000"/>
      <path d="M325,192.5 L300,192.5" fill-opacity="0" stroke="#B0B1B5" stroke-width="1"/>
    </g>
    <g>
      <path d="M192.5,180 L192.5,205" fill="#000000"/>
      <path d="M192.5,180 L192.5,205" fill-opacity="0" stroke="#B0B1B5" stroke-width="1"/>
    </g>
    <g>
      <path d="M205,192.5 L180,192.5" fill="#000000"/>
      <path d="M205,192.5 L180,192.5" fill-opacity="0" stroke="#B0B1B5" stroke-width="1"/>
    </g>
    <g>
      <path d="M72.5,180 L72.5,205" fill="#000000"/>
      <path d="M72.5,180 L72.5,205" fill-opacity="0" stroke="#B0B1B5" stroke-width="1"/>
    </g>
    <g>
      <path d="M85,192.5 L60,192.5" fill="#000000"/>
      <path d="M85,192.5 L60,192.5" fill-opacity="0" stroke="#B0B1B5" stroke-width="1"/>
    </g>
    <g>
      <path d="M372.5,180 L372.5,205" fill="#000000"/>
      <path d="M372.5,180 L372.5,205" fill-opacity="0" stroke="#B0B1B5" stroke-width="1"/>
    </g>
    <g>
      <path d="M385,192.5 L360,192.5" fill="#000000"/>
      <path d="M385,192.5 L360,192.5" fill-opacity="0" stroke="#B0B1B5" stroke-width="1"/>
    </g>
    <g>
      <path d="M132.5,180 L132.5,205" fill="#000000"/>
      <path d="M132.5,180 L132.5,205" fill-opacity="0" stroke="#B0B1B5" stroke-width="1"/>
    </g>
    <g>
      <path d="M145,192.5 L120,192.5" fill="#000000"/>
      <path d="M145,192.5 L120,192.5" fill-opacity="0" stroke="#B0B1B5" stroke-width="1"/>
    </g>
    <g>
      <path d="M12.5,180 L12.5,205" fill="#000000"/>
      <path d="M12.5,180 L12.5,205" fill-opacity="0" stroke="#B0B1B5" stroke-width="1"/>
    </g>
    <g>
      <path d="M25,192.5 L0,192.5" fill="#000000"/>
      <path d="M25,192.5 L0,192.5" fill-opacity="0" stroke="#B0B1B5" stroke-width="1"/>
    </g>
    <g>
      <path d="M672.5,180 L672.5,205" fill="#000000"/>
      <path d="M672.5,180 L672.5,205" fill-opacity="0" stroke="#B0B1B5" stroke-width="1"/>
    </g>
    <g>
      <path d="M685,192.5 L660,192.5" fill="#000000"/>
      <path d="M685,192.5 L660,192.5" fill-opacity="0" stroke="#B0B1B5" stroke-width="1"/>
    </g>
    <g>
      <path d="M732.5,180 L732.5,205" fill="#000000"/>
      <path d="M732.5,180 L732.5,205" fill-opacity="0" stroke="#B0B1B5" stroke-width="1"/>
    </g>
    <g>
      <path d="M745,192.5 L720,192.5" fill="#000000"/>
      <path d="M745,192.5 L720,192.5" fill-opacity="0" stroke="#B0B1B5" stroke-width="1"/>
    </g>
    <g>
      <path d="M612.5,180 L612.5,205" fill="#000000"/>
      <path d="M612.5,180 L612.5,205" fill-opacity="0" stroke="#B0B1B5" stroke-width="1"/>
    </g>
    <g>
      <path d="M625,192.5 L600,192.5" fill="#000000"/>
      <path d="M625,192.5 L600,192.5" fill-opacity="0" stroke="#B0B1B5" stroke-width="1"/>
    </g>
    <g>
      <path d="M492.5,180 L492.5,205" fill="#000000"/>
      <path d="M492.5,180 L492.5,205" fill-opacity="0" stroke="#B0B1B5" stroke-width="1"/>
    </g>
    <g>
      <path d="M505,192.5 L480,192.5" fill="#000000"/>
      <path d="M505,192.5 L480,192.5" fill-opacity="0" stroke="#B0B1B5" stroke-width="1"/>
    </g>
    <g>
      <path d="M552.5,180 L552.5,205" fill="#000000"/>
      <path d="M552.5,180 L552.5,205" fill-opacity="0" stroke="#B0B1B5" stroke-width="1"/>
    </g>
    <g>
      <path d="M565,192.5 L540,192.5" fill="#000000"/>
      <path d="M565,192.5 L540,192.5" fill-opacity="0" stroke="#B0B1B5" stroke-width="1"/>
    </g>
    <g>
      <path d="M432.5,180 L432.5,205" fill="#000000"/>
      <path d="M432.5,180 L432.5,205" fill-opacity="0" stroke="#B0B1B5" stroke-width="1"/>
    </g>
    <g>
      <path d="M445,192.5 L420,192.5" fill="#000000"/>
      <path d="M445,192.5 L420,192.5" fill-opacity="0" stroke="#B0B1B5" stroke-width="1"/>
    </g>
    <path d="M512.562,165.008 L512.669,165.008 L512.669,165.115 L512.562,165.115 L512.562,165.008 z" fill="#000000"/>
  </g>
</svg>
