<svg xmlns="http://www.w3.org/2000/svg" viewBox="0 0 464 700.28"><defs><style>.a,.k{fill:#ff6868;}.a,.b,.c,.d,.e,.f,.i{stroke:#1a1b1f;}.a,.b,.c,.d,.e,.f,.g,.i,.j,.m{stroke-miterlimit:10;}.b,.c,.d,.e,.g,.j{fill:none;}.b{stroke-width:4px;}.c{stroke-width:6px;}.e{stroke-width:2px;}.f,.m{fill:#fff;}.g{stroke:#1a1b1e;}.h{fill:#1a1b1e;}.i{fill:#effffd;}.j,.m{stroke:#ff6868;}.l{fill:#1a1b1f;}</style></defs><title>CT_hacked-CA_v2</title><rect class="a" x="160.5" y="380.78" width="142.81" height="113.99"/><line class="b" x1="170.05" y1="391.16" x2="191.91" y2="391.16"/><line class="b" x1="282.48" y1="391.16" x2="294.38" y2="391.16"/><line class="b" x1="263.04" y1="391.16" x2="274.93" y2="391.16"/><line class="c" x1="188.92" y1="425.7" x2="274.89" y2="425.7"/><line class="c" x1="199.81" y1="435.65" x2="264" y2="435.65"/><path class="d" d="M160.5,477.87c4.71-4.42,18.79-22.79,41.12-22.79,26.3,0,28.09,22.36,58,27.38,11.06,1.86,23.77.48,43.91-7.33"/><path class="d" d="M232.06.5c.56,0-.06,2.25.37,2.6s1.34-.77,1.77-.42.06.8.49,1.15-.23,1.18.2,1.53,1.31-.73,1.74-.38.76-.06,1.19.29-.65,1.68-.22,2,.24.59.67.94,1.83-1.38,2.26-1-1.16,2.32-.73,2.67,1.62-1.12,2-.77.72,0,1.15.35-.72,1.78-.29,2.13,1.63-1.13,2.06-.78-.69,1.74-.25,2.09.51.24.95.59.83-.14,1.26.21.72,0,1.16.35-.38,1.35.06,1.7.1.76.54,1.11,1.15-.32,1.69-.18.38-1.67.93-1.76.9,2.14,1.45,2,.48-.5,1-.59.6.2,1.14.11.3-1.66.85-1.74.68.72,1.23.63.69.79,1.24.71.33-1.44.88-1.52.85,1.82,1.4,1.73.4-1,.94-1.12.57,0,1.12-.08.27-1.81.82-1.9.56,0,1.11-.13.59.14,1.14.06.7.85,1.24.77.63.39,1.18.3.3-1.69.84-1.78.7.82,1.25.73.81,1.53,1.36,1.44.09-3,.64-3.11,1,.9,1.45,1.18.46.55.66,1.07,1.21.13,1.41.65-2.38,1.5-2.18,2,.31.48.51,1,2.3-.29,2.5.23-2.32,1.49-2.12,2,.43.42.63.94,2.48-.35,2.68.16S275.78,22,276,22.52s0,.58.24,1.09,2.7-.44,2.9.08-1.14,1-.94,1.56.37.45.57,1,0,.59.21,1.11-.6.83-.4,1.35.75.31.95.83,1.19.14,1.39.65-1.59,1.21-1.39,1.73,1.61,0,1.81.51-1.72,1.26-1.52,1.78.77.8,1.17,1.2,1.56-1.36,2.08-1.16.78-.48,1.3-.28-.37,2.5.15,2.7.4.52.92.72.8-.56,1.32-.36.18,1.1.7,1.3,1.18-1.54,1.7-1.34.42.47.93.67.2,1,.72,1.22.47.32,1,.52,1.35-2,1.87-1.76-.07,1.73.45,1.93.83-.61,1.35-.41-.25,2.21.27,2.41,1.21-1.61,1.73-1.41.88-.73,1.4-.53-.39,2.57.13,2.76,1.13-1.38,1.65-1.18.47.34,1,.54.91-.82,1.44-.62a3.47,3.47,0,0,1,1.3,1.43,2.92,2.92,0,0,1,.18,1.78c-.08.55-2.35.19-2.44.74s2,.88,1.89,1.43.18.59.09,1.14,0,.56-.1,1.11-.27.52-.36,1.07-2.75.12-2.84.67,1.16.75,1.08,1.3-1,.39-1.13.94,1.63.82,1.54,1.37.18.59.1,1.14-.59.47-.68,1,.56.65.47,1.2-2.12.23-2.21.78-.52.48-.61,1,2.7,1,2.62,1.54-.17.54-.25,1.09.11.58,0,1.13-.74.45-.83,1-1.43.34-1.52.89-.89,1-.75,1.54,2-.23,2.33.2.45.35.8.78.59.24.94.67-.41,1-.06,1.49,1-.12,1.38.31-.84,1.39-.49,1.82,1.07-.15,1.42.28-.45,1.08-.1,1.51,1.94-.86,2.28-.43-.75,1.33-.4,1.76.75.11,1.1.54-.78,1.35-.43,1.78.56.26.91.7,2.25-1.11,2.6-.68-.31,1,0,1.41.77.09,1.12.52-1.05,1.57-.7,2,1.34-.37,1.7.06.28.49.63.93-1.43,1.88-1.08,2.31,2.29-.69,2.29-.12a2.07,2.07,0,0,1-.32,1.45c-.35.43-.24.52-.59,1s-.13.61-.48,1-.66.18-1,.61-.7.15-1,.58-1.66-.63-2-.2,1,1.5.61,1.93-.21.54-.56,1-.29.47-.64.91-1.79-.74-2.13-.31.44,1.08.09,1.51.89,1.44.54,1.87-1.25-.29-1.6.14.6,1.2.25,1.63-.86,0-1.21.45-1.69-.64-2-.21.93,1.47.58,1.9-.89,0-1.25.42-1.2-.26-1.56.18-.52.3-.87.73a3.48,3.48,0,0,0-.77,1.34c-.15.54.56.89.64,1.43s2,.26,2,.8-1.06.74-1,1.29-.06.57,0,1.12,1.62.3,1.71.85-1.73.84-1.64,1.39-.7.67-.61,1.22-.34.62-.26,1.17,3.08.07,3.17.62-2.31.92-2.23,1.47,2.22.21,2.31.76-1.56.81-1.47,1.36-.5.64-.41,1.19,1.34.36,1.43.91-1.05.73-1,1.28-.61.66-.52,1.21,1.62.3,1.71.85.24.53.33,1.08,0,.56.1,1.11.37.51.46,1.07.5.94.22,1.42a2.32,2.32,0,0,1-1.11,1.14c-.52.2-1.39-2.09-1.91-1.89s-.28.82-.8,1-.51.23-1,.43-.41.48-.93.68-.5.25-1,.45-.33.68-.85.88-1-1.05-1.52-.85-.06,1.36-.58,1.56-1.13-1.4-1.65-1.2.2,2.06-.32,2.26-.17,1.11-.69,1.31-1.37-2-1.89-1.8-.36.6-.88.8-.86-.68-1.38-.48-.27.84-.79,1-.5.26-1,.45-.19,1.08-.71,1.28,0,1.51-.54,1.71-1.32-1.88-1.84-1.68.22,1.26-.17,1.66.61.43.41.95-.34.46-.54,1-2.63-.42-2.83.1,1.23,1.07,1,1.59-.3.48-.5,1,1,1,.84,1.51-1.75-.07-1.94.45.4.75.2,1.26-1.28.11-1.48.62,1,1,.75,1.48-1.77-.09-2,.43-.3.49-.49,1-.27.49-.47,1,1.14,1,.94,1.55.74.88.54,1.4-.48.42-.68.94-.1.55-.3,1.07-2.17-.23-2.37.29-.46.42-.66.94,1.77,1.28,1.57,1.8.14,1.76-.34,2-1.48-.08-2-.17-.28-1.8-.83-1.88-.42-.94-1-1-.57,0-1.12,0-.73,1-1.27.93-.69.76-1.24.67-.5-.35-1.05-.44-.46-.66-1-.75-.41-.93-1-1-.89,2.1-1.44,2-.4-1.06-.95-1.14-.58.12-1.13,0-.72,1-1.27.93-.35-1.36-.9-1.44-.33-1.47-.88-1.56-.79,1.42-1.34,1.33-.22-2.15-.77-2.24-.88,2-1.44,1.92-.26-1.92-.81-2-.69.76-1.24.67-.66.12-1.2.27.17,1.14-.26,1.49,0,.84-.47,1.19-2.22-1.87-2.66-1.52-.49.27-.93.62,1.48,2.7,1,3.05-1.56-1.05-2-.7-.31.5-.75.85-.76-.06-1.19.29.28,1.22-.15,1.57-.16.69-.59,1-1.51-1-1.94-.63.93,2,.5,2.39-.54.22-1,.57-.73,0-1.16.33-2-1.59-2.44-1.24-.38.41-.82.76.21,1.13-.23,1.48-.33.48-.76.83.73,1.79.29,2.14-1.75-1.27-2.19-.92.08-.06-.49-.05-.85,1.41-1.28,1.07.65-1.69.22-2-1.08.45-1.52.1,0-.87-.44-1.22-.11-.74-.54-1.09-.76.06-1.2-.29-.83.15-1.26-.2-1.17.56-1.61.21-.69,0-1.12-.36.87-2,.44-2.31-1.5,1-1.93.61.93-2,.5-2.38-.8.1-1.23-.25-1.65,1.15-2.09.8,1-2.16.61-2.51-.21-.63-.65-1-2.09,1.71-2.52,1.36-.46-.33-.89-.68,1.24-2.42.8-2.77-2.15,1.77-2.59,1.41.76-2.08.22-2.23a2.25,2.25,0,0,0-1.23.06c-.55.09-.44.75-1,.84s-.37,1.24-.92,1.33-.84-1.76-1.39-1.67l-1.1.17c-.55.09-.63-.43-1.18-.35s-.34,1.4-.89,1.49-.45.71-1,.8-.53.21-1.07.3-.69-.8-1.24-.71-.56,0-1.11.1-.74-1.11-1.29-1-.53.21-1.08.3-.33,1.44-.88,1.52-.59-.16-1.14-.07-.41,1-1,1-.83-1.69-1.38-1.61-.41,1-1,1.11-.83-1.67-1.38-1.58-.29,1.74-.84,1.82-.59.25-1.08,0-1.69.13-1.89-.39.23-.68,0-1.2-.63-.36-.82-.87,1.11-1,.91-1.55.51-.79.31-1.31-2.2.25-2.4-.27.1-.63-.1-1.15,2.37-1.5,2.17-2-3,.54-3.16,0,.66-.85.46-1.37,0-.58-.25-1.1.54-.8.34-1.32.07-.62-.13-1.14-2.37.32-2.57-.21,2.45-1.53,2.25-2,0-.6-.21-1.12-2.44.35-2.64-.17-.16-.54-.36-1.06l-.4-1c-.2-.53-.77-.31-1-.83s2.36-2.14,2-2.54-1.9,1.87-2.42,1.67.38-2.53-.14-2.73-1.36,2-1.88,1.79-.59,0-1.1-.22,0-1.7-.47-1.9-.19-1.05-.71-1.25-.65.14-1.17-.06-.42-.45-.93-.65-.7.27-1.22.07-1.32,1.89-1.84,1.69.37-2.51-.15-2.71-.51-.22-1-.42-1.07,1.24-1.59,1-.72.34-1.25.14-.17-1.11-.69-1.31-.1-1.28-.62-1.48-.49-.27-1-.47-1.22,1.61-1.74,1.41-.74.39-1.27.19.31-2.36-.22-2.56-2.46,1.65-2.74,1.16,3.08-1.12,3.17-1.67-.95-.71-.86-1.26.09-.55.17-1.1-1.16-.74-1.07-1.29,1.64-.31,1.73-.85-.1-.58,0-1.13-1.58-.82-1.49-1.37.52-.48.61-1,.08-.54.16-1.09-.88-.7-.79-1.25.85-.43.94-1-.48-.64-.39-1.19,1.14-.38,1.22-.93.6-.47.69-1-1.63-.82-1.55-1.37,1.81-.28,1.9-.83.24-.52.33-1.07-.82-.69-.73-1.24-.66-.68-.58-1.23.07-.55.16-1.11,1.54-.34,1.4-.88-.39-.36-.73-.79.31-1,0-1.4-.76-.1-1.11-.54-1,.09-1.34-.34-.27-.5-.62-.93-.46-.34-.8-.78-.47-.34-.82-.77.79-1.35.44-1.78-.64-.2-1-.63.6-1.2.25-1.63-.24-.52-.59-1-2.44,1.26-2.79.83,1-1.53.65-2-1.75.7-2.1.27-.73-.13-1.08-.56l-.71-.86c-.35-.43.32-1,0-1.4s-.05-.68-.4-1.11-.92,0-1.27-.42.65-1.24.29-1.68-.84-.19-.84-.75,1.2.27,1.55-.17-1-1.55-.68-2,.15-.59.5-1,0-.76.3-1.2.37-.41.72-.84,2.73,1.5,3.07,1.06-1.15-1.65-.8-2.08,1.72.68,2.07.25-.3-1,.05-1.39.43-.36.78-.79-.19-.87.16-1.31-.43-1.06-.08-1.49,1.95.86,2.3.43-.45-1.08-.1-1.52-.18-.86.17-1.29,1,.13,1.4-.3.5-.31.85-.74-.65-1.24-.3-1.68,1.93.84,2.28.4-.54-1.15-.18-1.59.61-.34.76-.88.41-.68.32-1.23-1.42-.34-1.51-.88,1.79-.85,1.71-1.4-1.77-.28-1.86-.83-.54-.48-.63-1,.33-.61.24-1.16.77-.69.68-1.24-1.42-.33-1.51-.88,1.19-.75,1.11-1.3-.41-.5-.49-1,1.53-.81,1.44-1.36-2.61-.15-2.69-.7,1.22-.76,1.13-1.31-1.56-.31-1.64-.86.71-.68.62-1.23,1.6-.82,1.51-1.37,0-.56-.07-1.11-.48-.49-.56-1-2-.25-2.07-.81.32-.61.24-1.17-1.45-1.5-1.17-2,2.34,1.66,2.86,1.46-.12-1.87.39-2.07,1.22,1.63,1.74,1.43-.27-2.26.25-2.46.8.53,1.32.33.84.65,1.36.45.28-.83.8-1,.59,0,1.11-.2-.11-1.84.4-2,.91.81,1.43.61.11-1.26.63-1.46,1.4,2.11,1.92,1.91-.34-2.45.18-2.65.8.54,1.32.34.83.61,1.35.41.68.21,1.2,0,.15-1.15.67-1.35.31-.74.83-.94,1.07,1.22,1.59,1,.57-.09,1.09-.29-.56-1.61-.16-2-.32-.12-.13-.63.55-.39.75-.91,1.88.13,2.08-.39,1.14-.16,1.34-.68-.12-.64.08-1.16.45-.42.64-.94-.36-.74-.16-1.26.42-.43.62-.95.57-.37.77-.89-2.5-1.55-2.3-2.07.52-.39.72-.91-.08-.63.12-1.15,1.57,0,1.76-.51-.46-.78-.26-1.3,2.21.25,2.41-.27-1.39-1.13-1.19-1.65,0-.59.21-1.11,1.48,0,1.68-.55.29-.49.49-1-.78-.9-.58-1.42-.55-1.42-.07-1.71.79,1.45,1.34,1.54.74-1.15,1.29-1.07.34,1.43.89,1.51.77-1.32,1.32-1.23.51.32,1.06.41.66-.62,1.21-.53.22,2.19.77,2.28.83-1.74,1.38-1.65.34,1.43.88,1.51.86-1.84,1.4-1.75.15,2.65.7,2.74.83-1.71,1.38-1.63.39,1.1.94,1.19.85-1.81,1.4-1.73.33,1.48.88,1.57.58-.07,1.13,0,.59-.2,1.14-.11.61-.3,1.16-.22.17,2.49.72,2.58.56.06,1.12.15.41-2.59,1-2.73.65.89,1.08.54,1.51,1,1.94.62-.67-1.7-.24-2,.32-.5.75-.85.75,0,1.18-.3.59-.16,1-.51,0-.94.39-1.29,1.06.43,1.49.08.09-.76.52-1.11.54-.22,1-.57,1.22.63,1.65.28-.28-1.23.15-1.58.81.11,1.24-.24-1-2.09-.54-2.44.9.22,1.33-.13,1.12.5,1.55.15-.49-1.49-.06-1.84.58-.17,1-.52.92.25,1.35-.11,1.39.14,1.62-.38C232.4,1.78,231.5.5,232.06.5Z"/><path class="e" d="M225.81,101.8c0,.38.22.78.19,1.16a10.92,10.92,0,0,1-.08,1.16c-.06.39-.08.79-.17,1.16s-.44.69-.55,1.06-.11.78-.25,1.13.11.92-.06,1.26-.61.59-.8.92-.43.66-.65,1-.69.46-.93.75-.43.65-.69.93-.25.86-.53,1.12-1,0-1.32.25-.43.71-.74.92-.86.07-1.19.26-.43.82-.78,1-1-.44-1.37-.3-.58.57-.94.68-.7.29-1.08.37-.68.52-1.06.57-.77,0-1.16.06-.77.1-1.15.1V117c-.39,0-.76-.07-1.14-.09s-.7-.46-1.07-.51-.8.24-1.17.15-.66-.42-1-.53-.79,0-1.14-.15-1,.31-1.33.14-.19-1.26-.52-1.45-1.13.36-1.44.14-.17-1-.47-1.29-.71-.31-1-.57-.51-.55-.77-.83-1.18,0-1.42-.3-.15-.88-.36-1.2-.43-.65-.62-1,0-.85-.2-1.2-.72-.52-.86-.87.09-.85,0-1.22.2-.81.11-1.19-.89-.59-.95-1,.33-.81.3-1.19,0-.75,0-1.13c0-.57-.85-.57-.85-1.13s.82-.57.82-1.13-.62-.56-.62-1.13.46-.56.46-1.13.5-.56.5-1.12-1-.57-1-1.13-.06-.56-.06-1.13.9-.56.9-1.13-.65-.56-.65-1.13.16-.56.16-1.13.22-.56.22-1.12-.39-.57-.39-1.13.06-.57.06-1.13-.4-.57-.4-1.13,1-.57,1-1.13-.39-.57-.39-1.13-.43-.57-.43-1.13-.24-.57-.24-1.13V80.35c0-.56.24-.56.24-1.13s.15-.56.15-1.13.83-.56.83-1.13-.72-.56-.72-1.13-.37-.57-.37-1.13-.12-.57-.12-1.13.59-.57.59-1.14.4-.56.4-1.13.22-.57.22-1.13-.12-.57-.12-1.14-.23-.57-.23-1.14-.08-.57-.08-1.13c0-.39-.77-.82-.75-1.2s.29-.78.34-1.16.12-.79.21-1.16.75-.61.86-1-.12-.86,0-1.22,1.09-.34,1.25-.68,0-.85.16-1.18.07-.86.29-1.18.3-.75.54-1,.39-.71.65-1,1.12,0,1.4-.23.2-1,.5-1.19.75-.28,1.07-.5.85,0,1.18-.24.41-.86.75-1,.63-.52,1-.66.94.38,1.31.26.73-.08,1.11-.17.58-1,1-1.08.87.91,1.25.88.72-.8,1.11-.8v-.17c.38,0,.74.74,1.12.77s.85-.68,1.22-.63.63.83,1,.91.74.13,1.11.24.8,0,1.15.14.79.13,1.13.29.44.8.77,1,.52.56.83.77.89,0,1.19.29,1,0,1.3.27-.08,1.18.18,1.46.63.44.87.74.36.66.58,1,1,.3,1.15.64.09.83.25,1.17,0,.83.13,1.19.78.53.89.9-.53.92-.45,1.29.53.65.58,1a10.75,10.75,0,0,1,.09,1.13c0,.38.74.75.74,1.14"/><path class="e" d="M237.42,117.15c0-.56-.07-.56-.07-1.12s-.7-.56-.7-1.12-.36-.56-.36-1.11,1.09-.56,1.09-1.12-.87-.56-.87-1.12.76-.56.76-1.12-.41-.56-.41-1.12,0-.56,0-1.11.17-.56.17-1.12-.35-.56-.35-1.11-.06-.56-.06-1.12-.28-.56-.28-1.11.38-.56.38-1.12.38-.56.38-1.12.1-.56.1-1.12-.55-.56-.55-1.12.51-.56.51-1.12.19-.56.19-1.11-.9-.56-.9-1.12.47-.56.47-1.12-.29-.56-.29-1.12-.33-.56-.33-1.12.67-.56.67-1.12.51-.56.51-1.12-.26-.56-.26-1.12.23-.56.23-1.12S237,87.52,237,87s-.44-.56-.44-1.12.18-.56.18-1.12.52-.56.52-1.12-.66-.56-.66-1.12.37-.56.37-1.12.47-.56.47-1.12-.11-.56-.11-1.12-1-.56-1-1.12.61-.56.61-1.12,0-.56,0-1.12-.07-.56-.07-1.13.32-.56.32-1.12,0-.56,0-1.12-.2-.57-.2-1.13.1-.56.1-1.12.45-.56.45-1.13-.87-.56-.87-1.13.45-.56.45-1.12c0-.39-.26-.78-.23-1.16s.52-.71.57-1.09-.4-.85-.32-1.22.48-.67.59-1-.18-.88,0-1.24.58-.6.75-.94.75-.45.94-.78-.31-1.1-.09-1.42,1.25,0,1.48-.32-.42-1.38-.16-1.66,1-.1,1.29-.36.21-1,.51-1.2.59-.56.91-.78,1.12.32,1.45.13.29-1.12.63-1.29.92.12,1.27,0,.92.36,1.29.25.46-1.22.83-1.31.77-.3,1.15-.36.83.37,1.22.34.77.09,1.16.09v-.09c.38,0,.81-.5,1.19-.47s.71.78,1.09.84.67.47,1,.55.66.36,1,.47.85-.19,1.2,0,1-.29,1.32-.12.51.72.84.91.41.76.73,1,.61.41.91.65.52.52.8.78,1.23-.14,1.49.14-.35,1.3-.11,1.6.58.47.8.79.81.37,1,.71,0,.84.17,1.19,1.24.3,1.38.66-.63,1-.52,1.41.57.62.66,1-.51.85-.45,1.23.06.71.09,1.1.43.71.43,1.1c0,.56,0,.56,0,1.11s.77.56.77,1.12-.77.56-.77,1.12.51.56.51,1.11-.14.56-.14,1.12-.1.56-.1,1.12.24.56.24,1.12,0,.56,0,1.12.05.55.05,1.11-.26.56-.26,1.12.14.55.14,1.11.45.56.45,1.12-.28.56-.28,1.11,0,.56,0,1.12-.29.56-.29,1.12.08.56.08,1.12.41.56.41,1.12-.67.56-.67,1.12.3.56.3,1.12-.41.55-.41,1.11.5.56.5,1.12-.82.56-.82,1.12.33.56.33,1.12.08.56.08,1.12.36.56.36,1.12-.07.56-.07,1.12.06.56.06,1.12-.28.56-.28,1.12,0,.56,0,1.12-.39.56-.39,1.12.37.57.37,1.13-.25.56-.25,1.12.23.56.23,1.11.66.56.66,1.12-1,.56-1,1.12.89.56.89,1.13-.76.56-.76,1.12.21.56.21,1.12,0,.56,0,1.12.88.56.88,1.13-.43.56-.43,1.12v1.12c0,.57-.38.57-.38,1.13s.44.56.44,1.13-.38.56-.38,1.13"/><path class="e" d="M236.94,90.89c.57,0,.57-.11,1.13-.11s.57.31,1.14.31.56,0,1.13,0,.57,0,1.14,0,.56.11,1.13.11.57-.37,1.14-.37.56,0,1.13,0,.57.39,1.14.39.56-.1,1.13-.1.57-.11,1.14-.11h1.14c.56,0,.56-.12,1.13-.12s.57.17,1.14.17.57-.08,1.14-.08.56.14,1.13.14.56.17,1.13.17.57-.46,1.14-.46.57.42,1.14.42.56.1,1.13.1.57-.06,1.14-.06.57,0,1.14,0,.57-.33,1.14-.33.57-.17,1.14-.17.57.51,1.14.51.57-.4,1.14-.4.57.35,1.14.35.57-.19,1.15-.19"/><ellipse class="f" cx="232.43" cy="584.31" rx="19.46" ry="19.53"/><path class="f" d="M226.58,603.84h11.7a21.4,21.4,0,0,1,21.4,21.4v37.61a0,0,0,0,1,0,0h-54.5a0,0,0,0,1,0,0V625.24A21.4,21.4,0,0,1,226.58,603.84Z"/><ellipse class="f" cx="204.82" cy="621.24" rx="19.46" ry="19.53"/><path class="f" d="M199,640.77h11.7a21.4,21.4,0,0,1,21.4,21.4v37.61a0,0,0,0,1,0,0h-54.5a0,0,0,0,1,0,0V662.17A21.4,21.4,0,0,1,199,640.77Z"/><ellipse class="f" cx="259.32" cy="621.24" rx="19.46" ry="19.53"/><path class="f" d="M253.47,640.77h11.7a21.4,21.4,0,0,1,21.4,21.4v37.61a0,0,0,0,1,0,0h-54.5a0,0,0,0,1,0,0V662.17A21.4,21.4,0,0,1,253.47,640.77Z"/><line class="g" x1="232" y1="166.78" x2="232" y2="368.69"/><polygon class="h" points="225 362.25 225.73 361.56 232 368.31 238.26 361.56 239 362.25 232 369.78 227.91 365.38 225 362.25"/><polygon class="i" points="277.57 300.53 186.57 300.53 186.57 227.53 253.03 227.53 277.57 252.15 277.57 300.53"/><path class="d" d="M206.91,253.39c2-1.65,6.4-10.08,3.36-13-2.3-2.18-5.74.4-7.39,2.15a20.06,20.06,0,0,0-5,11.37c-.42,3.8.26,9.28,4.55,10.66a4.88,4.88,0,0,0,4.37-.74,11.89,11.89,0,0,0,2.34-2.79,6.32,6.32,0,0,1,2.66-2.42c1.76-.67,2.94.42,3.72,1.86.68,1.25,1,3,2.3,3.87,1.52,1,3.49-.42,4.7-1.4s2.79-2.25,4.45-2c1.34.18,2.38,1.24,3.61,1.8a9.25,9.25,0,0,0,3.43.65,76.26,76.26,0,0,0,13.08-.56"/><polygon class="f" points="259.11 268.57 262.06 270.97 265.81 270.37 267.17 273.93 270.71 275.29 270.12 279.05 272.51 282.01 270.12 284.97 270.71 288.73 267.17 290.1 265.81 293.65 262.06 293.06 259.11 295.45 256.15 293.06 252.41 293.65 251.04 290.1 247.5 288.73 248.09 284.97 245.7 282.01 248.09 279.05 247.5 275.29 251.04 273.93 252.41 270.37 256.15 270.97 259.11 268.57"/><polyline class="d" points="277.57 252.14 253.03 252.14 253.03 227.53"/><line class="d" x1="199.73" y1="279.66" x2="230.18" y2="279.66"/><line class="d" x1="199.73" y1="284.36" x2="224.39" y2="284.36"/><path class="j" d="M316.58,437.78A97.26,97.26,0,0,1,412.75,535h0a97.25,97.25,0,0,1-97.25,97.25H298.57"/><polygon class="k" points="322.85 444.96 323.55 444.25 316.97 437.81 323.87 431.72 323.21 430.97 315.5 437.78 319.79 441.98 322.85 444.96"/><path class="d" d="M148.64,437.78A97.25,97.25,0,0,0,51.39,535h0a97.25,97.25,0,0,0,97.25,97.25h15.85"/><polygon class="l" points="158.04 639.28 157.36 638.54 164.1 632.28 157.36 626.01 158.04 625.28 165.57 632.28 161.17 636.37 158.04 639.28"/><rect class="m" x="362.75" y="520.03" width="100" height="30"/><path class="l" d="M335.35,56.55h3.26v5.32h.06a3.51,3.51,0,0,1,3-1.56c2.24,0,3.56,1.6,3.56,3.88v6.66H342v-6c0-1.08-.54-1.82-1.6-1.82s-1.8.9-1.8,2.16v5.66h-3.26Z"/><path class="l" d="M346.27,68c0-2.26,1.8-2.94,3.92-3.22,1.92-.24,2.6-.44,2.6-1.14s-.42-1.1-1.4-1.1-1.56.46-1.66,1.32h-3c.08-1.9,1.54-3.52,4.64-3.52a5.33,5.33,0,0,1,3.32.84,3.39,3.39,0,0,1,1.3,2.92v5.16c0,.82.08,1.28.36,1.46v.14h-3.16a2.86,2.86,0,0,1-.34-1.14h0a3.37,3.37,0,0,1-3,1.4C347.73,71.11,346.27,70,346.27,68Zm6.6-.8V66a7.91,7.91,0,0,1-1.68.54c-1.26.28-1.78.6-1.78,1.38S350,69,350.81,69A1.86,1.86,0,0,0,352.87,67.19Z"/><path class="l" d="M357.11,65.75a5.17,5.17,0,0,1,5.36-5.42c2.78,0,4.56,1.62,4.86,3.92h-3.14a1.69,1.69,0,0,0-1.68-1.52c-1.4,0-2.1,1.16-2.1,3s.7,3,2.1,3c1,0,1.64-.6,1.78-1.76h3.12c-.08,2.36-2,4.2-4.86,4.2A5.2,5.2,0,0,1,357.11,65.75Z"/><path class="l" d="M368.45,56.55h3.22v7.52l3-3.46h3.76l-3.6,3.84,4,6.4h-3.78l-2.46-4.18-1,1v3.14h-3.22Z"/><path class="l" d="M378.39,65.71a5.15,5.15,0,0,1,5.26-5.4,5,5,0,0,1,3.5,1.28,6.52,6.52,0,0,1,1.8,5h-7.36a2.26,2.26,0,0,0,2.3,2.24,1.7,1.7,0,0,0,1.7-1h3.18a4.17,4.17,0,0,1-1.72,2.42,5.41,5.41,0,0,1-3.2.94A5.18,5.18,0,0,1,378.39,65.71Zm7.26-1.08a2,2,0,0,0-1.94-2c-1.24,0-1.88.78-2.1,2Z"/><path class="l" d="M389.59,65.73c0-3.2,1.84-5.42,4.48-5.42a3.19,3.19,0,0,1,2.86,1.46H397V56.55h3.26v14.3h-3.12V69.47h0a3.37,3.37,0,0,1-3,1.7C391.45,71.17,389.59,69.15,389.59,65.73Zm7.48,0c0-1.72-.7-3-2.12-3s-2.06,1.2-2.06,2.92.76,2.9,2,2.9S397.07,67.41,397.07,65.73Z"/><path class="l" d="M337.2,91.12a6.17,6.17,0,0,1,0-7.09,4.31,4.31,0,0,1,5.24-.74,3.45,3.45,0,0,1,1.27,1.57l-1.15.61a2.15,2.15,0,0,0-.84-1.11,2.81,2.81,0,0,0-3.39.38,3,3,0,0,0-.7,2.05v1.58a2.92,2.92,0,0,0,.7,2,2.5,2.5,0,0,0,2,.79,2.58,2.58,0,0,0,2.52-1.62l1,.7a3.51,3.51,0,0,1-1.33,1.57,4,4,0,0,1-2.24.59A3.82,3.82,0,0,1,337.2,91.12Z"/><path class="l" d="M347.73,91.84a3.85,3.85,0,0,1-1.52-1.69,5.7,5.7,0,0,1-.53-2.55,5.79,5.79,0,0,1,.54-2.57,4,4,0,0,1,1.5-1.71,4.1,4.1,0,0,1,2.22-.6,4,4,0,0,1,2.16.58,3.9,3.9,0,0,1,1.45,1.61,5.22,5.22,0,0,1,.51,2.34v.69h-6.87v.43A2.69,2.69,0,0,0,350,91.2a2.87,2.87,0,0,0,2.67-1.62l1.06.72a3.45,3.45,0,0,1-1.41,1.55,4.47,4.47,0,0,1-2.32.59A4.36,4.36,0,0,1,347.73,91.84Zm.81-7.56a2.6,2.6,0,0,0-1,1,2.9,2.9,0,0,0-.36,1.44v.13h5.33v-.2a2.82,2.82,0,0,0-.71-2,2.44,2.44,0,0,0-1.87-.76A2.69,2.69,0,0,0,348.54,84.28Z"/><path class="l" d="M355.76,91h2.71V84.16h-2.71V82.93h4.15v2.34H360a3,3,0,0,1,3.14-2.34h1.29v1.44h-1.74a2.77,2.77,0,0,0-2.05.74,2.58,2.58,0,0,0-.73,1.87v4h3.6v1.22h-7.75Z"/><path class="l" d="M369.51,89.13a2.35,2.35,0,0,0,.27,1.27,1.17,1.17,0,0,0,.78.5,8.43,8.43,0,0,0,1.54.1h1.13v1.22h-1.11a8.72,8.72,0,0,1-2.28-.24,2.22,2.22,0,0,1-1.31-.93,3.41,3.41,0,0,1-.46-1.94v-5H365V82.93h3.1V79.66h1.44v3.27h4.23v1.23h-4.23Z"/><path class="l" d="M375.79,91h3.4V84.21h-3.4V82.93h4.84v8h3.12v1.26h-8Zm4.95-12.06v1.91h-1.91V78.9Z"/><path class="l" d="M385.56,91h3.14V84.16h-3.32V82.93h3.32V82a3.56,3.56,0,0,1,.45-2,2.3,2.3,0,0,1,1.32-.92,8.26,8.26,0,0,1,2.28-.25h1.11v1.23h-1.13a8.36,8.36,0,0,0-1.54.1,1.14,1.14,0,0,0-.78.5,2.33,2.33,0,0,0-.27,1.27v.93h3.72v1.23h-3.72V91h3.31v1.22h-7.89Z"/><path class="l" d="M395.59,91H399V84.21h-3.4V82.93h4.84v8h3.12v1.26h-8Zm5-12.06v1.91h-1.91V78.9Z"/><path class="l" d="M406.5,91.12a6.17,6.17,0,0,1,0-7.09,4.31,4.31,0,0,1,5.24-.74A3.45,3.45,0,0,1,413,84.86l-1.15.61a2.15,2.15,0,0,0-.84-1.11,2.81,2.81,0,0,0-3.39.38,3,3,0,0,0-.7,2.05v1.58a2.92,2.92,0,0,0,.7,2,2.5,2.5,0,0,0,2,.79,2.58,2.58,0,0,0,2.52-1.62l1,.7a3.51,3.51,0,0,1-1.33,1.57,4,4,0,0,1-2.24.59A3.82,3.82,0,0,1,406.5,91.12Z"/><path class="l" d="M422.68,92.22A1.52,1.52,0,0,1,421,90.71h-.09a2.66,2.66,0,0,1-2.79,1.73,3.38,3.38,0,0,1-2.32-.76,2.61,2.61,0,0,1-.86-2.07q0-2.7,4-2.7h2V86a2,2,0,0,0-.57-1.54,2.41,2.41,0,0,0-1.64-.52,2.68,2.68,0,0,0-2.49,1.37l-1-.72a3.19,3.19,0,0,1,1.3-1.33,4.36,4.36,0,0,1,2.25-.54,3.82,3.82,0,0,1,2.6.84,2.87,2.87,0,0,1,1,2.29v4.46A.65.65,0,0,0,423,91h.65v1.26Zm-2.47-1.48a1.45,1.45,0,0,0,.72-1.22V88h-2c-1.65,0-2.48.47-2.48,1.41v.37a1.26,1.26,0,0,0,.51,1.08,2.29,2.29,0,0,0,1.41.38A3.13,3.13,0,0,0,420.21,90.74Z"/><path class="l" d="M428.91,89.13a2.35,2.35,0,0,0,.27,1.27,1.17,1.17,0,0,0,.78.5,8.36,8.36,0,0,0,1.54.1h1.13v1.22h-1.11a8.72,8.72,0,0,1-2.28-.24,2.22,2.22,0,0,1-1.31-.93,3.41,3.41,0,0,1-.46-1.94v-5h-3.1V82.93h3.1V79.66h1.44v3.27h4.23v1.23h-4.23Z"/><path class="l" d="M436.83,91.84a3.85,3.85,0,0,1-1.52-1.69,5.7,5.7,0,0,1-.54-2.55,5.93,5.93,0,0,1,.54-2.57A4,4,0,0,1,439,82.72a3.88,3.88,0,0,1,3.61,2.19,5.22,5.22,0,0,1,.51,2.34v.69h-6.87v.43a2.69,2.69,0,0,0,2.84,2.83,2.87,2.87,0,0,0,2.67-1.62l1.06.72a3.42,3.42,0,0,1-1.42,1.55,4.41,4.41,0,0,1-2.31.59A4.36,4.36,0,0,1,436.83,91.84Zm.81-7.56a2.6,2.6,0,0,0-1,1,2.9,2.9,0,0,0-.36,1.44v.13h5.32v-.2a2.77,2.77,0,0,0-.71-2,2.41,2.41,0,0,0-1.86-.76A2.66,2.66,0,0,0,437.64,84.28Z"/><path class="l" d="M343.48,113.59a1.53,1.53,0,0,1-1.66-1.51h-.09a2.66,2.66,0,0,1-2.79,1.73,3.38,3.38,0,0,1-2.32-.76,2.61,2.61,0,0,1-.86-2.07c0-1.8,1.33-2.69,4-2.69h2v-.92a2,2,0,0,0-.57-1.53,2.36,2.36,0,0,0-1.64-.53,2.65,2.65,0,0,0-2.48,1.37l-1-.72a3.19,3.19,0,0,1,1.3-1.33,4.36,4.36,0,0,1,2.25-.54,3.82,3.82,0,0,1,2.6.84,2.88,2.88,0,0,1,1,2.29v4.47a.66.66,0,0,0,.19.46.65.65,0,0,0,.46.18h.65v1.26ZM341,112.11a1.45,1.45,0,0,0,.72-1.22v-1.53h-2c-1.65,0-2.48.47-2.48,1.41v.38a1.28,1.28,0,0,0,.51,1.08,2.39,2.39,0,0,0,1.42.37A3.11,3.11,0,0,0,341,112.11Z"/><path class="l" d="M352.07,112.08H352a2.65,2.65,0,0,1-2.64,1.73,3,3,0,0,1-2.35-.94,3.67,3.67,0,0,1-.87-2.61v-6h1.44V110a2.79,2.79,0,0,0,.55,1.89,2.09,2.09,0,0,0,1.64.63,2.79,2.79,0,0,0,1.63-.46,1.49,1.49,0,0,0,.68-1.32v-6.44h1.44v9.28h-1.44Z"/><path class="l" d="M359.61,110.5a2.33,2.33,0,0,0,.27,1.27,1.14,1.14,0,0,0,.78.5,8.43,8.43,0,0,0,1.54.1h1.13v1.22h-1.11a8.72,8.72,0,0,1-2.28-.24,2.22,2.22,0,0,1-1.31-.93,3.41,3.41,0,0,1-.46-1.94v-5h-3.1v-1.22h3.1V101h1.44v3.28h4.23v1.22h-4.23Z"/><path class="l" d="M366,100.27h1.44v5.55h.08a2.65,2.65,0,0,1,2.64-1.73,3,3,0,0,1,2.35.94,3.67,3.67,0,0,1,.87,2.61v6H372v-5.7a2.79,2.79,0,0,0-.55-1.89,2.09,2.09,0,0,0-1.64-.63,2.79,2.79,0,0,0-1.63.46,1.5,1.5,0,0,0-.68,1.32v6.44H366Z"/><path class="l" d="M377.33,113.22a3.87,3.87,0,0,1-1.46-1.7,6.73,6.73,0,0,1,0-5.14,3.87,3.87,0,0,1,1.46-1.7,4.55,4.55,0,0,1,4.48,0,3.87,3.87,0,0,1,1.46,1.7,6.73,6.73,0,0,1,0,5.14,3.87,3.87,0,0,1-1.46,1.7,4.55,4.55,0,0,1-4.48,0Zm4.2-1.4a3.05,3.05,0,0,0,.72-2.2v-1.33a3.06,3.06,0,0,0-.72-2.21,2.94,2.94,0,0,0-3.92,0,3.06,3.06,0,0,0-.72,2.21v1.33a3.05,3.05,0,0,0,.72,2.2,2.94,2.94,0,0,0,3.92,0Z"/><path class="l" d="M385.46,112.37h2.71v-6.84h-2.71v-1.22h4.15v2.34h.09a3,3,0,0,1,3.14-2.34h1.29v1.44h-1.74a2.76,2.76,0,0,0-2.05.73,2.6,2.6,0,0,0-.73,1.88v4h3.6v1.22h-7.75Z"/><path class="l" d="M395.59,112.33H399v-6.75h-3.4v-1.27h4.84v8h3.12v1.26h-8Zm5-12.06v1.91h-1.91v-1.91Z"/><path class="l" d="M409.11,110.5a2.33,2.33,0,0,0,.27,1.27,1.14,1.14,0,0,0,.78.5,8.43,8.43,0,0,0,1.54.1h1.13v1.22h-1.11a8.72,8.72,0,0,1-2.28-.24,2.22,2.22,0,0,1-1.31-.93,3.41,3.41,0,0,1-.46-1.94v-5h-3.1v-1.22h3.1V101h1.44v3.28h4.23v1.22h-4.23Z"/><path class="l" d="M422.18,104.31h1.44L419,115.63a2.17,2.17,0,0,1-2.38,1.56h-1.37V116h1.79a.52.52,0,0,0,.52-.36l.9-2.2-3.75-9.1h1.48l1.57,3.88,1.38,3.53h.07l1.39-3.53Z"/><path class="l" d="M336,259.06h3.24V248.19H336V247h4.68v12.09h3.24v1.23H336Z"/><path class="l" d="M347.73,259.91a3.9,3.9,0,0,1-1.52-1.69,6.39,6.39,0,0,1,0-5.12,4,4,0,0,1,3.72-2.32,4,4,0,0,1,2.16.59,3.84,3.84,0,0,1,1.45,1.61,5.16,5.16,0,0,1,.51,2.34V256h-6.87v.43a2.82,2.82,0,0,0,.77,2,2.77,2.77,0,0,0,2.07.79,3,3,0,0,0,1.6-.42,2.85,2.85,0,0,0,1.07-1.2l1.06.72a3.42,3.42,0,0,1-1.41,1.56,4.85,4.85,0,0,1-4.62,0Zm.81-7.57a2.62,2.62,0,0,0-1,1,2.9,2.9,0,0,0-.36,1.44v.12h5.33v-.19a2.82,2.82,0,0,0-.71-2,2.45,2.45,0,0,0-1.87-.77A2.69,2.69,0,0,0,348.54,252.34Z"/><path class="l" d="M363.46,260a4.12,4.12,0,0,1-1.08,3,4,4,0,0,1-3,1.1,4.41,4.41,0,0,1-3.33-1.28l.85-1a3.29,3.29,0,0,0,2.5,1c1.75,0,2.63-.92,2.63-2.77v-1.55H362a3,3,0,0,1-2.86,1.73,3.17,3.17,0,0,1-2.67-1.27,6.67,6.67,0,0,1,0-6.93,3.2,3.2,0,0,1,2.67-1.27,3,3,0,0,1,2.86,1.73H362V251h1.44Zm-2.12-1.51a1.67,1.67,0,0,0,.68-1.41V254a1.67,1.67,0,0,0-.68-1.41,2.83,2.83,0,0,0-1.7-.5,2.51,2.51,0,0,0-1.94.76,2.85,2.85,0,0,0-.7,2v1.33a2.89,2.89,0,0,0,.7,2,2.54,2.54,0,0,0,1.94.75A2.76,2.76,0,0,0,361.34,258.47Z"/><path class="l" d="M365.89,259h3.4v-6.75h-3.4V251h4.84v8h3.12v1.26h-8ZM370.84,247v1.9h-1.91V247Z"/><path class="l" d="M379.41,257.19a2.33,2.33,0,0,0,.27,1.27,1.14,1.14,0,0,0,.78.5,8.36,8.36,0,0,0,1.54.1h1.13v1.23H382a8.26,8.26,0,0,1-2.28-.25,2.25,2.25,0,0,1-1.31-.92,3.47,3.47,0,0,1-.46-1.95v-5h-3.1V251H378v-3.28h1.44V251h4.23v1.22h-4.23Z"/><path class="l" d="M385.69,259h3.4v-6.75h-3.4V251h4.84v8h3.11v1.26h-7.95ZM390.64,247v1.9h-1.91V247Z"/><path class="l" d="M395.7,251h1.44v1.51h.07a3.36,3.36,0,0,1,.93-1.27,2.51,2.51,0,0,1,1.57-.46,3.25,3.25,0,0,1,1.73.47,2.83,2.83,0,0,1,1.12,1.42h0a2.87,2.87,0,0,1,1-1.36,3,3,0,0,1,1.83-.53,2.77,2.77,0,0,1,2.22.94,3.9,3.9,0,0,1,.8,2.61v6H407v-5.71a3,3,0,0,0-.49-1.87,1.85,1.85,0,0,0-1.54-.63,2.54,2.54,0,0,0-1.55.46,1.51,1.51,0,0,0-.63,1.3v6.45h-1.44v-5.71a3,3,0,0,0-.49-1.88,1.79,1.79,0,0,0-1.51-.62,2.59,2.59,0,0,0-1.56.46,1.48,1.48,0,0,0-.65,1.3v6.45H395.7Z"/><path class="l" d="M418.18,260.29a1.53,1.53,0,0,1-1.66-1.52h-.09a2.65,2.65,0,0,1-2.79,1.73,3.42,3.42,0,0,1-2.32-.75,2.61,2.61,0,0,1-.86-2.07q0-2.7,4-2.7h2v-.92a2,2,0,0,0-.57-1.53,2.36,2.36,0,0,0-1.64-.52,2.67,2.67,0,0,0-2.49,1.36l-1-.72a3.24,3.24,0,0,1,1.3-1.33,4.36,4.36,0,0,1,2.25-.54,3.82,3.82,0,0,1,2.6.84,2.88,2.88,0,0,1,1,2.29v4.47a.65.65,0,0,0,.65.65h.65v1.26Zm-2.47-1.49a1.44,1.44,0,0,0,.72-1.21v-1.53h-2c-1.65,0-2.48.46-2.48,1.4v.38a1.26,1.26,0,0,0,.51,1.08,2.36,2.36,0,0,0,1.41.38A3.13,3.13,0,0,0,415.71,258.8Z"/><path class="l" d="M424.41,257.19a2.33,2.33,0,0,0,.27,1.27,1.14,1.14,0,0,0,.78.5,8.36,8.36,0,0,0,1.54.1h1.13v1.23H427a8.26,8.26,0,0,1-2.28-.25,2.25,2.25,0,0,1-1.31-.92,3.47,3.47,0,0,1-.46-1.95v-5h-3.1V251H423v-3.28h1.44V251h4.23v1.22h-4.23Z"/><path class="l" d="M432.33,259.91a3.9,3.9,0,0,1-1.52-1.69,5.77,5.77,0,0,1-.54-2.56,5.88,5.88,0,0,1,.54-2.56,4.07,4.07,0,0,1,1.51-1.71,4,4,0,0,1,2.22-.61,4,4,0,0,1,2.16.59,3.9,3.9,0,0,1,1.45,1.61,5.16,5.16,0,0,1,.51,2.34V256h-6.87v.43a2.82,2.82,0,0,0,.77,2,2.77,2.77,0,0,0,2.07.79,3,3,0,0,0,1.6-.42,2.85,2.85,0,0,0,1.07-1.2l1.06.72a3.39,3.39,0,0,1-1.42,1.56,4.83,4.83,0,0,1-4.61,0Zm.81-7.57a2.62,2.62,0,0,0-1,1,2.9,2.9,0,0,0-.36,1.44v.12h5.32v-.19a2.77,2.77,0,0,0-.71-2,2.41,2.41,0,0,0-1.86-.77A2.66,2.66,0,0,0,433.14,252.34Z"/><path class="l" d="M337.2,280.56a6.17,6.17,0,0,1,0-7.09,3.81,3.81,0,0,1,3.08-1.32,3.86,3.86,0,0,1,2.16.58,3.4,3.4,0,0,1,1.27,1.57l-1.15.61a2.22,2.22,0,0,0-.84-1.12,2.58,2.58,0,0,0-1.44-.39,2.49,2.49,0,0,0-1.95.78,2.92,2.92,0,0,0-.7,2v1.59a2.92,2.92,0,0,0,.7,2,2.53,2.53,0,0,0,2,.78,2.58,2.58,0,0,0,2.52-1.62l1,.7a3.54,3.54,0,0,1-1.33,1.58,4,4,0,0,1-2.24.58A3.81,3.81,0,0,1,337.2,280.56Z"/><path class="l" d="M347.73,281.28a3.9,3.9,0,0,1-1.52-1.69,6.39,6.39,0,0,1,0-5.12,4,4,0,0,1,1.5-1.71,4.11,4.11,0,0,1,2.22-.61,4,4,0,0,1,2.16.59,3.9,3.9,0,0,1,1.45,1.61,5.16,5.16,0,0,1,.51,2.34v.68h-6.87v.44a2.82,2.82,0,0,0,.77,2,2.77,2.77,0,0,0,2.07.79,3,3,0,0,0,1.6-.42,2.85,2.85,0,0,0,1.07-1.2l1.06.72a3.42,3.42,0,0,1-1.41,1.56,4.47,4.47,0,0,1-2.32.58A4.35,4.35,0,0,1,347.73,281.28Zm.81-7.57a2.69,2.69,0,0,0-1,1,2.9,2.9,0,0,0-.36,1.44v.12h5.33v-.19a2.82,2.82,0,0,0-.71-2,2.45,2.45,0,0,0-1.87-.77A2.79,2.79,0,0,0,348.54,273.71Z"/><path class="l" d="M355.76,280.43h2.71v-6.84h-2.71v-1.22h4.15v2.34H360a3,3,0,0,1,3.14-2.34h1.29v1.44h-1.74a2.77,2.77,0,0,0-2.05.74,2.56,2.56,0,0,0-.73,1.87v4h3.6v1.23h-7.75Z"/><path class="l" d="M369.51,278.56a2.33,2.33,0,0,0,.27,1.27,1.18,1.18,0,0,0,.78.51,9.7,9.7,0,0,0,1.54.09h1.13v1.23h-1.11a8.72,8.72,0,0,1-2.28-.24,2.31,2.31,0,0,1-1.31-.93,3.45,3.45,0,0,1-.46-1.95v-5H365v-1.22h3.1v-3.28h1.44v3.28h4.23v1.22h-4.23Z"/><path class="l" d="M375.79,280.4h3.4v-6.75h-3.4v-1.28h4.84v8h3.12v1.26h-8Zm4.95-12.06v1.91h-1.91v-1.91Z"/><path class="l" d="M385.56,280.43h3.14v-6.84h-3.32v-1.22h3.32v-.92a3.52,3.52,0,0,1,.45-1.94,2.27,2.27,0,0,1,1.32-.93,8.69,8.69,0,0,1,2.27-.24h1.12v1.22h-1.13a9.36,9.36,0,0,0-1.54.1,1.23,1.23,0,0,0-.79.51,2.42,2.42,0,0,0-.26,1.26v.94h3.72v1.22h-3.72v6.84h3.31v1.23h-7.89Z"/><path class="l" d="M395.59,280.4H399v-6.75h-3.4v-1.28h4.84v8h3.12v1.26h-8Zm5-12.06v1.91h-1.91v-1.91Z"/><path class="l" d="M406.5,280.56a6.17,6.17,0,0,1,0-7.09,4.26,4.26,0,0,1,5.23-.74A3.36,3.36,0,0,1,413,274.3l-1.15.61a2.22,2.22,0,0,0-.84-1.12,2.6,2.6,0,0,0-1.45-.39,2.49,2.49,0,0,0-1.94.78,2.92,2.92,0,0,0-.7,2v1.59a2.92,2.92,0,0,0,.7,2,2.53,2.53,0,0,0,2,.78,2.58,2.58,0,0,0,2.52-1.62l1,.7a3.56,3.56,0,0,1-1.34,1.58,4,4,0,0,1-2.23.58A3.81,3.81,0,0,1,406.5,280.56Z"/><path class="l" d="M422.68,281.66a1.53,1.53,0,0,1-1.66-1.51h-.09a2.66,2.66,0,0,1-2.79,1.72,3.42,3.42,0,0,1-2.32-.75,2.61,2.61,0,0,1-.86-2.07q0-2.7,4-2.7h2v-.92a2,2,0,0,0-.57-1.53,2.36,2.36,0,0,0-1.64-.52,2.66,2.66,0,0,0-2.49,1.37l-1-.72a3.26,3.26,0,0,1,1.3-1.34,4.36,4.36,0,0,1,2.25-.54,3.82,3.82,0,0,1,2.6.84,2.89,2.89,0,0,1,1,2.3v4.46a.66.66,0,0,0,.19.46.62.62,0,0,0,.46.19h.65v1.26Zm-2.47-1.49a1.44,1.44,0,0,0,.72-1.21v-1.53h-2c-1.65,0-2.48.47-2.48,1.4v.38a1.26,1.26,0,0,0,.51,1.08,2.36,2.36,0,0,0,1.41.38A3.13,3.13,0,0,0,420.21,280.17Z"/><path class="l" d="M428.91,278.56a2.33,2.33,0,0,0,.27,1.27,1.18,1.18,0,0,0,.78.51,9.61,9.61,0,0,0,1.54.09h1.13v1.23h-1.11a8.72,8.72,0,0,1-2.28-.24,2.31,2.31,0,0,1-1.31-.93,3.45,3.45,0,0,1-.46-1.95v-5h-3.1v-1.22h3.1v-3.28h1.44v3.28h4.23v1.22h-4.23Z"/><path class="l" d="M436.83,281.28a3.9,3.9,0,0,1-1.52-1.69,5.74,5.74,0,0,1-.54-2.56,5.91,5.91,0,0,1,.54-2.56,4,4,0,0,1,3.73-2.32,3.91,3.91,0,0,1,3.61,2.2,5.16,5.16,0,0,1,.51,2.34v.68h-6.87v.44a2.82,2.82,0,0,0,.77,2,2.77,2.77,0,0,0,2.07.79,3,3,0,0,0,1.6-.42,2.85,2.85,0,0,0,1.07-1.2l1.06.72a3.39,3.39,0,0,1-1.42,1.56,4.4,4.4,0,0,1-2.31.58A4.33,4.33,0,0,1,436.83,281.28Zm.81-7.57a2.69,2.69,0,0,0-1,1,2.9,2.9,0,0,0-.36,1.44v.12h5.32v-.19a2.77,2.77,0,0,0-.71-2,2.41,2.41,0,0,0-1.86-.77A2.76,2.76,0,0,0,437.64,273.71Z"/><path class="l" d="M335.35,385.86h3.26v5.32h.06a3.51,3.51,0,0,1,3-1.56c2.24,0,3.56,1.6,3.56,3.88v6.66H342v-6c0-1.08-.54-1.82-1.6-1.82s-1.8.9-1.8,2.16v5.66h-3.26Z"/><path class="l" d="M346.27,397.3c0-2.26,1.8-2.94,3.92-3.22,1.92-.24,2.6-.44,2.6-1.14s-.42-1.1-1.4-1.1-1.56.46-1.66,1.32h-3c.08-1.9,1.54-3.52,4.64-3.52a5.33,5.33,0,0,1,3.32.84,3.39,3.39,0,0,1,1.3,2.92v5.16c0,.82.08,1.28.36,1.46v.14h-3.16a2.86,2.86,0,0,1-.34-1.14h0a3.37,3.37,0,0,1-3,1.4C347.73,400.42,346.27,399.32,346.27,397.3Zm6.6-.8v-1.22a7.91,7.91,0,0,1-1.68.54c-1.26.28-1.78.6-1.78,1.38s.6,1.14,1.4,1.14A1.86,1.86,0,0,0,352.87,396.5Z"/><path class="l" d="M357.11,395.06a5.17,5.17,0,0,1,5.36-5.42c2.78,0,4.56,1.62,4.86,3.92h-3.14a1.69,1.69,0,0,0-1.68-1.52c-1.4,0-2.1,1.16-2.1,3s.7,3,2.1,3c1,0,1.64-.6,1.78-1.76h3.12c-.08,2.36-2,4.2-4.86,4.2A5.2,5.2,0,0,1,357.11,395.06Z"/><path class="l" d="M368.45,385.86h3.22v7.52l3-3.46h3.76l-3.6,3.84,4,6.4h-3.78L372.65,396l-1,1v3.14h-3.22Z"/><path class="l" d="M378.39,395a5.15,5.15,0,0,1,5.26-5.4,5,5,0,0,1,3.5,1.28,6.52,6.52,0,0,1,1.8,5h-7.36a2.26,2.26,0,0,0,2.3,2.24,1.7,1.7,0,0,0,1.7-1h3.18a4.17,4.17,0,0,1-1.72,2.42,5.41,5.41,0,0,1-3.2.94A5.18,5.18,0,0,1,378.39,395Zm7.26-1.08a2,2,0,0,0-1.94-2c-1.24,0-1.88.78-2.1,2Z"/><path class="l" d="M389.59,395c0-3.2,1.84-5.42,4.48-5.42a3.19,3.19,0,0,1,2.86,1.46H397v-5.22h3.26v14.3h-3.12v-1.38h0a3.37,3.37,0,0,1-3,1.7C391.45,400.48,389.59,398.46,389.59,395Zm7.48,0c0-1.72-.7-3-2.12-3s-2.06,1.2-2.06,2.92.76,2.9,2,2.9S397.07,396.72,397.07,395Z"/><path class="l" d="M337.36,412.24l.95,3.58,1.21,4.5h0l1.38-4.53,1.1-3.55h1.28l1.11,3.55,1.43,4.53h0l1.19-4.51.95-3.57h1.35l-2.64,9.29H345l-2.29-7.29h0l-.91,3-1.35,4.32h-1.75L336,412.24Z"/><path class="l" d="M353.13,421.15a3.85,3.85,0,0,1-1.52-1.69,5.71,5.71,0,0,1-.53-2.56,5.77,5.77,0,0,1,.54-2.56,4,4,0,0,1,1.5-1.71,4.1,4.1,0,0,1,2.22-.6,4,4,0,0,1,2.16.58,3.9,3.9,0,0,1,1.45,1.61,5.22,5.22,0,0,1,.51,2.34v.69h-6.87v.43a2.8,2.8,0,0,0,.77,2,2.77,2.77,0,0,0,2.07.79,3,3,0,0,0,1.6-.42,2.85,2.85,0,0,0,1.07-1.2l1.06.72a3.39,3.39,0,0,1-1.42,1.56,4.41,4.41,0,0,1-2.31.59A4.36,4.36,0,0,1,353.13,421.15Zm.81-7.57a2.69,2.69,0,0,0-1,1,2.9,2.9,0,0,0-.36,1.44v.13h5.33V416a2.82,2.82,0,0,0-.71-2,2.45,2.45,0,0,0-1.87-.77A2.79,2.79,0,0,0,353.94,413.58Z"/><path class="l" d="M361.48,408.21h1.44v5.54H363a3,3,0,0,1,2.86-1.72,3.15,3.15,0,0,1,2.68,1.28,7.14,7.14,0,0,1,0,7.15,3.16,3.16,0,0,1-2.68,1.29A3,3,0,0,1,363,420h-.07v1.51h-1.44Zm5.76,11.5a2.85,2.85,0,0,0,.7-2v-1.59a2.85,2.85,0,0,0-.7-2,2.54,2.54,0,0,0-1.94-.76,2.77,2.77,0,0,0-1.7.51,1.64,1.64,0,0,0-.68,1.4v3.35a1.64,1.64,0,0,0,.68,1.4,2.77,2.77,0,0,0,1.7.51A2.51,2.51,0,0,0,367.24,419.71Z"/><path class="l" d="M370.88,419.93l1-.85a4.53,4.53,0,0,0,1.49,1.1,4.59,4.59,0,0,0,1.87.36,3.43,3.43,0,0,0,1.8-.4,1.31,1.31,0,0,0,.67-1.2,1.07,1.07,0,0,0-.43-1,2.92,2.92,0,0,0-1.21-.39l-1.46-.22A8.36,8.36,0,0,1,373,417a2.77,2.77,0,0,1-1.16-.75,2.13,2.13,0,0,1-.48-1.47,2.35,2.35,0,0,1,1-2.06,4.66,4.66,0,0,1,2.72-.71,4.9,4.9,0,0,1,3.78,1.49l-.93.88a3.56,3.56,0,0,0-2.9-1.17,3.18,3.18,0,0,0-1.69.38,1.22,1.22,0,0,0-.58,1.1,1.06,1.06,0,0,0,.44,1,3,3,0,0,0,1.2.4l1.46.21a10.13,10.13,0,0,1,1.56.35,2.79,2.79,0,0,1,1.15.76,2.16,2.16,0,0,1,.47,1.47A2.47,2.47,0,0,1,378,421a4.8,4.8,0,0,1-2.86.77A5.44,5.44,0,0,1,370.88,419.93Z"/><path class="l" d="M381.19,420.27h3.4v-6.75h-3.4v-1.28H386v8h3.12v1.26h-8Zm4.95-12.06v1.91h-1.91v-1.91Z"/><path class="l" d="M394.71,418.43a2.33,2.33,0,0,0,.27,1.27,1.18,1.18,0,0,0,.78.51,9.45,9.45,0,0,0,1.54.1h1.13v1.22h-1.11a8.72,8.72,0,0,1-2.28-.24,2.26,2.26,0,0,1-1.31-.93,3.44,3.44,0,0,1-.46-1.94v-4.95h-3.1v-1.23h3.1V409h1.44v3.27h4.23v1.23h-4.23Z"/><path class="l" d="M402.63,421.15a3.85,3.85,0,0,1-1.52-1.69,5.71,5.71,0,0,1-.54-2.56,5.77,5.77,0,0,1,.55-2.56,4,4,0,0,1,1.5-1.71,4.1,4.1,0,0,1,2.22-.6,4,4,0,0,1,2.16.58,3.9,3.9,0,0,1,1.45,1.61,5.22,5.22,0,0,1,.51,2.34v.69h-6.87v.43a2.8,2.8,0,0,0,.77,2,2.77,2.77,0,0,0,2.07.79,3,3,0,0,0,1.6-.42,2.85,2.85,0,0,0,1.07-1.2l1.06.72a3.39,3.39,0,0,1-1.42,1.56,4.41,4.41,0,0,1-2.31.59A4.36,4.36,0,0,1,402.63,421.15Zm.81-7.57a2.69,2.69,0,0,0-1,1,2.9,2.9,0,0,0-.36,1.44v.13h5.32V416a2.77,2.77,0,0,0-.71-2,2.41,2.41,0,0,0-1.86-.77A2.76,2.76,0,0,0,403.44,413.58Z"/><path class="l" d="M369.23,530.73h3.12V532h.06a3.72,3.72,0,0,1,3.1-1.54c2.72,0,4.38,2.34,4.38,5.42,0,3.32-1.78,5.44-4.46,5.44a3.41,3.41,0,0,1-2.9-1.38h0v4.44h-3.26Zm7.36,5.24c0-1.76-.66-2.92-2.06-2.92s-2.14,1.26-2.14,2.92.8,2.8,2.2,2.8C375.83,538.77,376.59,537.71,376.59,536Z"/><path class="l" d="M380.51,538.11c0-2.26,1.8-2.94,3.92-3.22,1.92-.24,2.6-.44,2.6-1.14s-.42-1.1-1.4-1.1-1.56.46-1.66,1.32h-3c.08-1.9,1.54-3.52,4.64-3.52a5.33,5.33,0,0,1,3.32.84,3.39,3.39,0,0,1,1.3,2.92v5.16c0,.82.08,1.28.36,1.46V541h-3.16a2.86,2.86,0,0,1-.34-1.14h0a3.37,3.37,0,0,1-3,1.4C382,541.23,380.51,540.13,380.51,538.11Zm6.6-.8v-1.22a7.91,7.91,0,0,1-1.68.54c-1.26.28-1.78.6-1.78,1.38s.6,1.14,1.4,1.14A1.86,1.86,0,0,0,387.11,537.31Z"/><path class="l" d="M391.19,537.65h3.08a1.66,1.66,0,0,0,1.88,1.52c1,0,1.6-.36,1.6-1,0-.92-1.24-1-2.6-1.26-1.78-.3-3.68-.78-3.68-3.18,0-2.16,2-3.28,4.42-3.28,2.9,0,4.46,1.26,4.62,3.28h-3c-.12-.92-.74-1.2-1.64-1.2s-1.42.3-1.42.94,1.16.82,2.46,1.06c1.8.3,3.92.76,3.92,3.38,0,2.24-2,3.4-4.66,3.4C393.17,541.29,391.29,539.91,391.19,537.65Z"/><path class="l" d="M401.37,537.65h3.08a1.66,1.66,0,0,0,1.88,1.52c1,0,1.6-.36,1.6-1,0-.92-1.24-1-2.6-1.26-1.78-.3-3.68-.78-3.68-3.18,0-2.16,2-3.28,4.42-3.28,2.9,0,4.46,1.26,4.62,3.28h-3c-.12-.92-.74-1.2-1.64-1.2s-1.42.3-1.42.94,1.16.82,2.46,1.06c1.8.3,3.92.76,3.92,3.38,0,2.24-2,3.4-4.66,3.4C403.35,541.29,401.47,539.91,401.37,537.65Z"/><path class="l" d="M411,530.73h3.32l1.12,4.24c.22.82.46,2,.46,2h0s.24-1.18.46-2l1.08-4.18h2.76l1.12,4.18c.22.88.48,2.06.48,2.06h0s.26-1.18.48-2l1.14-4.24h3.22L423.53,541h-3.06l-1.2-4.64c-.22-.8-.44-1.84-.44-1.84h0s-.24,1-.46,1.84L417.11,541h-3Z"/><path class="l" d="M426.57,535.87a5.47,5.47,0,1,1,5.48,5.42A5.25,5.25,0,0,1,426.57,535.87Zm7.64,0c0-1.86-.76-3.12-2.18-3.12s-2.16,1.26-2.16,3.12.74,3.1,2.16,3.1S434.21,537.73,434.21,535.87Z"/><path class="l" d="M438.61,530.73h3.12v1.6h.06a3,3,0,0,1,2.8-1.76,1.71,1.71,0,0,1,.64.08v2.8h-.08c-2-.28-3.28.7-3.28,2.92V541h-3.26Z"/><path class="l" d="M445.61,535.85c0-3.2,1.84-5.42,4.48-5.42a3.19,3.19,0,0,1,2.86,1.46H453v-5.22h3.26V541h-3.12v-1.38h0a3.37,3.37,0,0,1-3,1.7C447.47,541.29,445.61,539.27,445.61,535.85Zm7.48,0c0-1.72-.7-3-2.12-3s-2.06,1.2-2.06,2.92.76,2.9,2,2.9S453.09,537.53,453.09,535.85Z"/><path class="l" d="M339.11,680.76l-3.33-9.29h1.46l2.77,8.09h.07l2.77-8.09h1.43L341,680.76Z"/><path class="l" d="M346.15,679.5h3.4v-6.75h-3.4v-1.28H351v8h3.11v1.26h-8Zm5-12.06v1.91h-1.91v-1.91Z"/><path class="l" d="M355.64,679.16l1-.85a4.4,4.4,0,0,0,1.49,1.1,4.59,4.59,0,0,0,1.87.36,3.43,3.43,0,0,0,1.8-.4,1.31,1.31,0,0,0,.67-1.2,1.05,1.05,0,0,0-.43-.95,2.77,2.77,0,0,0-1.21-.4l-1.46-.22a8.18,8.18,0,0,1-1.54-.35,2.77,2.77,0,0,1-1.16-.75,2.12,2.12,0,0,1-.48-1.47,2.35,2.35,0,0,1,1-2.06,4.73,4.73,0,0,1,2.72-.71,5,5,0,0,1,3.78,1.49l-.94.88a3.53,3.53,0,0,0-2.89-1.17,3.13,3.13,0,0,0-1.69.38,1.22,1.22,0,0,0-.58,1.1,1.06,1.06,0,0,0,.44.95,2.77,2.77,0,0,0,1.2.4l1.46.22a8.41,8.41,0,0,1,1.56.35,2.65,2.65,0,0,1,1.14.75,2.13,2.13,0,0,1,.48,1.47,2.47,2.47,0,0,1-1.06,2.13,4.8,4.8,0,0,1-2.86.77A5.44,5.44,0,0,1,355.64,679.16Z"/><path class="l" d="M366,679.5h3.4v-6.75H366v-1.28h4.84v8h3.11v1.26H366Zm4.95-12.06v1.91H369v-1.91Z"/><path class="l" d="M379.47,677.67a2.35,2.35,0,0,0,.27,1.27,1.17,1.17,0,0,0,.78.5,8.36,8.36,0,0,0,1.54.1h1.13v1.22h-1.11a8.72,8.72,0,0,1-2.28-.24,2.27,2.27,0,0,1-1.32-.93,3.5,3.5,0,0,1-.45-1.94V672.7h-3.1v-1.23H378V668.2h1.44v3.27h4.23v1.23h-4.23Z"/><path class="l" d="M387.29,680.38a3.84,3.84,0,0,1-1.46-1.69,6.76,6.76,0,0,1,0-5.15,3.9,3.9,0,0,1,1.46-1.69,4.55,4.55,0,0,1,4.48,0,3.9,3.9,0,0,1,1.46,1.69,6.76,6.76,0,0,1,0,5.15,3.84,3.84,0,0,1-1.46,1.69,4.48,4.48,0,0,1-4.48,0Zm4.2-1.39a3.05,3.05,0,0,0,.72-2.2v-1.34a3.05,3.05,0,0,0-.72-2.2,2.94,2.94,0,0,0-3.92,0,3.05,3.05,0,0,0-.72,2.2v1.34a3.05,3.05,0,0,0,.72,2.2,2.94,2.94,0,0,0,3.92,0Z"/><path class="l" d="M395.41,679.54h2.72V672.7h-2.72v-1.23h4.16v2.34h.09a3,3,0,0,1,3.13-2.34h1.3v1.44h-1.75a2.76,2.76,0,0,0-2,.74,2.54,2.54,0,0,0-.73,1.87v4h3.6v1.22h-7.76Z"/><path class="l" d="M405.13,679.16l1-.85a4.4,4.4,0,0,0,1.49,1.1,4.55,4.55,0,0,0,1.87.36,3.43,3.43,0,0,0,1.8-.4,1.31,1.31,0,0,0,.67-1.2,1.07,1.07,0,0,0-.43-.95,2.77,2.77,0,0,0-1.21-.4l-1.46-.22a8.48,8.48,0,0,1-1.55-.35,2.8,2.8,0,0,1-1.15-.75,2.12,2.12,0,0,1-.48-1.47,2.35,2.35,0,0,1,1-2.06,4.73,4.73,0,0,1,2.72-.71,5,5,0,0,1,3.78,1.49l-.94.88a3.53,3.53,0,0,0-2.89-1.17,3.13,3.13,0,0,0-1.69.38,1.22,1.22,0,0,0-.58,1.1,1.06,1.06,0,0,0,.44.95,2.77,2.77,0,0,0,1.2.4l1.45.22a8.35,8.35,0,0,1,1.57.35,2.71,2.71,0,0,1,1.14.75,2.13,2.13,0,0,1,.48,1.47,2.47,2.47,0,0,1-1.06,2.13,4.8,4.8,0,0,1-2.86.77A5.47,5.47,0,0,1,405.13,679.16Z"/></svg>